%TF.GenerationSoftware,KiCad,Pcbnew,9.0.6*%
%TF.CreationDate,2026-04-22T22:38:47-04:00*%
%TF.ProjectId,Display101Adapter,44697370-6c61-4793-9130-314164617074,rev?*%
%TF.SameCoordinates,Original*%
%TF.FileFunction,Paste,Bot*%
%TF.FilePolarity,Positive*%
%FSLAX46Y46*%
G04 Gerber Fmt 4.6, Leading zero omitted, Abs format (unit mm)*
G04 Created by KiCad (PCBNEW 9.0.6) date 2026-04-22 22:38:47*
%MOMM*%
%LPD*%
G01*
G04 APERTURE LIST*
%ADD10R,1.700000X0.600000*%
%ADD11R,2.800000X2.500000*%
G04 APERTURE END LIST*
D10*
%TO.C,J1*%
X153000000Y-78900000D03*
X153000000Y-77900000D03*
X153000000Y-76900000D03*
X153000000Y-75900000D03*
D11*
X150550000Y-117650000D03*
X150550000Y-73150000D03*
D10*
X153000000Y-79900000D03*
X153000000Y-80900000D03*
X153000000Y-81900000D03*
X153000000Y-82900000D03*
X153000000Y-83900000D03*
X153000000Y-84900000D03*
X153000000Y-85900000D03*
X153000000Y-86900000D03*
X153000000Y-87900000D03*
X153000000Y-88900000D03*
X153000000Y-89900000D03*
X153000000Y-90900000D03*
X153000000Y-91900000D03*
X153000000Y-92900000D03*
X153000000Y-93900000D03*
X153000000Y-94900000D03*
X153000000Y-95900000D03*
X153000000Y-96900000D03*
X153000000Y-97900000D03*
X153000000Y-98900000D03*
X153000000Y-99900000D03*
X153000000Y-100900000D03*
X153000000Y-101900000D03*
X153000000Y-102900000D03*
X153000000Y-103900000D03*
X153000000Y-104900000D03*
X153000000Y-105900000D03*
X153000000Y-106900000D03*
X153000000Y-107900000D03*
X153000000Y-108900000D03*
X153000000Y-109900000D03*
X153000000Y-110900000D03*
X153000000Y-111900000D03*
X153000000Y-112900000D03*
X153000000Y-113900000D03*
X153000000Y-114900000D03*
%TD*%
M02*
