%TF.GenerationSoftware,KiCad,Pcbnew,9.0.6*%
%TF.CreationDate,2026-04-22T22:38:47-04:00*%
%TF.ProjectId,Display101Adapter,44697370-6c61-4793-9130-314164617074,rev?*%
%TF.SameCoordinates,Original*%
%TF.FileFunction,Copper,L1,Top*%
%TF.FilePolarity,Positive*%
%FSLAX46Y46*%
G04 Gerber Fmt 4.6, Leading zero omitted, Abs format (unit mm)*
G04 Created by KiCad (PCBNEW 9.0.6) date 2026-04-22 22:38:47*
%MOMM*%
%LPD*%
G01*
G04 APERTURE LIST*
G04 Aperture macros list*
%AMRoundRect*
0 Rectangle with rounded corners*
0 $1 Rounding radius*
0 $2 $3 $4 $5 $6 $7 $8 $9 X,Y pos of 4 corners*
0 Add a 4 corners polygon primitive as box body*
4,1,4,$2,$3,$4,$5,$6,$7,$8,$9,$2,$3,0*
0 Add four circle primitives for the rounded corners*
1,1,$1+$1,$2,$3*
1,1,$1+$1,$4,$5*
1,1,$1+$1,$6,$7*
1,1,$1+$1,$8,$9*
0 Add four rect primitives between the rounded corners*
20,1,$1+$1,$2,$3,$4,$5,0*
20,1,$1+$1,$4,$5,$6,$7,0*
20,1,$1+$1,$6,$7,$8,$9,0*
20,1,$1+$1,$8,$9,$2,$3,0*%
G04 Aperture macros list end*
%TA.AperFunction,ComponentPad*%
%ADD10R,1.500000X1.500000*%
%TD*%
%TA.AperFunction,ComponentPad*%
%ADD11C,1.500000*%
%TD*%
%TA.AperFunction,ComponentPad*%
%ADD12C,1.950000*%
%TD*%
%TA.AperFunction,SMDPad,CuDef*%
%ADD13R,1.500000X1.000000*%
%TD*%
%TA.AperFunction,SMDPad,CuDef*%
%ADD14R,1.000000X1.500000*%
%TD*%
%TA.AperFunction,ComponentPad*%
%ADD15RoundRect,0.250000X-0.600000X-0.600000X0.600000X-0.600000X0.600000X0.600000X-0.600000X0.600000X0*%
%TD*%
%TA.AperFunction,ComponentPad*%
%ADD16C,1.700000*%
%TD*%
%TA.AperFunction,ComponentPad*%
%ADD17R,1.700000X1.700000*%
%TD*%
%TA.AperFunction,ViaPad*%
%ADD18C,0.600000*%
%TD*%
%TA.AperFunction,Conductor*%
%ADD19C,0.350000*%
%TD*%
G04 APERTURE END LIST*
D10*
%TO.P,SW1,1,COM*%
%TO.N,GND*%
X152400000Y-123500000D03*
D11*
%TO.P,SW1,2,NO*%
%TO.N,Net-(JP3-C)*%
X147900000Y-123500000D03*
D12*
%TO.P,SW1,3,GND_1*%
%TO.N,GND*%
X153650000Y-121000000D03*
%TO.P,SW1,4,GND_2*%
X146650000Y-121000000D03*
%TD*%
D13*
%TO.P,JP4,1,A*%
%TO.N,+VIN*%
X144000000Y-91900000D03*
%TO.P,JP4,2,C*%
%TO.N,D_BL*%
X144000000Y-93200000D03*
%TO.P,JP4,3,B*%
%TO.N,GP15*%
X144000000Y-94500000D03*
%TD*%
%TO.P,JP2,1,A*%
%TO.N,T_RST*%
X149000000Y-109300000D03*
%TO.P,JP2,2,C*%
%TO.N,GP15*%
X149000000Y-108000000D03*
%TO.P,JP2,3,B*%
%TO.N,T_INT*%
X149000000Y-106700000D03*
%TD*%
D14*
%TO.P,JP3,1,A*%
%TO.N,T_RST*%
X151100000Y-115900000D03*
%TO.P,JP3,2,C*%
%TO.N,Net-(JP3-C)*%
X149800000Y-115900000D03*
%TO.P,JP3,3,B*%
%TO.N,D_RST*%
X148500000Y-115900000D03*
%TD*%
D15*
%TO.P,J21,1,Pin_1*%
%TO.N,D_SDO{slash}RX*%
X158860000Y-91840000D03*
D16*
%TO.P,J21,2,Pin_2*%
%TO.N,D_CS*%
X161400000Y-91840000D03*
%TO.P,J21,3,Pin_3*%
%TO.N,D_CLK*%
X158860000Y-94380000D03*
%TO.P,J21,4,Pin_4*%
%TO.N,D_SDI{slash}TX*%
X161400000Y-94380000D03*
%TO.P,J21,5,Pin_5*%
%TO.N,GND*%
X158860000Y-96920000D03*
%TO.P,J21,6,Pin_6*%
%TO.N,+VIN*%
X161400000Y-96920000D03*
%TO.P,J21,7,Pin_7*%
%TO.N,GP12*%
X158860000Y-99460000D03*
%TO.P,J21,8,Pin_8*%
%TO.N,GP13*%
X161400000Y-99460000D03*
%TO.P,J21,9,Pin_9*%
%TO.N,GP14*%
X158860000Y-102000000D03*
%TO.P,J21,10,Pin_10*%
%TO.N,GP15*%
X161400000Y-102000000D03*
%TD*%
D13*
%TO.P,JP1,1,A*%
%TO.N,D_RST*%
X149100000Y-99200000D03*
%TO.P,JP1,2,C*%
%TO.N,GP14*%
X149100000Y-100500000D03*
%TO.P,JP1,3,B*%
%TO.N,T_RST*%
X149100000Y-101800000D03*
%TD*%
D17*
%TO.P,J2,1,Pin_1*%
%TO.N,GND*%
X137060000Y-73340000D03*
D16*
%TO.P,J2,2,Pin_2*%
X139600000Y-73340000D03*
%TO.P,J2,3,Pin_3*%
%TO.N,+VIN*%
X137060000Y-75880000D03*
%TO.P,J2,4,Pin_4*%
X139600000Y-75880000D03*
%TO.P,J2,5,Pin_5*%
%TO.N,D_CS*%
X137060000Y-78420000D03*
%TO.P,J2,6,Pin_6*%
%TO.N,D_SDO{slash}RX*%
X139600000Y-78420000D03*
%TO.P,J2,7,Pin_7*%
%TO.N,D_SDI{slash}TX*%
X137060000Y-80960000D03*
%TO.P,J2,8,Pin_8*%
%TO.N,D_CLK*%
X139600000Y-80960000D03*
%TO.P,J2,9,Pin_9*%
%TO.N,unconnected-(J2-Pin_9-Pad9)*%
X137060000Y-83500000D03*
%TO.P,J2,10,Pin_10*%
%TO.N,unconnected-(J2-Pin_10-Pad10)*%
X139600000Y-83500000D03*
%TO.P,J2,11,Pin_11*%
%TO.N,D_RST*%
X137060000Y-86040000D03*
%TO.P,J2,12,Pin_12*%
%TO.N,unconnected-(J2-Pin_12-Pad12)*%
X139600000Y-86040000D03*
%TO.P,J2,13,Pin_13*%
%TO.N,GND*%
X137060000Y-88580000D03*
%TO.P,J2,14,Pin_14*%
%TO.N,D_BL*%
X139600000Y-88580000D03*
%TO.P,J2,15,Pin_15*%
%TO.N,unconnected-(J2-Pin_15-Pad15)*%
X137060000Y-91120000D03*
%TO.P,J2,16,Pin_16*%
%TO.N,unconnected-(J2-Pin_16-Pad16)*%
X139600000Y-91120000D03*
%TO.P,J2,17,Pin_17*%
%TO.N,unconnected-(J2-Pin_17-Pad17)*%
X137060000Y-93660000D03*
%TO.P,J2,18,Pin_18*%
%TO.N,unconnected-(J2-Pin_18-Pad18)*%
X139600000Y-93660000D03*
%TO.P,J2,19,Pin_19*%
%TO.N,unconnected-(J2-Pin_19-Pad19)*%
X137060000Y-96200000D03*
%TO.P,J2,20,Pin_20*%
%TO.N,unconnected-(J2-Pin_20-Pad20)*%
X139600000Y-96200000D03*
%TO.P,J2,21,Pin_21*%
%TO.N,unconnected-(J2-Pin_21-Pad21)*%
X137060000Y-98740000D03*
%TO.P,J2,22,Pin_22*%
%TO.N,unconnected-(J2-Pin_22-Pad22)*%
X139600000Y-98740000D03*
%TO.P,J2,23,Pin_23*%
%TO.N,unconnected-(J2-Pin_23-Pad23)*%
X137060000Y-101280000D03*
%TO.P,J2,24,Pin_24*%
%TO.N,unconnected-(J2-Pin_24-Pad24)*%
X139600000Y-101280000D03*
%TO.P,J2,25,Pin_25*%
%TO.N,unconnected-(J2-Pin_25-Pad25)*%
X137060000Y-103820000D03*
%TO.P,J2,26,Pin_26*%
%TO.N,unconnected-(J2-Pin_26-Pad26)*%
X139600000Y-103820000D03*
%TO.P,J2,27,Pin_27*%
%TO.N,unconnected-(J2-Pin_27-Pad27)*%
X137060000Y-106360000D03*
%TO.P,J2,28,Pin_28*%
%TO.N,unconnected-(J2-Pin_28-Pad28)*%
X139600000Y-106360000D03*
%TO.P,J2,29,Pin_29*%
%TO.N,unconnected-(J2-Pin_29-Pad29)*%
X137060000Y-108900000D03*
%TO.P,J2,30,Pin_30*%
%TO.N,unconnected-(J2-Pin_30-Pad30)*%
X139600000Y-108900000D03*
%TO.P,J2,31,Pin_31*%
%TO.N,GND*%
X137060000Y-111440000D03*
%TO.P,J2,32,Pin_32*%
%TO.N,unconnected-(J2-Pin_32-Pad32)*%
X139600000Y-111440000D03*
%TO.P,J2,33,Pin_33*%
%TO.N,T_INT*%
X137060000Y-113980000D03*
%TO.P,J2,34,Pin_34*%
%TO.N,GP12*%
X139600000Y-113980000D03*
%TO.P,J2,35,Pin_35*%
%TO.N,GP13*%
X137060000Y-116520000D03*
%TO.P,J2,36,Pin_36*%
%TO.N,T_RST*%
X139600000Y-116520000D03*
%TO.P,J2,37,Pin_37*%
%TO.N,+VIN*%
X137060000Y-119060000D03*
%TO.P,J2,38,Pin_38*%
X139600000Y-119060000D03*
%TO.P,J2,39,Pin_39*%
%TO.N,GND*%
X137060000Y-121600000D03*
%TO.P,J2,40,Pin_40*%
X139600000Y-121600000D03*
%TD*%
D18*
%TO.N,GP13*%
X158300000Y-109900000D03*
X150400000Y-112000000D03*
%TO.N,GP12*%
X150100000Y-104300000D03*
X153000000Y-108900000D03*
%TO.N,D_SDI{slash}TX*%
X145050000Y-81750000D03*
%TO.N,D_CS*%
X153000000Y-79900000D03*
%TO.N,D_RST*%
X149100000Y-99200000D03*
%TO.N,T_INT*%
X149000000Y-106700000D03*
%TO.N,T_RST*%
X149000000Y-109300000D03*
%TO.N,GP15*%
X149000000Y-108000000D03*
%TD*%
D19*
%TO.N,GP13*%
X150400000Y-112000000D02*
X156200000Y-112000000D01*
X156200000Y-112000000D02*
X158300000Y-109900000D01*
%TO.N,GP15*%
X161400000Y-104100000D02*
X161400000Y-102000000D01*
X155400000Y-110100000D02*
X161400000Y-104100000D01*
X149900000Y-108000000D02*
X152000000Y-110100000D01*
X152000000Y-110100000D02*
X155400000Y-110100000D01*
X149000000Y-108000000D02*
X149900000Y-108000000D01*
%TO.N,T_RST*%
X151100000Y-114900000D02*
X151100000Y-115900000D01*
X149000000Y-109300000D02*
X149000000Y-112800000D01*
X149000000Y-112800000D02*
X151100000Y-114900000D01*
%TO.N,GP12*%
X153000000Y-107200000D02*
X153000000Y-108900000D01*
X150100000Y-104300000D02*
X153000000Y-107200000D01*
%TO.N,GP15*%
X160100000Y-98700000D02*
X160100000Y-100700000D01*
X160100000Y-100700000D02*
X161400000Y-102000000D01*
X159600000Y-98200000D02*
X160100000Y-98700000D01*
X155866174Y-98200000D02*
X159600000Y-98200000D01*
X152166174Y-94500000D02*
X155866174Y-98200000D01*
X144000000Y-94500000D02*
X152166174Y-94500000D01*
%TO.N,GP14*%
X153300000Y-102000000D02*
X158860000Y-102000000D01*
X149100000Y-100500000D02*
X151800000Y-100500000D01*
X151800000Y-100500000D02*
X153300000Y-102000000D01*
%TO.N,T_RST*%
X146900000Y-104000000D02*
X149100000Y-101800000D01*
X146900000Y-108600000D02*
X146900000Y-104000000D01*
X147600000Y-109300000D02*
X146900000Y-108600000D01*
X149000000Y-109300000D02*
X147600000Y-109300000D01*
%TO.N,D_SDI{slash}TX*%
X145050000Y-81750000D02*
X143034000Y-79734000D01*
%TO.N,D_SDO{slash}RX*%
X150420000Y-78420000D02*
X139600000Y-78420000D01*
X158860000Y-86860000D02*
X150420000Y-78420000D01*
X158860000Y-91840000D02*
X158860000Y-86860000D01*
%TO.N,D_CS*%
X150294000Y-77194000D02*
X138286000Y-77194000D01*
X161400000Y-88300000D02*
X150294000Y-77194000D01*
X138286000Y-77194000D02*
X137060000Y-78420000D01*
X161400000Y-91840000D02*
X161400000Y-88300000D01*
%TO.N,D_SDI{slash}TX*%
X143034000Y-79734000D02*
X138286000Y-79734000D01*
X138286000Y-79734000D02*
X137060000Y-80960000D01*
X156400000Y-93100000D02*
X145050000Y-81750000D01*
X160120000Y-93100000D02*
X156400000Y-93100000D01*
X161400000Y-94380000D02*
X160120000Y-93100000D01*
%TO.N,+VIN*%
X144000000Y-91900000D02*
X151420768Y-91900000D01*
X151420768Y-91900000D02*
X155126768Y-95606000D01*
X155126768Y-95606000D02*
X160086000Y-95606000D01*
X160086000Y-95606000D02*
X161400000Y-96920000D01*
%TO.N,D_RST*%
X144400000Y-111800000D02*
X144400000Y-102800000D01*
X148500000Y-115900000D02*
X144400000Y-111800000D01*
X148000000Y-99200000D02*
X149100000Y-99200000D01*
X144400000Y-102800000D02*
X148000000Y-99200000D01*
%TO.N,D_BL*%
X143413826Y-93200000D02*
X139600000Y-89386174D01*
X144000000Y-93200000D02*
X143413826Y-93200000D01*
X139600000Y-89386174D02*
X139600000Y-88580000D01*
%TO.N,D_CLK*%
X142460000Y-80960000D02*
X139600000Y-80960000D01*
X158860000Y-94380000D02*
X155880000Y-94380000D01*
X155880000Y-94380000D02*
X142460000Y-80960000D01*
%TO.N,Net-(JP3-C)*%
X147900000Y-123500000D02*
X149700000Y-121700000D01*
X149700000Y-116000000D02*
X149800000Y-115900000D01*
X149700000Y-121700000D02*
X149700000Y-116000000D01*
%TD*%
%TA.AperFunction,Conductor*%
%TO.N,+VIN*%
G36*
X139134075Y-119252993D02*
G01*
X139199901Y-119367007D01*
X139292993Y-119460099D01*
X139407007Y-119525925D01*
X139470590Y-119542962D01*
X138838282Y-120175269D01*
X138838282Y-120175270D01*
X138892452Y-120214626D01*
X138892451Y-120214626D01*
X138901495Y-120219234D01*
X138952292Y-120267208D01*
X138969087Y-120335029D01*
X138946550Y-120401164D01*
X138901499Y-120440202D01*
X138892182Y-120444949D01*
X138720213Y-120569890D01*
X138569890Y-120720213D01*
X138444949Y-120892182D01*
X138440484Y-120900946D01*
X138392509Y-120951742D01*
X138324688Y-120968536D01*
X138258553Y-120945998D01*
X138219516Y-120900946D01*
X138215050Y-120892182D01*
X138090109Y-120720213D01*
X137939786Y-120569890D01*
X137767817Y-120444949D01*
X137758504Y-120440204D01*
X137707707Y-120392230D01*
X137690912Y-120324409D01*
X137713449Y-120258274D01*
X137758507Y-120219232D01*
X137767555Y-120214622D01*
X137821716Y-120175270D01*
X137821717Y-120175270D01*
X137189408Y-119542962D01*
X137252993Y-119525925D01*
X137367007Y-119460099D01*
X137460099Y-119367007D01*
X137525925Y-119252993D01*
X137542962Y-119189408D01*
X138175270Y-119821717D01*
X138175270Y-119821716D01*
X138214622Y-119767554D01*
X138219514Y-119757954D01*
X138267488Y-119707157D01*
X138335308Y-119690361D01*
X138401444Y-119712897D01*
X138440486Y-119757954D01*
X138445375Y-119767550D01*
X138484728Y-119821716D01*
X139117037Y-119189408D01*
X139134075Y-119252993D01*
G37*
%TD.AperFunction*%
%TA.AperFunction,Conductor*%
G36*
X138401444Y-117173999D02*
G01*
X138440486Y-117219056D01*
X138444951Y-117227820D01*
X138569890Y-117399786D01*
X138720213Y-117550109D01*
X138892179Y-117675048D01*
X138892181Y-117675049D01*
X138892184Y-117675051D01*
X138901493Y-117679794D01*
X138952290Y-117727766D01*
X138969087Y-117795587D01*
X138946552Y-117861722D01*
X138901505Y-117900760D01*
X138892446Y-117905376D01*
X138892440Y-117905380D01*
X138838282Y-117944727D01*
X138838282Y-117944728D01*
X139470591Y-118577037D01*
X139407007Y-118594075D01*
X139292993Y-118659901D01*
X139199901Y-118752993D01*
X139134075Y-118867007D01*
X139117037Y-118930591D01*
X138484728Y-118298282D01*
X138484727Y-118298282D01*
X138445380Y-118352440D01*
X138440483Y-118362051D01*
X138392506Y-118412845D01*
X138324684Y-118429638D01*
X138258550Y-118407098D01*
X138219516Y-118362048D01*
X138214626Y-118352452D01*
X138175270Y-118298282D01*
X138175269Y-118298282D01*
X137542962Y-118930590D01*
X137525925Y-118867007D01*
X137460099Y-118752993D01*
X137367007Y-118659901D01*
X137252993Y-118594075D01*
X137189409Y-118577037D01*
X137821716Y-117944728D01*
X137767547Y-117905373D01*
X137767547Y-117905372D01*
X137758500Y-117900763D01*
X137707706Y-117852788D01*
X137690912Y-117784966D01*
X137713451Y-117718832D01*
X137758508Y-117679793D01*
X137767816Y-117675051D01*
X137847007Y-117617515D01*
X137939786Y-117550109D01*
X137939788Y-117550106D01*
X137939792Y-117550104D01*
X138090104Y-117399792D01*
X138090106Y-117399788D01*
X138090109Y-117399786D01*
X138215048Y-117227820D01*
X138215047Y-117227820D01*
X138215051Y-117227816D01*
X138219514Y-117219054D01*
X138267488Y-117168259D01*
X138335308Y-117151463D01*
X138401444Y-117173999D01*
G37*
%TD.AperFunction*%
%TA.AperFunction,Conductor*%
G36*
X142195876Y-81655185D02*
G01*
X142216518Y-81671819D01*
X155449390Y-94904692D01*
X155449394Y-94904695D01*
X155560024Y-94978616D01*
X155560028Y-94978618D01*
X155560031Y-94978620D01*
X155682964Y-95029541D01*
X155813464Y-95055499D01*
X155813468Y-95055500D01*
X155813469Y-95055500D01*
X155946531Y-95055500D01*
X157618288Y-95055500D01*
X157685327Y-95075185D01*
X157718606Y-95106615D01*
X157829890Y-95259785D01*
X157829894Y-95259790D01*
X157980213Y-95410109D01*
X158152182Y-95535050D01*
X158160946Y-95539516D01*
X158211742Y-95587491D01*
X158228536Y-95655312D01*
X158205998Y-95721447D01*
X158160946Y-95760484D01*
X158152182Y-95764949D01*
X157980213Y-95889890D01*
X157829890Y-96040213D01*
X157704951Y-96212179D01*
X157608444Y-96401585D01*
X157542753Y-96603760D01*
X157524594Y-96718412D01*
X157509500Y-96813713D01*
X157509500Y-97026287D01*
X157542754Y-97236243D01*
X157583675Y-97362184D01*
X157585670Y-97432023D01*
X157549590Y-97491856D01*
X157486889Y-97522684D01*
X157465744Y-97524500D01*
X156197337Y-97524500D01*
X156130298Y-97504815D01*
X156109656Y-97488181D01*
X152596783Y-93975307D01*
X152596779Y-93975304D01*
X152486149Y-93901383D01*
X152486139Y-93901378D01*
X152363210Y-93850459D01*
X152363202Y-93850457D01*
X152232709Y-93824500D01*
X152232705Y-93824500D01*
X145374500Y-93824500D01*
X145307461Y-93804815D01*
X145261706Y-93752011D01*
X145250500Y-93700500D01*
X145250499Y-92652129D01*
X145250498Y-92652123D01*
X145244091Y-92592516D01*
X145242307Y-92584966D01*
X145243559Y-92584669D01*
X145239145Y-92522924D01*
X145243132Y-92509346D01*
X145243598Y-92507375D01*
X145249999Y-92447844D01*
X145250000Y-92447827D01*
X145250000Y-92150000D01*
X144124000Y-92150000D01*
X144056961Y-92130315D01*
X144011206Y-92077511D01*
X144000000Y-92026000D01*
X144000000Y-91900000D01*
X143874000Y-91900000D01*
X143806961Y-91880315D01*
X143761206Y-91827511D01*
X143750000Y-91776000D01*
X143750000Y-91650000D01*
X144250000Y-91650000D01*
X145250000Y-91650000D01*
X145250000Y-91352172D01*
X145249999Y-91352155D01*
X145243598Y-91292627D01*
X145243596Y-91292620D01*
X145193354Y-91157913D01*
X145193350Y-91157906D01*
X145107190Y-91042812D01*
X145107187Y-91042809D01*
X144992093Y-90956649D01*
X144992086Y-90956645D01*
X144857379Y-90906403D01*
X144857372Y-90906401D01*
X144797844Y-90900000D01*
X144250000Y-90900000D01*
X144250000Y-91650000D01*
X143750000Y-91650000D01*
X143750000Y-90900000D01*
X143202155Y-90900000D01*
X143142627Y-90906401D01*
X143142620Y-90906403D01*
X143007913Y-90956645D01*
X143007906Y-90956649D01*
X142892812Y-91042809D01*
X142892809Y-91042812D01*
X142806649Y-91157906D01*
X142806645Y-91157913D01*
X142756403Y-91292620D01*
X142756401Y-91292626D01*
X142755503Y-91300984D01*
X142728763Y-91365534D01*
X142671369Y-91405381D01*
X142601544Y-91407872D01*
X142544533Y-91375406D01*
X140704492Y-89535365D01*
X140671007Y-89474042D01*
X140675991Y-89404350D01*
X140691855Y-89374799D01*
X140712731Y-89346063D01*
X140755051Y-89287816D01*
X140851557Y-89098412D01*
X140917246Y-88896243D01*
X140950500Y-88686287D01*
X140950500Y-88473713D01*
X140917246Y-88263757D01*
X140851557Y-88061588D01*
X140755051Y-87872184D01*
X140755049Y-87872181D01*
X140755048Y-87872179D01*
X140630109Y-87700213D01*
X140479786Y-87549890D01*
X140307820Y-87424951D01*
X140307115Y-87424591D01*
X140299054Y-87420485D01*
X140248259Y-87372512D01*
X140231463Y-87304692D01*
X140253999Y-87238556D01*
X140299054Y-87199515D01*
X140307816Y-87195051D01*
X140433851Y-87103482D01*
X140479786Y-87070109D01*
X140479788Y-87070106D01*
X140479792Y-87070104D01*
X140630104Y-86919792D01*
X140630106Y-86919788D01*
X140630109Y-86919786D01*
X140755048Y-86747820D01*
X140755047Y-86747820D01*
X140755051Y-86747816D01*
X140851557Y-86558412D01*
X140917246Y-86356243D01*
X140950500Y-86146287D01*
X140950500Y-85933713D01*
X140917246Y-85723757D01*
X140851557Y-85521588D01*
X140755051Y-85332184D01*
X140755049Y-85332181D01*
X140755048Y-85332179D01*
X140630109Y-85160213D01*
X140479786Y-85009890D01*
X140307820Y-84884951D01*
X140307115Y-84884591D01*
X140299054Y-84880485D01*
X140248259Y-84832512D01*
X140231463Y-84764692D01*
X140253999Y-84698556D01*
X140299054Y-84659515D01*
X140307816Y-84655051D01*
X140329789Y-84639086D01*
X140479786Y-84530109D01*
X140479788Y-84530106D01*
X140479792Y-84530104D01*
X140630104Y-84379792D01*
X140630106Y-84379788D01*
X140630109Y-84379786D01*
X140755048Y-84207820D01*
X140755047Y-84207820D01*
X140755051Y-84207816D01*
X140851557Y-84018412D01*
X140917246Y-83816243D01*
X140950500Y-83606287D01*
X140950500Y-83393713D01*
X140917246Y-83183757D01*
X140851557Y-82981588D01*
X140755051Y-82792184D01*
X140755049Y-82792181D01*
X140755048Y-82792179D01*
X140630109Y-82620213D01*
X140479786Y-82469890D01*
X140307820Y-82344951D01*
X140307115Y-82344591D01*
X140299054Y-82340485D01*
X140248259Y-82292512D01*
X140231463Y-82224692D01*
X140253999Y-82158556D01*
X140299054Y-82119515D01*
X140307816Y-82115051D01*
X140329789Y-82099086D01*
X140479786Y-81990109D01*
X140479788Y-81990106D01*
X140479792Y-81990104D01*
X140630104Y-81839792D01*
X140637666Y-81829382D01*
X140741394Y-81686615D01*
X140796724Y-81643949D01*
X140841712Y-81635500D01*
X142128837Y-81635500D01*
X142195876Y-81655185D01*
G37*
%TD.AperFunction*%
%TA.AperFunction,Conductor*%
G36*
X160201444Y-95033999D02*
G01*
X160240486Y-95079056D01*
X160244951Y-95087820D01*
X160369890Y-95259786D01*
X160520213Y-95410109D01*
X160692179Y-95535048D01*
X160692181Y-95535049D01*
X160692184Y-95535051D01*
X160701493Y-95539794D01*
X160752290Y-95587766D01*
X160769087Y-95655587D01*
X160746552Y-95721722D01*
X160701505Y-95760760D01*
X160692446Y-95765376D01*
X160692440Y-95765380D01*
X160638282Y-95804727D01*
X160638282Y-95804728D01*
X161270591Y-96437037D01*
X161207007Y-96454075D01*
X161092993Y-96519901D01*
X160999901Y-96612993D01*
X160934075Y-96727007D01*
X160917037Y-96790591D01*
X160284728Y-96158282D01*
X160284727Y-96158282D01*
X160245380Y-96212440D01*
X160245376Y-96212446D01*
X160240760Y-96221505D01*
X160192781Y-96272297D01*
X160124959Y-96289087D01*
X160058826Y-96266543D01*
X160019794Y-96221493D01*
X160015051Y-96212184D01*
X160015049Y-96212181D01*
X160015048Y-96212179D01*
X159890109Y-96040213D01*
X159739786Y-95889890D01*
X159567820Y-95764951D01*
X159559600Y-95760763D01*
X159559054Y-95760485D01*
X159508259Y-95712512D01*
X159491463Y-95644692D01*
X159513999Y-95578556D01*
X159559054Y-95539515D01*
X159567816Y-95535051D01*
X159615373Y-95500499D01*
X159739786Y-95410109D01*
X159739788Y-95410106D01*
X159739792Y-95410104D01*
X159890104Y-95259792D01*
X159890106Y-95259788D01*
X159890109Y-95259786D01*
X160015048Y-95087820D01*
X160015047Y-95087820D01*
X160015051Y-95087816D01*
X160019514Y-95079054D01*
X160067488Y-95028259D01*
X160135308Y-95011463D01*
X160201444Y-95033999D01*
G37*
%TD.AperFunction*%
%TA.AperFunction,Conductor*%
G36*
X138578418Y-74235417D02*
G01*
X138606673Y-74256569D01*
X138720213Y-74370109D01*
X138892179Y-74495048D01*
X138892181Y-74495049D01*
X138892184Y-74495051D01*
X138901493Y-74499794D01*
X138952290Y-74547766D01*
X138969087Y-74615587D01*
X138946552Y-74681722D01*
X138901505Y-74720760D01*
X138892446Y-74725376D01*
X138892440Y-74725380D01*
X138838282Y-74764727D01*
X138838282Y-74764728D01*
X139470591Y-75397037D01*
X139407007Y-75414075D01*
X139292993Y-75479901D01*
X139199901Y-75572993D01*
X139134075Y-75687007D01*
X139117037Y-75750591D01*
X138484728Y-75118282D01*
X138484727Y-75118282D01*
X138445380Y-75172440D01*
X138440483Y-75182051D01*
X138392506Y-75232845D01*
X138324684Y-75249638D01*
X138258550Y-75227098D01*
X138219516Y-75182048D01*
X138214626Y-75172452D01*
X138175270Y-75118282D01*
X138175269Y-75118282D01*
X137542962Y-75750590D01*
X137525925Y-75687007D01*
X137460099Y-75572993D01*
X137367007Y-75479901D01*
X137252993Y-75414075D01*
X137189409Y-75397037D01*
X137859627Y-74726818D01*
X137920950Y-74693333D01*
X137947307Y-74690499D01*
X137957872Y-74690499D01*
X138017483Y-74684091D01*
X138152331Y-74633796D01*
X138267546Y-74547546D01*
X138353796Y-74432331D01*
X138402810Y-74300916D01*
X138444681Y-74244984D01*
X138510145Y-74220566D01*
X138578418Y-74235417D01*
G37*
%TD.AperFunction*%
%TA.AperFunction,Conductor*%
G36*
X165050539Y-70074185D02*
G01*
X165096294Y-70126989D01*
X165107500Y-70178500D01*
X165107500Y-126278072D01*
X165087815Y-126345111D01*
X165035011Y-126390866D01*
X164984313Y-126402069D01*
X135537313Y-126595164D01*
X135470146Y-126575920D01*
X135424046Y-126523417D01*
X135412500Y-126471167D01*
X135412500Y-72442135D01*
X135709500Y-72442135D01*
X135709500Y-74237870D01*
X135709501Y-74237876D01*
X135715908Y-74297483D01*
X135766202Y-74432328D01*
X135766206Y-74432335D01*
X135852452Y-74547544D01*
X135852455Y-74547547D01*
X135967664Y-74633793D01*
X135967671Y-74633797D01*
X136012618Y-74650561D01*
X136102517Y-74684091D01*
X136162127Y-74690500D01*
X136172685Y-74690499D01*
X136239723Y-74710179D01*
X136260372Y-74726818D01*
X136930591Y-75397037D01*
X136867007Y-75414075D01*
X136752993Y-75479901D01*
X136659901Y-75572993D01*
X136594075Y-75687007D01*
X136577037Y-75750591D01*
X135944728Y-75118282D01*
X135944727Y-75118282D01*
X135905380Y-75172439D01*
X135808904Y-75361782D01*
X135743242Y-75563869D01*
X135743242Y-75563872D01*
X135710000Y-75773753D01*
X135710000Y-75986246D01*
X135743242Y-76196127D01*
X135743242Y-76196130D01*
X135808904Y-76398217D01*
X135905375Y-76587550D01*
X135944728Y-76641716D01*
X136577037Y-76009408D01*
X136594075Y-76072993D01*
X136659901Y-76187007D01*
X136752993Y-76280099D01*
X136867007Y-76345925D01*
X136930590Y-76362962D01*
X136298282Y-76995269D01*
X136298282Y-76995270D01*
X136352452Y-77034626D01*
X136352451Y-77034626D01*
X136361495Y-77039234D01*
X136412292Y-77087208D01*
X136429087Y-77155029D01*
X136406550Y-77221164D01*
X136361499Y-77260202D01*
X136352182Y-77264949D01*
X136180213Y-77389890D01*
X136029890Y-77540213D01*
X135904951Y-77712179D01*
X135808444Y-77901585D01*
X135742753Y-78103760D01*
X135709500Y-78313713D01*
X135709500Y-78526286D01*
X135742753Y-78736239D01*
X135808444Y-78938414D01*
X135904951Y-79127820D01*
X136029890Y-79299786D01*
X136180213Y-79450109D01*
X136352182Y-79575050D01*
X136360946Y-79579516D01*
X136411742Y-79627491D01*
X136428536Y-79695312D01*
X136405998Y-79761447D01*
X136360946Y-79800484D01*
X136352182Y-79804949D01*
X136180213Y-79929890D01*
X136029890Y-80080213D01*
X135904951Y-80252179D01*
X135808444Y-80441585D01*
X135742753Y-80643760D01*
X135709500Y-80853713D01*
X135709500Y-81066287D01*
X135742754Y-81276243D01*
X135773486Y-81370827D01*
X135808444Y-81478414D01*
X135904951Y-81667820D01*
X136029890Y-81839786D01*
X136180213Y-81990109D01*
X136352182Y-82115050D01*
X136360946Y-82119516D01*
X136411742Y-82167491D01*
X136428536Y-82235312D01*
X136405998Y-82301447D01*
X136360946Y-82340484D01*
X136352182Y-82344949D01*
X136180213Y-82469890D01*
X136029890Y-82620213D01*
X135904951Y-82792179D01*
X135808444Y-82981585D01*
X135742753Y-83183760D01*
X135709500Y-83393713D01*
X135709500Y-83606286D01*
X135742753Y-83816239D01*
X135808444Y-84018414D01*
X135904951Y-84207820D01*
X136029890Y-84379786D01*
X136180213Y-84530109D01*
X136352182Y-84655050D01*
X136360946Y-84659516D01*
X136411742Y-84707491D01*
X136428536Y-84775312D01*
X136405998Y-84841447D01*
X136360946Y-84880484D01*
X136352182Y-84884949D01*
X136180213Y-85009890D01*
X136029890Y-85160213D01*
X135904951Y-85332179D01*
X135808444Y-85521585D01*
X135742753Y-85723760D01*
X135709500Y-85933713D01*
X135709500Y-86146286D01*
X135742753Y-86356239D01*
X135808444Y-86558414D01*
X135904951Y-86747820D01*
X136029890Y-86919786D01*
X136180213Y-87070109D01*
X136352182Y-87195050D01*
X136360946Y-87199516D01*
X136411742Y-87247491D01*
X136428536Y-87315312D01*
X136405998Y-87381447D01*
X136360946Y-87420484D01*
X136352182Y-87424949D01*
X136180213Y-87549890D01*
X136029890Y-87700213D01*
X135904951Y-87872179D01*
X135808444Y-88061585D01*
X135742753Y-88263760D01*
X135709500Y-88473713D01*
X135709500Y-88686286D01*
X135742753Y-88896239D01*
X135808444Y-89098414D01*
X135904951Y-89287820D01*
X136029890Y-89459786D01*
X136180213Y-89610109D01*
X136352182Y-89735050D01*
X136360946Y-89739516D01*
X136411742Y-89787491D01*
X136428536Y-89855312D01*
X136405998Y-89921447D01*
X136360946Y-89960484D01*
X136352182Y-89964949D01*
X136180213Y-90089890D01*
X136029890Y-90240213D01*
X135904951Y-90412179D01*
X135808444Y-90601585D01*
X135742753Y-90803760D01*
X135709500Y-91013713D01*
X135709500Y-91226286D01*
X135742753Y-91436239D01*
X135808444Y-91638414D01*
X135904951Y-91827820D01*
X136029890Y-91999786D01*
X136180213Y-92150109D01*
X136352182Y-92275050D01*
X136360946Y-92279516D01*
X136411742Y-92327491D01*
X136428536Y-92395312D01*
X136405998Y-92461447D01*
X136360946Y-92500484D01*
X136352182Y-92504949D01*
X136180213Y-92629890D01*
X136029890Y-92780213D01*
X135904951Y-92952179D01*
X135808444Y-93141585D01*
X135742753Y-93343760D01*
X135709500Y-93553713D01*
X135709500Y-93766286D01*
X135742753Y-93976239D01*
X135808444Y-94178414D01*
X135904951Y-94367820D01*
X136029890Y-94539786D01*
X136180213Y-94690109D01*
X136352182Y-94815050D01*
X136360946Y-94819516D01*
X136411742Y-94867491D01*
X136428536Y-94935312D01*
X136405998Y-95001447D01*
X136360946Y-95040484D01*
X136352182Y-95044949D01*
X136180213Y-95169890D01*
X136029890Y-95320213D01*
X135904951Y-95492179D01*
X135808444Y-95681585D01*
X135742753Y-95883760D01*
X135709500Y-96093713D01*
X135709500Y-96306286D01*
X135742753Y-96516239D01*
X135808444Y-96718414D01*
X135904951Y-96907820D01*
X136029890Y-97079786D01*
X136180213Y-97230109D01*
X136352182Y-97355050D01*
X136360946Y-97359516D01*
X136411742Y-97407491D01*
X136428536Y-97475312D01*
X136405998Y-97541447D01*
X136360946Y-97580484D01*
X136352182Y-97584949D01*
X136180213Y-97709890D01*
X136029890Y-97860213D01*
X135904951Y-98032179D01*
X135808444Y-98221585D01*
X135742753Y-98423760D01*
X135716025Y-98592516D01*
X135709500Y-98633713D01*
X135709500Y-98846287D01*
X135714127Y-98875500D01*
X135742753Y-99056239D01*
X135808444Y-99258414D01*
X135904951Y-99447820D01*
X136029890Y-99619786D01*
X136180213Y-99770109D01*
X136352182Y-99895050D01*
X136360946Y-99899516D01*
X136411742Y-99947491D01*
X136428536Y-100015312D01*
X136405998Y-100081447D01*
X136360946Y-100120484D01*
X136352182Y-100124949D01*
X136180213Y-100249890D01*
X136029890Y-100400213D01*
X135904951Y-100572179D01*
X135808444Y-100761585D01*
X135742753Y-100963760D01*
X135709500Y-101173713D01*
X135709500Y-101386286D01*
X135742753Y-101596239D01*
X135808444Y-101798414D01*
X135904951Y-101987820D01*
X136029890Y-102159786D01*
X136180213Y-102310109D01*
X136352182Y-102435050D01*
X136360946Y-102439516D01*
X136411742Y-102487491D01*
X136428536Y-102555312D01*
X136405998Y-102621447D01*
X136360946Y-102660484D01*
X136352182Y-102664949D01*
X136180213Y-102789890D01*
X136029890Y-102940213D01*
X135904951Y-103112179D01*
X135808444Y-103301585D01*
X135742753Y-103503760D01*
X135732358Y-103569394D01*
X135709500Y-103713713D01*
X135709500Y-103926287D01*
X135710638Y-103933469D01*
X135731708Y-104066506D01*
X135742754Y-104136243D01*
X135806087Y-104331162D01*
X135808444Y-104338414D01*
X135904951Y-104527820D01*
X136029890Y-104699786D01*
X136180213Y-104850109D01*
X136352182Y-104975050D01*
X136360946Y-104979516D01*
X136411742Y-105027491D01*
X136428536Y-105095312D01*
X136405998Y-105161447D01*
X136360946Y-105200484D01*
X136352182Y-105204949D01*
X136180213Y-105329890D01*
X136029890Y-105480213D01*
X135904951Y-105652179D01*
X135808444Y-105841585D01*
X135742753Y-106043760D01*
X135709500Y-106253713D01*
X135709500Y-106466286D01*
X135742753Y-106676239D01*
X135808444Y-106878414D01*
X135904951Y-107067820D01*
X136029890Y-107239786D01*
X136180213Y-107390109D01*
X136352182Y-107515050D01*
X136360946Y-107519516D01*
X136411742Y-107567491D01*
X136428536Y-107635312D01*
X136405998Y-107701447D01*
X136360946Y-107740484D01*
X136352182Y-107744949D01*
X136180213Y-107869890D01*
X136029890Y-108020213D01*
X135904951Y-108192179D01*
X135808444Y-108381585D01*
X135742753Y-108583760D01*
X135709500Y-108793713D01*
X135709500Y-109006286D01*
X135733650Y-109158767D01*
X135742754Y-109216243D01*
X135799117Y-109389711D01*
X135808444Y-109418414D01*
X135904951Y-109607820D01*
X136029890Y-109779786D01*
X136180213Y-109930109D01*
X136352182Y-110055050D01*
X136360946Y-110059516D01*
X136411742Y-110107491D01*
X136428536Y-110175312D01*
X136405998Y-110241447D01*
X136360946Y-110280484D01*
X136352182Y-110284949D01*
X136180213Y-110409890D01*
X136029890Y-110560213D01*
X135904951Y-110732179D01*
X135808444Y-110921585D01*
X135742753Y-111123760D01*
X135716327Y-111290609D01*
X135709500Y-111333713D01*
X135709500Y-111546287D01*
X135742754Y-111756243D01*
X135778590Y-111866535D01*
X135808444Y-111958414D01*
X135904951Y-112147820D01*
X136029890Y-112319786D01*
X136180213Y-112470109D01*
X136352182Y-112595050D01*
X136360946Y-112599516D01*
X136411742Y-112647491D01*
X136428536Y-112715312D01*
X136405998Y-112781447D01*
X136360946Y-112820484D01*
X136352182Y-112824949D01*
X136180213Y-112949890D01*
X136029890Y-113100213D01*
X135904951Y-113272179D01*
X135808444Y-113461585D01*
X135742753Y-113663760D01*
X135709500Y-113873713D01*
X135709500Y-114086287D01*
X135742754Y-114296243D01*
X135799014Y-114469394D01*
X135808444Y-114498414D01*
X135904951Y-114687820D01*
X136029890Y-114859786D01*
X136180213Y-115010109D01*
X136352182Y-115135050D01*
X136360946Y-115139516D01*
X136411742Y-115187491D01*
X136428536Y-115255312D01*
X136405998Y-115321447D01*
X136360946Y-115360484D01*
X136352182Y-115364949D01*
X136180213Y-115489890D01*
X136029890Y-115640213D01*
X135904951Y-115812179D01*
X135808444Y-116001585D01*
X135742753Y-116203760D01*
X135709500Y-116413713D01*
X135709500Y-116626286D01*
X135730279Y-116757483D01*
X135742754Y-116836243D01*
X135798414Y-117007547D01*
X135808444Y-117038414D01*
X135904951Y-117227820D01*
X136029890Y-117399786D01*
X136180213Y-117550109D01*
X136352179Y-117675048D01*
X136352181Y-117675049D01*
X136352184Y-117675051D01*
X136361493Y-117679794D01*
X136412290Y-117727766D01*
X136429087Y-117795587D01*
X136406552Y-117861722D01*
X136361505Y-117900760D01*
X136352446Y-117905376D01*
X136352440Y-117905380D01*
X136298282Y-117944727D01*
X136298282Y-117944728D01*
X136930591Y-118577037D01*
X136867007Y-118594075D01*
X136752993Y-118659901D01*
X136659901Y-118752993D01*
X136594075Y-118867007D01*
X136577037Y-118930591D01*
X135944728Y-118298282D01*
X135944727Y-118298282D01*
X135905380Y-118352439D01*
X135808904Y-118541782D01*
X135743242Y-118743869D01*
X135743242Y-118743872D01*
X135710000Y-118953753D01*
X135710000Y-119166246D01*
X135743242Y-119376127D01*
X135743242Y-119376130D01*
X135808904Y-119578217D01*
X135905375Y-119767550D01*
X135944728Y-119821716D01*
X136577037Y-119189408D01*
X136594075Y-119252993D01*
X136659901Y-119367007D01*
X136752993Y-119460099D01*
X136867007Y-119525925D01*
X136930590Y-119542962D01*
X136298282Y-120175269D01*
X136298282Y-120175270D01*
X136352452Y-120214626D01*
X136352451Y-120214626D01*
X136361495Y-120219234D01*
X136412292Y-120267208D01*
X136429087Y-120335029D01*
X136406550Y-120401164D01*
X136361499Y-120440202D01*
X136352182Y-120444949D01*
X136180213Y-120569890D01*
X136029890Y-120720213D01*
X135904951Y-120892179D01*
X135808444Y-121081585D01*
X135742753Y-121283760D01*
X135709500Y-121493713D01*
X135709500Y-121706286D01*
X135739712Y-121897040D01*
X135742754Y-121916243D01*
X135782579Y-122038812D01*
X135808444Y-122118414D01*
X135904951Y-122307820D01*
X136029890Y-122479786D01*
X136180213Y-122630109D01*
X136352179Y-122755048D01*
X136352181Y-122755049D01*
X136352184Y-122755051D01*
X136541588Y-122851557D01*
X136743757Y-122917246D01*
X136953713Y-122950500D01*
X136953714Y-122950500D01*
X137166286Y-122950500D01*
X137166287Y-122950500D01*
X137376243Y-122917246D01*
X137578412Y-122851557D01*
X137767816Y-122755051D01*
X137840649Y-122702135D01*
X137939786Y-122630109D01*
X137939788Y-122630106D01*
X137939792Y-122630104D01*
X138090104Y-122479792D01*
X138090106Y-122479788D01*
X138090109Y-122479786D01*
X138215048Y-122307820D01*
X138215047Y-122307820D01*
X138215051Y-122307816D01*
X138219514Y-122299054D01*
X138267488Y-122248259D01*
X138335308Y-122231463D01*
X138401444Y-122253999D01*
X138440486Y-122299056D01*
X138444951Y-122307820D01*
X138569890Y-122479786D01*
X138720213Y-122630109D01*
X138892179Y-122755048D01*
X138892181Y-122755049D01*
X138892184Y-122755051D01*
X139081588Y-122851557D01*
X139283757Y-122917246D01*
X139493713Y-122950500D01*
X139493714Y-122950500D01*
X139706286Y-122950500D01*
X139706287Y-122950500D01*
X139916243Y-122917246D01*
X140118412Y-122851557D01*
X140307816Y-122755051D01*
X140380649Y-122702135D01*
X140479786Y-122630109D01*
X140479788Y-122630106D01*
X140479792Y-122630104D01*
X140630104Y-122479792D01*
X140630106Y-122479788D01*
X140630109Y-122479786D01*
X140755048Y-122307820D01*
X140755047Y-122307820D01*
X140755051Y-122307816D01*
X140851557Y-122118412D01*
X140917246Y-121916243D01*
X140950500Y-121706287D01*
X140950500Y-121493713D01*
X140917246Y-121283757D01*
X140851557Y-121081588D01*
X140755051Y-120892184D01*
X140755049Y-120892181D01*
X140755048Y-120892179D01*
X140630109Y-120720213D01*
X140479786Y-120569890D01*
X140307817Y-120444949D01*
X140298504Y-120440204D01*
X140247707Y-120392230D01*
X140230912Y-120324409D01*
X140253449Y-120258274D01*
X140298507Y-120219232D01*
X140307555Y-120214622D01*
X140361716Y-120175270D01*
X140361717Y-120175270D01*
X139729408Y-119542962D01*
X139792993Y-119525925D01*
X139907007Y-119460099D01*
X140000099Y-119367007D01*
X140065925Y-119252993D01*
X140082962Y-119189409D01*
X140715270Y-119821717D01*
X140715270Y-119821716D01*
X140754622Y-119767554D01*
X140851095Y-119578217D01*
X140916757Y-119376130D01*
X140916757Y-119376127D01*
X140950000Y-119166246D01*
X140950000Y-118953753D01*
X140916757Y-118743872D01*
X140916757Y-118743869D01*
X140851095Y-118541782D01*
X140754624Y-118352449D01*
X140715270Y-118298282D01*
X140715269Y-118298282D01*
X140082962Y-118930590D01*
X140065925Y-118867007D01*
X140000099Y-118752993D01*
X139907007Y-118659901D01*
X139792993Y-118594075D01*
X139729409Y-118577037D01*
X140361716Y-117944728D01*
X140307547Y-117905373D01*
X140307547Y-117905372D01*
X140298500Y-117900763D01*
X140247706Y-117852788D01*
X140230912Y-117784966D01*
X140253451Y-117718832D01*
X140298508Y-117679793D01*
X140307816Y-117675051D01*
X140387007Y-117617515D01*
X140479786Y-117550109D01*
X140479788Y-117550106D01*
X140479792Y-117550104D01*
X140630104Y-117399792D01*
X140630106Y-117399788D01*
X140630109Y-117399786D01*
X140755048Y-117227820D01*
X140755047Y-117227820D01*
X140755051Y-117227816D01*
X140851557Y-117038412D01*
X140917246Y-116836243D01*
X140950500Y-116626287D01*
X140950500Y-116413713D01*
X140917246Y-116203757D01*
X140851557Y-116001588D01*
X140755051Y-115812184D01*
X140755049Y-115812181D01*
X140755048Y-115812179D01*
X140630109Y-115640213D01*
X140479786Y-115489890D01*
X140307820Y-115364951D01*
X140307115Y-115364591D01*
X140299054Y-115360485D01*
X140248259Y-115312512D01*
X140231463Y-115244692D01*
X140253999Y-115178556D01*
X140299054Y-115139515D01*
X140307816Y-115135051D01*
X140353138Y-115102123D01*
X140479786Y-115010109D01*
X140479788Y-115010106D01*
X140479792Y-115010104D01*
X140630104Y-114859792D01*
X140630106Y-114859788D01*
X140630109Y-114859786D01*
X140755048Y-114687820D01*
X140755047Y-114687820D01*
X140755051Y-114687816D01*
X140851557Y-114498412D01*
X140917246Y-114296243D01*
X140950500Y-114086287D01*
X140950500Y-113873713D01*
X140917246Y-113663757D01*
X140851557Y-113461588D01*
X140755051Y-113272184D01*
X140755049Y-113272181D01*
X140755048Y-113272179D01*
X140630109Y-113100213D01*
X140479786Y-112949890D01*
X140307820Y-112824951D01*
X140307115Y-112824591D01*
X140299054Y-112820485D01*
X140248259Y-112772512D01*
X140231463Y-112704692D01*
X140253999Y-112638556D01*
X140299054Y-112599515D01*
X140307816Y-112595051D01*
X140329789Y-112579086D01*
X140479786Y-112470109D01*
X140479788Y-112470106D01*
X140479792Y-112470104D01*
X140630104Y-112319792D01*
X140630106Y-112319788D01*
X140630109Y-112319786D01*
X140755048Y-112147820D01*
X140755047Y-112147820D01*
X140755051Y-112147816D01*
X140851557Y-111958412D01*
X140917246Y-111756243D01*
X140950500Y-111546287D01*
X140950500Y-111333713D01*
X140917246Y-111123757D01*
X140851557Y-110921588D01*
X140755051Y-110732184D01*
X140755049Y-110732181D01*
X140755048Y-110732179D01*
X140630109Y-110560213D01*
X140479786Y-110409890D01*
X140307820Y-110284951D01*
X140307115Y-110284591D01*
X140299054Y-110280485D01*
X140248259Y-110232512D01*
X140231463Y-110164692D01*
X140253999Y-110098556D01*
X140299054Y-110059515D01*
X140307816Y-110055051D01*
X140412707Y-109978844D01*
X140479786Y-109930109D01*
X140479788Y-109930106D01*
X140479792Y-109930104D01*
X140630104Y-109779792D01*
X140630106Y-109779788D01*
X140630109Y-109779786D01*
X140755048Y-109607820D01*
X140755047Y-109607820D01*
X140755051Y-109607816D01*
X140851557Y-109418412D01*
X140917246Y-109216243D01*
X140950500Y-109006287D01*
X140950500Y-108793713D01*
X140917246Y-108583757D01*
X140851557Y-108381588D01*
X140755051Y-108192184D01*
X140755049Y-108192181D01*
X140755048Y-108192179D01*
X140630109Y-108020213D01*
X140479786Y-107869890D01*
X140307820Y-107744951D01*
X140307115Y-107744591D01*
X140299054Y-107740485D01*
X140248259Y-107692512D01*
X140231463Y-107624692D01*
X140253999Y-107558556D01*
X140299054Y-107519515D01*
X140307816Y-107515051D01*
X140362522Y-107475305D01*
X140479786Y-107390109D01*
X140479788Y-107390106D01*
X140479792Y-107390104D01*
X140630104Y-107239792D01*
X140630106Y-107239788D01*
X140630109Y-107239786D01*
X140755048Y-107067820D01*
X140755047Y-107067820D01*
X140755051Y-107067816D01*
X140851557Y-106878412D01*
X140917246Y-106676243D01*
X140950500Y-106466287D01*
X140950500Y-106253713D01*
X140917246Y-106043757D01*
X140851557Y-105841588D01*
X140755051Y-105652184D01*
X140755049Y-105652181D01*
X140755048Y-105652179D01*
X140630109Y-105480213D01*
X140479786Y-105329890D01*
X140307820Y-105204951D01*
X140307115Y-105204591D01*
X140299054Y-105200485D01*
X140248259Y-105152512D01*
X140231463Y-105084692D01*
X140253999Y-105018556D01*
X140299054Y-104979515D01*
X140307816Y-104975051D01*
X140329789Y-104959086D01*
X140479786Y-104850109D01*
X140479788Y-104850106D01*
X140479792Y-104850104D01*
X140630104Y-104699792D01*
X140630106Y-104699788D01*
X140630109Y-104699786D01*
X140750921Y-104533501D01*
X140755051Y-104527816D01*
X140851557Y-104338412D01*
X140917246Y-104136243D01*
X140950500Y-103926287D01*
X140950500Y-103713713D01*
X140917246Y-103503757D01*
X140851557Y-103301588D01*
X140755051Y-103112184D01*
X140755049Y-103112181D01*
X140755048Y-103112179D01*
X140630109Y-102940213D01*
X140479786Y-102789890D01*
X140307820Y-102664951D01*
X140307115Y-102664591D01*
X140299054Y-102660485D01*
X140248259Y-102612512D01*
X140231463Y-102544692D01*
X140253999Y-102478556D01*
X140299054Y-102439515D01*
X140307816Y-102435051D01*
X140398186Y-102369394D01*
X140479786Y-102310109D01*
X140479788Y-102310106D01*
X140479792Y-102310104D01*
X140630104Y-102159792D01*
X140630106Y-102159788D01*
X140630109Y-102159786D01*
X140755048Y-101987820D01*
X140755047Y-101987820D01*
X140755051Y-101987816D01*
X140851557Y-101798412D01*
X140917246Y-101596243D01*
X140950500Y-101386287D01*
X140950500Y-101173713D01*
X140917246Y-100963757D01*
X140851557Y-100761588D01*
X140755051Y-100572184D01*
X140755049Y-100572181D01*
X140755048Y-100572179D01*
X140630109Y-100400213D01*
X140479786Y-100249890D01*
X140307820Y-100124951D01*
X140307115Y-100124591D01*
X140299054Y-100120485D01*
X140248259Y-100072512D01*
X140231463Y-100004692D01*
X140253999Y-99938556D01*
X140299054Y-99899515D01*
X140307816Y-99895051D01*
X140428344Y-99807483D01*
X140479786Y-99770109D01*
X140479788Y-99770106D01*
X140479792Y-99770104D01*
X140630104Y-99619792D01*
X140630106Y-99619788D01*
X140630109Y-99619786D01*
X140755048Y-99447820D01*
X140755047Y-99447820D01*
X140755051Y-99447816D01*
X140851557Y-99258412D01*
X140917246Y-99056243D01*
X140950500Y-98846287D01*
X140950500Y-98633713D01*
X140917246Y-98423757D01*
X140851557Y-98221588D01*
X140755051Y-98032184D01*
X140755049Y-98032181D01*
X140755048Y-98032179D01*
X140630109Y-97860213D01*
X140479786Y-97709890D01*
X140307820Y-97584951D01*
X140307115Y-97584591D01*
X140299054Y-97580485D01*
X140248259Y-97532512D01*
X140231463Y-97464692D01*
X140253999Y-97398556D01*
X140299054Y-97359515D01*
X140307816Y-97355051D01*
X140355924Y-97320099D01*
X140479786Y-97230109D01*
X140479788Y-97230106D01*
X140479792Y-97230104D01*
X140630104Y-97079792D01*
X140630106Y-97079788D01*
X140630109Y-97079786D01*
X140755048Y-96907820D01*
X140755047Y-96907820D01*
X140755051Y-96907816D01*
X140851557Y-96718412D01*
X140917246Y-96516243D01*
X140950500Y-96306287D01*
X140950500Y-96093713D01*
X140917246Y-95883757D01*
X140851557Y-95681588D01*
X140755051Y-95492184D01*
X140755049Y-95492181D01*
X140755048Y-95492179D01*
X140630109Y-95320213D01*
X140479786Y-95169890D01*
X140307820Y-95044951D01*
X140307115Y-95044591D01*
X140299054Y-95040485D01*
X140248259Y-94992512D01*
X140231463Y-94924692D01*
X140253999Y-94858556D01*
X140299054Y-94819515D01*
X140307816Y-94815051D01*
X140329789Y-94799086D01*
X140479786Y-94690109D01*
X140479788Y-94690106D01*
X140479792Y-94690104D01*
X140630104Y-94539792D01*
X140630106Y-94539788D01*
X140630109Y-94539786D01*
X140755048Y-94367820D01*
X140755047Y-94367820D01*
X140755051Y-94367816D01*
X140851557Y-94178412D01*
X140917246Y-93976243D01*
X140950500Y-93766287D01*
X140950500Y-93553713D01*
X140917246Y-93343757D01*
X140851557Y-93141588D01*
X140755051Y-92952184D01*
X140755049Y-92952181D01*
X140755048Y-92952179D01*
X140630109Y-92780213D01*
X140479786Y-92629890D01*
X140307820Y-92504951D01*
X140307115Y-92504591D01*
X140299054Y-92500485D01*
X140248259Y-92452512D01*
X140231463Y-92384692D01*
X140253999Y-92318556D01*
X140299054Y-92279515D01*
X140307816Y-92275051D01*
X140333757Y-92256204D01*
X140479786Y-92150109D01*
X140479788Y-92150106D01*
X140479792Y-92150104D01*
X140630104Y-91999792D01*
X140630106Y-91999788D01*
X140630109Y-91999786D01*
X140755050Y-91827817D01*
X140781453Y-91776000D01*
X140789391Y-91760418D01*
X140837365Y-91709623D01*
X140905185Y-91692827D01*
X140971321Y-91715364D01*
X140987557Y-91729032D01*
X142713181Y-93454656D01*
X142746666Y-93515979D01*
X142749500Y-93542336D01*
X142749500Y-93747869D01*
X142749501Y-93747876D01*
X142755908Y-93807479D01*
X142757692Y-93815026D01*
X142756229Y-93815371D01*
X142760585Y-93876371D01*
X142756173Y-93891396D01*
X142755908Y-93892517D01*
X142749501Y-93952116D01*
X142749500Y-93952135D01*
X142749500Y-95047870D01*
X142749501Y-95047876D01*
X142755908Y-95107483D01*
X142806202Y-95242328D01*
X142806206Y-95242335D01*
X142892452Y-95357544D01*
X142892455Y-95357547D01*
X143007664Y-95443793D01*
X143007671Y-95443797D01*
X143142517Y-95494091D01*
X143142516Y-95494091D01*
X143149444Y-95494835D01*
X143202127Y-95500500D01*
X144797872Y-95500499D01*
X144857483Y-95494091D01*
X144992331Y-95443796D01*
X145107546Y-95357546D01*
X145193796Y-95242331D01*
X145193798Y-95242323D01*
X145195027Y-95240076D01*
X145196849Y-95238253D01*
X145199112Y-95235231D01*
X145199546Y-95235556D01*
X145244431Y-95190669D01*
X145303861Y-95175500D01*
X151835011Y-95175500D01*
X151902050Y-95195185D01*
X151922692Y-95211819D01*
X155435564Y-98724692D01*
X155435572Y-98724698D01*
X155546194Y-98798613D01*
X155546197Y-98798614D01*
X155546205Y-98798620D01*
X155669138Y-98849540D01*
X155669142Y-98849540D01*
X155669143Y-98849541D01*
X155799640Y-98875500D01*
X155799643Y-98875500D01*
X155932705Y-98875500D01*
X157459245Y-98875500D01*
X157526284Y-98895185D01*
X157572039Y-98947989D01*
X157581983Y-99017147D01*
X157577176Y-99037816D01*
X157571189Y-99056243D01*
X157542753Y-99143759D01*
X157509500Y-99353713D01*
X157509500Y-99566286D01*
X157541781Y-99770104D01*
X157542754Y-99776243D01*
X157607433Y-99975305D01*
X157608444Y-99978414D01*
X157704951Y-100167820D01*
X157829890Y-100339786D01*
X157980213Y-100490109D01*
X158152182Y-100615050D01*
X158160946Y-100619516D01*
X158211742Y-100667491D01*
X158228536Y-100735312D01*
X158205998Y-100801447D01*
X158160946Y-100840484D01*
X158152182Y-100844949D01*
X157980213Y-100969890D01*
X157829894Y-101120209D01*
X157829890Y-101120214D01*
X157718606Y-101273385D01*
X157663276Y-101316051D01*
X157618288Y-101324500D01*
X153631163Y-101324500D01*
X153564124Y-101304815D01*
X153543482Y-101288181D01*
X152230609Y-99975307D01*
X152230605Y-99975304D01*
X152119975Y-99901383D01*
X152119965Y-99901378D01*
X151997036Y-99850459D01*
X151997028Y-99850457D01*
X151866535Y-99824500D01*
X151866531Y-99824500D01*
X150474500Y-99824500D01*
X150407461Y-99804815D01*
X150361706Y-99752011D01*
X150350500Y-99700500D01*
X150350499Y-98652129D01*
X150350498Y-98652123D01*
X150344091Y-98592516D01*
X150293797Y-98457671D01*
X150293793Y-98457664D01*
X150207547Y-98342455D01*
X150207544Y-98342452D01*
X150092335Y-98256206D01*
X150092328Y-98256202D01*
X149957482Y-98205908D01*
X149957483Y-98205908D01*
X149897883Y-98199501D01*
X149897881Y-98199500D01*
X149897873Y-98199500D01*
X149897864Y-98199500D01*
X148302129Y-98199500D01*
X148302123Y-98199501D01*
X148242516Y-98205908D01*
X148107671Y-98256202D01*
X148107664Y-98256206D01*
X147992455Y-98342452D01*
X147992452Y-98342455D01*
X147906205Y-98457665D01*
X147906204Y-98457668D01*
X147901258Y-98470927D01*
X147859383Y-98526858D01*
X147809281Y-98549201D01*
X147802974Y-98550455D01*
X147802963Y-98550459D01*
X147680034Y-98601378D01*
X147680024Y-98601383D01*
X147569394Y-98675304D01*
X147569390Y-98675307D01*
X143875307Y-102369390D01*
X143875304Y-102369394D01*
X143801383Y-102480024D01*
X143801378Y-102480034D01*
X143770197Y-102555312D01*
X143750459Y-102602964D01*
X143736031Y-102675500D01*
X143736031Y-102675501D01*
X143724500Y-102733467D01*
X143724500Y-111866535D01*
X143750457Y-111997028D01*
X143750459Y-111997036D01*
X143801378Y-112119965D01*
X143801383Y-112119975D01*
X143875304Y-112230605D01*
X143875307Y-112230609D01*
X147463181Y-115818482D01*
X147496666Y-115879805D01*
X147499500Y-115906163D01*
X147499500Y-116697870D01*
X147499501Y-116697876D01*
X147505908Y-116757483D01*
X147556202Y-116892328D01*
X147556206Y-116892335D01*
X147642452Y-117007544D01*
X147642455Y-117007547D01*
X147757664Y-117093793D01*
X147757671Y-117093797D01*
X147892517Y-117144091D01*
X147892516Y-117144091D01*
X147899444Y-117144835D01*
X147952127Y-117150500D01*
X148900500Y-117150499D01*
X148967539Y-117170183D01*
X149013294Y-117222987D01*
X149024500Y-117274499D01*
X149024500Y-121368836D01*
X149004815Y-121435875D01*
X148988181Y-121456517D01*
X148212968Y-122231729D01*
X148151645Y-122265214D01*
X148105889Y-122266521D01*
X147998422Y-122249500D01*
X147998417Y-122249500D01*
X147801583Y-122249500D01*
X147801576Y-122249500D01*
X147796719Y-122249882D01*
X147796563Y-122247898D01*
X147735586Y-122239987D01*
X147682157Y-122194963D01*
X147661552Y-122128201D01*
X147680312Y-122060897D01*
X147697851Y-122038821D01*
X147775449Y-121961224D01*
X147911961Y-121773331D01*
X148017400Y-121566396D01*
X148089169Y-121345514D01*
X148109443Y-121217502D01*
X148125500Y-121116129D01*
X148125500Y-120883870D01*
X148099578Y-120720208D01*
X148089169Y-120654486D01*
X148017400Y-120433604D01*
X148017398Y-120433601D01*
X148017398Y-120433599D01*
X147940538Y-120282754D01*
X147911961Y-120226669D01*
X147775449Y-120038776D01*
X147611224Y-119874551D01*
X147423331Y-119738039D01*
X147216400Y-119632601D01*
X146995514Y-119560831D01*
X146766129Y-119524500D01*
X146766124Y-119524500D01*
X146533876Y-119524500D01*
X146533871Y-119524500D01*
X146304485Y-119560831D01*
X146083599Y-119632601D01*
X145876668Y-119738039D01*
X145688773Y-119874553D01*
X145524553Y-120038773D01*
X145388039Y-120226668D01*
X145282601Y-120433599D01*
X145210831Y-120654485D01*
X145174500Y-120883870D01*
X145174500Y-121116129D01*
X145210831Y-121345514D01*
X145282601Y-121566400D01*
X145353878Y-121706287D01*
X145388039Y-121773331D01*
X145524551Y-121961224D01*
X145688776Y-122125449D01*
X145876669Y-122261961D01*
X145966664Y-122307816D01*
X146083599Y-122367398D01*
X146083601Y-122367398D01*
X146083604Y-122367400D01*
X146304486Y-122439169D01*
X146422668Y-122457886D01*
X146533871Y-122475500D01*
X146533876Y-122475500D01*
X146766129Y-122475500D01*
X146852467Y-122461825D01*
X146921760Y-122470779D01*
X146975212Y-122515775D01*
X146995852Y-122582527D01*
X146977127Y-122649841D01*
X146959549Y-122671977D01*
X146946172Y-122685354D01*
X146830476Y-122844594D01*
X146741117Y-123019970D01*
X146680290Y-123207173D01*
X146649500Y-123401577D01*
X146649500Y-123598422D01*
X146680290Y-123792826D01*
X146741117Y-123980029D01*
X146830476Y-124155405D01*
X146946172Y-124314646D01*
X147085354Y-124453828D01*
X147244595Y-124569524D01*
X147319214Y-124607544D01*
X147419970Y-124658882D01*
X147419972Y-124658882D01*
X147419975Y-124658884D01*
X147520317Y-124691487D01*
X147607173Y-124719709D01*
X147801578Y-124750500D01*
X147801583Y-124750500D01*
X147998422Y-124750500D01*
X148192826Y-124719709D01*
X148272574Y-124693797D01*
X148380025Y-124658884D01*
X148555405Y-124569524D01*
X148714646Y-124453828D01*
X148853828Y-124314646D01*
X148969524Y-124155405D01*
X149058884Y-123980025D01*
X149119709Y-123792826D01*
X149150500Y-123598422D01*
X149150500Y-123401585D01*
X149150499Y-123401577D01*
X149133477Y-123294106D01*
X149142431Y-123224816D01*
X149168266Y-123187033D01*
X149574013Y-122781286D01*
X149653165Y-122702135D01*
X151149500Y-122702135D01*
X151149500Y-124297870D01*
X151149501Y-124297876D01*
X151155908Y-124357483D01*
X151206202Y-124492328D01*
X151206206Y-124492335D01*
X151292452Y-124607544D01*
X151292455Y-124607547D01*
X151407664Y-124693793D01*
X151407671Y-124693797D01*
X151542517Y-124744091D01*
X151542516Y-124744091D01*
X151549444Y-124744835D01*
X151602127Y-124750500D01*
X153197872Y-124750499D01*
X153257483Y-124744091D01*
X153392331Y-124693796D01*
X153507546Y-124607546D01*
X153593796Y-124492331D01*
X153644091Y-124357483D01*
X153650500Y-124297873D01*
X153650499Y-122702128D01*
X153644091Y-122642517D01*
X153644090Y-122642515D01*
X153644090Y-122642512D01*
X153642308Y-122634969D01*
X153643624Y-122634657D01*
X153639225Y-122573142D01*
X153672709Y-122511819D01*
X153734032Y-122478334D01*
X153760391Y-122475500D01*
X153766129Y-122475500D01*
X153867502Y-122459443D01*
X153995514Y-122439169D01*
X154216396Y-122367400D01*
X154423331Y-122261961D01*
X154611224Y-122125449D01*
X154775449Y-121961224D01*
X154911961Y-121773331D01*
X155017400Y-121566396D01*
X155089169Y-121345514D01*
X155109443Y-121217502D01*
X155125500Y-121116129D01*
X155125500Y-120883870D01*
X155099578Y-120720208D01*
X155089169Y-120654486D01*
X155017400Y-120433604D01*
X155017398Y-120433601D01*
X155017398Y-120433599D01*
X154940538Y-120282754D01*
X154911961Y-120226669D01*
X154775449Y-120038776D01*
X154611224Y-119874551D01*
X154423331Y-119738039D01*
X154216400Y-119632601D01*
X153995514Y-119560831D01*
X153766129Y-119524500D01*
X153766124Y-119524500D01*
X153533876Y-119524500D01*
X153533871Y-119524500D01*
X153304485Y-119560831D01*
X153083599Y-119632601D01*
X152876668Y-119738039D01*
X152688773Y-119874553D01*
X152524553Y-120038773D01*
X152388039Y-120226668D01*
X152282601Y-120433599D01*
X152210831Y-120654485D01*
X152174500Y-120883870D01*
X152174500Y-121116129D01*
X152210831Y-121345514D01*
X152282601Y-121566400D01*
X152353878Y-121706287D01*
X152388039Y-121773331D01*
X152524551Y-121961224D01*
X152524553Y-121961226D01*
X152601146Y-122037819D01*
X152634631Y-122099142D01*
X152629647Y-122168834D01*
X152587775Y-122224767D01*
X152522311Y-122249184D01*
X152513465Y-122249500D01*
X151602129Y-122249500D01*
X151602123Y-122249501D01*
X151542516Y-122255908D01*
X151407671Y-122306202D01*
X151407664Y-122306206D01*
X151292455Y-122392452D01*
X151292452Y-122392455D01*
X151206206Y-122507664D01*
X151206202Y-122507671D01*
X151155908Y-122642517D01*
X151151303Y-122685354D01*
X151149501Y-122702123D01*
X151149500Y-122702135D01*
X149653165Y-122702135D01*
X149744176Y-122611125D01*
X150224692Y-122130609D01*
X150224692Y-122130608D01*
X150224695Y-122130606D01*
X150267722Y-122066211D01*
X150298620Y-122019969D01*
X150349540Y-121897036D01*
X150358035Y-121854325D01*
X150375500Y-121766533D01*
X150375500Y-117269556D01*
X150395185Y-117202517D01*
X150447989Y-117156762D01*
X150512756Y-117146267D01*
X150552127Y-117150500D01*
X151647872Y-117150499D01*
X151707483Y-117144091D01*
X151842331Y-117093796D01*
X151957546Y-117007546D01*
X152043796Y-116892331D01*
X152094091Y-116757483D01*
X152100500Y-116697873D01*
X152100499Y-115102128D01*
X152094091Y-115042517D01*
X152043796Y-114907669D01*
X152043795Y-114907668D01*
X152043793Y-114907664D01*
X151957547Y-114792455D01*
X151957544Y-114792452D01*
X151842334Y-114706205D01*
X151842333Y-114706204D01*
X151784742Y-114684724D01*
X151728809Y-114642853D01*
X151713517Y-114615997D01*
X151698620Y-114580031D01*
X151691138Y-114568834D01*
X151624698Y-114469398D01*
X151624697Y-114469397D01*
X151624695Y-114469394D01*
X151530606Y-114375305D01*
X150154127Y-112998826D01*
X150120642Y-112937503D01*
X150125626Y-112867811D01*
X150167498Y-112811878D01*
X150232962Y-112787461D01*
X150265997Y-112789527D01*
X150305819Y-112797449D01*
X150321157Y-112800500D01*
X150321158Y-112800500D01*
X150478844Y-112800500D01*
X150478845Y-112800499D01*
X150633497Y-112769737D01*
X150779179Y-112709394D01*
X150787928Y-112703547D01*
X150798628Y-112696399D01*
X150865305Y-112675520D01*
X150867520Y-112675500D01*
X156266532Y-112675500D01*
X156266533Y-112675499D01*
X156397036Y-112649541D01*
X156519969Y-112598620D01*
X156630606Y-112524695D01*
X158447064Y-110708235D01*
X158508385Y-110674752D01*
X158510490Y-110674313D01*
X158533497Y-110669737D01*
X158679179Y-110609394D01*
X158810289Y-110521789D01*
X158921789Y-110410289D01*
X159009394Y-110279179D01*
X159069737Y-110133497D01*
X159100500Y-109978842D01*
X159100500Y-109821158D01*
X159100500Y-109821155D01*
X159100499Y-109821153D01*
X159092272Y-109779792D01*
X159069737Y-109666503D01*
X159045428Y-109607816D01*
X159009397Y-109520827D01*
X159009390Y-109520814D01*
X158921789Y-109389711D01*
X158921786Y-109389707D01*
X158810292Y-109278213D01*
X158810288Y-109278210D01*
X158679185Y-109190609D01*
X158679172Y-109190602D01*
X158533501Y-109130264D01*
X158533489Y-109130261D01*
X158378845Y-109099500D01*
X158378842Y-109099500D01*
X158221158Y-109099500D01*
X158221155Y-109099500D01*
X158066510Y-109130261D01*
X158066498Y-109130264D01*
X157920827Y-109190602D01*
X157920814Y-109190609D01*
X157789711Y-109278210D01*
X157789707Y-109278213D01*
X157678213Y-109389707D01*
X157678210Y-109389711D01*
X157590609Y-109520814D01*
X157590602Y-109520827D01*
X157530263Y-109666500D01*
X157530262Y-109666503D01*
X157525698Y-109689449D01*
X157493311Y-109751359D01*
X157491762Y-109752935D01*
X155956518Y-111288181D01*
X155895195Y-111321666D01*
X155868837Y-111324500D01*
X150867520Y-111324500D01*
X150800481Y-111304815D01*
X150798628Y-111303601D01*
X150779186Y-111290610D01*
X150779172Y-111290602D01*
X150633501Y-111230264D01*
X150633489Y-111230261D01*
X150478845Y-111199500D01*
X150478842Y-111199500D01*
X150321158Y-111199500D01*
X150321155Y-111199500D01*
X150166510Y-111230261D01*
X150166498Y-111230264D01*
X150020827Y-111290602D01*
X150020814Y-111290609D01*
X149889711Y-111378210D01*
X149889707Y-111378213D01*
X149887181Y-111380740D01*
X149885531Y-111381640D01*
X149885001Y-111382076D01*
X149884918Y-111381975D01*
X149825858Y-111414225D01*
X149756166Y-111409241D01*
X149700233Y-111367369D01*
X149675816Y-111301905D01*
X149675500Y-111293059D01*
X149675500Y-110424499D01*
X149695185Y-110357460D01*
X149747989Y-110311705D01*
X149794611Y-110301562D01*
X149794576Y-110300900D01*
X149794571Y-110300854D01*
X149794573Y-110300853D01*
X149794564Y-110300676D01*
X149797857Y-110300499D01*
X149797872Y-110300499D01*
X149857483Y-110294091D01*
X149992331Y-110243796D01*
X150107546Y-110157546D01*
X150193796Y-110042331D01*
X150244091Y-109907483D01*
X150250500Y-109847873D01*
X150250499Y-109605161D01*
X150270183Y-109538123D01*
X150322987Y-109492368D01*
X150392146Y-109482424D01*
X150455701Y-109511449D01*
X150462180Y-109517481D01*
X151475305Y-110530606D01*
X151569394Y-110624695D01*
X151569397Y-110624697D01*
X151569398Y-110624698D01*
X151680020Y-110698613D01*
X151680023Y-110698614D01*
X151680031Y-110698620D01*
X151680037Y-110698622D01*
X151680038Y-110698623D01*
X151761062Y-110732184D01*
X151802964Y-110749540D01*
X151802968Y-110749540D01*
X151802969Y-110749541D01*
X151933466Y-110775500D01*
X151933469Y-110775500D01*
X155466532Y-110775500D01*
X155466533Y-110775499D01*
X155597036Y-110749541D01*
X155719969Y-110698620D01*
X155830606Y-110624695D01*
X161924695Y-104530606D01*
X161928645Y-104524695D01*
X161998620Y-104419969D01*
X162049540Y-104297036D01*
X162075500Y-104166531D01*
X162075500Y-103241710D01*
X162095185Y-103174671D01*
X162126612Y-103141394D01*
X162279792Y-103030104D01*
X162430104Y-102879792D01*
X162430106Y-102879788D01*
X162430109Y-102879786D01*
X162555048Y-102707820D01*
X162555047Y-102707820D01*
X162555051Y-102707816D01*
X162651557Y-102518412D01*
X162717246Y-102316243D01*
X162750500Y-102106287D01*
X162750500Y-101893713D01*
X162717246Y-101683757D01*
X162651557Y-101481588D01*
X162555051Y-101292184D01*
X162555049Y-101292181D01*
X162555048Y-101292179D01*
X162430109Y-101120213D01*
X162279786Y-100969890D01*
X162107820Y-100844951D01*
X162107115Y-100844591D01*
X162099054Y-100840485D01*
X162048259Y-100792512D01*
X162031463Y-100724692D01*
X162053999Y-100658556D01*
X162099054Y-100619515D01*
X162107816Y-100615051D01*
X162166825Y-100572179D01*
X162279786Y-100490109D01*
X162279788Y-100490106D01*
X162279792Y-100490104D01*
X162430104Y-100339792D01*
X162430106Y-100339788D01*
X162430109Y-100339786D01*
X162555048Y-100167820D01*
X162555047Y-100167820D01*
X162555051Y-100167816D01*
X162651557Y-99978412D01*
X162717246Y-99776243D01*
X162750500Y-99566287D01*
X162750500Y-99353713D01*
X162717246Y-99143757D01*
X162651557Y-98941588D01*
X162555051Y-98752184D01*
X162555049Y-98752181D01*
X162555048Y-98752179D01*
X162430109Y-98580213D01*
X162279786Y-98429890D01*
X162107817Y-98304949D01*
X162098504Y-98300204D01*
X162047707Y-98252230D01*
X162030912Y-98184409D01*
X162053449Y-98118274D01*
X162098507Y-98079232D01*
X162107555Y-98074622D01*
X162161716Y-98035270D01*
X162161717Y-98035270D01*
X161529408Y-97402962D01*
X161592993Y-97385925D01*
X161707007Y-97320099D01*
X161800099Y-97227007D01*
X161865925Y-97112993D01*
X161882962Y-97049409D01*
X162515270Y-97681717D01*
X162515270Y-97681716D01*
X162554622Y-97627554D01*
X162651095Y-97438217D01*
X162716757Y-97236130D01*
X162716757Y-97236127D01*
X162750000Y-97026246D01*
X162750000Y-96813753D01*
X162716757Y-96603872D01*
X162716757Y-96603869D01*
X162651095Y-96401782D01*
X162554624Y-96212449D01*
X162515270Y-96158282D01*
X162515269Y-96158282D01*
X161882962Y-96790590D01*
X161865925Y-96727007D01*
X161800099Y-96612993D01*
X161707007Y-96519901D01*
X161592993Y-96454075D01*
X161529409Y-96437037D01*
X162161716Y-95804728D01*
X162107547Y-95765373D01*
X162107547Y-95765372D01*
X162098500Y-95760763D01*
X162047706Y-95712788D01*
X162030912Y-95644966D01*
X162053451Y-95578832D01*
X162098508Y-95539793D01*
X162107816Y-95535051D01*
X162187007Y-95477515D01*
X162279786Y-95410109D01*
X162279788Y-95410106D01*
X162279792Y-95410104D01*
X162430104Y-95259792D01*
X162430106Y-95259788D01*
X162430109Y-95259786D01*
X162555048Y-95087820D01*
X162555047Y-95087820D01*
X162555051Y-95087816D01*
X162651557Y-94898412D01*
X162717246Y-94696243D01*
X162750500Y-94486287D01*
X162750500Y-94273713D01*
X162717246Y-94063757D01*
X162651557Y-93861588D01*
X162555051Y-93672184D01*
X162555049Y-93672181D01*
X162555048Y-93672179D01*
X162430109Y-93500213D01*
X162279786Y-93349890D01*
X162107820Y-93224951D01*
X162107115Y-93224591D01*
X162099054Y-93220485D01*
X162048259Y-93172512D01*
X162031463Y-93104692D01*
X162053999Y-93038556D01*
X162099054Y-92999515D01*
X162107816Y-92995051D01*
X162166825Y-92952179D01*
X162279786Y-92870109D01*
X162279788Y-92870106D01*
X162279792Y-92870104D01*
X162430104Y-92719792D01*
X162430106Y-92719788D01*
X162430109Y-92719786D01*
X162555048Y-92547820D01*
X162555047Y-92547820D01*
X162555051Y-92547816D01*
X162651557Y-92358412D01*
X162717246Y-92156243D01*
X162750500Y-91946287D01*
X162750500Y-91733713D01*
X162717246Y-91523757D01*
X162651557Y-91321588D01*
X162555051Y-91132184D01*
X162555049Y-91132181D01*
X162555048Y-91132179D01*
X162430109Y-90960213D01*
X162279790Y-90809894D01*
X162279785Y-90809890D01*
X162126615Y-90698606D01*
X162083949Y-90643276D01*
X162075500Y-90598288D01*
X162075500Y-88233467D01*
X162068810Y-88199839D01*
X162058776Y-88149394D01*
X162049541Y-88102964D01*
X161998620Y-87980031D01*
X161998618Y-87980028D01*
X161998616Y-87980024D01*
X161924695Y-87869394D01*
X161924692Y-87869390D01*
X153808236Y-79752935D01*
X153774751Y-79691612D01*
X153774314Y-79689514D01*
X153769737Y-79666503D01*
X153731857Y-79575051D01*
X153709397Y-79520827D01*
X153709390Y-79520814D01*
X153621789Y-79389711D01*
X153621786Y-79389707D01*
X153510292Y-79278213D01*
X153510288Y-79278210D01*
X153379185Y-79190609D01*
X153379172Y-79190602D01*
X153233499Y-79130263D01*
X153233493Y-79130261D01*
X153210551Y-79125698D01*
X153148640Y-79093312D01*
X153147063Y-79091762D01*
X150724609Y-76669307D01*
X150724605Y-76669304D01*
X150613975Y-76595383D01*
X150613965Y-76595378D01*
X150491036Y-76544459D01*
X150491028Y-76544457D01*
X150360535Y-76518500D01*
X150360531Y-76518500D01*
X140982685Y-76518500D01*
X140915646Y-76498815D01*
X140869891Y-76446011D01*
X140859947Y-76376853D01*
X140864754Y-76356182D01*
X140916757Y-76196130D01*
X140916757Y-76196127D01*
X140950000Y-75986246D01*
X140950000Y-75773753D01*
X140916757Y-75563872D01*
X140916757Y-75563869D01*
X140851095Y-75361782D01*
X140754624Y-75172449D01*
X140715270Y-75118282D01*
X140715269Y-75118282D01*
X140082962Y-75750589D01*
X140065925Y-75687007D01*
X140000099Y-75572993D01*
X139907007Y-75479901D01*
X139792993Y-75414075D01*
X139729409Y-75397037D01*
X140361716Y-74764728D01*
X140307547Y-74725373D01*
X140307547Y-74725372D01*
X140298500Y-74720763D01*
X140247706Y-74672788D01*
X140230912Y-74604966D01*
X140253451Y-74538832D01*
X140298508Y-74499793D01*
X140307816Y-74495051D01*
X140394147Y-74432328D01*
X140479786Y-74370109D01*
X140479788Y-74370106D01*
X140479792Y-74370104D01*
X140630104Y-74219792D01*
X140630106Y-74219788D01*
X140630109Y-74219786D01*
X140755048Y-74047820D01*
X140755047Y-74047820D01*
X140755051Y-74047816D01*
X140851557Y-73858412D01*
X140917246Y-73656243D01*
X140950500Y-73446287D01*
X140950500Y-73233713D01*
X140917246Y-73023757D01*
X140851557Y-72821588D01*
X140755051Y-72632184D01*
X140755049Y-72632181D01*
X140755048Y-72632179D01*
X140630109Y-72460213D01*
X140479786Y-72309890D01*
X140307820Y-72184951D01*
X140118414Y-72088444D01*
X140118413Y-72088443D01*
X140118412Y-72088443D01*
X139916243Y-72022754D01*
X139916241Y-72022753D01*
X139916240Y-72022753D01*
X139754957Y-71997208D01*
X139706287Y-71989500D01*
X139493713Y-71989500D01*
X139445042Y-71997208D01*
X139283760Y-72022753D01*
X139081585Y-72088444D01*
X138892179Y-72184951D01*
X138720215Y-72309889D01*
X138606673Y-72423431D01*
X138545350Y-72456915D01*
X138475658Y-72451931D01*
X138419725Y-72410059D01*
X138402810Y-72379082D01*
X138353797Y-72247671D01*
X138353793Y-72247664D01*
X138267547Y-72132455D01*
X138267544Y-72132452D01*
X138152335Y-72046206D01*
X138152328Y-72046202D01*
X138017482Y-71995908D01*
X138017483Y-71995908D01*
X137957883Y-71989501D01*
X137957881Y-71989500D01*
X137957873Y-71989500D01*
X137957864Y-71989500D01*
X136162129Y-71989500D01*
X136162123Y-71989501D01*
X136102516Y-71995908D01*
X135967671Y-72046202D01*
X135967664Y-72046206D01*
X135852455Y-72132452D01*
X135852452Y-72132455D01*
X135766206Y-72247664D01*
X135766202Y-72247671D01*
X135715908Y-72382517D01*
X135709501Y-72442116D01*
X135709500Y-72442135D01*
X135412500Y-72442135D01*
X135412500Y-70178500D01*
X135432185Y-70111461D01*
X135484989Y-70065706D01*
X135536500Y-70054500D01*
X164983500Y-70054500D01*
X165050539Y-70074185D01*
G37*
%TD.AperFunction*%
%TD*%
M02*
