M48
; DRILL file {KiCad 9.0.6} date 2026-04-22T22:38:54-0400
; FORMAT={-:-/ absolute / metric / decimal}
; #@! TF.CreationDate,2026-04-22T22:38:54-04:00
; #@! TF.GenerationSoftware,Kicad,Pcbnew,9.0.6
; #@! TF.FileFunction,Plated,1,2,PTH
FMAT,2
METRIC
; #@! TA.AperFunction,Plated,PTH,ViaDrill
T1C0.300
; #@! TA.AperFunction,Plated,PTH,ComponentDrill
T2C1.000
; #@! TA.AperFunction,Plated,PTH,ComponentDrill
T3C1.300
%
G90
G05
T1
X145.05Y-81.75
X149.0Y-106.7
X149.0Y-108.0
X149.0Y-109.3
X149.1Y-99.2
X150.1Y-104.3
X150.4Y-112.0
X153.0Y-79.9
X153.0Y-108.9
X158.3Y-109.9
T2
X137.06Y-73.34
X137.06Y-75.88
X137.06Y-78.42
X137.06Y-80.96
X137.06Y-83.5
X137.06Y-86.04
X137.06Y-88.58
X137.06Y-91.12
X137.06Y-93.66
X137.06Y-96.2
X137.06Y-98.74
X137.06Y-101.28
X137.06Y-103.82
X137.06Y-106.36
X137.06Y-108.9
X137.06Y-111.44
X137.06Y-113.98
X137.06Y-116.52
X137.06Y-119.06
X137.06Y-121.6
X139.6Y-73.34
X139.6Y-75.88
X139.6Y-78.42
X139.6Y-80.96
X139.6Y-83.5
X139.6Y-86.04
X139.6Y-88.58
X139.6Y-91.12
X139.6Y-93.66
X139.6Y-96.2
X139.6Y-98.74
X139.6Y-101.28
X139.6Y-103.82
X139.6Y-106.36
X139.6Y-108.9
X139.6Y-111.44
X139.6Y-113.98
X139.6Y-116.52
X139.6Y-119.06
X139.6Y-121.6
X147.9Y-123.5
X152.4Y-123.5
X158.86Y-91.84
X158.86Y-94.38
X158.86Y-96.92
X158.86Y-99.46
X158.86Y-102.0
X161.4Y-91.84
X161.4Y-94.38
X161.4Y-96.92
X161.4Y-99.46
X161.4Y-102.0
T3
X146.65Y-121.0
X153.65Y-121.0
M30
