%TF.GenerationSoftware,KiCad,Pcbnew,9.0.6*%
%TF.CreationDate,2026-04-22T22:38:47-04:00*%
%TF.ProjectId,Display101Adapter,44697370-6c61-4793-9130-314164617074,rev?*%
%TF.SameCoordinates,Original*%
%TF.FileFunction,Soldermask,Top*%
%TF.FilePolarity,Negative*%
%FSLAX46Y46*%
G04 Gerber Fmt 4.6, Leading zero omitted, Abs format (unit mm)*
G04 Created by KiCad (PCBNEW 9.0.6) date 2026-04-22 22:38:47*
%MOMM*%
%LPD*%
G01*
G04 APERTURE LIST*
G04 Aperture macros list*
%AMRoundRect*
0 Rectangle with rounded corners*
0 $1 Rounding radius*
0 $2 $3 $4 $5 $6 $7 $8 $9 X,Y pos of 4 corners*
0 Add a 4 corners polygon primitive as box body*
4,1,4,$2,$3,$4,$5,$6,$7,$8,$9,$2,$3,0*
0 Add four circle primitives for the rounded corners*
1,1,$1+$1,$2,$3*
1,1,$1+$1,$4,$5*
1,1,$1+$1,$6,$7*
1,1,$1+$1,$8,$9*
0 Add four rect primitives between the rounded corners*
20,1,$1+$1,$2,$3,$4,$5,0*
20,1,$1+$1,$4,$5,$6,$7,0*
20,1,$1+$1,$6,$7,$8,$9,0*
20,1,$1+$1,$8,$9,$2,$3,0*%
G04 Aperture macros list end*
%ADD10R,1.500000X1.500000*%
%ADD11C,1.500000*%
%ADD12C,1.950000*%
%ADD13R,1.500000X1.000000*%
%ADD14R,1.000000X1.500000*%
%ADD15RoundRect,0.250000X-0.600000X-0.600000X0.600000X-0.600000X0.600000X0.600000X-0.600000X0.600000X0*%
%ADD16C,1.700000*%
%ADD17R,1.700000X1.700000*%
G04 APERTURE END LIST*
%TO.C,JP4*%
G36*
X144750000Y-92400000D02*
G01*
X143250000Y-92400000D01*
X143250000Y-94000000D01*
X144750000Y-94000000D01*
X144750000Y-92400000D01*
G37*
%TO.C,JP2*%
G36*
X148250000Y-108800000D02*
G01*
X149750000Y-108800000D01*
X149750000Y-107200000D01*
X148250000Y-107200000D01*
X148250000Y-108800000D01*
G37*
%TO.C,JP3*%
G36*
X150600000Y-116650000D02*
G01*
X149000000Y-116650000D01*
X149000000Y-115150000D01*
X150600000Y-115150000D01*
X150600000Y-116650000D01*
G37*
%TO.C,JP1*%
G36*
X149850000Y-99700000D02*
G01*
X148350000Y-99700000D01*
X148350000Y-101300000D01*
X149850000Y-101300000D01*
X149850000Y-99700000D01*
G37*
%TD*%
D10*
%TO.C,SW1*%
X152400000Y-123500000D03*
D11*
X147900000Y-123500000D03*
D12*
X153650000Y-121000000D03*
X146650000Y-121000000D03*
%TD*%
D13*
%TO.C,JP4*%
X144000000Y-91900000D03*
X144000000Y-93200000D03*
X144000000Y-94500000D03*
%TD*%
%TO.C,JP2*%
X149000000Y-109300000D03*
X149000000Y-108000000D03*
X149000000Y-106700000D03*
%TD*%
D14*
%TO.C,JP3*%
X151100000Y-115900000D03*
X149800000Y-115900000D03*
X148500000Y-115900000D03*
%TD*%
D15*
%TO.C,J21*%
X158860000Y-91840000D03*
D16*
X161400000Y-91840000D03*
X158860000Y-94380000D03*
X161400000Y-94380000D03*
X158860000Y-96920000D03*
X161400000Y-96920000D03*
X158860000Y-99460000D03*
X161400000Y-99460000D03*
X158860000Y-102000000D03*
X161400000Y-102000000D03*
%TD*%
D13*
%TO.C,JP1*%
X149100000Y-99200000D03*
X149100000Y-100500000D03*
X149100000Y-101800000D03*
%TD*%
D17*
%TO.C,J2*%
X137060000Y-73340000D03*
D16*
X139600000Y-73340000D03*
X137060000Y-75880000D03*
X139600000Y-75880000D03*
X137060000Y-78420000D03*
X139600000Y-78420000D03*
X137060000Y-80960000D03*
X139600000Y-80960000D03*
X137060000Y-83500000D03*
X139600000Y-83500000D03*
X137060000Y-86040000D03*
X139600000Y-86040000D03*
X137060000Y-88580000D03*
X139600000Y-88580000D03*
X137060000Y-91120000D03*
X139600000Y-91120000D03*
X137060000Y-93660000D03*
X139600000Y-93660000D03*
X137060000Y-96200000D03*
X139600000Y-96200000D03*
X137060000Y-98740000D03*
X139600000Y-98740000D03*
X137060000Y-101280000D03*
X139600000Y-101280000D03*
X137060000Y-103820000D03*
X139600000Y-103820000D03*
X137060000Y-106360000D03*
X139600000Y-106360000D03*
X137060000Y-108900000D03*
X139600000Y-108900000D03*
X137060000Y-111440000D03*
X139600000Y-111440000D03*
X137060000Y-113980000D03*
X139600000Y-113980000D03*
X137060000Y-116520000D03*
X139600000Y-116520000D03*
X137060000Y-119060000D03*
X139600000Y-119060000D03*
X137060000Y-121600000D03*
X139600000Y-121600000D03*
%TD*%
M02*
