%TF.GenerationSoftware,KiCad,Pcbnew,9.0.6*%
%TF.CreationDate,2026-03-23T21:02:53-04:00*%
%TF.ProjectId,LCC-Pico-Node_v2_7,4c43432d-5069-4636-9f2d-4e6f64655f76,rev?*%
%TF.SameCoordinates,Original*%
%TF.FileFunction,Soldermask,Bot*%
%TF.FilePolarity,Negative*%
%FSLAX46Y46*%
G04 Gerber Fmt 4.6, Leading zero omitted, Abs format (unit mm)*
G04 Created by KiCad (PCBNEW 9.0.6) date 2026-03-23 21:02:53*
%MOMM*%
%LPD*%
G01*
G04 APERTURE LIST*
G04 Aperture macros list*
%AMRoundRect*
0 Rectangle with rounded corners*
0 $1 Rounding radius*
0 $2 $3 $4 $5 $6 $7 $8 $9 X,Y pos of 4 corners*
0 Add a 4 corners polygon primitive as box body*
4,1,4,$2,$3,$4,$5,$6,$7,$8,$9,$2,$3,0*
0 Add four circle primitives for the rounded corners*
1,1,$1+$1,$2,$3*
1,1,$1+$1,$4,$5*
1,1,$1+$1,$6,$7*
1,1,$1+$1,$8,$9*
0 Add four rect primitives between the rounded corners*
20,1,$1+$1,$2,$3,$4,$5,0*
20,1,$1+$1,$4,$5,$6,$7,0*
20,1,$1+$1,$6,$7,$8,$9,0*
20,1,$1+$1,$8,$9,$2,$3,0*%
G04 Aperture macros list end*
%ADD10R,1.700000X1.700000*%
%ADD11C,1.700000*%
%ADD12R,1.515000X1.515000*%
%ADD13C,1.515000*%
%ADD14C,2.385000*%
%ADD15C,1.400000*%
%ADD16R,1.400000X1.400000*%
%ADD17C,3.170000*%
%ADD18RoundRect,0.250000X-0.600000X0.600000X-0.600000X-0.600000X0.600000X-0.600000X0.600000X0.600000X0*%
%ADD19O,1.700000X1.700000*%
%ADD20R,1.600000X1.600000*%
%ADD21C,1.600000*%
%ADD22R,1.500000X1.500000*%
%ADD23C,1.500000*%
%ADD24C,1.950000*%
%ADD25C,3.500000*%
%ADD26R,2.100000X2.100000*%
%ADD27C,2.100000*%
%ADD28R,3.500000X3.500000*%
%ADD29RoundRect,0.750000X-0.750000X-1.000000X0.750000X-1.000000X0.750000X1.000000X-0.750000X1.000000X0*%
%ADD30RoundRect,0.875000X-0.875000X-0.875000X0.875000X-0.875000X0.875000X0.875000X-0.875000X0.875000X0*%
G04 APERTURE END LIST*
D10*
X168825000Y-56900000D03*
D11*
X168825000Y-59440000D03*
X168825000Y-61980000D03*
X168825000Y-64520000D03*
D12*
X152000000Y-61700000D03*
D13*
X155000000Y-61700000D03*
X158000000Y-61700000D03*
D14*
X149200000Y-61700000D03*
X160800000Y-61700000D03*
D12*
X176600000Y-61700000D03*
D13*
X179600000Y-61700000D03*
X182600000Y-61700000D03*
D14*
X173800000Y-61700000D03*
X185400000Y-61700000D03*
D15*
X113250000Y-103600000D03*
X110710000Y-102330000D03*
X113250000Y-101060000D03*
X110710000Y-99790000D03*
X113250000Y-98520000D03*
X110710000Y-97250000D03*
X113250000Y-95980000D03*
D16*
X110710000Y-94710000D03*
D17*
X104360000Y-104870000D03*
X104360000Y-93440000D03*
D15*
X113250000Y-123800000D03*
X110710000Y-122530000D03*
X113250000Y-121260000D03*
X110710000Y-119990000D03*
X113250000Y-118720000D03*
X110710000Y-117450000D03*
X113250000Y-116180000D03*
D16*
X110710000Y-114910000D03*
D17*
X104360000Y-125070000D03*
X104360000Y-113640000D03*
D11*
X150300000Y-73760000D03*
X150300000Y-71220000D03*
X152840000Y-73760000D03*
X152840000Y-71220000D03*
X155380000Y-73760000D03*
X155380000Y-71220000D03*
X157920000Y-73760000D03*
X157920000Y-71220000D03*
X160460000Y-73760000D03*
D18*
X160460000Y-71220000D03*
D10*
X124450000Y-122660000D03*
D19*
X121910000Y-122660000D03*
D10*
X150144599Y-113052055D03*
D19*
X152684599Y-113052055D03*
X155224599Y-113052055D03*
X157764599Y-113052055D03*
X160304599Y-113052055D03*
X162844599Y-113052055D03*
X165384599Y-113052055D03*
X167924599Y-113052055D03*
X170464599Y-113052055D03*
X173004599Y-113052055D03*
X175544599Y-113052055D03*
X178084599Y-113052055D03*
X180624599Y-113052055D03*
X183164599Y-113052055D03*
X185704599Y-113052055D03*
X188244599Y-113052055D03*
X190784599Y-113052055D03*
X193324599Y-113052055D03*
X195864599Y-113052055D03*
X198404599Y-113052055D03*
D10*
X169895000Y-124465000D03*
D19*
X172435000Y-124465000D03*
X174975000Y-124465000D03*
X177515000Y-124465000D03*
X198420000Y-87220000D03*
X195880000Y-87220000D03*
D10*
X193340000Y-87220000D03*
D19*
X190800000Y-87220000D03*
X188260000Y-87220000D03*
X185720000Y-87220000D03*
X183180000Y-87220000D03*
D10*
X180640000Y-87220000D03*
D19*
X178100000Y-87220000D03*
X175560000Y-87220000D03*
X173020000Y-87220000D03*
X170480000Y-87220000D03*
D10*
X167940000Y-87220000D03*
D19*
X165400000Y-87220000D03*
X162860000Y-87220000D03*
X160320000Y-87220000D03*
X157780000Y-87220000D03*
D10*
X155240000Y-87220000D03*
D19*
X152700000Y-87220000D03*
X150160000Y-87220000D03*
X150160000Y-105000000D03*
X152700000Y-105000000D03*
D10*
X155240000Y-105000000D03*
D19*
X157780000Y-105000000D03*
X160320000Y-105000000D03*
X162860000Y-105000000D03*
X165400000Y-105000000D03*
D10*
X167940000Y-105000000D03*
D19*
X170480000Y-105000000D03*
X173020000Y-105000000D03*
X175560000Y-105000000D03*
X178100000Y-105000000D03*
D10*
X180640000Y-105000000D03*
D19*
X183180000Y-105000000D03*
X185720000Y-105000000D03*
X188260000Y-105000000D03*
X190800000Y-105000000D03*
D10*
X193340000Y-105000000D03*
D19*
X195880000Y-105000000D03*
X198420000Y-105000000D03*
D10*
X117660000Y-99500000D03*
D19*
X120200000Y-99500000D03*
D20*
X108300000Y-76200000D03*
D21*
X104800000Y-76200000D03*
D10*
X168924200Y-116659200D03*
D11*
X171464200Y-116659200D03*
D10*
X169900000Y-128100000D03*
D11*
X172440000Y-128100000D03*
X174980000Y-128100000D03*
X177520000Y-128100000D03*
X180060000Y-128100000D03*
X182600000Y-128100000D03*
X185140000Y-128100000D03*
X187680000Y-128100000D03*
D22*
X196050000Y-70250000D03*
D23*
X196050000Y-74750000D03*
D24*
X193550000Y-69000000D03*
X193550000Y-76000000D03*
D25*
X120400000Y-52700000D03*
D22*
X196000000Y-118200000D03*
D23*
X196000000Y-122700000D03*
D24*
X193500000Y-116950000D03*
X193500000Y-123950000D03*
D26*
X104985000Y-55015000D03*
D27*
X104985000Y-57555000D03*
D25*
X196350000Y-53500000D03*
D26*
X104900000Y-84160000D03*
D27*
X104900000Y-86700000D03*
D10*
X120300000Y-94000000D03*
D19*
X117760000Y-94000000D03*
D10*
X198369200Y-80006400D03*
D19*
X195829200Y-80006400D03*
X193289200Y-80006400D03*
X190749200Y-80006400D03*
X188209200Y-80006400D03*
X185669200Y-80006400D03*
X183129200Y-80006400D03*
X180589200Y-80006400D03*
X178049200Y-80006400D03*
X175509200Y-80006400D03*
X172969200Y-80006400D03*
X170429200Y-80006400D03*
X167889200Y-80006400D03*
X165349200Y-80006400D03*
X162809200Y-80006400D03*
X160269200Y-80006400D03*
X157729200Y-80006400D03*
X155189200Y-80006400D03*
X152649200Y-80006400D03*
X150109200Y-80006400D03*
D25*
X196300000Y-128400000D03*
D28*
X115200000Y-64700000D03*
D29*
X109200000Y-64700000D03*
D30*
X112200000Y-69400000D03*
D22*
X196000000Y-59300000D03*
D23*
X196000000Y-63800000D03*
D24*
X193500000Y-58050000D03*
X193500000Y-65050000D03*
D25*
X125650000Y-128400000D03*
D18*
X182660000Y-71260000D03*
D11*
X182660000Y-73800000D03*
X180120000Y-71260000D03*
X180120000Y-73800000D03*
X177580000Y-71260000D03*
X177580000Y-73800000D03*
X175040000Y-71260000D03*
X175040000Y-73800000D03*
X172500000Y-71260000D03*
X172500000Y-73800000D03*
D10*
X120100000Y-126800000D03*
D19*
X117560000Y-126800000D03*
D10*
X114500000Y-81000000D03*
D11*
X117040000Y-81000000D03*
D10*
X124410000Y-118150000D03*
D19*
X121870000Y-118150000D03*
D11*
X171465000Y-53140000D03*
X168925000Y-53140000D03*
D10*
X166385000Y-53140000D03*
M02*
