M48
; DRILL file {KiCad 9.0.6} date 2025-12-08T20:00:43-0500
; FORMAT={-:-/ absolute / metric / decimal}
; #@! TF.CreationDate,2025-12-08T20:00:43-05:00
; #@! TF.GenerationSoftware,Kicad,Pcbnew,9.0.6
; #@! TF.FileFunction,Plated,1,4,PTH
FMAT,2
METRIC
; #@! TA.AperFunction,Plated,PTH,ViaDrill
T1C0.400
; #@! TA.AperFunction,Plated,PTH,ComponentDrill
T2C0.800
; #@! TA.AperFunction,Plated,PTH,ComponentDrill
T3C0.900
; #@! TA.AperFunction,Plated,PTH,ComponentDrill
T4C0.950
; #@! TA.AperFunction,Plated,PTH,ComponentDrill
T5C1.000
; #@! TA.AperFunction,Plated,PTH,ComponentDrill
T6C1.020
; #@! TA.AperFunction,Plated,PTH,ComponentDrill
T7C1.100
; #@! TA.AperFunction,Plated,PTH,ComponentDrill
T8C1.300
%
G90
G05
T1
X104.69Y-109.255
X107.99Y-123.955
X108.99Y-91.455
X111.2Y-82.2
X114.22Y-84.25
X114.28Y-52.87
X117.5Y-108.487
X121.32Y-73.499
X121.32Y-82.825
X121.328Y-88.075
X123.15Y-77.037
X123.15Y-78.037
X123.15Y-79.137
X124.05Y-77.037
X124.05Y-78.037
X124.05Y-79.137
X124.5Y-109.5
X125.45Y-77.437
X125.45Y-78.937
X125.5Y-109.5
X126.175Y-78.162
X126.677Y-103.25
X126.8Y-115.8
X126.85Y-77.437
X126.85Y-78.937
X126.9Y-105.8
X127.0Y-114.5
X128.25Y-77.137
X128.25Y-78.137
X128.25Y-79.237
X129.35Y-77.137
X129.35Y-78.137
X129.35Y-79.237
X129.84Y-100.65
X130.45Y-77.137
X130.45Y-78.137
X130.45Y-79.237
X132.0Y-112.0
X132.24Y-59.792
X132.977Y-103.25
X135.412Y-84.167
X135.45Y-72.437
X135.45Y-78.437
X135.493Y-75.437
X136.55Y-65.33
X136.7Y-90.95
X138.7Y-96.6
X139.16Y-124.17
X142.0Y-91.7
X144.6Y-57.0
X147.2Y-57.0
X156.055Y-69.105
X163.737Y-61.3
X164.6Y-120.1
X165.23Y-69.065
X166.862Y-61.3
T2
X104.8Y-76.2
X108.3Y-76.2
T3
X110.71Y-94.71
X110.71Y-97.25
X110.71Y-99.79
X110.71Y-102.33
X110.71Y-114.91
X110.71Y-117.45
X110.71Y-119.99
X110.71Y-122.53
X113.25Y-95.98
X113.25Y-98.52
X113.25Y-101.06
X113.25Y-103.6
X113.25Y-116.18
X113.25Y-118.72
X113.25Y-121.26
X113.25Y-123.8
T4
X183.0Y-103.525
X183.0Y-111.025
X183.0Y-118.5
X183.0Y-125.5
X185.5Y-103.525
X185.5Y-111.025
X185.5Y-118.5
X185.5Y-125.5
X188.0Y-103.525
X188.0Y-111.025
X188.0Y-118.5
X188.0Y-125.5
T5
X114.5Y-81.0
X117.04Y-81.0
X117.56Y-126.8
X117.66Y-99.5
X117.76Y-94.0
X120.1Y-126.8
X120.2Y-99.5
X120.3Y-94.0
X121.87Y-118.15
X121.91Y-122.66
X124.41Y-118.15
X124.45Y-122.66
X141.5Y-95.725
X141.5Y-98.265
X141.502Y-107.436
X141.502Y-109.976
X141.502Y-112.516
X145.035Y-63.025
X145.035Y-65.565
X145.035Y-68.105
X145.035Y-70.645
X145.107Y-76.945
X145.107Y-79.485
X145.107Y-82.025
X145.107Y-84.565
X145.107Y-87.105
X145.107Y-89.645
X145.107Y-92.185
X145.107Y-94.725
X145.107Y-97.265
X145.107Y-99.805
X145.107Y-102.345
X145.107Y-104.885
X145.107Y-107.425
X145.107Y-109.965
X145.107Y-112.505
X145.107Y-115.045
X145.107Y-117.585
X145.107Y-120.125
X145.107Y-122.665
X145.107Y-125.205
X147.575Y-63.025
X147.575Y-65.565
X147.575Y-68.105
X147.575Y-70.645
X151.615Y-54.465
X154.155Y-54.465
X156.695Y-54.465
X159.235Y-54.465
X161.775Y-54.465
X164.315Y-54.465
X166.855Y-54.465
X169.395Y-54.465
X176.02Y-55.295
X176.02Y-57.835
X176.02Y-60.375
X178.153Y-76.91
X178.153Y-79.45
X178.153Y-81.99
X178.153Y-84.53
X178.153Y-87.07
X178.153Y-89.61
X178.153Y-92.15
X178.153Y-94.69
X178.153Y-97.23
X178.153Y-99.77
X178.153Y-102.31
X178.153Y-104.85
X178.153Y-107.39
X178.153Y-109.93
X178.153Y-112.47
X178.153Y-115.01
X178.153Y-117.55
X178.153Y-120.09
X178.153Y-122.63
X178.153Y-125.17
X180.0Y-57.775
X182.54Y-57.775
X185.08Y-57.775
X185.9Y-87.07
X185.9Y-89.61
X185.9Y-92.15
X187.62Y-57.775
X194.385Y-84.59
X194.385Y-87.13
X194.385Y-89.67
X194.385Y-92.21
X194.385Y-94.75
X194.5Y-117.8
X194.5Y-120.34
X194.5Y-122.88
X196.05Y-70.25
X196.05Y-74.75
X196.075Y-58.75
X196.075Y-63.25
X196.475Y-104.65
X196.475Y-109.15
X196.925Y-84.59
X196.925Y-87.13
X196.925Y-89.67
X196.925Y-92.21
X196.925Y-94.75
X198.897Y-115.202
X198.897Y-117.742
X198.897Y-120.282
X198.897Y-122.822
T6
X153.159Y-76.961
X153.159Y-79.501
X153.159Y-82.041
X153.159Y-84.581
X153.159Y-87.121
X153.159Y-89.661
X153.159Y-92.201
X153.159Y-94.741
X153.159Y-97.281
X153.159Y-99.821
X153.159Y-102.361
X153.159Y-104.901
X153.159Y-107.441
X153.159Y-109.981
X153.159Y-112.521
X153.159Y-115.061
X153.159Y-117.601
X153.159Y-120.141
X153.159Y-122.681
X153.159Y-125.221
X170.939Y-76.961
X170.939Y-79.501
X170.939Y-82.041
X170.939Y-84.581
X170.939Y-87.121
X170.939Y-89.661
X170.939Y-92.201
X170.939Y-94.741
X170.939Y-97.281
X170.939Y-99.821
X170.939Y-102.361
X170.939Y-104.901
X170.939Y-107.441
X170.939Y-109.981
X170.939Y-112.521
X170.939Y-115.061
X170.939Y-117.601
X170.939Y-120.141
X170.939Y-122.681
X170.939Y-125.221
T7
X104.9Y-84.16
X104.9Y-86.7
X104.985Y-55.015
X104.985Y-57.555
T8
X193.55Y-69.0
X193.55Y-76.0
X193.575Y-57.5
X193.575Y-64.5
X193.975Y-103.4
X193.975Y-110.4
T5
G00X109.2Y-63.7
M15
G01X109.2Y-65.7
M16
G05
G00X111.2Y-69.4
M15
G01X113.2Y-69.4
M16
G05
G00X115.2Y-63.7
M15
G01X115.2Y-65.7
M16
G05
M30
