M48
; DRILL file {KiCad 8.0.5} date 2024-12-19T23:12:22-0500
; FORMAT={-:-/ absolute / metric / decimal}
; #@! TF.CreationDate,2024-12-19T23:12:22-05:00
; #@! TF.GenerationSoftware,Kicad,Pcbnew,8.0.5
; #@! TF.FileFunction,Plated,1,4,PTH
FMAT,2
METRIC
; #@! TA.AperFunction,Plated,PTH,ViaDrill
T1C0.400
; #@! TA.AperFunction,Plated,PTH,ComponentDrill
T2C0.800
; #@! TA.AperFunction,Plated,PTH,ComponentDrill
T3C0.900
; #@! TA.AperFunction,Plated,PTH,ComponentDrill
T4C1.000
; #@! TA.AperFunction,Plated,PTH,ComponentDrill
T5C1.020
; #@! TA.AperFunction,Plated,PTH,ComponentDrill
T6C1.100
; #@! TA.AperFunction,Plated,PTH,ComponentDrill
T7C1.300
%
G90
G05
T1
X104.69Y-109.255
X107.99Y-123.955
X108.99Y-91.455
X111.2Y-74.888
X111.2Y-82.2
X111.3Y-66.212
X114.9Y-88.1
X117.7Y-106.525
X120.0Y-57.812
X121.32Y-73.499
X121.32Y-82.825
X121.328Y-88.075
X122.0Y-102.35
X123.15Y-77.037
X123.15Y-78.037
X123.15Y-79.137
X124.05Y-77.037
X124.05Y-78.037
X124.05Y-79.137
X125.45Y-77.437
X125.45Y-78.937
X126.175Y-78.162
X126.85Y-77.437
X126.85Y-78.937
X127.0Y-112.7
X127.0Y-116.51
X128.25Y-77.137
X128.25Y-78.137
X128.25Y-79.237
X129.35Y-77.137
X129.35Y-78.137
X129.35Y-79.237
X130.45Y-77.137
X130.45Y-78.137
X130.45Y-79.237
X130.6Y-89.4
X130.938Y-106.0
X132.338Y-65.985
X132.4Y-110.16
X132.4Y-111.43
X132.4Y-112.7
X132.4Y-113.97
X133.8Y-103.162
X135.412Y-84.167
X135.45Y-72.437
X135.45Y-78.437
X135.493Y-75.437
X144.5Y-78.5
X144.7Y-69.25
X147.137Y-66.599
X153.237Y-72.7
X153.6Y-68.8
X155.175Y-82.605
X156.2Y-68.8
X179.9Y-75.2
X187.554Y-107.061
X187.858Y-109.779
T2
X113.453Y-79.3
X116.953Y-79.3
X169.316Y-64.831
X169.316Y-77.531
X171.856Y-64.831
X171.856Y-77.531
X174.396Y-64.831
X174.396Y-77.531
X176.936Y-64.831
X176.936Y-77.531
X179.476Y-64.831
X179.476Y-77.531
X182.016Y-64.831
X182.016Y-77.531
X184.556Y-64.831
X184.556Y-77.531
X187.096Y-64.831
X187.096Y-77.531
T3
X110.71Y-94.71
X110.71Y-97.25
X110.71Y-99.79
X110.71Y-102.33
X110.71Y-114.91
X110.71Y-117.45
X110.71Y-119.99
X110.71Y-122.53
X113.25Y-95.98
X113.25Y-98.52
X113.25Y-101.06
X113.25Y-103.6
X113.25Y-116.18
X113.25Y-118.72
X113.25Y-121.26
X113.25Y-123.8
T4
X105.275Y-80.75
X105.275Y-85.25
X117.56Y-126.8
X117.66Y-99.5
X117.66Y-117.9
X117.7Y-121.8
X117.76Y-94.0
X120.1Y-126.8
X120.2Y-99.5
X120.2Y-117.9
X120.24Y-121.8
X120.3Y-94.0
X125.4Y-57.5
X129.9Y-57.5
X136.65Y-57.475
X136.871Y-89.505
X136.906Y-122.551
X139.411Y-89.505
X139.446Y-122.551
X141.15Y-57.475
X141.951Y-89.505
X141.986Y-122.551
X144.491Y-89.505
X144.526Y-122.551
X147.031Y-89.505
X147.051Y-126.746
X147.066Y-122.551
X149.56Y-85.9
X149.571Y-89.505
X149.591Y-126.746
X149.606Y-122.551
X150.165Y-56.947
X150.165Y-59.487
X152.1Y-85.9
X152.111Y-89.505
X152.131Y-126.746
X152.146Y-122.551
X152.705Y-56.947
X152.705Y-59.487
X154.64Y-85.9
X154.651Y-89.505
X154.686Y-122.551
X155.245Y-56.947
X155.245Y-59.487
X157.191Y-89.505
X157.226Y-122.551
X157.226Y-125.091
X157.226Y-127.631
X157.785Y-56.947
X157.785Y-59.487
X159.731Y-89.505
X159.766Y-122.551
X159.766Y-125.091
X159.766Y-127.631
X160.325Y-56.947
X160.325Y-59.487
X162.271Y-89.505
X162.306Y-122.551
X162.306Y-125.091
X162.306Y-127.631
X163.83Y-67.666
X163.83Y-70.206
X163.83Y-72.746
X163.83Y-75.286
X164.811Y-89.505
X164.846Y-122.551
X164.846Y-125.091
X164.846Y-127.631
X167.351Y-89.505
X167.386Y-122.551
X169.891Y-89.505
X169.926Y-122.551
X169.926Y-125.091
X169.926Y-127.631
X171.811Y-83.215
X171.811Y-85.755
X172.431Y-89.505
X172.466Y-122.551
X172.466Y-125.091
X172.466Y-127.631
X173.228Y-56.896
X173.228Y-59.436
X174.351Y-83.215
X174.351Y-85.755
X174.971Y-89.505
X175.006Y-122.551
X175.006Y-125.091
X175.006Y-127.631
X175.768Y-56.896
X175.768Y-59.436
X176.891Y-83.215
X176.891Y-85.755
X177.511Y-89.505
X177.546Y-122.551
X177.546Y-125.091
X177.546Y-127.631
X178.308Y-56.896
X178.308Y-59.436
X179.431Y-83.215
X179.431Y-85.755
X180.051Y-89.505
X180.086Y-122.551
X180.848Y-56.896
X180.848Y-59.436
X181.971Y-83.215
X181.971Y-85.755
X182.372Y-126.746
X182.591Y-89.505
X182.626Y-122.551
X183.388Y-56.896
X183.388Y-59.436
X184.912Y-126.746
X185.131Y-89.505
X185.166Y-122.551
X187.452Y-126.746
X191.745Y-66.65
X193.294Y-74.676
X193.294Y-77.216
X193.294Y-79.756
X193.294Y-82.296
X193.294Y-84.836
X193.294Y-87.376
X193.294Y-89.916
X193.294Y-92.456
X193.294Y-94.996
X193.294Y-97.536
X193.294Y-100.076
X193.294Y-102.616
X193.294Y-105.156
X193.294Y-107.696
X193.294Y-110.236
X193.294Y-112.776
X193.294Y-115.316
X193.294Y-117.856
X193.294Y-120.396
X193.294Y-122.936
X194.285Y-66.65
X194.3Y-54.803
X194.3Y-57.343
X194.3Y-59.883
X194.3Y-62.423
X195.834Y-74.676
X195.834Y-77.216
X195.834Y-79.756
X195.834Y-82.296
X195.834Y-84.836
X195.834Y-87.376
X195.834Y-89.916
X195.834Y-92.456
X195.834Y-94.996
X195.834Y-97.536
X195.834Y-100.076
X195.834Y-102.616
X195.834Y-105.156
X195.834Y-107.696
X195.834Y-110.236
X195.834Y-112.776
X195.834Y-115.316
X195.834Y-117.856
X195.834Y-120.396
X195.834Y-122.936
X196.825Y-66.65
T5
X136.855Y-97.557
X136.855Y-115.337
X139.395Y-97.557
X139.395Y-115.337
X141.935Y-97.557
X141.935Y-115.337
X144.475Y-97.557
X144.475Y-115.337
X147.015Y-97.557
X147.015Y-115.337
X149.555Y-97.557
X149.555Y-115.337
X152.095Y-97.557
X152.095Y-115.337
X154.635Y-97.557
X154.635Y-115.337
X157.175Y-97.557
X157.175Y-115.337
X159.715Y-97.557
X159.715Y-115.337
X162.255Y-97.557
X162.255Y-115.337
X164.795Y-97.557
X164.795Y-115.337
X167.335Y-97.557
X167.335Y-115.337
X169.875Y-97.557
X169.875Y-115.337
X172.415Y-97.557
X172.415Y-115.337
X174.955Y-97.557
X174.955Y-115.337
X177.495Y-97.557
X177.495Y-115.337
X180.035Y-97.557
X180.035Y-115.337
X182.575Y-97.557
X182.575Y-115.337
X185.115Y-97.557
X185.115Y-115.337
T6
X104.8Y-65.23
X104.8Y-67.77
X104.8Y-72.212
X104.8Y-74.752
T7
X107.775Y-79.5
X107.775Y-86.5
X124.15Y-60.0
X131.15Y-60.0
X135.4Y-59.975
X142.4Y-59.975
T4
X107.9Y-57.0G85X107.9Y-59.0
G05
X109.9Y-62.7G85X111.9Y-62.7
G05
X113.9Y-57.0G85X113.9Y-59.0
G05
M30
