%TF.GenerationSoftware,KiCad,Pcbnew,9.0.6*%
%TF.CreationDate,2025-12-08T20:00:33-05:00*%
%TF.ProjectId,LCC-Pico-Node_v2_6,4c43432d-5069-4636-9f2d-4e6f64655f76,rev?*%
%TF.SameCoordinates,Original*%
%TF.FileFunction,Soldermask,Bot*%
%TF.FilePolarity,Negative*%
%FSLAX46Y46*%
G04 Gerber Fmt 4.6, Leading zero omitted, Abs format (unit mm)*
G04 Created by KiCad (PCBNEW 9.0.6) date 2025-12-08 20:00:33*
%MOMM*%
%LPD*%
G01*
G04 APERTURE LIST*
G04 Aperture macros list*
%AMRoundRect*
0 Rectangle with rounded corners*
0 $1 Rounding radius*
0 $2 $3 $4 $5 $6 $7 $8 $9 X,Y pos of 4 corners*
0 Add a 4 corners polygon primitive as box body*
4,1,4,$2,$3,$4,$5,$6,$7,$8,$9,$2,$3,0*
0 Add four circle primitives for the rounded corners*
1,1,$1+$1,$2,$3*
1,1,$1+$1,$4,$5*
1,1,$1+$1,$6,$7*
1,1,$1+$1,$8,$9*
0 Add four rect primitives between the rounded corners*
20,1,$1+$1,$2,$3,$4,$5,0*
20,1,$1+$1,$4,$5,$6,$7,0*
20,1,$1+$1,$6,$7,$8,$9,0*
20,1,$1+$1,$8,$9,$2,$3,0*%
G04 Aperture macros list end*
%ADD10RoundRect,0.250000X-0.600000X-0.725000X0.600000X-0.725000X0.600000X0.725000X-0.600000X0.725000X0*%
%ADD11O,1.700000X1.950000*%
%ADD12R,1.700000X1.700000*%
%ADD13C,1.700000*%
%ADD14C,3.170000*%
%ADD15R,1.400000X1.400000*%
%ADD16C,1.400000*%
%ADD17O,1.700000X1.700000*%
%ADD18R,1.600000X1.600000*%
%ADD19C,1.600000*%
%ADD20R,1.500000X1.500000*%
%ADD21C,1.500000*%
%ADD22C,1.950000*%
%ADD23C,3.500000*%
%ADD24R,2.100000X2.100000*%
%ADD25C,2.100000*%
%ADD26R,3.500000X3.500000*%
%ADD27RoundRect,0.750000X-0.750000X-1.000000X0.750000X-1.000000X0.750000X1.000000X-0.750000X1.000000X0*%
%ADD28RoundRect,0.875000X-0.875000X-0.875000X0.875000X-0.875000X0.875000X0.875000X-0.875000X0.875000X0*%
%ADD29RoundRect,0.250000X-0.600000X-0.600000X0.600000X-0.600000X0.600000X0.600000X-0.600000X0.600000X0*%
G04 APERTURE END LIST*
D10*
X183000000Y-103525000D03*
D11*
X185500000Y-103525000D03*
X188000000Y-103525000D03*
D10*
X183000000Y-111025000D03*
D11*
X185500000Y-111025000D03*
X188000000Y-111025000D03*
D10*
X183000000Y-118500000D03*
D11*
X185500000Y-118500000D03*
X188000000Y-118500000D03*
D10*
X183000000Y-125500000D03*
D11*
X185500000Y-125500000D03*
X188000000Y-125500000D03*
D12*
X114500000Y-81000000D03*
D13*
X117040000Y-81000000D03*
D12*
X141500000Y-95725000D03*
D13*
X141500000Y-98265000D03*
D12*
X145035000Y-63025000D03*
D13*
X147575000Y-63025000D03*
X145035000Y-65565000D03*
X147575000Y-65565000D03*
X145035000Y-68105000D03*
X147575000Y-68105000D03*
X145035000Y-70645000D03*
X147575000Y-70645000D03*
D12*
X169395000Y-54465000D03*
D13*
X166855000Y-54465000D03*
X164315000Y-54465000D03*
X161775000Y-54465000D03*
X159235000Y-54465000D03*
X156695000Y-54465000D03*
X154155000Y-54465000D03*
X151615000Y-54465000D03*
D14*
X104360000Y-113640000D03*
X104360000Y-125070000D03*
D15*
X110710000Y-114910000D03*
D16*
X113250000Y-116180000D03*
X110710000Y-117450000D03*
X113250000Y-118720000D03*
X110710000Y-119990000D03*
X113250000Y-121260000D03*
X110710000Y-122530000D03*
X113250000Y-123800000D03*
D14*
X104360000Y-93440000D03*
X104360000Y-104870000D03*
D15*
X110710000Y-94710000D03*
D16*
X113250000Y-95980000D03*
X110710000Y-97250000D03*
X113250000Y-98520000D03*
X110710000Y-99790000D03*
X113250000Y-101060000D03*
X110710000Y-102330000D03*
X113250000Y-103600000D03*
D12*
X124450000Y-122660000D03*
D17*
X121910000Y-122660000D03*
D12*
X145107145Y-76945399D03*
D17*
X145107145Y-79485399D03*
X145107145Y-82025399D03*
X145107145Y-84565399D03*
X145107145Y-87105399D03*
X145107145Y-89645399D03*
X145107145Y-92185399D03*
X145107145Y-94725399D03*
X145107145Y-97265399D03*
X145107145Y-99805399D03*
X145107145Y-102345399D03*
X145107145Y-104885399D03*
X145107145Y-107425399D03*
X145107145Y-109965399D03*
X145107145Y-112505399D03*
X145107145Y-115045399D03*
X145107145Y-117585399D03*
X145107145Y-120125399D03*
X145107145Y-122665399D03*
X145107145Y-125205399D03*
D12*
X176020000Y-55295000D03*
D17*
X176020000Y-57835000D03*
X176020000Y-60375000D03*
D12*
X180000000Y-57775000D03*
D17*
X182540000Y-57775000D03*
X185080000Y-57775000D03*
X187620000Y-57775000D03*
X170939200Y-125220800D03*
X170939200Y-122680800D03*
D12*
X170939200Y-120140800D03*
D17*
X170939200Y-117600800D03*
X170939200Y-115060800D03*
X170939200Y-112520800D03*
X170939200Y-109980800D03*
D12*
X170939200Y-107440800D03*
D17*
X170939200Y-104900800D03*
X170939200Y-102360800D03*
X170939200Y-99820800D03*
X170939200Y-97280800D03*
D12*
X170939200Y-94740800D03*
D17*
X170939200Y-92200800D03*
X170939200Y-89660800D03*
X170939200Y-87120800D03*
X170939200Y-84580800D03*
D12*
X170939200Y-82040800D03*
D17*
X170939200Y-79500800D03*
X170939200Y-76960800D03*
X153159200Y-76960800D03*
X153159200Y-79500800D03*
D12*
X153159200Y-82040800D03*
D17*
X153159200Y-84580800D03*
X153159200Y-87120800D03*
X153159200Y-89660800D03*
X153159200Y-92200800D03*
D12*
X153159200Y-94740800D03*
D17*
X153159200Y-97280800D03*
X153159200Y-99820800D03*
X153159200Y-102360800D03*
X153159200Y-104900800D03*
D12*
X153159200Y-107440800D03*
D17*
X153159200Y-109980800D03*
X153159200Y-112520800D03*
X153159200Y-115060800D03*
X153159200Y-117600800D03*
D12*
X153159200Y-120140800D03*
D17*
X153159200Y-122680800D03*
X153159200Y-125220800D03*
D12*
X117660000Y-99500000D03*
D17*
X120200000Y-99500000D03*
D18*
X108300000Y-76200000D03*
D19*
X104800000Y-76200000D03*
D12*
X194500000Y-117800000D03*
D13*
X194500000Y-120340000D03*
X194500000Y-122880000D03*
D20*
X196050000Y-70250000D03*
D21*
X196050000Y-74750000D03*
D22*
X193550000Y-69000000D03*
X193550000Y-76000000D03*
D23*
X120400000Y-52700000D03*
D20*
X196475000Y-104650000D03*
D21*
X196475000Y-109150000D03*
D22*
X193975000Y-103400000D03*
X193975000Y-110400000D03*
D24*
X104985000Y-55015000D03*
D25*
X104985000Y-57555000D03*
D23*
X196350000Y-52850000D03*
D24*
X104900000Y-84160000D03*
D25*
X104900000Y-86700000D03*
D12*
X120300000Y-94000000D03*
D17*
X117760000Y-94000000D03*
D12*
X178152800Y-125170000D03*
D17*
X178152800Y-122630000D03*
X178152800Y-120090000D03*
X178152800Y-117550000D03*
X178152800Y-115010000D03*
X178152800Y-112470000D03*
X178152800Y-109930000D03*
X178152800Y-107390000D03*
X178152800Y-104850000D03*
X178152800Y-102310000D03*
X178152800Y-99770000D03*
X178152800Y-97230000D03*
X178152800Y-94690000D03*
X178152800Y-92150000D03*
X178152800Y-89610000D03*
X178152800Y-87070000D03*
X178152800Y-84530000D03*
X178152800Y-81990000D03*
X178152800Y-79450000D03*
X178152800Y-76910000D03*
D12*
X185900000Y-92150000D03*
D17*
X185900000Y-89610000D03*
X185900000Y-87070000D03*
D12*
X141502050Y-112516000D03*
D17*
X141502050Y-109976000D03*
X141502050Y-107436000D03*
D23*
X196300000Y-128400000D03*
D26*
X115200000Y-64700000D03*
D27*
X109200000Y-64700000D03*
D28*
X112200000Y-69400000D03*
D29*
X194385000Y-84590000D03*
D13*
X196925000Y-84590000D03*
X194385000Y-87130000D03*
X196925000Y-87130000D03*
X194385000Y-89670000D03*
X196925000Y-89670000D03*
X194385000Y-92210000D03*
X196925000Y-92210000D03*
X194385000Y-94750000D03*
X196925000Y-94750000D03*
D20*
X196075000Y-58750000D03*
D21*
X196075000Y-63250000D03*
D22*
X193575000Y-57500000D03*
X193575000Y-64500000D03*
D23*
X125650000Y-128400000D03*
D12*
X198897028Y-122822285D03*
D13*
X198897028Y-120282285D03*
X198897028Y-117742285D03*
X198897028Y-115202285D03*
D12*
X120100000Y-126800000D03*
D17*
X117560000Y-126800000D03*
D12*
X124410000Y-118150000D03*
D17*
X121870000Y-118150000D03*
M02*
