%TF.GenerationSoftware,KiCad,Pcbnew,8.0.5*%
%TF.CreationDate,2024-12-19T23:12:25-05:00*%
%TF.ProjectId,LCC-Pico-Stepper_v2_4,4c43432d-5069-4636-9f2d-537465707065,rev?*%
%TF.SameCoordinates,Original*%
%TF.FileFunction,Drillmap*%
%TF.FilePolarity,Positive*%
%FSLAX45Y45*%
G04 Gerber Fmt 4.5, Leading zero omitted, Abs format (unit mm)*
G04 Created by KiCad (PCBNEW 8.0.5) date 2024-12-19 23:12:25*
%MOMM*%
%LPD*%
G01*
G04 APERTURE LIST*
%ADD10C,0.050000*%
%ADD11C,0.200000*%
%ADD12C,0.100000*%
%ADD13C,0.102000*%
%ADD14C,0.110000*%
%ADD15C,0.130000*%
G04 APERTURE END LIST*
D10*
X10070000Y-13200000D02*
X10070000Y-5000000D01*
X10070000Y-5000000D02*
X20070000Y-5000000D01*
X20070000Y-5000000D02*
X20070000Y-13200000D01*
X20070000Y-13200000D02*
X10070000Y-13200000D01*
D11*
D12*
X10449000Y-10905500D02*
X10489000Y-10945500D01*
X10489000Y-10905500D02*
X10449000Y-10945500D01*
X10779000Y-12375500D02*
X10819000Y-12415500D01*
X10819000Y-12375500D02*
X10779000Y-12415500D01*
X10879000Y-9125500D02*
X10919000Y-9165500D01*
X10919000Y-9125500D02*
X10879000Y-9165500D01*
X11100000Y-7468750D02*
X11140000Y-7508750D01*
X11140000Y-7468750D02*
X11100000Y-7508750D01*
X11100000Y-8200000D02*
X11140000Y-8240000D01*
X11140000Y-8200000D02*
X11100000Y-8240000D01*
X11110000Y-6601250D02*
X11150000Y-6641250D01*
X11150000Y-6601250D02*
X11110000Y-6641250D01*
X11470000Y-8790000D02*
X11510000Y-8830000D01*
X11510000Y-8790000D02*
X11470000Y-8830000D01*
X11750000Y-10632500D02*
X11790000Y-10672500D01*
X11790000Y-10632500D02*
X11750000Y-10672500D01*
X11980000Y-5761250D02*
X12020000Y-5801250D01*
X12020000Y-5761250D02*
X11980000Y-5801250D01*
X12112000Y-7329950D02*
X12152000Y-7369950D01*
X12152000Y-7329950D02*
X12112000Y-7369950D01*
X12112000Y-8262450D02*
X12152000Y-8302450D01*
X12152000Y-8262450D02*
X12112000Y-8302450D01*
X12112850Y-8787450D02*
X12152850Y-8827450D01*
X12152850Y-8787450D02*
X12112850Y-8827450D01*
X12180000Y-10215000D02*
X12220000Y-10255000D01*
X12220000Y-10215000D02*
X12180000Y-10255000D01*
X12295000Y-7683700D02*
X12335000Y-7723700D01*
X12335000Y-7683700D02*
X12295000Y-7723700D01*
X12295000Y-7783700D02*
X12335000Y-7823700D01*
X12335000Y-7783700D02*
X12295000Y-7823700D01*
X12295000Y-7893700D02*
X12335000Y-7933700D01*
X12335000Y-7893700D02*
X12295000Y-7933700D01*
X12385000Y-7683700D02*
X12425000Y-7723700D01*
X12425000Y-7683700D02*
X12385000Y-7723700D01*
X12385000Y-7783700D02*
X12425000Y-7823700D01*
X12425000Y-7783700D02*
X12385000Y-7823700D01*
X12385000Y-7893700D02*
X12425000Y-7933700D01*
X12425000Y-7893700D02*
X12385000Y-7933700D01*
X12525000Y-7723700D02*
X12565000Y-7763700D01*
X12565000Y-7723700D02*
X12525000Y-7763700D01*
X12525000Y-7873700D02*
X12565000Y-7913700D01*
X12565000Y-7873700D02*
X12525000Y-7913700D01*
X12597500Y-7796200D02*
X12637500Y-7836200D01*
X12637500Y-7796200D02*
X12597500Y-7836200D01*
X12665000Y-7723700D02*
X12705000Y-7763700D01*
X12705000Y-7723700D02*
X12665000Y-7763700D01*
X12665000Y-7873700D02*
X12705000Y-7913700D01*
X12705000Y-7873700D02*
X12665000Y-7913700D01*
X12680000Y-11250000D02*
X12720000Y-11290000D01*
X12720000Y-11250000D02*
X12680000Y-11290000D01*
X12680000Y-11631000D02*
X12720000Y-11671000D01*
X12720000Y-11631000D02*
X12680000Y-11671000D01*
X12805000Y-7693700D02*
X12845000Y-7733700D01*
X12845000Y-7693700D02*
X12805000Y-7733700D01*
X12805000Y-7793700D02*
X12845000Y-7833700D01*
X12845000Y-7793700D02*
X12805000Y-7833700D01*
X12805000Y-7903700D02*
X12845000Y-7943700D01*
X12845000Y-7903700D02*
X12805000Y-7943700D01*
X12915000Y-7693700D02*
X12955000Y-7733700D01*
X12955000Y-7693700D02*
X12915000Y-7733700D01*
X12915000Y-7793700D02*
X12955000Y-7833700D01*
X12955000Y-7793700D02*
X12915000Y-7833700D01*
X12915000Y-7903700D02*
X12955000Y-7943700D01*
X12955000Y-7903700D02*
X12915000Y-7943700D01*
X13025000Y-7693700D02*
X13065000Y-7733700D01*
X13065000Y-7693700D02*
X13025000Y-7733700D01*
X13025000Y-7793700D02*
X13065000Y-7833700D01*
X13065000Y-7793700D02*
X13025000Y-7833700D01*
X13025000Y-7903700D02*
X13065000Y-7943700D01*
X13065000Y-7903700D02*
X13025000Y-7943700D01*
X13040000Y-8920000D02*
X13080000Y-8960000D01*
X13080000Y-8920000D02*
X13040000Y-8960000D01*
X13073750Y-10580000D02*
X13113750Y-10620000D01*
X13113750Y-10580000D02*
X13073750Y-10620000D01*
X13213750Y-6578500D02*
X13253750Y-6618500D01*
X13253750Y-6578500D02*
X13213750Y-6618500D01*
X13220000Y-10996000D02*
X13260000Y-11036000D01*
X13260000Y-10996000D02*
X13220000Y-11036000D01*
X13220000Y-11123000D02*
X13260000Y-11163000D01*
X13260000Y-11123000D02*
X13220000Y-11163000D01*
X13220000Y-11250000D02*
X13260000Y-11290000D01*
X13260000Y-11250000D02*
X13220000Y-11290000D01*
X13220000Y-11377000D02*
X13260000Y-11417000D01*
X13260000Y-11377000D02*
X13220000Y-11417000D01*
X13360000Y-10296250D02*
X13400000Y-10336250D01*
X13400000Y-10296250D02*
X13360000Y-10336250D01*
X13521250Y-8396700D02*
X13561250Y-8436700D01*
X13561250Y-8396700D02*
X13521250Y-8436700D01*
X13525000Y-7223700D02*
X13565000Y-7263700D01*
X13565000Y-7223700D02*
X13525000Y-7263700D01*
X13525000Y-7823700D02*
X13565000Y-7863700D01*
X13565000Y-7823700D02*
X13525000Y-7863700D01*
X13529250Y-7523700D02*
X13569250Y-7563700D01*
X13569250Y-7523700D02*
X13529250Y-7563700D01*
X14430000Y-7830000D02*
X14470000Y-7870000D01*
X14470000Y-7830000D02*
X14430000Y-7870000D01*
X14450000Y-6905000D02*
X14490000Y-6945000D01*
X14490000Y-6905000D02*
X14450000Y-6945000D01*
X14693660Y-6639910D02*
X14733660Y-6679910D01*
X14733660Y-6639910D02*
X14693660Y-6679910D01*
X15303750Y-7250000D02*
X15343750Y-7290000D01*
X15343750Y-7250000D02*
X15303750Y-7290000D01*
X15340000Y-6860000D02*
X15380000Y-6900000D01*
X15380000Y-6860000D02*
X15340000Y-6900000D01*
X15497500Y-8240500D02*
X15537500Y-8280500D01*
X15537500Y-8240500D02*
X15497500Y-8280500D01*
X15600000Y-6860000D02*
X15640000Y-6900000D01*
X15640000Y-6860000D02*
X15600000Y-6900000D01*
X17970000Y-7500000D02*
X18010000Y-7540000D01*
X18010000Y-7500000D02*
X17970000Y-7540000D01*
X18735360Y-10686100D02*
X18775360Y-10726100D01*
X18775360Y-10686100D02*
X18735360Y-10726100D01*
X18765840Y-10957880D02*
X18805840Y-10997880D01*
X18805840Y-10957880D02*
X18765840Y-10997880D01*
X11385265Y-7930000D02*
G75*
G02*
X11305265Y-7930000I-40000J0D01*
G01*
X11305265Y-7930000D02*
G75*
G02*
X11385265Y-7930000I40000J0D01*
G01*
X11735265Y-7930000D02*
G75*
G02*
X11655265Y-7930000I-40000J0D01*
G01*
X11655265Y-7930000D02*
G75*
G02*
X11735265Y-7930000I40000J0D01*
G01*
X16971640Y-6483080D02*
G75*
G02*
X16891640Y-6483080I-40000J0D01*
G01*
X16891640Y-6483080D02*
G75*
G02*
X16971640Y-6483080I40000J0D01*
G01*
X16971640Y-7753080D02*
G75*
G02*
X16891640Y-7753080I-40000J0D01*
G01*
X16891640Y-7753080D02*
G75*
G02*
X16971640Y-7753080I40000J0D01*
G01*
X17225640Y-6483080D02*
G75*
G02*
X17145640Y-6483080I-40000J0D01*
G01*
X17145640Y-6483080D02*
G75*
G02*
X17225640Y-6483080I40000J0D01*
G01*
X17225640Y-7753080D02*
G75*
G02*
X17145640Y-7753080I-40000J0D01*
G01*
X17145640Y-7753080D02*
G75*
G02*
X17225640Y-7753080I40000J0D01*
G01*
X17479640Y-6483080D02*
G75*
G02*
X17399640Y-6483080I-40000J0D01*
G01*
X17399640Y-6483080D02*
G75*
G02*
X17479640Y-6483080I40000J0D01*
G01*
X17479640Y-7753080D02*
G75*
G02*
X17399640Y-7753080I-40000J0D01*
G01*
X17399640Y-7753080D02*
G75*
G02*
X17479640Y-7753080I40000J0D01*
G01*
X17733640Y-6483080D02*
G75*
G02*
X17653640Y-6483080I-40000J0D01*
G01*
X17653640Y-6483080D02*
G75*
G02*
X17733640Y-6483080I40000J0D01*
G01*
X17733640Y-7753080D02*
G75*
G02*
X17653640Y-7753080I-40000J0D01*
G01*
X17653640Y-7753080D02*
G75*
G02*
X17733640Y-7753080I40000J0D01*
G01*
X17987640Y-6483080D02*
G75*
G02*
X17907640Y-6483080I-40000J0D01*
G01*
X17907640Y-6483080D02*
G75*
G02*
X17987640Y-6483080I40000J0D01*
G01*
X17987640Y-7753080D02*
G75*
G02*
X17907640Y-7753080I-40000J0D01*
G01*
X17907640Y-7753080D02*
G75*
G02*
X17987640Y-7753080I40000J0D01*
G01*
X18241640Y-6483080D02*
G75*
G02*
X18161640Y-6483080I-40000J0D01*
G01*
X18161640Y-6483080D02*
G75*
G02*
X18241640Y-6483080I40000J0D01*
G01*
X18241640Y-7753080D02*
G75*
G02*
X18161640Y-7753080I-40000J0D01*
G01*
X18161640Y-7753080D02*
G75*
G02*
X18241640Y-7753080I40000J0D01*
G01*
X18495640Y-6483080D02*
G75*
G02*
X18415640Y-6483080I-40000J0D01*
G01*
X18415640Y-6483080D02*
G75*
G02*
X18495640Y-6483080I40000J0D01*
G01*
X18495640Y-7753080D02*
G75*
G02*
X18415640Y-7753080I-40000J0D01*
G01*
X18415640Y-7753080D02*
G75*
G02*
X18495640Y-7753080I40000J0D01*
G01*
X18749640Y-6483080D02*
G75*
G02*
X18669640Y-6483080I-40000J0D01*
G01*
X18669640Y-6483080D02*
G75*
G02*
X18749640Y-6483080I40000J0D01*
G01*
X18749640Y-7753080D02*
G75*
G02*
X18669640Y-7753080I-40000J0D01*
G01*
X18669640Y-7753080D02*
G75*
G02*
X18749640Y-7753080I40000J0D01*
G01*
X11071000Y-9426000D02*
X11071000Y-9516000D01*
X11026000Y-9471000D02*
X11116000Y-9471000D01*
X11071000Y-9680000D02*
X11071000Y-9770000D01*
X11026000Y-9725000D02*
X11116000Y-9725000D01*
X11071000Y-9934000D02*
X11071000Y-10024000D01*
X11026000Y-9979000D02*
X11116000Y-9979000D01*
X11071000Y-10188000D02*
X11071000Y-10278000D01*
X11026000Y-10233000D02*
X11116000Y-10233000D01*
X11071000Y-11446000D02*
X11071000Y-11536000D01*
X11026000Y-11491000D02*
X11116000Y-11491000D01*
X11071000Y-11700000D02*
X11071000Y-11790000D01*
X11026000Y-11745000D02*
X11116000Y-11745000D01*
X11071000Y-11954000D02*
X11071000Y-12044000D01*
X11026000Y-11999000D02*
X11116000Y-11999000D01*
X11071000Y-12208000D02*
X11071000Y-12298000D01*
X11026000Y-12253000D02*
X11116000Y-12253000D01*
X11325000Y-9553000D02*
X11325000Y-9643000D01*
X11280000Y-9598000D02*
X11370000Y-9598000D01*
X11325000Y-9807000D02*
X11325000Y-9897000D01*
X11280000Y-9852000D02*
X11370000Y-9852000D01*
X11325000Y-10061000D02*
X11325000Y-10151000D01*
X11280000Y-10106000D02*
X11370000Y-10106000D01*
X11325000Y-10315000D02*
X11325000Y-10405000D01*
X11280000Y-10360000D02*
X11370000Y-10360000D01*
X11325000Y-11573000D02*
X11325000Y-11663000D01*
X11280000Y-11618000D02*
X11370000Y-11618000D01*
X11325000Y-11827000D02*
X11325000Y-11917000D01*
X11280000Y-11872000D02*
X11370000Y-11872000D01*
X11325000Y-12081000D02*
X11325000Y-12171000D01*
X11280000Y-12126000D02*
X11370000Y-12126000D01*
X11325000Y-12335000D02*
X11325000Y-12425000D01*
X11280000Y-12380000D02*
X11370000Y-12380000D01*
X10562856Y-8110356D02*
X10562856Y-8039644D01*
X10492144Y-8039644D01*
X10492144Y-8110356D01*
X10562856Y-8110356D01*
X10562856Y-8560356D02*
X10562856Y-8489644D01*
X10492144Y-8489644D01*
X10492144Y-8560356D01*
X10562856Y-8560356D01*
X10825356Y-5835356D02*
X10825356Y-5764644D01*
X10754644Y-5764644D01*
X10754644Y-5835356D01*
X10825356Y-5835356D01*
X10740000Y-5700000D02*
X10740000Y-5900000D01*
X10840000Y-5900000D02*
G75*
G02*
X10740000Y-5900000I-50000J0D01*
G01*
X10840000Y-5900000D02*
X10840000Y-5700000D01*
X10840000Y-5700000D02*
G75*
G03*
X10740000Y-5700000I-50000J0D01*
G01*
X11125356Y-6305356D02*
X11125356Y-6234644D01*
X11054644Y-6234644D01*
X11054644Y-6305356D01*
X11125356Y-6305356D01*
X10990000Y-6320000D02*
X11190000Y-6320000D01*
X11190000Y-6220000D02*
G75*
G02*
X11190000Y-6320000I0J-50000D01*
G01*
X11190000Y-6220000D02*
X10990000Y-6220000D01*
X10990000Y-6220000D02*
G75*
G03*
X10990000Y-6320000I0J-50000D01*
G01*
X11425356Y-5835356D02*
X11425356Y-5764644D01*
X11354644Y-5764644D01*
X11354644Y-5835356D01*
X11425356Y-5835356D01*
X11340000Y-5700000D02*
X11340000Y-5900000D01*
X11440000Y-5900000D02*
G75*
G02*
X11340000Y-5900000I-50000J0D01*
G01*
X11440000Y-5900000D02*
X11440000Y-5700000D01*
X11440000Y-5700000D02*
G75*
G03*
X11340000Y-5700000I-50000J0D01*
G01*
X11791356Y-12715356D02*
X11791356Y-12644644D01*
X11720644Y-12644644D01*
X11720644Y-12715356D01*
X11791356Y-12715356D01*
X11801356Y-9985356D02*
X11801356Y-9914644D01*
X11730644Y-9914644D01*
X11730644Y-9985356D01*
X11801356Y-9985356D01*
X11801356Y-11825356D02*
X11801356Y-11754644D01*
X11730644Y-11754644D01*
X11730644Y-11825356D01*
X11801356Y-11825356D01*
X11805356Y-12215356D02*
X11805356Y-12144644D01*
X11734644Y-12144644D01*
X11734644Y-12215356D01*
X11805356Y-12215356D01*
X11811356Y-9435356D02*
X11811356Y-9364644D01*
X11740644Y-9364644D01*
X11740644Y-9435356D01*
X11811356Y-9435356D01*
X12045356Y-12715356D02*
X12045356Y-12644644D01*
X11974644Y-12644644D01*
X11974644Y-12715356D01*
X12045356Y-12715356D01*
X12055356Y-9985356D02*
X12055356Y-9914644D01*
X11984644Y-9914644D01*
X11984644Y-9985356D01*
X12055356Y-9985356D01*
X12055356Y-11825356D02*
X12055356Y-11754644D01*
X11984644Y-11754644D01*
X11984644Y-11825356D01*
X12055356Y-11825356D01*
X12059356Y-12215356D02*
X12059356Y-12144644D01*
X11988644Y-12144644D01*
X11988644Y-12215356D01*
X12059356Y-12215356D01*
X12065356Y-9435356D02*
X12065356Y-9364644D01*
X11994644Y-9364644D01*
X11994644Y-9435356D01*
X12065356Y-9435356D01*
X12575356Y-5785356D02*
X12575356Y-5714644D01*
X12504644Y-5714644D01*
X12504644Y-5785356D01*
X12575356Y-5785356D01*
X13025356Y-5785356D02*
X13025356Y-5714644D01*
X12954644Y-5714644D01*
X12954644Y-5785356D01*
X13025356Y-5785356D01*
X13700356Y-5782856D02*
X13700356Y-5712144D01*
X13629644Y-5712144D01*
X13629644Y-5782856D01*
X13700356Y-5782856D01*
X13722416Y-8985865D02*
X13722416Y-8915154D01*
X13651704Y-8915154D01*
X13651704Y-8985865D01*
X13722416Y-8985865D01*
X13725956Y-12290431D02*
X13725956Y-12219719D01*
X13655244Y-12219719D01*
X13655244Y-12290431D01*
X13725956Y-12290431D01*
X13976416Y-8985865D02*
X13976416Y-8915154D01*
X13905704Y-8915154D01*
X13905704Y-8985865D01*
X13976416Y-8985865D01*
X13979956Y-12290431D02*
X13979956Y-12219719D01*
X13909244Y-12219719D01*
X13909244Y-12290431D01*
X13979956Y-12290431D01*
X14150356Y-5782856D02*
X14150356Y-5712144D01*
X14079644Y-5712144D01*
X14079644Y-5782856D01*
X14150356Y-5782856D01*
X14230416Y-8985865D02*
X14230416Y-8915154D01*
X14159704Y-8915154D01*
X14159704Y-8985865D01*
X14230416Y-8985865D01*
X14233956Y-12290431D02*
X14233956Y-12219719D01*
X14163244Y-12219719D01*
X14163244Y-12290431D01*
X14233956Y-12290431D01*
X14484416Y-8985865D02*
X14484416Y-8915154D01*
X14413704Y-8915154D01*
X14413704Y-8985865D01*
X14484416Y-8985865D01*
X14487956Y-12290431D02*
X14487956Y-12219719D01*
X14417244Y-12219719D01*
X14417244Y-12290431D01*
X14487956Y-12290431D01*
X14738416Y-8985865D02*
X14738416Y-8915154D01*
X14667704Y-8915154D01*
X14667704Y-8985865D01*
X14738416Y-8985865D01*
X14740456Y-12709956D02*
X14740456Y-12639244D01*
X14669744Y-12639244D01*
X14669744Y-12709956D01*
X14740456Y-12709956D01*
X14741956Y-12290431D02*
X14741956Y-12219719D01*
X14671244Y-12219719D01*
X14671244Y-12290431D01*
X14741956Y-12290431D01*
X14991356Y-8625356D02*
X14991356Y-8554644D01*
X14920644Y-8554644D01*
X14920644Y-8625356D01*
X14991356Y-8625356D01*
X14992416Y-8985865D02*
X14992416Y-8915154D01*
X14921704Y-8915154D01*
X14921704Y-8985865D01*
X14992416Y-8985865D01*
X14994456Y-12709956D02*
X14994456Y-12639244D01*
X14923744Y-12639244D01*
X14923744Y-12709956D01*
X14994456Y-12709956D01*
X14995956Y-12290431D02*
X14995956Y-12219719D01*
X14925244Y-12219719D01*
X14925244Y-12290431D01*
X14995956Y-12290431D01*
X15051836Y-5730036D02*
X15051836Y-5659324D01*
X14981124Y-5659324D01*
X14981124Y-5730036D01*
X15051836Y-5730036D01*
X15051836Y-5984036D02*
X15051836Y-5913324D01*
X14981124Y-5913324D01*
X14981124Y-5984036D01*
X15051836Y-5984036D01*
X15245356Y-8625356D02*
X15245356Y-8554644D01*
X15174644Y-8554644D01*
X15174644Y-8625356D01*
X15245356Y-8625356D01*
X15246416Y-8985865D02*
X15246416Y-8915154D01*
X15175704Y-8915154D01*
X15175704Y-8985865D01*
X15246416Y-8985865D01*
X15248456Y-12709956D02*
X15248456Y-12639244D01*
X15177744Y-12639244D01*
X15177744Y-12709956D01*
X15248456Y-12709956D01*
X15249956Y-12290431D02*
X15249956Y-12219719D01*
X15179244Y-12219719D01*
X15179244Y-12290431D01*
X15249956Y-12290431D01*
X15305836Y-5730036D02*
X15305836Y-5659324D01*
X15235124Y-5659324D01*
X15235124Y-5730036D01*
X15305836Y-5730036D01*
X15305836Y-5984036D02*
X15305836Y-5913324D01*
X15235124Y-5913324D01*
X15235124Y-5984036D01*
X15305836Y-5984036D01*
X15499356Y-8625356D02*
X15499356Y-8554644D01*
X15428644Y-8554644D01*
X15428644Y-8625356D01*
X15499356Y-8625356D01*
X15500416Y-8985865D02*
X15500416Y-8915154D01*
X15429704Y-8915154D01*
X15429704Y-8985865D01*
X15500416Y-8985865D01*
X15503956Y-12290431D02*
X15503956Y-12219719D01*
X15433244Y-12219719D01*
X15433244Y-12290431D01*
X15503956Y-12290431D01*
X15559836Y-5730036D02*
X15559836Y-5659324D01*
X15489124Y-5659324D01*
X15489124Y-5730036D01*
X15559836Y-5730036D01*
X15559836Y-5984036D02*
X15559836Y-5913324D01*
X15489124Y-5913324D01*
X15489124Y-5984036D01*
X15559836Y-5984036D01*
X15754416Y-8985865D02*
X15754416Y-8915154D01*
X15683704Y-8915154D01*
X15683704Y-8985865D01*
X15754416Y-8985865D01*
X15757956Y-12290431D02*
X15757956Y-12219719D01*
X15687244Y-12219719D01*
X15687244Y-12290431D01*
X15757956Y-12290431D01*
X15757956Y-12544431D02*
X15757956Y-12473719D01*
X15687244Y-12473719D01*
X15687244Y-12544431D01*
X15757956Y-12544431D01*
X15757956Y-12798431D02*
X15757956Y-12727719D01*
X15687244Y-12727719D01*
X15687244Y-12798431D01*
X15757956Y-12798431D01*
X15813836Y-5730036D02*
X15813836Y-5659324D01*
X15743124Y-5659324D01*
X15743124Y-5730036D01*
X15813836Y-5730036D01*
X15813836Y-5984036D02*
X15813836Y-5913324D01*
X15743124Y-5913324D01*
X15743124Y-5984036D01*
X15813836Y-5984036D01*
X16008416Y-8985865D02*
X16008416Y-8915154D01*
X15937704Y-8915154D01*
X15937704Y-8985865D01*
X16008416Y-8985865D01*
X16011956Y-12290431D02*
X16011956Y-12219719D01*
X15941244Y-12219719D01*
X15941244Y-12290431D01*
X16011956Y-12290431D01*
X16011956Y-12544431D02*
X16011956Y-12473719D01*
X15941244Y-12473719D01*
X15941244Y-12544431D01*
X16011956Y-12544431D01*
X16011956Y-12798431D02*
X16011956Y-12727719D01*
X15941244Y-12727719D01*
X15941244Y-12798431D01*
X16011956Y-12798431D01*
X16067836Y-5730036D02*
X16067836Y-5659324D01*
X15997124Y-5659324D01*
X15997124Y-5730036D01*
X16067836Y-5730036D01*
X16067836Y-5984036D02*
X16067836Y-5913324D01*
X15997124Y-5913324D01*
X15997124Y-5984036D01*
X16067836Y-5984036D01*
X16262416Y-8985865D02*
X16262416Y-8915154D01*
X16191704Y-8915154D01*
X16191704Y-8985865D01*
X16262416Y-8985865D01*
X16265956Y-12290431D02*
X16265956Y-12219719D01*
X16195244Y-12219719D01*
X16195244Y-12290431D01*
X16265956Y-12290431D01*
X16265956Y-12544431D02*
X16265956Y-12473719D01*
X16195244Y-12473719D01*
X16195244Y-12544431D01*
X16265956Y-12544431D01*
X16265956Y-12798431D02*
X16265956Y-12727719D01*
X16195244Y-12727719D01*
X16195244Y-12798431D01*
X16265956Y-12798431D01*
X16418356Y-6801916D02*
X16418356Y-6731204D01*
X16347644Y-6731204D01*
X16347644Y-6801916D01*
X16418356Y-6801916D01*
X16418356Y-7055916D02*
X16418356Y-6985204D01*
X16347644Y-6985204D01*
X16347644Y-7055916D01*
X16418356Y-7055916D01*
X16418356Y-7309916D02*
X16418356Y-7239204D01*
X16347644Y-7239204D01*
X16347644Y-7309916D01*
X16418356Y-7309916D01*
X16418356Y-7563916D02*
X16418356Y-7493204D01*
X16347644Y-7493204D01*
X16347644Y-7563916D01*
X16418356Y-7563916D01*
X16516416Y-8985865D02*
X16516416Y-8915154D01*
X16445704Y-8915154D01*
X16445704Y-8985865D01*
X16516416Y-8985865D01*
X16519956Y-12290431D02*
X16519956Y-12219719D01*
X16449244Y-12219719D01*
X16449244Y-12290431D01*
X16519956Y-12290431D01*
X16519956Y-12544431D02*
X16519956Y-12473719D01*
X16449244Y-12473719D01*
X16449244Y-12544431D01*
X16519956Y-12544431D01*
X16519956Y-12798431D02*
X16519956Y-12727719D01*
X16449244Y-12727719D01*
X16449244Y-12798431D01*
X16519956Y-12798431D01*
X16770416Y-8985865D02*
X16770416Y-8915154D01*
X16699704Y-8915154D01*
X16699704Y-8985865D01*
X16770416Y-8985865D01*
X16773956Y-12290431D02*
X16773956Y-12219719D01*
X16703244Y-12219719D01*
X16703244Y-12290431D01*
X16773956Y-12290431D01*
X17024416Y-8985865D02*
X17024416Y-8915154D01*
X16953704Y-8915154D01*
X16953704Y-8985865D01*
X17024416Y-8985865D01*
X17027956Y-12290431D02*
X17027956Y-12219719D01*
X16957244Y-12219719D01*
X16957244Y-12290431D01*
X17027956Y-12290431D01*
X17027956Y-12544431D02*
X17027956Y-12473719D01*
X16957244Y-12473719D01*
X16957244Y-12544431D01*
X17027956Y-12544431D01*
X17027956Y-12798431D02*
X17027956Y-12727719D01*
X16957244Y-12727719D01*
X16957244Y-12798431D01*
X17027956Y-12798431D01*
X17216416Y-8356896D02*
X17216416Y-8286184D01*
X17145704Y-8286184D01*
X17145704Y-8356896D01*
X17216416Y-8356896D01*
X17216416Y-8610896D02*
X17216416Y-8540184D01*
X17145704Y-8540184D01*
X17145704Y-8610896D01*
X17216416Y-8610896D01*
X17278416Y-8985865D02*
X17278416Y-8915154D01*
X17207704Y-8915154D01*
X17207704Y-8985865D01*
X17278416Y-8985865D01*
X17281956Y-12290431D02*
X17281956Y-12219719D01*
X17211244Y-12219719D01*
X17211244Y-12290431D01*
X17281956Y-12290431D01*
X17281956Y-12544431D02*
X17281956Y-12473719D01*
X17211244Y-12473719D01*
X17211244Y-12544431D01*
X17281956Y-12544431D01*
X17281956Y-12798431D02*
X17281956Y-12727719D01*
X17211244Y-12727719D01*
X17211244Y-12798431D01*
X17281956Y-12798431D01*
X17358156Y-5724956D02*
X17358156Y-5654244D01*
X17287444Y-5654244D01*
X17287444Y-5724956D01*
X17358156Y-5724956D01*
X17358156Y-5978956D02*
X17358156Y-5908244D01*
X17287444Y-5908244D01*
X17287444Y-5978956D01*
X17358156Y-5978956D01*
X17470416Y-8356896D02*
X17470416Y-8286184D01*
X17399704Y-8286184D01*
X17399704Y-8356896D01*
X17470416Y-8356896D01*
X17470416Y-8610896D02*
X17470416Y-8540184D01*
X17399704Y-8540184D01*
X17399704Y-8610896D01*
X17470416Y-8610896D01*
X17532416Y-8985865D02*
X17532416Y-8915154D01*
X17461704Y-8915154D01*
X17461704Y-8985865D01*
X17532416Y-8985865D01*
X17535956Y-12290431D02*
X17535956Y-12219719D01*
X17465244Y-12219719D01*
X17465244Y-12290431D01*
X17535956Y-12290431D01*
X17535956Y-12544431D02*
X17535956Y-12473719D01*
X17465244Y-12473719D01*
X17465244Y-12544431D01*
X17535956Y-12544431D01*
X17535956Y-12798431D02*
X17535956Y-12727719D01*
X17465244Y-12727719D01*
X17465244Y-12798431D01*
X17535956Y-12798431D01*
X17612156Y-5724956D02*
X17612156Y-5654244D01*
X17541444Y-5654244D01*
X17541444Y-5724956D01*
X17612156Y-5724956D01*
X17612156Y-5978956D02*
X17612156Y-5908244D01*
X17541444Y-5908244D01*
X17541444Y-5978956D01*
X17612156Y-5978956D01*
X17724416Y-8356896D02*
X17724416Y-8286184D01*
X17653704Y-8286184D01*
X17653704Y-8356896D01*
X17724416Y-8356896D01*
X17724416Y-8610896D02*
X17724416Y-8540184D01*
X17653704Y-8540184D01*
X17653704Y-8610896D01*
X17724416Y-8610896D01*
X17786416Y-8985865D02*
X17786416Y-8915154D01*
X17715704Y-8915154D01*
X17715704Y-8985865D01*
X17786416Y-8985865D01*
X17789956Y-12290431D02*
X17789956Y-12219719D01*
X17719244Y-12219719D01*
X17719244Y-12290431D01*
X17789956Y-12290431D01*
X17789956Y-12544431D02*
X17789956Y-12473719D01*
X17719244Y-12473719D01*
X17719244Y-12544431D01*
X17789956Y-12544431D01*
X17789956Y-12798431D02*
X17789956Y-12727719D01*
X17719244Y-12727719D01*
X17719244Y-12798431D01*
X17789956Y-12798431D01*
X17866156Y-5724956D02*
X17866156Y-5654244D01*
X17795444Y-5654244D01*
X17795444Y-5724956D01*
X17866156Y-5724956D01*
X17866156Y-5978956D02*
X17866156Y-5908244D01*
X17795444Y-5908244D01*
X17795444Y-5978956D01*
X17866156Y-5978956D01*
X17978416Y-8356896D02*
X17978416Y-8286184D01*
X17907704Y-8286184D01*
X17907704Y-8356896D01*
X17978416Y-8356896D01*
X17978416Y-8610896D02*
X17978416Y-8540184D01*
X17907704Y-8540184D01*
X17907704Y-8610896D01*
X17978416Y-8610896D01*
X18040416Y-8985865D02*
X18040416Y-8915154D01*
X17969704Y-8915154D01*
X17969704Y-8985865D01*
X18040416Y-8985865D01*
X18043956Y-12290431D02*
X18043956Y-12219719D01*
X17973244Y-12219719D01*
X17973244Y-12290431D01*
X18043956Y-12290431D01*
X18120156Y-5724956D02*
X18120156Y-5654244D01*
X18049444Y-5654244D01*
X18049444Y-5724956D01*
X18120156Y-5724956D01*
X18120156Y-5978956D02*
X18120156Y-5908244D01*
X18049444Y-5908244D01*
X18049444Y-5978956D01*
X18120156Y-5978956D01*
X18232416Y-8356896D02*
X18232416Y-8286184D01*
X18161704Y-8286184D01*
X18161704Y-8356896D01*
X18232416Y-8356896D01*
X18232416Y-8610896D02*
X18232416Y-8540184D01*
X18161704Y-8540184D01*
X18161704Y-8610896D01*
X18232416Y-8610896D01*
X18272556Y-12709956D02*
X18272556Y-12639244D01*
X18201844Y-12639244D01*
X18201844Y-12709956D01*
X18272556Y-12709956D01*
X18294416Y-8985865D02*
X18294416Y-8915154D01*
X18223704Y-8915154D01*
X18223704Y-8985865D01*
X18294416Y-8985865D01*
X18297956Y-12290431D02*
X18297956Y-12219719D01*
X18227244Y-12219719D01*
X18227244Y-12290431D01*
X18297956Y-12290431D01*
X18374156Y-5724956D02*
X18374156Y-5654244D01*
X18303444Y-5654244D01*
X18303444Y-5724956D01*
X18374156Y-5724956D01*
X18374156Y-5978956D02*
X18374156Y-5908244D01*
X18303444Y-5908244D01*
X18303444Y-5978956D01*
X18374156Y-5978956D01*
X18526556Y-12709956D02*
X18526556Y-12639244D01*
X18455844Y-12639244D01*
X18455844Y-12709956D01*
X18526556Y-12709956D01*
X18548416Y-8985865D02*
X18548416Y-8915154D01*
X18477704Y-8915154D01*
X18477704Y-8985865D01*
X18548416Y-8985865D01*
X18551956Y-12290431D02*
X18551956Y-12219719D01*
X18481244Y-12219719D01*
X18481244Y-12290431D01*
X18551956Y-12290431D01*
X18780556Y-12709956D02*
X18780556Y-12639244D01*
X18709844Y-12639244D01*
X18709844Y-12709956D01*
X18780556Y-12709956D01*
X19209816Y-6700316D02*
X19209816Y-6629604D01*
X19139104Y-6629604D01*
X19139104Y-6700316D01*
X19209816Y-6700316D01*
X19364756Y-7502956D02*
X19364756Y-7432244D01*
X19294044Y-7432244D01*
X19294044Y-7502956D01*
X19364756Y-7502956D01*
X19364756Y-7756956D02*
X19364756Y-7686244D01*
X19294044Y-7686244D01*
X19294044Y-7756956D01*
X19364756Y-7756956D01*
X19364756Y-8010956D02*
X19364756Y-7940244D01*
X19294044Y-7940244D01*
X19294044Y-8010956D01*
X19364756Y-8010956D01*
X19364756Y-8264956D02*
X19364756Y-8194244D01*
X19294044Y-8194244D01*
X19294044Y-8264956D01*
X19364756Y-8264956D01*
X19364756Y-8518956D02*
X19364756Y-8448244D01*
X19294044Y-8448244D01*
X19294044Y-8518956D01*
X19364756Y-8518956D01*
X19364756Y-8772956D02*
X19364756Y-8702244D01*
X19294044Y-8702244D01*
X19294044Y-8772956D01*
X19364756Y-8772956D01*
X19364756Y-9026956D02*
X19364756Y-8956244D01*
X19294044Y-8956244D01*
X19294044Y-9026956D01*
X19364756Y-9026956D01*
X19364756Y-9280956D02*
X19364756Y-9210244D01*
X19294044Y-9210244D01*
X19294044Y-9280956D01*
X19364756Y-9280956D01*
X19364756Y-9534956D02*
X19364756Y-9464244D01*
X19294044Y-9464244D01*
X19294044Y-9534956D01*
X19364756Y-9534956D01*
X19364756Y-9788956D02*
X19364756Y-9718244D01*
X19294044Y-9718244D01*
X19294044Y-9788956D01*
X19364756Y-9788956D01*
X19364756Y-10042956D02*
X19364756Y-9972244D01*
X19294044Y-9972244D01*
X19294044Y-10042956D01*
X19364756Y-10042956D01*
X19364756Y-10296956D02*
X19364756Y-10226244D01*
X19294044Y-10226244D01*
X19294044Y-10296956D01*
X19364756Y-10296956D01*
X19364756Y-10550956D02*
X19364756Y-10480244D01*
X19294044Y-10480244D01*
X19294044Y-10550956D01*
X19364756Y-10550956D01*
X19364756Y-10804956D02*
X19364756Y-10734244D01*
X19294044Y-10734244D01*
X19294044Y-10804956D01*
X19364756Y-10804956D01*
X19364756Y-11058956D02*
X19364756Y-10988244D01*
X19294044Y-10988244D01*
X19294044Y-11058956D01*
X19364756Y-11058956D01*
X19364756Y-11312956D02*
X19364756Y-11242244D01*
X19294044Y-11242244D01*
X19294044Y-11312956D01*
X19364756Y-11312956D01*
X19364756Y-11566956D02*
X19364756Y-11496244D01*
X19294044Y-11496244D01*
X19294044Y-11566956D01*
X19364756Y-11566956D01*
X19364756Y-11820956D02*
X19364756Y-11750244D01*
X19294044Y-11750244D01*
X19294044Y-11820956D01*
X19364756Y-11820956D01*
X19364756Y-12074956D02*
X19364756Y-12004244D01*
X19294044Y-12004244D01*
X19294044Y-12074956D01*
X19364756Y-12074956D01*
X19364756Y-12328956D02*
X19364756Y-12258244D01*
X19294044Y-12258244D01*
X19294044Y-12328956D01*
X19364756Y-12328956D01*
X19463816Y-6700316D02*
X19463816Y-6629604D01*
X19393104Y-6629604D01*
X19393104Y-6700316D01*
X19463816Y-6700316D01*
X19465356Y-5515676D02*
X19465356Y-5444964D01*
X19394644Y-5444964D01*
X19394644Y-5515676D01*
X19465356Y-5515676D01*
X19465356Y-5769676D02*
X19465356Y-5698964D01*
X19394644Y-5698964D01*
X19394644Y-5769676D01*
X19465356Y-5769676D01*
X19465356Y-6023676D02*
X19465356Y-5952964D01*
X19394644Y-5952964D01*
X19394644Y-6023676D01*
X19465356Y-6023676D01*
X19465356Y-6277676D02*
X19465356Y-6206964D01*
X19394644Y-6206964D01*
X19394644Y-6277676D01*
X19465356Y-6277676D01*
X19618756Y-7502956D02*
X19618756Y-7432244D01*
X19548044Y-7432244D01*
X19548044Y-7502956D01*
X19618756Y-7502956D01*
X19618756Y-7756956D02*
X19618756Y-7686244D01*
X19548044Y-7686244D01*
X19548044Y-7756956D01*
X19618756Y-7756956D01*
X19618756Y-8010956D02*
X19618756Y-7940244D01*
X19548044Y-7940244D01*
X19548044Y-8010956D01*
X19618756Y-8010956D01*
X19618756Y-8264956D02*
X19618756Y-8194244D01*
X19548044Y-8194244D01*
X19548044Y-8264956D01*
X19618756Y-8264956D01*
X19618756Y-8518956D02*
X19618756Y-8448244D01*
X19548044Y-8448244D01*
X19548044Y-8518956D01*
X19618756Y-8518956D01*
X19618756Y-8772956D02*
X19618756Y-8702244D01*
X19548044Y-8702244D01*
X19548044Y-8772956D01*
X19618756Y-8772956D01*
X19618756Y-9026956D02*
X19618756Y-8956244D01*
X19548044Y-8956244D01*
X19548044Y-9026956D01*
X19618756Y-9026956D01*
X19618756Y-9280956D02*
X19618756Y-9210244D01*
X19548044Y-9210244D01*
X19548044Y-9280956D01*
X19618756Y-9280956D01*
X19618756Y-9534956D02*
X19618756Y-9464244D01*
X19548044Y-9464244D01*
X19548044Y-9534956D01*
X19618756Y-9534956D01*
X19618756Y-9788956D02*
X19618756Y-9718244D01*
X19548044Y-9718244D01*
X19548044Y-9788956D01*
X19618756Y-9788956D01*
X19618756Y-10042956D02*
X19618756Y-9972244D01*
X19548044Y-9972244D01*
X19548044Y-10042956D01*
X19618756Y-10042956D01*
X19618756Y-10296956D02*
X19618756Y-10226244D01*
X19548044Y-10226244D01*
X19548044Y-10296956D01*
X19618756Y-10296956D01*
X19618756Y-10550956D02*
X19618756Y-10480244D01*
X19548044Y-10480244D01*
X19548044Y-10550956D01*
X19618756Y-10550956D01*
X19618756Y-10804956D02*
X19618756Y-10734244D01*
X19548044Y-10734244D01*
X19548044Y-10804956D01*
X19618756Y-10804956D01*
X19618756Y-11058956D02*
X19618756Y-10988244D01*
X19548044Y-10988244D01*
X19548044Y-11058956D01*
X19618756Y-11058956D01*
X19618756Y-11312956D02*
X19618756Y-11242244D01*
X19548044Y-11242244D01*
X19548044Y-11312956D01*
X19618756Y-11312956D01*
X19618756Y-11566956D02*
X19618756Y-11496244D01*
X19548044Y-11496244D01*
X19548044Y-11566956D01*
X19618756Y-11566956D01*
X19618756Y-11820956D02*
X19618756Y-11750244D01*
X19548044Y-11750244D01*
X19548044Y-11820956D01*
X19618756Y-11820956D01*
X19618756Y-12074956D02*
X19618756Y-12004244D01*
X19548044Y-12004244D01*
X19548044Y-12074956D01*
X19618756Y-12074956D01*
X19618756Y-12328956D02*
X19618756Y-12258244D01*
X19548044Y-12258244D01*
X19548044Y-12328956D01*
X19618756Y-12328956D01*
X19717816Y-6700316D02*
X19717816Y-6629604D01*
X19647104Y-6629604D01*
X19647104Y-6700316D01*
X19717816Y-6700316D01*
D13*
X13685520Y-9806715D02*
X13736520Y-9755715D01*
X13685520Y-9704715D01*
X13634520Y-9755715D01*
X13685520Y-9806715D01*
X13685520Y-11584715D02*
X13736520Y-11533715D01*
X13685520Y-11482715D01*
X13634520Y-11533715D01*
X13685520Y-11584715D01*
X13939520Y-9806715D02*
X13990520Y-9755715D01*
X13939520Y-9704715D01*
X13888520Y-9755715D01*
X13939520Y-9806715D01*
X13939520Y-11584715D02*
X13990520Y-11533715D01*
X13939520Y-11482715D01*
X13888520Y-11533715D01*
X13939520Y-11584715D01*
X14193520Y-9806715D02*
X14244520Y-9755715D01*
X14193520Y-9704715D01*
X14142520Y-9755715D01*
X14193520Y-9806715D01*
X14193520Y-11584715D02*
X14244520Y-11533715D01*
X14193520Y-11482715D01*
X14142520Y-11533715D01*
X14193520Y-11584715D01*
X14447520Y-9806715D02*
X14498520Y-9755715D01*
X14447520Y-9704715D01*
X14396520Y-9755715D01*
X14447520Y-9806715D01*
X14447520Y-11584715D02*
X14498520Y-11533715D01*
X14447520Y-11482715D01*
X14396520Y-11533715D01*
X14447520Y-11584715D01*
X14701520Y-9806715D02*
X14752520Y-9755715D01*
X14701520Y-9704715D01*
X14650520Y-9755715D01*
X14701520Y-9806715D01*
X14701520Y-11584715D02*
X14752520Y-11533715D01*
X14701520Y-11482715D01*
X14650520Y-11533715D01*
X14701520Y-11584715D01*
X14955520Y-9806715D02*
X15006520Y-9755715D01*
X14955520Y-9704715D01*
X14904520Y-9755715D01*
X14955520Y-9806715D01*
X14955520Y-11584715D02*
X15006520Y-11533715D01*
X14955520Y-11482715D01*
X14904520Y-11533715D01*
X14955520Y-11584715D01*
X15209520Y-9806715D02*
X15260520Y-9755715D01*
X15209520Y-9704715D01*
X15158520Y-9755715D01*
X15209520Y-9806715D01*
X15209520Y-11584715D02*
X15260520Y-11533715D01*
X15209520Y-11482715D01*
X15158520Y-11533715D01*
X15209520Y-11584715D01*
X15463520Y-9806715D02*
X15514520Y-9755715D01*
X15463520Y-9704715D01*
X15412520Y-9755715D01*
X15463520Y-9806715D01*
X15463520Y-11584715D02*
X15514520Y-11533715D01*
X15463520Y-11482715D01*
X15412520Y-11533715D01*
X15463520Y-11584715D01*
X15717520Y-9806715D02*
X15768520Y-9755715D01*
X15717520Y-9704715D01*
X15666520Y-9755715D01*
X15717520Y-9806715D01*
X15717520Y-11584715D02*
X15768520Y-11533715D01*
X15717520Y-11482715D01*
X15666520Y-11533715D01*
X15717520Y-11584715D01*
X15971520Y-9806715D02*
X16022520Y-9755715D01*
X15971520Y-9704715D01*
X15920520Y-9755715D01*
X15971520Y-9806715D01*
X15971520Y-11584715D02*
X16022520Y-11533715D01*
X15971520Y-11482715D01*
X15920520Y-11533715D01*
X15971520Y-11584715D01*
X16225520Y-9806715D02*
X16276520Y-9755715D01*
X16225520Y-9704715D01*
X16174520Y-9755715D01*
X16225520Y-9806715D01*
X16225520Y-11584715D02*
X16276520Y-11533715D01*
X16225520Y-11482715D01*
X16174520Y-11533715D01*
X16225520Y-11584715D01*
X16479520Y-9806715D02*
X16530520Y-9755715D01*
X16479520Y-9704715D01*
X16428520Y-9755715D01*
X16479520Y-9806715D01*
X16479520Y-11584715D02*
X16530520Y-11533715D01*
X16479520Y-11482715D01*
X16428520Y-11533715D01*
X16479520Y-11584715D01*
X16733520Y-9806715D02*
X16784520Y-9755715D01*
X16733520Y-9704715D01*
X16682520Y-9755715D01*
X16733520Y-9806715D01*
X16733520Y-11584715D02*
X16784520Y-11533715D01*
X16733520Y-11482715D01*
X16682520Y-11533715D01*
X16733520Y-11584715D01*
X16987520Y-9806715D02*
X17038520Y-9755715D01*
X16987520Y-9704715D01*
X16936520Y-9755715D01*
X16987520Y-9806715D01*
X16987520Y-11584715D02*
X17038520Y-11533715D01*
X16987520Y-11482715D01*
X16936520Y-11533715D01*
X16987520Y-11584715D01*
X17241520Y-9806715D02*
X17292520Y-9755715D01*
X17241520Y-9704715D01*
X17190520Y-9755715D01*
X17241520Y-9806715D01*
X17241520Y-11584715D02*
X17292520Y-11533715D01*
X17241520Y-11482715D01*
X17190520Y-11533715D01*
X17241520Y-11584715D01*
X17495520Y-9806715D02*
X17546520Y-9755715D01*
X17495520Y-9704715D01*
X17444520Y-9755715D01*
X17495520Y-9806715D01*
X17495520Y-11584715D02*
X17546520Y-11533715D01*
X17495520Y-11482715D01*
X17444520Y-11533715D01*
X17495520Y-11584715D01*
X17749520Y-9806715D02*
X17800520Y-9755715D01*
X17749520Y-9704715D01*
X17698520Y-9755715D01*
X17749520Y-9806715D01*
X17749520Y-11584715D02*
X17800520Y-11533715D01*
X17749520Y-11482715D01*
X17698520Y-11533715D01*
X17749520Y-11584715D01*
X18003520Y-9806715D02*
X18054520Y-9755715D01*
X18003520Y-9704715D01*
X17952520Y-9755715D01*
X18003520Y-9806715D01*
X18003520Y-11584715D02*
X18054520Y-11533715D01*
X18003520Y-11482715D01*
X17952520Y-11533715D01*
X18003520Y-11584715D01*
X18257520Y-9806715D02*
X18308520Y-9755715D01*
X18257520Y-9704715D01*
X18206520Y-9755715D01*
X18257520Y-9806715D01*
X18257520Y-11584715D02*
X18308520Y-11533715D01*
X18257520Y-11482715D01*
X18206520Y-11533715D01*
X18257520Y-11584715D01*
X18511520Y-9806715D02*
X18562520Y-9755715D01*
X18511520Y-9704715D01*
X18460520Y-9755715D01*
X18511520Y-9806715D01*
X18511520Y-11584715D02*
X18562520Y-11533715D01*
X18511520Y-11482715D01*
X18460520Y-11533715D01*
X18511520Y-11584715D01*
D14*
X10425000Y-6468000D02*
X10535000Y-6578000D01*
X10535000Y-6468000D02*
X10425000Y-6578000D01*
X10535000Y-6523000D02*
G75*
G02*
X10425000Y-6523000I-55000J0D01*
G01*
X10425000Y-6523000D02*
G75*
G02*
X10535000Y-6523000I55000J0D01*
G01*
X10425000Y-6722000D02*
X10535000Y-6832000D01*
X10535000Y-6722000D02*
X10425000Y-6832000D01*
X10535000Y-6777000D02*
G75*
G02*
X10425000Y-6777000I-55000J0D01*
G01*
X10425000Y-6777000D02*
G75*
G02*
X10535000Y-6777000I55000J0D01*
G01*
X10425000Y-7166250D02*
X10535000Y-7276250D01*
X10535000Y-7166250D02*
X10425000Y-7276250D01*
X10535000Y-7221250D02*
G75*
G02*
X10425000Y-7221250I-55000J0D01*
G01*
X10425000Y-7221250D02*
G75*
G02*
X10535000Y-7221250I55000J0D01*
G01*
X10425000Y-7420250D02*
X10535000Y-7530250D01*
X10535000Y-7420250D02*
X10425000Y-7530250D01*
X10535000Y-7475250D02*
G75*
G02*
X10425000Y-7475250I-55000J0D01*
G01*
X10425000Y-7475250D02*
G75*
G02*
X10535000Y-7475250I55000J0D01*
G01*
D15*
X10712500Y-7885000D02*
X10842500Y-8015000D01*
X10842500Y-7885000D02*
X10712500Y-8015000D01*
X10777500Y-7885000D02*
X10777500Y-8015000D01*
X10712500Y-7950000D02*
X10842500Y-7950000D01*
X10712500Y-8585000D02*
X10842500Y-8715000D01*
X10842500Y-8585000D02*
X10712500Y-8715000D01*
X10777500Y-8585000D02*
X10777500Y-8715000D01*
X10712500Y-8650000D02*
X10842500Y-8650000D01*
X12350000Y-5935000D02*
X12480000Y-6065000D01*
X12480000Y-5935000D02*
X12350000Y-6065000D01*
X12415000Y-5935000D02*
X12415000Y-6065000D01*
X12350000Y-6000000D02*
X12480000Y-6000000D01*
X13050000Y-5935000D02*
X13180000Y-6065000D01*
X13180000Y-5935000D02*
X13050000Y-6065000D01*
X13115000Y-5935000D02*
X13115000Y-6065000D01*
X13050000Y-6000000D02*
X13180000Y-6000000D01*
X13475000Y-5932500D02*
X13605000Y-6062500D01*
X13605000Y-5932500D02*
X13475000Y-6062500D01*
X13540000Y-5932500D02*
X13540000Y-6062500D01*
X13475000Y-5997500D02*
X13605000Y-5997500D01*
X14175000Y-5932500D02*
X14305000Y-6062500D01*
X14305000Y-5932500D02*
X14175000Y-6062500D01*
X14240000Y-5932500D02*
X14240000Y-6062500D01*
X14175000Y-5997500D02*
X14305000Y-5997500D01*
D11*
X10328277Y-13513984D02*
X10328277Y-13313984D01*
X10328277Y-13313984D02*
X10375896Y-13313984D01*
X10375896Y-13313984D02*
X10404467Y-13323508D01*
X10404467Y-13323508D02*
X10423515Y-13342555D01*
X10423515Y-13342555D02*
X10433039Y-13361603D01*
X10433039Y-13361603D02*
X10442563Y-13399698D01*
X10442563Y-13399698D02*
X10442563Y-13428269D01*
X10442563Y-13428269D02*
X10433039Y-13466365D01*
X10433039Y-13466365D02*
X10423515Y-13485412D01*
X10423515Y-13485412D02*
X10404467Y-13504460D01*
X10404467Y-13504460D02*
X10375896Y-13513984D01*
X10375896Y-13513984D02*
X10328277Y-13513984D01*
X10528277Y-13513984D02*
X10528277Y-13380650D01*
X10528277Y-13418746D02*
X10537801Y-13399698D01*
X10537801Y-13399698D02*
X10547324Y-13390174D01*
X10547324Y-13390174D02*
X10566372Y-13380650D01*
X10566372Y-13380650D02*
X10585420Y-13380650D01*
X10652086Y-13513984D02*
X10652086Y-13380650D01*
X10652086Y-13313984D02*
X10642563Y-13323508D01*
X10642563Y-13323508D02*
X10652086Y-13333031D01*
X10652086Y-13333031D02*
X10661610Y-13323508D01*
X10661610Y-13323508D02*
X10652086Y-13313984D01*
X10652086Y-13313984D02*
X10652086Y-13333031D01*
X10775896Y-13513984D02*
X10756848Y-13504460D01*
X10756848Y-13504460D02*
X10747324Y-13485412D01*
X10747324Y-13485412D02*
X10747324Y-13313984D01*
X10880658Y-13513984D02*
X10861610Y-13504460D01*
X10861610Y-13504460D02*
X10852086Y-13485412D01*
X10852086Y-13485412D02*
X10852086Y-13313984D01*
X11109229Y-13513984D02*
X11109229Y-13313984D01*
X11109229Y-13313984D02*
X11175896Y-13456841D01*
X11175896Y-13456841D02*
X11242562Y-13313984D01*
X11242562Y-13313984D02*
X11242562Y-13513984D01*
X11423515Y-13513984D02*
X11423515Y-13409222D01*
X11423515Y-13409222D02*
X11413991Y-13390174D01*
X11413991Y-13390174D02*
X11394943Y-13380650D01*
X11394943Y-13380650D02*
X11356848Y-13380650D01*
X11356848Y-13380650D02*
X11337801Y-13390174D01*
X11423515Y-13504460D02*
X11404467Y-13513984D01*
X11404467Y-13513984D02*
X11356848Y-13513984D01*
X11356848Y-13513984D02*
X11337801Y-13504460D01*
X11337801Y-13504460D02*
X11328277Y-13485412D01*
X11328277Y-13485412D02*
X11328277Y-13466365D01*
X11328277Y-13466365D02*
X11337801Y-13447317D01*
X11337801Y-13447317D02*
X11356848Y-13437793D01*
X11356848Y-13437793D02*
X11404467Y-13437793D01*
X11404467Y-13437793D02*
X11423515Y-13428269D01*
X11518753Y-13380650D02*
X11518753Y-13580650D01*
X11518753Y-13390174D02*
X11537801Y-13380650D01*
X11537801Y-13380650D02*
X11575896Y-13380650D01*
X11575896Y-13380650D02*
X11594943Y-13390174D01*
X11594943Y-13390174D02*
X11604467Y-13399698D01*
X11604467Y-13399698D02*
X11613991Y-13418746D01*
X11613991Y-13418746D02*
X11613991Y-13475888D01*
X11613991Y-13475888D02*
X11604467Y-13494936D01*
X11604467Y-13494936D02*
X11594943Y-13504460D01*
X11594943Y-13504460D02*
X11575896Y-13513984D01*
X11575896Y-13513984D02*
X11537801Y-13513984D01*
X11537801Y-13513984D02*
X11518753Y-13504460D01*
X11699705Y-13494936D02*
X11709229Y-13504460D01*
X11709229Y-13504460D02*
X11699705Y-13513984D01*
X11699705Y-13513984D02*
X11690182Y-13504460D01*
X11690182Y-13504460D02*
X11699705Y-13494936D01*
X11699705Y-13494936D02*
X11699705Y-13513984D01*
X11699705Y-13390174D02*
X11709229Y-13399698D01*
X11709229Y-13399698D02*
X11699705Y-13409222D01*
X11699705Y-13409222D02*
X11690182Y-13399698D01*
X11690182Y-13399698D02*
X11699705Y-13390174D01*
X11699705Y-13390174D02*
X11699705Y-13409222D01*
D12*
X10027500Y-13822500D02*
X10067500Y-13862500D01*
X10067500Y-13822500D02*
X10027500Y-13862500D01*
D11*
X10366372Y-13733984D02*
X10385420Y-13733984D01*
X10385420Y-13733984D02*
X10404467Y-13743508D01*
X10404467Y-13743508D02*
X10413991Y-13753031D01*
X10413991Y-13753031D02*
X10423515Y-13772079D01*
X10423515Y-13772079D02*
X10433039Y-13810174D01*
X10433039Y-13810174D02*
X10433039Y-13857793D01*
X10433039Y-13857793D02*
X10423515Y-13895888D01*
X10423515Y-13895888D02*
X10413991Y-13914936D01*
X10413991Y-13914936D02*
X10404467Y-13924460D01*
X10404467Y-13924460D02*
X10385420Y-13933984D01*
X10385420Y-13933984D02*
X10366372Y-13933984D01*
X10366372Y-13933984D02*
X10347324Y-13924460D01*
X10347324Y-13924460D02*
X10337801Y-13914936D01*
X10337801Y-13914936D02*
X10328277Y-13895888D01*
X10328277Y-13895888D02*
X10318753Y-13857793D01*
X10318753Y-13857793D02*
X10318753Y-13810174D01*
X10318753Y-13810174D02*
X10328277Y-13772079D01*
X10328277Y-13772079D02*
X10337801Y-13753031D01*
X10337801Y-13753031D02*
X10347324Y-13743508D01*
X10347324Y-13743508D02*
X10366372Y-13733984D01*
X10518753Y-13914936D02*
X10528277Y-13924460D01*
X10528277Y-13924460D02*
X10518753Y-13933984D01*
X10518753Y-13933984D02*
X10509229Y-13924460D01*
X10509229Y-13924460D02*
X10518753Y-13914936D01*
X10518753Y-13914936D02*
X10518753Y-13933984D01*
X10699705Y-13800650D02*
X10699705Y-13933984D01*
X10652086Y-13724460D02*
X10604467Y-13867317D01*
X10604467Y-13867317D02*
X10728277Y-13867317D01*
X10842563Y-13733984D02*
X10861610Y-13733984D01*
X10861610Y-13733984D02*
X10880658Y-13743508D01*
X10880658Y-13743508D02*
X10890182Y-13753031D01*
X10890182Y-13753031D02*
X10899705Y-13772079D01*
X10899705Y-13772079D02*
X10909229Y-13810174D01*
X10909229Y-13810174D02*
X10909229Y-13857793D01*
X10909229Y-13857793D02*
X10899705Y-13895888D01*
X10899705Y-13895888D02*
X10890182Y-13914936D01*
X10890182Y-13914936D02*
X10880658Y-13924460D01*
X10880658Y-13924460D02*
X10861610Y-13933984D01*
X10861610Y-13933984D02*
X10842563Y-13933984D01*
X10842563Y-13933984D02*
X10823515Y-13924460D01*
X10823515Y-13924460D02*
X10813991Y-13914936D01*
X10813991Y-13914936D02*
X10804467Y-13895888D01*
X10804467Y-13895888D02*
X10794944Y-13857793D01*
X10794944Y-13857793D02*
X10794944Y-13810174D01*
X10794944Y-13810174D02*
X10804467Y-13772079D01*
X10804467Y-13772079D02*
X10813991Y-13753031D01*
X10813991Y-13753031D02*
X10823515Y-13743508D01*
X10823515Y-13743508D02*
X10842563Y-13733984D01*
X11033039Y-13733984D02*
X11052086Y-13733984D01*
X11052086Y-13733984D02*
X11071134Y-13743508D01*
X11071134Y-13743508D02*
X11080658Y-13753031D01*
X11080658Y-13753031D02*
X11090182Y-13772079D01*
X11090182Y-13772079D02*
X11099705Y-13810174D01*
X11099705Y-13810174D02*
X11099705Y-13857793D01*
X11099705Y-13857793D02*
X11090182Y-13895888D01*
X11090182Y-13895888D02*
X11080658Y-13914936D01*
X11080658Y-13914936D02*
X11071134Y-13924460D01*
X11071134Y-13924460D02*
X11052086Y-13933984D01*
X11052086Y-13933984D02*
X11033039Y-13933984D01*
X11033039Y-13933984D02*
X11013991Y-13924460D01*
X11013991Y-13924460D02*
X11004467Y-13914936D01*
X11004467Y-13914936D02*
X10994944Y-13895888D01*
X10994944Y-13895888D02*
X10985420Y-13857793D01*
X10985420Y-13857793D02*
X10985420Y-13810174D01*
X10985420Y-13810174D02*
X10994944Y-13772079D01*
X10994944Y-13772079D02*
X11004467Y-13753031D01*
X11004467Y-13753031D02*
X11013991Y-13743508D01*
X11013991Y-13743508D02*
X11033039Y-13733984D01*
X11185420Y-13933984D02*
X11185420Y-13800650D01*
X11185420Y-13819698D02*
X11194943Y-13810174D01*
X11194943Y-13810174D02*
X11213991Y-13800650D01*
X11213991Y-13800650D02*
X11242563Y-13800650D01*
X11242563Y-13800650D02*
X11261610Y-13810174D01*
X11261610Y-13810174D02*
X11271134Y-13829222D01*
X11271134Y-13829222D02*
X11271134Y-13933984D01*
X11271134Y-13829222D02*
X11280658Y-13810174D01*
X11280658Y-13810174D02*
X11299705Y-13800650D01*
X11299705Y-13800650D02*
X11328277Y-13800650D01*
X11328277Y-13800650D02*
X11347324Y-13810174D01*
X11347324Y-13810174D02*
X11356848Y-13829222D01*
X11356848Y-13829222D02*
X11356848Y-13933984D01*
X11452086Y-13933984D02*
X11452086Y-13800650D01*
X11452086Y-13819698D02*
X11461610Y-13810174D01*
X11461610Y-13810174D02*
X11480658Y-13800650D01*
X11480658Y-13800650D02*
X11509229Y-13800650D01*
X11509229Y-13800650D02*
X11528277Y-13810174D01*
X11528277Y-13810174D02*
X11537801Y-13829222D01*
X11537801Y-13829222D02*
X11537801Y-13933984D01*
X11537801Y-13829222D02*
X11547324Y-13810174D01*
X11547324Y-13810174D02*
X11566372Y-13800650D01*
X11566372Y-13800650D02*
X11594943Y-13800650D01*
X11594943Y-13800650D02*
X11613991Y-13810174D01*
X11613991Y-13810174D02*
X11623515Y-13829222D01*
X11623515Y-13829222D02*
X11623515Y-13933984D01*
X12013991Y-13724460D02*
X11842563Y-13981603D01*
X12271134Y-13733984D02*
X12290182Y-13733984D01*
X12290182Y-13733984D02*
X12309229Y-13743508D01*
X12309229Y-13743508D02*
X12318753Y-13753031D01*
X12318753Y-13753031D02*
X12328277Y-13772079D01*
X12328277Y-13772079D02*
X12337801Y-13810174D01*
X12337801Y-13810174D02*
X12337801Y-13857793D01*
X12337801Y-13857793D02*
X12328277Y-13895888D01*
X12328277Y-13895888D02*
X12318753Y-13914936D01*
X12318753Y-13914936D02*
X12309229Y-13924460D01*
X12309229Y-13924460D02*
X12290182Y-13933984D01*
X12290182Y-13933984D02*
X12271134Y-13933984D01*
X12271134Y-13933984D02*
X12252086Y-13924460D01*
X12252086Y-13924460D02*
X12242563Y-13914936D01*
X12242563Y-13914936D02*
X12233039Y-13895888D01*
X12233039Y-13895888D02*
X12223515Y-13857793D01*
X12223515Y-13857793D02*
X12223515Y-13810174D01*
X12223515Y-13810174D02*
X12233039Y-13772079D01*
X12233039Y-13772079D02*
X12242563Y-13753031D01*
X12242563Y-13753031D02*
X12252086Y-13743508D01*
X12252086Y-13743508D02*
X12271134Y-13733984D01*
X12423515Y-13914936D02*
X12433039Y-13924460D01*
X12433039Y-13924460D02*
X12423515Y-13933984D01*
X12423515Y-13933984D02*
X12413991Y-13924460D01*
X12413991Y-13924460D02*
X12423515Y-13914936D01*
X12423515Y-13914936D02*
X12423515Y-13933984D01*
X12556848Y-13733984D02*
X12575896Y-13733984D01*
X12575896Y-13733984D02*
X12594944Y-13743508D01*
X12594944Y-13743508D02*
X12604467Y-13753031D01*
X12604467Y-13753031D02*
X12613991Y-13772079D01*
X12613991Y-13772079D02*
X12623515Y-13810174D01*
X12623515Y-13810174D02*
X12623515Y-13857793D01*
X12623515Y-13857793D02*
X12613991Y-13895888D01*
X12613991Y-13895888D02*
X12604467Y-13914936D01*
X12604467Y-13914936D02*
X12594944Y-13924460D01*
X12594944Y-13924460D02*
X12575896Y-13933984D01*
X12575896Y-13933984D02*
X12556848Y-13933984D01*
X12556848Y-13933984D02*
X12537801Y-13924460D01*
X12537801Y-13924460D02*
X12528277Y-13914936D01*
X12528277Y-13914936D02*
X12518753Y-13895888D01*
X12518753Y-13895888D02*
X12509229Y-13857793D01*
X12509229Y-13857793D02*
X12509229Y-13810174D01*
X12509229Y-13810174D02*
X12518753Y-13772079D01*
X12518753Y-13772079D02*
X12528277Y-13753031D01*
X12528277Y-13753031D02*
X12537801Y-13743508D01*
X12537801Y-13743508D02*
X12556848Y-13733984D01*
X12813991Y-13933984D02*
X12699706Y-13933984D01*
X12756848Y-13933984D02*
X12756848Y-13733984D01*
X12756848Y-13733984D02*
X12737801Y-13762555D01*
X12737801Y-13762555D02*
X12718753Y-13781603D01*
X12718753Y-13781603D02*
X12699706Y-13791127D01*
X12994944Y-13733984D02*
X12899706Y-13733984D01*
X12899706Y-13733984D02*
X12890182Y-13829222D01*
X12890182Y-13829222D02*
X12899706Y-13819698D01*
X12899706Y-13819698D02*
X12918753Y-13810174D01*
X12918753Y-13810174D02*
X12966372Y-13810174D01*
X12966372Y-13810174D02*
X12985420Y-13819698D01*
X12985420Y-13819698D02*
X12994944Y-13829222D01*
X12994944Y-13829222D02*
X13004467Y-13848269D01*
X13004467Y-13848269D02*
X13004467Y-13895888D01*
X13004467Y-13895888D02*
X12994944Y-13914936D01*
X12994944Y-13914936D02*
X12985420Y-13924460D01*
X12985420Y-13924460D02*
X12966372Y-13933984D01*
X12966372Y-13933984D02*
X12918753Y-13933984D01*
X12918753Y-13933984D02*
X12899706Y-13924460D01*
X12899706Y-13924460D02*
X12890182Y-13914936D01*
X13071134Y-13733984D02*
X13204467Y-13733984D01*
X13204467Y-13733984D02*
X13118753Y-13933984D01*
X13271134Y-13733984D02*
X13271134Y-13772079D01*
X13347325Y-13733984D02*
X13347325Y-13772079D01*
X13642563Y-14010174D02*
X13633039Y-14000650D01*
X13633039Y-14000650D02*
X13613991Y-13972079D01*
X13613991Y-13972079D02*
X13604468Y-13953031D01*
X13604468Y-13953031D02*
X13594944Y-13924460D01*
X13594944Y-13924460D02*
X13585420Y-13876841D01*
X13585420Y-13876841D02*
X13585420Y-13838746D01*
X13585420Y-13838746D02*
X13594944Y-13791127D01*
X13594944Y-13791127D02*
X13604468Y-13762555D01*
X13604468Y-13762555D02*
X13613991Y-13743508D01*
X13613991Y-13743508D02*
X13633039Y-13714936D01*
X13633039Y-13714936D02*
X13642563Y-13705412D01*
X13813991Y-13733984D02*
X13718753Y-13733984D01*
X13718753Y-13733984D02*
X13709229Y-13829222D01*
X13709229Y-13829222D02*
X13718753Y-13819698D01*
X13718753Y-13819698D02*
X13737801Y-13810174D01*
X13737801Y-13810174D02*
X13785420Y-13810174D01*
X13785420Y-13810174D02*
X13804468Y-13819698D01*
X13804468Y-13819698D02*
X13813991Y-13829222D01*
X13813991Y-13829222D02*
X13823515Y-13848269D01*
X13823515Y-13848269D02*
X13823515Y-13895888D01*
X13823515Y-13895888D02*
X13813991Y-13914936D01*
X13813991Y-13914936D02*
X13804468Y-13924460D01*
X13804468Y-13924460D02*
X13785420Y-13933984D01*
X13785420Y-13933984D02*
X13737801Y-13933984D01*
X13737801Y-13933984D02*
X13718753Y-13924460D01*
X13718753Y-13924460D02*
X13709229Y-13914936D01*
X13890182Y-13733984D02*
X14023515Y-13733984D01*
X14023515Y-13733984D02*
X13937801Y-13933984D01*
X14252087Y-13933984D02*
X14252087Y-13733984D01*
X14337801Y-13933984D02*
X14337801Y-13829222D01*
X14337801Y-13829222D02*
X14328277Y-13810174D01*
X14328277Y-13810174D02*
X14309230Y-13800650D01*
X14309230Y-13800650D02*
X14280658Y-13800650D01*
X14280658Y-13800650D02*
X14261610Y-13810174D01*
X14261610Y-13810174D02*
X14252087Y-13819698D01*
X14461610Y-13933984D02*
X14442563Y-13924460D01*
X14442563Y-13924460D02*
X14433039Y-13914936D01*
X14433039Y-13914936D02*
X14423515Y-13895888D01*
X14423515Y-13895888D02*
X14423515Y-13838746D01*
X14423515Y-13838746D02*
X14433039Y-13819698D01*
X14433039Y-13819698D02*
X14442563Y-13810174D01*
X14442563Y-13810174D02*
X14461610Y-13800650D01*
X14461610Y-13800650D02*
X14490182Y-13800650D01*
X14490182Y-13800650D02*
X14509230Y-13810174D01*
X14509230Y-13810174D02*
X14518753Y-13819698D01*
X14518753Y-13819698D02*
X14528277Y-13838746D01*
X14528277Y-13838746D02*
X14528277Y-13895888D01*
X14528277Y-13895888D02*
X14518753Y-13914936D01*
X14518753Y-13914936D02*
X14509230Y-13924460D01*
X14509230Y-13924460D02*
X14490182Y-13933984D01*
X14490182Y-13933984D02*
X14461610Y-13933984D01*
X14642563Y-13933984D02*
X14623515Y-13924460D01*
X14623515Y-13924460D02*
X14613991Y-13905412D01*
X14613991Y-13905412D02*
X14613991Y-13733984D01*
X14794944Y-13924460D02*
X14775896Y-13933984D01*
X14775896Y-13933984D02*
X14737801Y-13933984D01*
X14737801Y-13933984D02*
X14718753Y-13924460D01*
X14718753Y-13924460D02*
X14709230Y-13905412D01*
X14709230Y-13905412D02*
X14709230Y-13829222D01*
X14709230Y-13829222D02*
X14718753Y-13810174D01*
X14718753Y-13810174D02*
X14737801Y-13800650D01*
X14737801Y-13800650D02*
X14775896Y-13800650D01*
X14775896Y-13800650D02*
X14794944Y-13810174D01*
X14794944Y-13810174D02*
X14804468Y-13829222D01*
X14804468Y-13829222D02*
X14804468Y-13848269D01*
X14804468Y-13848269D02*
X14709230Y-13867317D01*
X14880658Y-13924460D02*
X14899706Y-13933984D01*
X14899706Y-13933984D02*
X14937801Y-13933984D01*
X14937801Y-13933984D02*
X14956849Y-13924460D01*
X14956849Y-13924460D02*
X14966372Y-13905412D01*
X14966372Y-13905412D02*
X14966372Y-13895888D01*
X14966372Y-13895888D02*
X14956849Y-13876841D01*
X14956849Y-13876841D02*
X14937801Y-13867317D01*
X14937801Y-13867317D02*
X14909230Y-13867317D01*
X14909230Y-13867317D02*
X14890182Y-13857793D01*
X14890182Y-13857793D02*
X14880658Y-13838746D01*
X14880658Y-13838746D02*
X14880658Y-13829222D01*
X14880658Y-13829222D02*
X14890182Y-13810174D01*
X14890182Y-13810174D02*
X14909230Y-13800650D01*
X14909230Y-13800650D02*
X14937801Y-13800650D01*
X14937801Y-13800650D02*
X14956849Y-13810174D01*
X15033039Y-14010174D02*
X15042563Y-14000650D01*
X15042563Y-14000650D02*
X15061611Y-13972079D01*
X15061611Y-13972079D02*
X15071134Y-13953031D01*
X15071134Y-13953031D02*
X15080658Y-13924460D01*
X15080658Y-13924460D02*
X15090182Y-13876841D01*
X15090182Y-13876841D02*
X15090182Y-13838746D01*
X15090182Y-13838746D02*
X15080658Y-13791127D01*
X15080658Y-13791127D02*
X15071134Y-13762555D01*
X15071134Y-13762555D02*
X15061611Y-13743508D01*
X15061611Y-13743508D02*
X15042563Y-13714936D01*
X15042563Y-13714936D02*
X15033039Y-13705412D01*
D12*
X10067500Y-14106500D02*
G75*
G02*
X9987500Y-14106500I-40000J0D01*
G01*
X9987500Y-14106500D02*
G75*
G02*
X10067500Y-14106500I40000J0D01*
G01*
D11*
X10366372Y-13997984D02*
X10385420Y-13997984D01*
X10385420Y-13997984D02*
X10404467Y-14007508D01*
X10404467Y-14007508D02*
X10413991Y-14017031D01*
X10413991Y-14017031D02*
X10423515Y-14036079D01*
X10423515Y-14036079D02*
X10433039Y-14074174D01*
X10433039Y-14074174D02*
X10433039Y-14121793D01*
X10433039Y-14121793D02*
X10423515Y-14159888D01*
X10423515Y-14159888D02*
X10413991Y-14178936D01*
X10413991Y-14178936D02*
X10404467Y-14188460D01*
X10404467Y-14188460D02*
X10385420Y-14197984D01*
X10385420Y-14197984D02*
X10366372Y-14197984D01*
X10366372Y-14197984D02*
X10347324Y-14188460D01*
X10347324Y-14188460D02*
X10337801Y-14178936D01*
X10337801Y-14178936D02*
X10328277Y-14159888D01*
X10328277Y-14159888D02*
X10318753Y-14121793D01*
X10318753Y-14121793D02*
X10318753Y-14074174D01*
X10318753Y-14074174D02*
X10328277Y-14036079D01*
X10328277Y-14036079D02*
X10337801Y-14017031D01*
X10337801Y-14017031D02*
X10347324Y-14007508D01*
X10347324Y-14007508D02*
X10366372Y-13997984D01*
X10518753Y-14178936D02*
X10528277Y-14188460D01*
X10528277Y-14188460D02*
X10518753Y-14197984D01*
X10518753Y-14197984D02*
X10509229Y-14188460D01*
X10509229Y-14188460D02*
X10518753Y-14178936D01*
X10518753Y-14178936D02*
X10518753Y-14197984D01*
X10642563Y-14083698D02*
X10623515Y-14074174D01*
X10623515Y-14074174D02*
X10613991Y-14064650D01*
X10613991Y-14064650D02*
X10604467Y-14045603D01*
X10604467Y-14045603D02*
X10604467Y-14036079D01*
X10604467Y-14036079D02*
X10613991Y-14017031D01*
X10613991Y-14017031D02*
X10623515Y-14007508D01*
X10623515Y-14007508D02*
X10642563Y-13997984D01*
X10642563Y-13997984D02*
X10680658Y-13997984D01*
X10680658Y-13997984D02*
X10699705Y-14007508D01*
X10699705Y-14007508D02*
X10709229Y-14017031D01*
X10709229Y-14017031D02*
X10718753Y-14036079D01*
X10718753Y-14036079D02*
X10718753Y-14045603D01*
X10718753Y-14045603D02*
X10709229Y-14064650D01*
X10709229Y-14064650D02*
X10699705Y-14074174D01*
X10699705Y-14074174D02*
X10680658Y-14083698D01*
X10680658Y-14083698D02*
X10642563Y-14083698D01*
X10642563Y-14083698D02*
X10623515Y-14093222D01*
X10623515Y-14093222D02*
X10613991Y-14102746D01*
X10613991Y-14102746D02*
X10604467Y-14121793D01*
X10604467Y-14121793D02*
X10604467Y-14159888D01*
X10604467Y-14159888D02*
X10613991Y-14178936D01*
X10613991Y-14178936D02*
X10623515Y-14188460D01*
X10623515Y-14188460D02*
X10642563Y-14197984D01*
X10642563Y-14197984D02*
X10680658Y-14197984D01*
X10680658Y-14197984D02*
X10699705Y-14188460D01*
X10699705Y-14188460D02*
X10709229Y-14178936D01*
X10709229Y-14178936D02*
X10718753Y-14159888D01*
X10718753Y-14159888D02*
X10718753Y-14121793D01*
X10718753Y-14121793D02*
X10709229Y-14102746D01*
X10709229Y-14102746D02*
X10699705Y-14093222D01*
X10699705Y-14093222D02*
X10680658Y-14083698D01*
X10842563Y-13997984D02*
X10861610Y-13997984D01*
X10861610Y-13997984D02*
X10880658Y-14007508D01*
X10880658Y-14007508D02*
X10890182Y-14017031D01*
X10890182Y-14017031D02*
X10899705Y-14036079D01*
X10899705Y-14036079D02*
X10909229Y-14074174D01*
X10909229Y-14074174D02*
X10909229Y-14121793D01*
X10909229Y-14121793D02*
X10899705Y-14159888D01*
X10899705Y-14159888D02*
X10890182Y-14178936D01*
X10890182Y-14178936D02*
X10880658Y-14188460D01*
X10880658Y-14188460D02*
X10861610Y-14197984D01*
X10861610Y-14197984D02*
X10842563Y-14197984D01*
X10842563Y-14197984D02*
X10823515Y-14188460D01*
X10823515Y-14188460D02*
X10813991Y-14178936D01*
X10813991Y-14178936D02*
X10804467Y-14159888D01*
X10804467Y-14159888D02*
X10794944Y-14121793D01*
X10794944Y-14121793D02*
X10794944Y-14074174D01*
X10794944Y-14074174D02*
X10804467Y-14036079D01*
X10804467Y-14036079D02*
X10813991Y-14017031D01*
X10813991Y-14017031D02*
X10823515Y-14007508D01*
X10823515Y-14007508D02*
X10842563Y-13997984D01*
X11033039Y-13997984D02*
X11052086Y-13997984D01*
X11052086Y-13997984D02*
X11071134Y-14007508D01*
X11071134Y-14007508D02*
X11080658Y-14017031D01*
X11080658Y-14017031D02*
X11090182Y-14036079D01*
X11090182Y-14036079D02*
X11099705Y-14074174D01*
X11099705Y-14074174D02*
X11099705Y-14121793D01*
X11099705Y-14121793D02*
X11090182Y-14159888D01*
X11090182Y-14159888D02*
X11080658Y-14178936D01*
X11080658Y-14178936D02*
X11071134Y-14188460D01*
X11071134Y-14188460D02*
X11052086Y-14197984D01*
X11052086Y-14197984D02*
X11033039Y-14197984D01*
X11033039Y-14197984D02*
X11013991Y-14188460D01*
X11013991Y-14188460D02*
X11004467Y-14178936D01*
X11004467Y-14178936D02*
X10994944Y-14159888D01*
X10994944Y-14159888D02*
X10985420Y-14121793D01*
X10985420Y-14121793D02*
X10985420Y-14074174D01*
X10985420Y-14074174D02*
X10994944Y-14036079D01*
X10994944Y-14036079D02*
X11004467Y-14017031D01*
X11004467Y-14017031D02*
X11013991Y-14007508D01*
X11013991Y-14007508D02*
X11033039Y-13997984D01*
X11185420Y-14197984D02*
X11185420Y-14064650D01*
X11185420Y-14083698D02*
X11194943Y-14074174D01*
X11194943Y-14074174D02*
X11213991Y-14064650D01*
X11213991Y-14064650D02*
X11242563Y-14064650D01*
X11242563Y-14064650D02*
X11261610Y-14074174D01*
X11261610Y-14074174D02*
X11271134Y-14093222D01*
X11271134Y-14093222D02*
X11271134Y-14197984D01*
X11271134Y-14093222D02*
X11280658Y-14074174D01*
X11280658Y-14074174D02*
X11299705Y-14064650D01*
X11299705Y-14064650D02*
X11328277Y-14064650D01*
X11328277Y-14064650D02*
X11347324Y-14074174D01*
X11347324Y-14074174D02*
X11356848Y-14093222D01*
X11356848Y-14093222D02*
X11356848Y-14197984D01*
X11452086Y-14197984D02*
X11452086Y-14064650D01*
X11452086Y-14083698D02*
X11461610Y-14074174D01*
X11461610Y-14074174D02*
X11480658Y-14064650D01*
X11480658Y-14064650D02*
X11509229Y-14064650D01*
X11509229Y-14064650D02*
X11528277Y-14074174D01*
X11528277Y-14074174D02*
X11537801Y-14093222D01*
X11537801Y-14093222D02*
X11537801Y-14197984D01*
X11537801Y-14093222D02*
X11547324Y-14074174D01*
X11547324Y-14074174D02*
X11566372Y-14064650D01*
X11566372Y-14064650D02*
X11594943Y-14064650D01*
X11594943Y-14064650D02*
X11613991Y-14074174D01*
X11613991Y-14074174D02*
X11623515Y-14093222D01*
X11623515Y-14093222D02*
X11623515Y-14197984D01*
X12013991Y-13988460D02*
X11842563Y-14245603D01*
X12271134Y-13997984D02*
X12290182Y-13997984D01*
X12290182Y-13997984D02*
X12309229Y-14007508D01*
X12309229Y-14007508D02*
X12318753Y-14017031D01*
X12318753Y-14017031D02*
X12328277Y-14036079D01*
X12328277Y-14036079D02*
X12337801Y-14074174D01*
X12337801Y-14074174D02*
X12337801Y-14121793D01*
X12337801Y-14121793D02*
X12328277Y-14159888D01*
X12328277Y-14159888D02*
X12318753Y-14178936D01*
X12318753Y-14178936D02*
X12309229Y-14188460D01*
X12309229Y-14188460D02*
X12290182Y-14197984D01*
X12290182Y-14197984D02*
X12271134Y-14197984D01*
X12271134Y-14197984D02*
X12252086Y-14188460D01*
X12252086Y-14188460D02*
X12242563Y-14178936D01*
X12242563Y-14178936D02*
X12233039Y-14159888D01*
X12233039Y-14159888D02*
X12223515Y-14121793D01*
X12223515Y-14121793D02*
X12223515Y-14074174D01*
X12223515Y-14074174D02*
X12233039Y-14036079D01*
X12233039Y-14036079D02*
X12242563Y-14017031D01*
X12242563Y-14017031D02*
X12252086Y-14007508D01*
X12252086Y-14007508D02*
X12271134Y-13997984D01*
X12423515Y-14178936D02*
X12433039Y-14188460D01*
X12433039Y-14188460D02*
X12423515Y-14197984D01*
X12423515Y-14197984D02*
X12413991Y-14188460D01*
X12413991Y-14188460D02*
X12423515Y-14178936D01*
X12423515Y-14178936D02*
X12423515Y-14197984D01*
X12556848Y-13997984D02*
X12575896Y-13997984D01*
X12575896Y-13997984D02*
X12594944Y-14007508D01*
X12594944Y-14007508D02*
X12604467Y-14017031D01*
X12604467Y-14017031D02*
X12613991Y-14036079D01*
X12613991Y-14036079D02*
X12623515Y-14074174D01*
X12623515Y-14074174D02*
X12623515Y-14121793D01*
X12623515Y-14121793D02*
X12613991Y-14159888D01*
X12613991Y-14159888D02*
X12604467Y-14178936D01*
X12604467Y-14178936D02*
X12594944Y-14188460D01*
X12594944Y-14188460D02*
X12575896Y-14197984D01*
X12575896Y-14197984D02*
X12556848Y-14197984D01*
X12556848Y-14197984D02*
X12537801Y-14188460D01*
X12537801Y-14188460D02*
X12528277Y-14178936D01*
X12528277Y-14178936D02*
X12518753Y-14159888D01*
X12518753Y-14159888D02*
X12509229Y-14121793D01*
X12509229Y-14121793D02*
X12509229Y-14074174D01*
X12509229Y-14074174D02*
X12518753Y-14036079D01*
X12518753Y-14036079D02*
X12528277Y-14017031D01*
X12528277Y-14017031D02*
X12537801Y-14007508D01*
X12537801Y-14007508D02*
X12556848Y-13997984D01*
X12690182Y-13997984D02*
X12813991Y-13997984D01*
X12813991Y-13997984D02*
X12747325Y-14074174D01*
X12747325Y-14074174D02*
X12775896Y-14074174D01*
X12775896Y-14074174D02*
X12794944Y-14083698D01*
X12794944Y-14083698D02*
X12804467Y-14093222D01*
X12804467Y-14093222D02*
X12813991Y-14112269D01*
X12813991Y-14112269D02*
X12813991Y-14159888D01*
X12813991Y-14159888D02*
X12804467Y-14178936D01*
X12804467Y-14178936D02*
X12794944Y-14188460D01*
X12794944Y-14188460D02*
X12775896Y-14197984D01*
X12775896Y-14197984D02*
X12718753Y-14197984D01*
X12718753Y-14197984D02*
X12699706Y-14188460D01*
X12699706Y-14188460D02*
X12690182Y-14178936D01*
X13004467Y-14197984D02*
X12890182Y-14197984D01*
X12947325Y-14197984D02*
X12947325Y-13997984D01*
X12947325Y-13997984D02*
X12928277Y-14026555D01*
X12928277Y-14026555D02*
X12909229Y-14045603D01*
X12909229Y-14045603D02*
X12890182Y-14055127D01*
X13185420Y-13997984D02*
X13090182Y-13997984D01*
X13090182Y-13997984D02*
X13080658Y-14093222D01*
X13080658Y-14093222D02*
X13090182Y-14083698D01*
X13090182Y-14083698D02*
X13109229Y-14074174D01*
X13109229Y-14074174D02*
X13156848Y-14074174D01*
X13156848Y-14074174D02*
X13175896Y-14083698D01*
X13175896Y-14083698D02*
X13185420Y-14093222D01*
X13185420Y-14093222D02*
X13194944Y-14112269D01*
X13194944Y-14112269D02*
X13194944Y-14159888D01*
X13194944Y-14159888D02*
X13185420Y-14178936D01*
X13185420Y-14178936D02*
X13175896Y-14188460D01*
X13175896Y-14188460D02*
X13156848Y-14197984D01*
X13156848Y-14197984D02*
X13109229Y-14197984D01*
X13109229Y-14197984D02*
X13090182Y-14188460D01*
X13090182Y-14188460D02*
X13080658Y-14178936D01*
X13271134Y-13997984D02*
X13271134Y-14036079D01*
X13347325Y-13997984D02*
X13347325Y-14036079D01*
X13642563Y-14274174D02*
X13633039Y-14264650D01*
X13633039Y-14264650D02*
X13613991Y-14236079D01*
X13613991Y-14236079D02*
X13604468Y-14217031D01*
X13604468Y-14217031D02*
X13594944Y-14188460D01*
X13594944Y-14188460D02*
X13585420Y-14140841D01*
X13585420Y-14140841D02*
X13585420Y-14102746D01*
X13585420Y-14102746D02*
X13594944Y-14055127D01*
X13594944Y-14055127D02*
X13604468Y-14026555D01*
X13604468Y-14026555D02*
X13613991Y-14007508D01*
X13613991Y-14007508D02*
X13633039Y-13978936D01*
X13633039Y-13978936D02*
X13642563Y-13969412D01*
X13823515Y-14197984D02*
X13709229Y-14197984D01*
X13766372Y-14197984D02*
X13766372Y-13997984D01*
X13766372Y-13997984D02*
X13747325Y-14026555D01*
X13747325Y-14026555D02*
X13728277Y-14045603D01*
X13728277Y-14045603D02*
X13709229Y-14055127D01*
X13937801Y-14083698D02*
X13918753Y-14074174D01*
X13918753Y-14074174D02*
X13909229Y-14064650D01*
X13909229Y-14064650D02*
X13899706Y-14045603D01*
X13899706Y-14045603D02*
X13899706Y-14036079D01*
X13899706Y-14036079D02*
X13909229Y-14017031D01*
X13909229Y-14017031D02*
X13918753Y-14007508D01*
X13918753Y-14007508D02*
X13937801Y-13997984D01*
X13937801Y-13997984D02*
X13975896Y-13997984D01*
X13975896Y-13997984D02*
X13994944Y-14007508D01*
X13994944Y-14007508D02*
X14004468Y-14017031D01*
X14004468Y-14017031D02*
X14013991Y-14036079D01*
X14013991Y-14036079D02*
X14013991Y-14045603D01*
X14013991Y-14045603D02*
X14004468Y-14064650D01*
X14004468Y-14064650D02*
X13994944Y-14074174D01*
X13994944Y-14074174D02*
X13975896Y-14083698D01*
X13975896Y-14083698D02*
X13937801Y-14083698D01*
X13937801Y-14083698D02*
X13918753Y-14093222D01*
X13918753Y-14093222D02*
X13909229Y-14102746D01*
X13909229Y-14102746D02*
X13899706Y-14121793D01*
X13899706Y-14121793D02*
X13899706Y-14159888D01*
X13899706Y-14159888D02*
X13909229Y-14178936D01*
X13909229Y-14178936D02*
X13918753Y-14188460D01*
X13918753Y-14188460D02*
X13937801Y-14197984D01*
X13937801Y-14197984D02*
X13975896Y-14197984D01*
X13975896Y-14197984D02*
X13994944Y-14188460D01*
X13994944Y-14188460D02*
X14004468Y-14178936D01*
X14004468Y-14178936D02*
X14013991Y-14159888D01*
X14013991Y-14159888D02*
X14013991Y-14121793D01*
X14013991Y-14121793D02*
X14004468Y-14102746D01*
X14004468Y-14102746D02*
X13994944Y-14093222D01*
X13994944Y-14093222D02*
X13975896Y-14083698D01*
X14252087Y-14197984D02*
X14252087Y-13997984D01*
X14337801Y-14197984D02*
X14337801Y-14093222D01*
X14337801Y-14093222D02*
X14328277Y-14074174D01*
X14328277Y-14074174D02*
X14309230Y-14064650D01*
X14309230Y-14064650D02*
X14280658Y-14064650D01*
X14280658Y-14064650D02*
X14261610Y-14074174D01*
X14261610Y-14074174D02*
X14252087Y-14083698D01*
X14461610Y-14197984D02*
X14442563Y-14188460D01*
X14442563Y-14188460D02*
X14433039Y-14178936D01*
X14433039Y-14178936D02*
X14423515Y-14159888D01*
X14423515Y-14159888D02*
X14423515Y-14102746D01*
X14423515Y-14102746D02*
X14433039Y-14083698D01*
X14433039Y-14083698D02*
X14442563Y-14074174D01*
X14442563Y-14074174D02*
X14461610Y-14064650D01*
X14461610Y-14064650D02*
X14490182Y-14064650D01*
X14490182Y-14064650D02*
X14509230Y-14074174D01*
X14509230Y-14074174D02*
X14518753Y-14083698D01*
X14518753Y-14083698D02*
X14528277Y-14102746D01*
X14528277Y-14102746D02*
X14528277Y-14159888D01*
X14528277Y-14159888D02*
X14518753Y-14178936D01*
X14518753Y-14178936D02*
X14509230Y-14188460D01*
X14509230Y-14188460D02*
X14490182Y-14197984D01*
X14490182Y-14197984D02*
X14461610Y-14197984D01*
X14642563Y-14197984D02*
X14623515Y-14188460D01*
X14623515Y-14188460D02*
X14613991Y-14169412D01*
X14613991Y-14169412D02*
X14613991Y-13997984D01*
X14794944Y-14188460D02*
X14775896Y-14197984D01*
X14775896Y-14197984D02*
X14737801Y-14197984D01*
X14737801Y-14197984D02*
X14718753Y-14188460D01*
X14718753Y-14188460D02*
X14709230Y-14169412D01*
X14709230Y-14169412D02*
X14709230Y-14093222D01*
X14709230Y-14093222D02*
X14718753Y-14074174D01*
X14718753Y-14074174D02*
X14737801Y-14064650D01*
X14737801Y-14064650D02*
X14775896Y-14064650D01*
X14775896Y-14064650D02*
X14794944Y-14074174D01*
X14794944Y-14074174D02*
X14804468Y-14093222D01*
X14804468Y-14093222D02*
X14804468Y-14112269D01*
X14804468Y-14112269D02*
X14709230Y-14131317D01*
X14880658Y-14188460D02*
X14899706Y-14197984D01*
X14899706Y-14197984D02*
X14937801Y-14197984D01*
X14937801Y-14197984D02*
X14956849Y-14188460D01*
X14956849Y-14188460D02*
X14966372Y-14169412D01*
X14966372Y-14169412D02*
X14966372Y-14159888D01*
X14966372Y-14159888D02*
X14956849Y-14140841D01*
X14956849Y-14140841D02*
X14937801Y-14131317D01*
X14937801Y-14131317D02*
X14909230Y-14131317D01*
X14909230Y-14131317D02*
X14890182Y-14121793D01*
X14890182Y-14121793D02*
X14880658Y-14102746D01*
X14880658Y-14102746D02*
X14880658Y-14093222D01*
X14880658Y-14093222D02*
X14890182Y-14074174D01*
X14890182Y-14074174D02*
X14909230Y-14064650D01*
X14909230Y-14064650D02*
X14937801Y-14064650D01*
X14937801Y-14064650D02*
X14956849Y-14074174D01*
X15033039Y-14274174D02*
X15042563Y-14264650D01*
X15042563Y-14264650D02*
X15061611Y-14236079D01*
X15061611Y-14236079D02*
X15071134Y-14217031D01*
X15071134Y-14217031D02*
X15080658Y-14188460D01*
X15080658Y-14188460D02*
X15090182Y-14140841D01*
X15090182Y-14140841D02*
X15090182Y-14102746D01*
X15090182Y-14102746D02*
X15080658Y-14055127D01*
X15080658Y-14055127D02*
X15071134Y-14026555D01*
X15071134Y-14026555D02*
X15061611Y-14007508D01*
X15061611Y-14007508D02*
X15042563Y-13978936D01*
X15042563Y-13978936D02*
X15033039Y-13969412D01*
D12*
X10022500Y-14325500D02*
X10022500Y-14415500D01*
X9977500Y-14370500D02*
X10067500Y-14370500D01*
D11*
X10366372Y-14261984D02*
X10385420Y-14261984D01*
X10385420Y-14261984D02*
X10404467Y-14271508D01*
X10404467Y-14271508D02*
X10413991Y-14281031D01*
X10413991Y-14281031D02*
X10423515Y-14300079D01*
X10423515Y-14300079D02*
X10433039Y-14338174D01*
X10433039Y-14338174D02*
X10433039Y-14385793D01*
X10433039Y-14385793D02*
X10423515Y-14423888D01*
X10423515Y-14423888D02*
X10413991Y-14442936D01*
X10413991Y-14442936D02*
X10404467Y-14452460D01*
X10404467Y-14452460D02*
X10385420Y-14461984D01*
X10385420Y-14461984D02*
X10366372Y-14461984D01*
X10366372Y-14461984D02*
X10347324Y-14452460D01*
X10347324Y-14452460D02*
X10337801Y-14442936D01*
X10337801Y-14442936D02*
X10328277Y-14423888D01*
X10328277Y-14423888D02*
X10318753Y-14385793D01*
X10318753Y-14385793D02*
X10318753Y-14338174D01*
X10318753Y-14338174D02*
X10328277Y-14300079D01*
X10328277Y-14300079D02*
X10337801Y-14281031D01*
X10337801Y-14281031D02*
X10347324Y-14271508D01*
X10347324Y-14271508D02*
X10366372Y-14261984D01*
X10518753Y-14442936D02*
X10528277Y-14452460D01*
X10528277Y-14452460D02*
X10518753Y-14461984D01*
X10518753Y-14461984D02*
X10509229Y-14452460D01*
X10509229Y-14452460D02*
X10518753Y-14442936D01*
X10518753Y-14442936D02*
X10518753Y-14461984D01*
X10623515Y-14461984D02*
X10661610Y-14461984D01*
X10661610Y-14461984D02*
X10680658Y-14452460D01*
X10680658Y-14452460D02*
X10690182Y-14442936D01*
X10690182Y-14442936D02*
X10709229Y-14414365D01*
X10709229Y-14414365D02*
X10718753Y-14376269D01*
X10718753Y-14376269D02*
X10718753Y-14300079D01*
X10718753Y-14300079D02*
X10709229Y-14281031D01*
X10709229Y-14281031D02*
X10699705Y-14271508D01*
X10699705Y-14271508D02*
X10680658Y-14261984D01*
X10680658Y-14261984D02*
X10642563Y-14261984D01*
X10642563Y-14261984D02*
X10623515Y-14271508D01*
X10623515Y-14271508D02*
X10613991Y-14281031D01*
X10613991Y-14281031D02*
X10604467Y-14300079D01*
X10604467Y-14300079D02*
X10604467Y-14347698D01*
X10604467Y-14347698D02*
X10613991Y-14366746D01*
X10613991Y-14366746D02*
X10623515Y-14376269D01*
X10623515Y-14376269D02*
X10642563Y-14385793D01*
X10642563Y-14385793D02*
X10680658Y-14385793D01*
X10680658Y-14385793D02*
X10699705Y-14376269D01*
X10699705Y-14376269D02*
X10709229Y-14366746D01*
X10709229Y-14366746D02*
X10718753Y-14347698D01*
X10842563Y-14261984D02*
X10861610Y-14261984D01*
X10861610Y-14261984D02*
X10880658Y-14271508D01*
X10880658Y-14271508D02*
X10890182Y-14281031D01*
X10890182Y-14281031D02*
X10899705Y-14300079D01*
X10899705Y-14300079D02*
X10909229Y-14338174D01*
X10909229Y-14338174D02*
X10909229Y-14385793D01*
X10909229Y-14385793D02*
X10899705Y-14423888D01*
X10899705Y-14423888D02*
X10890182Y-14442936D01*
X10890182Y-14442936D02*
X10880658Y-14452460D01*
X10880658Y-14452460D02*
X10861610Y-14461984D01*
X10861610Y-14461984D02*
X10842563Y-14461984D01*
X10842563Y-14461984D02*
X10823515Y-14452460D01*
X10823515Y-14452460D02*
X10813991Y-14442936D01*
X10813991Y-14442936D02*
X10804467Y-14423888D01*
X10804467Y-14423888D02*
X10794944Y-14385793D01*
X10794944Y-14385793D02*
X10794944Y-14338174D01*
X10794944Y-14338174D02*
X10804467Y-14300079D01*
X10804467Y-14300079D02*
X10813991Y-14281031D01*
X10813991Y-14281031D02*
X10823515Y-14271508D01*
X10823515Y-14271508D02*
X10842563Y-14261984D01*
X11033039Y-14261984D02*
X11052086Y-14261984D01*
X11052086Y-14261984D02*
X11071134Y-14271508D01*
X11071134Y-14271508D02*
X11080658Y-14281031D01*
X11080658Y-14281031D02*
X11090182Y-14300079D01*
X11090182Y-14300079D02*
X11099705Y-14338174D01*
X11099705Y-14338174D02*
X11099705Y-14385793D01*
X11099705Y-14385793D02*
X11090182Y-14423888D01*
X11090182Y-14423888D02*
X11080658Y-14442936D01*
X11080658Y-14442936D02*
X11071134Y-14452460D01*
X11071134Y-14452460D02*
X11052086Y-14461984D01*
X11052086Y-14461984D02*
X11033039Y-14461984D01*
X11033039Y-14461984D02*
X11013991Y-14452460D01*
X11013991Y-14452460D02*
X11004467Y-14442936D01*
X11004467Y-14442936D02*
X10994944Y-14423888D01*
X10994944Y-14423888D02*
X10985420Y-14385793D01*
X10985420Y-14385793D02*
X10985420Y-14338174D01*
X10985420Y-14338174D02*
X10994944Y-14300079D01*
X10994944Y-14300079D02*
X11004467Y-14281031D01*
X11004467Y-14281031D02*
X11013991Y-14271508D01*
X11013991Y-14271508D02*
X11033039Y-14261984D01*
X11185420Y-14461984D02*
X11185420Y-14328650D01*
X11185420Y-14347698D02*
X11194943Y-14338174D01*
X11194943Y-14338174D02*
X11213991Y-14328650D01*
X11213991Y-14328650D02*
X11242563Y-14328650D01*
X11242563Y-14328650D02*
X11261610Y-14338174D01*
X11261610Y-14338174D02*
X11271134Y-14357222D01*
X11271134Y-14357222D02*
X11271134Y-14461984D01*
X11271134Y-14357222D02*
X11280658Y-14338174D01*
X11280658Y-14338174D02*
X11299705Y-14328650D01*
X11299705Y-14328650D02*
X11328277Y-14328650D01*
X11328277Y-14328650D02*
X11347324Y-14338174D01*
X11347324Y-14338174D02*
X11356848Y-14357222D01*
X11356848Y-14357222D02*
X11356848Y-14461984D01*
X11452086Y-14461984D02*
X11452086Y-14328650D01*
X11452086Y-14347698D02*
X11461610Y-14338174D01*
X11461610Y-14338174D02*
X11480658Y-14328650D01*
X11480658Y-14328650D02*
X11509229Y-14328650D01*
X11509229Y-14328650D02*
X11528277Y-14338174D01*
X11528277Y-14338174D02*
X11537801Y-14357222D01*
X11537801Y-14357222D02*
X11537801Y-14461984D01*
X11537801Y-14357222D02*
X11547324Y-14338174D01*
X11547324Y-14338174D02*
X11566372Y-14328650D01*
X11566372Y-14328650D02*
X11594943Y-14328650D01*
X11594943Y-14328650D02*
X11613991Y-14338174D01*
X11613991Y-14338174D02*
X11623515Y-14357222D01*
X11623515Y-14357222D02*
X11623515Y-14461984D01*
X12013991Y-14252460D02*
X11842563Y-14509603D01*
X12271134Y-14261984D02*
X12290182Y-14261984D01*
X12290182Y-14261984D02*
X12309229Y-14271508D01*
X12309229Y-14271508D02*
X12318753Y-14281031D01*
X12318753Y-14281031D02*
X12328277Y-14300079D01*
X12328277Y-14300079D02*
X12337801Y-14338174D01*
X12337801Y-14338174D02*
X12337801Y-14385793D01*
X12337801Y-14385793D02*
X12328277Y-14423888D01*
X12328277Y-14423888D02*
X12318753Y-14442936D01*
X12318753Y-14442936D02*
X12309229Y-14452460D01*
X12309229Y-14452460D02*
X12290182Y-14461984D01*
X12290182Y-14461984D02*
X12271134Y-14461984D01*
X12271134Y-14461984D02*
X12252086Y-14452460D01*
X12252086Y-14452460D02*
X12242563Y-14442936D01*
X12242563Y-14442936D02*
X12233039Y-14423888D01*
X12233039Y-14423888D02*
X12223515Y-14385793D01*
X12223515Y-14385793D02*
X12223515Y-14338174D01*
X12223515Y-14338174D02*
X12233039Y-14300079D01*
X12233039Y-14300079D02*
X12242563Y-14281031D01*
X12242563Y-14281031D02*
X12252086Y-14271508D01*
X12252086Y-14271508D02*
X12271134Y-14261984D01*
X12423515Y-14442936D02*
X12433039Y-14452460D01*
X12433039Y-14452460D02*
X12423515Y-14461984D01*
X12423515Y-14461984D02*
X12413991Y-14452460D01*
X12413991Y-14452460D02*
X12423515Y-14442936D01*
X12423515Y-14442936D02*
X12423515Y-14461984D01*
X12556848Y-14261984D02*
X12575896Y-14261984D01*
X12575896Y-14261984D02*
X12594944Y-14271508D01*
X12594944Y-14271508D02*
X12604467Y-14281031D01*
X12604467Y-14281031D02*
X12613991Y-14300079D01*
X12613991Y-14300079D02*
X12623515Y-14338174D01*
X12623515Y-14338174D02*
X12623515Y-14385793D01*
X12623515Y-14385793D02*
X12613991Y-14423888D01*
X12613991Y-14423888D02*
X12604467Y-14442936D01*
X12604467Y-14442936D02*
X12594944Y-14452460D01*
X12594944Y-14452460D02*
X12575896Y-14461984D01*
X12575896Y-14461984D02*
X12556848Y-14461984D01*
X12556848Y-14461984D02*
X12537801Y-14452460D01*
X12537801Y-14452460D02*
X12528277Y-14442936D01*
X12528277Y-14442936D02*
X12518753Y-14423888D01*
X12518753Y-14423888D02*
X12509229Y-14385793D01*
X12509229Y-14385793D02*
X12509229Y-14338174D01*
X12509229Y-14338174D02*
X12518753Y-14300079D01*
X12518753Y-14300079D02*
X12528277Y-14281031D01*
X12528277Y-14281031D02*
X12537801Y-14271508D01*
X12537801Y-14271508D02*
X12556848Y-14261984D01*
X12690182Y-14261984D02*
X12813991Y-14261984D01*
X12813991Y-14261984D02*
X12747325Y-14338174D01*
X12747325Y-14338174D02*
X12775896Y-14338174D01*
X12775896Y-14338174D02*
X12794944Y-14347698D01*
X12794944Y-14347698D02*
X12804467Y-14357222D01*
X12804467Y-14357222D02*
X12813991Y-14376269D01*
X12813991Y-14376269D02*
X12813991Y-14423888D01*
X12813991Y-14423888D02*
X12804467Y-14442936D01*
X12804467Y-14442936D02*
X12794944Y-14452460D01*
X12794944Y-14452460D02*
X12775896Y-14461984D01*
X12775896Y-14461984D02*
X12718753Y-14461984D01*
X12718753Y-14461984D02*
X12699706Y-14452460D01*
X12699706Y-14452460D02*
X12690182Y-14442936D01*
X12994944Y-14261984D02*
X12899706Y-14261984D01*
X12899706Y-14261984D02*
X12890182Y-14357222D01*
X12890182Y-14357222D02*
X12899706Y-14347698D01*
X12899706Y-14347698D02*
X12918753Y-14338174D01*
X12918753Y-14338174D02*
X12966372Y-14338174D01*
X12966372Y-14338174D02*
X12985420Y-14347698D01*
X12985420Y-14347698D02*
X12994944Y-14357222D01*
X12994944Y-14357222D02*
X13004467Y-14376269D01*
X13004467Y-14376269D02*
X13004467Y-14423888D01*
X13004467Y-14423888D02*
X12994944Y-14442936D01*
X12994944Y-14442936D02*
X12985420Y-14452460D01*
X12985420Y-14452460D02*
X12966372Y-14461984D01*
X12966372Y-14461984D02*
X12918753Y-14461984D01*
X12918753Y-14461984D02*
X12899706Y-14452460D01*
X12899706Y-14452460D02*
X12890182Y-14442936D01*
X13175896Y-14328650D02*
X13175896Y-14461984D01*
X13128277Y-14252460D02*
X13080658Y-14395317D01*
X13080658Y-14395317D02*
X13204467Y-14395317D01*
X13271134Y-14261984D02*
X13271134Y-14300079D01*
X13347325Y-14261984D02*
X13347325Y-14300079D01*
X13642563Y-14538174D02*
X13633039Y-14528650D01*
X13633039Y-14528650D02*
X13613991Y-14500079D01*
X13613991Y-14500079D02*
X13604468Y-14481031D01*
X13604468Y-14481031D02*
X13594944Y-14452460D01*
X13594944Y-14452460D02*
X13585420Y-14404841D01*
X13585420Y-14404841D02*
X13585420Y-14366746D01*
X13585420Y-14366746D02*
X13594944Y-14319127D01*
X13594944Y-14319127D02*
X13604468Y-14290555D01*
X13604468Y-14290555D02*
X13613991Y-14271508D01*
X13613991Y-14271508D02*
X13633039Y-14242936D01*
X13633039Y-14242936D02*
X13642563Y-14233412D01*
X13823515Y-14461984D02*
X13709229Y-14461984D01*
X13766372Y-14461984D02*
X13766372Y-14261984D01*
X13766372Y-14261984D02*
X13747325Y-14290555D01*
X13747325Y-14290555D02*
X13728277Y-14309603D01*
X13728277Y-14309603D02*
X13709229Y-14319127D01*
X13994944Y-14261984D02*
X13956848Y-14261984D01*
X13956848Y-14261984D02*
X13937801Y-14271508D01*
X13937801Y-14271508D02*
X13928277Y-14281031D01*
X13928277Y-14281031D02*
X13909229Y-14309603D01*
X13909229Y-14309603D02*
X13899706Y-14347698D01*
X13899706Y-14347698D02*
X13899706Y-14423888D01*
X13899706Y-14423888D02*
X13909229Y-14442936D01*
X13909229Y-14442936D02*
X13918753Y-14452460D01*
X13918753Y-14452460D02*
X13937801Y-14461984D01*
X13937801Y-14461984D02*
X13975896Y-14461984D01*
X13975896Y-14461984D02*
X13994944Y-14452460D01*
X13994944Y-14452460D02*
X14004468Y-14442936D01*
X14004468Y-14442936D02*
X14013991Y-14423888D01*
X14013991Y-14423888D02*
X14013991Y-14376269D01*
X14013991Y-14376269D02*
X14004468Y-14357222D01*
X14004468Y-14357222D02*
X13994944Y-14347698D01*
X13994944Y-14347698D02*
X13975896Y-14338174D01*
X13975896Y-14338174D02*
X13937801Y-14338174D01*
X13937801Y-14338174D02*
X13918753Y-14347698D01*
X13918753Y-14347698D02*
X13909229Y-14357222D01*
X13909229Y-14357222D02*
X13899706Y-14376269D01*
X14252087Y-14461984D02*
X14252087Y-14261984D01*
X14337801Y-14461984D02*
X14337801Y-14357222D01*
X14337801Y-14357222D02*
X14328277Y-14338174D01*
X14328277Y-14338174D02*
X14309230Y-14328650D01*
X14309230Y-14328650D02*
X14280658Y-14328650D01*
X14280658Y-14328650D02*
X14261610Y-14338174D01*
X14261610Y-14338174D02*
X14252087Y-14347698D01*
X14461610Y-14461984D02*
X14442563Y-14452460D01*
X14442563Y-14452460D02*
X14433039Y-14442936D01*
X14433039Y-14442936D02*
X14423515Y-14423888D01*
X14423515Y-14423888D02*
X14423515Y-14366746D01*
X14423515Y-14366746D02*
X14433039Y-14347698D01*
X14433039Y-14347698D02*
X14442563Y-14338174D01*
X14442563Y-14338174D02*
X14461610Y-14328650D01*
X14461610Y-14328650D02*
X14490182Y-14328650D01*
X14490182Y-14328650D02*
X14509230Y-14338174D01*
X14509230Y-14338174D02*
X14518753Y-14347698D01*
X14518753Y-14347698D02*
X14528277Y-14366746D01*
X14528277Y-14366746D02*
X14528277Y-14423888D01*
X14528277Y-14423888D02*
X14518753Y-14442936D01*
X14518753Y-14442936D02*
X14509230Y-14452460D01*
X14509230Y-14452460D02*
X14490182Y-14461984D01*
X14490182Y-14461984D02*
X14461610Y-14461984D01*
X14642563Y-14461984D02*
X14623515Y-14452460D01*
X14623515Y-14452460D02*
X14613991Y-14433412D01*
X14613991Y-14433412D02*
X14613991Y-14261984D01*
X14794944Y-14452460D02*
X14775896Y-14461984D01*
X14775896Y-14461984D02*
X14737801Y-14461984D01*
X14737801Y-14461984D02*
X14718753Y-14452460D01*
X14718753Y-14452460D02*
X14709230Y-14433412D01*
X14709230Y-14433412D02*
X14709230Y-14357222D01*
X14709230Y-14357222D02*
X14718753Y-14338174D01*
X14718753Y-14338174D02*
X14737801Y-14328650D01*
X14737801Y-14328650D02*
X14775896Y-14328650D01*
X14775896Y-14328650D02*
X14794944Y-14338174D01*
X14794944Y-14338174D02*
X14804468Y-14357222D01*
X14804468Y-14357222D02*
X14804468Y-14376269D01*
X14804468Y-14376269D02*
X14709230Y-14395317D01*
X14880658Y-14452460D02*
X14899706Y-14461984D01*
X14899706Y-14461984D02*
X14937801Y-14461984D01*
X14937801Y-14461984D02*
X14956849Y-14452460D01*
X14956849Y-14452460D02*
X14966372Y-14433412D01*
X14966372Y-14433412D02*
X14966372Y-14423888D01*
X14966372Y-14423888D02*
X14956849Y-14404841D01*
X14956849Y-14404841D02*
X14937801Y-14395317D01*
X14937801Y-14395317D02*
X14909230Y-14395317D01*
X14909230Y-14395317D02*
X14890182Y-14385793D01*
X14890182Y-14385793D02*
X14880658Y-14366746D01*
X14880658Y-14366746D02*
X14880658Y-14357222D01*
X14880658Y-14357222D02*
X14890182Y-14338174D01*
X14890182Y-14338174D02*
X14909230Y-14328650D01*
X14909230Y-14328650D02*
X14937801Y-14328650D01*
X14937801Y-14328650D02*
X14956849Y-14338174D01*
X15033039Y-14538174D02*
X15042563Y-14528650D01*
X15042563Y-14528650D02*
X15061611Y-14500079D01*
X15061611Y-14500079D02*
X15071134Y-14481031D01*
X15071134Y-14481031D02*
X15080658Y-14452460D01*
X15080658Y-14452460D02*
X15090182Y-14404841D01*
X15090182Y-14404841D02*
X15090182Y-14366746D01*
X15090182Y-14366746D02*
X15080658Y-14319127D01*
X15080658Y-14319127D02*
X15071134Y-14290555D01*
X15071134Y-14290555D02*
X15061611Y-14271508D01*
X15061611Y-14271508D02*
X15042563Y-14242936D01*
X15042563Y-14242936D02*
X15033039Y-14233412D01*
D12*
X10052856Y-14669856D02*
X10052856Y-14599144D01*
X9982144Y-14599144D01*
X9982144Y-14669856D01*
X10052856Y-14669856D01*
D11*
X10433039Y-14725984D02*
X10318753Y-14725984D01*
X10375896Y-14725984D02*
X10375896Y-14525984D01*
X10375896Y-14525984D02*
X10356848Y-14554555D01*
X10356848Y-14554555D02*
X10337801Y-14573603D01*
X10337801Y-14573603D02*
X10318753Y-14583127D01*
X10518753Y-14706936D02*
X10528277Y-14716460D01*
X10528277Y-14716460D02*
X10518753Y-14725984D01*
X10518753Y-14725984D02*
X10509229Y-14716460D01*
X10509229Y-14716460D02*
X10518753Y-14706936D01*
X10518753Y-14706936D02*
X10518753Y-14725984D01*
X10652086Y-14525984D02*
X10671134Y-14525984D01*
X10671134Y-14525984D02*
X10690182Y-14535508D01*
X10690182Y-14535508D02*
X10699705Y-14545031D01*
X10699705Y-14545031D02*
X10709229Y-14564079D01*
X10709229Y-14564079D02*
X10718753Y-14602174D01*
X10718753Y-14602174D02*
X10718753Y-14649793D01*
X10718753Y-14649793D02*
X10709229Y-14687888D01*
X10709229Y-14687888D02*
X10699705Y-14706936D01*
X10699705Y-14706936D02*
X10690182Y-14716460D01*
X10690182Y-14716460D02*
X10671134Y-14725984D01*
X10671134Y-14725984D02*
X10652086Y-14725984D01*
X10652086Y-14725984D02*
X10633039Y-14716460D01*
X10633039Y-14716460D02*
X10623515Y-14706936D01*
X10623515Y-14706936D02*
X10613991Y-14687888D01*
X10613991Y-14687888D02*
X10604467Y-14649793D01*
X10604467Y-14649793D02*
X10604467Y-14602174D01*
X10604467Y-14602174D02*
X10613991Y-14564079D01*
X10613991Y-14564079D02*
X10623515Y-14545031D01*
X10623515Y-14545031D02*
X10633039Y-14535508D01*
X10633039Y-14535508D02*
X10652086Y-14525984D01*
X10842563Y-14525984D02*
X10861610Y-14525984D01*
X10861610Y-14525984D02*
X10880658Y-14535508D01*
X10880658Y-14535508D02*
X10890182Y-14545031D01*
X10890182Y-14545031D02*
X10899705Y-14564079D01*
X10899705Y-14564079D02*
X10909229Y-14602174D01*
X10909229Y-14602174D02*
X10909229Y-14649793D01*
X10909229Y-14649793D02*
X10899705Y-14687888D01*
X10899705Y-14687888D02*
X10890182Y-14706936D01*
X10890182Y-14706936D02*
X10880658Y-14716460D01*
X10880658Y-14716460D02*
X10861610Y-14725984D01*
X10861610Y-14725984D02*
X10842563Y-14725984D01*
X10842563Y-14725984D02*
X10823515Y-14716460D01*
X10823515Y-14716460D02*
X10813991Y-14706936D01*
X10813991Y-14706936D02*
X10804467Y-14687888D01*
X10804467Y-14687888D02*
X10794944Y-14649793D01*
X10794944Y-14649793D02*
X10794944Y-14602174D01*
X10794944Y-14602174D02*
X10804467Y-14564079D01*
X10804467Y-14564079D02*
X10813991Y-14545031D01*
X10813991Y-14545031D02*
X10823515Y-14535508D01*
X10823515Y-14535508D02*
X10842563Y-14525984D01*
X11033039Y-14525984D02*
X11052086Y-14525984D01*
X11052086Y-14525984D02*
X11071134Y-14535508D01*
X11071134Y-14535508D02*
X11080658Y-14545031D01*
X11080658Y-14545031D02*
X11090182Y-14564079D01*
X11090182Y-14564079D02*
X11099705Y-14602174D01*
X11099705Y-14602174D02*
X11099705Y-14649793D01*
X11099705Y-14649793D02*
X11090182Y-14687888D01*
X11090182Y-14687888D02*
X11080658Y-14706936D01*
X11080658Y-14706936D02*
X11071134Y-14716460D01*
X11071134Y-14716460D02*
X11052086Y-14725984D01*
X11052086Y-14725984D02*
X11033039Y-14725984D01*
X11033039Y-14725984D02*
X11013991Y-14716460D01*
X11013991Y-14716460D02*
X11004467Y-14706936D01*
X11004467Y-14706936D02*
X10994944Y-14687888D01*
X10994944Y-14687888D02*
X10985420Y-14649793D01*
X10985420Y-14649793D02*
X10985420Y-14602174D01*
X10985420Y-14602174D02*
X10994944Y-14564079D01*
X10994944Y-14564079D02*
X11004467Y-14545031D01*
X11004467Y-14545031D02*
X11013991Y-14535508D01*
X11013991Y-14535508D02*
X11033039Y-14525984D01*
X11185420Y-14725984D02*
X11185420Y-14592650D01*
X11185420Y-14611698D02*
X11194943Y-14602174D01*
X11194943Y-14602174D02*
X11213991Y-14592650D01*
X11213991Y-14592650D02*
X11242563Y-14592650D01*
X11242563Y-14592650D02*
X11261610Y-14602174D01*
X11261610Y-14602174D02*
X11271134Y-14621222D01*
X11271134Y-14621222D02*
X11271134Y-14725984D01*
X11271134Y-14621222D02*
X11280658Y-14602174D01*
X11280658Y-14602174D02*
X11299705Y-14592650D01*
X11299705Y-14592650D02*
X11328277Y-14592650D01*
X11328277Y-14592650D02*
X11347324Y-14602174D01*
X11347324Y-14602174D02*
X11356848Y-14621222D01*
X11356848Y-14621222D02*
X11356848Y-14725984D01*
X11452086Y-14725984D02*
X11452086Y-14592650D01*
X11452086Y-14611698D02*
X11461610Y-14602174D01*
X11461610Y-14602174D02*
X11480658Y-14592650D01*
X11480658Y-14592650D02*
X11509229Y-14592650D01*
X11509229Y-14592650D02*
X11528277Y-14602174D01*
X11528277Y-14602174D02*
X11537801Y-14621222D01*
X11537801Y-14621222D02*
X11537801Y-14725984D01*
X11537801Y-14621222D02*
X11547324Y-14602174D01*
X11547324Y-14602174D02*
X11566372Y-14592650D01*
X11566372Y-14592650D02*
X11594943Y-14592650D01*
X11594943Y-14592650D02*
X11613991Y-14602174D01*
X11613991Y-14602174D02*
X11623515Y-14621222D01*
X11623515Y-14621222D02*
X11623515Y-14725984D01*
X12013991Y-14516460D02*
X11842563Y-14773603D01*
X12271134Y-14525984D02*
X12290182Y-14525984D01*
X12290182Y-14525984D02*
X12309229Y-14535508D01*
X12309229Y-14535508D02*
X12318753Y-14545031D01*
X12318753Y-14545031D02*
X12328277Y-14564079D01*
X12328277Y-14564079D02*
X12337801Y-14602174D01*
X12337801Y-14602174D02*
X12337801Y-14649793D01*
X12337801Y-14649793D02*
X12328277Y-14687888D01*
X12328277Y-14687888D02*
X12318753Y-14706936D01*
X12318753Y-14706936D02*
X12309229Y-14716460D01*
X12309229Y-14716460D02*
X12290182Y-14725984D01*
X12290182Y-14725984D02*
X12271134Y-14725984D01*
X12271134Y-14725984D02*
X12252086Y-14716460D01*
X12252086Y-14716460D02*
X12242563Y-14706936D01*
X12242563Y-14706936D02*
X12233039Y-14687888D01*
X12233039Y-14687888D02*
X12223515Y-14649793D01*
X12223515Y-14649793D02*
X12223515Y-14602174D01*
X12223515Y-14602174D02*
X12233039Y-14564079D01*
X12233039Y-14564079D02*
X12242563Y-14545031D01*
X12242563Y-14545031D02*
X12252086Y-14535508D01*
X12252086Y-14535508D02*
X12271134Y-14525984D01*
X12423515Y-14706936D02*
X12433039Y-14716460D01*
X12433039Y-14716460D02*
X12423515Y-14725984D01*
X12423515Y-14725984D02*
X12413991Y-14716460D01*
X12413991Y-14716460D02*
X12423515Y-14706936D01*
X12423515Y-14706936D02*
X12423515Y-14725984D01*
X12556848Y-14525984D02*
X12575896Y-14525984D01*
X12575896Y-14525984D02*
X12594944Y-14535508D01*
X12594944Y-14535508D02*
X12604467Y-14545031D01*
X12604467Y-14545031D02*
X12613991Y-14564079D01*
X12613991Y-14564079D02*
X12623515Y-14602174D01*
X12623515Y-14602174D02*
X12623515Y-14649793D01*
X12623515Y-14649793D02*
X12613991Y-14687888D01*
X12613991Y-14687888D02*
X12604467Y-14706936D01*
X12604467Y-14706936D02*
X12594944Y-14716460D01*
X12594944Y-14716460D02*
X12575896Y-14725984D01*
X12575896Y-14725984D02*
X12556848Y-14725984D01*
X12556848Y-14725984D02*
X12537801Y-14716460D01*
X12537801Y-14716460D02*
X12528277Y-14706936D01*
X12528277Y-14706936D02*
X12518753Y-14687888D01*
X12518753Y-14687888D02*
X12509229Y-14649793D01*
X12509229Y-14649793D02*
X12509229Y-14602174D01*
X12509229Y-14602174D02*
X12518753Y-14564079D01*
X12518753Y-14564079D02*
X12528277Y-14545031D01*
X12528277Y-14545031D02*
X12537801Y-14535508D01*
X12537801Y-14535508D02*
X12556848Y-14525984D01*
X12690182Y-14525984D02*
X12813991Y-14525984D01*
X12813991Y-14525984D02*
X12747325Y-14602174D01*
X12747325Y-14602174D02*
X12775896Y-14602174D01*
X12775896Y-14602174D02*
X12794944Y-14611698D01*
X12794944Y-14611698D02*
X12804467Y-14621222D01*
X12804467Y-14621222D02*
X12813991Y-14640269D01*
X12813991Y-14640269D02*
X12813991Y-14687888D01*
X12813991Y-14687888D02*
X12804467Y-14706936D01*
X12804467Y-14706936D02*
X12794944Y-14716460D01*
X12794944Y-14716460D02*
X12775896Y-14725984D01*
X12775896Y-14725984D02*
X12718753Y-14725984D01*
X12718753Y-14725984D02*
X12699706Y-14716460D01*
X12699706Y-14716460D02*
X12690182Y-14706936D01*
X12909229Y-14725984D02*
X12947325Y-14725984D01*
X12947325Y-14725984D02*
X12966372Y-14716460D01*
X12966372Y-14716460D02*
X12975896Y-14706936D01*
X12975896Y-14706936D02*
X12994944Y-14678365D01*
X12994944Y-14678365D02*
X13004467Y-14640269D01*
X13004467Y-14640269D02*
X13004467Y-14564079D01*
X13004467Y-14564079D02*
X12994944Y-14545031D01*
X12994944Y-14545031D02*
X12985420Y-14535508D01*
X12985420Y-14535508D02*
X12966372Y-14525984D01*
X12966372Y-14525984D02*
X12928277Y-14525984D01*
X12928277Y-14525984D02*
X12909229Y-14535508D01*
X12909229Y-14535508D02*
X12899706Y-14545031D01*
X12899706Y-14545031D02*
X12890182Y-14564079D01*
X12890182Y-14564079D02*
X12890182Y-14611698D01*
X12890182Y-14611698D02*
X12899706Y-14630746D01*
X12899706Y-14630746D02*
X12909229Y-14640269D01*
X12909229Y-14640269D02*
X12928277Y-14649793D01*
X12928277Y-14649793D02*
X12966372Y-14649793D01*
X12966372Y-14649793D02*
X12985420Y-14640269D01*
X12985420Y-14640269D02*
X12994944Y-14630746D01*
X12994944Y-14630746D02*
X13004467Y-14611698D01*
X13175896Y-14592650D02*
X13175896Y-14725984D01*
X13128277Y-14516460D02*
X13080658Y-14659317D01*
X13080658Y-14659317D02*
X13204467Y-14659317D01*
X13271134Y-14525984D02*
X13271134Y-14564079D01*
X13347325Y-14525984D02*
X13347325Y-14564079D01*
X13642563Y-14802174D02*
X13633039Y-14792650D01*
X13633039Y-14792650D02*
X13613991Y-14764079D01*
X13613991Y-14764079D02*
X13604468Y-14745031D01*
X13604468Y-14745031D02*
X13594944Y-14716460D01*
X13594944Y-14716460D02*
X13585420Y-14668841D01*
X13585420Y-14668841D02*
X13585420Y-14630746D01*
X13585420Y-14630746D02*
X13594944Y-14583127D01*
X13594944Y-14583127D02*
X13604468Y-14554555D01*
X13604468Y-14554555D02*
X13613991Y-14535508D01*
X13613991Y-14535508D02*
X13633039Y-14506936D01*
X13633039Y-14506936D02*
X13642563Y-14497412D01*
X13823515Y-14725984D02*
X13709229Y-14725984D01*
X13766372Y-14725984D02*
X13766372Y-14525984D01*
X13766372Y-14525984D02*
X13747325Y-14554555D01*
X13747325Y-14554555D02*
X13728277Y-14573603D01*
X13728277Y-14573603D02*
X13709229Y-14583127D01*
X13994944Y-14525984D02*
X13956848Y-14525984D01*
X13956848Y-14525984D02*
X13937801Y-14535508D01*
X13937801Y-14535508D02*
X13928277Y-14545031D01*
X13928277Y-14545031D02*
X13909229Y-14573603D01*
X13909229Y-14573603D02*
X13899706Y-14611698D01*
X13899706Y-14611698D02*
X13899706Y-14687888D01*
X13899706Y-14687888D02*
X13909229Y-14706936D01*
X13909229Y-14706936D02*
X13918753Y-14716460D01*
X13918753Y-14716460D02*
X13937801Y-14725984D01*
X13937801Y-14725984D02*
X13975896Y-14725984D01*
X13975896Y-14725984D02*
X13994944Y-14716460D01*
X13994944Y-14716460D02*
X14004468Y-14706936D01*
X14004468Y-14706936D02*
X14013991Y-14687888D01*
X14013991Y-14687888D02*
X14013991Y-14640269D01*
X14013991Y-14640269D02*
X14004468Y-14621222D01*
X14004468Y-14621222D02*
X13994944Y-14611698D01*
X13994944Y-14611698D02*
X13975896Y-14602174D01*
X13975896Y-14602174D02*
X13937801Y-14602174D01*
X13937801Y-14602174D02*
X13918753Y-14611698D01*
X13918753Y-14611698D02*
X13909229Y-14621222D01*
X13909229Y-14621222D02*
X13899706Y-14640269D01*
X14090182Y-14545031D02*
X14099706Y-14535508D01*
X14099706Y-14535508D02*
X14118753Y-14525984D01*
X14118753Y-14525984D02*
X14166372Y-14525984D01*
X14166372Y-14525984D02*
X14185420Y-14535508D01*
X14185420Y-14535508D02*
X14194944Y-14545031D01*
X14194944Y-14545031D02*
X14204468Y-14564079D01*
X14204468Y-14564079D02*
X14204468Y-14583127D01*
X14204468Y-14583127D02*
X14194944Y-14611698D01*
X14194944Y-14611698D02*
X14080658Y-14725984D01*
X14080658Y-14725984D02*
X14204468Y-14725984D01*
X14442563Y-14725984D02*
X14442563Y-14525984D01*
X14528277Y-14725984D02*
X14528277Y-14621222D01*
X14528277Y-14621222D02*
X14518753Y-14602174D01*
X14518753Y-14602174D02*
X14499706Y-14592650D01*
X14499706Y-14592650D02*
X14471134Y-14592650D01*
X14471134Y-14592650D02*
X14452087Y-14602174D01*
X14452087Y-14602174D02*
X14442563Y-14611698D01*
X14652087Y-14725984D02*
X14633039Y-14716460D01*
X14633039Y-14716460D02*
X14623515Y-14706936D01*
X14623515Y-14706936D02*
X14613991Y-14687888D01*
X14613991Y-14687888D02*
X14613991Y-14630746D01*
X14613991Y-14630746D02*
X14623515Y-14611698D01*
X14623515Y-14611698D02*
X14633039Y-14602174D01*
X14633039Y-14602174D02*
X14652087Y-14592650D01*
X14652087Y-14592650D02*
X14680658Y-14592650D01*
X14680658Y-14592650D02*
X14699706Y-14602174D01*
X14699706Y-14602174D02*
X14709230Y-14611698D01*
X14709230Y-14611698D02*
X14718753Y-14630746D01*
X14718753Y-14630746D02*
X14718753Y-14687888D01*
X14718753Y-14687888D02*
X14709230Y-14706936D01*
X14709230Y-14706936D02*
X14699706Y-14716460D01*
X14699706Y-14716460D02*
X14680658Y-14725984D01*
X14680658Y-14725984D02*
X14652087Y-14725984D01*
X14833039Y-14725984D02*
X14813991Y-14716460D01*
X14813991Y-14716460D02*
X14804468Y-14697412D01*
X14804468Y-14697412D02*
X14804468Y-14525984D01*
X14985420Y-14716460D02*
X14966372Y-14725984D01*
X14966372Y-14725984D02*
X14928277Y-14725984D01*
X14928277Y-14725984D02*
X14909230Y-14716460D01*
X14909230Y-14716460D02*
X14899706Y-14697412D01*
X14899706Y-14697412D02*
X14899706Y-14621222D01*
X14899706Y-14621222D02*
X14909230Y-14602174D01*
X14909230Y-14602174D02*
X14928277Y-14592650D01*
X14928277Y-14592650D02*
X14966372Y-14592650D01*
X14966372Y-14592650D02*
X14985420Y-14602174D01*
X14985420Y-14602174D02*
X14994944Y-14621222D01*
X14994944Y-14621222D02*
X14994944Y-14640269D01*
X14994944Y-14640269D02*
X14899706Y-14659317D01*
X15071134Y-14716460D02*
X15090182Y-14725984D01*
X15090182Y-14725984D02*
X15128277Y-14725984D01*
X15128277Y-14725984D02*
X15147325Y-14716460D01*
X15147325Y-14716460D02*
X15156849Y-14697412D01*
X15156849Y-14697412D02*
X15156849Y-14687888D01*
X15156849Y-14687888D02*
X15147325Y-14668841D01*
X15147325Y-14668841D02*
X15128277Y-14659317D01*
X15128277Y-14659317D02*
X15099706Y-14659317D01*
X15099706Y-14659317D02*
X15080658Y-14649793D01*
X15080658Y-14649793D02*
X15071134Y-14630746D01*
X15071134Y-14630746D02*
X15071134Y-14621222D01*
X15071134Y-14621222D02*
X15080658Y-14602174D01*
X15080658Y-14602174D02*
X15099706Y-14592650D01*
X15099706Y-14592650D02*
X15128277Y-14592650D01*
X15128277Y-14592650D02*
X15147325Y-14602174D01*
X15394944Y-14649793D02*
X15547325Y-14649793D01*
X15471134Y-14725984D02*
X15471134Y-14573603D01*
X15775896Y-14525984D02*
X15899706Y-14525984D01*
X15899706Y-14525984D02*
X15833039Y-14602174D01*
X15833039Y-14602174D02*
X15861611Y-14602174D01*
X15861611Y-14602174D02*
X15880658Y-14611698D01*
X15880658Y-14611698D02*
X15890182Y-14621222D01*
X15890182Y-14621222D02*
X15899706Y-14640269D01*
X15899706Y-14640269D02*
X15899706Y-14687888D01*
X15899706Y-14687888D02*
X15890182Y-14706936D01*
X15890182Y-14706936D02*
X15880658Y-14716460D01*
X15880658Y-14716460D02*
X15861611Y-14725984D01*
X15861611Y-14725984D02*
X15804468Y-14725984D01*
X15804468Y-14725984D02*
X15785420Y-14716460D01*
X15785420Y-14716460D02*
X15775896Y-14706936D01*
X16128277Y-14716460D02*
X16147325Y-14725984D01*
X16147325Y-14725984D02*
X16185420Y-14725984D01*
X16185420Y-14725984D02*
X16204468Y-14716460D01*
X16204468Y-14716460D02*
X16213992Y-14697412D01*
X16213992Y-14697412D02*
X16213992Y-14687888D01*
X16213992Y-14687888D02*
X16204468Y-14668841D01*
X16204468Y-14668841D02*
X16185420Y-14659317D01*
X16185420Y-14659317D02*
X16156849Y-14659317D01*
X16156849Y-14659317D02*
X16137801Y-14649793D01*
X16137801Y-14649793D02*
X16128277Y-14630746D01*
X16128277Y-14630746D02*
X16128277Y-14621222D01*
X16128277Y-14621222D02*
X16137801Y-14602174D01*
X16137801Y-14602174D02*
X16156849Y-14592650D01*
X16156849Y-14592650D02*
X16185420Y-14592650D01*
X16185420Y-14592650D02*
X16204468Y-14602174D01*
X16328277Y-14725984D02*
X16309230Y-14716460D01*
X16309230Y-14716460D02*
X16299706Y-14697412D01*
X16299706Y-14697412D02*
X16299706Y-14525984D01*
X16433039Y-14725984D02*
X16413992Y-14716460D01*
X16413992Y-14716460D02*
X16404468Y-14706936D01*
X16404468Y-14706936D02*
X16394944Y-14687888D01*
X16394944Y-14687888D02*
X16394944Y-14630746D01*
X16394944Y-14630746D02*
X16404468Y-14611698D01*
X16404468Y-14611698D02*
X16413992Y-14602174D01*
X16413992Y-14602174D02*
X16433039Y-14592650D01*
X16433039Y-14592650D02*
X16461611Y-14592650D01*
X16461611Y-14592650D02*
X16480658Y-14602174D01*
X16480658Y-14602174D02*
X16490182Y-14611698D01*
X16490182Y-14611698D02*
X16499706Y-14630746D01*
X16499706Y-14630746D02*
X16499706Y-14687888D01*
X16499706Y-14687888D02*
X16490182Y-14706936D01*
X16490182Y-14706936D02*
X16480658Y-14716460D01*
X16480658Y-14716460D02*
X16461611Y-14725984D01*
X16461611Y-14725984D02*
X16433039Y-14725984D01*
X16556849Y-14592650D02*
X16633039Y-14592650D01*
X16585420Y-14525984D02*
X16585420Y-14697412D01*
X16585420Y-14697412D02*
X16594944Y-14716460D01*
X16594944Y-14716460D02*
X16613992Y-14725984D01*
X16613992Y-14725984D02*
X16633039Y-14725984D01*
X16690182Y-14716460D02*
X16709230Y-14725984D01*
X16709230Y-14725984D02*
X16747325Y-14725984D01*
X16747325Y-14725984D02*
X16766373Y-14716460D01*
X16766373Y-14716460D02*
X16775896Y-14697412D01*
X16775896Y-14697412D02*
X16775896Y-14687888D01*
X16775896Y-14687888D02*
X16766373Y-14668841D01*
X16766373Y-14668841D02*
X16747325Y-14659317D01*
X16747325Y-14659317D02*
X16718754Y-14659317D01*
X16718754Y-14659317D02*
X16699706Y-14649793D01*
X16699706Y-14649793D02*
X16690182Y-14630746D01*
X16690182Y-14630746D02*
X16690182Y-14621222D01*
X16690182Y-14621222D02*
X16699706Y-14602174D01*
X16699706Y-14602174D02*
X16718754Y-14592650D01*
X16718754Y-14592650D02*
X16747325Y-14592650D01*
X16747325Y-14592650D02*
X16766373Y-14602174D01*
X16842563Y-14802174D02*
X16852087Y-14792650D01*
X16852087Y-14792650D02*
X16871135Y-14764079D01*
X16871135Y-14764079D02*
X16880658Y-14745031D01*
X16880658Y-14745031D02*
X16890182Y-14716460D01*
X16890182Y-14716460D02*
X16899706Y-14668841D01*
X16899706Y-14668841D02*
X16899706Y-14630746D01*
X16899706Y-14630746D02*
X16890182Y-14583127D01*
X16890182Y-14583127D02*
X16880658Y-14554555D01*
X16880658Y-14554555D02*
X16871135Y-14535508D01*
X16871135Y-14535508D02*
X16852087Y-14506936D01*
X16852087Y-14506936D02*
X16842563Y-14497412D01*
D13*
X10016500Y-14949500D02*
X10067500Y-14898500D01*
X10016500Y-14847500D01*
X9965500Y-14898500D01*
X10016500Y-14949500D01*
D11*
X10433039Y-14989984D02*
X10318753Y-14989984D01*
X10375896Y-14989984D02*
X10375896Y-14789984D01*
X10375896Y-14789984D02*
X10356848Y-14818555D01*
X10356848Y-14818555D02*
X10337801Y-14837603D01*
X10337801Y-14837603D02*
X10318753Y-14847127D01*
X10518753Y-14970936D02*
X10528277Y-14980460D01*
X10528277Y-14980460D02*
X10518753Y-14989984D01*
X10518753Y-14989984D02*
X10509229Y-14980460D01*
X10509229Y-14980460D02*
X10518753Y-14970936D01*
X10518753Y-14970936D02*
X10518753Y-14989984D01*
X10652086Y-14789984D02*
X10671134Y-14789984D01*
X10671134Y-14789984D02*
X10690182Y-14799508D01*
X10690182Y-14799508D02*
X10699705Y-14809031D01*
X10699705Y-14809031D02*
X10709229Y-14828079D01*
X10709229Y-14828079D02*
X10718753Y-14866174D01*
X10718753Y-14866174D02*
X10718753Y-14913793D01*
X10718753Y-14913793D02*
X10709229Y-14951888D01*
X10709229Y-14951888D02*
X10699705Y-14970936D01*
X10699705Y-14970936D02*
X10690182Y-14980460D01*
X10690182Y-14980460D02*
X10671134Y-14989984D01*
X10671134Y-14989984D02*
X10652086Y-14989984D01*
X10652086Y-14989984D02*
X10633039Y-14980460D01*
X10633039Y-14980460D02*
X10623515Y-14970936D01*
X10623515Y-14970936D02*
X10613991Y-14951888D01*
X10613991Y-14951888D02*
X10604467Y-14913793D01*
X10604467Y-14913793D02*
X10604467Y-14866174D01*
X10604467Y-14866174D02*
X10613991Y-14828079D01*
X10613991Y-14828079D02*
X10623515Y-14809031D01*
X10623515Y-14809031D02*
X10633039Y-14799508D01*
X10633039Y-14799508D02*
X10652086Y-14789984D01*
X10794944Y-14809031D02*
X10804467Y-14799508D01*
X10804467Y-14799508D02*
X10823515Y-14789984D01*
X10823515Y-14789984D02*
X10871134Y-14789984D01*
X10871134Y-14789984D02*
X10890182Y-14799508D01*
X10890182Y-14799508D02*
X10899705Y-14809031D01*
X10899705Y-14809031D02*
X10909229Y-14828079D01*
X10909229Y-14828079D02*
X10909229Y-14847127D01*
X10909229Y-14847127D02*
X10899705Y-14875698D01*
X10899705Y-14875698D02*
X10785420Y-14989984D01*
X10785420Y-14989984D02*
X10909229Y-14989984D01*
X11033039Y-14789984D02*
X11052086Y-14789984D01*
X11052086Y-14789984D02*
X11071134Y-14799508D01*
X11071134Y-14799508D02*
X11080658Y-14809031D01*
X11080658Y-14809031D02*
X11090182Y-14828079D01*
X11090182Y-14828079D02*
X11099705Y-14866174D01*
X11099705Y-14866174D02*
X11099705Y-14913793D01*
X11099705Y-14913793D02*
X11090182Y-14951888D01*
X11090182Y-14951888D02*
X11080658Y-14970936D01*
X11080658Y-14970936D02*
X11071134Y-14980460D01*
X11071134Y-14980460D02*
X11052086Y-14989984D01*
X11052086Y-14989984D02*
X11033039Y-14989984D01*
X11033039Y-14989984D02*
X11013991Y-14980460D01*
X11013991Y-14980460D02*
X11004467Y-14970936D01*
X11004467Y-14970936D02*
X10994944Y-14951888D01*
X10994944Y-14951888D02*
X10985420Y-14913793D01*
X10985420Y-14913793D02*
X10985420Y-14866174D01*
X10985420Y-14866174D02*
X10994944Y-14828079D01*
X10994944Y-14828079D02*
X11004467Y-14809031D01*
X11004467Y-14809031D02*
X11013991Y-14799508D01*
X11013991Y-14799508D02*
X11033039Y-14789984D01*
X11185420Y-14989984D02*
X11185420Y-14856650D01*
X11185420Y-14875698D02*
X11194943Y-14866174D01*
X11194943Y-14866174D02*
X11213991Y-14856650D01*
X11213991Y-14856650D02*
X11242563Y-14856650D01*
X11242563Y-14856650D02*
X11261610Y-14866174D01*
X11261610Y-14866174D02*
X11271134Y-14885222D01*
X11271134Y-14885222D02*
X11271134Y-14989984D01*
X11271134Y-14885222D02*
X11280658Y-14866174D01*
X11280658Y-14866174D02*
X11299705Y-14856650D01*
X11299705Y-14856650D02*
X11328277Y-14856650D01*
X11328277Y-14856650D02*
X11347324Y-14866174D01*
X11347324Y-14866174D02*
X11356848Y-14885222D01*
X11356848Y-14885222D02*
X11356848Y-14989984D01*
X11452086Y-14989984D02*
X11452086Y-14856650D01*
X11452086Y-14875698D02*
X11461610Y-14866174D01*
X11461610Y-14866174D02*
X11480658Y-14856650D01*
X11480658Y-14856650D02*
X11509229Y-14856650D01*
X11509229Y-14856650D02*
X11528277Y-14866174D01*
X11528277Y-14866174D02*
X11537801Y-14885222D01*
X11537801Y-14885222D02*
X11537801Y-14989984D01*
X11537801Y-14885222D02*
X11547324Y-14866174D01*
X11547324Y-14866174D02*
X11566372Y-14856650D01*
X11566372Y-14856650D02*
X11594943Y-14856650D01*
X11594943Y-14856650D02*
X11613991Y-14866174D01*
X11613991Y-14866174D02*
X11623515Y-14885222D01*
X11623515Y-14885222D02*
X11623515Y-14989984D01*
X12013991Y-14780460D02*
X11842563Y-15037603D01*
X12271134Y-14789984D02*
X12290182Y-14789984D01*
X12290182Y-14789984D02*
X12309229Y-14799508D01*
X12309229Y-14799508D02*
X12318753Y-14809031D01*
X12318753Y-14809031D02*
X12328277Y-14828079D01*
X12328277Y-14828079D02*
X12337801Y-14866174D01*
X12337801Y-14866174D02*
X12337801Y-14913793D01*
X12337801Y-14913793D02*
X12328277Y-14951888D01*
X12328277Y-14951888D02*
X12318753Y-14970936D01*
X12318753Y-14970936D02*
X12309229Y-14980460D01*
X12309229Y-14980460D02*
X12290182Y-14989984D01*
X12290182Y-14989984D02*
X12271134Y-14989984D01*
X12271134Y-14989984D02*
X12252086Y-14980460D01*
X12252086Y-14980460D02*
X12242563Y-14970936D01*
X12242563Y-14970936D02*
X12233039Y-14951888D01*
X12233039Y-14951888D02*
X12223515Y-14913793D01*
X12223515Y-14913793D02*
X12223515Y-14866174D01*
X12223515Y-14866174D02*
X12233039Y-14828079D01*
X12233039Y-14828079D02*
X12242563Y-14809031D01*
X12242563Y-14809031D02*
X12252086Y-14799508D01*
X12252086Y-14799508D02*
X12271134Y-14789984D01*
X12423515Y-14970936D02*
X12433039Y-14980460D01*
X12433039Y-14980460D02*
X12423515Y-14989984D01*
X12423515Y-14989984D02*
X12413991Y-14980460D01*
X12413991Y-14980460D02*
X12423515Y-14970936D01*
X12423515Y-14970936D02*
X12423515Y-14989984D01*
X12556848Y-14789984D02*
X12575896Y-14789984D01*
X12575896Y-14789984D02*
X12594944Y-14799508D01*
X12594944Y-14799508D02*
X12604467Y-14809031D01*
X12604467Y-14809031D02*
X12613991Y-14828079D01*
X12613991Y-14828079D02*
X12623515Y-14866174D01*
X12623515Y-14866174D02*
X12623515Y-14913793D01*
X12623515Y-14913793D02*
X12613991Y-14951888D01*
X12613991Y-14951888D02*
X12604467Y-14970936D01*
X12604467Y-14970936D02*
X12594944Y-14980460D01*
X12594944Y-14980460D02*
X12575896Y-14989984D01*
X12575896Y-14989984D02*
X12556848Y-14989984D01*
X12556848Y-14989984D02*
X12537801Y-14980460D01*
X12537801Y-14980460D02*
X12528277Y-14970936D01*
X12528277Y-14970936D02*
X12518753Y-14951888D01*
X12518753Y-14951888D02*
X12509229Y-14913793D01*
X12509229Y-14913793D02*
X12509229Y-14866174D01*
X12509229Y-14866174D02*
X12518753Y-14828079D01*
X12518753Y-14828079D02*
X12528277Y-14809031D01*
X12528277Y-14809031D02*
X12537801Y-14799508D01*
X12537801Y-14799508D02*
X12556848Y-14789984D01*
X12794944Y-14856650D02*
X12794944Y-14989984D01*
X12747325Y-14780460D02*
X12699706Y-14923317D01*
X12699706Y-14923317D02*
X12823515Y-14923317D01*
X12937801Y-14789984D02*
X12956848Y-14789984D01*
X12956848Y-14789984D02*
X12975896Y-14799508D01*
X12975896Y-14799508D02*
X12985420Y-14809031D01*
X12985420Y-14809031D02*
X12994944Y-14828079D01*
X12994944Y-14828079D02*
X13004467Y-14866174D01*
X13004467Y-14866174D02*
X13004467Y-14913793D01*
X13004467Y-14913793D02*
X12994944Y-14951888D01*
X12994944Y-14951888D02*
X12985420Y-14970936D01*
X12985420Y-14970936D02*
X12975896Y-14980460D01*
X12975896Y-14980460D02*
X12956848Y-14989984D01*
X12956848Y-14989984D02*
X12937801Y-14989984D01*
X12937801Y-14989984D02*
X12918753Y-14980460D01*
X12918753Y-14980460D02*
X12909229Y-14970936D01*
X12909229Y-14970936D02*
X12899706Y-14951888D01*
X12899706Y-14951888D02*
X12890182Y-14913793D01*
X12890182Y-14913793D02*
X12890182Y-14866174D01*
X12890182Y-14866174D02*
X12899706Y-14828079D01*
X12899706Y-14828079D02*
X12909229Y-14809031D01*
X12909229Y-14809031D02*
X12918753Y-14799508D01*
X12918753Y-14799508D02*
X12937801Y-14789984D01*
X13080658Y-14809031D02*
X13090182Y-14799508D01*
X13090182Y-14799508D02*
X13109229Y-14789984D01*
X13109229Y-14789984D02*
X13156848Y-14789984D01*
X13156848Y-14789984D02*
X13175896Y-14799508D01*
X13175896Y-14799508D02*
X13185420Y-14809031D01*
X13185420Y-14809031D02*
X13194944Y-14828079D01*
X13194944Y-14828079D02*
X13194944Y-14847127D01*
X13194944Y-14847127D02*
X13185420Y-14875698D01*
X13185420Y-14875698D02*
X13071134Y-14989984D01*
X13071134Y-14989984D02*
X13194944Y-14989984D01*
X13271134Y-14789984D02*
X13271134Y-14828079D01*
X13347325Y-14789984D02*
X13347325Y-14828079D01*
X13642563Y-15066174D02*
X13633039Y-15056650D01*
X13633039Y-15056650D02*
X13613991Y-15028079D01*
X13613991Y-15028079D02*
X13604468Y-15009031D01*
X13604468Y-15009031D02*
X13594944Y-14980460D01*
X13594944Y-14980460D02*
X13585420Y-14932841D01*
X13585420Y-14932841D02*
X13585420Y-14894746D01*
X13585420Y-14894746D02*
X13594944Y-14847127D01*
X13594944Y-14847127D02*
X13604468Y-14818555D01*
X13604468Y-14818555D02*
X13613991Y-14799508D01*
X13613991Y-14799508D02*
X13633039Y-14770936D01*
X13633039Y-14770936D02*
X13642563Y-14761412D01*
X13804468Y-14856650D02*
X13804468Y-14989984D01*
X13756848Y-14780460D02*
X13709229Y-14923317D01*
X13709229Y-14923317D02*
X13833039Y-14923317D01*
X13947325Y-14789984D02*
X13966372Y-14789984D01*
X13966372Y-14789984D02*
X13985420Y-14799508D01*
X13985420Y-14799508D02*
X13994944Y-14809031D01*
X13994944Y-14809031D02*
X14004468Y-14828079D01*
X14004468Y-14828079D02*
X14013991Y-14866174D01*
X14013991Y-14866174D02*
X14013991Y-14913793D01*
X14013991Y-14913793D02*
X14004468Y-14951888D01*
X14004468Y-14951888D02*
X13994944Y-14970936D01*
X13994944Y-14970936D02*
X13985420Y-14980460D01*
X13985420Y-14980460D02*
X13966372Y-14989984D01*
X13966372Y-14989984D02*
X13947325Y-14989984D01*
X13947325Y-14989984D02*
X13928277Y-14980460D01*
X13928277Y-14980460D02*
X13918753Y-14970936D01*
X13918753Y-14970936D02*
X13909229Y-14951888D01*
X13909229Y-14951888D02*
X13899706Y-14913793D01*
X13899706Y-14913793D02*
X13899706Y-14866174D01*
X13899706Y-14866174D02*
X13909229Y-14828079D01*
X13909229Y-14828079D02*
X13918753Y-14809031D01*
X13918753Y-14809031D02*
X13928277Y-14799508D01*
X13928277Y-14799508D02*
X13947325Y-14789984D01*
X14252087Y-14989984D02*
X14252087Y-14789984D01*
X14337801Y-14989984D02*
X14337801Y-14885222D01*
X14337801Y-14885222D02*
X14328277Y-14866174D01*
X14328277Y-14866174D02*
X14309230Y-14856650D01*
X14309230Y-14856650D02*
X14280658Y-14856650D01*
X14280658Y-14856650D02*
X14261610Y-14866174D01*
X14261610Y-14866174D02*
X14252087Y-14875698D01*
X14461610Y-14989984D02*
X14442563Y-14980460D01*
X14442563Y-14980460D02*
X14433039Y-14970936D01*
X14433039Y-14970936D02*
X14423515Y-14951888D01*
X14423515Y-14951888D02*
X14423515Y-14894746D01*
X14423515Y-14894746D02*
X14433039Y-14875698D01*
X14433039Y-14875698D02*
X14442563Y-14866174D01*
X14442563Y-14866174D02*
X14461610Y-14856650D01*
X14461610Y-14856650D02*
X14490182Y-14856650D01*
X14490182Y-14856650D02*
X14509230Y-14866174D01*
X14509230Y-14866174D02*
X14518753Y-14875698D01*
X14518753Y-14875698D02*
X14528277Y-14894746D01*
X14528277Y-14894746D02*
X14528277Y-14951888D01*
X14528277Y-14951888D02*
X14518753Y-14970936D01*
X14518753Y-14970936D02*
X14509230Y-14980460D01*
X14509230Y-14980460D02*
X14490182Y-14989984D01*
X14490182Y-14989984D02*
X14461610Y-14989984D01*
X14642563Y-14989984D02*
X14623515Y-14980460D01*
X14623515Y-14980460D02*
X14613991Y-14961412D01*
X14613991Y-14961412D02*
X14613991Y-14789984D01*
X14794944Y-14980460D02*
X14775896Y-14989984D01*
X14775896Y-14989984D02*
X14737801Y-14989984D01*
X14737801Y-14989984D02*
X14718753Y-14980460D01*
X14718753Y-14980460D02*
X14709230Y-14961412D01*
X14709230Y-14961412D02*
X14709230Y-14885222D01*
X14709230Y-14885222D02*
X14718753Y-14866174D01*
X14718753Y-14866174D02*
X14737801Y-14856650D01*
X14737801Y-14856650D02*
X14775896Y-14856650D01*
X14775896Y-14856650D02*
X14794944Y-14866174D01*
X14794944Y-14866174D02*
X14804468Y-14885222D01*
X14804468Y-14885222D02*
X14804468Y-14904269D01*
X14804468Y-14904269D02*
X14709230Y-14923317D01*
X14880658Y-14980460D02*
X14899706Y-14989984D01*
X14899706Y-14989984D02*
X14937801Y-14989984D01*
X14937801Y-14989984D02*
X14956849Y-14980460D01*
X14956849Y-14980460D02*
X14966372Y-14961412D01*
X14966372Y-14961412D02*
X14966372Y-14951888D01*
X14966372Y-14951888D02*
X14956849Y-14932841D01*
X14956849Y-14932841D02*
X14937801Y-14923317D01*
X14937801Y-14923317D02*
X14909230Y-14923317D01*
X14909230Y-14923317D02*
X14890182Y-14913793D01*
X14890182Y-14913793D02*
X14880658Y-14894746D01*
X14880658Y-14894746D02*
X14880658Y-14885222D01*
X14880658Y-14885222D02*
X14890182Y-14866174D01*
X14890182Y-14866174D02*
X14909230Y-14856650D01*
X14909230Y-14856650D02*
X14937801Y-14856650D01*
X14937801Y-14856650D02*
X14956849Y-14866174D01*
X15033039Y-15066174D02*
X15042563Y-15056650D01*
X15042563Y-15056650D02*
X15061611Y-15028079D01*
X15061611Y-15028079D02*
X15071134Y-15009031D01*
X15071134Y-15009031D02*
X15080658Y-14980460D01*
X15080658Y-14980460D02*
X15090182Y-14932841D01*
X15090182Y-14932841D02*
X15090182Y-14894746D01*
X15090182Y-14894746D02*
X15080658Y-14847127D01*
X15080658Y-14847127D02*
X15071134Y-14818555D01*
X15071134Y-14818555D02*
X15061611Y-14799508D01*
X15061611Y-14799508D02*
X15042563Y-14770936D01*
X15042563Y-14770936D02*
X15033039Y-14761412D01*
D14*
X9957500Y-15107500D02*
X10067500Y-15217500D01*
X10067500Y-15107500D02*
X9957500Y-15217500D01*
X10067500Y-15162500D02*
G75*
G02*
X9957500Y-15162500I-55000J0D01*
G01*
X9957500Y-15162500D02*
G75*
G02*
X10067500Y-15162500I55000J0D01*
G01*
D11*
X10433039Y-15253984D02*
X10318753Y-15253984D01*
X10375896Y-15253984D02*
X10375896Y-15053984D01*
X10375896Y-15053984D02*
X10356848Y-15082555D01*
X10356848Y-15082555D02*
X10337801Y-15101603D01*
X10337801Y-15101603D02*
X10318753Y-15111127D01*
X10518753Y-15234936D02*
X10528277Y-15244460D01*
X10528277Y-15244460D02*
X10518753Y-15253984D01*
X10518753Y-15253984D02*
X10509229Y-15244460D01*
X10509229Y-15244460D02*
X10518753Y-15234936D01*
X10518753Y-15234936D02*
X10518753Y-15253984D01*
X10718753Y-15253984D02*
X10604467Y-15253984D01*
X10661610Y-15253984D02*
X10661610Y-15053984D01*
X10661610Y-15053984D02*
X10642563Y-15082555D01*
X10642563Y-15082555D02*
X10623515Y-15101603D01*
X10623515Y-15101603D02*
X10604467Y-15111127D01*
X10842563Y-15053984D02*
X10861610Y-15053984D01*
X10861610Y-15053984D02*
X10880658Y-15063508D01*
X10880658Y-15063508D02*
X10890182Y-15073031D01*
X10890182Y-15073031D02*
X10899705Y-15092079D01*
X10899705Y-15092079D02*
X10909229Y-15130174D01*
X10909229Y-15130174D02*
X10909229Y-15177793D01*
X10909229Y-15177793D02*
X10899705Y-15215888D01*
X10899705Y-15215888D02*
X10890182Y-15234936D01*
X10890182Y-15234936D02*
X10880658Y-15244460D01*
X10880658Y-15244460D02*
X10861610Y-15253984D01*
X10861610Y-15253984D02*
X10842563Y-15253984D01*
X10842563Y-15253984D02*
X10823515Y-15244460D01*
X10823515Y-15244460D02*
X10813991Y-15234936D01*
X10813991Y-15234936D02*
X10804467Y-15215888D01*
X10804467Y-15215888D02*
X10794944Y-15177793D01*
X10794944Y-15177793D02*
X10794944Y-15130174D01*
X10794944Y-15130174D02*
X10804467Y-15092079D01*
X10804467Y-15092079D02*
X10813991Y-15073031D01*
X10813991Y-15073031D02*
X10823515Y-15063508D01*
X10823515Y-15063508D02*
X10842563Y-15053984D01*
X11033039Y-15053984D02*
X11052086Y-15053984D01*
X11052086Y-15053984D02*
X11071134Y-15063508D01*
X11071134Y-15063508D02*
X11080658Y-15073031D01*
X11080658Y-15073031D02*
X11090182Y-15092079D01*
X11090182Y-15092079D02*
X11099705Y-15130174D01*
X11099705Y-15130174D02*
X11099705Y-15177793D01*
X11099705Y-15177793D02*
X11090182Y-15215888D01*
X11090182Y-15215888D02*
X11080658Y-15234936D01*
X11080658Y-15234936D02*
X11071134Y-15244460D01*
X11071134Y-15244460D02*
X11052086Y-15253984D01*
X11052086Y-15253984D02*
X11033039Y-15253984D01*
X11033039Y-15253984D02*
X11013991Y-15244460D01*
X11013991Y-15244460D02*
X11004467Y-15234936D01*
X11004467Y-15234936D02*
X10994944Y-15215888D01*
X10994944Y-15215888D02*
X10985420Y-15177793D01*
X10985420Y-15177793D02*
X10985420Y-15130174D01*
X10985420Y-15130174D02*
X10994944Y-15092079D01*
X10994944Y-15092079D02*
X11004467Y-15073031D01*
X11004467Y-15073031D02*
X11013991Y-15063508D01*
X11013991Y-15063508D02*
X11033039Y-15053984D01*
X11185420Y-15253984D02*
X11185420Y-15120650D01*
X11185420Y-15139698D02*
X11194943Y-15130174D01*
X11194943Y-15130174D02*
X11213991Y-15120650D01*
X11213991Y-15120650D02*
X11242563Y-15120650D01*
X11242563Y-15120650D02*
X11261610Y-15130174D01*
X11261610Y-15130174D02*
X11271134Y-15149222D01*
X11271134Y-15149222D02*
X11271134Y-15253984D01*
X11271134Y-15149222D02*
X11280658Y-15130174D01*
X11280658Y-15130174D02*
X11299705Y-15120650D01*
X11299705Y-15120650D02*
X11328277Y-15120650D01*
X11328277Y-15120650D02*
X11347324Y-15130174D01*
X11347324Y-15130174D02*
X11356848Y-15149222D01*
X11356848Y-15149222D02*
X11356848Y-15253984D01*
X11452086Y-15253984D02*
X11452086Y-15120650D01*
X11452086Y-15139698D02*
X11461610Y-15130174D01*
X11461610Y-15130174D02*
X11480658Y-15120650D01*
X11480658Y-15120650D02*
X11509229Y-15120650D01*
X11509229Y-15120650D02*
X11528277Y-15130174D01*
X11528277Y-15130174D02*
X11537801Y-15149222D01*
X11537801Y-15149222D02*
X11537801Y-15253984D01*
X11537801Y-15149222D02*
X11547324Y-15130174D01*
X11547324Y-15130174D02*
X11566372Y-15120650D01*
X11566372Y-15120650D02*
X11594943Y-15120650D01*
X11594943Y-15120650D02*
X11613991Y-15130174D01*
X11613991Y-15130174D02*
X11623515Y-15149222D01*
X11623515Y-15149222D02*
X11623515Y-15253984D01*
X12013991Y-15044460D02*
X11842563Y-15301603D01*
X12271134Y-15053984D02*
X12290182Y-15053984D01*
X12290182Y-15053984D02*
X12309229Y-15063508D01*
X12309229Y-15063508D02*
X12318753Y-15073031D01*
X12318753Y-15073031D02*
X12328277Y-15092079D01*
X12328277Y-15092079D02*
X12337801Y-15130174D01*
X12337801Y-15130174D02*
X12337801Y-15177793D01*
X12337801Y-15177793D02*
X12328277Y-15215888D01*
X12328277Y-15215888D02*
X12318753Y-15234936D01*
X12318753Y-15234936D02*
X12309229Y-15244460D01*
X12309229Y-15244460D02*
X12290182Y-15253984D01*
X12290182Y-15253984D02*
X12271134Y-15253984D01*
X12271134Y-15253984D02*
X12252086Y-15244460D01*
X12252086Y-15244460D02*
X12242563Y-15234936D01*
X12242563Y-15234936D02*
X12233039Y-15215888D01*
X12233039Y-15215888D02*
X12223515Y-15177793D01*
X12223515Y-15177793D02*
X12223515Y-15130174D01*
X12223515Y-15130174D02*
X12233039Y-15092079D01*
X12233039Y-15092079D02*
X12242563Y-15073031D01*
X12242563Y-15073031D02*
X12252086Y-15063508D01*
X12252086Y-15063508D02*
X12271134Y-15053984D01*
X12423515Y-15234936D02*
X12433039Y-15244460D01*
X12433039Y-15244460D02*
X12423515Y-15253984D01*
X12423515Y-15253984D02*
X12413991Y-15244460D01*
X12413991Y-15244460D02*
X12423515Y-15234936D01*
X12423515Y-15234936D02*
X12423515Y-15253984D01*
X12556848Y-15053984D02*
X12575896Y-15053984D01*
X12575896Y-15053984D02*
X12594944Y-15063508D01*
X12594944Y-15063508D02*
X12604467Y-15073031D01*
X12604467Y-15073031D02*
X12613991Y-15092079D01*
X12613991Y-15092079D02*
X12623515Y-15130174D01*
X12623515Y-15130174D02*
X12623515Y-15177793D01*
X12623515Y-15177793D02*
X12613991Y-15215888D01*
X12613991Y-15215888D02*
X12604467Y-15234936D01*
X12604467Y-15234936D02*
X12594944Y-15244460D01*
X12594944Y-15244460D02*
X12575896Y-15253984D01*
X12575896Y-15253984D02*
X12556848Y-15253984D01*
X12556848Y-15253984D02*
X12537801Y-15244460D01*
X12537801Y-15244460D02*
X12528277Y-15234936D01*
X12528277Y-15234936D02*
X12518753Y-15215888D01*
X12518753Y-15215888D02*
X12509229Y-15177793D01*
X12509229Y-15177793D02*
X12509229Y-15130174D01*
X12509229Y-15130174D02*
X12518753Y-15092079D01*
X12518753Y-15092079D02*
X12528277Y-15073031D01*
X12528277Y-15073031D02*
X12537801Y-15063508D01*
X12537801Y-15063508D02*
X12556848Y-15053984D01*
X12794944Y-15120650D02*
X12794944Y-15253984D01*
X12747325Y-15044460D02*
X12699706Y-15187317D01*
X12699706Y-15187317D02*
X12823515Y-15187317D01*
X12880658Y-15053984D02*
X13004467Y-15053984D01*
X13004467Y-15053984D02*
X12937801Y-15130174D01*
X12937801Y-15130174D02*
X12966372Y-15130174D01*
X12966372Y-15130174D02*
X12985420Y-15139698D01*
X12985420Y-15139698D02*
X12994944Y-15149222D01*
X12994944Y-15149222D02*
X13004467Y-15168269D01*
X13004467Y-15168269D02*
X13004467Y-15215888D01*
X13004467Y-15215888D02*
X12994944Y-15234936D01*
X12994944Y-15234936D02*
X12985420Y-15244460D01*
X12985420Y-15244460D02*
X12966372Y-15253984D01*
X12966372Y-15253984D02*
X12909229Y-15253984D01*
X12909229Y-15253984D02*
X12890182Y-15244460D01*
X12890182Y-15244460D02*
X12880658Y-15234936D01*
X13071134Y-15053984D02*
X13194944Y-15053984D01*
X13194944Y-15053984D02*
X13128277Y-15130174D01*
X13128277Y-15130174D02*
X13156848Y-15130174D01*
X13156848Y-15130174D02*
X13175896Y-15139698D01*
X13175896Y-15139698D02*
X13185420Y-15149222D01*
X13185420Y-15149222D02*
X13194944Y-15168269D01*
X13194944Y-15168269D02*
X13194944Y-15215888D01*
X13194944Y-15215888D02*
X13185420Y-15234936D01*
X13185420Y-15234936D02*
X13175896Y-15244460D01*
X13175896Y-15244460D02*
X13156848Y-15253984D01*
X13156848Y-15253984D02*
X13099706Y-15253984D01*
X13099706Y-15253984D02*
X13080658Y-15244460D01*
X13080658Y-15244460D02*
X13071134Y-15234936D01*
X13271134Y-15053984D02*
X13271134Y-15092079D01*
X13347325Y-15053984D02*
X13347325Y-15092079D01*
X13642563Y-15330174D02*
X13633039Y-15320650D01*
X13633039Y-15320650D02*
X13613991Y-15292079D01*
X13613991Y-15292079D02*
X13604468Y-15273031D01*
X13604468Y-15273031D02*
X13594944Y-15244460D01*
X13594944Y-15244460D02*
X13585420Y-15196841D01*
X13585420Y-15196841D02*
X13585420Y-15158746D01*
X13585420Y-15158746D02*
X13594944Y-15111127D01*
X13594944Y-15111127D02*
X13604468Y-15082555D01*
X13604468Y-15082555D02*
X13613991Y-15063508D01*
X13613991Y-15063508D02*
X13633039Y-15034936D01*
X13633039Y-15034936D02*
X13642563Y-15025412D01*
X13804468Y-15120650D02*
X13804468Y-15253984D01*
X13756848Y-15044460D02*
X13709229Y-15187317D01*
X13709229Y-15187317D02*
X13833039Y-15187317D01*
X14061610Y-15253984D02*
X14061610Y-15053984D01*
X14147325Y-15253984D02*
X14147325Y-15149222D01*
X14147325Y-15149222D02*
X14137801Y-15130174D01*
X14137801Y-15130174D02*
X14118753Y-15120650D01*
X14118753Y-15120650D02*
X14090182Y-15120650D01*
X14090182Y-15120650D02*
X14071134Y-15130174D01*
X14071134Y-15130174D02*
X14061610Y-15139698D01*
X14271134Y-15253984D02*
X14252087Y-15244460D01*
X14252087Y-15244460D02*
X14242563Y-15234936D01*
X14242563Y-15234936D02*
X14233039Y-15215888D01*
X14233039Y-15215888D02*
X14233039Y-15158746D01*
X14233039Y-15158746D02*
X14242563Y-15139698D01*
X14242563Y-15139698D02*
X14252087Y-15130174D01*
X14252087Y-15130174D02*
X14271134Y-15120650D01*
X14271134Y-15120650D02*
X14299706Y-15120650D01*
X14299706Y-15120650D02*
X14318753Y-15130174D01*
X14318753Y-15130174D02*
X14328277Y-15139698D01*
X14328277Y-15139698D02*
X14337801Y-15158746D01*
X14337801Y-15158746D02*
X14337801Y-15215888D01*
X14337801Y-15215888D02*
X14328277Y-15234936D01*
X14328277Y-15234936D02*
X14318753Y-15244460D01*
X14318753Y-15244460D02*
X14299706Y-15253984D01*
X14299706Y-15253984D02*
X14271134Y-15253984D01*
X14452087Y-15253984D02*
X14433039Y-15244460D01*
X14433039Y-15244460D02*
X14423515Y-15225412D01*
X14423515Y-15225412D02*
X14423515Y-15053984D01*
X14604468Y-15244460D02*
X14585420Y-15253984D01*
X14585420Y-15253984D02*
X14547325Y-15253984D01*
X14547325Y-15253984D02*
X14528277Y-15244460D01*
X14528277Y-15244460D02*
X14518753Y-15225412D01*
X14518753Y-15225412D02*
X14518753Y-15149222D01*
X14518753Y-15149222D02*
X14528277Y-15130174D01*
X14528277Y-15130174D02*
X14547325Y-15120650D01*
X14547325Y-15120650D02*
X14585420Y-15120650D01*
X14585420Y-15120650D02*
X14604468Y-15130174D01*
X14604468Y-15130174D02*
X14613991Y-15149222D01*
X14613991Y-15149222D02*
X14613991Y-15168269D01*
X14613991Y-15168269D02*
X14518753Y-15187317D01*
X14690182Y-15244460D02*
X14709230Y-15253984D01*
X14709230Y-15253984D02*
X14747325Y-15253984D01*
X14747325Y-15253984D02*
X14766372Y-15244460D01*
X14766372Y-15244460D02*
X14775896Y-15225412D01*
X14775896Y-15225412D02*
X14775896Y-15215888D01*
X14775896Y-15215888D02*
X14766372Y-15196841D01*
X14766372Y-15196841D02*
X14747325Y-15187317D01*
X14747325Y-15187317D02*
X14718753Y-15187317D01*
X14718753Y-15187317D02*
X14699706Y-15177793D01*
X14699706Y-15177793D02*
X14690182Y-15158746D01*
X14690182Y-15158746D02*
X14690182Y-15149222D01*
X14690182Y-15149222D02*
X14699706Y-15130174D01*
X14699706Y-15130174D02*
X14718753Y-15120650D01*
X14718753Y-15120650D02*
X14747325Y-15120650D01*
X14747325Y-15120650D02*
X14766372Y-15130174D01*
X14842563Y-15330174D02*
X14852087Y-15320650D01*
X14852087Y-15320650D02*
X14871134Y-15292079D01*
X14871134Y-15292079D02*
X14880658Y-15273031D01*
X14880658Y-15273031D02*
X14890182Y-15244460D01*
X14890182Y-15244460D02*
X14899706Y-15196841D01*
X14899706Y-15196841D02*
X14899706Y-15158746D01*
X14899706Y-15158746D02*
X14890182Y-15111127D01*
X14890182Y-15111127D02*
X14880658Y-15082555D01*
X14880658Y-15082555D02*
X14871134Y-15063508D01*
X14871134Y-15063508D02*
X14852087Y-15034936D01*
X14852087Y-15034936D02*
X14842563Y-15025412D01*
D15*
X9937500Y-15361500D02*
X10067500Y-15491500D01*
X10067500Y-15361500D02*
X9937500Y-15491500D01*
X10002500Y-15361500D02*
X10002500Y-15491500D01*
X9937500Y-15426500D02*
X10067500Y-15426500D01*
D11*
X10433039Y-15517984D02*
X10318753Y-15517984D01*
X10375896Y-15517984D02*
X10375896Y-15317984D01*
X10375896Y-15317984D02*
X10356848Y-15346555D01*
X10356848Y-15346555D02*
X10337801Y-15365603D01*
X10337801Y-15365603D02*
X10318753Y-15375127D01*
X10518753Y-15498936D02*
X10528277Y-15508460D01*
X10528277Y-15508460D02*
X10518753Y-15517984D01*
X10518753Y-15517984D02*
X10509229Y-15508460D01*
X10509229Y-15508460D02*
X10518753Y-15498936D01*
X10518753Y-15498936D02*
X10518753Y-15517984D01*
X10594944Y-15317984D02*
X10718753Y-15317984D01*
X10718753Y-15317984D02*
X10652086Y-15394174D01*
X10652086Y-15394174D02*
X10680658Y-15394174D01*
X10680658Y-15394174D02*
X10699705Y-15403698D01*
X10699705Y-15403698D02*
X10709229Y-15413222D01*
X10709229Y-15413222D02*
X10718753Y-15432269D01*
X10718753Y-15432269D02*
X10718753Y-15479888D01*
X10718753Y-15479888D02*
X10709229Y-15498936D01*
X10709229Y-15498936D02*
X10699705Y-15508460D01*
X10699705Y-15508460D02*
X10680658Y-15517984D01*
X10680658Y-15517984D02*
X10623515Y-15517984D01*
X10623515Y-15517984D02*
X10604467Y-15508460D01*
X10604467Y-15508460D02*
X10594944Y-15498936D01*
X10842563Y-15317984D02*
X10861610Y-15317984D01*
X10861610Y-15317984D02*
X10880658Y-15327508D01*
X10880658Y-15327508D02*
X10890182Y-15337031D01*
X10890182Y-15337031D02*
X10899705Y-15356079D01*
X10899705Y-15356079D02*
X10909229Y-15394174D01*
X10909229Y-15394174D02*
X10909229Y-15441793D01*
X10909229Y-15441793D02*
X10899705Y-15479888D01*
X10899705Y-15479888D02*
X10890182Y-15498936D01*
X10890182Y-15498936D02*
X10880658Y-15508460D01*
X10880658Y-15508460D02*
X10861610Y-15517984D01*
X10861610Y-15517984D02*
X10842563Y-15517984D01*
X10842563Y-15517984D02*
X10823515Y-15508460D01*
X10823515Y-15508460D02*
X10813991Y-15498936D01*
X10813991Y-15498936D02*
X10804467Y-15479888D01*
X10804467Y-15479888D02*
X10794944Y-15441793D01*
X10794944Y-15441793D02*
X10794944Y-15394174D01*
X10794944Y-15394174D02*
X10804467Y-15356079D01*
X10804467Y-15356079D02*
X10813991Y-15337031D01*
X10813991Y-15337031D02*
X10823515Y-15327508D01*
X10823515Y-15327508D02*
X10842563Y-15317984D01*
X11033039Y-15317984D02*
X11052086Y-15317984D01*
X11052086Y-15317984D02*
X11071134Y-15327508D01*
X11071134Y-15327508D02*
X11080658Y-15337031D01*
X11080658Y-15337031D02*
X11090182Y-15356079D01*
X11090182Y-15356079D02*
X11099705Y-15394174D01*
X11099705Y-15394174D02*
X11099705Y-15441793D01*
X11099705Y-15441793D02*
X11090182Y-15479888D01*
X11090182Y-15479888D02*
X11080658Y-15498936D01*
X11080658Y-15498936D02*
X11071134Y-15508460D01*
X11071134Y-15508460D02*
X11052086Y-15517984D01*
X11052086Y-15517984D02*
X11033039Y-15517984D01*
X11033039Y-15517984D02*
X11013991Y-15508460D01*
X11013991Y-15508460D02*
X11004467Y-15498936D01*
X11004467Y-15498936D02*
X10994944Y-15479888D01*
X10994944Y-15479888D02*
X10985420Y-15441793D01*
X10985420Y-15441793D02*
X10985420Y-15394174D01*
X10985420Y-15394174D02*
X10994944Y-15356079D01*
X10994944Y-15356079D02*
X11004467Y-15337031D01*
X11004467Y-15337031D02*
X11013991Y-15327508D01*
X11013991Y-15327508D02*
X11033039Y-15317984D01*
X11185420Y-15517984D02*
X11185420Y-15384650D01*
X11185420Y-15403698D02*
X11194943Y-15394174D01*
X11194943Y-15394174D02*
X11213991Y-15384650D01*
X11213991Y-15384650D02*
X11242563Y-15384650D01*
X11242563Y-15384650D02*
X11261610Y-15394174D01*
X11261610Y-15394174D02*
X11271134Y-15413222D01*
X11271134Y-15413222D02*
X11271134Y-15517984D01*
X11271134Y-15413222D02*
X11280658Y-15394174D01*
X11280658Y-15394174D02*
X11299705Y-15384650D01*
X11299705Y-15384650D02*
X11328277Y-15384650D01*
X11328277Y-15384650D02*
X11347324Y-15394174D01*
X11347324Y-15394174D02*
X11356848Y-15413222D01*
X11356848Y-15413222D02*
X11356848Y-15517984D01*
X11452086Y-15517984D02*
X11452086Y-15384650D01*
X11452086Y-15403698D02*
X11461610Y-15394174D01*
X11461610Y-15394174D02*
X11480658Y-15384650D01*
X11480658Y-15384650D02*
X11509229Y-15384650D01*
X11509229Y-15384650D02*
X11528277Y-15394174D01*
X11528277Y-15394174D02*
X11537801Y-15413222D01*
X11537801Y-15413222D02*
X11537801Y-15517984D01*
X11537801Y-15413222D02*
X11547324Y-15394174D01*
X11547324Y-15394174D02*
X11566372Y-15384650D01*
X11566372Y-15384650D02*
X11594943Y-15384650D01*
X11594943Y-15384650D02*
X11613991Y-15394174D01*
X11613991Y-15394174D02*
X11623515Y-15413222D01*
X11623515Y-15413222D02*
X11623515Y-15517984D01*
X12013991Y-15308460D02*
X11842563Y-15565603D01*
X12271134Y-15317984D02*
X12290182Y-15317984D01*
X12290182Y-15317984D02*
X12309229Y-15327508D01*
X12309229Y-15327508D02*
X12318753Y-15337031D01*
X12318753Y-15337031D02*
X12328277Y-15356079D01*
X12328277Y-15356079D02*
X12337801Y-15394174D01*
X12337801Y-15394174D02*
X12337801Y-15441793D01*
X12337801Y-15441793D02*
X12328277Y-15479888D01*
X12328277Y-15479888D02*
X12318753Y-15498936D01*
X12318753Y-15498936D02*
X12309229Y-15508460D01*
X12309229Y-15508460D02*
X12290182Y-15517984D01*
X12290182Y-15517984D02*
X12271134Y-15517984D01*
X12271134Y-15517984D02*
X12252086Y-15508460D01*
X12252086Y-15508460D02*
X12242563Y-15498936D01*
X12242563Y-15498936D02*
X12233039Y-15479888D01*
X12233039Y-15479888D02*
X12223515Y-15441793D01*
X12223515Y-15441793D02*
X12223515Y-15394174D01*
X12223515Y-15394174D02*
X12233039Y-15356079D01*
X12233039Y-15356079D02*
X12242563Y-15337031D01*
X12242563Y-15337031D02*
X12252086Y-15327508D01*
X12252086Y-15327508D02*
X12271134Y-15317984D01*
X12423515Y-15498936D02*
X12433039Y-15508460D01*
X12433039Y-15508460D02*
X12423515Y-15517984D01*
X12423515Y-15517984D02*
X12413991Y-15508460D01*
X12413991Y-15508460D02*
X12423515Y-15498936D01*
X12423515Y-15498936D02*
X12423515Y-15517984D01*
X12556848Y-15317984D02*
X12575896Y-15317984D01*
X12575896Y-15317984D02*
X12594944Y-15327508D01*
X12594944Y-15327508D02*
X12604467Y-15337031D01*
X12604467Y-15337031D02*
X12613991Y-15356079D01*
X12613991Y-15356079D02*
X12623515Y-15394174D01*
X12623515Y-15394174D02*
X12623515Y-15441793D01*
X12623515Y-15441793D02*
X12613991Y-15479888D01*
X12613991Y-15479888D02*
X12604467Y-15498936D01*
X12604467Y-15498936D02*
X12594944Y-15508460D01*
X12594944Y-15508460D02*
X12575896Y-15517984D01*
X12575896Y-15517984D02*
X12556848Y-15517984D01*
X12556848Y-15517984D02*
X12537801Y-15508460D01*
X12537801Y-15508460D02*
X12528277Y-15498936D01*
X12528277Y-15498936D02*
X12518753Y-15479888D01*
X12518753Y-15479888D02*
X12509229Y-15441793D01*
X12509229Y-15441793D02*
X12509229Y-15394174D01*
X12509229Y-15394174D02*
X12518753Y-15356079D01*
X12518753Y-15356079D02*
X12528277Y-15337031D01*
X12528277Y-15337031D02*
X12537801Y-15327508D01*
X12537801Y-15327508D02*
X12556848Y-15317984D01*
X12804467Y-15317984D02*
X12709229Y-15317984D01*
X12709229Y-15317984D02*
X12699706Y-15413222D01*
X12699706Y-15413222D02*
X12709229Y-15403698D01*
X12709229Y-15403698D02*
X12728277Y-15394174D01*
X12728277Y-15394174D02*
X12775896Y-15394174D01*
X12775896Y-15394174D02*
X12794944Y-15403698D01*
X12794944Y-15403698D02*
X12804467Y-15413222D01*
X12804467Y-15413222D02*
X12813991Y-15432269D01*
X12813991Y-15432269D02*
X12813991Y-15479888D01*
X12813991Y-15479888D02*
X12804467Y-15498936D01*
X12804467Y-15498936D02*
X12794944Y-15508460D01*
X12794944Y-15508460D02*
X12775896Y-15517984D01*
X12775896Y-15517984D02*
X12728277Y-15517984D01*
X12728277Y-15517984D02*
X12709229Y-15508460D01*
X12709229Y-15508460D02*
X12699706Y-15498936D01*
X13004467Y-15517984D02*
X12890182Y-15517984D01*
X12947325Y-15517984D02*
X12947325Y-15317984D01*
X12947325Y-15317984D02*
X12928277Y-15346555D01*
X12928277Y-15346555D02*
X12909229Y-15365603D01*
X12909229Y-15365603D02*
X12890182Y-15375127D01*
X13080658Y-15337031D02*
X13090182Y-15327508D01*
X13090182Y-15327508D02*
X13109229Y-15317984D01*
X13109229Y-15317984D02*
X13156848Y-15317984D01*
X13156848Y-15317984D02*
X13175896Y-15327508D01*
X13175896Y-15327508D02*
X13185420Y-15337031D01*
X13185420Y-15337031D02*
X13194944Y-15356079D01*
X13194944Y-15356079D02*
X13194944Y-15375127D01*
X13194944Y-15375127D02*
X13185420Y-15403698D01*
X13185420Y-15403698D02*
X13071134Y-15517984D01*
X13071134Y-15517984D02*
X13194944Y-15517984D01*
X13271134Y-15317984D02*
X13271134Y-15356079D01*
X13347325Y-15317984D02*
X13347325Y-15356079D01*
X13642563Y-15594174D02*
X13633039Y-15584650D01*
X13633039Y-15584650D02*
X13613991Y-15556079D01*
X13613991Y-15556079D02*
X13604468Y-15537031D01*
X13604468Y-15537031D02*
X13594944Y-15508460D01*
X13594944Y-15508460D02*
X13585420Y-15460841D01*
X13585420Y-15460841D02*
X13585420Y-15422746D01*
X13585420Y-15422746D02*
X13594944Y-15375127D01*
X13594944Y-15375127D02*
X13604468Y-15346555D01*
X13604468Y-15346555D02*
X13613991Y-15327508D01*
X13613991Y-15327508D02*
X13633039Y-15298936D01*
X13633039Y-15298936D02*
X13642563Y-15289412D01*
X13804468Y-15317984D02*
X13766372Y-15317984D01*
X13766372Y-15317984D02*
X13747325Y-15327508D01*
X13747325Y-15327508D02*
X13737801Y-15337031D01*
X13737801Y-15337031D02*
X13718753Y-15365603D01*
X13718753Y-15365603D02*
X13709229Y-15403698D01*
X13709229Y-15403698D02*
X13709229Y-15479888D01*
X13709229Y-15479888D02*
X13718753Y-15498936D01*
X13718753Y-15498936D02*
X13728277Y-15508460D01*
X13728277Y-15508460D02*
X13747325Y-15517984D01*
X13747325Y-15517984D02*
X13785420Y-15517984D01*
X13785420Y-15517984D02*
X13804468Y-15508460D01*
X13804468Y-15508460D02*
X13813991Y-15498936D01*
X13813991Y-15498936D02*
X13823515Y-15479888D01*
X13823515Y-15479888D02*
X13823515Y-15432269D01*
X13823515Y-15432269D02*
X13813991Y-15413222D01*
X13813991Y-15413222D02*
X13804468Y-15403698D01*
X13804468Y-15403698D02*
X13785420Y-15394174D01*
X13785420Y-15394174D02*
X13747325Y-15394174D01*
X13747325Y-15394174D02*
X13728277Y-15403698D01*
X13728277Y-15403698D02*
X13718753Y-15413222D01*
X13718753Y-15413222D02*
X13709229Y-15432269D01*
X14061610Y-15517984D02*
X14061610Y-15317984D01*
X14147325Y-15517984D02*
X14147325Y-15413222D01*
X14147325Y-15413222D02*
X14137801Y-15394174D01*
X14137801Y-15394174D02*
X14118753Y-15384650D01*
X14118753Y-15384650D02*
X14090182Y-15384650D01*
X14090182Y-15384650D02*
X14071134Y-15394174D01*
X14071134Y-15394174D02*
X14061610Y-15403698D01*
X14271134Y-15517984D02*
X14252087Y-15508460D01*
X14252087Y-15508460D02*
X14242563Y-15498936D01*
X14242563Y-15498936D02*
X14233039Y-15479888D01*
X14233039Y-15479888D02*
X14233039Y-15422746D01*
X14233039Y-15422746D02*
X14242563Y-15403698D01*
X14242563Y-15403698D02*
X14252087Y-15394174D01*
X14252087Y-15394174D02*
X14271134Y-15384650D01*
X14271134Y-15384650D02*
X14299706Y-15384650D01*
X14299706Y-15384650D02*
X14318753Y-15394174D01*
X14318753Y-15394174D02*
X14328277Y-15403698D01*
X14328277Y-15403698D02*
X14337801Y-15422746D01*
X14337801Y-15422746D02*
X14337801Y-15479888D01*
X14337801Y-15479888D02*
X14328277Y-15498936D01*
X14328277Y-15498936D02*
X14318753Y-15508460D01*
X14318753Y-15508460D02*
X14299706Y-15517984D01*
X14299706Y-15517984D02*
X14271134Y-15517984D01*
X14452087Y-15517984D02*
X14433039Y-15508460D01*
X14433039Y-15508460D02*
X14423515Y-15489412D01*
X14423515Y-15489412D02*
X14423515Y-15317984D01*
X14604468Y-15508460D02*
X14585420Y-15517984D01*
X14585420Y-15517984D02*
X14547325Y-15517984D01*
X14547325Y-15517984D02*
X14528277Y-15508460D01*
X14528277Y-15508460D02*
X14518753Y-15489412D01*
X14518753Y-15489412D02*
X14518753Y-15413222D01*
X14518753Y-15413222D02*
X14528277Y-15394174D01*
X14528277Y-15394174D02*
X14547325Y-15384650D01*
X14547325Y-15384650D02*
X14585420Y-15384650D01*
X14585420Y-15384650D02*
X14604468Y-15394174D01*
X14604468Y-15394174D02*
X14613991Y-15413222D01*
X14613991Y-15413222D02*
X14613991Y-15432269D01*
X14613991Y-15432269D02*
X14518753Y-15451317D01*
X14690182Y-15508460D02*
X14709230Y-15517984D01*
X14709230Y-15517984D02*
X14747325Y-15517984D01*
X14747325Y-15517984D02*
X14766372Y-15508460D01*
X14766372Y-15508460D02*
X14775896Y-15489412D01*
X14775896Y-15489412D02*
X14775896Y-15479888D01*
X14775896Y-15479888D02*
X14766372Y-15460841D01*
X14766372Y-15460841D02*
X14747325Y-15451317D01*
X14747325Y-15451317D02*
X14718753Y-15451317D01*
X14718753Y-15451317D02*
X14699706Y-15441793D01*
X14699706Y-15441793D02*
X14690182Y-15422746D01*
X14690182Y-15422746D02*
X14690182Y-15413222D01*
X14690182Y-15413222D02*
X14699706Y-15394174D01*
X14699706Y-15394174D02*
X14718753Y-15384650D01*
X14718753Y-15384650D02*
X14747325Y-15384650D01*
X14747325Y-15384650D02*
X14766372Y-15394174D01*
X14842563Y-15594174D02*
X14852087Y-15584650D01*
X14852087Y-15584650D02*
X14871134Y-15556079D01*
X14871134Y-15556079D02*
X14880658Y-15537031D01*
X14880658Y-15537031D02*
X14890182Y-15508460D01*
X14890182Y-15508460D02*
X14899706Y-15460841D01*
X14899706Y-15460841D02*
X14899706Y-15422746D01*
X14899706Y-15422746D02*
X14890182Y-15375127D01*
X14890182Y-15375127D02*
X14880658Y-15346555D01*
X14880658Y-15346555D02*
X14871134Y-15327508D01*
X14871134Y-15327508D02*
X14852087Y-15298936D01*
X14852087Y-15298936D02*
X14842563Y-15289412D01*
M02*
