%TF.GenerationSoftware,KiCad,Pcbnew,9.0.6*%
%TF.CreationDate,2025-12-08T20:00:32-05:00*%
%TF.ProjectId,LCC-Pico-Node_v2_6,4c43432d-5069-4636-9f2d-4e6f64655f76,rev?*%
%TF.SameCoordinates,Original*%
%TF.FileFunction,Paste,Top*%
%TF.FilePolarity,Positive*%
%FSLAX46Y46*%
G04 Gerber Fmt 4.6, Leading zero omitted, Abs format (unit mm)*
G04 Created by KiCad (PCBNEW 9.0.6) date 2025-12-08 20:00:32*
%MOMM*%
%LPD*%
G01*
G04 APERTURE LIST*
G04 Aperture macros list*
%AMRoundRect*
0 Rectangle with rounded corners*
0 $1 Rounding radius*
0 $2 $3 $4 $5 $6 $7 $8 $9 X,Y pos of 4 corners*
0 Add a 4 corners polygon primitive as box body*
4,1,4,$2,$3,$4,$5,$6,$7,$8,$9,$2,$3,0*
0 Add four circle primitives for the rounded corners*
1,1,$1+$1,$2,$3*
1,1,$1+$1,$4,$5*
1,1,$1+$1,$6,$7*
1,1,$1+$1,$8,$9*
0 Add four rect primitives between the rounded corners*
20,1,$1+$1,$2,$3,$4,$5,0*
20,1,$1+$1,$4,$5,$6,$7,0*
20,1,$1+$1,$6,$7,$8,$9,0*
20,1,$1+$1,$8,$9,$2,$3,0*%
G04 Aperture macros list end*
%ADD10RoundRect,0.150000X-0.825000X-0.150000X0.825000X-0.150000X0.825000X0.150000X-0.825000X0.150000X0*%
%ADD11RoundRect,0.150000X0.150000X-0.825000X0.150000X0.825000X-0.150000X0.825000X-0.150000X-0.825000X0*%
%ADD12RoundRect,0.250000X0.400000X0.625000X-0.400000X0.625000X-0.400000X-0.625000X0.400000X-0.625000X0*%
%ADD13R,1.150000X0.600000*%
%ADD14RoundRect,0.250001X0.624999X-0.462499X0.624999X0.462499X-0.624999X0.462499X-0.624999X-0.462499X0*%
%ADD15RoundRect,0.250000X-0.625000X0.400000X-0.625000X-0.400000X0.625000X-0.400000X0.625000X0.400000X0*%
%ADD16RoundRect,0.250000X-0.400000X-0.625000X0.400000X-0.625000X0.400000X0.625000X-0.400000X0.625000X0*%
%ADD17R,3.430000X1.320000*%
%ADD18RoundRect,0.250000X-0.412500X-0.650000X0.412500X-0.650000X0.412500X0.650000X-0.412500X0.650000X0*%
%ADD19RoundRect,0.250000X0.625000X-0.400000X0.625000X0.400000X-0.625000X0.400000X-0.625000X-0.400000X0*%
%ADD20RoundRect,0.250001X-0.462499X-0.624999X0.462499X-0.624999X0.462499X0.624999X-0.462499X0.624999X0*%
%ADD21R,2.800000X1.850000*%
%ADD22RoundRect,0.250000X0.412500X0.650000X-0.412500X0.650000X-0.412500X-0.650000X0.412500X-0.650000X0*%
%ADD23R,1.500000X0.700000*%
%ADD24RoundRect,0.250000X0.650000X-0.412500X0.650000X0.412500X-0.650000X0.412500X-0.650000X-0.412500X0*%
%ADD25RoundRect,0.250001X-0.624999X0.462499X-0.624999X-0.462499X0.624999X-0.462499X0.624999X0.462499X0*%
%ADD26R,1.900000X2.400000*%
%ADD27RoundRect,0.250000X-0.650000X0.412500X-0.650000X-0.412500X0.650000X-0.412500X0.650000X0.412500X0*%
%ADD28R,1.850000X2.800000*%
%ADD29R,2.300000X1.600000*%
%ADD30R,0.450000X1.475000*%
%ADD31R,2.310000X2.460000*%
%ADD32R,1.600000X2.300000*%
G04 APERTURE END LIST*
D10*
X134975000Y-108190000D03*
X134975000Y-109460000D03*
X134975000Y-110730000D03*
X134975000Y-112000000D03*
X134975000Y-113270000D03*
X134975000Y-114540000D03*
X134975000Y-115810000D03*
X130025000Y-115810000D03*
X130025000Y-114540000D03*
X130025000Y-113270000D03*
X130025000Y-112000000D03*
X130025000Y-110730000D03*
X130025000Y-109460000D03*
X130025000Y-108190000D03*
D11*
X123095000Y-112475000D03*
X124365000Y-112475000D03*
X125635000Y-112475000D03*
X126905000Y-112475000D03*
X126905000Y-107525000D03*
X125635000Y-107525000D03*
X124365000Y-107525000D03*
X123095000Y-107525000D03*
D12*
X135370000Y-84402000D03*
X132270000Y-84402000D03*
D13*
X141360000Y-125130000D03*
X141360000Y-123210000D03*
X139160000Y-124170000D03*
D14*
X121300000Y-67487500D03*
X121300000Y-64512500D03*
D15*
X114190000Y-84500000D03*
X114190000Y-87600000D03*
D16*
X132350000Y-75307000D03*
X135450000Y-75307000D03*
D12*
X120550000Y-103000000D03*
X117450000Y-103000000D03*
D15*
X114400000Y-52850000D03*
X114400000Y-55950000D03*
D16*
X118230000Y-61010000D03*
X121330000Y-61010000D03*
D12*
X135407500Y-72329500D03*
X132307500Y-72329500D03*
D17*
X117850000Y-116700000D03*
X117850000Y-112580000D03*
D18*
X132977500Y-103250000D03*
X136102500Y-103250000D03*
D16*
X132350000Y-81307000D03*
X135450000Y-81307000D03*
D18*
X132240000Y-59792500D03*
X135365000Y-59792500D03*
D16*
X129990000Y-105850000D03*
X133090000Y-105850000D03*
D19*
X138200000Y-91300000D03*
X138200000Y-88200000D03*
D20*
X132312500Y-88450000D03*
X135287500Y-88450000D03*
D19*
X138000000Y-68430000D03*
X138000000Y-65330000D03*
D21*
X127128500Y-88787000D03*
X127128500Y-86487000D03*
D22*
X124212500Y-85562000D03*
X121087500Y-85562000D03*
D16*
X132300000Y-65480000D03*
X135400000Y-65480000D03*
D22*
X129802500Y-103250000D03*
X126677500Y-103250000D03*
D18*
X123437500Y-70700000D03*
X126562500Y-70700000D03*
D12*
X135350000Y-90950000D03*
X132250000Y-90950000D03*
D23*
X156055000Y-65295000D03*
X156055000Y-66565000D03*
X156055000Y-67835000D03*
X156055000Y-69105000D03*
X161505000Y-69105000D03*
X161505000Y-67835000D03*
X161505000Y-66565000D03*
X161505000Y-65295000D03*
D24*
X121320000Y-76624500D03*
X121320000Y-73499500D03*
D18*
X132367500Y-78307000D03*
X135492500Y-78307000D03*
D25*
X111500000Y-83795000D03*
X111500000Y-86770000D03*
D26*
X130790000Y-120850000D03*
X134890000Y-120850000D03*
D27*
X130840000Y-125287500D03*
X130840000Y-128412500D03*
D22*
X136102500Y-100650000D03*
X132977500Y-100650000D03*
D28*
X126852500Y-61207500D03*
X129152500Y-61207500D03*
D27*
X123993500Y-88074500D03*
X123993500Y-91199500D03*
D14*
X117500000Y-108487500D03*
X117500000Y-105512500D03*
D18*
X163737500Y-61300000D03*
X166862500Y-61300000D03*
D27*
X121320000Y-79699500D03*
X121320000Y-82824500D03*
D29*
X113037000Y-73450000D03*
X117437000Y-73450000D03*
D30*
X123900000Y-81100000D03*
X124550000Y-81100000D03*
X125200000Y-81100000D03*
X125850000Y-81100000D03*
X126500000Y-81100000D03*
X127150000Y-81100000D03*
X127800000Y-81100000D03*
X128450000Y-81100000D03*
X128450000Y-75224000D03*
X127800000Y-75224000D03*
X127150000Y-75224000D03*
X126500000Y-75224000D03*
X125850000Y-75224000D03*
X125200000Y-75224000D03*
X124550000Y-75224000D03*
X123900000Y-75224000D03*
D31*
X126175000Y-78162000D03*
D27*
X121328500Y-88074500D03*
X121328500Y-91199500D03*
D32*
X128850000Y-93600000D03*
X128850000Y-98000000D03*
D29*
X113000000Y-77300000D03*
X117400000Y-77300000D03*
D22*
X129802500Y-100650000D03*
X126677500Y-100650000D03*
D18*
X132240000Y-62407500D03*
X135365000Y-62407500D03*
D17*
X117840000Y-119450000D03*
X117840000Y-123570000D03*
D20*
X132425000Y-68380000D03*
X135400000Y-68380000D03*
D27*
X135940000Y-125287500D03*
X135940000Y-128412500D03*
D14*
X111485000Y-58972500D03*
X111485000Y-55997500D03*
D19*
X168205000Y-68965000D03*
X168205000Y-65865000D03*
D32*
X125250000Y-93600000D03*
X125250000Y-98000000D03*
D19*
X165230000Y-69000000D03*
X165230000Y-65900000D03*
M02*
