%TF.GenerationSoftware,KiCad,Pcbnew,9.0.6*%
%TF.CreationDate,2025-12-08T20:00:33-05:00*%
%TF.ProjectId,LCC-Pico-Node_v2_6,4c43432d-5069-4636-9f2d-4e6f64655f76,rev?*%
%TF.SameCoordinates,Original*%
%TF.FileFunction,Soldermask,Top*%
%TF.FilePolarity,Negative*%
%FSLAX46Y46*%
G04 Gerber Fmt 4.6, Leading zero omitted, Abs format (unit mm)*
G04 Created by KiCad (PCBNEW 9.0.6) date 2025-12-08 20:00:33*
%MOMM*%
%LPD*%
G01*
G04 APERTURE LIST*
G04 Aperture macros list*
%AMRoundRect*
0 Rectangle with rounded corners*
0 $1 Rounding radius*
0 $2 $3 $4 $5 $6 $7 $8 $9 X,Y pos of 4 corners*
0 Add a 4 corners polygon primitive as box body*
4,1,4,$2,$3,$4,$5,$6,$7,$8,$9,$2,$3,0*
0 Add four circle primitives for the rounded corners*
1,1,$1+$1,$2,$3*
1,1,$1+$1,$4,$5*
1,1,$1+$1,$6,$7*
1,1,$1+$1,$8,$9*
0 Add four rect primitives between the rounded corners*
20,1,$1+$1,$2,$3,$4,$5,0*
20,1,$1+$1,$4,$5,$6,$7,0*
20,1,$1+$1,$6,$7,$8,$9,0*
20,1,$1+$1,$8,$9,$2,$3,0*%
%AMFreePoly0*
4,1,23,0.000000,0.745722,0.065263,0.745722,0.191342,0.711940,0.304381,0.646677,0.396677,0.554381,0.461940,0.441342,0.495722,0.315263,0.495722,0.250000,0.500000,0.250000,0.500000,-0.250000,0.495722,-0.250000,0.495722,-0.315263,0.461940,-0.441342,0.396677,-0.554381,0.304381,-0.646677,0.191342,-0.711940,0.065263,-0.745722,0.000000,-0.745722,0.000000,-0.750000,-0.550000,-0.750000,
-0.550000,0.750000,0.000000,0.750000,0.000000,0.745722,0.000000,0.745722,$1*%
%AMFreePoly1*
4,1,23,0.550000,-0.750000,0.000000,-0.750000,0.000000,-0.745722,-0.065263,-0.745722,-0.191342,-0.711940,-0.304381,-0.646677,-0.396677,-0.554381,-0.461940,-0.441342,-0.495722,-0.315263,-0.495722,-0.250000,-0.500000,-0.250000,-0.500000,0.250000,-0.495722,0.250000,-0.495722,0.315263,-0.461940,0.441342,-0.396677,0.554381,-0.304381,0.646677,-0.191342,0.711940,-0.065263,0.745722,0.000000,0.745722,
0.000000,0.750000,0.550000,0.750000,0.550000,-0.750000,0.550000,-0.750000,$1*%
G04 Aperture macros list end*
%ADD10FreePoly0,180.000000*%
%ADD11R,1.000000X1.500000*%
%ADD12FreePoly1,180.000000*%
%ADD13RoundRect,0.250000X-0.600000X-0.725000X0.600000X-0.725000X0.600000X0.725000X-0.600000X0.725000X0*%
%ADD14O,1.700000X1.950000*%
%ADD15RoundRect,0.150000X-0.825000X-0.150000X0.825000X-0.150000X0.825000X0.150000X-0.825000X0.150000X0*%
%ADD16R,1.700000X1.700000*%
%ADD17C,1.700000*%
%ADD18RoundRect,0.150000X0.150000X-0.825000X0.150000X0.825000X-0.150000X0.825000X-0.150000X-0.825000X0*%
%ADD19C,3.170000*%
%ADD20R,1.400000X1.400000*%
%ADD21C,1.400000*%
%ADD22RoundRect,0.250000X0.400000X0.625000X-0.400000X0.625000X-0.400000X-0.625000X0.400000X-0.625000X0*%
%ADD23O,1.700000X1.700000*%
%ADD24R,1.150000X0.600000*%
%ADD25RoundRect,0.250001X0.624999X-0.462499X0.624999X0.462499X-0.624999X0.462499X-0.624999X-0.462499X0*%
%ADD26RoundRect,0.250000X-0.625000X0.400000X-0.625000X-0.400000X0.625000X-0.400000X0.625000X0.400000X0*%
%ADD27RoundRect,0.250000X-0.400000X-0.625000X0.400000X-0.625000X0.400000X0.625000X-0.400000X0.625000X0*%
%ADD28R,3.500000X1.700000*%
%ADD29R,3.430000X1.320000*%
%ADD30RoundRect,0.250000X-0.412500X-0.650000X0.412500X-0.650000X0.412500X0.650000X-0.412500X0.650000X0*%
%ADD31R,1.600000X1.600000*%
%ADD32C,1.600000*%
%ADD33RoundRect,0.250000X0.625000X-0.400000X0.625000X0.400000X-0.625000X0.400000X-0.625000X-0.400000X0*%
%ADD34R,1.500000X1.500000*%
%ADD35C,1.500000*%
%ADD36C,1.950000*%
%ADD37RoundRect,0.250001X-0.462499X-0.624999X0.462499X-0.624999X0.462499X0.624999X-0.462499X0.624999X0*%
%ADD38R,2.800000X1.850000*%
%ADD39C,3.500000*%
%ADD40RoundRect,0.250000X0.412500X0.650000X-0.412500X0.650000X-0.412500X-0.650000X0.412500X-0.650000X0*%
%ADD41R,2.100000X2.100000*%
%ADD42C,2.100000*%
%ADD43R,1.500000X0.700000*%
%ADD44RoundRect,0.250000X0.650000X-0.412500X0.650000X0.412500X-0.650000X0.412500X-0.650000X-0.412500X0*%
%ADD45RoundRect,0.250001X-0.624999X0.462499X-0.624999X-0.462499X0.624999X-0.462499X0.624999X0.462499X0*%
%ADD46R,1.900000X2.400000*%
%ADD47RoundRect,0.250000X-0.650000X0.412500X-0.650000X-0.412500X0.650000X-0.412500X0.650000X0.412500X0*%
%ADD48R,1.850000X2.800000*%
%ADD49R,2.300000X1.600000*%
%ADD50R,0.450000X1.475000*%
%ADD51R,2.310000X2.460000*%
%ADD52R,1.600000X2.300000*%
%ADD53R,3.500000X3.500000*%
%ADD54RoundRect,0.750000X-0.750000X-1.000000X0.750000X-1.000000X0.750000X1.000000X-0.750000X1.000000X0*%
%ADD55RoundRect,0.875000X-0.875000X-0.875000X0.875000X-0.875000X0.875000X0.875000X-0.875000X0.875000X0*%
%ADD56RoundRect,0.250000X-0.600000X-0.600000X0.600000X-0.600000X0.600000X0.600000X-0.600000X0.600000X0*%
G04 APERTURE END LIST*
D10*
X144600000Y-57000000D03*
D11*
X145900000Y-57000000D03*
D12*
X147200000Y-57000000D03*
D13*
X183000000Y-103525000D03*
D14*
X185500000Y-103525000D03*
X188000000Y-103525000D03*
D13*
X183000000Y-111025000D03*
D14*
X185500000Y-111025000D03*
X188000000Y-111025000D03*
D13*
X183000000Y-118500000D03*
D14*
X185500000Y-118500000D03*
X188000000Y-118500000D03*
D13*
X183000000Y-125500000D03*
D14*
X185500000Y-125500000D03*
X188000000Y-125500000D03*
D15*
X134975000Y-108190000D03*
X134975000Y-109460000D03*
X134975000Y-110730000D03*
X134975000Y-112000000D03*
X134975000Y-113270000D03*
X134975000Y-114540000D03*
X134975000Y-115810000D03*
X130025000Y-115810000D03*
X130025000Y-114540000D03*
X130025000Y-113270000D03*
X130025000Y-112000000D03*
X130025000Y-110730000D03*
X130025000Y-109460000D03*
X130025000Y-108190000D03*
D16*
X114500000Y-81000000D03*
D17*
X117040000Y-81000000D03*
D16*
X141500000Y-95725000D03*
D17*
X141500000Y-98265000D03*
D16*
X145035000Y-63025000D03*
D17*
X147575000Y-63025000D03*
X145035000Y-65565000D03*
X147575000Y-65565000D03*
X145035000Y-68105000D03*
X147575000Y-68105000D03*
X145035000Y-70645000D03*
X147575000Y-70645000D03*
D16*
X169395000Y-54465000D03*
D17*
X166855000Y-54465000D03*
X164315000Y-54465000D03*
X161775000Y-54465000D03*
X159235000Y-54465000D03*
X156695000Y-54465000D03*
X154155000Y-54465000D03*
X151615000Y-54465000D03*
D18*
X123095000Y-112475000D03*
X124365000Y-112475000D03*
X125635000Y-112475000D03*
X126905000Y-112475000D03*
X126905000Y-107525000D03*
X125635000Y-107525000D03*
X124365000Y-107525000D03*
X123095000Y-107525000D03*
D19*
X104360000Y-113640000D03*
X104360000Y-125070000D03*
D20*
X110710000Y-114910000D03*
D21*
X113250000Y-116180000D03*
X110710000Y-117450000D03*
X113250000Y-118720000D03*
X110710000Y-119990000D03*
X113250000Y-121260000D03*
X110710000Y-122530000D03*
X113250000Y-123800000D03*
D22*
X135370000Y-84402000D03*
X132270000Y-84402000D03*
D19*
X104360000Y-93440000D03*
X104360000Y-104870000D03*
D20*
X110710000Y-94710000D03*
D21*
X113250000Y-95980000D03*
X110710000Y-97250000D03*
X113250000Y-98520000D03*
X110710000Y-99790000D03*
X113250000Y-101060000D03*
X110710000Y-102330000D03*
X113250000Y-103600000D03*
D16*
X124450000Y-122660000D03*
D23*
X121910000Y-122660000D03*
D24*
X141360000Y-125130000D03*
X141360000Y-123210000D03*
X139160000Y-124170000D03*
D25*
X121300000Y-67487500D03*
X121300000Y-64512500D03*
D26*
X114190000Y-84500000D03*
X114190000Y-87600000D03*
D27*
X132350000Y-75307000D03*
X135450000Y-75307000D03*
D22*
X120550000Y-103000000D03*
X117450000Y-103000000D03*
D26*
X114400000Y-52850000D03*
X114400000Y-55950000D03*
D27*
X118230000Y-61010000D03*
X121330000Y-61010000D03*
D16*
X145107145Y-76945399D03*
D23*
X145107145Y-79485399D03*
X145107145Y-82025399D03*
X145107145Y-84565399D03*
X145107145Y-87105399D03*
X145107145Y-89645399D03*
X145107145Y-92185399D03*
X145107145Y-94725399D03*
X145107145Y-97265399D03*
X145107145Y-99805399D03*
X145107145Y-102345399D03*
X145107145Y-104885399D03*
X145107145Y-107425399D03*
X145107145Y-109965399D03*
X145107145Y-112505399D03*
X145107145Y-115045399D03*
X145107145Y-117585399D03*
X145107145Y-120125399D03*
X145107145Y-122665399D03*
X145107145Y-125205399D03*
D16*
X176020000Y-55295000D03*
D23*
X176020000Y-57835000D03*
X176020000Y-60375000D03*
D22*
X135407500Y-72329500D03*
X132307500Y-72329500D03*
D16*
X180000000Y-57775000D03*
D23*
X182540000Y-57775000D03*
X185080000Y-57775000D03*
X187620000Y-57775000D03*
X170939200Y-125220800D03*
D28*
X171839200Y-125220800D03*
D23*
X170939200Y-122680800D03*
D28*
X171839200Y-122680800D03*
D16*
X170939200Y-120140800D03*
D28*
X171839200Y-120140800D03*
D23*
X170939200Y-117600800D03*
D28*
X171839200Y-117600800D03*
D23*
X170939200Y-115060800D03*
D28*
X171839200Y-115060800D03*
D23*
X170939200Y-112520800D03*
D28*
X171839200Y-112520800D03*
D23*
X170939200Y-109980800D03*
D28*
X171839200Y-109980800D03*
D16*
X170939200Y-107440800D03*
D28*
X171839200Y-107440800D03*
D23*
X170939200Y-104900800D03*
D28*
X171839200Y-104900800D03*
D23*
X170939200Y-102360800D03*
D28*
X171839200Y-102360800D03*
D23*
X170939200Y-99820800D03*
D28*
X171839200Y-99820800D03*
D23*
X170939200Y-97280800D03*
D28*
X171839200Y-97280800D03*
D16*
X170939200Y-94740800D03*
D28*
X171839200Y-94740800D03*
D23*
X170939200Y-92200800D03*
D28*
X171839200Y-92200800D03*
D23*
X170939200Y-89660800D03*
D28*
X171839200Y-89660800D03*
D23*
X170939200Y-87120800D03*
D28*
X171839200Y-87120800D03*
D23*
X170939200Y-84580800D03*
D28*
X171839200Y-84580800D03*
D16*
X170939200Y-82040800D03*
D28*
X171839200Y-82040800D03*
D23*
X170939200Y-79500800D03*
D28*
X171839200Y-79500800D03*
D23*
X170939200Y-76960800D03*
D28*
X171839200Y-76960800D03*
D23*
X153159200Y-76960800D03*
D28*
X152259200Y-76960800D03*
D23*
X153159200Y-79500800D03*
D28*
X152259200Y-79500800D03*
D16*
X153159200Y-82040800D03*
D28*
X152259200Y-82040800D03*
D23*
X153159200Y-84580800D03*
D28*
X152259200Y-84580800D03*
D23*
X153159200Y-87120800D03*
D28*
X152259200Y-87120800D03*
D23*
X153159200Y-89660800D03*
D28*
X152259200Y-89660800D03*
D23*
X153159200Y-92200800D03*
D28*
X152259200Y-92200800D03*
D16*
X153159200Y-94740800D03*
D28*
X152259200Y-94740800D03*
D23*
X153159200Y-97280800D03*
D28*
X152259200Y-97280800D03*
D23*
X153159200Y-99820800D03*
D28*
X152259200Y-99820800D03*
D23*
X153159200Y-102360800D03*
D28*
X152259200Y-102360800D03*
D23*
X153159200Y-104900800D03*
D28*
X152259200Y-104900800D03*
D16*
X153159200Y-107440800D03*
D28*
X152259200Y-107440800D03*
D23*
X153159200Y-109980800D03*
D28*
X152259200Y-109980800D03*
D23*
X153159200Y-112520800D03*
D28*
X152259200Y-112520800D03*
D23*
X153159200Y-115060800D03*
D28*
X152259200Y-115060800D03*
D23*
X153159200Y-117600800D03*
D28*
X152259200Y-117600800D03*
D16*
X153159200Y-120140800D03*
D28*
X152259200Y-120140800D03*
D23*
X153159200Y-122680800D03*
D28*
X152259200Y-122680800D03*
D23*
X153159200Y-125220800D03*
D28*
X152259200Y-125220800D03*
D29*
X117850000Y-116700000D03*
X117850000Y-112580000D03*
D30*
X132977500Y-103250000D03*
X136102500Y-103250000D03*
D27*
X132350000Y-81307000D03*
X135450000Y-81307000D03*
D16*
X117660000Y-99500000D03*
D23*
X120200000Y-99500000D03*
D30*
X132240000Y-59792500D03*
X135365000Y-59792500D03*
D31*
X108300000Y-76200000D03*
D32*
X104800000Y-76200000D03*
D16*
X194500000Y-117800000D03*
D17*
X194500000Y-120340000D03*
X194500000Y-122880000D03*
D27*
X129990000Y-105850000D03*
X133090000Y-105850000D03*
D33*
X138200000Y-91300000D03*
X138200000Y-88200000D03*
D34*
X196050000Y-70250000D03*
D35*
X196050000Y-74750000D03*
D36*
X193550000Y-69000000D03*
X193550000Y-76000000D03*
D37*
X132312500Y-88450000D03*
X135287500Y-88450000D03*
D33*
X138000000Y-68430000D03*
X138000000Y-65330000D03*
D38*
X127128500Y-88787000D03*
X127128500Y-86487000D03*
D39*
X120400000Y-52700000D03*
D40*
X124212500Y-85562000D03*
X121087500Y-85562000D03*
D34*
X196475000Y-104650000D03*
D35*
X196475000Y-109150000D03*
D36*
X193975000Y-103400000D03*
X193975000Y-110400000D03*
D27*
X132300000Y-65480000D03*
X135400000Y-65480000D03*
D40*
X129802500Y-103250000D03*
X126677500Y-103250000D03*
D30*
X123437500Y-70700000D03*
X126562500Y-70700000D03*
D41*
X104985000Y-55015000D03*
D42*
X104985000Y-57555000D03*
D22*
X135350000Y-90950000D03*
X132250000Y-90950000D03*
D43*
X156055000Y-65295000D03*
X156055000Y-66565000D03*
X156055000Y-67835000D03*
X156055000Y-69105000D03*
X161505000Y-69105000D03*
X161505000Y-67835000D03*
X161505000Y-66565000D03*
X161505000Y-65295000D03*
D44*
X121320000Y-76624500D03*
X121320000Y-73499500D03*
D39*
X196350000Y-52850000D03*
D30*
X132367500Y-78307000D03*
X135492500Y-78307000D03*
D45*
X111500000Y-83795000D03*
X111500000Y-86770000D03*
D46*
X130790000Y-120850000D03*
X134890000Y-120850000D03*
D47*
X130840000Y-125287500D03*
X130840000Y-128412500D03*
D40*
X136102500Y-100650000D03*
X132977500Y-100650000D03*
D48*
X126852500Y-61207500D03*
X129152500Y-61207500D03*
D47*
X123993500Y-88074500D03*
X123993500Y-91199500D03*
D41*
X104900000Y-84160000D03*
D42*
X104900000Y-86700000D03*
D16*
X120300000Y-94000000D03*
D23*
X117760000Y-94000000D03*
D16*
X178152800Y-125170000D03*
D23*
X178152800Y-122630000D03*
X178152800Y-120090000D03*
X178152800Y-117550000D03*
X178152800Y-115010000D03*
X178152800Y-112470000D03*
X178152800Y-109930000D03*
X178152800Y-107390000D03*
X178152800Y-104850000D03*
X178152800Y-102310000D03*
X178152800Y-99770000D03*
X178152800Y-97230000D03*
X178152800Y-94690000D03*
X178152800Y-92150000D03*
X178152800Y-89610000D03*
X178152800Y-87070000D03*
X178152800Y-84530000D03*
X178152800Y-81990000D03*
X178152800Y-79450000D03*
X178152800Y-76910000D03*
D25*
X117500000Y-108487500D03*
X117500000Y-105512500D03*
D30*
X163737500Y-61300000D03*
X166862500Y-61300000D03*
D16*
X185900000Y-92150000D03*
D23*
X185900000Y-89610000D03*
X185900000Y-87070000D03*
D47*
X121320000Y-79699500D03*
X121320000Y-82824500D03*
D49*
X113037000Y-73450000D03*
X117437000Y-73450000D03*
D50*
X123900000Y-81100000D03*
X124550000Y-81100000D03*
X125200000Y-81100000D03*
X125850000Y-81100000D03*
X126500000Y-81100000D03*
X127150000Y-81100000D03*
X127800000Y-81100000D03*
X128450000Y-81100000D03*
X128450000Y-75224000D03*
X127800000Y-75224000D03*
X127150000Y-75224000D03*
X126500000Y-75224000D03*
X125850000Y-75224000D03*
X125200000Y-75224000D03*
X124550000Y-75224000D03*
X123900000Y-75224000D03*
D51*
X126175000Y-78162000D03*
D47*
X121328500Y-88074500D03*
X121328500Y-91199500D03*
D16*
X141502050Y-112516000D03*
D23*
X141502050Y-109976000D03*
X141502050Y-107436000D03*
D39*
X196300000Y-128400000D03*
D52*
X128850000Y-93600000D03*
X128850000Y-98000000D03*
D49*
X113000000Y-77300000D03*
X117400000Y-77300000D03*
D40*
X129802500Y-100650000D03*
X126677500Y-100650000D03*
D53*
X115200000Y-64700000D03*
D54*
X109200000Y-64700000D03*
D55*
X112200000Y-69400000D03*
D30*
X132240000Y-62407500D03*
X135365000Y-62407500D03*
D29*
X117840000Y-119450000D03*
X117840000Y-123570000D03*
D37*
X132425000Y-68380000D03*
X135400000Y-68380000D03*
D56*
X194385000Y-84590000D03*
D17*
X196925000Y-84590000D03*
X194385000Y-87130000D03*
X196925000Y-87130000D03*
X194385000Y-89670000D03*
X196925000Y-89670000D03*
X194385000Y-92210000D03*
X196925000Y-92210000D03*
X194385000Y-94750000D03*
X196925000Y-94750000D03*
D34*
X196075000Y-58750000D03*
D35*
X196075000Y-63250000D03*
D36*
X193575000Y-57500000D03*
X193575000Y-64500000D03*
D39*
X125650000Y-128400000D03*
D47*
X135940000Y-125287500D03*
X135940000Y-128412500D03*
D16*
X198897028Y-122822285D03*
D17*
X198897028Y-120282285D03*
X198897028Y-117742285D03*
X198897028Y-115202285D03*
D25*
X111485000Y-58972500D03*
X111485000Y-55997500D03*
D33*
X168205000Y-68965000D03*
X168205000Y-65865000D03*
D16*
X120100000Y-126800000D03*
D23*
X117560000Y-126800000D03*
D52*
X125250000Y-93600000D03*
X125250000Y-98000000D03*
D33*
X165230000Y-69000000D03*
X165230000Y-65900000D03*
D16*
X124410000Y-118150000D03*
D23*
X121870000Y-118150000D03*
M02*
