M48
; DRILL file {KiCad 9.0.6} date 2026-03-23T21:03:10-0400
; FORMAT={-:-/ absolute / metric / decimal}
; #@! TF.CreationDate,2026-03-23T21:03:10-04:00
; #@! TF.GenerationSoftware,Kicad,Pcbnew,9.0.6
; #@! TF.FileFunction,Plated,1,4,PTH
FMAT,2
METRIC
; #@! TA.AperFunction,Plated,PTH,ViaDrill
T1C0.400
; #@! TA.AperFunction,Plated,PTH,ComponentDrill
T2C0.800
; #@! TA.AperFunction,Plated,PTH,ComponentDrill
T3C0.900
; #@! TA.AperFunction,Plated,PTH,ComponentDrill
T4C1.000
; #@! TA.AperFunction,Plated,PTH,ComponentDrill
T5C1.010
; #@! TA.AperFunction,Plated,PTH,ComponentDrill
T6C1.020
; #@! TA.AperFunction,Plated,PTH,ComponentDrill
T7C1.100
; #@! TA.AperFunction,Plated,PTH,ComponentDrill
T8C1.300
; #@! TA.AperFunction,Plated,PTH,ComponentDrill
T9C1.590
%
G90
G05
T1
X104.69Y-109.255
X107.99Y-123.955
X108.99Y-91.455
X111.2Y-82.2
X114.22Y-84.25
X114.28Y-52.87
X117.5Y-108.487
X121.32Y-73.499
X121.32Y-82.825
X121.328Y-88.075
X123.15Y-77.037
X123.15Y-78.037
X123.15Y-79.137
X124.05Y-77.037
X124.05Y-78.037
X124.05Y-79.137
X124.5Y-109.5
X125.4Y-59.292
X125.45Y-77.437
X125.45Y-78.937
X125.5Y-109.5
X126.175Y-78.162
X126.677Y-103.25
X126.8Y-115.8
X126.85Y-77.437
X126.85Y-78.937
X126.9Y-105.8
X127.0Y-114.5
X128.25Y-77.137
X128.25Y-78.137
X128.25Y-79.237
X129.35Y-77.137
X129.35Y-78.137
X129.35Y-79.237
X129.84Y-100.65
X130.45Y-77.137
X130.45Y-78.137
X130.45Y-79.237
X132.0Y-112.0
X132.977Y-103.25
X133.34Y-89.5
X135.412Y-84.167
X135.45Y-72.437
X135.45Y-78.437
X135.493Y-75.437
X136.0Y-64.85
X137.4Y-60.6
X141.0Y-114.6
X143.12Y-125.6
X143.12Y-128.1
X143.2Y-123.165
X143.52Y-114.6
X145.4Y-66.0
X145.9Y-111.1
X146.8Y-110.1
X152.375Y-126.705
X157.825Y-124.165
X161.55Y-126.665
X182.3Y-120.1
X193.299Y-93.559
T2
X104.8Y-76.2
X108.3Y-76.2
T3
X110.71Y-94.71
X110.71Y-97.25
X110.71Y-99.79
X110.71Y-102.33
X110.71Y-114.91
X110.71Y-117.45
X110.71Y-119.99
X110.71Y-122.53
X113.25Y-95.98
X113.25Y-98.52
X113.25Y-101.06
X113.25Y-103.6
X113.25Y-116.18
X113.25Y-118.72
X113.25Y-121.26
X113.25Y-123.8
T4
X114.5Y-81.0
X117.04Y-81.0
X117.56Y-126.8
X117.66Y-99.5
X117.76Y-94.0
X120.1Y-126.8
X120.2Y-99.5
X120.3Y-94.0
X121.87Y-118.15
X121.91Y-122.66
X124.41Y-118.15
X124.45Y-122.66
X150.109Y-80.006
X150.145Y-113.052
X150.3Y-71.22
X150.3Y-73.76
X152.649Y-80.006
X152.685Y-113.052
X152.84Y-71.22
X152.84Y-73.76
X155.189Y-80.006
X155.225Y-113.052
X155.38Y-71.22
X155.38Y-73.76
X157.729Y-80.006
X157.765Y-113.052
X157.92Y-71.22
X157.92Y-73.76
X160.269Y-80.006
X160.305Y-113.052
X160.46Y-71.22
X160.46Y-73.76
X162.809Y-80.006
X162.845Y-113.052
X165.349Y-80.006
X165.385Y-113.052
X166.385Y-53.14
X167.889Y-80.006
X167.925Y-113.052
X168.825Y-56.9
X168.825Y-59.44
X168.825Y-61.98
X168.825Y-64.52
X168.924Y-116.659
X168.925Y-53.14
X169.895Y-124.465
X169.9Y-128.1
X170.429Y-80.006
X170.465Y-113.052
X171.464Y-116.659
X171.465Y-53.14
X172.435Y-124.465
X172.44Y-128.1
X172.5Y-71.26
X172.5Y-73.8
X172.969Y-80.006
X173.005Y-113.052
X174.975Y-124.465
X174.98Y-128.1
X175.04Y-71.26
X175.04Y-73.8
X175.509Y-80.006
X175.545Y-113.052
X177.515Y-124.465
X177.52Y-128.1
X177.58Y-71.26
X177.58Y-73.8
X178.049Y-80.006
X178.085Y-113.052
X180.06Y-128.1
X180.12Y-71.26
X180.12Y-73.8
X180.589Y-80.006
X180.625Y-113.052
X182.6Y-128.1
X182.66Y-71.26
X182.66Y-73.8
X183.129Y-80.006
X183.165Y-113.052
X185.14Y-128.1
X185.669Y-80.006
X185.705Y-113.052
X187.68Y-128.1
X188.209Y-80.006
X188.245Y-113.052
X190.749Y-80.006
X190.785Y-113.052
X193.289Y-80.006
X193.325Y-113.052
X195.829Y-80.006
X195.865Y-113.052
X196.0Y-59.3
X196.0Y-63.8
X196.0Y-118.2
X196.0Y-122.7
X196.05Y-70.25
X196.05Y-74.75
X198.369Y-80.006
X198.405Y-113.052
T5
X152.0Y-61.7
X155.0Y-61.7
X158.0Y-61.7
X176.6Y-61.7
X179.6Y-61.7
X182.6Y-61.7
T6
X150.16Y-87.22
X150.16Y-105.0
X152.7Y-87.22
X152.7Y-105.0
X155.24Y-87.22
X155.24Y-105.0
X157.78Y-87.22
X157.78Y-105.0
X160.32Y-87.22
X160.32Y-105.0
X162.86Y-87.22
X162.86Y-105.0
X165.4Y-87.22
X165.4Y-105.0
X167.94Y-87.22
X167.94Y-105.0
X170.48Y-87.22
X170.48Y-105.0
X173.02Y-87.22
X173.02Y-105.0
X175.56Y-87.22
X175.56Y-105.0
X178.1Y-87.22
X178.1Y-105.0
X180.64Y-87.22
X180.64Y-105.0
X183.18Y-87.22
X183.18Y-105.0
X185.72Y-87.22
X185.72Y-105.0
X188.26Y-87.22
X188.26Y-105.0
X190.8Y-87.22
X190.8Y-105.0
X193.34Y-87.22
X193.34Y-105.0
X195.88Y-87.22
X195.88Y-105.0
X198.42Y-87.22
X198.42Y-105.0
T7
X104.9Y-84.16
X104.9Y-86.7
X104.985Y-55.015
X104.985Y-57.555
T8
X193.5Y-58.05
X193.5Y-65.05
X193.5Y-116.95
X193.5Y-123.95
X193.55Y-69.0
X193.55Y-76.0
T9
X149.2Y-61.7
X160.8Y-61.7
X173.8Y-61.7
X185.4Y-61.7
T4
G00X109.2Y-63.7
M15
G01X109.2Y-65.7
M16
G05
G00X111.2Y-69.4
M15
G01X113.2Y-69.4
M16
G05
G00X115.2Y-63.7
M15
G01X115.2Y-65.7
M16
G05
M30
