%TF.GenerationSoftware,KiCad,Pcbnew,9.0.6*%
%TF.CreationDate,2026-04-09T21:12:27-04:00*%
%TF.ProjectId,LCC-Pico-Node_v2_8,4c43432d-5069-4636-9f2d-4e6f64655f76,rev?*%
%TF.SameCoordinates,Original*%
%TF.FileFunction,Soldermask,Top*%
%TF.FilePolarity,Negative*%
%FSLAX46Y46*%
G04 Gerber Fmt 4.6, Leading zero omitted, Abs format (unit mm)*
G04 Created by KiCad (PCBNEW 9.0.6) date 2026-04-09 21:12:27*
%MOMM*%
%LPD*%
G01*
G04 APERTURE LIST*
G04 Aperture macros list*
%AMRoundRect*
0 Rectangle with rounded corners*
0 $1 Rounding radius*
0 $2 $3 $4 $5 $6 $7 $8 $9 X,Y pos of 4 corners*
0 Add a 4 corners polygon primitive as box body*
4,1,4,$2,$3,$4,$5,$6,$7,$8,$9,$2,$3,0*
0 Add four circle primitives for the rounded corners*
1,1,$1+$1,$2,$3*
1,1,$1+$1,$4,$5*
1,1,$1+$1,$6,$7*
1,1,$1+$1,$8,$9*
0 Add four rect primitives between the rounded corners*
20,1,$1+$1,$2,$3,$4,$5,0*
20,1,$1+$1,$4,$5,$6,$7,0*
20,1,$1+$1,$6,$7,$8,$9,0*
20,1,$1+$1,$8,$9,$2,$3,0*%
%AMFreePoly0*
4,1,23,0.550000,-0.750000,0.000000,-0.750000,0.000000,-0.745722,-0.065263,-0.745722,-0.191342,-0.711940,-0.304381,-0.646677,-0.396677,-0.554381,-0.461940,-0.441342,-0.495722,-0.315263,-0.495722,-0.250000,-0.500000,-0.250000,-0.500000,0.250000,-0.495722,0.250000,-0.495722,0.315263,-0.461940,0.441342,-0.396677,0.554381,-0.304381,0.646677,-0.191342,0.711940,-0.065263,0.745722,0.000000,0.745722,
0.000000,0.750000,0.550000,0.750000,0.550000,-0.750000,0.550000,-0.750000,$1*%
%AMFreePoly1*
4,1,23,0.000000,0.745722,0.065263,0.745722,0.191342,0.711940,0.304381,0.646677,0.396677,0.554381,0.461940,0.441342,0.495722,0.315263,0.495722,0.250000,0.500000,0.250000,0.500000,-0.250000,0.495722,-0.250000,0.495722,-0.315263,0.461940,-0.441342,0.396677,-0.554381,0.304381,-0.646677,0.191342,-0.711940,0.065263,-0.745722,0.000000,-0.745722,0.000000,-0.750000,-0.550000,-0.750000,
-0.550000,0.750000,0.000000,0.750000,0.000000,0.745722,0.000000,0.745722,$1*%
G04 Aperture macros list end*
%ADD10C,1.700000*%
%ADD11RoundRect,0.250000X-0.600000X0.600000X-0.600000X-0.600000X0.600000X-0.600000X0.600000X0.600000X0*%
%ADD12R,1.337000X1.337000*%
%ADD13C,1.337000*%
%ADD14C,2.190000*%
%ADD15FreePoly0,180.000000*%
%ADD16R,1.000000X1.500000*%
%ADD17FreePoly1,180.000000*%
%ADD18C,3.170000*%
%ADD19R,1.400000X1.400000*%
%ADD20C,1.400000*%
%ADD21RoundRect,0.250000X0.400000X0.625000X-0.400000X0.625000X-0.400000X-0.625000X0.400000X-0.625000X0*%
%ADD22R,1.700000X1.700000*%
%ADD23O,1.700000X1.700000*%
%ADD24R,0.600000X1.150000*%
%ADD25RoundRect,0.250001X0.624999X-0.462499X0.624999X0.462499X-0.624999X0.462499X-0.624999X-0.462499X0*%
%ADD26RoundRect,0.250000X-0.625000X0.400000X-0.625000X-0.400000X0.625000X-0.400000X0.625000X0.400000X0*%
%ADD27RoundRect,0.250000X-0.400000X-0.625000X0.400000X-0.625000X0.400000X0.625000X-0.400000X0.625000X0*%
%ADD28R,1.700000X3.500000*%
%ADD29RoundRect,0.250001X-0.624999X0.462499X-0.624999X-0.462499X0.624999X-0.462499X0.624999X0.462499X0*%
%ADD30FreePoly0,270.000000*%
%ADD31R,1.500000X1.000000*%
%ADD32FreePoly1,270.000000*%
%ADD33R,3.430000X1.320000*%
%ADD34RoundRect,0.250000X0.412500X0.650000X-0.412500X0.650000X-0.412500X-0.650000X0.412500X-0.650000X0*%
%ADD35RoundRect,0.150000X-0.150000X0.825000X-0.150000X-0.825000X0.150000X-0.825000X0.150000X0.825000X0*%
%ADD36RoundRect,0.250000X-0.412500X-0.650000X0.412500X-0.650000X0.412500X0.650000X-0.412500X0.650000X0*%
%ADD37R,1.600000X1.600000*%
%ADD38C,1.600000*%
%ADD39RoundRect,0.250000X0.625000X-0.400000X0.625000X0.400000X-0.625000X0.400000X-0.625000X-0.400000X0*%
%ADD40R,1.500000X1.500000*%
%ADD41C,1.500000*%
%ADD42C,1.950000*%
%ADD43RoundRect,0.250001X-0.462499X-0.624999X0.462499X-0.624999X0.462499X0.624999X-0.462499X0.624999X0*%
%ADD44R,2.800000X1.850000*%
%ADD45C,3.500000*%
%ADD46RoundRect,0.250000X-0.650000X0.412500X-0.650000X-0.412500X0.650000X-0.412500X0.650000X0.412500X0*%
%ADD47RoundRect,0.250000X0.650000X-0.412500X0.650000X0.412500X-0.650000X0.412500X-0.650000X-0.412500X0*%
%ADD48R,2.100000X2.100000*%
%ADD49C,2.100000*%
%ADD50R,0.700000X1.500000*%
%ADD51RoundRect,0.150000X0.150000X-0.825000X0.150000X0.825000X-0.150000X0.825000X-0.150000X-0.825000X0*%
%ADD52R,2.400000X1.900000*%
%ADD53R,2.300000X1.600000*%
%ADD54R,0.450000X1.475000*%
%ADD55R,2.310000X2.460000*%
%ADD56R,1.600000X2.300000*%
%ADD57R,3.500000X3.500000*%
%ADD58RoundRect,0.750000X-0.750000X-1.000000X0.750000X-1.000000X0.750000X1.000000X-0.750000X1.000000X0*%
%ADD59RoundRect,0.875000X-0.875000X-0.875000X0.875000X-0.875000X0.875000X0.875000X-0.875000X0.875000X0*%
%ADD60RoundRect,0.250000X0.600000X-0.600000X0.600000X0.600000X-0.600000X0.600000X-0.600000X-0.600000X0*%
%ADD61RoundRect,0.150000X-0.512500X-0.150000X0.512500X-0.150000X0.512500X0.150000X-0.512500X0.150000X0*%
G04 APERTURE END LIST*
G36*
X166750000Y-116650000D02*
G01*
X165250000Y-116650000D01*
X165250000Y-115150000D01*
X166750000Y-115150000D01*
X166750000Y-116650000D01*
G37*
G36*
X178350000Y-116650000D02*
G01*
X176850000Y-116650000D01*
X176850000Y-115150000D01*
X178350000Y-115150000D01*
X178350000Y-116650000D01*
G37*
G36*
X186022500Y-78327500D02*
G01*
X184522500Y-78327500D01*
X184522500Y-78627500D01*
X186022500Y-78627500D01*
X186022500Y-78327500D01*
G37*
G36*
X178522500Y-78327500D02*
G01*
X177022500Y-78327500D01*
X177022500Y-78627500D01*
X178522500Y-78627500D01*
X178522500Y-78327500D01*
G37*
G36*
X183522500Y-78327500D02*
G01*
X182022500Y-78327500D01*
X182022500Y-78627500D01*
X183522500Y-78627500D01*
X183522500Y-78327500D01*
G37*
G36*
X181022500Y-78327500D02*
G01*
X179522500Y-78327500D01*
X179522500Y-78627500D01*
X181022500Y-78627500D01*
X181022500Y-78327500D01*
G37*
D10*
X149880000Y-77740000D03*
X149880000Y-75200000D03*
X152420000Y-77740000D03*
X152420000Y-75200000D03*
X154960000Y-77740000D03*
X154960000Y-75200000D03*
X157500000Y-77740000D03*
X157500000Y-75200000D03*
X160040000Y-77740000D03*
D11*
X160040000Y-75200000D03*
D12*
X153200000Y-67300000D03*
D13*
X151200000Y-67300000D03*
X149200000Y-67300000D03*
D14*
X155300000Y-67300000D03*
X147100000Y-67300000D03*
D15*
X167300000Y-115900000D03*
D16*
X166000000Y-115900000D03*
D17*
X164700000Y-115900000D03*
D15*
X178900000Y-115900000D03*
D16*
X177600000Y-115900000D03*
D17*
X176300000Y-115900000D03*
D12*
X160300000Y-122000000D03*
D13*
X160300000Y-124000000D03*
X160300000Y-126000000D03*
D14*
X160300000Y-119900000D03*
X160300000Y-128100000D03*
D12*
X119300000Y-97500000D03*
D13*
X119300000Y-95500000D03*
X119300000Y-93500000D03*
D14*
X119300000Y-99600000D03*
X119300000Y-91400000D03*
D18*
X104360000Y-113640000D03*
X104360000Y-125070000D03*
D19*
X110710000Y-114910000D03*
D20*
X113250000Y-116180000D03*
X110710000Y-117450000D03*
X113250000Y-118720000D03*
X110710000Y-119990000D03*
X113250000Y-121260000D03*
X110710000Y-122530000D03*
X113250000Y-123800000D03*
D21*
X135370000Y-84402000D03*
X132270000Y-84402000D03*
D18*
X104360000Y-93440000D03*
X104360000Y-104870000D03*
D19*
X110710000Y-94710000D03*
D20*
X113250000Y-95980000D03*
X110710000Y-97250000D03*
X113250000Y-98520000D03*
X110710000Y-99790000D03*
X113250000Y-101060000D03*
X110710000Y-102330000D03*
X113250000Y-103600000D03*
D22*
X124450000Y-122660000D03*
D23*
X121910000Y-122660000D03*
D24*
X198060000Y-110400000D03*
X196140000Y-110400000D03*
X197100000Y-112600000D03*
D25*
X121300000Y-67487500D03*
X121300000Y-64512500D03*
D26*
X114190000Y-84500000D03*
X114190000Y-87600000D03*
D27*
X132350000Y-75307000D03*
X135450000Y-75307000D03*
D21*
X120550000Y-103000000D03*
X117450000Y-103000000D03*
D26*
X114400000Y-52850000D03*
X114400000Y-55950000D03*
D27*
X118230000Y-61010000D03*
X121330000Y-61010000D03*
D21*
X135407500Y-72329500D03*
X132307500Y-72329500D03*
D22*
X175620000Y-59100000D03*
D23*
X173080000Y-59100000D03*
X170540000Y-59100000D03*
X168000000Y-59100000D03*
X198420000Y-87220000D03*
D28*
X198420000Y-86320000D03*
D23*
X195880000Y-87220000D03*
D28*
X195880000Y-86320000D03*
D22*
X193340000Y-87220000D03*
D28*
X193340000Y-86320000D03*
D23*
X190800000Y-87220000D03*
D28*
X190800000Y-86320000D03*
D23*
X188260000Y-87220000D03*
D28*
X188260000Y-86320000D03*
D23*
X185720000Y-87220000D03*
D28*
X185720000Y-86320000D03*
D23*
X183180000Y-87220000D03*
D28*
X183180000Y-86320000D03*
D22*
X180640000Y-87220000D03*
D28*
X180640000Y-86320000D03*
D23*
X178100000Y-87220000D03*
D28*
X178100000Y-86320000D03*
D23*
X175560000Y-87220000D03*
D28*
X175560000Y-86320000D03*
D23*
X173020000Y-87220000D03*
D28*
X173020000Y-86320000D03*
D23*
X170480000Y-87220000D03*
D28*
X170480000Y-86320000D03*
D22*
X167940000Y-87220000D03*
D28*
X167940000Y-86320000D03*
D23*
X165400000Y-87220000D03*
D28*
X165400000Y-86320000D03*
D23*
X162860000Y-87220000D03*
D28*
X162860000Y-86320000D03*
D23*
X160320000Y-87220000D03*
D28*
X160320000Y-86320000D03*
D23*
X157780000Y-87220000D03*
D28*
X157780000Y-86320000D03*
D22*
X155240000Y-87220000D03*
D28*
X155240000Y-86320000D03*
D23*
X152700000Y-87220000D03*
D28*
X152700000Y-86320000D03*
D23*
X150160000Y-87220000D03*
D28*
X150160000Y-86320000D03*
D23*
X150160000Y-105000000D03*
D28*
X150160000Y-105900000D03*
D23*
X152700000Y-105000000D03*
D28*
X152700000Y-105900000D03*
D22*
X155240000Y-105000000D03*
D28*
X155240000Y-105900000D03*
D23*
X157780000Y-105000000D03*
D28*
X157780000Y-105900000D03*
D23*
X160320000Y-105000000D03*
D28*
X160320000Y-105900000D03*
D23*
X162860000Y-105000000D03*
D28*
X162860000Y-105900000D03*
D23*
X165400000Y-105000000D03*
D28*
X165400000Y-105900000D03*
D22*
X167940000Y-105000000D03*
D28*
X167940000Y-105900000D03*
D23*
X170480000Y-105000000D03*
D28*
X170480000Y-105900000D03*
D23*
X173020000Y-105000000D03*
D28*
X173020000Y-105900000D03*
D23*
X175560000Y-105000000D03*
D28*
X175560000Y-105900000D03*
D23*
X178100000Y-105000000D03*
D28*
X178100000Y-105900000D03*
D22*
X180640000Y-105000000D03*
D28*
X180640000Y-105900000D03*
D23*
X183180000Y-105000000D03*
D28*
X183180000Y-105900000D03*
D23*
X185720000Y-105000000D03*
D28*
X185720000Y-105900000D03*
D23*
X188260000Y-105000000D03*
D28*
X188260000Y-105900000D03*
D23*
X190800000Y-105000000D03*
D28*
X190800000Y-105900000D03*
D22*
X193340000Y-105000000D03*
D28*
X193340000Y-105900000D03*
D23*
X195880000Y-105000000D03*
D28*
X195880000Y-105900000D03*
D23*
X198420000Y-105000000D03*
D28*
X198420000Y-105900000D03*
D29*
X189700000Y-67812500D03*
X189700000Y-70787500D03*
D30*
X172562500Y-73675000D03*
D31*
X172562500Y-74975000D03*
D32*
X172562500Y-76275000D03*
D33*
X117850000Y-116700000D03*
X117850000Y-112580000D03*
D34*
X131397500Y-115537500D03*
X128272500Y-115537500D03*
D35*
X138035000Y-110462500D03*
X136765000Y-110462500D03*
X135495000Y-110462500D03*
X134225000Y-110462500D03*
X134225000Y-115412500D03*
X135495000Y-115412500D03*
X136765000Y-115412500D03*
X138035000Y-115412500D03*
D27*
X132350000Y-81307000D03*
X135450000Y-81307000D03*
D36*
X124537500Y-61885000D03*
X127662500Y-61885000D03*
D37*
X108300000Y-76200000D03*
D38*
X104800000Y-76200000D03*
D39*
X189700000Y-65150000D03*
X189700000Y-62050000D03*
D22*
X188200000Y-121875000D03*
D10*
X188200000Y-119335000D03*
D22*
X147460000Y-115700000D03*
D10*
X150000000Y-115700000D03*
X152540000Y-115700000D03*
D21*
X135935000Y-106700000D03*
X132835000Y-106700000D03*
D22*
X175615000Y-55465000D03*
D10*
X173075000Y-55465000D03*
X170535000Y-55465000D03*
X167995000Y-55465000D03*
X165455000Y-55465000D03*
X162915000Y-55465000D03*
X160375000Y-55465000D03*
X157835000Y-55465000D03*
D26*
X137900000Y-84100000D03*
X137900000Y-87200000D03*
D40*
X196050000Y-70250000D03*
D41*
X196050000Y-74750000D03*
D42*
X193550000Y-69000000D03*
X193550000Y-76000000D03*
D39*
X189700000Y-76250000D03*
X189700000Y-73150000D03*
D43*
X132312500Y-87000000D03*
X135287500Y-87000000D03*
D39*
X136000000Y-67950000D03*
X136000000Y-64850000D03*
D44*
X128600000Y-90150000D03*
X128600000Y-87850000D03*
D45*
X120400000Y-52700000D03*
D34*
X126762500Y-85300000D03*
X123637500Y-85300000D03*
D21*
X136050000Y-59300000D03*
X132950000Y-59300000D03*
D46*
X138600000Y-64937500D03*
X138600000Y-68062500D03*
D40*
X196000000Y-118200000D03*
D41*
X196000000Y-122700000D03*
D42*
X193500000Y-116950000D03*
X193500000Y-123950000D03*
D27*
X130300000Y-65000000D03*
X133400000Y-65000000D03*
D47*
X128635000Y-112562500D03*
X128635000Y-109437500D03*
D36*
X121100000Y-70900000D03*
X124225000Y-70900000D03*
D31*
X185272500Y-77827500D03*
X185272500Y-79127500D03*
D48*
X104985000Y-55015000D03*
D49*
X104985000Y-57555000D03*
D50*
X180162500Y-73192500D03*
X181432500Y-73192500D03*
X182702500Y-73192500D03*
X183972500Y-73192500D03*
X183972500Y-67742500D03*
X182702500Y-67742500D03*
X181432500Y-67742500D03*
X180162500Y-67742500D03*
D47*
X121320000Y-76624500D03*
X121320000Y-73499500D03*
D45*
X196350000Y-53500000D03*
D36*
X132367500Y-78307000D03*
X135492500Y-78307000D03*
D51*
X138025000Y-106675000D03*
X139295000Y-106675000D03*
X140565000Y-106675000D03*
X141835000Y-106675000D03*
X143105000Y-106675000D03*
X144375000Y-106675000D03*
X145645000Y-106675000D03*
X145645000Y-101725000D03*
X144375000Y-101725000D03*
X143105000Y-101725000D03*
X141835000Y-101725000D03*
X140565000Y-101725000D03*
X139295000Y-101725000D03*
X138025000Y-101725000D03*
D29*
X111500000Y-83795000D03*
X111500000Y-86770000D03*
D52*
X139100000Y-125850000D03*
X139100000Y-121750000D03*
D34*
X134762500Y-125850000D03*
X131637500Y-125850000D03*
D36*
X132872500Y-101700000D03*
X135997500Y-101700000D03*
D44*
X127100000Y-69550000D03*
X127100000Y-67250000D03*
D34*
X121625000Y-87800000D03*
X118500000Y-87800000D03*
D48*
X104900000Y-84160000D03*
D49*
X104900000Y-86700000D03*
D25*
X117500000Y-108487500D03*
X117500000Y-105512500D03*
D47*
X176672500Y-67590000D03*
X176672500Y-64465000D03*
D46*
X121320000Y-79699500D03*
X121320000Y-82824500D03*
D53*
X113037000Y-73450000D03*
X117437000Y-73450000D03*
D54*
X123900000Y-81100000D03*
X124550000Y-81100000D03*
X125200000Y-81100000D03*
X125850000Y-81100000D03*
X126500000Y-81100000D03*
X127150000Y-81100000D03*
X127800000Y-81100000D03*
X128450000Y-81100000D03*
X128450000Y-75224000D03*
X127800000Y-75224000D03*
X127150000Y-75224000D03*
X126500000Y-75224000D03*
X125850000Y-75224000D03*
X125200000Y-75224000D03*
X124550000Y-75224000D03*
X123900000Y-75224000D03*
D55*
X126175000Y-78162000D03*
D34*
X121625000Y-85135000D03*
X118500000Y-85135000D03*
D31*
X177772500Y-77827500D03*
X177772500Y-79127500D03*
D45*
X196300000Y-128400000D03*
D56*
X130200000Y-93400000D03*
X130200000Y-97800000D03*
D53*
X113000000Y-77300000D03*
X117400000Y-77300000D03*
D47*
X131235000Y-112562500D03*
X131235000Y-109437500D03*
D57*
X115200000Y-64700000D03*
D58*
X109200000Y-64700000D03*
D59*
X112200000Y-69400000D03*
D36*
X124537500Y-64500000D03*
X127662500Y-64500000D03*
D33*
X117840000Y-119450000D03*
X117840000Y-123570000D03*
D43*
X130425000Y-67900000D03*
X133400000Y-67900000D03*
D40*
X196000000Y-59300000D03*
D41*
X196000000Y-63800000D03*
D42*
X193500000Y-58050000D03*
X193500000Y-65050000D03*
D45*
X125650000Y-128400000D03*
D34*
X134662500Y-121550000D03*
X131537500Y-121550000D03*
D60*
X169720000Y-125200000D03*
D10*
X169720000Y-122660000D03*
X172260000Y-125200000D03*
X172260000Y-122660000D03*
X174800000Y-125200000D03*
X174800000Y-122660000D03*
X177340000Y-125200000D03*
X177340000Y-122660000D03*
X179880000Y-125200000D03*
X179880000Y-122660000D03*
D22*
X149900000Y-119460000D03*
D10*
X149900000Y-122000000D03*
X149900000Y-124540000D03*
X149900000Y-127080000D03*
D25*
X111485000Y-58972500D03*
X111485000Y-55997500D03*
D21*
X183832500Y-61042500D03*
X180732500Y-61042500D03*
D47*
X141100000Y-68062500D03*
X141100000Y-64937500D03*
D22*
X120100000Y-126800000D03*
D23*
X117560000Y-126800000D03*
D29*
X189600000Y-56812500D03*
X189600000Y-59787500D03*
D31*
X182772500Y-77827500D03*
X182772500Y-79127500D03*
D56*
X126600000Y-93400000D03*
X126600000Y-97800000D03*
D61*
X138762500Y-60550000D03*
X138762500Y-61500000D03*
X138762500Y-62450000D03*
X141037500Y-62450000D03*
X141037500Y-60550000D03*
D22*
X114500000Y-81000000D03*
D10*
X117040000Y-81000000D03*
D21*
X183867500Y-64017500D03*
X180767500Y-64017500D03*
D31*
X180272500Y-77827500D03*
X180272500Y-79127500D03*
D22*
X124410000Y-118150000D03*
D23*
X121870000Y-118150000D03*
D21*
X136050000Y-61800000D03*
X132950000Y-61800000D03*
X135350000Y-89600000D03*
X132250000Y-89600000D03*
M02*
