%TF.GenerationSoftware,KiCad,Pcbnew,8.0.5*%
%TF.CreationDate,2024-12-19T16:35:54-05:00*%
%TF.ProjectId,LCC-Pico-Stepper_v2_4B,4c43432d-5069-4636-9f2d-537465707065,rev?*%
%TF.SameCoordinates,Original*%
%TF.FileFunction,Drillmap*%
%TF.FilePolarity,Positive*%
%FSLAX45Y45*%
G04 Gerber Fmt 4.5, Leading zero omitted, Abs format (unit mm)*
G04 Created by KiCad (PCBNEW 8.0.5) date 2024-12-19 16:35:54*
%MOMM*%
%LPD*%
G01*
G04 APERTURE LIST*
%ADD10C,0.050000*%
%ADD11C,0.200000*%
%ADD12C,0.220000*%
%ADD13C,0.317000*%
G04 APERTURE END LIST*
D10*
X10070000Y-13200000D02*
X10070000Y-5000000D01*
X10070000Y-5000000D02*
X20070000Y-5000000D01*
X20070000Y-5000000D02*
X20070000Y-13200000D01*
X20070000Y-13200000D02*
X10070000Y-13200000D01*
D11*
D12*
X11830000Y-5310000D02*
X12050000Y-5530000D01*
X12050000Y-5310000D02*
X11830000Y-5530000D01*
X13920000Y-12580000D02*
X14140000Y-12800000D01*
X14140000Y-12580000D02*
X13920000Y-12800000D01*
X19700000Y-5130000D02*
X19920000Y-5350000D01*
X19920000Y-5130000D02*
X19700000Y-5350000D01*
D13*
X10594500Y-9344000D02*
G75*
G02*
X10277500Y-9344000I-158500J0D01*
G01*
X10277500Y-9344000D02*
G75*
G02*
X10594500Y-9344000I158500J0D01*
G01*
X10594500Y-10487000D02*
G75*
G02*
X10277500Y-10487000I-158500J0D01*
G01*
X10277500Y-10487000D02*
G75*
G02*
X10594500Y-10487000I158500J0D01*
G01*
X10594500Y-11364000D02*
G75*
G02*
X10277500Y-11364000I-158500J0D01*
G01*
X10277500Y-11364000D02*
G75*
G02*
X10594500Y-11364000I158500J0D01*
G01*
X10594500Y-12507000D02*
G75*
G02*
X10277500Y-12507000I-158500J0D01*
G01*
X10277500Y-12507000D02*
G75*
G02*
X10594500Y-12507000I158500J0D01*
G01*
D11*
X10328277Y-13513984D02*
X10328277Y-13313984D01*
X10328277Y-13313984D02*
X10375896Y-13313984D01*
X10375896Y-13313984D02*
X10404467Y-13323508D01*
X10404467Y-13323508D02*
X10423515Y-13342555D01*
X10423515Y-13342555D02*
X10433039Y-13361603D01*
X10433039Y-13361603D02*
X10442563Y-13399698D01*
X10442563Y-13399698D02*
X10442563Y-13428269D01*
X10442563Y-13428269D02*
X10433039Y-13466365D01*
X10433039Y-13466365D02*
X10423515Y-13485412D01*
X10423515Y-13485412D02*
X10404467Y-13504460D01*
X10404467Y-13504460D02*
X10375896Y-13513984D01*
X10375896Y-13513984D02*
X10328277Y-13513984D01*
X10528277Y-13513984D02*
X10528277Y-13380650D01*
X10528277Y-13418746D02*
X10537801Y-13399698D01*
X10537801Y-13399698D02*
X10547324Y-13390174D01*
X10547324Y-13390174D02*
X10566372Y-13380650D01*
X10566372Y-13380650D02*
X10585420Y-13380650D01*
X10652086Y-13513984D02*
X10652086Y-13380650D01*
X10652086Y-13313984D02*
X10642563Y-13323508D01*
X10642563Y-13323508D02*
X10652086Y-13333031D01*
X10652086Y-13333031D02*
X10661610Y-13323508D01*
X10661610Y-13323508D02*
X10652086Y-13313984D01*
X10652086Y-13313984D02*
X10652086Y-13333031D01*
X10775896Y-13513984D02*
X10756848Y-13504460D01*
X10756848Y-13504460D02*
X10747324Y-13485412D01*
X10747324Y-13485412D02*
X10747324Y-13313984D01*
X10880658Y-13513984D02*
X10861610Y-13504460D01*
X10861610Y-13504460D02*
X10852086Y-13485412D01*
X10852086Y-13485412D02*
X10852086Y-13313984D01*
X11109229Y-13513984D02*
X11109229Y-13313984D01*
X11109229Y-13313984D02*
X11175896Y-13456841D01*
X11175896Y-13456841D02*
X11242562Y-13313984D01*
X11242562Y-13313984D02*
X11242562Y-13513984D01*
X11423515Y-13513984D02*
X11423515Y-13409222D01*
X11423515Y-13409222D02*
X11413991Y-13390174D01*
X11413991Y-13390174D02*
X11394943Y-13380650D01*
X11394943Y-13380650D02*
X11356848Y-13380650D01*
X11356848Y-13380650D02*
X11337801Y-13390174D01*
X11423515Y-13504460D02*
X11404467Y-13513984D01*
X11404467Y-13513984D02*
X11356848Y-13513984D01*
X11356848Y-13513984D02*
X11337801Y-13504460D01*
X11337801Y-13504460D02*
X11328277Y-13485412D01*
X11328277Y-13485412D02*
X11328277Y-13466365D01*
X11328277Y-13466365D02*
X11337801Y-13447317D01*
X11337801Y-13447317D02*
X11356848Y-13437793D01*
X11356848Y-13437793D02*
X11404467Y-13437793D01*
X11404467Y-13437793D02*
X11423515Y-13428269D01*
X11518753Y-13380650D02*
X11518753Y-13580650D01*
X11518753Y-13390174D02*
X11537801Y-13380650D01*
X11537801Y-13380650D02*
X11575896Y-13380650D01*
X11575896Y-13380650D02*
X11594943Y-13390174D01*
X11594943Y-13390174D02*
X11604467Y-13399698D01*
X11604467Y-13399698D02*
X11613991Y-13418746D01*
X11613991Y-13418746D02*
X11613991Y-13475888D01*
X11613991Y-13475888D02*
X11604467Y-13494936D01*
X11604467Y-13494936D02*
X11594943Y-13504460D01*
X11594943Y-13504460D02*
X11575896Y-13513984D01*
X11575896Y-13513984D02*
X11537801Y-13513984D01*
X11537801Y-13513984D02*
X11518753Y-13504460D01*
X11699705Y-13494936D02*
X11709229Y-13504460D01*
X11709229Y-13504460D02*
X11699705Y-13513984D01*
X11699705Y-13513984D02*
X11690182Y-13504460D01*
X11690182Y-13504460D02*
X11699705Y-13494936D01*
X11699705Y-13494936D02*
X11699705Y-13513984D01*
X11699705Y-13390174D02*
X11709229Y-13399698D01*
X11709229Y-13399698D02*
X11699705Y-13409222D01*
X11699705Y-13409222D02*
X11690182Y-13399698D01*
X11690182Y-13399698D02*
X11699705Y-13390174D01*
X11699705Y-13390174D02*
X11699705Y-13409222D01*
X9867500Y-13742500D02*
X10067500Y-13942500D01*
X10067500Y-13742500D02*
X9867500Y-13942500D01*
X10318753Y-13753031D02*
X10328277Y-13743508D01*
X10328277Y-13743508D02*
X10347324Y-13733984D01*
X10347324Y-13733984D02*
X10394944Y-13733984D01*
X10394944Y-13733984D02*
X10413991Y-13743508D01*
X10413991Y-13743508D02*
X10423515Y-13753031D01*
X10423515Y-13753031D02*
X10433039Y-13772079D01*
X10433039Y-13772079D02*
X10433039Y-13791127D01*
X10433039Y-13791127D02*
X10423515Y-13819698D01*
X10423515Y-13819698D02*
X10309229Y-13933984D01*
X10309229Y-13933984D02*
X10433039Y-13933984D01*
X10518753Y-13914936D02*
X10528277Y-13924460D01*
X10528277Y-13924460D02*
X10518753Y-13933984D01*
X10518753Y-13933984D02*
X10509229Y-13924460D01*
X10509229Y-13924460D02*
X10518753Y-13914936D01*
X10518753Y-13914936D02*
X10518753Y-13933984D01*
X10604467Y-13753031D02*
X10613991Y-13743508D01*
X10613991Y-13743508D02*
X10633039Y-13733984D01*
X10633039Y-13733984D02*
X10680658Y-13733984D01*
X10680658Y-13733984D02*
X10699705Y-13743508D01*
X10699705Y-13743508D02*
X10709229Y-13753031D01*
X10709229Y-13753031D02*
X10718753Y-13772079D01*
X10718753Y-13772079D02*
X10718753Y-13791127D01*
X10718753Y-13791127D02*
X10709229Y-13819698D01*
X10709229Y-13819698D02*
X10594944Y-13933984D01*
X10594944Y-13933984D02*
X10718753Y-13933984D01*
X10842563Y-13733984D02*
X10861610Y-13733984D01*
X10861610Y-13733984D02*
X10880658Y-13743508D01*
X10880658Y-13743508D02*
X10890182Y-13753031D01*
X10890182Y-13753031D02*
X10899705Y-13772079D01*
X10899705Y-13772079D02*
X10909229Y-13810174D01*
X10909229Y-13810174D02*
X10909229Y-13857793D01*
X10909229Y-13857793D02*
X10899705Y-13895888D01*
X10899705Y-13895888D02*
X10890182Y-13914936D01*
X10890182Y-13914936D02*
X10880658Y-13924460D01*
X10880658Y-13924460D02*
X10861610Y-13933984D01*
X10861610Y-13933984D02*
X10842563Y-13933984D01*
X10842563Y-13933984D02*
X10823515Y-13924460D01*
X10823515Y-13924460D02*
X10813991Y-13914936D01*
X10813991Y-13914936D02*
X10804467Y-13895888D01*
X10804467Y-13895888D02*
X10794944Y-13857793D01*
X10794944Y-13857793D02*
X10794944Y-13810174D01*
X10794944Y-13810174D02*
X10804467Y-13772079D01*
X10804467Y-13772079D02*
X10813991Y-13753031D01*
X10813991Y-13753031D02*
X10823515Y-13743508D01*
X10823515Y-13743508D02*
X10842563Y-13733984D01*
X11033039Y-13733984D02*
X11052086Y-13733984D01*
X11052086Y-13733984D02*
X11071134Y-13743508D01*
X11071134Y-13743508D02*
X11080658Y-13753031D01*
X11080658Y-13753031D02*
X11090182Y-13772079D01*
X11090182Y-13772079D02*
X11099705Y-13810174D01*
X11099705Y-13810174D02*
X11099705Y-13857793D01*
X11099705Y-13857793D02*
X11090182Y-13895888D01*
X11090182Y-13895888D02*
X11080658Y-13914936D01*
X11080658Y-13914936D02*
X11071134Y-13924460D01*
X11071134Y-13924460D02*
X11052086Y-13933984D01*
X11052086Y-13933984D02*
X11033039Y-13933984D01*
X11033039Y-13933984D02*
X11013991Y-13924460D01*
X11013991Y-13924460D02*
X11004467Y-13914936D01*
X11004467Y-13914936D02*
X10994944Y-13895888D01*
X10994944Y-13895888D02*
X10985420Y-13857793D01*
X10985420Y-13857793D02*
X10985420Y-13810174D01*
X10985420Y-13810174D02*
X10994944Y-13772079D01*
X10994944Y-13772079D02*
X11004467Y-13753031D01*
X11004467Y-13753031D02*
X11013991Y-13743508D01*
X11013991Y-13743508D02*
X11033039Y-13733984D01*
X11185420Y-13933984D02*
X11185420Y-13800650D01*
X11185420Y-13819698D02*
X11194943Y-13810174D01*
X11194943Y-13810174D02*
X11213991Y-13800650D01*
X11213991Y-13800650D02*
X11242563Y-13800650D01*
X11242563Y-13800650D02*
X11261610Y-13810174D01*
X11261610Y-13810174D02*
X11271134Y-13829222D01*
X11271134Y-13829222D02*
X11271134Y-13933984D01*
X11271134Y-13829222D02*
X11280658Y-13810174D01*
X11280658Y-13810174D02*
X11299705Y-13800650D01*
X11299705Y-13800650D02*
X11328277Y-13800650D01*
X11328277Y-13800650D02*
X11347324Y-13810174D01*
X11347324Y-13810174D02*
X11356848Y-13829222D01*
X11356848Y-13829222D02*
X11356848Y-13933984D01*
X11452086Y-13933984D02*
X11452086Y-13800650D01*
X11452086Y-13819698D02*
X11461610Y-13810174D01*
X11461610Y-13810174D02*
X11480658Y-13800650D01*
X11480658Y-13800650D02*
X11509229Y-13800650D01*
X11509229Y-13800650D02*
X11528277Y-13810174D01*
X11528277Y-13810174D02*
X11537801Y-13829222D01*
X11537801Y-13829222D02*
X11537801Y-13933984D01*
X11537801Y-13829222D02*
X11547324Y-13810174D01*
X11547324Y-13810174D02*
X11566372Y-13800650D01*
X11566372Y-13800650D02*
X11594943Y-13800650D01*
X11594943Y-13800650D02*
X11613991Y-13810174D01*
X11613991Y-13810174D02*
X11623515Y-13829222D01*
X11623515Y-13829222D02*
X11623515Y-13933984D01*
X12013991Y-13724460D02*
X11842563Y-13981603D01*
X12271134Y-13733984D02*
X12290182Y-13733984D01*
X12290182Y-13733984D02*
X12309229Y-13743508D01*
X12309229Y-13743508D02*
X12318753Y-13753031D01*
X12318753Y-13753031D02*
X12328277Y-13772079D01*
X12328277Y-13772079D02*
X12337801Y-13810174D01*
X12337801Y-13810174D02*
X12337801Y-13857793D01*
X12337801Y-13857793D02*
X12328277Y-13895888D01*
X12328277Y-13895888D02*
X12318753Y-13914936D01*
X12318753Y-13914936D02*
X12309229Y-13924460D01*
X12309229Y-13924460D02*
X12290182Y-13933984D01*
X12290182Y-13933984D02*
X12271134Y-13933984D01*
X12271134Y-13933984D02*
X12252086Y-13924460D01*
X12252086Y-13924460D02*
X12242563Y-13914936D01*
X12242563Y-13914936D02*
X12233039Y-13895888D01*
X12233039Y-13895888D02*
X12223515Y-13857793D01*
X12223515Y-13857793D02*
X12223515Y-13810174D01*
X12223515Y-13810174D02*
X12233039Y-13772079D01*
X12233039Y-13772079D02*
X12242563Y-13753031D01*
X12242563Y-13753031D02*
X12252086Y-13743508D01*
X12252086Y-13743508D02*
X12271134Y-13733984D01*
X12423515Y-13914936D02*
X12433039Y-13924460D01*
X12433039Y-13924460D02*
X12423515Y-13933984D01*
X12423515Y-13933984D02*
X12413991Y-13924460D01*
X12413991Y-13924460D02*
X12423515Y-13914936D01*
X12423515Y-13914936D02*
X12423515Y-13933984D01*
X12556848Y-13733984D02*
X12575896Y-13733984D01*
X12575896Y-13733984D02*
X12594944Y-13743508D01*
X12594944Y-13743508D02*
X12604467Y-13753031D01*
X12604467Y-13753031D02*
X12613991Y-13772079D01*
X12613991Y-13772079D02*
X12623515Y-13810174D01*
X12623515Y-13810174D02*
X12623515Y-13857793D01*
X12623515Y-13857793D02*
X12613991Y-13895888D01*
X12613991Y-13895888D02*
X12604467Y-13914936D01*
X12604467Y-13914936D02*
X12594944Y-13924460D01*
X12594944Y-13924460D02*
X12575896Y-13933984D01*
X12575896Y-13933984D02*
X12556848Y-13933984D01*
X12556848Y-13933984D02*
X12537801Y-13924460D01*
X12537801Y-13924460D02*
X12528277Y-13914936D01*
X12528277Y-13914936D02*
X12518753Y-13895888D01*
X12518753Y-13895888D02*
X12509229Y-13857793D01*
X12509229Y-13857793D02*
X12509229Y-13810174D01*
X12509229Y-13810174D02*
X12518753Y-13772079D01*
X12518753Y-13772079D02*
X12528277Y-13753031D01*
X12528277Y-13753031D02*
X12537801Y-13743508D01*
X12537801Y-13743508D02*
X12556848Y-13733984D01*
X12737801Y-13819698D02*
X12718753Y-13810174D01*
X12718753Y-13810174D02*
X12709229Y-13800650D01*
X12709229Y-13800650D02*
X12699706Y-13781603D01*
X12699706Y-13781603D02*
X12699706Y-13772079D01*
X12699706Y-13772079D02*
X12709229Y-13753031D01*
X12709229Y-13753031D02*
X12718753Y-13743508D01*
X12718753Y-13743508D02*
X12737801Y-13733984D01*
X12737801Y-13733984D02*
X12775896Y-13733984D01*
X12775896Y-13733984D02*
X12794944Y-13743508D01*
X12794944Y-13743508D02*
X12804467Y-13753031D01*
X12804467Y-13753031D02*
X12813991Y-13772079D01*
X12813991Y-13772079D02*
X12813991Y-13781603D01*
X12813991Y-13781603D02*
X12804467Y-13800650D01*
X12804467Y-13800650D02*
X12794944Y-13810174D01*
X12794944Y-13810174D02*
X12775896Y-13819698D01*
X12775896Y-13819698D02*
X12737801Y-13819698D01*
X12737801Y-13819698D02*
X12718753Y-13829222D01*
X12718753Y-13829222D02*
X12709229Y-13838746D01*
X12709229Y-13838746D02*
X12699706Y-13857793D01*
X12699706Y-13857793D02*
X12699706Y-13895888D01*
X12699706Y-13895888D02*
X12709229Y-13914936D01*
X12709229Y-13914936D02*
X12718753Y-13924460D01*
X12718753Y-13924460D02*
X12737801Y-13933984D01*
X12737801Y-13933984D02*
X12775896Y-13933984D01*
X12775896Y-13933984D02*
X12794944Y-13924460D01*
X12794944Y-13924460D02*
X12804467Y-13914936D01*
X12804467Y-13914936D02*
X12813991Y-13895888D01*
X12813991Y-13895888D02*
X12813991Y-13857793D01*
X12813991Y-13857793D02*
X12804467Y-13838746D01*
X12804467Y-13838746D02*
X12794944Y-13829222D01*
X12794944Y-13829222D02*
X12775896Y-13819698D01*
X12985420Y-13733984D02*
X12947325Y-13733984D01*
X12947325Y-13733984D02*
X12928277Y-13743508D01*
X12928277Y-13743508D02*
X12918753Y-13753031D01*
X12918753Y-13753031D02*
X12899706Y-13781603D01*
X12899706Y-13781603D02*
X12890182Y-13819698D01*
X12890182Y-13819698D02*
X12890182Y-13895888D01*
X12890182Y-13895888D02*
X12899706Y-13914936D01*
X12899706Y-13914936D02*
X12909229Y-13924460D01*
X12909229Y-13924460D02*
X12928277Y-13933984D01*
X12928277Y-13933984D02*
X12966372Y-13933984D01*
X12966372Y-13933984D02*
X12985420Y-13924460D01*
X12985420Y-13924460D02*
X12994944Y-13914936D01*
X12994944Y-13914936D02*
X13004467Y-13895888D01*
X13004467Y-13895888D02*
X13004467Y-13848269D01*
X13004467Y-13848269D02*
X12994944Y-13829222D01*
X12994944Y-13829222D02*
X12985420Y-13819698D01*
X12985420Y-13819698D02*
X12966372Y-13810174D01*
X12966372Y-13810174D02*
X12928277Y-13810174D01*
X12928277Y-13810174D02*
X12909229Y-13819698D01*
X12909229Y-13819698D02*
X12899706Y-13829222D01*
X12899706Y-13829222D02*
X12890182Y-13848269D01*
X13175896Y-13733984D02*
X13137801Y-13733984D01*
X13137801Y-13733984D02*
X13118753Y-13743508D01*
X13118753Y-13743508D02*
X13109229Y-13753031D01*
X13109229Y-13753031D02*
X13090182Y-13781603D01*
X13090182Y-13781603D02*
X13080658Y-13819698D01*
X13080658Y-13819698D02*
X13080658Y-13895888D01*
X13080658Y-13895888D02*
X13090182Y-13914936D01*
X13090182Y-13914936D02*
X13099706Y-13924460D01*
X13099706Y-13924460D02*
X13118753Y-13933984D01*
X13118753Y-13933984D02*
X13156848Y-13933984D01*
X13156848Y-13933984D02*
X13175896Y-13924460D01*
X13175896Y-13924460D02*
X13185420Y-13914936D01*
X13185420Y-13914936D02*
X13194944Y-13895888D01*
X13194944Y-13895888D02*
X13194944Y-13848269D01*
X13194944Y-13848269D02*
X13185420Y-13829222D01*
X13185420Y-13829222D02*
X13175896Y-13819698D01*
X13175896Y-13819698D02*
X13156848Y-13810174D01*
X13156848Y-13810174D02*
X13118753Y-13810174D01*
X13118753Y-13810174D02*
X13099706Y-13819698D01*
X13099706Y-13819698D02*
X13090182Y-13829222D01*
X13090182Y-13829222D02*
X13080658Y-13848269D01*
X13271134Y-13733984D02*
X13271134Y-13772079D01*
X13347325Y-13733984D02*
X13347325Y-13772079D01*
X13642563Y-14010174D02*
X13633039Y-14000650D01*
X13633039Y-14000650D02*
X13613991Y-13972079D01*
X13613991Y-13972079D02*
X13604468Y-13953031D01*
X13604468Y-13953031D02*
X13594944Y-13924460D01*
X13594944Y-13924460D02*
X13585420Y-13876841D01*
X13585420Y-13876841D02*
X13585420Y-13838746D01*
X13585420Y-13838746D02*
X13594944Y-13791127D01*
X13594944Y-13791127D02*
X13604468Y-13762555D01*
X13604468Y-13762555D02*
X13613991Y-13743508D01*
X13613991Y-13743508D02*
X13633039Y-13714936D01*
X13633039Y-13714936D02*
X13642563Y-13705412D01*
X13699706Y-13733984D02*
X13823515Y-13733984D01*
X13823515Y-13733984D02*
X13756848Y-13810174D01*
X13756848Y-13810174D02*
X13785420Y-13810174D01*
X13785420Y-13810174D02*
X13804468Y-13819698D01*
X13804468Y-13819698D02*
X13813991Y-13829222D01*
X13813991Y-13829222D02*
X13823515Y-13848269D01*
X13823515Y-13848269D02*
X13823515Y-13895888D01*
X13823515Y-13895888D02*
X13813991Y-13914936D01*
X13813991Y-13914936D02*
X13804468Y-13924460D01*
X13804468Y-13924460D02*
X13785420Y-13933984D01*
X13785420Y-13933984D02*
X13728277Y-13933984D01*
X13728277Y-13933984D02*
X13709229Y-13924460D01*
X13709229Y-13924460D02*
X13699706Y-13914936D01*
X14061610Y-13933984D02*
X14061610Y-13733984D01*
X14147325Y-13933984D02*
X14147325Y-13829222D01*
X14147325Y-13829222D02*
X14137801Y-13810174D01*
X14137801Y-13810174D02*
X14118753Y-13800650D01*
X14118753Y-13800650D02*
X14090182Y-13800650D01*
X14090182Y-13800650D02*
X14071134Y-13810174D01*
X14071134Y-13810174D02*
X14061610Y-13819698D01*
X14271134Y-13933984D02*
X14252087Y-13924460D01*
X14252087Y-13924460D02*
X14242563Y-13914936D01*
X14242563Y-13914936D02*
X14233039Y-13895888D01*
X14233039Y-13895888D02*
X14233039Y-13838746D01*
X14233039Y-13838746D02*
X14242563Y-13819698D01*
X14242563Y-13819698D02*
X14252087Y-13810174D01*
X14252087Y-13810174D02*
X14271134Y-13800650D01*
X14271134Y-13800650D02*
X14299706Y-13800650D01*
X14299706Y-13800650D02*
X14318753Y-13810174D01*
X14318753Y-13810174D02*
X14328277Y-13819698D01*
X14328277Y-13819698D02*
X14337801Y-13838746D01*
X14337801Y-13838746D02*
X14337801Y-13895888D01*
X14337801Y-13895888D02*
X14328277Y-13914936D01*
X14328277Y-13914936D02*
X14318753Y-13924460D01*
X14318753Y-13924460D02*
X14299706Y-13933984D01*
X14299706Y-13933984D02*
X14271134Y-13933984D01*
X14452087Y-13933984D02*
X14433039Y-13924460D01*
X14433039Y-13924460D02*
X14423515Y-13905412D01*
X14423515Y-13905412D02*
X14423515Y-13733984D01*
X14604468Y-13924460D02*
X14585420Y-13933984D01*
X14585420Y-13933984D02*
X14547325Y-13933984D01*
X14547325Y-13933984D02*
X14528277Y-13924460D01*
X14528277Y-13924460D02*
X14518753Y-13905412D01*
X14518753Y-13905412D02*
X14518753Y-13829222D01*
X14518753Y-13829222D02*
X14528277Y-13810174D01*
X14528277Y-13810174D02*
X14547325Y-13800650D01*
X14547325Y-13800650D02*
X14585420Y-13800650D01*
X14585420Y-13800650D02*
X14604468Y-13810174D01*
X14604468Y-13810174D02*
X14613991Y-13829222D01*
X14613991Y-13829222D02*
X14613991Y-13848269D01*
X14613991Y-13848269D02*
X14518753Y-13867317D01*
X14690182Y-13924460D02*
X14709230Y-13933984D01*
X14709230Y-13933984D02*
X14747325Y-13933984D01*
X14747325Y-13933984D02*
X14766372Y-13924460D01*
X14766372Y-13924460D02*
X14775896Y-13905412D01*
X14775896Y-13905412D02*
X14775896Y-13895888D01*
X14775896Y-13895888D02*
X14766372Y-13876841D01*
X14766372Y-13876841D02*
X14747325Y-13867317D01*
X14747325Y-13867317D02*
X14718753Y-13867317D01*
X14718753Y-13867317D02*
X14699706Y-13857793D01*
X14699706Y-13857793D02*
X14690182Y-13838746D01*
X14690182Y-13838746D02*
X14690182Y-13829222D01*
X14690182Y-13829222D02*
X14699706Y-13810174D01*
X14699706Y-13810174D02*
X14718753Y-13800650D01*
X14718753Y-13800650D02*
X14747325Y-13800650D01*
X14747325Y-13800650D02*
X14766372Y-13810174D01*
X14842563Y-14010174D02*
X14852087Y-14000650D01*
X14852087Y-14000650D02*
X14871134Y-13972079D01*
X14871134Y-13972079D02*
X14880658Y-13953031D01*
X14880658Y-13953031D02*
X14890182Y-13924460D01*
X14890182Y-13924460D02*
X14899706Y-13876841D01*
X14899706Y-13876841D02*
X14899706Y-13838746D01*
X14899706Y-13838746D02*
X14890182Y-13791127D01*
X14890182Y-13791127D02*
X14880658Y-13762555D01*
X14880658Y-13762555D02*
X14871134Y-13743508D01*
X14871134Y-13743508D02*
X14852087Y-13714936D01*
X14852087Y-13714936D02*
X14842563Y-13705412D01*
X15204468Y-14010174D02*
X15194944Y-14000650D01*
X15194944Y-14000650D02*
X15175896Y-13972079D01*
X15175896Y-13972079D02*
X15166372Y-13953031D01*
X15166372Y-13953031D02*
X15156849Y-13924460D01*
X15156849Y-13924460D02*
X15147325Y-13876841D01*
X15147325Y-13876841D02*
X15147325Y-13838746D01*
X15147325Y-13838746D02*
X15156849Y-13791127D01*
X15156849Y-13791127D02*
X15166372Y-13762555D01*
X15166372Y-13762555D02*
X15175896Y-13743508D01*
X15175896Y-13743508D02*
X15194944Y-13714936D01*
X15194944Y-13714936D02*
X15204468Y-13705412D01*
X15280658Y-13800650D02*
X15280658Y-13933984D01*
X15280658Y-13819698D02*
X15290182Y-13810174D01*
X15290182Y-13810174D02*
X15309230Y-13800650D01*
X15309230Y-13800650D02*
X15337801Y-13800650D01*
X15337801Y-13800650D02*
X15356849Y-13810174D01*
X15356849Y-13810174D02*
X15366372Y-13829222D01*
X15366372Y-13829222D02*
X15366372Y-13933984D01*
X15490182Y-13933984D02*
X15471134Y-13924460D01*
X15471134Y-13924460D02*
X15461611Y-13914936D01*
X15461611Y-13914936D02*
X15452087Y-13895888D01*
X15452087Y-13895888D02*
X15452087Y-13838746D01*
X15452087Y-13838746D02*
X15461611Y-13819698D01*
X15461611Y-13819698D02*
X15471134Y-13810174D01*
X15471134Y-13810174D02*
X15490182Y-13800650D01*
X15490182Y-13800650D02*
X15518753Y-13800650D01*
X15518753Y-13800650D02*
X15537801Y-13810174D01*
X15537801Y-13810174D02*
X15547325Y-13819698D01*
X15547325Y-13819698D02*
X15556849Y-13838746D01*
X15556849Y-13838746D02*
X15556849Y-13895888D01*
X15556849Y-13895888D02*
X15547325Y-13914936D01*
X15547325Y-13914936D02*
X15537801Y-13924460D01*
X15537801Y-13924460D02*
X15518753Y-13933984D01*
X15518753Y-13933984D02*
X15490182Y-13933984D01*
X15613992Y-13800650D02*
X15690182Y-13800650D01*
X15642563Y-13733984D02*
X15642563Y-13905412D01*
X15642563Y-13905412D02*
X15652087Y-13924460D01*
X15652087Y-13924460D02*
X15671134Y-13933984D01*
X15671134Y-13933984D02*
X15690182Y-13933984D01*
X15909230Y-13800650D02*
X15909230Y-14000650D01*
X15909230Y-13810174D02*
X15928277Y-13800650D01*
X15928277Y-13800650D02*
X15966373Y-13800650D01*
X15966373Y-13800650D02*
X15985420Y-13810174D01*
X15985420Y-13810174D02*
X15994944Y-13819698D01*
X15994944Y-13819698D02*
X16004468Y-13838746D01*
X16004468Y-13838746D02*
X16004468Y-13895888D01*
X16004468Y-13895888D02*
X15994944Y-13914936D01*
X15994944Y-13914936D02*
X15985420Y-13924460D01*
X15985420Y-13924460D02*
X15966373Y-13933984D01*
X15966373Y-13933984D02*
X15928277Y-13933984D01*
X15928277Y-13933984D02*
X15909230Y-13924460D01*
X16118753Y-13933984D02*
X16099706Y-13924460D01*
X16099706Y-13924460D02*
X16090182Y-13905412D01*
X16090182Y-13905412D02*
X16090182Y-13733984D01*
X16280658Y-13933984D02*
X16280658Y-13829222D01*
X16280658Y-13829222D02*
X16271134Y-13810174D01*
X16271134Y-13810174D02*
X16252087Y-13800650D01*
X16252087Y-13800650D02*
X16213992Y-13800650D01*
X16213992Y-13800650D02*
X16194944Y-13810174D01*
X16280658Y-13924460D02*
X16261611Y-13933984D01*
X16261611Y-13933984D02*
X16213992Y-13933984D01*
X16213992Y-13933984D02*
X16194944Y-13924460D01*
X16194944Y-13924460D02*
X16185420Y-13905412D01*
X16185420Y-13905412D02*
X16185420Y-13886365D01*
X16185420Y-13886365D02*
X16194944Y-13867317D01*
X16194944Y-13867317D02*
X16213992Y-13857793D01*
X16213992Y-13857793D02*
X16261611Y-13857793D01*
X16261611Y-13857793D02*
X16280658Y-13848269D01*
X16347325Y-13800650D02*
X16423515Y-13800650D01*
X16375896Y-13733984D02*
X16375896Y-13905412D01*
X16375896Y-13905412D02*
X16385420Y-13924460D01*
X16385420Y-13924460D02*
X16404468Y-13933984D01*
X16404468Y-13933984D02*
X16423515Y-13933984D01*
X16566373Y-13924460D02*
X16547325Y-13933984D01*
X16547325Y-13933984D02*
X16509230Y-13933984D01*
X16509230Y-13933984D02*
X16490182Y-13924460D01*
X16490182Y-13924460D02*
X16480658Y-13905412D01*
X16480658Y-13905412D02*
X16480658Y-13829222D01*
X16480658Y-13829222D02*
X16490182Y-13810174D01*
X16490182Y-13810174D02*
X16509230Y-13800650D01*
X16509230Y-13800650D02*
X16547325Y-13800650D01*
X16547325Y-13800650D02*
X16566373Y-13810174D01*
X16566373Y-13810174D02*
X16575896Y-13829222D01*
X16575896Y-13829222D02*
X16575896Y-13848269D01*
X16575896Y-13848269D02*
X16480658Y-13867317D01*
X16747325Y-13933984D02*
X16747325Y-13733984D01*
X16747325Y-13924460D02*
X16728277Y-13933984D01*
X16728277Y-13933984D02*
X16690182Y-13933984D01*
X16690182Y-13933984D02*
X16671134Y-13924460D01*
X16671134Y-13924460D02*
X16661611Y-13914936D01*
X16661611Y-13914936D02*
X16652087Y-13895888D01*
X16652087Y-13895888D02*
X16652087Y-13838746D01*
X16652087Y-13838746D02*
X16661611Y-13819698D01*
X16661611Y-13819698D02*
X16671134Y-13810174D01*
X16671134Y-13810174D02*
X16690182Y-13800650D01*
X16690182Y-13800650D02*
X16728277Y-13800650D01*
X16728277Y-13800650D02*
X16747325Y-13810174D01*
X16823516Y-14010174D02*
X16833039Y-14000650D01*
X16833039Y-14000650D02*
X16852087Y-13972079D01*
X16852087Y-13972079D02*
X16861611Y-13953031D01*
X16861611Y-13953031D02*
X16871135Y-13924460D01*
X16871135Y-13924460D02*
X16880658Y-13876841D01*
X16880658Y-13876841D02*
X16880658Y-13838746D01*
X16880658Y-13838746D02*
X16871135Y-13791127D01*
X16871135Y-13791127D02*
X16861611Y-13762555D01*
X16861611Y-13762555D02*
X16852087Y-13743508D01*
X16852087Y-13743508D02*
X16833039Y-13714936D01*
X16833039Y-13714936D02*
X16823516Y-13705412D01*
X10067500Y-14162500D02*
G75*
G02*
X9867500Y-14162500I-100000J0D01*
G01*
X9867500Y-14162500D02*
G75*
G02*
X10067500Y-14162500I100000J0D01*
G01*
X10309229Y-14053984D02*
X10433039Y-14053984D01*
X10433039Y-14053984D02*
X10366372Y-14130174D01*
X10366372Y-14130174D02*
X10394944Y-14130174D01*
X10394944Y-14130174D02*
X10413991Y-14139698D01*
X10413991Y-14139698D02*
X10423515Y-14149222D01*
X10423515Y-14149222D02*
X10433039Y-14168269D01*
X10433039Y-14168269D02*
X10433039Y-14215888D01*
X10433039Y-14215888D02*
X10423515Y-14234936D01*
X10423515Y-14234936D02*
X10413991Y-14244460D01*
X10413991Y-14244460D02*
X10394944Y-14253984D01*
X10394944Y-14253984D02*
X10337801Y-14253984D01*
X10337801Y-14253984D02*
X10318753Y-14244460D01*
X10318753Y-14244460D02*
X10309229Y-14234936D01*
X10518753Y-14234936D02*
X10528277Y-14244460D01*
X10528277Y-14244460D02*
X10518753Y-14253984D01*
X10518753Y-14253984D02*
X10509229Y-14244460D01*
X10509229Y-14244460D02*
X10518753Y-14234936D01*
X10518753Y-14234936D02*
X10518753Y-14253984D01*
X10718753Y-14253984D02*
X10604467Y-14253984D01*
X10661610Y-14253984D02*
X10661610Y-14053984D01*
X10661610Y-14053984D02*
X10642563Y-14082555D01*
X10642563Y-14082555D02*
X10623515Y-14101603D01*
X10623515Y-14101603D02*
X10604467Y-14111127D01*
X10785420Y-14053984D02*
X10918753Y-14053984D01*
X10918753Y-14053984D02*
X10833039Y-14253984D01*
X11033039Y-14053984D02*
X11052086Y-14053984D01*
X11052086Y-14053984D02*
X11071134Y-14063508D01*
X11071134Y-14063508D02*
X11080658Y-14073031D01*
X11080658Y-14073031D02*
X11090182Y-14092079D01*
X11090182Y-14092079D02*
X11099705Y-14130174D01*
X11099705Y-14130174D02*
X11099705Y-14177793D01*
X11099705Y-14177793D02*
X11090182Y-14215888D01*
X11090182Y-14215888D02*
X11080658Y-14234936D01*
X11080658Y-14234936D02*
X11071134Y-14244460D01*
X11071134Y-14244460D02*
X11052086Y-14253984D01*
X11052086Y-14253984D02*
X11033039Y-14253984D01*
X11033039Y-14253984D02*
X11013991Y-14244460D01*
X11013991Y-14244460D02*
X11004467Y-14234936D01*
X11004467Y-14234936D02*
X10994944Y-14215888D01*
X10994944Y-14215888D02*
X10985420Y-14177793D01*
X10985420Y-14177793D02*
X10985420Y-14130174D01*
X10985420Y-14130174D02*
X10994944Y-14092079D01*
X10994944Y-14092079D02*
X11004467Y-14073031D01*
X11004467Y-14073031D02*
X11013991Y-14063508D01*
X11013991Y-14063508D02*
X11033039Y-14053984D01*
X11185420Y-14253984D02*
X11185420Y-14120650D01*
X11185420Y-14139698D02*
X11194943Y-14130174D01*
X11194943Y-14130174D02*
X11213991Y-14120650D01*
X11213991Y-14120650D02*
X11242563Y-14120650D01*
X11242563Y-14120650D02*
X11261610Y-14130174D01*
X11261610Y-14130174D02*
X11271134Y-14149222D01*
X11271134Y-14149222D02*
X11271134Y-14253984D01*
X11271134Y-14149222D02*
X11280658Y-14130174D01*
X11280658Y-14130174D02*
X11299705Y-14120650D01*
X11299705Y-14120650D02*
X11328277Y-14120650D01*
X11328277Y-14120650D02*
X11347324Y-14130174D01*
X11347324Y-14130174D02*
X11356848Y-14149222D01*
X11356848Y-14149222D02*
X11356848Y-14253984D01*
X11452086Y-14253984D02*
X11452086Y-14120650D01*
X11452086Y-14139698D02*
X11461610Y-14130174D01*
X11461610Y-14130174D02*
X11480658Y-14120650D01*
X11480658Y-14120650D02*
X11509229Y-14120650D01*
X11509229Y-14120650D02*
X11528277Y-14130174D01*
X11528277Y-14130174D02*
X11537801Y-14149222D01*
X11537801Y-14149222D02*
X11537801Y-14253984D01*
X11537801Y-14149222D02*
X11547324Y-14130174D01*
X11547324Y-14130174D02*
X11566372Y-14120650D01*
X11566372Y-14120650D02*
X11594943Y-14120650D01*
X11594943Y-14120650D02*
X11613991Y-14130174D01*
X11613991Y-14130174D02*
X11623515Y-14149222D01*
X11623515Y-14149222D02*
X11623515Y-14253984D01*
X12013991Y-14044460D02*
X11842563Y-14301603D01*
X12271134Y-14053984D02*
X12290182Y-14053984D01*
X12290182Y-14053984D02*
X12309229Y-14063508D01*
X12309229Y-14063508D02*
X12318753Y-14073031D01*
X12318753Y-14073031D02*
X12328277Y-14092079D01*
X12328277Y-14092079D02*
X12337801Y-14130174D01*
X12337801Y-14130174D02*
X12337801Y-14177793D01*
X12337801Y-14177793D02*
X12328277Y-14215888D01*
X12328277Y-14215888D02*
X12318753Y-14234936D01*
X12318753Y-14234936D02*
X12309229Y-14244460D01*
X12309229Y-14244460D02*
X12290182Y-14253984D01*
X12290182Y-14253984D02*
X12271134Y-14253984D01*
X12271134Y-14253984D02*
X12252086Y-14244460D01*
X12252086Y-14244460D02*
X12242563Y-14234936D01*
X12242563Y-14234936D02*
X12233039Y-14215888D01*
X12233039Y-14215888D02*
X12223515Y-14177793D01*
X12223515Y-14177793D02*
X12223515Y-14130174D01*
X12223515Y-14130174D02*
X12233039Y-14092079D01*
X12233039Y-14092079D02*
X12242563Y-14073031D01*
X12242563Y-14073031D02*
X12252086Y-14063508D01*
X12252086Y-14063508D02*
X12271134Y-14053984D01*
X12423515Y-14234936D02*
X12433039Y-14244460D01*
X12433039Y-14244460D02*
X12423515Y-14253984D01*
X12423515Y-14253984D02*
X12413991Y-14244460D01*
X12413991Y-14244460D02*
X12423515Y-14234936D01*
X12423515Y-14234936D02*
X12423515Y-14253984D01*
X12623515Y-14253984D02*
X12509229Y-14253984D01*
X12566372Y-14253984D02*
X12566372Y-14053984D01*
X12566372Y-14053984D02*
X12547325Y-14082555D01*
X12547325Y-14082555D02*
X12528277Y-14101603D01*
X12528277Y-14101603D02*
X12509229Y-14111127D01*
X12699706Y-14073031D02*
X12709229Y-14063508D01*
X12709229Y-14063508D02*
X12728277Y-14053984D01*
X12728277Y-14053984D02*
X12775896Y-14053984D01*
X12775896Y-14053984D02*
X12794944Y-14063508D01*
X12794944Y-14063508D02*
X12804467Y-14073031D01*
X12804467Y-14073031D02*
X12813991Y-14092079D01*
X12813991Y-14092079D02*
X12813991Y-14111127D01*
X12813991Y-14111127D02*
X12804467Y-14139698D01*
X12804467Y-14139698D02*
X12690182Y-14253984D01*
X12690182Y-14253984D02*
X12813991Y-14253984D01*
X12985420Y-14120650D02*
X12985420Y-14253984D01*
X12937801Y-14044460D02*
X12890182Y-14187317D01*
X12890182Y-14187317D02*
X13013991Y-14187317D01*
X13118753Y-14139698D02*
X13099706Y-14130174D01*
X13099706Y-14130174D02*
X13090182Y-14120650D01*
X13090182Y-14120650D02*
X13080658Y-14101603D01*
X13080658Y-14101603D02*
X13080658Y-14092079D01*
X13080658Y-14092079D02*
X13090182Y-14073031D01*
X13090182Y-14073031D02*
X13099706Y-14063508D01*
X13099706Y-14063508D02*
X13118753Y-14053984D01*
X13118753Y-14053984D02*
X13156848Y-14053984D01*
X13156848Y-14053984D02*
X13175896Y-14063508D01*
X13175896Y-14063508D02*
X13185420Y-14073031D01*
X13185420Y-14073031D02*
X13194944Y-14092079D01*
X13194944Y-14092079D02*
X13194944Y-14101603D01*
X13194944Y-14101603D02*
X13185420Y-14120650D01*
X13185420Y-14120650D02*
X13175896Y-14130174D01*
X13175896Y-14130174D02*
X13156848Y-14139698D01*
X13156848Y-14139698D02*
X13118753Y-14139698D01*
X13118753Y-14139698D02*
X13099706Y-14149222D01*
X13099706Y-14149222D02*
X13090182Y-14158746D01*
X13090182Y-14158746D02*
X13080658Y-14177793D01*
X13080658Y-14177793D02*
X13080658Y-14215888D01*
X13080658Y-14215888D02*
X13090182Y-14234936D01*
X13090182Y-14234936D02*
X13099706Y-14244460D01*
X13099706Y-14244460D02*
X13118753Y-14253984D01*
X13118753Y-14253984D02*
X13156848Y-14253984D01*
X13156848Y-14253984D02*
X13175896Y-14244460D01*
X13175896Y-14244460D02*
X13185420Y-14234936D01*
X13185420Y-14234936D02*
X13194944Y-14215888D01*
X13194944Y-14215888D02*
X13194944Y-14177793D01*
X13194944Y-14177793D02*
X13185420Y-14158746D01*
X13185420Y-14158746D02*
X13175896Y-14149222D01*
X13175896Y-14149222D02*
X13156848Y-14139698D01*
X13271134Y-14053984D02*
X13271134Y-14092079D01*
X13347325Y-14053984D02*
X13347325Y-14092079D01*
X13642563Y-14330174D02*
X13633039Y-14320650D01*
X13633039Y-14320650D02*
X13613991Y-14292079D01*
X13613991Y-14292079D02*
X13604468Y-14273031D01*
X13604468Y-14273031D02*
X13594944Y-14244460D01*
X13594944Y-14244460D02*
X13585420Y-14196841D01*
X13585420Y-14196841D02*
X13585420Y-14158746D01*
X13585420Y-14158746D02*
X13594944Y-14111127D01*
X13594944Y-14111127D02*
X13604468Y-14082555D01*
X13604468Y-14082555D02*
X13613991Y-14063508D01*
X13613991Y-14063508D02*
X13633039Y-14034936D01*
X13633039Y-14034936D02*
X13642563Y-14025412D01*
X13804468Y-14120650D02*
X13804468Y-14253984D01*
X13756848Y-14044460D02*
X13709229Y-14187317D01*
X13709229Y-14187317D02*
X13833039Y-14187317D01*
X14061610Y-14253984D02*
X14061610Y-14053984D01*
X14147325Y-14253984D02*
X14147325Y-14149222D01*
X14147325Y-14149222D02*
X14137801Y-14130174D01*
X14137801Y-14130174D02*
X14118753Y-14120650D01*
X14118753Y-14120650D02*
X14090182Y-14120650D01*
X14090182Y-14120650D02*
X14071134Y-14130174D01*
X14071134Y-14130174D02*
X14061610Y-14139698D01*
X14271134Y-14253984D02*
X14252087Y-14244460D01*
X14252087Y-14244460D02*
X14242563Y-14234936D01*
X14242563Y-14234936D02*
X14233039Y-14215888D01*
X14233039Y-14215888D02*
X14233039Y-14158746D01*
X14233039Y-14158746D02*
X14242563Y-14139698D01*
X14242563Y-14139698D02*
X14252087Y-14130174D01*
X14252087Y-14130174D02*
X14271134Y-14120650D01*
X14271134Y-14120650D02*
X14299706Y-14120650D01*
X14299706Y-14120650D02*
X14318753Y-14130174D01*
X14318753Y-14130174D02*
X14328277Y-14139698D01*
X14328277Y-14139698D02*
X14337801Y-14158746D01*
X14337801Y-14158746D02*
X14337801Y-14215888D01*
X14337801Y-14215888D02*
X14328277Y-14234936D01*
X14328277Y-14234936D02*
X14318753Y-14244460D01*
X14318753Y-14244460D02*
X14299706Y-14253984D01*
X14299706Y-14253984D02*
X14271134Y-14253984D01*
X14452087Y-14253984D02*
X14433039Y-14244460D01*
X14433039Y-14244460D02*
X14423515Y-14225412D01*
X14423515Y-14225412D02*
X14423515Y-14053984D01*
X14604468Y-14244460D02*
X14585420Y-14253984D01*
X14585420Y-14253984D02*
X14547325Y-14253984D01*
X14547325Y-14253984D02*
X14528277Y-14244460D01*
X14528277Y-14244460D02*
X14518753Y-14225412D01*
X14518753Y-14225412D02*
X14518753Y-14149222D01*
X14518753Y-14149222D02*
X14528277Y-14130174D01*
X14528277Y-14130174D02*
X14547325Y-14120650D01*
X14547325Y-14120650D02*
X14585420Y-14120650D01*
X14585420Y-14120650D02*
X14604468Y-14130174D01*
X14604468Y-14130174D02*
X14613991Y-14149222D01*
X14613991Y-14149222D02*
X14613991Y-14168269D01*
X14613991Y-14168269D02*
X14518753Y-14187317D01*
X14690182Y-14244460D02*
X14709230Y-14253984D01*
X14709230Y-14253984D02*
X14747325Y-14253984D01*
X14747325Y-14253984D02*
X14766372Y-14244460D01*
X14766372Y-14244460D02*
X14775896Y-14225412D01*
X14775896Y-14225412D02*
X14775896Y-14215888D01*
X14775896Y-14215888D02*
X14766372Y-14196841D01*
X14766372Y-14196841D02*
X14747325Y-14187317D01*
X14747325Y-14187317D02*
X14718753Y-14187317D01*
X14718753Y-14187317D02*
X14699706Y-14177793D01*
X14699706Y-14177793D02*
X14690182Y-14158746D01*
X14690182Y-14158746D02*
X14690182Y-14149222D01*
X14690182Y-14149222D02*
X14699706Y-14130174D01*
X14699706Y-14130174D02*
X14718753Y-14120650D01*
X14718753Y-14120650D02*
X14747325Y-14120650D01*
X14747325Y-14120650D02*
X14766372Y-14130174D01*
X14842563Y-14330174D02*
X14852087Y-14320650D01*
X14852087Y-14320650D02*
X14871134Y-14292079D01*
X14871134Y-14292079D02*
X14880658Y-14273031D01*
X14880658Y-14273031D02*
X14890182Y-14244460D01*
X14890182Y-14244460D02*
X14899706Y-14196841D01*
X14899706Y-14196841D02*
X14899706Y-14158746D01*
X14899706Y-14158746D02*
X14890182Y-14111127D01*
X14890182Y-14111127D02*
X14880658Y-14082555D01*
X14880658Y-14082555D02*
X14871134Y-14063508D01*
X14871134Y-14063508D02*
X14852087Y-14034936D01*
X14852087Y-14034936D02*
X14842563Y-14025412D01*
X15204468Y-14330174D02*
X15194944Y-14320650D01*
X15194944Y-14320650D02*
X15175896Y-14292079D01*
X15175896Y-14292079D02*
X15166372Y-14273031D01*
X15166372Y-14273031D02*
X15156849Y-14244460D01*
X15156849Y-14244460D02*
X15147325Y-14196841D01*
X15147325Y-14196841D02*
X15147325Y-14158746D01*
X15147325Y-14158746D02*
X15156849Y-14111127D01*
X15156849Y-14111127D02*
X15166372Y-14082555D01*
X15166372Y-14082555D02*
X15175896Y-14063508D01*
X15175896Y-14063508D02*
X15194944Y-14034936D01*
X15194944Y-14034936D02*
X15204468Y-14025412D01*
X15280658Y-14120650D02*
X15280658Y-14253984D01*
X15280658Y-14139698D02*
X15290182Y-14130174D01*
X15290182Y-14130174D02*
X15309230Y-14120650D01*
X15309230Y-14120650D02*
X15337801Y-14120650D01*
X15337801Y-14120650D02*
X15356849Y-14130174D01*
X15356849Y-14130174D02*
X15366372Y-14149222D01*
X15366372Y-14149222D02*
X15366372Y-14253984D01*
X15490182Y-14253984D02*
X15471134Y-14244460D01*
X15471134Y-14244460D02*
X15461611Y-14234936D01*
X15461611Y-14234936D02*
X15452087Y-14215888D01*
X15452087Y-14215888D02*
X15452087Y-14158746D01*
X15452087Y-14158746D02*
X15461611Y-14139698D01*
X15461611Y-14139698D02*
X15471134Y-14130174D01*
X15471134Y-14130174D02*
X15490182Y-14120650D01*
X15490182Y-14120650D02*
X15518753Y-14120650D01*
X15518753Y-14120650D02*
X15537801Y-14130174D01*
X15537801Y-14130174D02*
X15547325Y-14139698D01*
X15547325Y-14139698D02*
X15556849Y-14158746D01*
X15556849Y-14158746D02*
X15556849Y-14215888D01*
X15556849Y-14215888D02*
X15547325Y-14234936D01*
X15547325Y-14234936D02*
X15537801Y-14244460D01*
X15537801Y-14244460D02*
X15518753Y-14253984D01*
X15518753Y-14253984D02*
X15490182Y-14253984D01*
X15613992Y-14120650D02*
X15690182Y-14120650D01*
X15642563Y-14053984D02*
X15642563Y-14225412D01*
X15642563Y-14225412D02*
X15652087Y-14244460D01*
X15652087Y-14244460D02*
X15671134Y-14253984D01*
X15671134Y-14253984D02*
X15690182Y-14253984D01*
X15909230Y-14120650D02*
X15909230Y-14320650D01*
X15909230Y-14130174D02*
X15928277Y-14120650D01*
X15928277Y-14120650D02*
X15966373Y-14120650D01*
X15966373Y-14120650D02*
X15985420Y-14130174D01*
X15985420Y-14130174D02*
X15994944Y-14139698D01*
X15994944Y-14139698D02*
X16004468Y-14158746D01*
X16004468Y-14158746D02*
X16004468Y-14215888D01*
X16004468Y-14215888D02*
X15994944Y-14234936D01*
X15994944Y-14234936D02*
X15985420Y-14244460D01*
X15985420Y-14244460D02*
X15966373Y-14253984D01*
X15966373Y-14253984D02*
X15928277Y-14253984D01*
X15928277Y-14253984D02*
X15909230Y-14244460D01*
X16118753Y-14253984D02*
X16099706Y-14244460D01*
X16099706Y-14244460D02*
X16090182Y-14225412D01*
X16090182Y-14225412D02*
X16090182Y-14053984D01*
X16280658Y-14253984D02*
X16280658Y-14149222D01*
X16280658Y-14149222D02*
X16271134Y-14130174D01*
X16271134Y-14130174D02*
X16252087Y-14120650D01*
X16252087Y-14120650D02*
X16213992Y-14120650D01*
X16213992Y-14120650D02*
X16194944Y-14130174D01*
X16280658Y-14244460D02*
X16261611Y-14253984D01*
X16261611Y-14253984D02*
X16213992Y-14253984D01*
X16213992Y-14253984D02*
X16194944Y-14244460D01*
X16194944Y-14244460D02*
X16185420Y-14225412D01*
X16185420Y-14225412D02*
X16185420Y-14206365D01*
X16185420Y-14206365D02*
X16194944Y-14187317D01*
X16194944Y-14187317D02*
X16213992Y-14177793D01*
X16213992Y-14177793D02*
X16261611Y-14177793D01*
X16261611Y-14177793D02*
X16280658Y-14168269D01*
X16347325Y-14120650D02*
X16423515Y-14120650D01*
X16375896Y-14053984D02*
X16375896Y-14225412D01*
X16375896Y-14225412D02*
X16385420Y-14244460D01*
X16385420Y-14244460D02*
X16404468Y-14253984D01*
X16404468Y-14253984D02*
X16423515Y-14253984D01*
X16566373Y-14244460D02*
X16547325Y-14253984D01*
X16547325Y-14253984D02*
X16509230Y-14253984D01*
X16509230Y-14253984D02*
X16490182Y-14244460D01*
X16490182Y-14244460D02*
X16480658Y-14225412D01*
X16480658Y-14225412D02*
X16480658Y-14149222D01*
X16480658Y-14149222D02*
X16490182Y-14130174D01*
X16490182Y-14130174D02*
X16509230Y-14120650D01*
X16509230Y-14120650D02*
X16547325Y-14120650D01*
X16547325Y-14120650D02*
X16566373Y-14130174D01*
X16566373Y-14130174D02*
X16575896Y-14149222D01*
X16575896Y-14149222D02*
X16575896Y-14168269D01*
X16575896Y-14168269D02*
X16480658Y-14187317D01*
X16747325Y-14253984D02*
X16747325Y-14053984D01*
X16747325Y-14244460D02*
X16728277Y-14253984D01*
X16728277Y-14253984D02*
X16690182Y-14253984D01*
X16690182Y-14253984D02*
X16671134Y-14244460D01*
X16671134Y-14244460D02*
X16661611Y-14234936D01*
X16661611Y-14234936D02*
X16652087Y-14215888D01*
X16652087Y-14215888D02*
X16652087Y-14158746D01*
X16652087Y-14158746D02*
X16661611Y-14139698D01*
X16661611Y-14139698D02*
X16671134Y-14130174D01*
X16671134Y-14130174D02*
X16690182Y-14120650D01*
X16690182Y-14120650D02*
X16728277Y-14120650D01*
X16728277Y-14120650D02*
X16747325Y-14130174D01*
X16823516Y-14330174D02*
X16833039Y-14320650D01*
X16833039Y-14320650D02*
X16852087Y-14292079D01*
X16852087Y-14292079D02*
X16861611Y-14273031D01*
X16861611Y-14273031D02*
X16871135Y-14244460D01*
X16871135Y-14244460D02*
X16880658Y-14196841D01*
X16880658Y-14196841D02*
X16880658Y-14158746D01*
X16880658Y-14158746D02*
X16871135Y-14111127D01*
X16871135Y-14111127D02*
X16861611Y-14082555D01*
X16861611Y-14082555D02*
X16852087Y-14063508D01*
X16852087Y-14063508D02*
X16833039Y-14034936D01*
X16833039Y-14034936D02*
X16823516Y-14025412D01*
M02*
