%TF.GenerationSoftware,KiCad,Pcbnew,9.0.6*%
%TF.CreationDate,2026-04-09T21:12:27-04:00*%
%TF.ProjectId,LCC-Pico-Node_v2_8,4c43432d-5069-4636-9f2d-4e6f64655f76,rev?*%
%TF.SameCoordinates,Original*%
%TF.FileFunction,Soldermask,Bot*%
%TF.FilePolarity,Negative*%
%FSLAX46Y46*%
G04 Gerber Fmt 4.6, Leading zero omitted, Abs format (unit mm)*
G04 Created by KiCad (PCBNEW 9.0.6) date 2026-04-09 21:12:27*
%MOMM*%
%LPD*%
G01*
G04 APERTURE LIST*
G04 Aperture macros list*
%AMRoundRect*
0 Rectangle with rounded corners*
0 $1 Rounding radius*
0 $2 $3 $4 $5 $6 $7 $8 $9 X,Y pos of 4 corners*
0 Add a 4 corners polygon primitive as box body*
4,1,4,$2,$3,$4,$5,$6,$7,$8,$9,$2,$3,0*
0 Add four circle primitives for the rounded corners*
1,1,$1+$1,$2,$3*
1,1,$1+$1,$4,$5*
1,1,$1+$1,$6,$7*
1,1,$1+$1,$8,$9*
0 Add four rect primitives between the rounded corners*
20,1,$1+$1,$2,$3,$4,$5,0*
20,1,$1+$1,$4,$5,$6,$7,0*
20,1,$1+$1,$6,$7,$8,$9,0*
20,1,$1+$1,$8,$9,$2,$3,0*%
G04 Aperture macros list end*
%ADD10C,1.700000*%
%ADD11RoundRect,0.250000X-0.600000X0.600000X-0.600000X-0.600000X0.600000X-0.600000X0.600000X0.600000X0*%
%ADD12R,1.337000X1.337000*%
%ADD13C,1.337000*%
%ADD14C,2.190000*%
%ADD15C,3.170000*%
%ADD16R,1.400000X1.400000*%
%ADD17C,1.400000*%
%ADD18R,1.700000X1.700000*%
%ADD19O,1.700000X1.700000*%
%ADD20R,1.600000X1.600000*%
%ADD21C,1.600000*%
%ADD22R,1.500000X1.500000*%
%ADD23C,1.500000*%
%ADD24C,1.950000*%
%ADD25C,3.500000*%
%ADD26R,2.100000X2.100000*%
%ADD27C,2.100000*%
%ADD28R,3.500000X3.500000*%
%ADD29RoundRect,0.750000X-0.750000X-1.000000X0.750000X-1.000000X0.750000X1.000000X-0.750000X1.000000X0*%
%ADD30RoundRect,0.875000X-0.875000X-0.875000X0.875000X-0.875000X0.875000X0.875000X-0.875000X0.875000X0*%
%ADD31RoundRect,0.250000X0.600000X-0.600000X0.600000X0.600000X-0.600000X0.600000X-0.600000X-0.600000X0*%
G04 APERTURE END LIST*
D10*
X149880000Y-77740000D03*
X149880000Y-75200000D03*
X152420000Y-77740000D03*
X152420000Y-75200000D03*
X154960000Y-77740000D03*
X154960000Y-75200000D03*
X157500000Y-77740000D03*
X157500000Y-75200000D03*
X160040000Y-77740000D03*
D11*
X160040000Y-75200000D03*
D12*
X153200000Y-67300000D03*
D13*
X151200000Y-67300000D03*
X149200000Y-67300000D03*
D14*
X155300000Y-67300000D03*
X147100000Y-67300000D03*
D12*
X160300000Y-122000000D03*
D13*
X160300000Y-124000000D03*
X160300000Y-126000000D03*
D14*
X160300000Y-119900000D03*
X160300000Y-128100000D03*
D12*
X119300000Y-97500000D03*
D13*
X119300000Y-95500000D03*
X119300000Y-93500000D03*
D14*
X119300000Y-99600000D03*
X119300000Y-91400000D03*
D15*
X104360000Y-113640000D03*
X104360000Y-125070000D03*
D16*
X110710000Y-114910000D03*
D17*
X113250000Y-116180000D03*
X110710000Y-117450000D03*
X113250000Y-118720000D03*
X110710000Y-119990000D03*
X113250000Y-121260000D03*
X110710000Y-122530000D03*
X113250000Y-123800000D03*
D15*
X104360000Y-93440000D03*
X104360000Y-104870000D03*
D16*
X110710000Y-94710000D03*
D17*
X113250000Y-95980000D03*
X110710000Y-97250000D03*
X113250000Y-98520000D03*
X110710000Y-99790000D03*
X113250000Y-101060000D03*
X110710000Y-102330000D03*
X113250000Y-103600000D03*
D18*
X124450000Y-122660000D03*
D19*
X121910000Y-122660000D03*
D18*
X175620000Y-59100000D03*
D19*
X173080000Y-59100000D03*
X170540000Y-59100000D03*
X168000000Y-59100000D03*
X198420000Y-87220000D03*
X195880000Y-87220000D03*
D18*
X193340000Y-87220000D03*
D19*
X190800000Y-87220000D03*
X188260000Y-87220000D03*
X185720000Y-87220000D03*
X183180000Y-87220000D03*
D18*
X180640000Y-87220000D03*
D19*
X178100000Y-87220000D03*
X175560000Y-87220000D03*
X173020000Y-87220000D03*
X170480000Y-87220000D03*
D18*
X167940000Y-87220000D03*
D19*
X165400000Y-87220000D03*
X162860000Y-87220000D03*
X160320000Y-87220000D03*
X157780000Y-87220000D03*
D18*
X155240000Y-87220000D03*
D19*
X152700000Y-87220000D03*
X150160000Y-87220000D03*
X150160000Y-105000000D03*
X152700000Y-105000000D03*
D18*
X155240000Y-105000000D03*
D19*
X157780000Y-105000000D03*
X160320000Y-105000000D03*
X162860000Y-105000000D03*
X165400000Y-105000000D03*
D18*
X167940000Y-105000000D03*
D19*
X170480000Y-105000000D03*
X173020000Y-105000000D03*
X175560000Y-105000000D03*
X178100000Y-105000000D03*
D18*
X180640000Y-105000000D03*
D19*
X183180000Y-105000000D03*
X185720000Y-105000000D03*
X188260000Y-105000000D03*
X190800000Y-105000000D03*
D18*
X193340000Y-105000000D03*
D19*
X195880000Y-105000000D03*
X198420000Y-105000000D03*
D20*
X108300000Y-76200000D03*
D21*
X104800000Y-76200000D03*
D18*
X188200000Y-121875000D03*
D10*
X188200000Y-119335000D03*
D18*
X147460000Y-115700000D03*
D10*
X150000000Y-115700000D03*
X152540000Y-115700000D03*
D18*
X175615000Y-55465000D03*
D10*
X173075000Y-55465000D03*
X170535000Y-55465000D03*
X167995000Y-55465000D03*
X165455000Y-55465000D03*
X162915000Y-55465000D03*
X160375000Y-55465000D03*
X157835000Y-55465000D03*
D22*
X196050000Y-70250000D03*
D23*
X196050000Y-74750000D03*
D24*
X193550000Y-69000000D03*
X193550000Y-76000000D03*
D25*
X120400000Y-52700000D03*
D22*
X196000000Y-118200000D03*
D23*
X196000000Y-122700000D03*
D24*
X193500000Y-116950000D03*
X193500000Y-123950000D03*
D26*
X104985000Y-55015000D03*
D27*
X104985000Y-57555000D03*
D25*
X196350000Y-53500000D03*
D26*
X104900000Y-84160000D03*
D27*
X104900000Y-86700000D03*
D25*
X196300000Y-128400000D03*
D28*
X115200000Y-64700000D03*
D29*
X109200000Y-64700000D03*
D30*
X112200000Y-69400000D03*
D22*
X196000000Y-59300000D03*
D23*
X196000000Y-63800000D03*
D24*
X193500000Y-58050000D03*
X193500000Y-65050000D03*
D25*
X125650000Y-128400000D03*
D31*
X169720000Y-125200000D03*
D10*
X169720000Y-122660000D03*
X172260000Y-125200000D03*
X172260000Y-122660000D03*
X174800000Y-125200000D03*
X174800000Y-122660000D03*
X177340000Y-125200000D03*
X177340000Y-122660000D03*
X179880000Y-125200000D03*
X179880000Y-122660000D03*
D18*
X149900000Y-119460000D03*
D10*
X149900000Y-122000000D03*
X149900000Y-124540000D03*
X149900000Y-127080000D03*
D18*
X120100000Y-126800000D03*
D19*
X117560000Y-126800000D03*
D18*
X114500000Y-81000000D03*
D10*
X117040000Y-81000000D03*
D18*
X124410000Y-118150000D03*
D19*
X121870000Y-118150000D03*
M02*
