%TF.GenerationSoftware,KiCad,Pcbnew,9.0.6*%
%TF.CreationDate,2026-04-09T21:12:27-04:00*%
%TF.ProjectId,LCC-Pico-Node_v2_8,4c43432d-5069-4636-9f2d-4e6f64655f76,rev?*%
%TF.SameCoordinates,Original*%
%TF.FileFunction,Paste,Top*%
%TF.FilePolarity,Positive*%
%FSLAX46Y46*%
G04 Gerber Fmt 4.6, Leading zero omitted, Abs format (unit mm)*
G04 Created by KiCad (PCBNEW 9.0.6) date 2026-04-09 21:12:27*
%MOMM*%
%LPD*%
G01*
G04 APERTURE LIST*
G04 Aperture macros list*
%AMRoundRect*
0 Rectangle with rounded corners*
0 $1 Rounding radius*
0 $2 $3 $4 $5 $6 $7 $8 $9 X,Y pos of 4 corners*
0 Add a 4 corners polygon primitive as box body*
4,1,4,$2,$3,$4,$5,$6,$7,$8,$9,$2,$3,0*
0 Add four circle primitives for the rounded corners*
1,1,$1+$1,$2,$3*
1,1,$1+$1,$4,$5*
1,1,$1+$1,$6,$7*
1,1,$1+$1,$8,$9*
0 Add four rect primitives between the rounded corners*
20,1,$1+$1,$2,$3,$4,$5,0*
20,1,$1+$1,$4,$5,$6,$7,0*
20,1,$1+$1,$6,$7,$8,$9,0*
20,1,$1+$1,$8,$9,$2,$3,0*%
G04 Aperture macros list end*
%ADD10RoundRect,0.250000X0.400000X0.625000X-0.400000X0.625000X-0.400000X-0.625000X0.400000X-0.625000X0*%
%ADD11R,0.600000X1.150000*%
%ADD12RoundRect,0.250001X0.624999X-0.462499X0.624999X0.462499X-0.624999X0.462499X-0.624999X-0.462499X0*%
%ADD13RoundRect,0.250000X-0.625000X0.400000X-0.625000X-0.400000X0.625000X-0.400000X0.625000X0.400000X0*%
%ADD14RoundRect,0.250000X-0.400000X-0.625000X0.400000X-0.625000X0.400000X0.625000X-0.400000X0.625000X0*%
%ADD15RoundRect,0.250001X-0.624999X0.462499X-0.624999X-0.462499X0.624999X-0.462499X0.624999X0.462499X0*%
%ADD16R,3.430000X1.320000*%
%ADD17RoundRect,0.250000X0.412500X0.650000X-0.412500X0.650000X-0.412500X-0.650000X0.412500X-0.650000X0*%
%ADD18RoundRect,0.150000X-0.150000X0.825000X-0.150000X-0.825000X0.150000X-0.825000X0.150000X0.825000X0*%
%ADD19RoundRect,0.250000X-0.412500X-0.650000X0.412500X-0.650000X0.412500X0.650000X-0.412500X0.650000X0*%
%ADD20RoundRect,0.250000X0.625000X-0.400000X0.625000X0.400000X-0.625000X0.400000X-0.625000X-0.400000X0*%
%ADD21RoundRect,0.250001X-0.462499X-0.624999X0.462499X-0.624999X0.462499X0.624999X-0.462499X0.624999X0*%
%ADD22R,2.800000X1.850000*%
%ADD23RoundRect,0.250000X-0.650000X0.412500X-0.650000X-0.412500X0.650000X-0.412500X0.650000X0.412500X0*%
%ADD24RoundRect,0.250000X0.650000X-0.412500X0.650000X0.412500X-0.650000X0.412500X-0.650000X-0.412500X0*%
%ADD25R,0.700000X1.500000*%
%ADD26RoundRect,0.150000X0.150000X-0.825000X0.150000X0.825000X-0.150000X0.825000X-0.150000X-0.825000X0*%
%ADD27R,2.400000X1.900000*%
%ADD28R,2.300000X1.600000*%
%ADD29R,0.450000X1.475000*%
%ADD30R,2.310000X2.460000*%
%ADD31R,1.600000X2.300000*%
%ADD32RoundRect,0.150000X-0.512500X-0.150000X0.512500X-0.150000X0.512500X0.150000X-0.512500X0.150000X0*%
G04 APERTURE END LIST*
D10*
X135370000Y-84402000D03*
X132270000Y-84402000D03*
D11*
X198060000Y-110400000D03*
X196140000Y-110400000D03*
X197100000Y-112600000D03*
D12*
X121300000Y-67487500D03*
X121300000Y-64512500D03*
D13*
X114190000Y-84500000D03*
X114190000Y-87600000D03*
D14*
X132350000Y-75307000D03*
X135450000Y-75307000D03*
D10*
X120550000Y-103000000D03*
X117450000Y-103000000D03*
D13*
X114400000Y-52850000D03*
X114400000Y-55950000D03*
D14*
X118230000Y-61010000D03*
X121330000Y-61010000D03*
D10*
X135407500Y-72329500D03*
X132307500Y-72329500D03*
D15*
X189700000Y-67812500D03*
X189700000Y-70787500D03*
D16*
X117850000Y-116700000D03*
X117850000Y-112580000D03*
D17*
X131397500Y-115537500D03*
X128272500Y-115537500D03*
D18*
X138035000Y-110462500D03*
X136765000Y-110462500D03*
X135495000Y-110462500D03*
X134225000Y-110462500D03*
X134225000Y-115412500D03*
X135495000Y-115412500D03*
X136765000Y-115412500D03*
X138035000Y-115412500D03*
D14*
X132350000Y-81307000D03*
X135450000Y-81307000D03*
D19*
X124537500Y-61885000D03*
X127662500Y-61885000D03*
D20*
X189700000Y-65150000D03*
X189700000Y-62050000D03*
D10*
X135935000Y-106700000D03*
X132835000Y-106700000D03*
D13*
X137900000Y-84100000D03*
X137900000Y-87200000D03*
D20*
X189700000Y-76250000D03*
X189700000Y-73150000D03*
D21*
X132312500Y-87000000D03*
X135287500Y-87000000D03*
D20*
X136000000Y-67950000D03*
X136000000Y-64850000D03*
D22*
X128600000Y-90150000D03*
X128600000Y-87850000D03*
D17*
X126762500Y-85300000D03*
X123637500Y-85300000D03*
D10*
X136050000Y-59300000D03*
X132950000Y-59300000D03*
D23*
X138600000Y-64937500D03*
X138600000Y-68062500D03*
D14*
X130300000Y-65000000D03*
X133400000Y-65000000D03*
D24*
X128635000Y-112562500D03*
X128635000Y-109437500D03*
D19*
X121100000Y-70900000D03*
X124225000Y-70900000D03*
D25*
X180162500Y-73192500D03*
X181432500Y-73192500D03*
X182702500Y-73192500D03*
X183972500Y-73192500D03*
X183972500Y-67742500D03*
X182702500Y-67742500D03*
X181432500Y-67742500D03*
X180162500Y-67742500D03*
D24*
X121320000Y-76624500D03*
X121320000Y-73499500D03*
D19*
X132367500Y-78307000D03*
X135492500Y-78307000D03*
D26*
X138025000Y-106675000D03*
X139295000Y-106675000D03*
X140565000Y-106675000D03*
X141835000Y-106675000D03*
X143105000Y-106675000D03*
X144375000Y-106675000D03*
X145645000Y-106675000D03*
X145645000Y-101725000D03*
X144375000Y-101725000D03*
X143105000Y-101725000D03*
X141835000Y-101725000D03*
X140565000Y-101725000D03*
X139295000Y-101725000D03*
X138025000Y-101725000D03*
D15*
X111500000Y-83795000D03*
X111500000Y-86770000D03*
D27*
X139100000Y-125850000D03*
X139100000Y-121750000D03*
D17*
X134762500Y-125850000D03*
X131637500Y-125850000D03*
D19*
X132872500Y-101700000D03*
X135997500Y-101700000D03*
D22*
X127100000Y-69550000D03*
X127100000Y-67250000D03*
D17*
X121625000Y-87800000D03*
X118500000Y-87800000D03*
D12*
X117500000Y-108487500D03*
X117500000Y-105512500D03*
D24*
X176672500Y-67590000D03*
X176672500Y-64465000D03*
D23*
X121320000Y-79699500D03*
X121320000Y-82824500D03*
D28*
X113037000Y-73450000D03*
X117437000Y-73450000D03*
D29*
X123900000Y-81100000D03*
X124550000Y-81100000D03*
X125200000Y-81100000D03*
X125850000Y-81100000D03*
X126500000Y-81100000D03*
X127150000Y-81100000D03*
X127800000Y-81100000D03*
X128450000Y-81100000D03*
X128450000Y-75224000D03*
X127800000Y-75224000D03*
X127150000Y-75224000D03*
X126500000Y-75224000D03*
X125850000Y-75224000D03*
X125200000Y-75224000D03*
X124550000Y-75224000D03*
X123900000Y-75224000D03*
D30*
X126175000Y-78162000D03*
D17*
X121625000Y-85135000D03*
X118500000Y-85135000D03*
D31*
X130200000Y-93400000D03*
X130200000Y-97800000D03*
D28*
X113000000Y-77300000D03*
X117400000Y-77300000D03*
D24*
X131235000Y-112562500D03*
X131235000Y-109437500D03*
D19*
X124537500Y-64500000D03*
X127662500Y-64500000D03*
D16*
X117840000Y-119450000D03*
X117840000Y-123570000D03*
D21*
X130425000Y-67900000D03*
X133400000Y-67900000D03*
D17*
X134662500Y-121550000D03*
X131537500Y-121550000D03*
D12*
X111485000Y-58972500D03*
X111485000Y-55997500D03*
D10*
X183832500Y-61042500D03*
X180732500Y-61042500D03*
D24*
X141100000Y-68062500D03*
X141100000Y-64937500D03*
D15*
X189600000Y-56812500D03*
X189600000Y-59787500D03*
D31*
X126600000Y-93400000D03*
X126600000Y-97800000D03*
D32*
X138762500Y-60550000D03*
X138762500Y-61500000D03*
X138762500Y-62450000D03*
X141037500Y-62450000D03*
X141037500Y-60550000D03*
D10*
X183867500Y-64017500D03*
X180767500Y-64017500D03*
X136050000Y-61800000D03*
X132950000Y-61800000D03*
X135350000Y-89600000D03*
X132250000Y-89600000D03*
M02*
