%TF.GenerationSoftware,KiCad,Pcbnew,8.0.5*%
%TF.CreationDate,2024-12-19T23:12:18-05:00*%
%TF.ProjectId,LCC-Pico-Stepper_v2_4,4c43432d-5069-4636-9f2d-537465707065,rev?*%
%TF.SameCoordinates,Original*%
%TF.FileFunction,Paste,Top*%
%TF.FilePolarity,Positive*%
%FSLAX46Y46*%
G04 Gerber Fmt 4.6, Leading zero omitted, Abs format (unit mm)*
G04 Created by KiCad (PCBNEW 8.0.5) date 2024-12-19 23:12:18*
%MOMM*%
%LPD*%
G01*
G04 APERTURE LIST*
G04 Aperture macros list*
%AMRoundRect*
0 Rectangle with rounded corners*
0 $1 Rounding radius*
0 $2 $3 $4 $5 $6 $7 $8 $9 X,Y pos of 4 corners*
0 Add a 4 corners polygon primitive as box body*
4,1,4,$2,$3,$4,$5,$6,$7,$8,$9,$2,$3,0*
0 Add four circle primitives for the rounded corners*
1,1,$1+$1,$2,$3*
1,1,$1+$1,$4,$5*
1,1,$1+$1,$6,$7*
1,1,$1+$1,$8,$9*
0 Add four rect primitives between the rounded corners*
20,1,$1+$1,$2,$3,$4,$5,0*
20,1,$1+$1,$4,$5,$6,$7,0*
20,1,$1+$1,$6,$7,$8,$9,0*
20,1,$1+$1,$8,$9,$2,$3,0*%
G04 Aperture macros list end*
%ADD10RoundRect,0.250000X0.400000X0.625000X-0.400000X0.625000X-0.400000X-0.625000X0.400000X-0.625000X0*%
%ADD11R,1.150000X0.600000*%
%ADD12RoundRect,0.250001X0.624999X-0.462499X0.624999X0.462499X-0.624999X0.462499X-0.624999X-0.462499X0*%
%ADD13RoundRect,0.250000X-0.400000X-0.625000X0.400000X-0.625000X0.400000X0.625000X-0.400000X0.625000X0*%
%ADD14RoundRect,0.250000X-0.412500X-0.650000X0.412500X-0.650000X0.412500X0.650000X-0.412500X0.650000X0*%
%ADD15R,0.700000X1.550000*%
%ADD16RoundRect,0.250000X0.625000X-0.400000X0.625000X0.400000X-0.625000X0.400000X-0.625000X-0.400000X0*%
%ADD17R,2.800000X1.850000*%
%ADD18RoundRect,0.250000X0.412500X0.650000X-0.412500X0.650000X-0.412500X-0.650000X0.412500X-0.650000X0*%
%ADD19RoundRect,0.250000X0.650000X-0.412500X0.650000X0.412500X-0.650000X0.412500X-0.650000X-0.412500X0*%
%ADD20RoundRect,0.250000X-0.625000X0.400000X-0.625000X-0.400000X0.625000X-0.400000X0.625000X0.400000X0*%
%ADD21R,1.500000X0.700000*%
%ADD22R,1.500000X0.650000*%
%ADD23RoundRect,0.250001X-0.624999X0.462499X-0.624999X-0.462499X0.624999X-0.462499X0.624999X0.462499X0*%
%ADD24R,1.900000X2.400000*%
%ADD25RoundRect,0.250000X-0.650000X0.412500X-0.650000X-0.412500X0.650000X-0.412500X0.650000X0.412500X0*%
%ADD26R,1.850000X2.800000*%
%ADD27R,1.600000X2.300000*%
%ADD28R,0.450000X1.475000*%
%ADD29R,2.310000X2.460000*%
%ADD30RoundRect,0.250001X-0.462499X-0.624999X0.462499X-0.624999X0.462499X0.624999X-0.462499X0.624999X0*%
G04 APERTURE END LIST*
D10*
X135370000Y-84402000D03*
X132270000Y-84402000D03*
D11*
X132900000Y-90300000D03*
X132900000Y-88380000D03*
X130700000Y-89340000D03*
D12*
X120000000Y-60787500D03*
X120000000Y-57812500D03*
D13*
X132350000Y-75307000D03*
X135450000Y-75307000D03*
D10*
X135407500Y-72329500D03*
X132307500Y-72329500D03*
D14*
X130837500Y-96100000D03*
X133962500Y-96100000D03*
D13*
X132350000Y-81307000D03*
X135450000Y-81307000D03*
D15*
X125295000Y-105425000D03*
X126565000Y-105425000D03*
X127835000Y-105425000D03*
X129105000Y-105425000D03*
X129105000Y-99975000D03*
X127835000Y-99975000D03*
X126565000Y-99975000D03*
X125295000Y-99975000D03*
D14*
X132337500Y-65985000D03*
X135462500Y-65985000D03*
D16*
X122000000Y-105450000D03*
X122000000Y-102350000D03*
D10*
X144850000Y-77000000D03*
X141750000Y-77000000D03*
D12*
X142000000Y-82887500D03*
X142000000Y-79912500D03*
D16*
X146150000Y-72350000D03*
X146150000Y-69250000D03*
D17*
X127128500Y-88787000D03*
X127128500Y-86487000D03*
D18*
X124212500Y-85562000D03*
X121087500Y-85562000D03*
D13*
X140450000Y-69400000D03*
X143550000Y-69400000D03*
D19*
X133800000Y-103162500D03*
X133800000Y-100037500D03*
D14*
X123437500Y-70700000D03*
X126562500Y-70700000D03*
D20*
X144500000Y-79850000D03*
X144500000Y-82950000D03*
D21*
X155175000Y-78795000D03*
X155175000Y-80065000D03*
X155175000Y-81335000D03*
X155175000Y-82605000D03*
X160625000Y-82605000D03*
X160625000Y-81335000D03*
X160625000Y-80065000D03*
X160625000Y-78795000D03*
D19*
X121320000Y-76624500D03*
X121320000Y-73499500D03*
D14*
X132367500Y-78307000D03*
X135492500Y-78307000D03*
D22*
X127000000Y-108890000D03*
X127000000Y-110160000D03*
X127000000Y-111430000D03*
X127000000Y-112700000D03*
X127000000Y-113970000D03*
X127000000Y-115240000D03*
X127000000Y-116510000D03*
X132400000Y-116510000D03*
X132400000Y-115240000D03*
X132400000Y-113970000D03*
X132400000Y-112700000D03*
X132400000Y-111430000D03*
X132400000Y-110160000D03*
X132400000Y-108890000D03*
D23*
X111200000Y-71912500D03*
X111200000Y-74887500D03*
D24*
X131850000Y-120700000D03*
X127750000Y-120700000D03*
D25*
X132700000Y-124937500D03*
X132700000Y-128062500D03*
D18*
X134062500Y-106000000D03*
X130937500Y-106000000D03*
D26*
X126950000Y-67400000D03*
X129250000Y-67400000D03*
D25*
X123993500Y-88074500D03*
X123993500Y-91199500D03*
D12*
X117700000Y-109500000D03*
X117700000Y-106525000D03*
D18*
X156362500Y-72700000D03*
X153237500Y-72700000D03*
D25*
X121320000Y-79699500D03*
X121320000Y-82824500D03*
D27*
X116000000Y-68600000D03*
X116000000Y-64200000D03*
D28*
X123900000Y-81100000D03*
X124550000Y-81100000D03*
X125200000Y-81100000D03*
X125850000Y-81100000D03*
X126500000Y-81100000D03*
X127150000Y-81100000D03*
X127800000Y-81100000D03*
X128450000Y-81100000D03*
X128450000Y-75224000D03*
X127800000Y-75224000D03*
X127150000Y-75224000D03*
X126500000Y-75224000D03*
X125850000Y-75224000D03*
X125200000Y-75224000D03*
X124550000Y-75224000D03*
X123900000Y-75224000D03*
D29*
X126175000Y-78162000D03*
D25*
X121328500Y-88074500D03*
X121328500Y-91199500D03*
D27*
X119850000Y-68637000D03*
X119850000Y-64237000D03*
D19*
X131200000Y-103162500D03*
X131200000Y-100037500D03*
D14*
X132337500Y-68600000D03*
X135462500Y-68600000D03*
D30*
X140575000Y-72300000D03*
X143550000Y-72300000D03*
D20*
X112000000Y-84350000D03*
X112000000Y-87450000D03*
D25*
X127800000Y-125137500D03*
X127800000Y-128262500D03*
D12*
X111300000Y-69187500D03*
X111300000Y-66212500D03*
D13*
X158350000Y-85700000D03*
X161450000Y-85700000D03*
D20*
X164100000Y-82650000D03*
X164100000Y-85750000D03*
M02*
