%TF.GenerationSoftware,KiCad,Pcbnew,9.0.6*%
%TF.CreationDate,2026-03-23T21:02:53-04:00*%
%TF.ProjectId,LCC-Pico-Node_v2_7,4c43432d-5069-4636-9f2d-4e6f64655f76,rev?*%
%TF.SameCoordinates,Original*%
%TF.FileFunction,Soldermask,Top*%
%TF.FilePolarity,Negative*%
%FSLAX46Y46*%
G04 Gerber Fmt 4.6, Leading zero omitted, Abs format (unit mm)*
G04 Created by KiCad (PCBNEW 9.0.6) date 2026-03-23 21:02:53*
%MOMM*%
%LPD*%
G01*
G04 APERTURE LIST*
G04 Aperture macros list*
%AMRoundRect*
0 Rectangle with rounded corners*
0 $1 Rounding radius*
0 $2 $3 $4 $5 $6 $7 $8 $9 X,Y pos of 4 corners*
0 Add a 4 corners polygon primitive as box body*
4,1,4,$2,$3,$4,$5,$6,$7,$8,$9,$2,$3,0*
0 Add four circle primitives for the rounded corners*
1,1,$1+$1,$2,$3*
1,1,$1+$1,$4,$5*
1,1,$1+$1,$6,$7*
1,1,$1+$1,$8,$9*
0 Add four rect primitives between the rounded corners*
20,1,$1+$1,$2,$3,$4,$5,0*
20,1,$1+$1,$4,$5,$6,$7,0*
20,1,$1+$1,$6,$7,$8,$9,0*
20,1,$1+$1,$8,$9,$2,$3,0*%
%AMFreePoly0*
4,1,23,0.000000,0.745722,0.065263,0.745722,0.191342,0.711940,0.304381,0.646677,0.396677,0.554381,0.461940,0.441342,0.495722,0.315263,0.495722,0.250000,0.500000,0.250000,0.500000,-0.250000,0.495722,-0.250000,0.495722,-0.315263,0.461940,-0.441342,0.396677,-0.554381,0.304381,-0.646677,0.191342,-0.711940,0.065263,-0.745722,0.000000,-0.745722,0.000000,-0.750000,-0.550000,-0.750000,
-0.550000,0.750000,0.000000,0.750000,0.000000,0.745722,0.000000,0.745722,$1*%
%AMFreePoly1*
4,1,23,0.550000,-0.750000,0.000000,-0.750000,0.000000,-0.745722,-0.065263,-0.745722,-0.191342,-0.711940,-0.304381,-0.646677,-0.396677,-0.554381,-0.461940,-0.441342,-0.495722,-0.315263,-0.495722,-0.250000,-0.500000,-0.250000,-0.500000,0.250000,-0.495722,0.250000,-0.495722,0.315263,-0.461940,0.441342,-0.396677,0.554381,-0.304381,0.646677,-0.191342,0.711940,-0.065263,0.745722,0.000000,0.745722,
0.000000,0.750000,0.550000,0.750000,0.550000,-0.750000,0.550000,-0.750000,$1*%
G04 Aperture macros list end*
%ADD10RoundRect,0.250000X0.625000X-0.400000X0.625000X0.400000X-0.625000X0.400000X-0.625000X-0.400000X0*%
%ADD11RoundRect,0.250001X-0.624999X0.462499X-0.624999X-0.462499X0.624999X-0.462499X0.624999X0.462499X0*%
%ADD12R,1.700000X1.700000*%
%ADD13C,1.700000*%
%ADD14R,1.515000X1.515000*%
%ADD15C,1.515000*%
%ADD16C,2.385000*%
%ADD17C,1.400000*%
%ADD18R,1.400000X1.400000*%
%ADD19C,3.170000*%
%ADD20FreePoly0,180.000000*%
%ADD21R,1.000000X1.500000*%
%ADD22FreePoly1,180.000000*%
%ADD23RoundRect,0.250000X-0.600000X0.600000X-0.600000X-0.600000X0.600000X-0.600000X0.600000X0.600000X0*%
%ADD24RoundRect,0.250000X0.400000X0.625000X-0.400000X0.625000X-0.400000X-0.625000X0.400000X-0.625000X0*%
%ADD25O,1.700000X1.700000*%
%ADD26R,1.150000X0.600000*%
%ADD27RoundRect,0.250001X0.624999X-0.462499X0.624999X0.462499X-0.624999X0.462499X-0.624999X-0.462499X0*%
%ADD28RoundRect,0.250000X-0.625000X0.400000X-0.625000X-0.400000X0.625000X-0.400000X0.625000X0.400000X0*%
%ADD29RoundRect,0.250000X-0.400000X-0.625000X0.400000X-0.625000X0.400000X0.625000X-0.400000X0.625000X0*%
%ADD30R,1.700000X3.500000*%
%ADD31R,3.430000X1.320000*%
%ADD32RoundRect,0.250000X-0.412500X-0.650000X0.412500X-0.650000X0.412500X0.650000X-0.412500X0.650000X0*%
%ADD33RoundRect,0.150000X0.150000X-0.825000X0.150000X0.825000X-0.150000X0.825000X-0.150000X-0.825000X0*%
%ADD34R,1.600000X1.600000*%
%ADD35C,1.600000*%
%ADD36R,1.500000X1.500000*%
%ADD37C,1.500000*%
%ADD38C,1.950000*%
%ADD39RoundRect,0.250001X-0.462499X-0.624999X0.462499X-0.624999X0.462499X0.624999X-0.462499X0.624999X0*%
%ADD40R,2.800000X1.850000*%
%ADD41C,3.500000*%
%ADD42RoundRect,0.250000X0.412500X0.650000X-0.412500X0.650000X-0.412500X-0.650000X0.412500X-0.650000X0*%
%ADD43RoundRect,0.250000X-0.650000X0.412500X-0.650000X-0.412500X0.650000X-0.412500X0.650000X0.412500X0*%
%ADD44R,2.100000X2.100000*%
%ADD45C,2.100000*%
%ADD46R,1.500000X0.700000*%
%ADD47RoundRect,0.250000X0.650000X-0.412500X0.650000X0.412500X-0.650000X0.412500X-0.650000X-0.412500X0*%
%ADD48RoundRect,0.150000X-0.825000X-0.150000X0.825000X-0.150000X0.825000X0.150000X-0.825000X0.150000X0*%
%ADD49R,1.900000X2.400000*%
%ADD50R,2.300000X1.600000*%
%ADD51R,0.450000X1.475000*%
%ADD52R,2.310000X2.460000*%
%ADD53R,1.600000X2.300000*%
%ADD54R,3.500000X3.500000*%
%ADD55RoundRect,0.750000X-0.750000X-1.000000X0.750000X-1.000000X0.750000X1.000000X-0.750000X1.000000X0*%
%ADD56RoundRect,0.875000X-0.875000X-0.875000X0.875000X-0.875000X0.875000X0.875000X-0.875000X0.875000X0*%
%ADD57RoundRect,0.150000X-0.512500X-0.150000X0.512500X-0.150000X0.512500X0.150000X-0.512500X0.150000X0*%
G04 APERTURE END LIST*
G36*
X142620000Y-128850000D02*
G01*
X142320000Y-128850000D01*
X142320000Y-127350000D01*
X142620000Y-127350000D01*
X142620000Y-128850000D01*
G37*
G36*
X142620000Y-121350000D02*
G01*
X142320000Y-121350000D01*
X142320000Y-119850000D01*
X142620000Y-119850000D01*
X142620000Y-121350000D01*
G37*
G36*
X142620000Y-126350000D02*
G01*
X142320000Y-126350000D01*
X142320000Y-124850000D01*
X142620000Y-124850000D01*
X142620000Y-126350000D01*
G37*
G36*
X142620000Y-123850000D02*
G01*
X142320000Y-123850000D01*
X142320000Y-122350000D01*
X142620000Y-122350000D01*
X142620000Y-123850000D01*
G37*
D10*
X189700000Y-65150000D03*
X189700000Y-62050000D03*
X189700000Y-76250000D03*
X189700000Y-73150000D03*
D11*
X189600000Y-56812500D03*
X189600000Y-59787500D03*
X189700000Y-67812500D03*
X189700000Y-70787500D03*
D12*
X168825000Y-56900000D03*
D13*
X168825000Y-59440000D03*
X168825000Y-61980000D03*
X168825000Y-64520000D03*
D14*
X152000000Y-61700000D03*
D15*
X155000000Y-61700000D03*
X158000000Y-61700000D03*
D16*
X149200000Y-61700000D03*
X160800000Y-61700000D03*
D14*
X176600000Y-61700000D03*
D15*
X179600000Y-61700000D03*
X182600000Y-61700000D03*
D16*
X173800000Y-61700000D03*
X185400000Y-61700000D03*
D17*
X113250000Y-103600000D03*
X110710000Y-102330000D03*
X113250000Y-101060000D03*
X110710000Y-99790000D03*
X113250000Y-98520000D03*
X110710000Y-97250000D03*
X113250000Y-95980000D03*
D18*
X110710000Y-94710000D03*
D19*
X104360000Y-104870000D03*
X104360000Y-93440000D03*
D17*
X113250000Y-123800000D03*
X110710000Y-122530000D03*
X113250000Y-121260000D03*
X110710000Y-119990000D03*
X113250000Y-118720000D03*
X110710000Y-117450000D03*
X113250000Y-116180000D03*
D18*
X110710000Y-114910000D03*
D19*
X104360000Y-125070000D03*
X104360000Y-113640000D03*
D20*
X140920000Y-114600000D03*
D21*
X142220000Y-114600000D03*
D22*
X143520000Y-114600000D03*
D13*
X150300000Y-73760000D03*
X150300000Y-71220000D03*
X152840000Y-73760000D03*
X152840000Y-71220000D03*
X155380000Y-73760000D03*
X155380000Y-71220000D03*
X157920000Y-73760000D03*
X157920000Y-71220000D03*
X160460000Y-73760000D03*
D23*
X160460000Y-71220000D03*
D24*
X135370000Y-84402000D03*
X132270000Y-84402000D03*
D12*
X124450000Y-122660000D03*
D25*
X121910000Y-122660000D03*
D26*
X187000000Y-121060000D03*
X187000000Y-119140000D03*
X184800000Y-120100000D03*
D27*
X121300000Y-67487500D03*
X121300000Y-64512500D03*
D28*
X114190000Y-84500000D03*
X114190000Y-87600000D03*
D29*
X132350000Y-75307000D03*
X135450000Y-75307000D03*
D24*
X120550000Y-103000000D03*
X117450000Y-103000000D03*
D28*
X114400000Y-52850000D03*
X114400000Y-55950000D03*
D29*
X118230000Y-61010000D03*
X121330000Y-61010000D03*
D12*
X150144599Y-113052055D03*
D25*
X152684599Y-113052055D03*
X155224599Y-113052055D03*
X157764599Y-113052055D03*
X160304599Y-113052055D03*
X162844599Y-113052055D03*
X165384599Y-113052055D03*
X167924599Y-113052055D03*
X170464599Y-113052055D03*
X173004599Y-113052055D03*
X175544599Y-113052055D03*
X178084599Y-113052055D03*
X180624599Y-113052055D03*
X183164599Y-113052055D03*
X185704599Y-113052055D03*
X188244599Y-113052055D03*
X190784599Y-113052055D03*
X193324599Y-113052055D03*
X195864599Y-113052055D03*
X198404599Y-113052055D03*
D24*
X135407500Y-72329500D03*
X132307500Y-72329500D03*
D12*
X169895000Y-124465000D03*
D25*
X172435000Y-124465000D03*
X174975000Y-124465000D03*
X177515000Y-124465000D03*
X198420000Y-87220000D03*
D30*
X198420000Y-86320000D03*
D25*
X195880000Y-87220000D03*
D30*
X195880000Y-86320000D03*
D12*
X193340000Y-87220000D03*
D30*
X193340000Y-86320000D03*
D25*
X190800000Y-87220000D03*
D30*
X190800000Y-86320000D03*
D25*
X188260000Y-87220000D03*
D30*
X188260000Y-86320000D03*
D25*
X185720000Y-87220000D03*
D30*
X185720000Y-86320000D03*
D25*
X183180000Y-87220000D03*
D30*
X183180000Y-86320000D03*
D12*
X180640000Y-87220000D03*
D30*
X180640000Y-86320000D03*
D25*
X178100000Y-87220000D03*
D30*
X178100000Y-86320000D03*
D25*
X175560000Y-87220000D03*
D30*
X175560000Y-86320000D03*
D25*
X173020000Y-87220000D03*
D30*
X173020000Y-86320000D03*
D25*
X170480000Y-87220000D03*
D30*
X170480000Y-86320000D03*
D12*
X167940000Y-87220000D03*
D30*
X167940000Y-86320000D03*
D25*
X165400000Y-87220000D03*
D30*
X165400000Y-86320000D03*
D25*
X162860000Y-87220000D03*
D30*
X162860000Y-86320000D03*
D25*
X160320000Y-87220000D03*
D30*
X160320000Y-86320000D03*
D25*
X157780000Y-87220000D03*
D30*
X157780000Y-86320000D03*
D12*
X155240000Y-87220000D03*
D30*
X155240000Y-86320000D03*
D25*
X152700000Y-87220000D03*
D30*
X152700000Y-86320000D03*
D25*
X150160000Y-87220000D03*
D30*
X150160000Y-86320000D03*
D25*
X150160000Y-105000000D03*
D30*
X150160000Y-105900000D03*
D25*
X152700000Y-105000000D03*
D30*
X152700000Y-105900000D03*
D12*
X155240000Y-105000000D03*
D30*
X155240000Y-105900000D03*
D25*
X157780000Y-105000000D03*
D30*
X157780000Y-105900000D03*
D25*
X160320000Y-105000000D03*
D30*
X160320000Y-105900000D03*
D25*
X162860000Y-105000000D03*
D30*
X162860000Y-105900000D03*
D25*
X165400000Y-105000000D03*
D30*
X165400000Y-105900000D03*
D12*
X167940000Y-105000000D03*
D30*
X167940000Y-105900000D03*
D25*
X170480000Y-105000000D03*
D30*
X170480000Y-105900000D03*
D25*
X173020000Y-105000000D03*
D30*
X173020000Y-105900000D03*
D25*
X175560000Y-105000000D03*
D30*
X175560000Y-105900000D03*
D25*
X178100000Y-105000000D03*
D30*
X178100000Y-105900000D03*
D12*
X180640000Y-105000000D03*
D30*
X180640000Y-105900000D03*
D25*
X183180000Y-105000000D03*
D30*
X183180000Y-105900000D03*
D25*
X185720000Y-105000000D03*
D30*
X185720000Y-105900000D03*
D25*
X188260000Y-105000000D03*
D30*
X188260000Y-105900000D03*
D25*
X190800000Y-105000000D03*
D30*
X190800000Y-105900000D03*
D12*
X193340000Y-105000000D03*
D30*
X193340000Y-105900000D03*
D25*
X195880000Y-105000000D03*
D30*
X195880000Y-105900000D03*
D25*
X198420000Y-105000000D03*
D30*
X198420000Y-105900000D03*
D31*
X117850000Y-116700000D03*
X117850000Y-112580000D03*
D32*
X132977500Y-103250000D03*
X136102500Y-103250000D03*
D33*
X123095000Y-112475000D03*
X124365000Y-112475000D03*
X125635000Y-112475000D03*
X126905000Y-112475000D03*
X126905000Y-107525000D03*
X125635000Y-107525000D03*
X124365000Y-107525000D03*
X123095000Y-107525000D03*
D29*
X132350000Y-81307000D03*
X135450000Y-81307000D03*
D12*
X117660000Y-99500000D03*
D25*
X120200000Y-99500000D03*
D32*
X125400000Y-59292500D03*
X128525000Y-59292500D03*
D34*
X108300000Y-76200000D03*
D35*
X104800000Y-76200000D03*
D12*
X168924200Y-116659200D03*
D13*
X171464200Y-116659200D03*
D29*
X129990000Y-105850000D03*
X133090000Y-105850000D03*
D12*
X169900000Y-128100000D03*
D13*
X172440000Y-128100000D03*
X174980000Y-128100000D03*
X177520000Y-128100000D03*
X180060000Y-128100000D03*
X182600000Y-128100000D03*
X185140000Y-128100000D03*
X187680000Y-128100000D03*
D29*
X132250000Y-89500000D03*
X135350000Y-89500000D03*
D36*
X196050000Y-70250000D03*
D37*
X196050000Y-74750000D03*
D38*
X193550000Y-69000000D03*
X193550000Y-76000000D03*
D39*
X132312500Y-87000000D03*
X135287500Y-87000000D03*
D10*
X136000000Y-67950000D03*
X136000000Y-64850000D03*
D40*
X127128500Y-88787000D03*
X127128500Y-86487000D03*
D41*
X120400000Y-52700000D03*
D42*
X124212500Y-85562000D03*
X121087500Y-85562000D03*
D24*
X136050000Y-59300000D03*
X132950000Y-59300000D03*
D43*
X138600000Y-64937500D03*
X138600000Y-68062500D03*
D36*
X196000000Y-118200000D03*
D37*
X196000000Y-122700000D03*
D38*
X193500000Y-116950000D03*
X193500000Y-123950000D03*
D29*
X130300000Y-65000000D03*
X133400000Y-65000000D03*
D42*
X129802500Y-103250000D03*
X126677500Y-103250000D03*
D32*
X123437500Y-70700000D03*
X126562500Y-70700000D03*
D21*
X143120000Y-128100000D03*
X141820000Y-128100000D03*
D44*
X104985000Y-55015000D03*
D45*
X104985000Y-57555000D03*
D28*
X137800000Y-86750000D03*
X137800000Y-89850000D03*
D46*
X152375000Y-122895000D03*
X152375000Y-124165000D03*
X152375000Y-125435000D03*
X152375000Y-126705000D03*
X157825000Y-126705000D03*
X157825000Y-125435000D03*
X157825000Y-124165000D03*
X157825000Y-122895000D03*
D47*
X121320000Y-76624500D03*
X121320000Y-73499500D03*
D41*
X196350000Y-53500000D03*
D32*
X132367500Y-78307000D03*
X135492500Y-78307000D03*
D48*
X130025000Y-108190000D03*
X130025000Y-109460000D03*
X130025000Y-110730000D03*
X130025000Y-112000000D03*
X130025000Y-113270000D03*
X130025000Y-114540000D03*
X130025000Y-115810000D03*
X134975000Y-115810000D03*
X134975000Y-114540000D03*
X134975000Y-113270000D03*
X134975000Y-112000000D03*
X134975000Y-110730000D03*
X134975000Y-109460000D03*
X134975000Y-108190000D03*
D11*
X111500000Y-83795000D03*
X111500000Y-86770000D03*
D49*
X130790000Y-120850000D03*
X134890000Y-120850000D03*
D43*
X130840000Y-125287500D03*
X130840000Y-128412500D03*
D42*
X136102500Y-100650000D03*
X132977500Y-100650000D03*
D40*
X126100000Y-67150000D03*
X126100000Y-64850000D03*
D43*
X123993500Y-88074500D03*
X123993500Y-91199500D03*
D44*
X104900000Y-84160000D03*
D45*
X104900000Y-86700000D03*
D12*
X120300000Y-94000000D03*
D25*
X117760000Y-94000000D03*
D12*
X198369200Y-80006400D03*
D25*
X195829200Y-80006400D03*
X193289200Y-80006400D03*
X190749200Y-80006400D03*
X188209200Y-80006400D03*
X185669200Y-80006400D03*
X183129200Y-80006400D03*
X180589200Y-80006400D03*
X178049200Y-80006400D03*
X175509200Y-80006400D03*
X172969200Y-80006400D03*
X170429200Y-80006400D03*
X167889200Y-80006400D03*
X165349200Y-80006400D03*
X162809200Y-80006400D03*
X160269200Y-80006400D03*
X157729200Y-80006400D03*
X155189200Y-80006400D03*
X152649200Y-80006400D03*
X150109200Y-80006400D03*
D27*
X117500000Y-108487500D03*
X117500000Y-105512500D03*
D32*
X146857500Y-118600000D03*
X149982500Y-118600000D03*
D43*
X121320000Y-79699500D03*
X121320000Y-82824500D03*
D50*
X113037000Y-73450000D03*
X117437000Y-73450000D03*
D51*
X123900000Y-81100000D03*
X124550000Y-81100000D03*
X125200000Y-81100000D03*
X125850000Y-81100000D03*
X126500000Y-81100000D03*
X127150000Y-81100000D03*
X127800000Y-81100000D03*
X128450000Y-81100000D03*
X128450000Y-75224000D03*
X127800000Y-75224000D03*
X127150000Y-75224000D03*
X126500000Y-75224000D03*
X125850000Y-75224000D03*
X125200000Y-75224000D03*
X124550000Y-75224000D03*
X123900000Y-75224000D03*
D52*
X126175000Y-78162000D03*
D43*
X121328500Y-88074500D03*
X121328500Y-91199500D03*
D21*
X143120000Y-120600000D03*
X141820000Y-120600000D03*
D41*
X196300000Y-128400000D03*
D53*
X128850000Y-93600000D03*
X128850000Y-98000000D03*
D50*
X113000000Y-77300000D03*
X117400000Y-77300000D03*
D42*
X129802500Y-100650000D03*
X126677500Y-100650000D03*
D54*
X115200000Y-64700000D03*
D55*
X109200000Y-64700000D03*
D56*
X112200000Y-69400000D03*
D32*
X125400000Y-61907500D03*
X128525000Y-61907500D03*
D31*
X117840000Y-119450000D03*
X117840000Y-123570000D03*
D39*
X130425000Y-67900000D03*
X133400000Y-67900000D03*
D36*
X196000000Y-59300000D03*
D37*
X196000000Y-63800000D03*
D38*
X193500000Y-58050000D03*
X193500000Y-65050000D03*
D41*
X125650000Y-128400000D03*
D43*
X135940000Y-125287500D03*
X135940000Y-128412500D03*
D23*
X182660000Y-71260000D03*
D13*
X182660000Y-73800000D03*
X180120000Y-71260000D03*
X180120000Y-73800000D03*
X177580000Y-71260000D03*
X177580000Y-73800000D03*
X175040000Y-71260000D03*
X175040000Y-73800000D03*
X172500000Y-71260000D03*
X172500000Y-73800000D03*
D27*
X111485000Y-58972500D03*
X111485000Y-55997500D03*
D10*
X164525000Y-126565000D03*
X164525000Y-123465000D03*
D47*
X141100000Y-68062500D03*
X141100000Y-64937500D03*
D12*
X120100000Y-126800000D03*
D25*
X117560000Y-126800000D03*
D21*
X143120000Y-125600000D03*
X141820000Y-125600000D03*
D53*
X125250000Y-93600000D03*
X125250000Y-98000000D03*
D57*
X138762500Y-60550000D03*
X138762500Y-61500000D03*
X138762500Y-62450000D03*
X141037500Y-62450000D03*
X141037500Y-60550000D03*
D12*
X114500000Y-81000000D03*
D13*
X117040000Y-81000000D03*
D10*
X161550000Y-126600000D03*
X161550000Y-123500000D03*
D21*
X143120000Y-123100000D03*
X141820000Y-123100000D03*
D12*
X124410000Y-118150000D03*
D25*
X121870000Y-118150000D03*
D24*
X136050000Y-61800000D03*
X132950000Y-61800000D03*
D13*
X171465000Y-53140000D03*
X168925000Y-53140000D03*
D12*
X166385000Y-53140000D03*
M02*
