%TF.GenerationSoftware,KiCad,Pcbnew,8.0.5*%
%TF.CreationDate,2024-12-19T23:12:18-05:00*%
%TF.ProjectId,LCC-Pico-Stepper_v2_4,4c43432d-5069-4636-9f2d-537465707065,rev?*%
%TF.SameCoordinates,Original*%
%TF.FileFunction,Soldermask,Top*%
%TF.FilePolarity,Negative*%
%FSLAX46Y46*%
G04 Gerber Fmt 4.6, Leading zero omitted, Abs format (unit mm)*
G04 Created by KiCad (PCBNEW 8.0.5) date 2024-12-19 23:12:18*
%MOMM*%
%LPD*%
G01*
G04 APERTURE LIST*
G04 Aperture macros list*
%AMRoundRect*
0 Rectangle with rounded corners*
0 $1 Rounding radius*
0 $2 $3 $4 $5 $6 $7 $8 $9 X,Y pos of 4 corners*
0 Add a 4 corners polygon primitive as box body*
4,1,4,$2,$3,$4,$5,$6,$7,$8,$9,$2,$3,0*
0 Add four circle primitives for the rounded corners*
1,1,$1+$1,$2,$3*
1,1,$1+$1,$4,$5*
1,1,$1+$1,$6,$7*
1,1,$1+$1,$8,$9*
0 Add four rect primitives between the rounded corners*
20,1,$1+$1,$2,$3,$4,$5,0*
20,1,$1+$1,$4,$5,$6,$7,0*
20,1,$1+$1,$6,$7,$8,$9,0*
20,1,$1+$1,$8,$9,$2,$3,0*%
%AMFreePoly0*
4,1,19,0.550000,-0.750000,0.000000,-0.750000,0.000000,-0.744911,-0.071157,-0.744911,-0.207708,-0.704816,-0.327430,-0.627875,-0.420627,-0.520320,-0.479746,-0.390866,-0.500000,-0.250000,-0.500000,0.250000,-0.479746,0.390866,-0.420627,0.520320,-0.327430,0.627875,-0.207708,0.704816,-0.071157,0.744911,0.000000,0.744911,0.000000,0.750000,0.550000,0.750000,0.550000,-0.750000,0.550000,-0.750000,
$1*%
%AMFreePoly1*
4,1,19,0.000000,0.744911,0.071157,0.744911,0.207708,0.704816,0.327430,0.627875,0.420627,0.520320,0.479746,0.390866,0.500000,0.250000,0.500000,-0.250000,0.479746,-0.390866,0.420627,-0.520320,0.327430,-0.627875,0.207708,-0.704816,0.071157,-0.744911,0.000000,-0.744911,0.000000,-0.750000,-0.550000,-0.750000,-0.550000,0.750000,0.000000,0.750000,0.000000,0.744911,0.000000,0.744911,
$1*%
G04 Aperture macros list end*
%ADD10C,3.170000*%
%ADD11R,1.400000X1.400000*%
%ADD12C,1.400000*%
%ADD13RoundRect,0.250000X0.400000X0.625000X-0.400000X0.625000X-0.400000X-0.625000X0.400000X-0.625000X0*%
%ADD14R,1.700000X1.700000*%
%ADD15O,1.700000X1.700000*%
%ADD16R,1.150000X0.600000*%
%ADD17RoundRect,0.250001X0.624999X-0.462499X0.624999X0.462499X-0.624999X0.462499X-0.624999X-0.462499X0*%
%ADD18RoundRect,0.250000X-0.400000X-0.625000X0.400000X-0.625000X0.400000X0.625000X-0.400000X0.625000X0*%
%ADD19R,1.600000X1.600000*%
%ADD20O,1.600000X1.600000*%
%ADD21R,1.700000X3.500000*%
%ADD22FreePoly0,270.000000*%
%ADD23R,1.500000X1.000000*%
%ADD24FreePoly1,270.000000*%
%ADD25FreePoly0,180.000000*%
%ADD26R,1.000000X1.500000*%
%ADD27FreePoly1,180.000000*%
%ADD28RoundRect,0.250000X-0.412500X-0.650000X0.412500X-0.650000X0.412500X0.650000X-0.412500X0.650000X0*%
%ADD29R,0.700000X1.550000*%
%ADD30C,1.600000*%
%ADD31RoundRect,0.250000X0.625000X-0.400000X0.625000X0.400000X-0.625000X0.400000X-0.625000X-0.400000X0*%
%ADD32R,1.500000X1.500000*%
%ADD33C,1.500000*%
%ADD34C,1.950000*%
%ADD35R,2.800000X1.850000*%
%ADD36RoundRect,0.250000X0.412500X0.650000X-0.412500X0.650000X-0.412500X-0.650000X0.412500X-0.650000X0*%
%ADD37RoundRect,0.250000X-0.600000X0.600000X-0.600000X-0.600000X0.600000X-0.600000X0.600000X0.600000X0*%
%ADD38C,1.700000*%
%ADD39RoundRect,0.250000X0.650000X-0.412500X0.650000X0.412500X-0.650000X0.412500X-0.650000X-0.412500X0*%
%ADD40R,2.100000X2.100000*%
%ADD41C,2.100000*%
%ADD42RoundRect,0.250000X-0.625000X0.400000X-0.625000X-0.400000X0.625000X-0.400000X0.625000X0.400000X0*%
%ADD43R,1.500000X0.700000*%
%ADD44C,2.200000*%
%ADD45R,1.500000X0.650000*%
%ADD46RoundRect,0.250001X-0.624999X0.462499X-0.624999X-0.462499X0.624999X-0.462499X0.624999X0.462499X0*%
%ADD47R,1.900000X2.400000*%
%ADD48RoundRect,0.250000X-0.650000X0.412500X-0.650000X-0.412500X0.650000X-0.412500X0.650000X0.412500X0*%
%ADD49R,1.850000X2.800000*%
%ADD50R,1.600000X2.300000*%
%ADD51R,0.450000X1.475000*%
%ADD52R,2.310000X2.460000*%
%ADD53RoundRect,0.250000X0.600000X0.600000X-0.600000X0.600000X-0.600000X-0.600000X0.600000X-0.600000X0*%
%ADD54R,3.500000X3.500000*%
%ADD55RoundRect,0.750000X-0.750000X-1.000000X0.750000X-1.000000X0.750000X1.000000X-0.750000X1.000000X0*%
%ADD56RoundRect,0.875000X-0.875000X-0.875000X0.875000X-0.875000X0.875000X0.875000X-0.875000X0.875000X0*%
%ADD57RoundRect,0.250001X-0.462499X-0.624999X0.462499X-0.624999X0.462499X0.624999X-0.462499X0.624999X0*%
G04 APERTURE END LIST*
D10*
X104360000Y-113640000D03*
X104360000Y-125070000D03*
D11*
X110710000Y-114910000D03*
D12*
X113250000Y-116180000D03*
X110710000Y-117450000D03*
X113250000Y-118720000D03*
X110710000Y-119990000D03*
X113250000Y-121260000D03*
X110710000Y-122530000D03*
X113250000Y-123800000D03*
D13*
X135370000Y-84402000D03*
X132270000Y-84402000D03*
D10*
X104360000Y-93440000D03*
X104360000Y-104870000D03*
D11*
X110710000Y-94710000D03*
D12*
X113250000Y-95980000D03*
X110710000Y-97250000D03*
X113250000Y-98520000D03*
X110710000Y-99790000D03*
X113250000Y-101060000D03*
X110710000Y-102330000D03*
X113250000Y-103600000D03*
D14*
X117700000Y-121800000D03*
D15*
X120240000Y-121800000D03*
D16*
X132900000Y-90300000D03*
X132900000Y-88380000D03*
X130700000Y-89340000D03*
D17*
X120000000Y-60787500D03*
X120000000Y-57812500D03*
D18*
X132350000Y-75307000D03*
X135450000Y-75307000D03*
D19*
X187096400Y-64830800D03*
D20*
X184556400Y-64830800D03*
X182016400Y-64830800D03*
X179476400Y-64830800D03*
X176936400Y-64830800D03*
X174396400Y-64830800D03*
X171856400Y-64830800D03*
X169316400Y-64830800D03*
X169316400Y-77530800D03*
X171856400Y-77530800D03*
X174396400Y-77530800D03*
X176936400Y-77530800D03*
X179476400Y-77530800D03*
X182016400Y-77530800D03*
X184556400Y-77530800D03*
X187096400Y-77530800D03*
D14*
X185130601Y-89505095D03*
D15*
X182590601Y-89505095D03*
X180050601Y-89505095D03*
X177510601Y-89505095D03*
X174970601Y-89505095D03*
X172430601Y-89505095D03*
X169890601Y-89505095D03*
X167350601Y-89505095D03*
X164810601Y-89505095D03*
X162270601Y-89505095D03*
X159730601Y-89505095D03*
X157190601Y-89505095D03*
X154650601Y-89505095D03*
X152110601Y-89505095D03*
X149570601Y-89505095D03*
X147030601Y-89505095D03*
X144490601Y-89505095D03*
X141950601Y-89505095D03*
X139410601Y-89505095D03*
X136870601Y-89505095D03*
D14*
X196824600Y-66649600D03*
D15*
X194284600Y-66649600D03*
X191744600Y-66649600D03*
D13*
X135407500Y-72329500D03*
X132307500Y-72329500D03*
D14*
X171810600Y-85755400D03*
D15*
X171810600Y-83215400D03*
X174350600Y-85755400D03*
X174350600Y-83215400D03*
X176890600Y-85755400D03*
X176890600Y-83215400D03*
X179430600Y-85755400D03*
X179430600Y-83215400D03*
X181970600Y-85755400D03*
X181970600Y-83215400D03*
D14*
X194300000Y-62423200D03*
D15*
X194300000Y-59883200D03*
X194300000Y-57343200D03*
X194300000Y-54803200D03*
D14*
X163830000Y-75285600D03*
D15*
X163830000Y-72745600D03*
X163830000Y-70205600D03*
X163830000Y-67665600D03*
X136855200Y-115337150D03*
D21*
X136855200Y-116237150D03*
D15*
X139395200Y-115337150D03*
D21*
X139395200Y-116237150D03*
D14*
X141935200Y-115337150D03*
D21*
X141935200Y-116237150D03*
D15*
X144475200Y-115337150D03*
D21*
X144475200Y-116237150D03*
D15*
X147015200Y-115337150D03*
D21*
X147015200Y-116237150D03*
D15*
X149555200Y-115337150D03*
D21*
X149555200Y-116237150D03*
D15*
X152095200Y-115337150D03*
D21*
X152095200Y-116237150D03*
D14*
X154635200Y-115337150D03*
D21*
X154635200Y-116237150D03*
D15*
X157175200Y-115337150D03*
D21*
X157175200Y-116237150D03*
D15*
X159715200Y-115337150D03*
D21*
X159715200Y-116237150D03*
D15*
X162255200Y-115337150D03*
D21*
X162255200Y-116237150D03*
D15*
X164795200Y-115337150D03*
D21*
X164795200Y-116237150D03*
D14*
X167335200Y-115337150D03*
D21*
X167335200Y-116237150D03*
D15*
X169875200Y-115337150D03*
D21*
X169875200Y-116237150D03*
D15*
X172415200Y-115337150D03*
D21*
X172415200Y-116237150D03*
D15*
X174955200Y-115337150D03*
D21*
X174955200Y-116237150D03*
D15*
X177495200Y-115337150D03*
D21*
X177495200Y-116237150D03*
D14*
X180035200Y-115337150D03*
D21*
X180035200Y-116237150D03*
D15*
X182575200Y-115337150D03*
D21*
X182575200Y-116237150D03*
D15*
X185115200Y-115337150D03*
D21*
X185115200Y-116237150D03*
D15*
X185115200Y-97557150D03*
D21*
X185115200Y-96657150D03*
D15*
X182575200Y-97557150D03*
D21*
X182575200Y-96657150D03*
D14*
X180035200Y-97557150D03*
D21*
X180035200Y-96657150D03*
D15*
X177495200Y-97557150D03*
D21*
X177495200Y-96657150D03*
D15*
X174955200Y-97557150D03*
D21*
X174955200Y-96657150D03*
D15*
X172415200Y-97557150D03*
D21*
X172415200Y-96657150D03*
D15*
X169875200Y-97557150D03*
D21*
X169875200Y-96657150D03*
D14*
X167335200Y-97557150D03*
D21*
X167335200Y-96657150D03*
D15*
X164795200Y-97557150D03*
D21*
X164795200Y-96657150D03*
D15*
X162255200Y-97557150D03*
D21*
X162255200Y-96657150D03*
D15*
X159715200Y-97557150D03*
D21*
X159715200Y-96657150D03*
D15*
X157175200Y-97557150D03*
D21*
X157175200Y-96657150D03*
D14*
X154635200Y-97557150D03*
D21*
X154635200Y-96657150D03*
D15*
X152095200Y-97557150D03*
D21*
X152095200Y-96657150D03*
D15*
X149555200Y-97557150D03*
D21*
X149555200Y-96657150D03*
D15*
X147015200Y-97557150D03*
D21*
X147015200Y-96657150D03*
D15*
X144475200Y-97557150D03*
D21*
X144475200Y-96657150D03*
D14*
X141935200Y-97557150D03*
D21*
X141935200Y-96657150D03*
D15*
X139395200Y-97557150D03*
D21*
X139395200Y-96657150D03*
D15*
X136855200Y-97557150D03*
D21*
X136855200Y-96657150D03*
D22*
X188341000Y-120031200D03*
D23*
X188341000Y-121331200D03*
D24*
X188341000Y-122631200D03*
D25*
X156200000Y-68800000D03*
D26*
X154900000Y-68800000D03*
D27*
X153600000Y-68800000D03*
D28*
X130837500Y-96100000D03*
X133962500Y-96100000D03*
D18*
X132350000Y-81307000D03*
X135450000Y-81307000D03*
D29*
X125295000Y-105425000D03*
X126565000Y-105425000D03*
X127835000Y-105425000D03*
X129105000Y-105425000D03*
X129105000Y-99975000D03*
X127835000Y-99975000D03*
X126565000Y-99975000D03*
X125295000Y-99975000D03*
D14*
X117660000Y-99500000D03*
D15*
X120200000Y-99500000D03*
D28*
X132337500Y-65985000D03*
X135462500Y-65985000D03*
D19*
X116952651Y-79300000D03*
D30*
X113452651Y-79300000D03*
D31*
X122000000Y-105450000D03*
X122000000Y-102350000D03*
D13*
X144850000Y-77000000D03*
X141750000Y-77000000D03*
D32*
X136650000Y-57475000D03*
D33*
X141150000Y-57475000D03*
D34*
X135400000Y-59975000D03*
X142400000Y-59975000D03*
D17*
X142000000Y-82887500D03*
X142000000Y-79912500D03*
D14*
X164846000Y-125090750D03*
D15*
X164846000Y-127630750D03*
X162306000Y-125090750D03*
X162306000Y-127630750D03*
X159766000Y-125090750D03*
X159766000Y-127630750D03*
X157226000Y-125090750D03*
X157226000Y-127630750D03*
D31*
X146150000Y-72350000D03*
X146150000Y-69250000D03*
D35*
X127128500Y-88787000D03*
X127128500Y-86487000D03*
D36*
X124212500Y-85562000D03*
X121087500Y-85562000D03*
D37*
X183388000Y-56896000D03*
D38*
X183388000Y-59436000D03*
X180848000Y-56896000D03*
X180848000Y-59436000D03*
X178308000Y-56896000D03*
X178308000Y-59436000D03*
X175768000Y-56896000D03*
X175768000Y-59436000D03*
X173228000Y-56896000D03*
X173228000Y-59436000D03*
D32*
X105275000Y-85250000D03*
D33*
X105275000Y-80750000D03*
D34*
X107775000Y-86500000D03*
X107775000Y-79500000D03*
D18*
X140450000Y-69400000D03*
X143550000Y-69400000D03*
D39*
X133800000Y-103162500D03*
X133800000Y-100037500D03*
D28*
X123437500Y-70700000D03*
X126562500Y-70700000D03*
D40*
X104800000Y-65230000D03*
D41*
X104800000Y-67770000D03*
D42*
X144500000Y-79850000D03*
X144500000Y-82950000D03*
D43*
X155175000Y-78795000D03*
X155175000Y-80065000D03*
X155175000Y-81335000D03*
X155175000Y-82605000D03*
X160625000Y-82605000D03*
X160625000Y-81335000D03*
X160625000Y-80065000D03*
X160625000Y-78795000D03*
D14*
X152131000Y-126746000D03*
D15*
X149591000Y-126746000D03*
X147051000Y-126746000D03*
D39*
X121320000Y-76624500D03*
X121320000Y-73499500D03*
D44*
X198100000Y-52400000D03*
D37*
X160324800Y-56946800D03*
D38*
X160324800Y-59486800D03*
X157784800Y-56946800D03*
X157784800Y-59486800D03*
X155244800Y-56946800D03*
X155244800Y-59486800D03*
X152704800Y-56946800D03*
X152704800Y-59486800D03*
X150164800Y-56946800D03*
X150164800Y-59486800D03*
D28*
X132367500Y-78307000D03*
X135492500Y-78307000D03*
D45*
X127000000Y-108890000D03*
X127000000Y-110160000D03*
X127000000Y-111430000D03*
X127000000Y-112700000D03*
X127000000Y-113970000D03*
X127000000Y-115240000D03*
X127000000Y-116510000D03*
X132400000Y-116510000D03*
X132400000Y-115240000D03*
X132400000Y-113970000D03*
X132400000Y-112700000D03*
X132400000Y-111430000D03*
X132400000Y-110160000D03*
X132400000Y-108890000D03*
D46*
X111200000Y-71912500D03*
X111200000Y-74887500D03*
D47*
X131850000Y-120700000D03*
X127750000Y-120700000D03*
D48*
X132700000Y-124937500D03*
X132700000Y-128062500D03*
D26*
X152000000Y-77600000D03*
X150700000Y-77600000D03*
D36*
X134062500Y-106000000D03*
X130937500Y-106000000D03*
D49*
X126950000Y-67400000D03*
X129250000Y-67400000D03*
D26*
X152000000Y-82800000D03*
X150700000Y-82800000D03*
D48*
X123993500Y-88074500D03*
X123993500Y-91199500D03*
D40*
X104800000Y-72212500D03*
D41*
X104800000Y-74752500D03*
D14*
X120300000Y-94000000D03*
D15*
X117760000Y-94000000D03*
D14*
X136906000Y-122550750D03*
D15*
X139446000Y-122550750D03*
X141986000Y-122550750D03*
X144526000Y-122550750D03*
X147066000Y-122550750D03*
X149606000Y-122550750D03*
X152146000Y-122550750D03*
X154686000Y-122550750D03*
X157226000Y-122550750D03*
X159766000Y-122550750D03*
X162306000Y-122550750D03*
X164846000Y-122550750D03*
X167386000Y-122550750D03*
X169926000Y-122550750D03*
X172466000Y-122550750D03*
X175006000Y-122550750D03*
X177546000Y-122550750D03*
X180086000Y-122550750D03*
X182626000Y-122550750D03*
X185166000Y-122550750D03*
D17*
X117700000Y-109500000D03*
X117700000Y-106525000D03*
D36*
X156362500Y-72700000D03*
X153237500Y-72700000D03*
D33*
X123900000Y-110000000D03*
D14*
X182372000Y-126746000D03*
D15*
X184912000Y-126746000D03*
X187452000Y-126746000D03*
D48*
X121320000Y-79699500D03*
X121320000Y-82824500D03*
D50*
X116000000Y-68600000D03*
X116000000Y-64200000D03*
D51*
X123900000Y-81100000D03*
X124550000Y-81100000D03*
X125200000Y-81100000D03*
X125850000Y-81100000D03*
X126500000Y-81100000D03*
X127150000Y-81100000D03*
X127800000Y-81100000D03*
X128450000Y-81100000D03*
X128450000Y-75224000D03*
X127800000Y-75224000D03*
X127150000Y-75224000D03*
X126500000Y-75224000D03*
X125850000Y-75224000D03*
X125200000Y-75224000D03*
X124550000Y-75224000D03*
X123900000Y-75224000D03*
D52*
X126175000Y-78162000D03*
D48*
X121328500Y-88074500D03*
X121328500Y-91199500D03*
D14*
X149560000Y-85900000D03*
D15*
X152100000Y-85900000D03*
X154640000Y-85900000D03*
D44*
X119400000Y-54200000D03*
D53*
X195834000Y-122936000D03*
D38*
X193294000Y-122936000D03*
X195834000Y-120396000D03*
X193294000Y-120396000D03*
X195834000Y-117856000D03*
X193294000Y-117856000D03*
X195834000Y-115316000D03*
X193294000Y-115316000D03*
X195834000Y-112776000D03*
X193294000Y-112776000D03*
X195834000Y-110236000D03*
X193294000Y-110236000D03*
X195834000Y-107696000D03*
X193294000Y-107696000D03*
X195834000Y-105156000D03*
X193294000Y-105156000D03*
X195834000Y-102616000D03*
X193294000Y-102616000D03*
X195834000Y-100076000D03*
X193294000Y-100076000D03*
X195834000Y-97536000D03*
X193294000Y-97536000D03*
X195834000Y-94996000D03*
X193294000Y-94996000D03*
X195834000Y-92456000D03*
X193294000Y-92456000D03*
X195834000Y-89916000D03*
X193294000Y-89916000D03*
X195834000Y-87376000D03*
X193294000Y-87376000D03*
X195834000Y-84836000D03*
X193294000Y-84836000D03*
X195834000Y-82296000D03*
X193294000Y-82296000D03*
X195834000Y-79756000D03*
X193294000Y-79756000D03*
X195834000Y-77216000D03*
X193294000Y-77216000D03*
X195834000Y-74676000D03*
X193294000Y-74676000D03*
D50*
X119850000Y-68637000D03*
X119850000Y-64237000D03*
D39*
X131200000Y-103162500D03*
X131200000Y-100037500D03*
D54*
X113900000Y-58000000D03*
D55*
X107900000Y-58000000D03*
D56*
X110900000Y-62700000D03*
D28*
X132337500Y-68600000D03*
X135462500Y-68600000D03*
D57*
X140575000Y-72300000D03*
X143550000Y-72300000D03*
D26*
X158600000Y-76400000D03*
X157300000Y-76400000D03*
D42*
X112000000Y-84350000D03*
X112000000Y-87450000D03*
D32*
X125400000Y-57500000D03*
D33*
X129900000Y-57500000D03*
D34*
X124150000Y-60000000D03*
X131150000Y-60000000D03*
D14*
X177546000Y-125090750D03*
D15*
X177546000Y-127630750D03*
X175006000Y-125090750D03*
X175006000Y-127630750D03*
X172466000Y-125090750D03*
X172466000Y-127630750D03*
X169926000Y-125090750D03*
X169926000Y-127630750D03*
D44*
X140300000Y-126900000D03*
D48*
X127800000Y-125137500D03*
X127800000Y-128262500D03*
D17*
X111300000Y-69187500D03*
X111300000Y-66212500D03*
D18*
X158350000Y-85700000D03*
X161450000Y-85700000D03*
D14*
X120100000Y-126800000D03*
D15*
X117560000Y-126800000D03*
D33*
X123800000Y-114900000D03*
D26*
X152000000Y-80200000D03*
X150700000Y-80200000D03*
D42*
X164100000Y-82650000D03*
X164100000Y-85750000D03*
D14*
X117660000Y-117900000D03*
D15*
X120200000Y-117900000D03*
M02*
