%TF.GenerationSoftware,KiCad,Pcbnew,9.0.6*%
%TF.CreationDate,2026-03-26T19:19:02-04:00*%
%TF.ProjectId,LCC-Pico-Stepper_v2_7,4c43432d-5069-4636-9f2d-537465707065,rev?*%
%TF.SameCoordinates,Original*%
%TF.FileFunction,Soldermask,Bot*%
%TF.FilePolarity,Negative*%
%FSLAX46Y46*%
G04 Gerber Fmt 4.6, Leading zero omitted, Abs format (unit mm)*
G04 Created by KiCad (PCBNEW 9.0.6) date 2026-03-26 19:19:02*
%MOMM*%
%LPD*%
G01*
G04 APERTURE LIST*
G04 Aperture macros list*
%AMRoundRect*
0 Rectangle with rounded corners*
0 $1 Rounding radius*
0 $2 $3 $4 $5 $6 $7 $8 $9 X,Y pos of 4 corners*
0 Add a 4 corners polygon primitive as box body*
4,1,4,$2,$3,$4,$5,$6,$7,$8,$9,$2,$3,0*
0 Add four circle primitives for the rounded corners*
1,1,$1+$1,$2,$3*
1,1,$1+$1,$4,$5*
1,1,$1+$1,$6,$7*
1,1,$1+$1,$8,$9*
0 Add four rect primitives between the rounded corners*
20,1,$1+$1,$2,$3,$4,$5,0*
20,1,$1+$1,$4,$5,$6,$7,0*
20,1,$1+$1,$6,$7,$8,$9,0*
20,1,$1+$1,$8,$9,$2,$3,0*%
G04 Aperture macros list end*
%ADD10C,3.170000*%
%ADD11R,1.400000X1.400000*%
%ADD12C,1.400000*%
%ADD13R,1.700000X1.700000*%
%ADD14O,1.700000X1.700000*%
%ADD15R,1.600000X1.600000*%
%ADD16C,1.600000*%
%ADD17C,1.700000*%
%ADD18R,1.500000X1.500000*%
%ADD19C,1.500000*%
%ADD20C,1.950000*%
%ADD21RoundRect,0.250000X-0.600000X0.600000X-0.600000X-0.600000X0.600000X-0.600000X0.600000X0.600000X0*%
%ADD22C,3.500000*%
%ADD23R,2.100000X2.100000*%
%ADD24C,2.100000*%
%ADD25O,1.600000X1.600000*%
%ADD26R,1.337000X1.337000*%
%ADD27C,1.337000*%
%ADD28C,2.190000*%
%ADD29R,3.500000X3.500000*%
%ADD30RoundRect,0.750000X-0.750000X-1.000000X0.750000X-1.000000X0.750000X1.000000X-0.750000X1.000000X0*%
%ADD31RoundRect,0.875000X-0.875000X-0.875000X0.875000X-0.875000X0.875000X0.875000X-0.875000X0.875000X0*%
%ADD32RoundRect,0.250000X-0.600000X-0.600000X0.600000X-0.600000X0.600000X0.600000X-0.600000X0.600000X0*%
G04 APERTURE END LIST*
D10*
X104360000Y-113640000D03*
X104360000Y-125070000D03*
D11*
X110710000Y-114910000D03*
D12*
X113250000Y-116180000D03*
X110710000Y-117450000D03*
X113250000Y-118720000D03*
X110710000Y-119990000D03*
X113250000Y-121260000D03*
X110710000Y-122530000D03*
X113250000Y-123800000D03*
D10*
X104360000Y-93440000D03*
X104360000Y-104870000D03*
D11*
X110710000Y-94710000D03*
D12*
X113250000Y-95980000D03*
X110710000Y-97250000D03*
X113250000Y-98520000D03*
X110710000Y-99790000D03*
X113250000Y-101060000D03*
X110710000Y-102330000D03*
X113250000Y-103600000D03*
D13*
X124450000Y-122660000D03*
D14*
X121910000Y-122660000D03*
D13*
X169895000Y-124465000D03*
D14*
X172435000Y-124465000D03*
X174975000Y-124465000D03*
X177515000Y-124465000D03*
X198640000Y-91020000D03*
X196100000Y-91020000D03*
D13*
X193560000Y-91020000D03*
D14*
X191020000Y-91020000D03*
X188480000Y-91020000D03*
X185940000Y-91020000D03*
X183400000Y-91020000D03*
D13*
X180860000Y-91020000D03*
D14*
X178320000Y-91020000D03*
X175780000Y-91020000D03*
X173240000Y-91020000D03*
X170700000Y-91020000D03*
D13*
X168160000Y-91020000D03*
D14*
X165620000Y-91020000D03*
X163080000Y-91020000D03*
X160540000Y-91020000D03*
X158000000Y-91020000D03*
D13*
X155460000Y-91020000D03*
D14*
X152920000Y-91020000D03*
X150380000Y-91020000D03*
X150380000Y-108800000D03*
X152920000Y-108800000D03*
D13*
X155460000Y-108800000D03*
D14*
X158000000Y-108800000D03*
X160540000Y-108800000D03*
X163080000Y-108800000D03*
X165620000Y-108800000D03*
D13*
X168160000Y-108800000D03*
D14*
X170700000Y-108800000D03*
X173240000Y-108800000D03*
X175780000Y-108800000D03*
X178320000Y-108800000D03*
D13*
X180860000Y-108800000D03*
D14*
X183400000Y-108800000D03*
X185940000Y-108800000D03*
X188480000Y-108800000D03*
X191020000Y-108800000D03*
D13*
X193560000Y-108800000D03*
D14*
X196100000Y-108800000D03*
X198640000Y-108800000D03*
D13*
X117660000Y-99500000D03*
D14*
X120200000Y-99500000D03*
D15*
X108300000Y-76200000D03*
D16*
X104800000Y-76200000D03*
D13*
X168924200Y-116659200D03*
D17*
X171464200Y-116659200D03*
D13*
X169900000Y-128100000D03*
D17*
X172440000Y-128100000D03*
X174980000Y-128100000D03*
X177520000Y-128100000D03*
X180060000Y-128100000D03*
X182600000Y-128100000D03*
X185140000Y-128100000D03*
X187680000Y-128100000D03*
D18*
X196050000Y-70250000D03*
D19*
X196050000Y-74750000D03*
D20*
X193550000Y-69000000D03*
X193550000Y-76000000D03*
D21*
X181250000Y-62500000D03*
D17*
X181250000Y-65040000D03*
X178710000Y-62500000D03*
X178710000Y-65040000D03*
X176170000Y-62500000D03*
X176170000Y-65040000D03*
X173630000Y-62500000D03*
X173630000Y-65040000D03*
X171090000Y-62500000D03*
X171090000Y-65040000D03*
D22*
X120400000Y-52700000D03*
D18*
X196000000Y-118200000D03*
D19*
X196000000Y-122700000D03*
D20*
X193500000Y-116950000D03*
X193500000Y-123950000D03*
D23*
X104985000Y-55015000D03*
D24*
X104985000Y-57555000D03*
D15*
X185040000Y-70700000D03*
D25*
X182500000Y-70700000D03*
X179960000Y-70700000D03*
X177420000Y-70700000D03*
X174880000Y-70700000D03*
X172340000Y-70700000D03*
X169800000Y-70700000D03*
X167260000Y-70700000D03*
X167260000Y-83400000D03*
X169800000Y-83400000D03*
X172340000Y-83400000D03*
X174880000Y-83400000D03*
X177420000Y-83400000D03*
X179960000Y-83400000D03*
X182500000Y-83400000D03*
X185040000Y-83400000D03*
D22*
X196350000Y-53500000D03*
D23*
X104900000Y-84160000D03*
D24*
X104900000Y-86700000D03*
D13*
X120300000Y-94000000D03*
D14*
X117760000Y-94000000D03*
D26*
X157700000Y-57800000D03*
D27*
X155700000Y-57800000D03*
X153700000Y-57800000D03*
D28*
X159800000Y-57800000D03*
X151600000Y-57800000D03*
D22*
X196300000Y-128400000D03*
D29*
X115200000Y-64700000D03*
D30*
X109200000Y-64700000D03*
D31*
X112200000Y-69400000D03*
D32*
X150060000Y-69280000D03*
D17*
X152600000Y-69280000D03*
X150060000Y-71820000D03*
X152600000Y-71820000D03*
X150060000Y-74360000D03*
X152600000Y-74360000D03*
X150060000Y-76900000D03*
X152600000Y-76900000D03*
X150060000Y-79440000D03*
X152600000Y-79440000D03*
D18*
X196000000Y-59300000D03*
D19*
X196000000Y-63800000D03*
D20*
X193500000Y-58050000D03*
X193500000Y-65050000D03*
D22*
X125650000Y-128400000D03*
D13*
X163275000Y-80080000D03*
D17*
X160735000Y-80080000D03*
X163275000Y-77540000D03*
X160735000Y-77540000D03*
X163275000Y-75000000D03*
X160735000Y-75000000D03*
X163275000Y-72460000D03*
X160735000Y-72460000D03*
X163275000Y-69920000D03*
X160735000Y-69920000D03*
D13*
X120100000Y-126800000D03*
D14*
X117560000Y-126800000D03*
D13*
X180290000Y-56740000D03*
D17*
X177750000Y-56740000D03*
X175210000Y-56740000D03*
X172670000Y-56740000D03*
D13*
X114500000Y-81000000D03*
D17*
X117040000Y-81000000D03*
D13*
X124410000Y-118150000D03*
D14*
X121870000Y-118150000D03*
M02*
