M48
; DRILL file {KiCad 9.0.6} date 2026-04-09T21:12:31-0400
; FORMAT={-:-/ absolute / metric / decimal}
; #@! TF.CreationDate,2026-04-09T21:12:31-04:00
; #@! TF.GenerationSoftware,Kicad,Pcbnew,9.0.6
; #@! TF.FileFunction,Plated,1,4,PTH
FMAT,2
METRIC
; #@! TA.AperFunction,Plated,PTH,ViaDrill
T1C0.400
; #@! TA.AperFunction,Plated,PTH,ComponentDrill
T2C0.780
; #@! TA.AperFunction,Plated,PTH,ComponentDrill
T3C0.800
; #@! TA.AperFunction,Plated,PTH,ComponentDrill
T4C0.900
; #@! TA.AperFunction,Plated,PTH,ComponentDrill
T5C1.000
; #@! TA.AperFunction,Plated,PTH,ComponentDrill
T6C1.020
; #@! TA.AperFunction,Plated,PTH,ComponentDrill
T7C1.100
; #@! TA.AperFunction,Plated,PTH,ComponentDrill
T8C1.300
; #@! TA.AperFunction,Plated,PTH,ComponentDrill
T9C1.460
%
G90
G05
T1
X104.69Y-109.255
X107.99Y-123.955
X108.99Y-91.455
X111.2Y-82.2
X114.22Y-84.25
X114.28Y-52.87
X117.5Y-108.487
X121.32Y-73.499
X121.32Y-82.825
X121.625Y-85.135
X123.15Y-77.037
X123.15Y-78.037
X123.15Y-79.137
X124.05Y-77.037
X124.05Y-78.037
X124.05Y-79.137
X124.537Y-61.885
X125.45Y-77.437
X125.45Y-78.937
X126.175Y-78.162
X126.85Y-77.437
X126.85Y-78.937
X128.25Y-77.137
X128.25Y-78.137
X128.25Y-79.237
X128.7Y-112.562
X129.2Y-123.8
X129.35Y-77.137
X129.35Y-78.137
X129.35Y-79.237
X130.45Y-77.137
X130.45Y-78.137
X130.45Y-79.237
X131.398Y-115.537
X132.835Y-106.7
X135.412Y-84.167
X135.45Y-72.437
X135.45Y-78.437
X135.493Y-75.437
X135.495Y-115.412
X136.0Y-64.85
X136.765Y-115.412
X137.4Y-60.6
X137.9Y-84.1
X145.4Y-66.0
X147.1Y-99.2
X147.3Y-98.0
X147.5Y-103.2
X164.7Y-115.9
X167.3Y-115.9
X172.562Y-73.675
X172.562Y-76.195
X180.338Y-77.748
X181.433Y-67.742
X182.772Y-77.828
X183.933Y-64.017
X183.972Y-73.192
X185.272Y-77.828
X191.5Y-98.3
X197.1Y-112.6
T2
X119.3Y-93.5
X119.3Y-95.5
X119.3Y-97.5
X149.2Y-67.3
X151.2Y-67.3
X153.2Y-67.3
X160.3Y-122.0
X160.3Y-124.0
X160.3Y-126.0
T3
X104.8Y-76.2
X108.3Y-76.2
T4
X110.71Y-94.71
X110.71Y-97.25
X110.71Y-99.79
X110.71Y-102.33
X110.71Y-114.91
X110.71Y-117.45
X110.71Y-119.99
X110.71Y-122.53
X113.25Y-95.98
X113.25Y-98.52
X113.25Y-101.06
X113.25Y-103.6
X113.25Y-116.18
X113.25Y-118.72
X113.25Y-121.26
X113.25Y-123.8
T5
X114.5Y-81.0
X117.04Y-81.0
X117.56Y-126.8
X120.1Y-126.8
X121.87Y-118.15
X121.91Y-122.66
X124.41Y-118.15
X124.45Y-122.66
X147.46Y-115.7
X149.88Y-75.2
X149.88Y-77.74
X149.9Y-119.46
X149.9Y-122.0
X149.9Y-124.54
X149.9Y-127.08
X150.0Y-115.7
X152.42Y-75.2
X152.42Y-77.74
X152.54Y-115.7
X154.96Y-75.2
X154.96Y-77.74
X157.5Y-75.2
X157.5Y-77.74
X157.835Y-55.465
X160.04Y-75.2
X160.04Y-77.74
X160.375Y-55.465
X162.915Y-55.465
X165.455Y-55.465
X167.995Y-55.465
X168.0Y-59.1
X169.72Y-122.66
X169.72Y-125.2
X170.535Y-55.465
X170.54Y-59.1
X172.26Y-122.66
X172.26Y-125.2
X173.075Y-55.465
X173.08Y-59.1
X174.8Y-122.66
X174.8Y-125.2
X175.615Y-55.465
X175.62Y-59.1
X177.34Y-122.66
X177.34Y-125.2
X179.88Y-122.66
X179.88Y-125.2
X188.2Y-119.335
X188.2Y-121.875
X196.0Y-59.3
X196.0Y-63.8
X196.0Y-118.2
X196.0Y-122.7
X196.05Y-70.25
X196.05Y-74.75
T6
X150.16Y-87.22
X150.16Y-105.0
X152.7Y-87.22
X152.7Y-105.0
X155.24Y-87.22
X155.24Y-105.0
X157.78Y-87.22
X157.78Y-105.0
X160.32Y-87.22
X160.32Y-105.0
X162.86Y-87.22
X162.86Y-105.0
X165.4Y-87.22
X165.4Y-105.0
X167.94Y-87.22
X167.94Y-105.0
X170.48Y-87.22
X170.48Y-105.0
X173.02Y-87.22
X173.02Y-105.0
X175.56Y-87.22
X175.56Y-105.0
X178.1Y-87.22
X178.1Y-105.0
X180.64Y-87.22
X180.64Y-105.0
X183.18Y-87.22
X183.18Y-105.0
X185.72Y-87.22
X185.72Y-105.0
X188.26Y-87.22
X188.26Y-105.0
X190.8Y-87.22
X190.8Y-105.0
X193.34Y-87.22
X193.34Y-105.0
X195.88Y-87.22
X195.88Y-105.0
X198.42Y-87.22
X198.42Y-105.0
T7
X104.9Y-84.16
X104.9Y-86.7
X104.985Y-55.015
X104.985Y-57.555
T8
X193.5Y-58.05
X193.5Y-65.05
X193.5Y-116.95
X193.5Y-123.95
X193.55Y-69.0
X193.55Y-76.0
T9
X119.3Y-91.4
X119.3Y-99.6
X147.1Y-67.3
X155.3Y-67.3
X160.3Y-119.9
X160.3Y-128.1
T5
G00X109.2Y-63.7
M15
G01X109.2Y-65.7
M16
G05
G00X111.2Y-69.4
M15
G01X113.2Y-69.4
M16
G05
G00X115.2Y-63.7
M15
G01X115.2Y-65.7
M16
G05
M30
