M48
; DRILL file {KiCad 9.0.6} date 2026-03-26T19:19:08-0400
; FORMAT={-:-/ absolute / metric / decimal}
; #@! TF.CreationDate,2026-03-26T19:19:08-04:00
; #@! TF.GenerationSoftware,Kicad,Pcbnew,9.0.6
; #@! TF.FileFunction,Plated,1,4,PTH
FMAT,2
METRIC
; #@! TA.AperFunction,Plated,PTH,ViaDrill
T1C0.400
; #@! TA.AperFunction,Plated,PTH,ComponentDrill
T2C0.780
; #@! TA.AperFunction,Plated,PTH,ComponentDrill
T3C0.800
; #@! TA.AperFunction,Plated,PTH,ComponentDrill
T4C0.900
; #@! TA.AperFunction,Plated,PTH,ComponentDrill
T5C1.000
; #@! TA.AperFunction,Plated,PTH,ComponentDrill
T6C1.020
; #@! TA.AperFunction,Plated,PTH,ComponentDrill
T7C1.100
; #@! TA.AperFunction,Plated,PTH,ComponentDrill
T8C1.300
; #@! TA.AperFunction,Plated,PTH,ComponentDrill
T9C1.460
%
G90
G05
T1
X104.69Y-109.255
X107.99Y-123.955
X108.99Y-91.455
X111.2Y-82.2
X114.22Y-84.25
X114.28Y-52.87
X117.5Y-108.487
X121.32Y-73.499
X121.32Y-82.825
X121.328Y-88.075
X123.15Y-77.037
X123.15Y-78.037
X123.15Y-79.137
X124.05Y-77.037
X124.05Y-78.037
X124.05Y-79.137
X124.5Y-109.5
X125.4Y-59.292
X125.45Y-77.437
X125.45Y-78.937
X125.5Y-109.5
X126.175Y-78.162
X126.677Y-103.25
X126.8Y-115.8
X126.85Y-77.437
X126.85Y-78.937
X126.9Y-105.8
X127.0Y-114.5
X128.25Y-77.137
X128.25Y-78.137
X128.25Y-79.237
X129.35Y-77.137
X129.35Y-78.137
X129.35Y-79.237
X129.84Y-100.65
X130.45Y-77.137
X130.45Y-78.137
X130.45Y-79.237
X132.0Y-112.0
X132.977Y-103.25
X133.34Y-89.5
X135.412Y-84.167
X135.45Y-72.437
X135.45Y-78.437
X135.493Y-75.437
X136.0Y-64.85
X137.4Y-60.6
X141.0Y-114.6
X143.12Y-125.6
X143.12Y-128.1
X143.2Y-123.165
X143.52Y-114.6
X143.6Y-78.9
X145.0Y-110.1
X147.5Y-111.1
X152.375Y-126.705
X154.6Y-85.7
X157.825Y-124.165
X161.55Y-126.665
X182.0Y-67.6
X182.3Y-86.8
X182.3Y-120.1
X193.519Y-97.359
T2
X153.7Y-57.8
X155.7Y-57.8
X157.7Y-57.8
T3
X104.8Y-76.2
X108.3Y-76.2
X167.26Y-70.7
X167.26Y-83.4
X169.8Y-70.7
X169.8Y-83.4
X172.34Y-70.7
X172.34Y-83.4
X174.88Y-70.7
X174.88Y-83.4
X177.42Y-70.7
X177.42Y-83.4
X179.96Y-70.7
X179.96Y-83.4
X182.5Y-70.7
X182.5Y-83.4
X185.04Y-70.7
X185.04Y-83.4
T4
X110.71Y-94.71
X110.71Y-97.25
X110.71Y-99.79
X110.71Y-102.33
X110.71Y-114.91
X110.71Y-117.45
X110.71Y-119.99
X110.71Y-122.53
X113.25Y-95.98
X113.25Y-98.52
X113.25Y-101.06
X113.25Y-103.6
X113.25Y-116.18
X113.25Y-118.72
X113.25Y-121.26
X113.25Y-123.8
T5
X114.5Y-81.0
X117.04Y-81.0
X117.56Y-126.8
X117.66Y-99.5
X117.76Y-94.0
X120.1Y-126.8
X120.2Y-99.5
X120.3Y-94.0
X121.87Y-118.15
X121.91Y-122.66
X124.41Y-118.15
X124.45Y-122.66
X150.06Y-69.28
X150.06Y-71.82
X150.06Y-74.36
X150.06Y-76.9
X150.06Y-79.44
X152.6Y-69.28
X152.6Y-71.82
X152.6Y-74.36
X152.6Y-76.9
X152.6Y-79.44
X160.735Y-69.92
X160.735Y-72.46
X160.735Y-75.0
X160.735Y-77.54
X160.735Y-80.08
X163.275Y-69.92
X163.275Y-72.46
X163.275Y-75.0
X163.275Y-77.54
X163.275Y-80.08
X168.924Y-116.659
X169.895Y-124.465
X169.9Y-128.1
X171.09Y-62.5
X171.09Y-65.04
X171.464Y-116.659
X172.435Y-124.465
X172.44Y-128.1
X172.67Y-56.74
X173.63Y-62.5
X173.63Y-65.04
X174.975Y-124.465
X174.98Y-128.1
X175.21Y-56.74
X176.17Y-62.5
X176.17Y-65.04
X177.515Y-124.465
X177.52Y-128.1
X177.75Y-56.74
X178.71Y-62.5
X178.71Y-65.04
X180.06Y-128.1
X180.29Y-56.74
X181.25Y-62.5
X181.25Y-65.04
X182.6Y-128.1
X185.14Y-128.1
X187.68Y-128.1
X196.0Y-59.3
X196.0Y-63.8
X196.0Y-118.2
X196.0Y-122.7
X196.05Y-70.25
X196.05Y-74.75
T6
X150.38Y-91.02
X150.38Y-108.8
X152.92Y-91.02
X152.92Y-108.8
X155.46Y-91.02
X155.46Y-108.8
X158.0Y-91.02
X158.0Y-108.8
X160.54Y-91.02
X160.54Y-108.8
X163.08Y-91.02
X163.08Y-108.8
X165.62Y-91.02
X165.62Y-108.8
X168.16Y-91.02
X168.16Y-108.8
X170.7Y-91.02
X170.7Y-108.8
X173.24Y-91.02
X173.24Y-108.8
X175.78Y-91.02
X175.78Y-108.8
X178.32Y-91.02
X178.32Y-108.8
X180.86Y-91.02
X180.86Y-108.8
X183.4Y-91.02
X183.4Y-108.8
X185.94Y-91.02
X185.94Y-108.8
X188.48Y-91.02
X188.48Y-108.8
X191.02Y-91.02
X191.02Y-108.8
X193.56Y-91.02
X193.56Y-108.8
X196.1Y-91.02
X196.1Y-108.8
X198.64Y-91.02
X198.64Y-108.8
T7
X104.9Y-84.16
X104.9Y-86.7
X104.985Y-55.015
X104.985Y-57.555
T8
X193.5Y-58.05
X193.5Y-65.05
X193.5Y-116.95
X193.5Y-123.95
X193.55Y-69.0
X193.55Y-76.0
T9
X151.6Y-57.8
X159.8Y-57.8
T5
G00X109.2Y-63.7
M15
G01X109.2Y-65.7
M16
G05
G00X111.2Y-69.4
M15
G01X113.2Y-69.4
M16
G05
G00X115.2Y-63.7
M15
G01X115.2Y-65.7
M16
G05
M30
