M48
; DRILL file {KiCad 9.0.6} date 2026-04-09T09:22:49-0400
; FORMAT={-:-/ absolute / metric / decimal}
; #@! TF.CreationDate,2026-04-09T09:22:49-04:00
; #@! TF.GenerationSoftware,Kicad,Pcbnew,9.0.6
; #@! TF.FileFunction,Plated,1,2,PTH
FMAT,2
METRIC
; #@! TA.AperFunction,Plated,PTH,ViaDrill
T1C0.300
; #@! TA.AperFunction,Plated,PTH,ComponentDrill
T2C1.000
%
G90
G05
T1
X151.887Y-87.9
X151.887Y-90.71
X151.887Y-93.31
X151.887Y-111.9
X151.942Y-96.1
X151.987Y-101.2
X151.987Y-103.8
X151.987Y-106.5
X151.987Y-109.22
X152.05Y-98.6
T2
X137.5Y-88.47
X137.5Y-91.01
X137.5Y-93.55
X137.5Y-96.09
X137.5Y-98.63
X137.5Y-101.17
X137.5Y-103.71
X137.5Y-106.25
X137.5Y-108.79
X137.5Y-111.33
X158.4Y-94.3
X158.4Y-96.84
X158.4Y-99.38
X158.4Y-101.92
X158.4Y-104.46
X160.94Y-94.3
X160.94Y-96.84
X160.94Y-99.38
X160.94Y-101.92
X160.94Y-104.46
M30
