M48
; DRILL file {KiCad (7.0.0)} date Thu Oct 26 14:35:30 2023
; FORMAT={-:-/ absolute / metric / decimal}
; #@! TF.CreationDate,2023-10-26T14:35:30-04:00
; #@! TF.GenerationSoftware,Kicad,Pcbnew,(7.0.0)
; #@! TF.FileFunction,Plated,1,2,PTH
FMAT,2
METRIC
; #@! TA.AperFunction,Plated,PTH,ComponentDrill
T1C1.000
%
G90
G05
T1
X139.7Y-85.344
X139.7Y-87.884
X139.7Y-90.424
X139.7Y-92.964
X139.7Y-97.282
X139.7Y-99.822
X139.7Y-102.362
X139.7Y-104.902
X146.304Y-80.772
X146.304Y-110.998
X148.326Y-90.17
X148.326Y-92.71
X148.326Y-95.25
X148.326Y-97.79
X148.326Y-100.33
X148.844Y-80.772
X148.844Y-110.998
X150.867Y-90.17
X150.867Y-92.71
X150.867Y-95.25
X150.867Y-97.79
X150.867Y-100.33
X151.384Y-80.772
X151.384Y-110.998
X153.924Y-80.772
X153.924Y-110.998
X159.512Y-97.282
X159.512Y-99.822
X159.512Y-102.362
X159.512Y-104.902
T0
M30
