%TF.GenerationSoftware,KiCad,Pcbnew,(7.0.0)*%
%TF.CreationDate,2023-10-26T14:35:26-04:00*%
%TF.ProjectId,RibbonBreakout,52696262-6f6e-4427-9265-616b6f75742e,rev?*%
%TF.SameCoordinates,Original*%
%TF.FileFunction,Copper,L1,Top*%
%TF.FilePolarity,Positive*%
%FSLAX46Y46*%
G04 Gerber Fmt 4.6, Leading zero omitted, Abs format (unit mm)*
G04 Created by KiCad (PCBNEW (7.0.0)) date 2023-10-26 14:35:26*
%MOMM*%
%LPD*%
G01*
G04 APERTURE LIST*
G04 Aperture macros list*
%AMRoundRect*
0 Rectangle with rounded corners*
0 $1 Rounding radius*
0 $2 $3 $4 $5 $6 $7 $8 $9 X,Y pos of 4 corners*
0 Add a 4 corners polygon primitive as box body*
4,1,4,$2,$3,$4,$5,$6,$7,$8,$9,$2,$3,0*
0 Add four circle primitives for the rounded corners*
1,1,$1+$1,$2,$3*
1,1,$1+$1,$4,$5*
1,1,$1+$1,$6,$7*
1,1,$1+$1,$8,$9*
0 Add four rect primitives between the rounded corners*
20,1,$1+$1,$2,$3,$4,$5,0*
20,1,$1+$1,$4,$5,$6,$7,0*
20,1,$1+$1,$6,$7,$8,$9,0*
20,1,$1+$1,$8,$9,$2,$3,0*%
G04 Aperture macros list end*
%TA.AperFunction,ComponentPad*%
%ADD10R,1.700000X1.700000*%
%TD*%
%TA.AperFunction,ComponentPad*%
%ADD11O,1.700000X1.700000*%
%TD*%
%TA.AperFunction,ComponentPad*%
%ADD12RoundRect,0.250000X0.600000X0.600000X-0.600000X0.600000X-0.600000X-0.600000X0.600000X-0.600000X0*%
%TD*%
%TA.AperFunction,ComponentPad*%
%ADD13C,1.700000*%
%TD*%
%TA.AperFunction,Conductor*%
%ADD14C,0.700000*%
%TD*%
%TA.AperFunction,Conductor*%
%ADD15C,0.350000*%
%TD*%
G04 APERTURE END LIST*
D10*
%TO.P,J2,1*%
%TO.N,GND*%
X139699999Y-97281999D03*
D11*
%TO.P,J2,2*%
%TO.N,+5v*%
X139699999Y-99821999D03*
%TO.P,J2,3*%
%TO.N,Line2*%
X139699999Y-102361999D03*
%TO.P,J2,4*%
%TO.N,GND*%
X139699999Y-104901999D03*
%TD*%
D10*
%TO.P,J4,1*%
%TO.N,Line5*%
X153923999Y-80771999D03*
D11*
%TO.P,J4,2*%
%TO.N,Line6*%
X151383999Y-80771999D03*
%TO.P,J4,3*%
%TO.N,Line7*%
X148843999Y-80771999D03*
%TO.P,J4,4*%
%TO.N,Line8*%
X146303999Y-80771999D03*
%TD*%
D12*
%TO.P,S1,1*%
%TO.N,Line1*%
X150866500Y-100330000D03*
D13*
%TO.P,S1,2*%
%TO.N,Line2*%
X148326500Y-100330000D03*
%TO.P,S1,3*%
%TO.N,Line3*%
X150866500Y-97790000D03*
%TO.P,S1,4*%
%TO.N,Line4*%
X148326500Y-97790000D03*
%TO.P,S1,5*%
%TO.N,GND*%
X150866500Y-95250000D03*
%TO.P,S1,6*%
%TO.N,+5v*%
X148326500Y-95250000D03*
%TO.P,S1,7*%
%TO.N,Line5*%
X150866500Y-92710000D03*
%TO.P,S1,8*%
%TO.N,Line6*%
X148326500Y-92710000D03*
%TO.P,S1,9*%
%TO.N,Line7*%
X150866500Y-90170000D03*
%TO.P,S1,10*%
%TO.N,Line8*%
X148326500Y-90170000D03*
%TD*%
D10*
%TO.P,J1,1*%
%TO.N,GND*%
X159511999Y-97281999D03*
D11*
%TO.P,J1,2*%
%TO.N,+5v*%
X159511999Y-99821999D03*
%TO.P,J1,3*%
%TO.N,Line1*%
X159511999Y-102361999D03*
%TO.P,J1,4*%
%TO.N,GND*%
X159511999Y-104901999D03*
%TD*%
D10*
%TO.P,J5,1*%
%TO.N,+5v*%
X139699999Y-85343999D03*
D11*
%TO.P,J5,2*%
%TO.N,GND*%
X139699999Y-87883999D03*
%TO.P,J5,3*%
%TO.N,Line3*%
X139699999Y-90423999D03*
%TO.P,J5,4*%
%TO.N,Line4*%
X139699999Y-92963999D03*
%TD*%
D10*
%TO.P,J3,1*%
%TO.N,Line1*%
X153923999Y-110997999D03*
D11*
%TO.P,J3,2*%
%TO.N,Line2*%
X151383999Y-110997999D03*
%TO.P,J3,3*%
%TO.N,Line3*%
X148843999Y-110997999D03*
%TO.P,J3,4*%
%TO.N,Line4*%
X146303999Y-110997999D03*
%TD*%
D14*
%TO.N,+5v*%
X147746601Y-88770000D02*
X153800000Y-88770000D01*
X144526000Y-90170000D02*
X139700000Y-85344000D01*
X148326500Y-95250000D02*
X144526000Y-91449500D01*
X161036000Y-96006000D02*
X161036000Y-98298000D01*
X153800000Y-88770000D02*
X161036000Y-96006000D01*
X146926500Y-93850000D02*
X146926500Y-89590101D01*
X148326500Y-95250000D02*
X144272000Y-95250000D01*
X161036000Y-98298000D02*
X159512000Y-99822000D01*
X144526000Y-91449500D02*
X144526000Y-90170000D01*
X144272000Y-95250000D02*
X139700000Y-99822000D01*
X148326500Y-95250000D02*
X146926500Y-93850000D01*
X146926500Y-89590101D02*
X147746601Y-88770000D01*
%TO.N,GND*%
X148625871Y-104902000D02*
X139700000Y-104902000D01*
X150866500Y-95250000D02*
X152266500Y-96650000D01*
X152266500Y-96650000D02*
X152266500Y-97656500D01*
X138300000Y-95882000D02*
X138300000Y-89284000D01*
X152266500Y-101261371D02*
X148625871Y-104902000D01*
X157480000Y-95250000D02*
X159512000Y-97282000D01*
X139700000Y-104902000D02*
X138300000Y-103502000D01*
X138300000Y-103502000D02*
X138300000Y-98682000D01*
X139700000Y-97282000D02*
X138300000Y-95882000D01*
X138300000Y-89284000D02*
X139700000Y-87884000D01*
X152266500Y-97656500D02*
X159512000Y-104902000D01*
X138300000Y-98682000D02*
X139700000Y-97282000D01*
X150866500Y-95250000D02*
X157480000Y-95250000D01*
X152266500Y-96650000D02*
X152266500Y-101261371D01*
D15*
%TO.N,Line2*%
X141732000Y-100330000D02*
X139700000Y-102362000D01*
X148326500Y-100330000D02*
X141732000Y-100330000D01*
%TD*%
M02*
