%TF.GenerationSoftware,KiCad,Pcbnew,9.0.6*%
%TF.CreationDate,2026-04-09T09:22:44-04:00*%
%TF.ProjectId,RibbonBreakout_v2_7,52696262-6f6e-4427-9265-616b6f75745f,rev?*%
%TF.SameCoordinates,Original*%
%TF.FileFunction,Copper,L1,Top*%
%TF.FilePolarity,Positive*%
%FSLAX46Y46*%
G04 Gerber Fmt 4.6, Leading zero omitted, Abs format (unit mm)*
G04 Created by KiCad (PCBNEW 9.0.6) date 2026-04-09 09:22:44*
%MOMM*%
%LPD*%
G01*
G04 APERTURE LIST*
G04 Aperture macros list*
%AMRoundRect*
0 Rectangle with rounded corners*
0 $1 Rounding radius*
0 $2 $3 $4 $5 $6 $7 $8 $9 X,Y pos of 4 corners*
0 Add a 4 corners polygon primitive as box body*
4,1,4,$2,$3,$4,$5,$6,$7,$8,$9,$2,$3,0*
0 Add four circle primitives for the rounded corners*
1,1,$1+$1,$2,$3*
1,1,$1+$1,$4,$5*
1,1,$1+$1,$6,$7*
1,1,$1+$1,$8,$9*
0 Add four rect primitives between the rounded corners*
20,1,$1+$1,$2,$3,$4,$5,0*
20,1,$1+$1,$4,$5,$6,$7,0*
20,1,$1+$1,$6,$7,$8,$9,0*
20,1,$1+$1,$8,$9,$2,$3,0*%
G04 Aperture macros list end*
%TA.AperFunction,SMDPad,CuDef*%
%ADD10RoundRect,0.250001X0.462499X0.624999X-0.462499X0.624999X-0.462499X-0.624999X0.462499X-0.624999X0*%
%TD*%
%TA.AperFunction,SMDPad,CuDef*%
%ADD11RoundRect,0.250000X-0.400000X-0.625000X0.400000X-0.625000X0.400000X0.625000X-0.400000X0.625000X0*%
%TD*%
%TA.AperFunction,ComponentPad*%
%ADD12RoundRect,0.250000X-0.600000X-0.600000X0.600000X-0.600000X0.600000X0.600000X-0.600000X0.600000X0*%
%TD*%
%TA.AperFunction,ComponentPad*%
%ADD13C,1.700000*%
%TD*%
%TA.AperFunction,ComponentPad*%
%ADD14R,1.700000X1.700000*%
%TD*%
%TA.AperFunction,SMDPad,CuDef*%
%ADD15RoundRect,0.250000X0.400000X0.625000X-0.400000X0.625000X-0.400000X-0.625000X0.400000X-0.625000X0*%
%TD*%
%TA.AperFunction,ViaPad*%
%ADD16C,0.600000*%
%TD*%
%TA.AperFunction,Conductor*%
%ADD17C,0.350000*%
%TD*%
G04 APERTURE END LIST*
D10*
%TO.P,D9,1,K*%
%TO.N,GND*%
X151987500Y-101200000D03*
%TO.P,D9,2,A*%
%TO.N,Net-(D9-A)*%
X149012500Y-101200000D03*
%TD*%
%TO.P,D3,1,K*%
%TO.N,GND*%
X151942500Y-96100000D03*
%TO.P,D3,2,A*%
%TO.N,Net-(D3-A)*%
X148967500Y-96100000D03*
%TD*%
D11*
%TO.P,R6,1,1*%
%TO.N,GP08*%
X142895000Y-87900000D03*
%TO.P,R6,2,2*%
%TO.N,Net-(D7-A)*%
X145995000Y-87900000D03*
%TD*%
D12*
%TO.P,J21,1,Pin_1*%
%TO.N,GP08*%
X158400000Y-94300000D03*
D13*
%TO.P,J21,2,Pin_2*%
%TO.N,GP09*%
X160940000Y-94300000D03*
%TO.P,J21,3,Pin_3*%
%TO.N,GP10*%
X158400000Y-96840000D03*
%TO.P,J21,4,Pin_4*%
%TO.N,GP11*%
X160940000Y-96840000D03*
%TO.P,J21,5,Pin_5*%
%TO.N,GND*%
X158400000Y-99380000D03*
%TO.P,J21,6,Pin_6*%
%TO.N,+VIN*%
X160940000Y-99380000D03*
%TO.P,J21,7,Pin_7*%
%TO.N,GP12*%
X158400000Y-101920000D03*
%TO.P,J21,8,Pin_8*%
%TO.N,GP13*%
X160940000Y-101920000D03*
%TO.P,J21,9,Pin_9*%
%TO.N,GP14*%
X158400000Y-104460000D03*
%TO.P,J21,10,Pin_10*%
%TO.N,GP15*%
X160940000Y-104460000D03*
%TD*%
D11*
%TO.P,R2,1,1*%
%TO.N,GP10*%
X142905000Y-93250000D03*
%TO.P,R2,2,2*%
%TO.N,Net-(D2-A)*%
X146005000Y-93250000D03*
%TD*%
D14*
%TO.P,J1,1,Pin_1*%
%TO.N,GP08*%
X137500000Y-88470000D03*
D13*
%TO.P,J1,2,Pin_2*%
%TO.N,GP09*%
X137500000Y-91010000D03*
%TO.P,J1,3,Pin_3*%
%TO.N,GP10*%
X137500000Y-93550000D03*
%TO.P,J1,4,Pin_4*%
%TO.N,GP11*%
X137500000Y-96090000D03*
%TO.P,J1,5,Pin_5*%
%TO.N,GND*%
X137500000Y-98630000D03*
%TO.P,J1,6,Pin_6*%
%TO.N,+VIN*%
X137500000Y-101170000D03*
%TO.P,J1,7,Pin_7*%
%TO.N,GP12*%
X137500000Y-103710000D03*
%TO.P,J1,8,Pin_8*%
%TO.N,GP13*%
X137500000Y-106250000D03*
%TO.P,J1,9,Pin_9*%
%TO.N,GP14*%
X137500000Y-108790000D03*
%TO.P,J1,10,Pin_10*%
%TO.N,GP15*%
X137500000Y-111330000D03*
%TD*%
D11*
%TO.P,R1,1,1*%
%TO.N,GP09*%
X142905000Y-90710000D03*
%TO.P,R1,2,2*%
%TO.N,Net-(D1-A)*%
X146005000Y-90710000D03*
%TD*%
%TO.P,R7,1,1*%
%TO.N,GP14*%
X143005000Y-109230000D03*
%TO.P,R7,2,2*%
%TO.N,Net-(D6-A)*%
X146105000Y-109230000D03*
%TD*%
%TO.P,R3,1,1*%
%TO.N,GP11*%
X142950000Y-96100000D03*
%TO.P,R3,2,2*%
%TO.N,Net-(D3-A)*%
X146050000Y-96100000D03*
%TD*%
D10*
%TO.P,D6,1,K*%
%TO.N,GND*%
X151987500Y-109220000D03*
%TO.P,D6,2,A*%
%TO.N,Net-(D6-A)*%
X149012500Y-109220000D03*
%TD*%
%TO.P,D5,1,K*%
%TO.N,GND*%
X151987500Y-106500000D03*
%TO.P,D5,2,A*%
%TO.N,Net-(D5-A)*%
X149012500Y-106500000D03*
%TD*%
D11*
%TO.P,R5,1,1*%
%TO.N,GP13*%
X143005000Y-106450000D03*
%TO.P,R5,2,2*%
%TO.N,Net-(D5-A)*%
X146105000Y-106450000D03*
%TD*%
D10*
%TO.P,D4,1,K*%
%TO.N,GND*%
X151987500Y-103800000D03*
%TO.P,D4,2,A*%
%TO.N,Net-(D4-A)*%
X149012500Y-103800000D03*
%TD*%
%TO.P,D2,1,K*%
%TO.N,GND*%
X151887500Y-93310000D03*
%TO.P,D2,2,A*%
%TO.N,Net-(D2-A)*%
X148912500Y-93310000D03*
%TD*%
%TO.P,D8,1,K*%
%TO.N,GND*%
X151887500Y-111900000D03*
%TO.P,D8,2,A*%
%TO.N,Net-(D8-A)*%
X148912500Y-111900000D03*
%TD*%
%TO.P,D7,1,K*%
%TO.N,GND*%
X151887500Y-87900000D03*
%TO.P,D7,2,A*%
%TO.N,Net-(D7-A)*%
X148912500Y-87900000D03*
%TD*%
D11*
%TO.P,R4,1,1*%
%TO.N,GP12*%
X143005000Y-103770000D03*
%TO.P,R4,2,2*%
%TO.N,Net-(D4-A)*%
X146105000Y-103770000D03*
%TD*%
D10*
%TO.P,D1,1,K*%
%TO.N,GND*%
X151887500Y-90710000D03*
%TO.P,D1,2,A*%
%TO.N,Net-(D1-A)*%
X148912500Y-90710000D03*
%TD*%
D11*
%TO.P,R8,1,1*%
%TO.N,GP15*%
X142905000Y-111890000D03*
%TO.P,R8,2,2*%
%TO.N,Net-(D8-A)*%
X146005000Y-111890000D03*
%TD*%
D15*
%TO.P,R9,1,1*%
%TO.N,+VIN*%
X152050000Y-98600000D03*
%TO.P,R9,2,2*%
%TO.N,Net-(D9-A)*%
X148950000Y-98600000D03*
%TD*%
D16*
%TO.N,+VIN*%
X152050000Y-98600000D03*
%TO.N,GND*%
X151987500Y-106500000D03*
X151887500Y-93310000D03*
X151987500Y-109220000D03*
X151942500Y-96100000D03*
X151887500Y-111900000D03*
X151887500Y-90710000D03*
X151887500Y-87900000D03*
X151987500Y-103800000D03*
X151987500Y-101200000D03*
%TD*%
D17*
%TO.N,GND*%
X155030000Y-96010000D02*
X151942500Y-96010000D01*
X158400000Y-99380000D02*
X155030000Y-96010000D01*
%TO.N,GP10*%
X137500000Y-93550000D02*
X142605000Y-93550000D01*
X158400000Y-96840000D02*
X156259000Y-94699000D01*
X156259000Y-94699000D02*
X144354000Y-94699000D01*
X142605000Y-93550000D02*
X142905000Y-93250000D01*
X144354000Y-94699000D02*
X142905000Y-93250000D01*
%TO.N,GP13*%
X137500000Y-106250000D02*
X142805000Y-106250000D01*
X142805000Y-106250000D02*
X143005000Y-106450000D01*
%TO.N,GP12*%
X158400000Y-101920000D02*
X155220000Y-105100000D01*
X155220000Y-105100000D02*
X144335000Y-105100000D01*
X144335000Y-105100000D02*
X143005000Y-103770000D01*
X137500000Y-103710000D02*
X142945000Y-103710000D01*
X142945000Y-103710000D02*
X143005000Y-103770000D01*
%TO.N,GP09*%
X142605000Y-91010000D02*
X142905000Y-90710000D01*
X137500000Y-91010000D02*
X142605000Y-91010000D01*
%TO.N,GP08*%
X153900000Y-89300000D02*
X144185000Y-89300000D01*
X158400000Y-94300000D02*
X158400000Y-93800000D01*
X158400000Y-93800000D02*
X153900000Y-89300000D01*
X142895000Y-88010000D02*
X142435000Y-88470000D01*
X142435000Y-88470000D02*
X137500000Y-88470000D01*
X144185000Y-89300000D02*
X142895000Y-88010000D01*
%TO.N,GP11*%
X137500000Y-96090000D02*
X142820000Y-96090000D01*
X142820000Y-96090000D02*
X142960000Y-95950000D01*
%TO.N,GP14*%
X142565000Y-108790000D02*
X143005000Y-109230000D01*
X158400000Y-104460000D02*
X158340000Y-104460000D01*
X137500000Y-108790000D02*
X142565000Y-108790000D01*
X155000000Y-107800000D02*
X144435000Y-107800000D01*
X158340000Y-104460000D02*
X155000000Y-107800000D01*
X144435000Y-107800000D02*
X143005000Y-109230000D01*
%TO.N,GP15*%
X137500000Y-111330000D02*
X142345000Y-111330000D01*
X142345000Y-111330000D02*
X142905000Y-111890000D01*
%TO.N,Net-(D1-A)*%
X146005000Y-90710000D02*
X148912500Y-90710000D01*
%TO.N,Net-(D2-A)*%
X148852500Y-93250000D02*
X148912500Y-93310000D01*
X146005000Y-93250000D02*
X148852500Y-93250000D01*
%TO.N,Net-(D3-A)*%
X146060000Y-95950000D02*
X148907500Y-95950000D01*
X148907500Y-95950000D02*
X148967500Y-96010000D01*
%TO.N,Net-(D4-A)*%
X146105000Y-103770000D02*
X148942500Y-103770000D01*
X148942500Y-103770000D02*
X149012500Y-103840000D01*
%TO.N,Net-(D5-A)*%
X146105000Y-106450000D02*
X148932500Y-106450000D01*
X148932500Y-106450000D02*
X149012500Y-106530000D01*
%TO.N,Net-(D6-A)*%
X146105000Y-109230000D02*
X149002500Y-109230000D01*
X149002500Y-109230000D02*
X149012500Y-109220000D01*
%TO.N,Net-(D7-A)*%
X145995000Y-88010000D02*
X148857500Y-88010000D01*
%TO.N,Net-(D8-A)*%
X148902500Y-111890000D02*
X148912500Y-111900000D01*
X146005000Y-111890000D02*
X148902500Y-111890000D01*
%TO.N,Net-(D9-A)*%
X148950000Y-101137500D02*
X149012500Y-101200000D01*
X148950000Y-98600000D02*
X148950000Y-101137500D01*
%TD*%
%TA.AperFunction,Conductor*%
%TO.N,GND*%
G36*
X156955398Y-104408019D02*
G01*
X156968833Y-104408980D01*
X156986559Y-104422249D01*
X157006703Y-104431449D01*
X157013984Y-104442779D01*
X157024767Y-104450851D01*
X157032505Y-104471598D01*
X157044477Y-104490227D01*
X157047628Y-104512145D01*
X157049184Y-104516316D01*
X157049500Y-104525162D01*
X157049500Y-104566286D01*
X157070915Y-104701495D01*
X157061960Y-104770789D01*
X157036123Y-104808574D01*
X154756518Y-107088181D01*
X154695195Y-107121666D01*
X154668837Y-107124500D01*
X153324000Y-107124500D01*
X153256961Y-107104815D01*
X153211206Y-107052011D01*
X153200000Y-107000500D01*
X153200000Y-106750000D01*
X152237500Y-106750000D01*
X152237500Y-107000500D01*
X152217815Y-107067539D01*
X152165011Y-107113294D01*
X152113500Y-107124500D01*
X151861500Y-107124500D01*
X151794461Y-107104815D01*
X151748706Y-107052011D01*
X151737500Y-107000500D01*
X151737500Y-106750000D01*
X150775000Y-106750000D01*
X150775000Y-107000500D01*
X150755315Y-107067539D01*
X150702511Y-107113294D01*
X150651000Y-107124500D01*
X150349500Y-107124500D01*
X150282461Y-107104815D01*
X150236706Y-107052011D01*
X150225500Y-107000500D01*
X150225500Y-105899500D01*
X150245185Y-105832461D01*
X150297989Y-105786706D01*
X150349500Y-105775500D01*
X150651000Y-105775500D01*
X150718039Y-105795185D01*
X150763794Y-105847989D01*
X150775000Y-105899500D01*
X150775000Y-106250000D01*
X151737500Y-106250000D01*
X151737500Y-105899500D01*
X151757185Y-105832461D01*
X151809989Y-105786706D01*
X151861500Y-105775500D01*
X152113500Y-105775500D01*
X152180539Y-105795185D01*
X152226294Y-105847989D01*
X152237500Y-105899500D01*
X152237500Y-106250000D01*
X153200000Y-106250000D01*
X153200000Y-105899500D01*
X153219685Y-105832461D01*
X153272489Y-105786706D01*
X153324000Y-105775500D01*
X155286532Y-105775500D01*
X155286533Y-105775499D01*
X155417036Y-105749541D01*
X155539969Y-105698620D01*
X155650606Y-105624695D01*
X156837819Y-104437480D01*
X156857255Y-104426868D01*
X156873989Y-104412368D01*
X156887320Y-104410451D01*
X156899142Y-104403996D01*
X156921228Y-104405575D01*
X156943147Y-104402424D01*
X156955398Y-104408019D01*
G37*
%TD.AperFunction*%
%TA.AperFunction,Conductor*%
G36*
X144248667Y-95366781D02*
G01*
X144287469Y-95374500D01*
X144775500Y-95374500D01*
X144842539Y-95394185D01*
X144888294Y-95446989D01*
X144899500Y-95498500D01*
X144899500Y-96775001D01*
X144899501Y-96775018D01*
X144910000Y-96877796D01*
X144910001Y-96877799D01*
X144940485Y-96969792D01*
X144965186Y-97044334D01*
X145057288Y-97193656D01*
X145181344Y-97317712D01*
X145330666Y-97409814D01*
X145497203Y-97464999D01*
X145599991Y-97475500D01*
X146500008Y-97475499D01*
X146500016Y-97475498D01*
X146500019Y-97475498D01*
X146556302Y-97469748D01*
X146602797Y-97464999D01*
X146769334Y-97409814D01*
X146918656Y-97317712D01*
X147042712Y-97193656D01*
X147134814Y-97044334D01*
X147189999Y-96877797D01*
X147200500Y-96775009D01*
X147200500Y-96749500D01*
X147220185Y-96682461D01*
X147272989Y-96636706D01*
X147324500Y-96625500D01*
X147630500Y-96625500D01*
X147697539Y-96645185D01*
X147743294Y-96697989D01*
X147754500Y-96749500D01*
X147754500Y-96775015D01*
X147765000Y-96877795D01*
X147765001Y-96877796D01*
X147820186Y-97044335D01*
X147820187Y-97044337D01*
X147912286Y-97193651D01*
X147912289Y-97193655D01*
X148003451Y-97284817D01*
X148036936Y-97346140D01*
X148031952Y-97415832D01*
X148003453Y-97460178D01*
X147957288Y-97506344D01*
X147865187Y-97655663D01*
X147865186Y-97655666D01*
X147810001Y-97822203D01*
X147810001Y-97822204D01*
X147810000Y-97822204D01*
X147799500Y-97924983D01*
X147799500Y-99275001D01*
X147799501Y-99275018D01*
X147810000Y-99377796D01*
X147810001Y-99377799D01*
X147865185Y-99544331D01*
X147865187Y-99544336D01*
X147957289Y-99693657D01*
X148075952Y-99812320D01*
X148109437Y-99873643D01*
X148104453Y-99943335D01*
X148075952Y-99987682D01*
X147957289Y-100106344D01*
X147957286Y-100106348D01*
X147865187Y-100255662D01*
X147865186Y-100255664D01*
X147810001Y-100422203D01*
X147810000Y-100422204D01*
X147799500Y-100524984D01*
X147799500Y-101875015D01*
X147810000Y-101977795D01*
X147810001Y-101977796D01*
X147865186Y-102144335D01*
X147865187Y-102144337D01*
X147957286Y-102293651D01*
X147957289Y-102293655D01*
X148075953Y-102412319D01*
X148109438Y-102473642D01*
X148104454Y-102543334D01*
X148075953Y-102587681D01*
X147957289Y-102706344D01*
X147957286Y-102706348D01*
X147865187Y-102855662D01*
X147865186Y-102855665D01*
X147814209Y-103009504D01*
X147774436Y-103066949D01*
X147709920Y-103093772D01*
X147696503Y-103094500D01*
X147367163Y-103094500D01*
X147300124Y-103074815D01*
X147254369Y-103022011D01*
X147245911Y-102996459D01*
X147245000Y-102992207D01*
X147231050Y-102950109D01*
X147189814Y-102825666D01*
X147097712Y-102676344D01*
X146973656Y-102552288D01*
X146824334Y-102460186D01*
X146657797Y-102405001D01*
X146657795Y-102405000D01*
X146555010Y-102394500D01*
X145654998Y-102394500D01*
X145654980Y-102394501D01*
X145552203Y-102405000D01*
X145552200Y-102405001D01*
X145385668Y-102460185D01*
X145385663Y-102460187D01*
X145236342Y-102552289D01*
X145112289Y-102676342D01*
X145020187Y-102825663D01*
X145020185Y-102825668D01*
X145010245Y-102855665D01*
X144965001Y-102992203D01*
X144965001Y-102992204D01*
X144965000Y-102992204D01*
X144954500Y-103094983D01*
X144954500Y-103094991D01*
X144954500Y-103752184D01*
X144954501Y-104300500D01*
X144951950Y-104309185D01*
X144953239Y-104318147D01*
X144942260Y-104342187D01*
X144934816Y-104367539D01*
X144927975Y-104373466D01*
X144924214Y-104381703D01*
X144901981Y-104395990D01*
X144882013Y-104413294D01*
X144871497Y-104415581D01*
X144865436Y-104419477D01*
X144830501Y-104424500D01*
X144666163Y-104424500D01*
X144599124Y-104404815D01*
X144578482Y-104388181D01*
X144191818Y-104001517D01*
X144158333Y-103940194D01*
X144155499Y-103913836D01*
X144155499Y-103094998D01*
X144155498Y-103094981D01*
X144144999Y-102992203D01*
X144144998Y-102992200D01*
X144099826Y-102855881D01*
X144089814Y-102825666D01*
X143997712Y-102676344D01*
X143873656Y-102552288D01*
X143724334Y-102460186D01*
X143557797Y-102405001D01*
X143557795Y-102405000D01*
X143455010Y-102394500D01*
X142554998Y-102394500D01*
X142554980Y-102394501D01*
X142452203Y-102405000D01*
X142452200Y-102405001D01*
X142285668Y-102460185D01*
X142285663Y-102460187D01*
X142136342Y-102552289D01*
X142012289Y-102676342D01*
X141920187Y-102825663D01*
X141920185Y-102825668D01*
X141918679Y-102830213D01*
X141879149Y-102949506D01*
X141839379Y-103006949D01*
X141774863Y-103033772D01*
X141761445Y-103034500D01*
X138741712Y-103034500D01*
X138674673Y-103014815D01*
X138641394Y-102983385D01*
X138530109Y-102830214D01*
X138530105Y-102830209D01*
X138379786Y-102679890D01*
X138207820Y-102554951D01*
X138200974Y-102551463D01*
X138199054Y-102550485D01*
X138148259Y-102502512D01*
X138131463Y-102434692D01*
X138153999Y-102368556D01*
X138199054Y-102329515D01*
X138207816Y-102325051D01*
X138251457Y-102293344D01*
X138379786Y-102200109D01*
X138379788Y-102200106D01*
X138379792Y-102200104D01*
X138530104Y-102049792D01*
X138530106Y-102049788D01*
X138530109Y-102049786D01*
X138655048Y-101877820D01*
X138655047Y-101877820D01*
X138655051Y-101877816D01*
X138751557Y-101688412D01*
X138817246Y-101486243D01*
X138850500Y-101276287D01*
X138850500Y-101063713D01*
X138817246Y-100853757D01*
X138751557Y-100651588D01*
X138655051Y-100462184D01*
X138655049Y-100462181D01*
X138655048Y-100462179D01*
X138530109Y-100290213D01*
X138379786Y-100139890D01*
X138207817Y-100014949D01*
X138198504Y-100010204D01*
X138147707Y-99962230D01*
X138130912Y-99894409D01*
X138153449Y-99828274D01*
X138198507Y-99789232D01*
X138207555Y-99784622D01*
X138261716Y-99745270D01*
X138261717Y-99745270D01*
X137629408Y-99112962D01*
X137692993Y-99095925D01*
X137807007Y-99030099D01*
X137900099Y-98937007D01*
X137965925Y-98822993D01*
X137982962Y-98759408D01*
X138615270Y-99391717D01*
X138615270Y-99391716D01*
X138654622Y-99337554D01*
X138751095Y-99148217D01*
X138816757Y-98946130D01*
X138816757Y-98946127D01*
X138850000Y-98736246D01*
X138850000Y-98523753D01*
X138816757Y-98313872D01*
X138816757Y-98313869D01*
X138751095Y-98111782D01*
X138654624Y-97922449D01*
X138615270Y-97868282D01*
X138615269Y-97868282D01*
X137982962Y-98500590D01*
X137965925Y-98437007D01*
X137900099Y-98322993D01*
X137807007Y-98229901D01*
X137692993Y-98164075D01*
X137629409Y-98147037D01*
X138261716Y-97514728D01*
X138207547Y-97475373D01*
X138207547Y-97475372D01*
X138198500Y-97470763D01*
X138147706Y-97422788D01*
X138130912Y-97354966D01*
X138153451Y-97288832D01*
X138198508Y-97249793D01*
X138207816Y-97245051D01*
X138330056Y-97156239D01*
X138379786Y-97120109D01*
X138379788Y-97120106D01*
X138379792Y-97120104D01*
X138530104Y-96969792D01*
X138547182Y-96946286D01*
X138641394Y-96816615D01*
X138696724Y-96773949D01*
X138741712Y-96765500D01*
X141686551Y-96765500D01*
X141753590Y-96785185D01*
X141799345Y-96837989D01*
X141808370Y-96871226D01*
X141808585Y-96871181D01*
X141809430Y-96875133D01*
X141809909Y-96876894D01*
X141810001Y-96877799D01*
X141840485Y-96969792D01*
X141865186Y-97044334D01*
X141957288Y-97193656D01*
X142081344Y-97317712D01*
X142230666Y-97409814D01*
X142397203Y-97464999D01*
X142499991Y-97475500D01*
X143400008Y-97475499D01*
X143400016Y-97475498D01*
X143400019Y-97475498D01*
X143456302Y-97469748D01*
X143502797Y-97464999D01*
X143669334Y-97409814D01*
X143818656Y-97317712D01*
X143942712Y-97193656D01*
X144034814Y-97044334D01*
X144089999Y-96877797D01*
X144100500Y-96775009D01*
X144100499Y-95488402D01*
X144120184Y-95421364D01*
X144172987Y-95375609D01*
X144242146Y-95365665D01*
X144248667Y-95366781D01*
G37*
%TD.AperFunction*%
%TA.AperFunction,Conductor*%
G36*
X150673039Y-95394185D02*
G01*
X150718794Y-95446989D01*
X150730000Y-95498500D01*
X150730000Y-95850000D01*
X151692500Y-95850000D01*
X151692500Y-95498500D01*
X151712185Y-95431461D01*
X151764989Y-95385706D01*
X151816500Y-95374500D01*
X152068500Y-95374500D01*
X152135539Y-95394185D01*
X152181294Y-95446989D01*
X152192500Y-95498500D01*
X152192500Y-95850000D01*
X153155000Y-95850000D01*
X153155000Y-95498500D01*
X153174685Y-95431461D01*
X153227489Y-95385706D01*
X153279000Y-95374500D01*
X155927837Y-95374500D01*
X155994876Y-95394185D01*
X156015518Y-95410819D01*
X157044327Y-96439628D01*
X157077812Y-96500951D01*
X157079119Y-96546707D01*
X157049500Y-96733713D01*
X157049500Y-96946286D01*
X157065029Y-97044336D01*
X157082754Y-97156243D01*
X157147323Y-97354966D01*
X157148444Y-97358414D01*
X157244951Y-97547820D01*
X157369890Y-97719786D01*
X157520213Y-97870109D01*
X157692179Y-97995048D01*
X157692181Y-97995049D01*
X157692184Y-97995051D01*
X157701493Y-97999794D01*
X157752290Y-98047766D01*
X157769087Y-98115587D01*
X157746552Y-98181722D01*
X157701505Y-98220760D01*
X157692446Y-98225376D01*
X157692440Y-98225380D01*
X157638282Y-98264727D01*
X157638282Y-98264728D01*
X158270591Y-98897037D01*
X158207007Y-98914075D01*
X158092993Y-98979901D01*
X157999901Y-99072993D01*
X157934075Y-99187007D01*
X157917037Y-99250591D01*
X157284728Y-98618282D01*
X157284727Y-98618282D01*
X157245380Y-98672439D01*
X157148904Y-98861782D01*
X157083242Y-99063869D01*
X157083242Y-99063872D01*
X157050000Y-99273753D01*
X157050000Y-99486246D01*
X157083242Y-99696127D01*
X157083242Y-99696130D01*
X157148904Y-99898217D01*
X157245375Y-100087550D01*
X157284728Y-100141716D01*
X157917037Y-99509408D01*
X157934075Y-99572993D01*
X157999901Y-99687007D01*
X158092993Y-99780099D01*
X158207007Y-99845925D01*
X158270590Y-99862962D01*
X157638282Y-100495269D01*
X157638282Y-100495270D01*
X157692452Y-100534626D01*
X157692451Y-100534626D01*
X157701495Y-100539234D01*
X157752292Y-100587208D01*
X157769087Y-100655029D01*
X157746550Y-100721164D01*
X157701499Y-100760202D01*
X157692182Y-100764949D01*
X157520213Y-100889890D01*
X157369890Y-101040213D01*
X157244951Y-101212179D01*
X157148444Y-101401585D01*
X157082753Y-101603760D01*
X157049500Y-101813713D01*
X157049500Y-102026287D01*
X157049499Y-102026287D01*
X157079118Y-102213293D01*
X157070163Y-102282586D01*
X157044326Y-102320371D01*
X154976518Y-104388181D01*
X154915195Y-104421666D01*
X154888837Y-104424500D01*
X153324000Y-104424500D01*
X153256961Y-104404815D01*
X153211206Y-104352011D01*
X153200000Y-104300500D01*
X153200000Y-104050000D01*
X152237500Y-104050000D01*
X152237500Y-104300500D01*
X152217815Y-104367539D01*
X152165011Y-104413294D01*
X152113500Y-104424500D01*
X151861500Y-104424500D01*
X151794461Y-104404815D01*
X151748706Y-104352011D01*
X151737500Y-104300500D01*
X151737500Y-104050000D01*
X150775000Y-104050000D01*
X150775000Y-104300500D01*
X150755315Y-104367539D01*
X150702511Y-104413294D01*
X150651000Y-104424500D01*
X150349500Y-104424500D01*
X150282461Y-104404815D01*
X150236706Y-104352011D01*
X150225500Y-104300500D01*
X150225500Y-103124997D01*
X150225499Y-103124984D01*
X150222435Y-103094996D01*
X150214999Y-103022203D01*
X150159814Y-102855666D01*
X150144114Y-102830213D01*
X150067713Y-102706348D01*
X150067710Y-102706344D01*
X149949047Y-102587681D01*
X149915562Y-102526358D01*
X149920546Y-102456666D01*
X149949047Y-102412319D01*
X149992810Y-102368556D01*
X150067711Y-102293655D01*
X150159814Y-102144334D01*
X150214999Y-101977797D01*
X150225500Y-101875008D01*
X150225500Y-101874985D01*
X150775000Y-101874985D01*
X150785493Y-101977689D01*
X150785494Y-101977696D01*
X150840641Y-102144118D01*
X150840643Y-102144123D01*
X150932684Y-102293344D01*
X151051659Y-102412319D01*
X151085144Y-102473642D01*
X151080160Y-102543334D01*
X151051659Y-102587681D01*
X150932684Y-102706655D01*
X150840643Y-102855876D01*
X150840641Y-102855881D01*
X150785494Y-103022303D01*
X150785493Y-103022310D01*
X150775000Y-103125014D01*
X150775000Y-103550000D01*
X151737500Y-103550000D01*
X152237500Y-103550000D01*
X153200000Y-103550000D01*
X153200000Y-103125027D01*
X153199999Y-103125014D01*
X153189506Y-103022310D01*
X153189505Y-103022303D01*
X153134358Y-102855881D01*
X153134356Y-102855876D01*
X153042315Y-102706655D01*
X152923341Y-102587681D01*
X152889856Y-102526358D01*
X152894840Y-102456666D01*
X152923341Y-102412319D01*
X153042315Y-102293344D01*
X153134356Y-102144123D01*
X153134358Y-102144118D01*
X153189505Y-101977696D01*
X153189506Y-101977689D01*
X153199999Y-101874985D01*
X153200000Y-101874972D01*
X153200000Y-101450000D01*
X152237500Y-101450000D01*
X152237500Y-103550000D01*
X151737500Y-103550000D01*
X151737500Y-101450000D01*
X150775000Y-101450000D01*
X150775000Y-101874985D01*
X150225500Y-101874985D01*
X150225500Y-100524992D01*
X150214999Y-100422203D01*
X150159814Y-100255666D01*
X150067711Y-100106345D01*
X149943655Y-99982289D01*
X149943651Y-99982286D01*
X149898026Y-99954144D01*
X149851301Y-99902196D01*
X149840080Y-99833234D01*
X149867923Y-99769152D01*
X149875420Y-99760947D01*
X149942712Y-99693656D01*
X150034814Y-99544334D01*
X150089999Y-99377797D01*
X150100500Y-99275009D01*
X150100499Y-97924992D01*
X150089999Y-97822203D01*
X150034814Y-97655666D01*
X149942712Y-97506344D01*
X149914048Y-97477680D01*
X149880563Y-97416357D01*
X149885547Y-97346665D01*
X149914048Y-97302318D01*
X149966574Y-97249792D01*
X150022711Y-97193655D01*
X150114814Y-97044334D01*
X150169999Y-96877797D01*
X150180500Y-96775008D01*
X150180500Y-96774985D01*
X150730000Y-96774985D01*
X150740493Y-96877689D01*
X150740494Y-96877696D01*
X150795641Y-97044118D01*
X150795643Y-97044123D01*
X150887684Y-97193344D01*
X151011657Y-97317317D01*
X151024202Y-97325055D01*
X151070926Y-97377003D01*
X151082147Y-97445966D01*
X151059774Y-97499392D01*
X151061080Y-97500198D01*
X151057290Y-97506341D01*
X151057288Y-97506344D01*
X151031706Y-97547820D01*
X150965187Y-97655663D01*
X150965186Y-97655666D01*
X150910001Y-97822203D01*
X150910001Y-97822204D01*
X150910000Y-97822204D01*
X150899500Y-97924983D01*
X150899500Y-99275001D01*
X150899501Y-99275018D01*
X150910000Y-99377796D01*
X150910001Y-99377799D01*
X150965185Y-99544331D01*
X150965187Y-99544336D01*
X151057289Y-99693657D01*
X151124920Y-99761288D01*
X151158405Y-99822611D01*
X151153421Y-99892303D01*
X151111549Y-99948236D01*
X151102336Y-99954507D01*
X151056660Y-99982680D01*
X151056656Y-99982683D01*
X150932684Y-100106655D01*
X150840643Y-100255876D01*
X150840641Y-100255881D01*
X150785494Y-100422303D01*
X150785493Y-100422310D01*
X150775000Y-100525014D01*
X150775000Y-100950000D01*
X153200000Y-100950000D01*
X153200000Y-100525027D01*
X153199999Y-100525014D01*
X153189506Y-100422310D01*
X153189505Y-100422303D01*
X153134358Y-100255881D01*
X153134356Y-100255876D01*
X153042315Y-100106655D01*
X152923695Y-99988035D01*
X152890210Y-99926712D01*
X152895194Y-99857020D01*
X152923695Y-99812673D01*
X152975444Y-99760924D01*
X153042712Y-99693656D01*
X153134814Y-99544334D01*
X153189999Y-99377797D01*
X153200500Y-99275009D01*
X153200499Y-97924992D01*
X153189999Y-97822203D01*
X153134814Y-97655666D01*
X153042712Y-97506344D01*
X152951195Y-97414827D01*
X152917710Y-97353504D01*
X152922694Y-97283812D01*
X152951195Y-97239465D01*
X152997315Y-97193344D01*
X153089356Y-97044123D01*
X153089358Y-97044118D01*
X153144505Y-96877696D01*
X153144506Y-96877689D01*
X153154999Y-96774985D01*
X153155000Y-96774972D01*
X153155000Y-96350000D01*
X150730000Y-96350000D01*
X150730000Y-96774985D01*
X150180500Y-96774985D01*
X150180500Y-95498500D01*
X150200185Y-95431461D01*
X150252989Y-95385706D01*
X150304500Y-95374500D01*
X150606000Y-95374500D01*
X150673039Y-95394185D01*
G37*
%TD.AperFunction*%
%TA.AperFunction,Conductor*%
G36*
X159515270Y-100141717D02*
G01*
X159515270Y-100141716D01*
X159554622Y-100087555D01*
X159559232Y-100078507D01*
X159607205Y-100027709D01*
X159675025Y-100010912D01*
X159741161Y-100033447D01*
X159780204Y-100078504D01*
X159784949Y-100087817D01*
X159909890Y-100259786D01*
X160060213Y-100410109D01*
X160232182Y-100535050D01*
X160240946Y-100539516D01*
X160291742Y-100587491D01*
X160308536Y-100655312D01*
X160285998Y-100721447D01*
X160240946Y-100760484D01*
X160232182Y-100764949D01*
X160060213Y-100889890D01*
X159909890Y-101040213D01*
X159784949Y-101212182D01*
X159780484Y-101220946D01*
X159732509Y-101271742D01*
X159664688Y-101288536D01*
X159598553Y-101265998D01*
X159559516Y-101220946D01*
X159555050Y-101212182D01*
X159430109Y-101040213D01*
X159279786Y-100889890D01*
X159107817Y-100764949D01*
X159098504Y-100760204D01*
X159047707Y-100712230D01*
X159030912Y-100644409D01*
X159053449Y-100578274D01*
X159098507Y-100539232D01*
X159107555Y-100534622D01*
X159161716Y-100495270D01*
X159161717Y-100495270D01*
X158529408Y-99862962D01*
X158592993Y-99845925D01*
X158707007Y-99780099D01*
X158800099Y-99687007D01*
X158865925Y-99572993D01*
X158882962Y-99509408D01*
X159515270Y-100141717D01*
G37*
%TD.AperFunction*%
%TA.AperFunction,Conductor*%
G36*
X159741444Y-97493999D02*
G01*
X159780486Y-97539056D01*
X159784951Y-97547820D01*
X159909890Y-97719786D01*
X160060213Y-97870109D01*
X160232182Y-97995050D01*
X160240946Y-97999516D01*
X160291742Y-98047491D01*
X160308536Y-98115312D01*
X160285998Y-98181447D01*
X160240946Y-98220484D01*
X160232182Y-98224949D01*
X160060213Y-98349890D01*
X159909890Y-98500213D01*
X159784949Y-98672182D01*
X159780202Y-98681499D01*
X159732227Y-98732293D01*
X159664405Y-98749087D01*
X159598271Y-98726548D01*
X159559234Y-98681495D01*
X159554626Y-98672452D01*
X159515270Y-98618282D01*
X159515269Y-98618282D01*
X158882962Y-99250590D01*
X158865925Y-99187007D01*
X158800099Y-99072993D01*
X158707007Y-98979901D01*
X158592993Y-98914075D01*
X158529409Y-98897037D01*
X159161716Y-98264728D01*
X159107547Y-98225373D01*
X159107547Y-98225372D01*
X159098500Y-98220763D01*
X159047706Y-98172788D01*
X159030912Y-98104966D01*
X159053451Y-98038832D01*
X159098508Y-97999793D01*
X159107816Y-97995051D01*
X159187007Y-97937515D01*
X159279786Y-97870109D01*
X159279788Y-97870106D01*
X159279792Y-97870104D01*
X159430104Y-97719792D01*
X159430106Y-97719788D01*
X159430109Y-97719786D01*
X159555048Y-97547820D01*
X159555047Y-97547820D01*
X159555051Y-97547816D01*
X159559514Y-97539054D01*
X159607488Y-97488259D01*
X159675308Y-97471463D01*
X159741444Y-97493999D01*
G37*
%TD.AperFunction*%
%TA.AperFunction,Conductor*%
G36*
X150618039Y-89995185D02*
G01*
X150663794Y-90047989D01*
X150675000Y-90099500D01*
X150675000Y-90460000D01*
X151637500Y-90460000D01*
X151637500Y-90099500D01*
X151657185Y-90032461D01*
X151709989Y-89986706D01*
X151761500Y-89975500D01*
X152013500Y-89975500D01*
X152080539Y-89995185D01*
X152126294Y-90047989D01*
X152137500Y-90099500D01*
X152137500Y-90460000D01*
X153100000Y-90460000D01*
X153100000Y-90099500D01*
X153119685Y-90032461D01*
X153172489Y-89986706D01*
X153224000Y-89975500D01*
X153568837Y-89975500D01*
X153635876Y-89995185D01*
X153656518Y-90011819D01*
X157038747Y-93394048D01*
X157072232Y-93455371D01*
X157068772Y-93520733D01*
X157060001Y-93547201D01*
X157049500Y-93649983D01*
X157049500Y-94234836D01*
X157029815Y-94301875D01*
X156977011Y-94347630D01*
X156907853Y-94357574D01*
X156844297Y-94328549D01*
X156837819Y-94322517D01*
X156689609Y-94174307D01*
X156689605Y-94174304D01*
X156578975Y-94100383D01*
X156578965Y-94100378D01*
X156456036Y-94049459D01*
X156456028Y-94049457D01*
X156325535Y-94023500D01*
X156325531Y-94023500D01*
X153224000Y-94023500D01*
X153156961Y-94003815D01*
X153111206Y-93951011D01*
X153100000Y-93899500D01*
X153100000Y-93560000D01*
X152137500Y-93560000D01*
X152137500Y-93899500D01*
X152117815Y-93966539D01*
X152065011Y-94012294D01*
X152013500Y-94023500D01*
X151761500Y-94023500D01*
X151694461Y-94003815D01*
X151648706Y-93951011D01*
X151637500Y-93899500D01*
X151637500Y-93560000D01*
X150675000Y-93560000D01*
X150675000Y-93899500D01*
X150655315Y-93966539D01*
X150602511Y-94012294D01*
X150551000Y-94023500D01*
X150249500Y-94023500D01*
X150182461Y-94003815D01*
X150136706Y-93951011D01*
X150125500Y-93899500D01*
X150125500Y-92634997D01*
X150125499Y-92634984D01*
X150114999Y-92532204D01*
X150114999Y-92532203D01*
X150059814Y-92365666D01*
X150045532Y-92342512D01*
X149967713Y-92216348D01*
X149967710Y-92216344D01*
X149849047Y-92097681D01*
X149815562Y-92036358D01*
X149820546Y-91966666D01*
X149849047Y-91922319D01*
X149881581Y-91889785D01*
X149967711Y-91803655D01*
X150059814Y-91654334D01*
X150114999Y-91487797D01*
X150125500Y-91385008D01*
X150125500Y-91384985D01*
X150675000Y-91384985D01*
X150685493Y-91487689D01*
X150685494Y-91487696D01*
X150740641Y-91654118D01*
X150740643Y-91654123D01*
X150832684Y-91803344D01*
X150951659Y-91922319D01*
X150985144Y-91983642D01*
X150980160Y-92053334D01*
X150951659Y-92097681D01*
X150832684Y-92216655D01*
X150740643Y-92365876D01*
X150740641Y-92365881D01*
X150685494Y-92532303D01*
X150685493Y-92532310D01*
X150675000Y-92635014D01*
X150675000Y-93060000D01*
X151637500Y-93060000D01*
X152137500Y-93060000D01*
X153100000Y-93060000D01*
X153100000Y-92635027D01*
X153099999Y-92635014D01*
X153089506Y-92532310D01*
X153089505Y-92532303D01*
X153034358Y-92365881D01*
X153034356Y-92365876D01*
X152942315Y-92216655D01*
X152823341Y-92097681D01*
X152789856Y-92036358D01*
X152794840Y-91966666D01*
X152823341Y-91922319D01*
X152942315Y-91803344D01*
X153034356Y-91654123D01*
X153034358Y-91654118D01*
X153089505Y-91487696D01*
X153089506Y-91487689D01*
X153099999Y-91384985D01*
X153100000Y-91384972D01*
X153100000Y-90960000D01*
X152137500Y-90960000D01*
X152137500Y-93060000D01*
X151637500Y-93060000D01*
X151637500Y-90960000D01*
X150675000Y-90960000D01*
X150675000Y-91384985D01*
X150125500Y-91384985D01*
X150125500Y-90099500D01*
X150145185Y-90032461D01*
X150197989Y-89986706D01*
X150249500Y-89975500D01*
X150551000Y-89975500D01*
X150618039Y-89995185D01*
G37*
%TD.AperFunction*%
%TA.AperFunction,Conductor*%
G36*
X164442539Y-80520185D02*
G01*
X164488294Y-80572989D01*
X164499500Y-80624500D01*
X164499500Y-119375500D01*
X164479815Y-119442539D01*
X164427011Y-119488294D01*
X164375500Y-119499500D01*
X135624500Y-119499500D01*
X135557461Y-119479815D01*
X135511706Y-119427011D01*
X135500500Y-119375500D01*
X135500500Y-115578711D01*
X157849500Y-115578711D01*
X157849500Y-115821288D01*
X157881161Y-116061785D01*
X157943947Y-116296104D01*
X158036773Y-116520205D01*
X158036776Y-116520212D01*
X158158064Y-116730289D01*
X158158066Y-116730292D01*
X158158067Y-116730293D01*
X158305733Y-116922736D01*
X158305739Y-116922743D01*
X158477256Y-117094260D01*
X158477262Y-117094265D01*
X158669711Y-117241936D01*
X158879788Y-117363224D01*
X159103900Y-117456054D01*
X159338211Y-117518838D01*
X159518586Y-117542584D01*
X159578711Y-117550500D01*
X159578712Y-117550500D01*
X159821289Y-117550500D01*
X159869388Y-117544167D01*
X160061789Y-117518838D01*
X160296100Y-117456054D01*
X160520212Y-117363224D01*
X160730289Y-117241936D01*
X160922738Y-117094265D01*
X161094265Y-116922738D01*
X161241936Y-116730289D01*
X161363224Y-116520212D01*
X161456054Y-116296100D01*
X161518838Y-116061789D01*
X161550500Y-115821288D01*
X161550500Y-115578712D01*
X161518838Y-115338211D01*
X161456054Y-115103900D01*
X161363224Y-114879788D01*
X161241936Y-114669711D01*
X161094265Y-114477262D01*
X161094260Y-114477256D01*
X160922743Y-114305739D01*
X160922736Y-114305733D01*
X160730293Y-114158067D01*
X160730292Y-114158066D01*
X160730289Y-114158064D01*
X160520212Y-114036776D01*
X160520205Y-114036773D01*
X160296104Y-113943947D01*
X160061785Y-113881161D01*
X159821289Y-113849500D01*
X159821288Y-113849500D01*
X159578712Y-113849500D01*
X159578711Y-113849500D01*
X159338214Y-113881161D01*
X159103895Y-113943947D01*
X158879794Y-114036773D01*
X158879785Y-114036777D01*
X158669706Y-114158067D01*
X158477263Y-114305733D01*
X158477256Y-114305739D01*
X158305739Y-114477256D01*
X158305733Y-114477263D01*
X158158067Y-114669706D01*
X158036777Y-114879785D01*
X158036773Y-114879794D01*
X157943947Y-115103895D01*
X157881161Y-115338214D01*
X157849500Y-115578711D01*
X135500500Y-115578711D01*
X135500500Y-87572135D01*
X136149500Y-87572135D01*
X136149500Y-89367870D01*
X136149501Y-89367876D01*
X136155908Y-89427483D01*
X136206202Y-89562328D01*
X136206206Y-89562335D01*
X136292452Y-89677544D01*
X136292455Y-89677547D01*
X136407664Y-89763793D01*
X136407671Y-89763797D01*
X136539082Y-89812810D01*
X136595016Y-89854681D01*
X136619433Y-89920145D01*
X136604582Y-89988418D01*
X136583431Y-90016673D01*
X136469889Y-90130215D01*
X136344951Y-90302179D01*
X136248444Y-90491585D01*
X136182753Y-90693760D01*
X136149500Y-90903713D01*
X136149500Y-91116287D01*
X136182754Y-91326243D01*
X136235246Y-91487797D01*
X136248444Y-91528414D01*
X136344951Y-91717820D01*
X136469890Y-91889786D01*
X136620213Y-92040109D01*
X136792182Y-92165050D01*
X136800946Y-92169516D01*
X136851742Y-92217491D01*
X136868536Y-92285312D01*
X136845998Y-92351447D01*
X136800946Y-92390484D01*
X136792182Y-92394949D01*
X136620213Y-92519890D01*
X136469890Y-92670213D01*
X136344951Y-92842179D01*
X136248444Y-93031585D01*
X136182753Y-93233760D01*
X136177031Y-93269890D01*
X136149500Y-93443713D01*
X136149500Y-93656287D01*
X136182754Y-93866243D01*
X136230952Y-94014581D01*
X136248444Y-94068414D01*
X136344951Y-94257820D01*
X136469890Y-94429786D01*
X136620213Y-94580109D01*
X136792182Y-94705050D01*
X136800946Y-94709516D01*
X136851742Y-94757491D01*
X136868536Y-94825312D01*
X136845998Y-94891447D01*
X136800946Y-94930484D01*
X136792182Y-94934949D01*
X136620213Y-95059890D01*
X136469890Y-95210213D01*
X136344951Y-95382179D01*
X136248444Y-95571585D01*
X136248443Y-95571587D01*
X136248443Y-95571588D01*
X136226215Y-95639999D01*
X136182753Y-95773760D01*
X136177594Y-95806334D01*
X136149500Y-95983713D01*
X136149500Y-96196287D01*
X136182754Y-96406243D01*
X136193601Y-96439628D01*
X136248444Y-96608414D01*
X136344951Y-96797820D01*
X136469890Y-96969786D01*
X136620213Y-97120109D01*
X136792179Y-97245048D01*
X136792181Y-97245049D01*
X136792184Y-97245051D01*
X136801493Y-97249794D01*
X136852290Y-97297766D01*
X136869087Y-97365587D01*
X136846552Y-97431722D01*
X136801505Y-97470760D01*
X136792446Y-97475376D01*
X136792440Y-97475380D01*
X136738282Y-97514727D01*
X136738282Y-97514728D01*
X137370591Y-98147037D01*
X137307007Y-98164075D01*
X137192993Y-98229901D01*
X137099901Y-98322993D01*
X137034075Y-98437007D01*
X137017037Y-98500591D01*
X136384728Y-97868282D01*
X136384727Y-97868282D01*
X136345380Y-97922439D01*
X136248904Y-98111782D01*
X136183242Y-98313869D01*
X136183242Y-98313872D01*
X136150000Y-98523753D01*
X136150000Y-98736246D01*
X136183242Y-98946127D01*
X136183242Y-98946130D01*
X136248904Y-99148217D01*
X136345375Y-99337550D01*
X136384728Y-99391716D01*
X137017037Y-98759408D01*
X137034075Y-98822993D01*
X137099901Y-98937007D01*
X137192993Y-99030099D01*
X137307007Y-99095925D01*
X137370590Y-99112962D01*
X136738282Y-99745269D01*
X136738282Y-99745270D01*
X136792452Y-99784626D01*
X136792451Y-99784626D01*
X136801495Y-99789234D01*
X136852292Y-99837208D01*
X136869087Y-99905029D01*
X136846550Y-99971164D01*
X136801499Y-100010202D01*
X136792182Y-100014949D01*
X136620213Y-100139890D01*
X136469890Y-100290213D01*
X136344951Y-100462179D01*
X136248444Y-100651585D01*
X136248443Y-100651587D01*
X136248443Y-100651588D01*
X136225836Y-100721164D01*
X136182753Y-100853760D01*
X136149500Y-101063713D01*
X136149500Y-101276286D01*
X136182753Y-101486239D01*
X136248444Y-101688414D01*
X136344951Y-101877820D01*
X136469890Y-102049786D01*
X136620213Y-102200109D01*
X136792182Y-102325050D01*
X136800946Y-102329516D01*
X136851742Y-102377491D01*
X136868536Y-102445312D01*
X136845998Y-102511447D01*
X136800946Y-102550484D01*
X136792182Y-102554949D01*
X136620213Y-102679890D01*
X136469890Y-102830213D01*
X136344951Y-103002179D01*
X136248444Y-103191585D01*
X136248443Y-103191587D01*
X136248443Y-103191588D01*
X136225744Y-103261447D01*
X136182753Y-103393760D01*
X136149500Y-103603713D01*
X136149500Y-103816286D01*
X136182753Y-104026239D01*
X136248444Y-104228414D01*
X136344951Y-104417820D01*
X136469890Y-104589786D01*
X136620213Y-104740109D01*
X136792182Y-104865050D01*
X136800946Y-104869516D01*
X136851742Y-104917491D01*
X136868536Y-104985312D01*
X136845998Y-105051447D01*
X136800946Y-105090484D01*
X136792182Y-105094949D01*
X136620213Y-105219890D01*
X136469890Y-105370213D01*
X136344951Y-105542179D01*
X136248444Y-105731585D01*
X136182753Y-105933760D01*
X136149500Y-106143713D01*
X136149500Y-106356286D01*
X136182753Y-106566239D01*
X136248444Y-106768414D01*
X136344951Y-106957820D01*
X136469890Y-107129786D01*
X136620213Y-107280109D01*
X136792182Y-107405050D01*
X136800946Y-107409516D01*
X136851742Y-107457491D01*
X136868536Y-107525312D01*
X136845998Y-107591447D01*
X136800946Y-107630484D01*
X136792182Y-107634949D01*
X136620213Y-107759890D01*
X136469890Y-107910213D01*
X136344951Y-108082179D01*
X136248444Y-108271585D01*
X136182753Y-108473760D01*
X136149500Y-108683713D01*
X136149500Y-108896286D01*
X136182753Y-109106239D01*
X136248444Y-109308414D01*
X136344951Y-109497820D01*
X136469890Y-109669786D01*
X136620213Y-109820109D01*
X136792182Y-109945050D01*
X136800946Y-109949516D01*
X136851742Y-109997491D01*
X136868536Y-110065312D01*
X136845998Y-110131447D01*
X136800946Y-110170484D01*
X136792182Y-110174949D01*
X136620213Y-110299890D01*
X136469890Y-110450213D01*
X136344951Y-110622179D01*
X136248444Y-110811585D01*
X136182753Y-111013760D01*
X136149500Y-111223713D01*
X136149500Y-111436286D01*
X136182753Y-111646239D01*
X136248444Y-111848414D01*
X136344951Y-112037820D01*
X136469890Y-112209786D01*
X136620213Y-112360109D01*
X136792179Y-112485048D01*
X136792181Y-112485049D01*
X136792184Y-112485051D01*
X136981588Y-112581557D01*
X137183757Y-112647246D01*
X137393713Y-112680500D01*
X137393714Y-112680500D01*
X137606286Y-112680500D01*
X137606287Y-112680500D01*
X137816243Y-112647246D01*
X138018412Y-112581557D01*
X138207816Y-112485051D01*
X138229789Y-112469086D01*
X138379786Y-112360109D01*
X138379788Y-112360106D01*
X138379792Y-112360104D01*
X138530104Y-112209792D01*
X138537666Y-112199382D01*
X138641394Y-112056615D01*
X138696724Y-112013949D01*
X138741712Y-112005500D01*
X141630501Y-112005500D01*
X141697540Y-112025185D01*
X141743295Y-112077989D01*
X141754501Y-112129500D01*
X141754501Y-112565018D01*
X141765000Y-112667796D01*
X141765001Y-112667799D01*
X141820185Y-112834331D01*
X141820187Y-112834336D01*
X141826356Y-112844337D01*
X141912288Y-112983656D01*
X142036344Y-113107712D01*
X142185666Y-113199814D01*
X142352203Y-113254999D01*
X142454991Y-113265500D01*
X143355008Y-113265499D01*
X143355016Y-113265498D01*
X143355019Y-113265498D01*
X143411302Y-113259748D01*
X143457797Y-113254999D01*
X143624334Y-113199814D01*
X143773656Y-113107712D01*
X143897712Y-112983656D01*
X143989814Y-112834334D01*
X144044999Y-112667797D01*
X144055500Y-112565009D01*
X144055499Y-111214992D01*
X144044999Y-111112203D01*
X143989814Y-110945666D01*
X143897712Y-110796344D01*
X143783795Y-110682427D01*
X143750310Y-110621104D01*
X143755294Y-110551412D01*
X143797166Y-110495479D01*
X143806381Y-110489207D01*
X143808222Y-110488072D01*
X143873656Y-110447712D01*
X143997712Y-110323656D01*
X144089814Y-110174334D01*
X144144999Y-110007797D01*
X144155500Y-109905009D01*
X144155499Y-109086162D01*
X144175183Y-109019124D01*
X144191818Y-108998482D01*
X144678482Y-108511819D01*
X144705409Y-108497115D01*
X144731228Y-108480523D01*
X144737428Y-108479631D01*
X144739805Y-108478334D01*
X144766163Y-108475500D01*
X144830500Y-108475500D01*
X144897539Y-108495185D01*
X144943294Y-108547989D01*
X144954500Y-108599500D01*
X144954500Y-109905001D01*
X144954501Y-109905018D01*
X144965000Y-110007796D01*
X144965001Y-110007799D01*
X145020185Y-110174331D01*
X145020187Y-110174336D01*
X145055069Y-110230888D01*
X145106119Y-110313655D01*
X145112289Y-110323657D01*
X145226204Y-110437572D01*
X145259689Y-110498895D01*
X145254705Y-110568587D01*
X145212833Y-110624520D01*
X145203620Y-110630791D01*
X145136347Y-110672285D01*
X145136343Y-110672288D01*
X145012289Y-110796342D01*
X144920187Y-110945663D01*
X144920185Y-110945668D01*
X144916801Y-110955881D01*
X144865001Y-111112203D01*
X144865001Y-111112204D01*
X144865000Y-111112204D01*
X144854500Y-111214983D01*
X144854500Y-112565001D01*
X144854501Y-112565018D01*
X144865000Y-112667796D01*
X144865001Y-112667799D01*
X144920185Y-112834331D01*
X144920187Y-112834336D01*
X144926356Y-112844337D01*
X145012288Y-112983656D01*
X145136344Y-113107712D01*
X145285666Y-113199814D01*
X145452203Y-113254999D01*
X145554991Y-113265500D01*
X146455008Y-113265499D01*
X146455016Y-113265498D01*
X146455019Y-113265498D01*
X146511302Y-113259748D01*
X146557797Y-113254999D01*
X146724334Y-113199814D01*
X146873656Y-113107712D01*
X146997712Y-112983656D01*
X147089814Y-112834334D01*
X147144999Y-112667797D01*
X147144999Y-112667793D01*
X147145912Y-112663533D01*
X147179199Y-112602102D01*
X147240414Y-112568419D01*
X147267163Y-112565500D01*
X147586551Y-112565500D01*
X147653590Y-112585185D01*
X147699345Y-112637989D01*
X147708367Y-112671219D01*
X147708583Y-112671173D01*
X147709432Y-112675142D01*
X147709909Y-112676896D01*
X147710000Y-112677795D01*
X147710001Y-112677796D01*
X147765186Y-112844335D01*
X147765187Y-112844337D01*
X147857286Y-112993651D01*
X147857289Y-112993655D01*
X147981344Y-113117710D01*
X147981348Y-113117713D01*
X148130662Y-113209812D01*
X148130664Y-113209813D01*
X148130666Y-113209814D01*
X148297203Y-113264999D01*
X148399992Y-113275500D01*
X148399997Y-113275500D01*
X149425003Y-113275500D01*
X149425008Y-113275500D01*
X149527797Y-113264999D01*
X149694334Y-113209814D01*
X149843655Y-113117711D01*
X149967711Y-112993655D01*
X150059814Y-112844334D01*
X150114999Y-112677797D01*
X150125500Y-112575008D01*
X150125500Y-112574985D01*
X150675000Y-112574985D01*
X150685493Y-112677689D01*
X150685494Y-112677696D01*
X150740641Y-112844118D01*
X150740643Y-112844123D01*
X150832684Y-112993344D01*
X150956655Y-113117315D01*
X151105876Y-113209356D01*
X151105881Y-113209358D01*
X151272303Y-113264505D01*
X151272310Y-113264506D01*
X151375014Y-113274999D01*
X151375027Y-113275000D01*
X151637500Y-113275000D01*
X152137500Y-113275000D01*
X152399973Y-113275000D01*
X152399985Y-113274999D01*
X152502689Y-113264506D01*
X152502696Y-113264505D01*
X152669118Y-113209358D01*
X152669123Y-113209356D01*
X152818344Y-113117315D01*
X152942315Y-112993344D01*
X153034356Y-112844123D01*
X153034358Y-112844118D01*
X153089505Y-112677696D01*
X153089506Y-112677689D01*
X153099999Y-112574985D01*
X153100000Y-112574972D01*
X153100000Y-112150000D01*
X152137500Y-112150000D01*
X152137500Y-113275000D01*
X151637500Y-113275000D01*
X151637500Y-112150000D01*
X150675000Y-112150000D01*
X150675000Y-112574985D01*
X150125500Y-112574985D01*
X150125500Y-111225014D01*
X150675000Y-111225014D01*
X150675000Y-111650000D01*
X151637500Y-111650000D01*
X151637500Y-110725000D01*
X152137500Y-110725000D01*
X152137500Y-111650000D01*
X153100000Y-111650000D01*
X153100000Y-111225027D01*
X153099999Y-111225014D01*
X153089506Y-111122310D01*
X153089505Y-111122303D01*
X153034358Y-110955881D01*
X153034356Y-110955876D01*
X152942315Y-110806655D01*
X152815624Y-110679964D01*
X152782139Y-110618641D01*
X152787123Y-110548949D01*
X152828995Y-110493016D01*
X152838208Y-110486744D01*
X152918344Y-110437315D01*
X153042315Y-110313344D01*
X153134356Y-110164123D01*
X153134358Y-110164118D01*
X153189505Y-109997696D01*
X153189506Y-109997689D01*
X153199999Y-109894985D01*
X153200000Y-109894972D01*
X153200000Y-109470000D01*
X152237500Y-109470000D01*
X152237500Y-110601000D01*
X152217815Y-110668039D01*
X152165011Y-110713794D01*
X152144172Y-110718327D01*
X152137500Y-110725000D01*
X151637500Y-110725000D01*
X151637500Y-110519000D01*
X151657185Y-110451961D01*
X151709989Y-110406206D01*
X151730827Y-110401672D01*
X151737500Y-110395000D01*
X151737500Y-109470000D01*
X150775000Y-109470000D01*
X150775000Y-109894985D01*
X150785493Y-109997689D01*
X150785494Y-109997696D01*
X150840641Y-110164118D01*
X150840643Y-110164123D01*
X150932684Y-110313344D01*
X151059375Y-110440035D01*
X151092860Y-110501358D01*
X151087876Y-110571050D01*
X151046004Y-110626983D01*
X151036792Y-110633254D01*
X150956657Y-110682682D01*
X150832684Y-110806655D01*
X150740643Y-110955876D01*
X150740641Y-110955881D01*
X150685494Y-111122303D01*
X150685493Y-111122310D01*
X150675000Y-111225014D01*
X150125500Y-111225014D01*
X150125500Y-111224992D01*
X150114999Y-111122203D01*
X150059814Y-110955666D01*
X150053647Y-110945668D01*
X149967713Y-110806348D01*
X149967710Y-110806344D01*
X149841423Y-110680057D01*
X149807938Y-110618734D01*
X149812922Y-110549042D01*
X149854794Y-110493109D01*
X149863988Y-110486850D01*
X149943655Y-110437711D01*
X150067711Y-110313655D01*
X150159814Y-110164334D01*
X150214999Y-109997797D01*
X150225500Y-109895008D01*
X150225500Y-108599500D01*
X150245185Y-108532461D01*
X150297989Y-108486706D01*
X150349500Y-108475500D01*
X150651000Y-108475500D01*
X150718039Y-108495185D01*
X150763794Y-108547989D01*
X150775000Y-108599500D01*
X150775000Y-108970000D01*
X151737500Y-108970000D01*
X151737500Y-108599500D01*
X151757185Y-108532461D01*
X151809989Y-108486706D01*
X151861500Y-108475500D01*
X152113500Y-108475500D01*
X152180539Y-108495185D01*
X152226294Y-108547989D01*
X152237500Y-108599500D01*
X152237500Y-108970000D01*
X153200000Y-108970000D01*
X153200000Y-108599500D01*
X153219685Y-108532461D01*
X153272489Y-108486706D01*
X153324000Y-108475500D01*
X155066532Y-108475500D01*
X155066533Y-108475499D01*
X155197036Y-108449541D01*
X155319969Y-108398620D01*
X155430606Y-108324695D01*
X157950247Y-105805052D01*
X158011568Y-105771569D01*
X158076246Y-105774805D01*
X158083757Y-105777246D01*
X158293713Y-105810500D01*
X158293714Y-105810500D01*
X158506286Y-105810500D01*
X158506287Y-105810500D01*
X158716243Y-105777246D01*
X158918412Y-105711557D01*
X159107816Y-105615051D01*
X159190006Y-105555337D01*
X159279786Y-105490109D01*
X159279788Y-105490106D01*
X159279792Y-105490104D01*
X159430104Y-105339792D01*
X159430106Y-105339788D01*
X159430109Y-105339786D01*
X159555048Y-105167820D01*
X159555047Y-105167820D01*
X159555051Y-105167816D01*
X159559514Y-105159054D01*
X159607488Y-105108259D01*
X159675308Y-105091463D01*
X159741444Y-105113999D01*
X159780486Y-105159056D01*
X159784951Y-105167820D01*
X159909890Y-105339786D01*
X160060213Y-105490109D01*
X160232179Y-105615048D01*
X160232181Y-105615049D01*
X160232184Y-105615051D01*
X160421588Y-105711557D01*
X160623757Y-105777246D01*
X160833713Y-105810500D01*
X160833714Y-105810500D01*
X161046286Y-105810500D01*
X161046287Y-105810500D01*
X161256243Y-105777246D01*
X161458412Y-105711557D01*
X161647816Y-105615051D01*
X161730006Y-105555337D01*
X161819786Y-105490109D01*
X161819788Y-105490106D01*
X161819792Y-105490104D01*
X161970104Y-105339792D01*
X161970106Y-105339788D01*
X161970109Y-105339786D01*
X162095048Y-105167820D01*
X162095047Y-105167820D01*
X162095051Y-105167816D01*
X162191557Y-104978412D01*
X162257246Y-104776243D01*
X162290500Y-104566287D01*
X162290500Y-104353713D01*
X162257246Y-104143757D01*
X162191557Y-103941588D01*
X162095051Y-103752184D01*
X162095049Y-103752181D01*
X162095048Y-103752179D01*
X161970109Y-103580213D01*
X161819786Y-103429890D01*
X161647820Y-103304951D01*
X161647115Y-103304591D01*
X161639054Y-103300485D01*
X161588259Y-103252512D01*
X161571463Y-103184692D01*
X161593999Y-103118556D01*
X161639054Y-103079515D01*
X161647816Y-103075051D01*
X161704632Y-103033772D01*
X161819786Y-102950109D01*
X161819788Y-102950106D01*
X161819792Y-102950104D01*
X161970104Y-102799792D01*
X161970106Y-102799788D01*
X161970109Y-102799786D01*
X162095048Y-102627820D01*
X162095047Y-102627820D01*
X162095051Y-102627816D01*
X162191557Y-102438412D01*
X162257246Y-102236243D01*
X162290500Y-102026287D01*
X162290500Y-101813713D01*
X162257246Y-101603757D01*
X162191557Y-101401588D01*
X162095051Y-101212184D01*
X162095049Y-101212181D01*
X162095048Y-101212179D01*
X161970109Y-101040213D01*
X161819786Y-100889890D01*
X161647820Y-100764951D01*
X161647115Y-100764591D01*
X161639054Y-100760485D01*
X161588259Y-100712512D01*
X161571463Y-100644692D01*
X161593999Y-100578556D01*
X161639054Y-100539515D01*
X161647816Y-100535051D01*
X161748110Y-100462184D01*
X161819786Y-100410109D01*
X161819788Y-100410106D01*
X161819792Y-100410104D01*
X161970104Y-100259792D01*
X161970106Y-100259788D01*
X161970109Y-100259786D01*
X162095048Y-100087820D01*
X162095050Y-100087817D01*
X162095051Y-100087816D01*
X162191557Y-99898412D01*
X162257246Y-99696243D01*
X162290500Y-99486287D01*
X162290500Y-99273713D01*
X162257246Y-99063757D01*
X162191557Y-98861588D01*
X162095051Y-98672184D01*
X162095049Y-98672181D01*
X162095048Y-98672179D01*
X161970109Y-98500213D01*
X161819786Y-98349890D01*
X161647820Y-98224951D01*
X161639600Y-98220763D01*
X161639054Y-98220485D01*
X161588259Y-98172512D01*
X161571463Y-98104692D01*
X161593999Y-98038556D01*
X161639054Y-97999515D01*
X161647816Y-97995051D01*
X161669789Y-97979086D01*
X161819786Y-97870109D01*
X161819788Y-97870106D01*
X161819792Y-97870104D01*
X161970104Y-97719792D01*
X161970106Y-97719788D01*
X161970109Y-97719786D01*
X162095048Y-97547820D01*
X162095047Y-97547820D01*
X162095051Y-97547816D01*
X162191557Y-97358412D01*
X162257246Y-97156243D01*
X162290500Y-96946287D01*
X162290500Y-96733713D01*
X162257246Y-96523757D01*
X162191557Y-96321588D01*
X162095051Y-96132184D01*
X162095049Y-96132181D01*
X162095048Y-96132179D01*
X161970109Y-95960213D01*
X161819786Y-95809890D01*
X161647820Y-95684951D01*
X161647115Y-95684591D01*
X161639054Y-95680485D01*
X161588259Y-95632512D01*
X161571463Y-95564692D01*
X161593999Y-95498556D01*
X161639054Y-95459515D01*
X161647816Y-95455051D01*
X161708697Y-95410819D01*
X161819786Y-95330109D01*
X161819788Y-95330106D01*
X161819792Y-95330104D01*
X161970104Y-95179792D01*
X161970106Y-95179788D01*
X161970109Y-95179786D01*
X162095048Y-95007820D01*
X162095047Y-95007820D01*
X162095051Y-95007816D01*
X162191557Y-94818412D01*
X162257246Y-94616243D01*
X162290500Y-94406287D01*
X162290500Y-94193713D01*
X162257246Y-93983757D01*
X162191557Y-93781588D01*
X162095051Y-93592184D01*
X162095049Y-93592181D01*
X162095048Y-93592179D01*
X161970109Y-93420213D01*
X161819786Y-93269890D01*
X161647820Y-93144951D01*
X161458414Y-93048444D01*
X161458413Y-93048443D01*
X161458412Y-93048443D01*
X161256243Y-92982754D01*
X161256241Y-92982753D01*
X161256240Y-92982753D01*
X161094957Y-92957208D01*
X161046287Y-92949500D01*
X160833713Y-92949500D01*
X160785042Y-92957208D01*
X160623760Y-92982753D01*
X160421585Y-93048444D01*
X160232179Y-93144951D01*
X160060213Y-93269890D01*
X159909894Y-93420209D01*
X159909885Y-93420219D01*
X159906330Y-93425113D01*
X159850997Y-93467775D01*
X159781383Y-93473748D01*
X159719591Y-93441137D01*
X159688312Y-93391223D01*
X159684815Y-93380670D01*
X159684814Y-93380666D01*
X159592712Y-93231344D01*
X159468656Y-93107288D01*
X159319334Y-93015186D01*
X159152797Y-92960001D01*
X159152795Y-92960000D01*
X159050016Y-92949500D01*
X159050009Y-92949500D01*
X158556163Y-92949500D01*
X158489124Y-92929815D01*
X158468482Y-92913181D01*
X154330609Y-88775307D01*
X154330605Y-88775304D01*
X154219975Y-88701383D01*
X154219965Y-88701378D01*
X154097036Y-88650459D01*
X154097028Y-88650457D01*
X153966535Y-88624500D01*
X153966531Y-88624500D01*
X153224000Y-88624500D01*
X153156961Y-88604815D01*
X153111206Y-88552011D01*
X153100000Y-88500500D01*
X153100000Y-88150000D01*
X152137500Y-88150000D01*
X152137500Y-88500500D01*
X152117815Y-88567539D01*
X152065011Y-88613294D01*
X152013500Y-88624500D01*
X151761500Y-88624500D01*
X151694461Y-88604815D01*
X151648706Y-88552011D01*
X151637500Y-88500500D01*
X151637500Y-88150000D01*
X150675000Y-88150000D01*
X150675000Y-88500500D01*
X150655315Y-88567539D01*
X150602511Y-88613294D01*
X150551000Y-88624500D01*
X150249500Y-88624500D01*
X150182461Y-88604815D01*
X150136706Y-88552011D01*
X150125500Y-88500500D01*
X150125500Y-87225014D01*
X150675000Y-87225014D01*
X150675000Y-87650000D01*
X151637500Y-87650000D01*
X152137500Y-87650000D01*
X153100000Y-87650000D01*
X153100000Y-87225027D01*
X153099999Y-87225014D01*
X153089506Y-87122310D01*
X153089505Y-87122303D01*
X153034358Y-86955881D01*
X153034356Y-86955876D01*
X152942315Y-86806655D01*
X152818344Y-86682684D01*
X152669123Y-86590643D01*
X152669118Y-86590641D01*
X152502696Y-86535494D01*
X152502689Y-86535493D01*
X152399985Y-86525000D01*
X152137500Y-86525000D01*
X152137500Y-87650000D01*
X151637500Y-87650000D01*
X151637500Y-86525000D01*
X151375014Y-86525000D01*
X151272310Y-86535493D01*
X151272303Y-86535494D01*
X151105881Y-86590641D01*
X151105876Y-86590643D01*
X150956655Y-86682684D01*
X150832684Y-86806655D01*
X150740643Y-86955876D01*
X150740641Y-86955881D01*
X150685494Y-87122303D01*
X150685493Y-87122310D01*
X150675000Y-87225014D01*
X150125500Y-87225014D01*
X150125500Y-87224997D01*
X150125499Y-87224984D01*
X150120515Y-87176202D01*
X150114999Y-87122203D01*
X150059814Y-86955666D01*
X150059813Y-86955664D01*
X150059812Y-86955662D01*
X149967713Y-86806348D01*
X149967710Y-86806344D01*
X149843655Y-86682289D01*
X149843651Y-86682286D01*
X149694337Y-86590187D01*
X149694335Y-86590186D01*
X149611065Y-86562593D01*
X149527797Y-86535001D01*
X149527795Y-86535000D01*
X149425015Y-86524500D01*
X149425008Y-86524500D01*
X148399992Y-86524500D01*
X148399984Y-86524500D01*
X148297204Y-86535000D01*
X148297203Y-86535001D01*
X148130664Y-86590186D01*
X148130662Y-86590187D01*
X147981348Y-86682286D01*
X147981344Y-86682289D01*
X147857289Y-86806344D01*
X147857286Y-86806348D01*
X147765187Y-86955662D01*
X147765186Y-86955664D01*
X147710001Y-87122203D01*
X147710000Y-87122205D01*
X147699693Y-87223102D01*
X147673297Y-87287794D01*
X147616116Y-87327946D01*
X147576335Y-87334500D01*
X147268664Y-87334500D01*
X147201625Y-87314815D01*
X147155870Y-87262011D01*
X147145306Y-87223101D01*
X147134999Y-87122203D01*
X147134998Y-87122200D01*
X147079885Y-86955881D01*
X147079814Y-86955666D01*
X146987712Y-86806344D01*
X146863656Y-86682288D01*
X146714334Y-86590186D01*
X146547797Y-86535001D01*
X146547795Y-86535000D01*
X146445010Y-86524500D01*
X145544998Y-86524500D01*
X145544980Y-86524501D01*
X145442203Y-86535000D01*
X145442200Y-86535001D01*
X145275668Y-86590185D01*
X145275663Y-86590187D01*
X145126342Y-86682289D01*
X145002289Y-86806342D01*
X144910187Y-86955663D01*
X144910185Y-86955668D01*
X144882349Y-87039670D01*
X144855001Y-87122203D01*
X144855001Y-87122204D01*
X144855000Y-87122204D01*
X144844500Y-87224983D01*
X144844500Y-87224996D01*
X144844501Y-88500500D01*
X144841950Y-88509185D01*
X144843239Y-88518147D01*
X144832260Y-88542187D01*
X144824816Y-88567539D01*
X144817975Y-88573466D01*
X144814214Y-88581703D01*
X144791981Y-88595990D01*
X144772013Y-88613294D01*
X144761497Y-88615581D01*
X144755436Y-88619477D01*
X144720501Y-88624500D01*
X144516163Y-88624500D01*
X144449124Y-88604815D01*
X144428482Y-88588181D01*
X144081818Y-88241517D01*
X144048333Y-88180194D01*
X144045499Y-88153836D01*
X144045499Y-87224998D01*
X144045498Y-87224981D01*
X144034999Y-87122203D01*
X144034998Y-87122200D01*
X143979885Y-86955881D01*
X143979814Y-86955666D01*
X143887712Y-86806344D01*
X143763656Y-86682288D01*
X143614334Y-86590186D01*
X143447797Y-86535001D01*
X143447795Y-86535000D01*
X143345010Y-86524500D01*
X142444998Y-86524500D01*
X142444980Y-86524501D01*
X142342203Y-86535000D01*
X142342200Y-86535001D01*
X142175668Y-86590185D01*
X142175663Y-86590187D01*
X142026342Y-86682289D01*
X141902289Y-86806342D01*
X141810187Y-86955663D01*
X141810185Y-86955668D01*
X141782349Y-87039670D01*
X141755001Y-87122203D01*
X141755001Y-87122204D01*
X141755000Y-87122204D01*
X141744500Y-87224983D01*
X141744500Y-87670500D01*
X141724815Y-87737539D01*
X141672011Y-87783294D01*
X141620500Y-87794500D01*
X138974499Y-87794500D01*
X138907460Y-87774815D01*
X138861705Y-87722011D01*
X138850499Y-87670500D01*
X138850499Y-87572129D01*
X138850498Y-87572123D01*
X138850497Y-87572116D01*
X138844091Y-87512517D01*
X138793796Y-87377669D01*
X138793795Y-87377668D01*
X138793793Y-87377664D01*
X138707547Y-87262455D01*
X138707544Y-87262452D01*
X138592335Y-87176206D01*
X138592328Y-87176202D01*
X138457482Y-87125908D01*
X138457483Y-87125908D01*
X138397883Y-87119501D01*
X138397881Y-87119500D01*
X138397873Y-87119500D01*
X138397864Y-87119500D01*
X136602129Y-87119500D01*
X136602123Y-87119501D01*
X136542516Y-87125908D01*
X136407671Y-87176202D01*
X136407664Y-87176206D01*
X136292455Y-87262452D01*
X136292452Y-87262455D01*
X136206206Y-87377664D01*
X136206202Y-87377671D01*
X136155908Y-87512517D01*
X136149501Y-87572116D01*
X136149501Y-87572123D01*
X136149500Y-87572135D01*
X135500500Y-87572135D01*
X135500500Y-83678711D01*
X157849500Y-83678711D01*
X157849500Y-83921288D01*
X157881161Y-84161785D01*
X157943947Y-84396104D01*
X158036773Y-84620205D01*
X158036776Y-84620212D01*
X158158064Y-84830289D01*
X158158066Y-84830292D01*
X158158067Y-84830293D01*
X158305733Y-85022736D01*
X158305739Y-85022743D01*
X158477256Y-85194260D01*
X158477262Y-85194265D01*
X158669711Y-85341936D01*
X158879788Y-85463224D01*
X159103900Y-85556054D01*
X159338211Y-85618838D01*
X159518586Y-85642584D01*
X159578711Y-85650500D01*
X159578712Y-85650500D01*
X159821289Y-85650500D01*
X159869388Y-85644167D01*
X160061789Y-85618838D01*
X160296100Y-85556054D01*
X160520212Y-85463224D01*
X160730289Y-85341936D01*
X160922738Y-85194265D01*
X161094265Y-85022738D01*
X161241936Y-84830289D01*
X161363224Y-84620212D01*
X161456054Y-84396100D01*
X161518838Y-84161789D01*
X161550500Y-83921288D01*
X161550500Y-83678712D01*
X161518838Y-83438211D01*
X161456054Y-83203900D01*
X161363224Y-82979788D01*
X161241936Y-82769711D01*
X161094265Y-82577262D01*
X161094260Y-82577256D01*
X160922743Y-82405739D01*
X160922736Y-82405733D01*
X160730293Y-82258067D01*
X160730292Y-82258066D01*
X160730289Y-82258064D01*
X160520212Y-82136776D01*
X160520205Y-82136773D01*
X160296104Y-82043947D01*
X160061785Y-81981161D01*
X159821289Y-81949500D01*
X159821288Y-81949500D01*
X159578712Y-81949500D01*
X159578711Y-81949500D01*
X159338214Y-81981161D01*
X159103895Y-82043947D01*
X158879794Y-82136773D01*
X158879785Y-82136777D01*
X158669706Y-82258067D01*
X158477263Y-82405733D01*
X158477256Y-82405739D01*
X158305739Y-82577256D01*
X158305733Y-82577263D01*
X158158067Y-82769706D01*
X158036777Y-82979785D01*
X158036773Y-82979794D01*
X157943947Y-83203895D01*
X157881161Y-83438214D01*
X157849500Y-83678711D01*
X135500500Y-83678711D01*
X135500500Y-80624500D01*
X135520185Y-80557461D01*
X135572989Y-80511706D01*
X135624500Y-80500500D01*
X164375500Y-80500500D01*
X164442539Y-80520185D01*
G37*
%TD.AperFunction*%
%TD*%
M02*
