M48
; DRILL file {KiCad 9.0.6} date 2026-04-14T15:06:20-0400
; FORMAT={-:-/ absolute / metric / decimal}
; #@! TF.CreationDate,2026-04-14T15:06:20-04:00
; #@! TF.GenerationSoftware,Kicad,Pcbnew,9.0.6
; #@! TF.FileFunction,Plated,1,2,PTH
FMAT,2
METRIC
; #@! TA.AperFunction,Plated,PTH,ComponentDrill
T1C1.000
%
G90
G05
T1
X144.39Y-81.24
X144.39Y-85.34
X144.39Y-89.44
X144.39Y-93.54
X144.39Y-97.74
X144.39Y-102.24
X144.39Y-106.54
X144.45Y-110.84
X146.93Y-81.24
X146.93Y-85.34
X146.93Y-89.44
X146.93Y-93.54
X146.93Y-97.74
X146.93Y-102.24
X146.93Y-106.54
X146.99Y-110.84
X149.47Y-81.24
X149.47Y-85.34
X149.47Y-89.44
X149.47Y-93.54
X149.47Y-97.74
X149.47Y-102.24
X149.47Y-106.54
X149.53Y-110.84
X152.01Y-81.24
X152.01Y-85.34
X152.01Y-89.44
X152.01Y-93.54
X152.01Y-97.74
X152.01Y-102.24
X152.01Y-106.54
X152.07Y-110.84
X159.16Y-90.74
X159.16Y-93.28
X159.16Y-95.82
X159.16Y-98.36
X159.16Y-100.9
X161.7Y-90.74
X161.7Y-93.28
X161.7Y-95.82
X161.7Y-98.36
X161.7Y-100.9
M30
