%TF.GenerationSoftware,KiCad,Pcbnew,(7.0.0)*%
%TF.CreationDate,2023-10-26T14:35:27-04:00*%
%TF.ProjectId,RibbonBreakout,52696262-6f6e-4427-9265-616b6f75742e,rev?*%
%TF.SameCoordinates,Original*%
%TF.FileFunction,Legend,Top*%
%TF.FilePolarity,Positive*%
%FSLAX46Y46*%
G04 Gerber Fmt 4.6, Leading zero omitted, Abs format (unit mm)*
G04 Created by KiCad (PCBNEW (7.0.0)) date 2023-10-26 14:35:27*
%MOMM*%
%LPD*%
G01*
G04 APERTURE LIST*
%ADD10C,0.100000*%
%ADD11C,0.150000*%
%ADD12C,0.120000*%
G04 APERTURE END LIST*
D10*
X146481904Y-78422571D02*
X146481904Y-78803523D01*
X146481904Y-78803523D02*
X145681904Y-78803523D01*
X146024761Y-77561619D02*
X145986666Y-77637809D01*
X145986666Y-77637809D02*
X145948571Y-77675904D01*
X145948571Y-77675904D02*
X145872380Y-77714000D01*
X145872380Y-77714000D02*
X145834285Y-77714000D01*
X145834285Y-77714000D02*
X145758095Y-77675904D01*
X145758095Y-77675904D02*
X145720000Y-77637809D01*
X145720000Y-77637809D02*
X145681904Y-77561619D01*
X145681904Y-77561619D02*
X145681904Y-77409238D01*
X145681904Y-77409238D02*
X145720000Y-77333047D01*
X145720000Y-77333047D02*
X145758095Y-77294952D01*
X145758095Y-77294952D02*
X145834285Y-77256857D01*
X145834285Y-77256857D02*
X145872380Y-77256857D01*
X145872380Y-77256857D02*
X145948571Y-77294952D01*
X145948571Y-77294952D02*
X145986666Y-77333047D01*
X145986666Y-77333047D02*
X146024761Y-77409238D01*
X146024761Y-77409238D02*
X146024761Y-77561619D01*
X146024761Y-77561619D02*
X146062857Y-77637809D01*
X146062857Y-77637809D02*
X146100952Y-77675904D01*
X146100952Y-77675904D02*
X146177142Y-77714000D01*
X146177142Y-77714000D02*
X146329523Y-77714000D01*
X146329523Y-77714000D02*
X146405714Y-77675904D01*
X146405714Y-77675904D02*
X146443809Y-77637809D01*
X146443809Y-77637809D02*
X146481904Y-77561619D01*
X146481904Y-77561619D02*
X146481904Y-77409238D01*
X146481904Y-77409238D02*
X146443809Y-77333047D01*
X146443809Y-77333047D02*
X146405714Y-77294952D01*
X146405714Y-77294952D02*
X146329523Y-77256857D01*
X146329523Y-77256857D02*
X146177142Y-77256857D01*
X146177142Y-77256857D02*
X146100952Y-77294952D01*
X146100952Y-77294952D02*
X146062857Y-77333047D01*
X146062857Y-77333047D02*
X146024761Y-77409238D01*
X149073904Y-78422571D02*
X149073904Y-78803523D01*
X149073904Y-78803523D02*
X148273904Y-78803523D01*
X148273904Y-77752095D02*
X148273904Y-77218761D01*
X148273904Y-77218761D02*
X149073904Y-77561619D01*
X151665904Y-78422571D02*
X151665904Y-78803523D01*
X151665904Y-78803523D02*
X150865904Y-78803523D01*
X150865904Y-77333047D02*
X150865904Y-77485428D01*
X150865904Y-77485428D02*
X150904000Y-77561619D01*
X150904000Y-77561619D02*
X150942095Y-77599714D01*
X150942095Y-77599714D02*
X151056380Y-77675904D01*
X151056380Y-77675904D02*
X151208761Y-77714000D01*
X151208761Y-77714000D02*
X151513523Y-77714000D01*
X151513523Y-77714000D02*
X151589714Y-77675904D01*
X151589714Y-77675904D02*
X151627809Y-77637809D01*
X151627809Y-77637809D02*
X151665904Y-77561619D01*
X151665904Y-77561619D02*
X151665904Y-77409238D01*
X151665904Y-77409238D02*
X151627809Y-77333047D01*
X151627809Y-77333047D02*
X151589714Y-77294952D01*
X151589714Y-77294952D02*
X151513523Y-77256857D01*
X151513523Y-77256857D02*
X151323047Y-77256857D01*
X151323047Y-77256857D02*
X151246857Y-77294952D01*
X151246857Y-77294952D02*
X151208761Y-77333047D01*
X151208761Y-77333047D02*
X151170666Y-77409238D01*
X151170666Y-77409238D02*
X151170666Y-77561619D01*
X151170666Y-77561619D02*
X151208761Y-77637809D01*
X151208761Y-77637809D02*
X151246857Y-77675904D01*
X151246857Y-77675904D02*
X151323047Y-77714000D01*
X154257904Y-78422571D02*
X154257904Y-78803523D01*
X154257904Y-78803523D02*
X153457904Y-78803523D01*
X153457904Y-77294952D02*
X153457904Y-77675904D01*
X153457904Y-77675904D02*
X153838857Y-77714000D01*
X153838857Y-77714000D02*
X153800761Y-77675904D01*
X153800761Y-77675904D02*
X153762666Y-77599714D01*
X153762666Y-77599714D02*
X153762666Y-77409238D01*
X153762666Y-77409238D02*
X153800761Y-77333047D01*
X153800761Y-77333047D02*
X153838857Y-77294952D01*
X153838857Y-77294952D02*
X153915047Y-77256857D01*
X153915047Y-77256857D02*
X154105523Y-77256857D01*
X154105523Y-77256857D02*
X154181714Y-77294952D01*
X154181714Y-77294952D02*
X154219809Y-77333047D01*
X154219809Y-77333047D02*
X154257904Y-77409238D01*
X154257904Y-77409238D02*
X154257904Y-77599714D01*
X154257904Y-77599714D02*
X154219809Y-77675904D01*
X154219809Y-77675904D02*
X154181714Y-77714000D01*
X162153523Y-96952000D02*
X162077333Y-96913904D01*
X162077333Y-96913904D02*
X161963047Y-96913904D01*
X161963047Y-96913904D02*
X161848761Y-96952000D01*
X161848761Y-96952000D02*
X161772571Y-97028190D01*
X161772571Y-97028190D02*
X161734476Y-97104380D01*
X161734476Y-97104380D02*
X161696380Y-97256761D01*
X161696380Y-97256761D02*
X161696380Y-97371047D01*
X161696380Y-97371047D02*
X161734476Y-97523428D01*
X161734476Y-97523428D02*
X161772571Y-97599619D01*
X161772571Y-97599619D02*
X161848761Y-97675809D01*
X161848761Y-97675809D02*
X161963047Y-97713904D01*
X161963047Y-97713904D02*
X162039238Y-97713904D01*
X162039238Y-97713904D02*
X162153523Y-97675809D01*
X162153523Y-97675809D02*
X162191619Y-97637714D01*
X162191619Y-97637714D02*
X162191619Y-97371047D01*
X162191619Y-97371047D02*
X162039238Y-97371047D01*
X162534476Y-97713904D02*
X162534476Y-96913904D01*
X162534476Y-96913904D02*
X162991619Y-97713904D01*
X162991619Y-97713904D02*
X162991619Y-96913904D01*
X163372571Y-97713904D02*
X163372571Y-96913904D01*
X163372571Y-96913904D02*
X163563047Y-96913904D01*
X163563047Y-96913904D02*
X163677333Y-96952000D01*
X163677333Y-96952000D02*
X163753523Y-97028190D01*
X163753523Y-97028190D02*
X163791618Y-97104380D01*
X163791618Y-97104380D02*
X163829714Y-97256761D01*
X163829714Y-97256761D02*
X163829714Y-97371047D01*
X163829714Y-97371047D02*
X163791618Y-97523428D01*
X163791618Y-97523428D02*
X163753523Y-97599619D01*
X163753523Y-97599619D02*
X163677333Y-97675809D01*
X163677333Y-97675809D02*
X163563047Y-97713904D01*
X163563047Y-97713904D02*
X163372571Y-97713904D01*
X161734476Y-100001142D02*
X162344000Y-100001142D01*
X162039238Y-100305904D02*
X162039238Y-99696380D01*
X163105904Y-99505904D02*
X162724952Y-99505904D01*
X162724952Y-99505904D02*
X162686856Y-99886857D01*
X162686856Y-99886857D02*
X162724952Y-99848761D01*
X162724952Y-99848761D02*
X162801142Y-99810666D01*
X162801142Y-99810666D02*
X162991618Y-99810666D01*
X162991618Y-99810666D02*
X163067809Y-99848761D01*
X163067809Y-99848761D02*
X163105904Y-99886857D01*
X163105904Y-99886857D02*
X163143999Y-99963047D01*
X163143999Y-99963047D02*
X163143999Y-100153523D01*
X163143999Y-100153523D02*
X163105904Y-100229714D01*
X163105904Y-100229714D02*
X163067809Y-100267809D01*
X163067809Y-100267809D02*
X162991618Y-100305904D01*
X162991618Y-100305904D02*
X162801142Y-100305904D01*
X162801142Y-100305904D02*
X162724952Y-100267809D01*
X162724952Y-100267809D02*
X162686856Y-100229714D01*
X163410666Y-99772571D02*
X163601142Y-100305904D01*
X163601142Y-100305904D02*
X163791619Y-99772571D01*
X162115428Y-102897904D02*
X161734476Y-102897904D01*
X161734476Y-102897904D02*
X161734476Y-102097904D01*
X162382095Y-102897904D02*
X162382095Y-102364571D01*
X162382095Y-102097904D02*
X162343999Y-102136000D01*
X162343999Y-102136000D02*
X162382095Y-102174095D01*
X162382095Y-102174095D02*
X162420190Y-102136000D01*
X162420190Y-102136000D02*
X162382095Y-102097904D01*
X162382095Y-102097904D02*
X162382095Y-102174095D01*
X162763047Y-102364571D02*
X162763047Y-102897904D01*
X162763047Y-102440761D02*
X162801142Y-102402666D01*
X162801142Y-102402666D02*
X162877332Y-102364571D01*
X162877332Y-102364571D02*
X162991618Y-102364571D01*
X162991618Y-102364571D02*
X163067809Y-102402666D01*
X163067809Y-102402666D02*
X163105904Y-102478857D01*
X163105904Y-102478857D02*
X163105904Y-102897904D01*
X163791619Y-102859809D02*
X163715428Y-102897904D01*
X163715428Y-102897904D02*
X163563047Y-102897904D01*
X163563047Y-102897904D02*
X163486857Y-102859809D01*
X163486857Y-102859809D02*
X163448761Y-102783619D01*
X163448761Y-102783619D02*
X163448761Y-102478857D01*
X163448761Y-102478857D02*
X163486857Y-102402666D01*
X163486857Y-102402666D02*
X163563047Y-102364571D01*
X163563047Y-102364571D02*
X163715428Y-102364571D01*
X163715428Y-102364571D02*
X163791619Y-102402666D01*
X163791619Y-102402666D02*
X163829714Y-102478857D01*
X163829714Y-102478857D02*
X163829714Y-102555047D01*
X163829714Y-102555047D02*
X163448761Y-102631238D01*
X165071618Y-102897904D02*
X164614475Y-102897904D01*
X164843047Y-102897904D02*
X164843047Y-102097904D01*
X164843047Y-102097904D02*
X164766856Y-102212190D01*
X164766856Y-102212190D02*
X164690666Y-102288380D01*
X164690666Y-102288380D02*
X164614475Y-102326476D01*
X162153523Y-104728000D02*
X162077333Y-104689904D01*
X162077333Y-104689904D02*
X161963047Y-104689904D01*
X161963047Y-104689904D02*
X161848761Y-104728000D01*
X161848761Y-104728000D02*
X161772571Y-104804190D01*
X161772571Y-104804190D02*
X161734476Y-104880380D01*
X161734476Y-104880380D02*
X161696380Y-105032761D01*
X161696380Y-105032761D02*
X161696380Y-105147047D01*
X161696380Y-105147047D02*
X161734476Y-105299428D01*
X161734476Y-105299428D02*
X161772571Y-105375619D01*
X161772571Y-105375619D02*
X161848761Y-105451809D01*
X161848761Y-105451809D02*
X161963047Y-105489904D01*
X161963047Y-105489904D02*
X162039238Y-105489904D01*
X162039238Y-105489904D02*
X162153523Y-105451809D01*
X162153523Y-105451809D02*
X162191619Y-105413714D01*
X162191619Y-105413714D02*
X162191619Y-105147047D01*
X162191619Y-105147047D02*
X162039238Y-105147047D01*
X162534476Y-105489904D02*
X162534476Y-104689904D01*
X162534476Y-104689904D02*
X162991619Y-105489904D01*
X162991619Y-105489904D02*
X162991619Y-104689904D01*
X163372571Y-105489904D02*
X163372571Y-104689904D01*
X163372571Y-104689904D02*
X163563047Y-104689904D01*
X163563047Y-104689904D02*
X163677333Y-104728000D01*
X163677333Y-104728000D02*
X163753523Y-104804190D01*
X163753523Y-104804190D02*
X163791618Y-104880380D01*
X163791618Y-104880380D02*
X163829714Y-105032761D01*
X163829714Y-105032761D02*
X163829714Y-105147047D01*
X163829714Y-105147047D02*
X163791618Y-105299428D01*
X163791618Y-105299428D02*
X163753523Y-105375619D01*
X163753523Y-105375619D02*
X163677333Y-105451809D01*
X163677333Y-105451809D02*
X163563047Y-105489904D01*
X163563047Y-105489904D02*
X163372571Y-105489904D01*
X134556476Y-85217142D02*
X135166000Y-85217142D01*
X134861238Y-85521904D02*
X134861238Y-84912380D01*
X135927904Y-84721904D02*
X135546952Y-84721904D01*
X135546952Y-84721904D02*
X135508856Y-85102857D01*
X135508856Y-85102857D02*
X135546952Y-85064761D01*
X135546952Y-85064761D02*
X135623142Y-85026666D01*
X135623142Y-85026666D02*
X135813618Y-85026666D01*
X135813618Y-85026666D02*
X135889809Y-85064761D01*
X135889809Y-85064761D02*
X135927904Y-85102857D01*
X135927904Y-85102857D02*
X135965999Y-85179047D01*
X135965999Y-85179047D02*
X135965999Y-85369523D01*
X135965999Y-85369523D02*
X135927904Y-85445714D01*
X135927904Y-85445714D02*
X135889809Y-85483809D01*
X135889809Y-85483809D02*
X135813618Y-85521904D01*
X135813618Y-85521904D02*
X135623142Y-85521904D01*
X135623142Y-85521904D02*
X135546952Y-85483809D01*
X135546952Y-85483809D02*
X135508856Y-85445714D01*
X136232666Y-84988571D02*
X136423142Y-85521904D01*
X136423142Y-85521904D02*
X136613619Y-84988571D01*
X134975523Y-87352000D02*
X134899333Y-87313904D01*
X134899333Y-87313904D02*
X134785047Y-87313904D01*
X134785047Y-87313904D02*
X134670761Y-87352000D01*
X134670761Y-87352000D02*
X134594571Y-87428190D01*
X134594571Y-87428190D02*
X134556476Y-87504380D01*
X134556476Y-87504380D02*
X134518380Y-87656761D01*
X134518380Y-87656761D02*
X134518380Y-87771047D01*
X134518380Y-87771047D02*
X134556476Y-87923428D01*
X134556476Y-87923428D02*
X134594571Y-87999619D01*
X134594571Y-87999619D02*
X134670761Y-88075809D01*
X134670761Y-88075809D02*
X134785047Y-88113904D01*
X134785047Y-88113904D02*
X134861238Y-88113904D01*
X134861238Y-88113904D02*
X134975523Y-88075809D01*
X134975523Y-88075809D02*
X135013619Y-88037714D01*
X135013619Y-88037714D02*
X135013619Y-87771047D01*
X135013619Y-87771047D02*
X134861238Y-87771047D01*
X135356476Y-88113904D02*
X135356476Y-87313904D01*
X135356476Y-87313904D02*
X135813619Y-88113904D01*
X135813619Y-88113904D02*
X135813619Y-87313904D01*
X136194571Y-88113904D02*
X136194571Y-87313904D01*
X136194571Y-87313904D02*
X136385047Y-87313904D01*
X136385047Y-87313904D02*
X136499333Y-87352000D01*
X136499333Y-87352000D02*
X136575523Y-87428190D01*
X136575523Y-87428190D02*
X136613618Y-87504380D01*
X136613618Y-87504380D02*
X136651714Y-87656761D01*
X136651714Y-87656761D02*
X136651714Y-87771047D01*
X136651714Y-87771047D02*
X136613618Y-87923428D01*
X136613618Y-87923428D02*
X136575523Y-87999619D01*
X136575523Y-87999619D02*
X136499333Y-88075809D01*
X136499333Y-88075809D02*
X136385047Y-88113904D01*
X136385047Y-88113904D02*
X136194571Y-88113904D01*
X134518380Y-90667809D02*
X134632666Y-90705904D01*
X134632666Y-90705904D02*
X134823142Y-90705904D01*
X134823142Y-90705904D02*
X134899333Y-90667809D01*
X134899333Y-90667809D02*
X134937428Y-90629714D01*
X134937428Y-90629714D02*
X134975523Y-90553523D01*
X134975523Y-90553523D02*
X134975523Y-90477333D01*
X134975523Y-90477333D02*
X134937428Y-90401142D01*
X134937428Y-90401142D02*
X134899333Y-90363047D01*
X134899333Y-90363047D02*
X134823142Y-90324952D01*
X134823142Y-90324952D02*
X134670761Y-90286857D01*
X134670761Y-90286857D02*
X134594571Y-90248761D01*
X134594571Y-90248761D02*
X134556476Y-90210666D01*
X134556476Y-90210666D02*
X134518380Y-90134476D01*
X134518380Y-90134476D02*
X134518380Y-90058285D01*
X134518380Y-90058285D02*
X134556476Y-89982095D01*
X134556476Y-89982095D02*
X134594571Y-89944000D01*
X134594571Y-89944000D02*
X134670761Y-89905904D01*
X134670761Y-89905904D02*
X134861238Y-89905904D01*
X134861238Y-89905904D02*
X134975523Y-89944000D01*
X135318381Y-90705904D02*
X135318381Y-89905904D01*
X135318381Y-89905904D02*
X135508857Y-89905904D01*
X135508857Y-89905904D02*
X135623143Y-89944000D01*
X135623143Y-89944000D02*
X135699333Y-90020190D01*
X135699333Y-90020190D02*
X135737428Y-90096380D01*
X135737428Y-90096380D02*
X135775524Y-90248761D01*
X135775524Y-90248761D02*
X135775524Y-90363047D01*
X135775524Y-90363047D02*
X135737428Y-90515428D01*
X135737428Y-90515428D02*
X135699333Y-90591619D01*
X135699333Y-90591619D02*
X135623143Y-90667809D01*
X135623143Y-90667809D02*
X135508857Y-90705904D01*
X135508857Y-90705904D02*
X135318381Y-90705904D01*
X136080285Y-90477333D02*
X136461238Y-90477333D01*
X136004095Y-90705904D02*
X136270762Y-89905904D01*
X136270762Y-89905904D02*
X136537428Y-90705904D01*
X134518380Y-93259809D02*
X134632666Y-93297904D01*
X134632666Y-93297904D02*
X134823142Y-93297904D01*
X134823142Y-93297904D02*
X134899333Y-93259809D01*
X134899333Y-93259809D02*
X134937428Y-93221714D01*
X134937428Y-93221714D02*
X134975523Y-93145523D01*
X134975523Y-93145523D02*
X134975523Y-93069333D01*
X134975523Y-93069333D02*
X134937428Y-92993142D01*
X134937428Y-92993142D02*
X134899333Y-92955047D01*
X134899333Y-92955047D02*
X134823142Y-92916952D01*
X134823142Y-92916952D02*
X134670761Y-92878857D01*
X134670761Y-92878857D02*
X134594571Y-92840761D01*
X134594571Y-92840761D02*
X134556476Y-92802666D01*
X134556476Y-92802666D02*
X134518380Y-92726476D01*
X134518380Y-92726476D02*
X134518380Y-92650285D01*
X134518380Y-92650285D02*
X134556476Y-92574095D01*
X134556476Y-92574095D02*
X134594571Y-92536000D01*
X134594571Y-92536000D02*
X134670761Y-92497904D01*
X134670761Y-92497904D02*
X134861238Y-92497904D01*
X134861238Y-92497904D02*
X134975523Y-92536000D01*
X135775524Y-93221714D02*
X135737428Y-93259809D01*
X135737428Y-93259809D02*
X135623143Y-93297904D01*
X135623143Y-93297904D02*
X135546952Y-93297904D01*
X135546952Y-93297904D02*
X135432666Y-93259809D01*
X135432666Y-93259809D02*
X135356476Y-93183619D01*
X135356476Y-93183619D02*
X135318381Y-93107428D01*
X135318381Y-93107428D02*
X135280285Y-92955047D01*
X135280285Y-92955047D02*
X135280285Y-92840761D01*
X135280285Y-92840761D02*
X135318381Y-92688380D01*
X135318381Y-92688380D02*
X135356476Y-92612190D01*
X135356476Y-92612190D02*
X135432666Y-92536000D01*
X135432666Y-92536000D02*
X135546952Y-92497904D01*
X135546952Y-92497904D02*
X135623143Y-92497904D01*
X135623143Y-92497904D02*
X135737428Y-92536000D01*
X135737428Y-92536000D02*
X135775524Y-92574095D01*
X136499333Y-93297904D02*
X136118381Y-93297904D01*
X136118381Y-93297904D02*
X136118381Y-92497904D01*
X146227904Y-108140571D02*
X146227904Y-108521523D01*
X146227904Y-108521523D02*
X145427904Y-108521523D01*
X145694571Y-107051047D02*
X146227904Y-107051047D01*
X145389809Y-107241523D02*
X145961238Y-107432000D01*
X145961238Y-107432000D02*
X145961238Y-106936761D01*
X148819904Y-108140571D02*
X148819904Y-108521523D01*
X148819904Y-108521523D02*
X148019904Y-108521523D01*
X148019904Y-107470095D02*
X148019904Y-106974857D01*
X148019904Y-106974857D02*
X148324666Y-107241523D01*
X148324666Y-107241523D02*
X148324666Y-107127238D01*
X148324666Y-107127238D02*
X148362761Y-107051047D01*
X148362761Y-107051047D02*
X148400857Y-107012952D01*
X148400857Y-107012952D02*
X148477047Y-106974857D01*
X148477047Y-106974857D02*
X148667523Y-106974857D01*
X148667523Y-106974857D02*
X148743714Y-107012952D01*
X148743714Y-107012952D02*
X148781809Y-107051047D01*
X148781809Y-107051047D02*
X148819904Y-107127238D01*
X148819904Y-107127238D02*
X148819904Y-107355809D01*
X148819904Y-107355809D02*
X148781809Y-107432000D01*
X148781809Y-107432000D02*
X148743714Y-107470095D01*
X151411904Y-108140571D02*
X151411904Y-108521523D01*
X151411904Y-108521523D02*
X150611904Y-108521523D01*
X150688095Y-107432000D02*
X150650000Y-107393904D01*
X150650000Y-107393904D02*
X150611904Y-107317714D01*
X150611904Y-107317714D02*
X150611904Y-107127238D01*
X150611904Y-107127238D02*
X150650000Y-107051047D01*
X150650000Y-107051047D02*
X150688095Y-107012952D01*
X150688095Y-107012952D02*
X150764285Y-106974857D01*
X150764285Y-106974857D02*
X150840476Y-106974857D01*
X150840476Y-106974857D02*
X150954761Y-107012952D01*
X150954761Y-107012952D02*
X151411904Y-107470095D01*
X151411904Y-107470095D02*
X151411904Y-106974857D01*
X154003904Y-108140571D02*
X154003904Y-108521523D01*
X154003904Y-108521523D02*
X153203904Y-108521523D01*
X154003904Y-106974857D02*
X154003904Y-107432000D01*
X154003904Y-107203428D02*
X153203904Y-107203428D01*
X153203904Y-107203428D02*
X153318190Y-107279619D01*
X153318190Y-107279619D02*
X153394380Y-107355809D01*
X153394380Y-107355809D02*
X153432476Y-107432000D01*
X134975523Y-96952000D02*
X134899333Y-96913904D01*
X134899333Y-96913904D02*
X134785047Y-96913904D01*
X134785047Y-96913904D02*
X134670761Y-96952000D01*
X134670761Y-96952000D02*
X134594571Y-97028190D01*
X134594571Y-97028190D02*
X134556476Y-97104380D01*
X134556476Y-97104380D02*
X134518380Y-97256761D01*
X134518380Y-97256761D02*
X134518380Y-97371047D01*
X134518380Y-97371047D02*
X134556476Y-97523428D01*
X134556476Y-97523428D02*
X134594571Y-97599619D01*
X134594571Y-97599619D02*
X134670761Y-97675809D01*
X134670761Y-97675809D02*
X134785047Y-97713904D01*
X134785047Y-97713904D02*
X134861238Y-97713904D01*
X134861238Y-97713904D02*
X134975523Y-97675809D01*
X134975523Y-97675809D02*
X135013619Y-97637714D01*
X135013619Y-97637714D02*
X135013619Y-97371047D01*
X135013619Y-97371047D02*
X134861238Y-97371047D01*
X135356476Y-97713904D02*
X135356476Y-96913904D01*
X135356476Y-96913904D02*
X135813619Y-97713904D01*
X135813619Y-97713904D02*
X135813619Y-96913904D01*
X136194571Y-97713904D02*
X136194571Y-96913904D01*
X136194571Y-96913904D02*
X136385047Y-96913904D01*
X136385047Y-96913904D02*
X136499333Y-96952000D01*
X136499333Y-96952000D02*
X136575523Y-97028190D01*
X136575523Y-97028190D02*
X136613618Y-97104380D01*
X136613618Y-97104380D02*
X136651714Y-97256761D01*
X136651714Y-97256761D02*
X136651714Y-97371047D01*
X136651714Y-97371047D02*
X136613618Y-97523428D01*
X136613618Y-97523428D02*
X136575523Y-97599619D01*
X136575523Y-97599619D02*
X136499333Y-97675809D01*
X136499333Y-97675809D02*
X136385047Y-97713904D01*
X136385047Y-97713904D02*
X136194571Y-97713904D01*
X134556476Y-100001142D02*
X135166000Y-100001142D01*
X134861238Y-100305904D02*
X134861238Y-99696380D01*
X135927904Y-99505904D02*
X135546952Y-99505904D01*
X135546952Y-99505904D02*
X135508856Y-99886857D01*
X135508856Y-99886857D02*
X135546952Y-99848761D01*
X135546952Y-99848761D02*
X135623142Y-99810666D01*
X135623142Y-99810666D02*
X135813618Y-99810666D01*
X135813618Y-99810666D02*
X135889809Y-99848761D01*
X135889809Y-99848761D02*
X135927904Y-99886857D01*
X135927904Y-99886857D02*
X135965999Y-99963047D01*
X135965999Y-99963047D02*
X135965999Y-100153523D01*
X135965999Y-100153523D02*
X135927904Y-100229714D01*
X135927904Y-100229714D02*
X135889809Y-100267809D01*
X135889809Y-100267809D02*
X135813618Y-100305904D01*
X135813618Y-100305904D02*
X135623142Y-100305904D01*
X135623142Y-100305904D02*
X135546952Y-100267809D01*
X135546952Y-100267809D02*
X135508856Y-100229714D01*
X136232666Y-99772571D02*
X136423142Y-100305904D01*
X136423142Y-100305904D02*
X136613619Y-99772571D01*
X134937428Y-102897904D02*
X134556476Y-102897904D01*
X134556476Y-102897904D02*
X134556476Y-102097904D01*
X135204095Y-102897904D02*
X135204095Y-102364571D01*
X135204095Y-102097904D02*
X135165999Y-102136000D01*
X135165999Y-102136000D02*
X135204095Y-102174095D01*
X135204095Y-102174095D02*
X135242190Y-102136000D01*
X135242190Y-102136000D02*
X135204095Y-102097904D01*
X135204095Y-102097904D02*
X135204095Y-102174095D01*
X135585047Y-102364571D02*
X135585047Y-102897904D01*
X135585047Y-102440761D02*
X135623142Y-102402666D01*
X135623142Y-102402666D02*
X135699332Y-102364571D01*
X135699332Y-102364571D02*
X135813618Y-102364571D01*
X135813618Y-102364571D02*
X135889809Y-102402666D01*
X135889809Y-102402666D02*
X135927904Y-102478857D01*
X135927904Y-102478857D02*
X135927904Y-102897904D01*
X136613619Y-102859809D02*
X136537428Y-102897904D01*
X136537428Y-102897904D02*
X136385047Y-102897904D01*
X136385047Y-102897904D02*
X136308857Y-102859809D01*
X136308857Y-102859809D02*
X136270761Y-102783619D01*
X136270761Y-102783619D02*
X136270761Y-102478857D01*
X136270761Y-102478857D02*
X136308857Y-102402666D01*
X136308857Y-102402666D02*
X136385047Y-102364571D01*
X136385047Y-102364571D02*
X136537428Y-102364571D01*
X136537428Y-102364571D02*
X136613619Y-102402666D01*
X136613619Y-102402666D02*
X136651714Y-102478857D01*
X136651714Y-102478857D02*
X136651714Y-102555047D01*
X136651714Y-102555047D02*
X136270761Y-102631238D01*
X137436475Y-102174095D02*
X137474571Y-102136000D01*
X137474571Y-102136000D02*
X137550761Y-102097904D01*
X137550761Y-102097904D02*
X137741237Y-102097904D01*
X137741237Y-102097904D02*
X137817428Y-102136000D01*
X137817428Y-102136000D02*
X137855523Y-102174095D01*
X137855523Y-102174095D02*
X137893618Y-102250285D01*
X137893618Y-102250285D02*
X137893618Y-102326476D01*
X137893618Y-102326476D02*
X137855523Y-102440761D01*
X137855523Y-102440761D02*
X137398380Y-102897904D01*
X137398380Y-102897904D02*
X137893618Y-102897904D01*
X134975523Y-104728000D02*
X134899333Y-104689904D01*
X134899333Y-104689904D02*
X134785047Y-104689904D01*
X134785047Y-104689904D02*
X134670761Y-104728000D01*
X134670761Y-104728000D02*
X134594571Y-104804190D01*
X134594571Y-104804190D02*
X134556476Y-104880380D01*
X134556476Y-104880380D02*
X134518380Y-105032761D01*
X134518380Y-105032761D02*
X134518380Y-105147047D01*
X134518380Y-105147047D02*
X134556476Y-105299428D01*
X134556476Y-105299428D02*
X134594571Y-105375619D01*
X134594571Y-105375619D02*
X134670761Y-105451809D01*
X134670761Y-105451809D02*
X134785047Y-105489904D01*
X134785047Y-105489904D02*
X134861238Y-105489904D01*
X134861238Y-105489904D02*
X134975523Y-105451809D01*
X134975523Y-105451809D02*
X135013619Y-105413714D01*
X135013619Y-105413714D02*
X135013619Y-105147047D01*
X135013619Y-105147047D02*
X134861238Y-105147047D01*
X135356476Y-105489904D02*
X135356476Y-104689904D01*
X135356476Y-104689904D02*
X135813619Y-105489904D01*
X135813619Y-105489904D02*
X135813619Y-104689904D01*
X136194571Y-105489904D02*
X136194571Y-104689904D01*
X136194571Y-104689904D02*
X136385047Y-104689904D01*
X136385047Y-104689904D02*
X136499333Y-104728000D01*
X136499333Y-104728000D02*
X136575523Y-104804190D01*
X136575523Y-104804190D02*
X136613618Y-104880380D01*
X136613618Y-104880380D02*
X136651714Y-105032761D01*
X136651714Y-105032761D02*
X136651714Y-105147047D01*
X136651714Y-105147047D02*
X136613618Y-105299428D01*
X136613618Y-105299428D02*
X136575523Y-105375619D01*
X136575523Y-105375619D02*
X136499333Y-105451809D01*
X136499333Y-105451809D02*
X136385047Y-105489904D01*
X136385047Y-105489904D02*
X136194571Y-105489904D01*
D11*
%TO.C,J2*%
X142861380Y-105301047D02*
X142861380Y-105777237D01*
X142861380Y-105777237D02*
X141861380Y-105777237D01*
X142861380Y-104967713D02*
X142194714Y-104967713D01*
X141861380Y-104967713D02*
X141909000Y-105015332D01*
X141909000Y-105015332D02*
X141956619Y-104967713D01*
X141956619Y-104967713D02*
X141909000Y-104920094D01*
X141909000Y-104920094D02*
X141861380Y-104967713D01*
X141861380Y-104967713D02*
X141956619Y-104967713D01*
X142194714Y-104491523D02*
X142861380Y-104491523D01*
X142289952Y-104491523D02*
X142242333Y-104443904D01*
X142242333Y-104443904D02*
X142194714Y-104348666D01*
X142194714Y-104348666D02*
X142194714Y-104205809D01*
X142194714Y-104205809D02*
X142242333Y-104110571D01*
X142242333Y-104110571D02*
X142337571Y-104062952D01*
X142337571Y-104062952D02*
X142861380Y-104062952D01*
X142813761Y-103205809D02*
X142861380Y-103301047D01*
X142861380Y-103301047D02*
X142861380Y-103491523D01*
X142861380Y-103491523D02*
X142813761Y-103586761D01*
X142813761Y-103586761D02*
X142718523Y-103634380D01*
X142718523Y-103634380D02*
X142337571Y-103634380D01*
X142337571Y-103634380D02*
X142242333Y-103586761D01*
X142242333Y-103586761D02*
X142194714Y-103491523D01*
X142194714Y-103491523D02*
X142194714Y-103301047D01*
X142194714Y-103301047D02*
X142242333Y-103205809D01*
X142242333Y-103205809D02*
X142337571Y-103158190D01*
X142337571Y-103158190D02*
X142432809Y-103158190D01*
X142432809Y-103158190D02*
X142528047Y-103634380D01*
X141956619Y-102177237D02*
X141909000Y-102129618D01*
X141909000Y-102129618D02*
X141861380Y-102034380D01*
X141861380Y-102034380D02*
X141861380Y-101796285D01*
X141861380Y-101796285D02*
X141909000Y-101701047D01*
X141909000Y-101701047D02*
X141956619Y-101653428D01*
X141956619Y-101653428D02*
X142051857Y-101605809D01*
X142051857Y-101605809D02*
X142147095Y-101605809D01*
X142147095Y-101605809D02*
X142289952Y-101653428D01*
X142289952Y-101653428D02*
X142861380Y-102224856D01*
X142861380Y-102224856D02*
X142861380Y-101605809D01*
X142194714Y-100672475D02*
X142861380Y-100481999D01*
X142861380Y-100481999D02*
X142385190Y-100291523D01*
X142385190Y-100291523D02*
X142861380Y-100101047D01*
X142861380Y-100101047D02*
X142194714Y-99910571D01*
X141813761Y-98815333D02*
X143099476Y-99672475D01*
X142194714Y-98481999D02*
X143194714Y-98481999D01*
X142242333Y-98481999D02*
X142194714Y-98386761D01*
X142194714Y-98386761D02*
X142194714Y-98196285D01*
X142194714Y-98196285D02*
X142242333Y-98101047D01*
X142242333Y-98101047D02*
X142289952Y-98053428D01*
X142289952Y-98053428D02*
X142385190Y-98005809D01*
X142385190Y-98005809D02*
X142670904Y-98005809D01*
X142670904Y-98005809D02*
X142766142Y-98053428D01*
X142766142Y-98053428D02*
X142813761Y-98101047D01*
X142813761Y-98101047D02*
X142861380Y-98196285D01*
X142861380Y-98196285D02*
X142861380Y-98386761D01*
X142861380Y-98386761D02*
X142813761Y-98481999D01*
X142194714Y-97672475D02*
X142861380Y-97481999D01*
X142861380Y-97481999D02*
X142385190Y-97291523D01*
X142385190Y-97291523D02*
X142861380Y-97101047D01*
X142861380Y-97101047D02*
X142194714Y-96910571D01*
X142861380Y-96529618D02*
X142194714Y-96529618D01*
X142385190Y-96529618D02*
X142289952Y-96481999D01*
X142289952Y-96481999D02*
X142242333Y-96434380D01*
X142242333Y-96434380D02*
X142194714Y-96339142D01*
X142194714Y-96339142D02*
X142194714Y-96243904D01*
%TO.C,J4*%
X146720857Y-83266714D02*
X146720857Y-84266714D01*
X146720857Y-83314333D02*
X146816095Y-83266714D01*
X146816095Y-83266714D02*
X147006571Y-83266714D01*
X147006571Y-83266714D02*
X147101809Y-83314333D01*
X147101809Y-83314333D02*
X147149428Y-83361952D01*
X147149428Y-83361952D02*
X147197047Y-83457190D01*
X147197047Y-83457190D02*
X147197047Y-83742904D01*
X147197047Y-83742904D02*
X147149428Y-83838142D01*
X147149428Y-83838142D02*
X147101809Y-83885761D01*
X147101809Y-83885761D02*
X147006571Y-83933380D01*
X147006571Y-83933380D02*
X146816095Y-83933380D01*
X146816095Y-83933380D02*
X146720857Y-83885761D01*
X147625619Y-83933380D02*
X147625619Y-83266714D01*
X147625619Y-82933380D02*
X147578000Y-82981000D01*
X147578000Y-82981000D02*
X147625619Y-83028619D01*
X147625619Y-83028619D02*
X147673238Y-82981000D01*
X147673238Y-82981000D02*
X147625619Y-82933380D01*
X147625619Y-82933380D02*
X147625619Y-83028619D01*
X148101809Y-83266714D02*
X148101809Y-83933380D01*
X148101809Y-83361952D02*
X148149428Y-83314333D01*
X148149428Y-83314333D02*
X148244666Y-83266714D01*
X148244666Y-83266714D02*
X148387523Y-83266714D01*
X148387523Y-83266714D02*
X148482761Y-83314333D01*
X148482761Y-83314333D02*
X148530380Y-83409571D01*
X148530380Y-83409571D02*
X148530380Y-83933380D01*
X148958952Y-83885761D02*
X149054190Y-83933380D01*
X149054190Y-83933380D02*
X149244666Y-83933380D01*
X149244666Y-83933380D02*
X149339904Y-83885761D01*
X149339904Y-83885761D02*
X149387523Y-83790523D01*
X149387523Y-83790523D02*
X149387523Y-83742904D01*
X149387523Y-83742904D02*
X149339904Y-83647666D01*
X149339904Y-83647666D02*
X149244666Y-83600047D01*
X149244666Y-83600047D02*
X149101809Y-83600047D01*
X149101809Y-83600047D02*
X149006571Y-83552428D01*
X149006571Y-83552428D02*
X148958952Y-83457190D01*
X148958952Y-83457190D02*
X148958952Y-83409571D01*
X148958952Y-83409571D02*
X149006571Y-83314333D01*
X149006571Y-83314333D02*
X149101809Y-83266714D01*
X149101809Y-83266714D02*
X149244666Y-83266714D01*
X149244666Y-83266714D02*
X149339904Y-83314333D01*
X150320857Y-82933380D02*
X150987523Y-82933380D01*
X150987523Y-82933380D02*
X150558952Y-83933380D01*
X151368476Y-83552428D02*
X152130381Y-83552428D01*
X153130380Y-83933380D02*
X152558952Y-83933380D01*
X152844666Y-83933380D02*
X152844666Y-82933380D01*
X152844666Y-82933380D02*
X152749428Y-83076238D01*
X152749428Y-83076238D02*
X152654190Y-83171476D01*
X152654190Y-83171476D02*
X152558952Y-83219095D01*
X153749428Y-82933380D02*
X153844666Y-82933380D01*
X153844666Y-82933380D02*
X153939904Y-82981000D01*
X153939904Y-82981000D02*
X153987523Y-83028619D01*
X153987523Y-83028619D02*
X154035142Y-83123857D01*
X154035142Y-83123857D02*
X154082761Y-83314333D01*
X154082761Y-83314333D02*
X154082761Y-83552428D01*
X154082761Y-83552428D02*
X154035142Y-83742904D01*
X154035142Y-83742904D02*
X153987523Y-83838142D01*
X153987523Y-83838142D02*
X153939904Y-83885761D01*
X153939904Y-83885761D02*
X153844666Y-83933380D01*
X153844666Y-83933380D02*
X153749428Y-83933380D01*
X153749428Y-83933380D02*
X153654190Y-83885761D01*
X153654190Y-83885761D02*
X153606571Y-83838142D01*
X153606571Y-83838142D02*
X153558952Y-83742904D01*
X153558952Y-83742904D02*
X153511333Y-83552428D01*
X153511333Y-83552428D02*
X153511333Y-83314333D01*
X153511333Y-83314333D02*
X153558952Y-83123857D01*
X153558952Y-83123857D02*
X153606571Y-83028619D01*
X153606571Y-83028619D02*
X153654190Y-82981000D01*
X153654190Y-82981000D02*
X153749428Y-82933380D01*
%TO.C,S1*%
X155656714Y-94573143D02*
X155656714Y-94192191D01*
X155323380Y-94430286D02*
X156180523Y-94430286D01*
X156180523Y-94430286D02*
X156275761Y-94382667D01*
X156275761Y-94382667D02*
X156323380Y-94287429D01*
X156323380Y-94287429D02*
X156323380Y-94192191D01*
X156323380Y-93716000D02*
X156275761Y-93811238D01*
X156275761Y-93811238D02*
X156228142Y-93858857D01*
X156228142Y-93858857D02*
X156132904Y-93906476D01*
X156132904Y-93906476D02*
X155847190Y-93906476D01*
X155847190Y-93906476D02*
X155751952Y-93858857D01*
X155751952Y-93858857D02*
X155704333Y-93811238D01*
X155704333Y-93811238D02*
X155656714Y-93716000D01*
X155656714Y-93716000D02*
X155656714Y-93573143D01*
X155656714Y-93573143D02*
X155704333Y-93477905D01*
X155704333Y-93477905D02*
X155751952Y-93430286D01*
X155751952Y-93430286D02*
X155847190Y-93382667D01*
X155847190Y-93382667D02*
X156132904Y-93382667D01*
X156132904Y-93382667D02*
X156228142Y-93430286D01*
X156228142Y-93430286D02*
X156275761Y-93477905D01*
X156275761Y-93477905D02*
X156323380Y-93573143D01*
X156323380Y-93573143D02*
X156323380Y-93716000D01*
X156228142Y-91782667D02*
X156275761Y-91830286D01*
X156275761Y-91830286D02*
X156323380Y-91973143D01*
X156323380Y-91973143D02*
X156323380Y-92068381D01*
X156323380Y-92068381D02*
X156275761Y-92211238D01*
X156275761Y-92211238D02*
X156180523Y-92306476D01*
X156180523Y-92306476D02*
X156085285Y-92354095D01*
X156085285Y-92354095D02*
X155894809Y-92401714D01*
X155894809Y-92401714D02*
X155751952Y-92401714D01*
X155751952Y-92401714D02*
X155561476Y-92354095D01*
X155561476Y-92354095D02*
X155466238Y-92306476D01*
X155466238Y-92306476D02*
X155371000Y-92211238D01*
X155371000Y-92211238D02*
X155323380Y-92068381D01*
X155323380Y-92068381D02*
X155323380Y-91973143D01*
X155323380Y-91973143D02*
X155371000Y-91830286D01*
X155371000Y-91830286D02*
X155418619Y-91782667D01*
X156323380Y-91211238D02*
X156275761Y-91306476D01*
X156275761Y-91306476D02*
X156228142Y-91354095D01*
X156228142Y-91354095D02*
X156132904Y-91401714D01*
X156132904Y-91401714D02*
X155847190Y-91401714D01*
X155847190Y-91401714D02*
X155751952Y-91354095D01*
X155751952Y-91354095D02*
X155704333Y-91306476D01*
X155704333Y-91306476D02*
X155656714Y-91211238D01*
X155656714Y-91211238D02*
X155656714Y-91068381D01*
X155656714Y-91068381D02*
X155704333Y-90973143D01*
X155704333Y-90973143D02*
X155751952Y-90925524D01*
X155751952Y-90925524D02*
X155847190Y-90877905D01*
X155847190Y-90877905D02*
X156132904Y-90877905D01*
X156132904Y-90877905D02*
X156228142Y-90925524D01*
X156228142Y-90925524D02*
X156275761Y-90973143D01*
X156275761Y-90973143D02*
X156323380Y-91068381D01*
X156323380Y-91068381D02*
X156323380Y-91211238D01*
X155656714Y-90449333D02*
X156323380Y-90449333D01*
X155751952Y-90449333D02*
X155704333Y-90401714D01*
X155704333Y-90401714D02*
X155656714Y-90306476D01*
X155656714Y-90306476D02*
X155656714Y-90163619D01*
X155656714Y-90163619D02*
X155704333Y-90068381D01*
X155704333Y-90068381D02*
X155799571Y-90020762D01*
X155799571Y-90020762D02*
X156323380Y-90020762D01*
X155656714Y-89687428D02*
X155656714Y-89306476D01*
X155323380Y-89544571D02*
X156180523Y-89544571D01*
X156180523Y-89544571D02*
X156275761Y-89496952D01*
X156275761Y-89496952D02*
X156323380Y-89401714D01*
X156323380Y-89401714D02*
X156323380Y-89306476D01*
X156323380Y-88973142D02*
X155656714Y-88973142D01*
X155847190Y-88973142D02*
X155751952Y-88925523D01*
X155751952Y-88925523D02*
X155704333Y-88877904D01*
X155704333Y-88877904D02*
X155656714Y-88782666D01*
X155656714Y-88782666D02*
X155656714Y-88687428D01*
X156323380Y-88211237D02*
X156275761Y-88306475D01*
X156275761Y-88306475D02*
X156228142Y-88354094D01*
X156228142Y-88354094D02*
X156132904Y-88401713D01*
X156132904Y-88401713D02*
X155847190Y-88401713D01*
X155847190Y-88401713D02*
X155751952Y-88354094D01*
X155751952Y-88354094D02*
X155704333Y-88306475D01*
X155704333Y-88306475D02*
X155656714Y-88211237D01*
X155656714Y-88211237D02*
X155656714Y-88068380D01*
X155656714Y-88068380D02*
X155704333Y-87973142D01*
X155704333Y-87973142D02*
X155751952Y-87925523D01*
X155751952Y-87925523D02*
X155847190Y-87877904D01*
X155847190Y-87877904D02*
X156132904Y-87877904D01*
X156132904Y-87877904D02*
X156228142Y-87925523D01*
X156228142Y-87925523D02*
X156275761Y-87973142D01*
X156275761Y-87973142D02*
X156323380Y-88068380D01*
X156323380Y-88068380D02*
X156323380Y-88211237D01*
X156323380Y-87306475D02*
X156275761Y-87401713D01*
X156275761Y-87401713D02*
X156180523Y-87449332D01*
X156180523Y-87449332D02*
X155323380Y-87449332D01*
X156323380Y-86782665D02*
X156275761Y-86877903D01*
X156275761Y-86877903D02*
X156180523Y-86925522D01*
X156180523Y-86925522D02*
X155323380Y-86925522D01*
X156275761Y-86020760D02*
X156323380Y-86115998D01*
X156323380Y-86115998D02*
X156323380Y-86306474D01*
X156323380Y-86306474D02*
X156275761Y-86401712D01*
X156275761Y-86401712D02*
X156180523Y-86449331D01*
X156180523Y-86449331D02*
X155799571Y-86449331D01*
X155799571Y-86449331D02*
X155704333Y-86401712D01*
X155704333Y-86401712D02*
X155656714Y-86306474D01*
X155656714Y-86306474D02*
X155656714Y-86115998D01*
X155656714Y-86115998D02*
X155704333Y-86020760D01*
X155704333Y-86020760D02*
X155799571Y-85973141D01*
X155799571Y-85973141D02*
X155894809Y-85973141D01*
X155894809Y-85973141D02*
X155990047Y-86449331D01*
X156323380Y-85544569D02*
X155656714Y-85544569D01*
X155847190Y-85544569D02*
X155751952Y-85496950D01*
X155751952Y-85496950D02*
X155704333Y-85449331D01*
X155704333Y-85449331D02*
X155656714Y-85354093D01*
X155656714Y-85354093D02*
X155656714Y-85258855D01*
%TO.C,J1*%
X157085380Y-105565047D02*
X157085380Y-106041237D01*
X157085380Y-106041237D02*
X156085380Y-106041237D01*
X157085380Y-105231713D02*
X156418714Y-105231713D01*
X156085380Y-105231713D02*
X156133000Y-105279332D01*
X156133000Y-105279332D02*
X156180619Y-105231713D01*
X156180619Y-105231713D02*
X156133000Y-105184094D01*
X156133000Y-105184094D02*
X156085380Y-105231713D01*
X156085380Y-105231713D02*
X156180619Y-105231713D01*
X156418714Y-104755523D02*
X157085380Y-104755523D01*
X156513952Y-104755523D02*
X156466333Y-104707904D01*
X156466333Y-104707904D02*
X156418714Y-104612666D01*
X156418714Y-104612666D02*
X156418714Y-104469809D01*
X156418714Y-104469809D02*
X156466333Y-104374571D01*
X156466333Y-104374571D02*
X156561571Y-104326952D01*
X156561571Y-104326952D02*
X157085380Y-104326952D01*
X157037761Y-103469809D02*
X157085380Y-103565047D01*
X157085380Y-103565047D02*
X157085380Y-103755523D01*
X157085380Y-103755523D02*
X157037761Y-103850761D01*
X157037761Y-103850761D02*
X156942523Y-103898380D01*
X156942523Y-103898380D02*
X156561571Y-103898380D01*
X156561571Y-103898380D02*
X156466333Y-103850761D01*
X156466333Y-103850761D02*
X156418714Y-103755523D01*
X156418714Y-103755523D02*
X156418714Y-103565047D01*
X156418714Y-103565047D02*
X156466333Y-103469809D01*
X156466333Y-103469809D02*
X156561571Y-103422190D01*
X156561571Y-103422190D02*
X156656809Y-103422190D01*
X156656809Y-103422190D02*
X156752047Y-103898380D01*
X157085380Y-101869809D02*
X157085380Y-102441237D01*
X157085380Y-102155523D02*
X156085380Y-102155523D01*
X156085380Y-102155523D02*
X156228238Y-102250761D01*
X156228238Y-102250761D02*
X156323476Y-102345999D01*
X156323476Y-102345999D02*
X156371095Y-102441237D01*
X156418714Y-100936475D02*
X157085380Y-100745999D01*
X157085380Y-100745999D02*
X156609190Y-100555523D01*
X156609190Y-100555523D02*
X157085380Y-100365047D01*
X157085380Y-100365047D02*
X156418714Y-100174571D01*
X156037761Y-99079333D02*
X157323476Y-99936475D01*
X156418714Y-98745999D02*
X157418714Y-98745999D01*
X156466333Y-98745999D02*
X156418714Y-98650761D01*
X156418714Y-98650761D02*
X156418714Y-98460285D01*
X156418714Y-98460285D02*
X156466333Y-98365047D01*
X156466333Y-98365047D02*
X156513952Y-98317428D01*
X156513952Y-98317428D02*
X156609190Y-98269809D01*
X156609190Y-98269809D02*
X156894904Y-98269809D01*
X156894904Y-98269809D02*
X156990142Y-98317428D01*
X156990142Y-98317428D02*
X157037761Y-98365047D01*
X157037761Y-98365047D02*
X157085380Y-98460285D01*
X157085380Y-98460285D02*
X157085380Y-98650761D01*
X157085380Y-98650761D02*
X157037761Y-98745999D01*
X156418714Y-97936475D02*
X157085380Y-97745999D01*
X157085380Y-97745999D02*
X156609190Y-97555523D01*
X156609190Y-97555523D02*
X157085380Y-97365047D01*
X157085380Y-97365047D02*
X156418714Y-97174571D01*
X157085380Y-96793618D02*
X156418714Y-96793618D01*
X156609190Y-96793618D02*
X156513952Y-96745999D01*
X156513952Y-96745999D02*
X156466333Y-96698380D01*
X156466333Y-96698380D02*
X156418714Y-96603142D01*
X156418714Y-96603142D02*
X156418714Y-96507904D01*
%TO.C,J5*%
X142861380Y-94642856D02*
X141861380Y-94642856D01*
X141956619Y-94214285D02*
X141909000Y-94166666D01*
X141909000Y-94166666D02*
X141861380Y-94071428D01*
X141861380Y-94071428D02*
X141861380Y-93833333D01*
X141861380Y-93833333D02*
X141909000Y-93738095D01*
X141909000Y-93738095D02*
X141956619Y-93690476D01*
X141956619Y-93690476D02*
X142051857Y-93642857D01*
X142051857Y-93642857D02*
X142147095Y-93642857D01*
X142147095Y-93642857D02*
X142289952Y-93690476D01*
X142289952Y-93690476D02*
X142861380Y-94261904D01*
X142861380Y-94261904D02*
X142861380Y-93642857D01*
X142766142Y-92642857D02*
X142813761Y-92690476D01*
X142813761Y-92690476D02*
X142861380Y-92833333D01*
X142861380Y-92833333D02*
X142861380Y-92928571D01*
X142861380Y-92928571D02*
X142813761Y-93071428D01*
X142813761Y-93071428D02*
X142718523Y-93166666D01*
X142718523Y-93166666D02*
X142623285Y-93214285D01*
X142623285Y-93214285D02*
X142432809Y-93261904D01*
X142432809Y-93261904D02*
X142289952Y-93261904D01*
X142289952Y-93261904D02*
X142099476Y-93214285D01*
X142099476Y-93214285D02*
X142004238Y-93166666D01*
X142004238Y-93166666D02*
X141909000Y-93071428D01*
X141909000Y-93071428D02*
X141861380Y-92928571D01*
X141861380Y-92928571D02*
X141861380Y-92833333D01*
X141861380Y-92833333D02*
X141909000Y-92690476D01*
X141909000Y-92690476D02*
X141956619Y-92642857D01*
X142194714Y-91709523D02*
X142861380Y-91519047D01*
X142861380Y-91519047D02*
X142385190Y-91328571D01*
X142385190Y-91328571D02*
X142861380Y-91138095D01*
X142861380Y-91138095D02*
X142194714Y-90947619D01*
X141813761Y-89852381D02*
X143099476Y-90709523D01*
X142194714Y-89519047D02*
X143194714Y-89519047D01*
X142242333Y-89519047D02*
X142194714Y-89423809D01*
X142194714Y-89423809D02*
X142194714Y-89233333D01*
X142194714Y-89233333D02*
X142242333Y-89138095D01*
X142242333Y-89138095D02*
X142289952Y-89090476D01*
X142289952Y-89090476D02*
X142385190Y-89042857D01*
X142385190Y-89042857D02*
X142670904Y-89042857D01*
X142670904Y-89042857D02*
X142766142Y-89090476D01*
X142766142Y-89090476D02*
X142813761Y-89138095D01*
X142813761Y-89138095D02*
X142861380Y-89233333D01*
X142861380Y-89233333D02*
X142861380Y-89423809D01*
X142861380Y-89423809D02*
X142813761Y-89519047D01*
X142861380Y-88614285D02*
X142194714Y-88614285D01*
X141861380Y-88614285D02*
X141909000Y-88661904D01*
X141909000Y-88661904D02*
X141956619Y-88614285D01*
X141956619Y-88614285D02*
X141909000Y-88566666D01*
X141909000Y-88566666D02*
X141861380Y-88614285D01*
X141861380Y-88614285D02*
X141956619Y-88614285D01*
X142194714Y-88138095D02*
X142861380Y-88138095D01*
X142289952Y-88138095D02*
X142242333Y-88090476D01*
X142242333Y-88090476D02*
X142194714Y-87995238D01*
X142194714Y-87995238D02*
X142194714Y-87852381D01*
X142194714Y-87852381D02*
X142242333Y-87757143D01*
X142242333Y-87757143D02*
X142337571Y-87709524D01*
X142337571Y-87709524D02*
X142861380Y-87709524D01*
X142813761Y-87280952D02*
X142861380Y-87185714D01*
X142861380Y-87185714D02*
X142861380Y-86995238D01*
X142861380Y-86995238D02*
X142813761Y-86900000D01*
X142813761Y-86900000D02*
X142718523Y-86852381D01*
X142718523Y-86852381D02*
X142670904Y-86852381D01*
X142670904Y-86852381D02*
X142575666Y-86900000D01*
X142575666Y-86900000D02*
X142528047Y-86995238D01*
X142528047Y-86995238D02*
X142528047Y-87138095D01*
X142528047Y-87138095D02*
X142480428Y-87233333D01*
X142480428Y-87233333D02*
X142385190Y-87280952D01*
X142385190Y-87280952D02*
X142337571Y-87280952D01*
X142337571Y-87280952D02*
X142242333Y-87233333D01*
X142242333Y-87233333D02*
X142194714Y-87138095D01*
X142194714Y-87138095D02*
X142194714Y-86995238D01*
X142194714Y-86995238D02*
X142242333Y-86900000D01*
X141861380Y-85919047D02*
X141861380Y-85300000D01*
X141861380Y-85300000D02*
X142242333Y-85633333D01*
X142242333Y-85633333D02*
X142242333Y-85490476D01*
X142242333Y-85490476D02*
X142289952Y-85395238D01*
X142289952Y-85395238D02*
X142337571Y-85347619D01*
X142337571Y-85347619D02*
X142432809Y-85300000D01*
X142432809Y-85300000D02*
X142670904Y-85300000D01*
X142670904Y-85300000D02*
X142766142Y-85347619D01*
X142766142Y-85347619D02*
X142813761Y-85395238D01*
X142813761Y-85395238D02*
X142861380Y-85490476D01*
X142861380Y-85490476D02*
X142861380Y-85776190D01*
X142861380Y-85776190D02*
X142813761Y-85871428D01*
X142813761Y-85871428D02*
X142766142Y-85919047D01*
X142861380Y-84061904D02*
X142861380Y-84109524D01*
X142861380Y-84109524D02*
X142813761Y-84204762D01*
X142813761Y-84204762D02*
X142670904Y-84347619D01*
X142670904Y-84347619D02*
X142385190Y-84585714D01*
X142385190Y-84585714D02*
X142242333Y-84680952D01*
X142242333Y-84680952D02*
X142099476Y-84728571D01*
X142099476Y-84728571D02*
X142004238Y-84728571D01*
X142004238Y-84728571D02*
X141909000Y-84680952D01*
X141909000Y-84680952D02*
X141861380Y-84585714D01*
X141861380Y-84585714D02*
X141861380Y-84538095D01*
X141861380Y-84538095D02*
X141909000Y-84442857D01*
X141909000Y-84442857D02*
X142004238Y-84395238D01*
X142004238Y-84395238D02*
X142051857Y-84395238D01*
X142051857Y-84395238D02*
X142147095Y-84442857D01*
X142147095Y-84442857D02*
X142194714Y-84490476D01*
X142194714Y-84490476D02*
X142385190Y-84776190D01*
X142385190Y-84776190D02*
X142432809Y-84823809D01*
X142432809Y-84823809D02*
X142528047Y-84871428D01*
X142528047Y-84871428D02*
X142670904Y-84871428D01*
X142670904Y-84871428D02*
X142766142Y-84823809D01*
X142766142Y-84823809D02*
X142813761Y-84776190D01*
X142813761Y-84776190D02*
X142861380Y-84680952D01*
X142861380Y-84680952D02*
X142861380Y-84538095D01*
X142861380Y-84538095D02*
X142813761Y-84442857D01*
X142813761Y-84442857D02*
X142766142Y-84395238D01*
X142766142Y-84395238D02*
X142575666Y-84252381D01*
X142575666Y-84252381D02*
X142432809Y-84204762D01*
X142432809Y-84204762D02*
X142337571Y-84204762D01*
X142194714Y-83204762D02*
X142861380Y-83204762D01*
X141813761Y-83442857D02*
X142528047Y-83680952D01*
X142528047Y-83680952D02*
X142528047Y-83061905D01*
%TO.C,J3*%
X147197048Y-113238714D02*
X147197048Y-114238714D01*
X147197048Y-113286333D02*
X147292286Y-113238714D01*
X147292286Y-113238714D02*
X147482762Y-113238714D01*
X147482762Y-113238714D02*
X147578000Y-113286333D01*
X147578000Y-113286333D02*
X147625619Y-113333952D01*
X147625619Y-113333952D02*
X147673238Y-113429190D01*
X147673238Y-113429190D02*
X147673238Y-113714904D01*
X147673238Y-113714904D02*
X147625619Y-113810142D01*
X147625619Y-113810142D02*
X147578000Y-113857761D01*
X147578000Y-113857761D02*
X147482762Y-113905380D01*
X147482762Y-113905380D02*
X147292286Y-113905380D01*
X147292286Y-113905380D02*
X147197048Y-113857761D01*
X148101810Y-113905380D02*
X148101810Y-113238714D01*
X148101810Y-112905380D02*
X148054191Y-112953000D01*
X148054191Y-112953000D02*
X148101810Y-113000619D01*
X148101810Y-113000619D02*
X148149429Y-112953000D01*
X148149429Y-112953000D02*
X148101810Y-112905380D01*
X148101810Y-112905380D02*
X148101810Y-113000619D01*
X148578000Y-113238714D02*
X148578000Y-113905380D01*
X148578000Y-113333952D02*
X148625619Y-113286333D01*
X148625619Y-113286333D02*
X148720857Y-113238714D01*
X148720857Y-113238714D02*
X148863714Y-113238714D01*
X148863714Y-113238714D02*
X148958952Y-113286333D01*
X148958952Y-113286333D02*
X149006571Y-113381571D01*
X149006571Y-113381571D02*
X149006571Y-113905380D01*
X149435143Y-113857761D02*
X149530381Y-113905380D01*
X149530381Y-113905380D02*
X149720857Y-113905380D01*
X149720857Y-113905380D02*
X149816095Y-113857761D01*
X149816095Y-113857761D02*
X149863714Y-113762523D01*
X149863714Y-113762523D02*
X149863714Y-113714904D01*
X149863714Y-113714904D02*
X149816095Y-113619666D01*
X149816095Y-113619666D02*
X149720857Y-113572047D01*
X149720857Y-113572047D02*
X149578000Y-113572047D01*
X149578000Y-113572047D02*
X149482762Y-113524428D01*
X149482762Y-113524428D02*
X149435143Y-113429190D01*
X149435143Y-113429190D02*
X149435143Y-113381571D01*
X149435143Y-113381571D02*
X149482762Y-113286333D01*
X149482762Y-113286333D02*
X149578000Y-113238714D01*
X149578000Y-113238714D02*
X149720857Y-113238714D01*
X149720857Y-113238714D02*
X149816095Y-113286333D01*
X151416095Y-113905380D02*
X150844667Y-113905380D01*
X151130381Y-113905380D02*
X151130381Y-112905380D01*
X151130381Y-112905380D02*
X151035143Y-113048238D01*
X151035143Y-113048238D02*
X150939905Y-113143476D01*
X150939905Y-113143476D02*
X150844667Y-113191095D01*
X151844667Y-113524428D02*
X152606572Y-113524428D01*
X153511333Y-113238714D02*
X153511333Y-113905380D01*
X153273238Y-112857761D02*
X153035143Y-113572047D01*
X153035143Y-113572047D02*
X153654190Y-113572047D01*
D12*
%TO.C,J2*%
X138370000Y-95952000D02*
X139700000Y-95952000D01*
X138370000Y-97282000D02*
X138370000Y-95952000D01*
X138370000Y-98552000D02*
X138370000Y-106232000D01*
X138370000Y-98552000D02*
X141030000Y-98552000D01*
X138370000Y-106232000D02*
X141030000Y-106232000D01*
X141030000Y-98552000D02*
X141030000Y-106232000D01*
%TO.C,J4*%
X155254000Y-79442000D02*
X155254000Y-80772000D01*
X153924000Y-79442000D02*
X155254000Y-79442000D01*
X152654000Y-79442000D02*
X144974000Y-79442000D01*
X152654000Y-79442000D02*
X152654000Y-82102000D01*
X144974000Y-79442000D02*
X144974000Y-82102000D01*
X152654000Y-82102000D02*
X144974000Y-82102000D01*
%TO.C,S1*%
X155546500Y-100830000D02*
X155546500Y-99830000D01*
X155546500Y-99830000D02*
X154546500Y-100330000D01*
X154546500Y-100330000D02*
X155546500Y-100830000D01*
X154156500Y-105540000D02*
X145036500Y-105540000D01*
X154156500Y-97300000D02*
X152846500Y-97300000D01*
X154156500Y-84960000D02*
X154156500Y-105540000D01*
X152846500Y-104240000D02*
X146346500Y-104240000D01*
X152846500Y-97300000D02*
X152846500Y-104240000D01*
X152846500Y-93200000D02*
X154156500Y-93200000D01*
X152846500Y-93200000D02*
X152846500Y-93200000D01*
X152846500Y-86260000D02*
X152846500Y-93200000D01*
X146346500Y-104240000D02*
X146346500Y-86260000D01*
X146346500Y-86260000D02*
X152846500Y-86260000D01*
X145036500Y-105540000D02*
X145036500Y-84960000D01*
X145036500Y-84960000D02*
X154156500Y-84960000D01*
%TO.C,J1*%
X158182000Y-95952000D02*
X159512000Y-95952000D01*
X158182000Y-97282000D02*
X158182000Y-95952000D01*
X158182000Y-98552000D02*
X158182000Y-106232000D01*
X158182000Y-98552000D02*
X160842000Y-98552000D01*
X158182000Y-106232000D02*
X160842000Y-106232000D01*
X160842000Y-98552000D02*
X160842000Y-106232000D01*
%TO.C,J5*%
X138370000Y-84014000D02*
X139700000Y-84014000D01*
X138370000Y-85344000D02*
X138370000Y-84014000D01*
X138370000Y-86614000D02*
X138370000Y-94294000D01*
X138370000Y-86614000D02*
X141030000Y-86614000D01*
X138370000Y-94294000D02*
X141030000Y-94294000D01*
X141030000Y-86614000D02*
X141030000Y-94294000D01*
%TO.C,J3*%
X155254000Y-109668000D02*
X155254000Y-110998000D01*
X153924000Y-109668000D02*
X155254000Y-109668000D01*
X152654000Y-109668000D02*
X144974000Y-109668000D01*
X152654000Y-109668000D02*
X152654000Y-112328000D01*
X144974000Y-109668000D02*
X144974000Y-112328000D01*
X152654000Y-112328000D02*
X144974000Y-112328000D01*
%TD*%
M02*
