%TF.GenerationSoftware,KiCad,Pcbnew,(7.0.0)*%
%TF.CreationDate,2023-10-26T14:35:31-04:00*%
%TF.ProjectId,RibbonBreakout,52696262-6f6e-4427-9265-616b6f75742e,rev?*%
%TF.SameCoordinates,Original*%
%TF.FileFunction,Drillmap*%
%TF.FilePolarity,Positive*%
%FSLAX45Y45*%
G04 Gerber Fmt 4.5, Leading zero omitted, Abs format (unit mm)*
G04 Created by KiCad (PCBNEW (7.0.0)) date 2023-10-26 14:35:31*
%MOMM*%
%LPD*%
G01*
G04 APERTURE LIST*
%ADD10C,0.050000*%
%ADD11C,0.200000*%
%ADD12C,0.100000*%
G04 APERTURE END LIST*
D10*
X13411200Y-7645400D02*
X16560800Y-7645400D01*
X16560800Y-7645400D02*
X16560800Y-11506200D01*
X16560800Y-11506200D02*
X13411200Y-11506200D01*
X13411200Y-11506200D02*
X13411200Y-7645400D01*
D11*
D12*
X13920000Y-8484400D02*
X14020000Y-8584400D01*
X14020000Y-8484400D02*
X13920000Y-8584400D01*
X13920000Y-8738400D02*
X14020000Y-8838400D01*
X14020000Y-8738400D02*
X13920000Y-8838400D01*
X13920000Y-8992400D02*
X14020000Y-9092400D01*
X14020000Y-8992400D02*
X13920000Y-9092400D01*
X13920000Y-9246400D02*
X14020000Y-9346400D01*
X14020000Y-9246400D02*
X13920000Y-9346400D01*
X13920000Y-9678200D02*
X14020000Y-9778200D01*
X14020000Y-9678200D02*
X13920000Y-9778200D01*
X13920000Y-9932200D02*
X14020000Y-10032200D01*
X14020000Y-9932200D02*
X13920000Y-10032200D01*
X13920000Y-10186200D02*
X14020000Y-10286200D01*
X14020000Y-10186200D02*
X13920000Y-10286200D01*
X13920000Y-10440200D02*
X14020000Y-10540200D01*
X14020000Y-10440200D02*
X13920000Y-10540200D01*
X14580400Y-8027200D02*
X14680400Y-8127200D01*
X14680400Y-8027200D02*
X14580400Y-8127200D01*
X14580400Y-11049800D02*
X14680400Y-11149800D01*
X14680400Y-11049800D02*
X14580400Y-11149800D01*
X14782650Y-8967000D02*
X14882650Y-9067000D01*
X14882650Y-8967000D02*
X14782650Y-9067000D01*
X14782650Y-9221000D02*
X14882650Y-9321000D01*
X14882650Y-9221000D02*
X14782650Y-9321000D01*
X14782650Y-9475000D02*
X14882650Y-9575000D01*
X14882650Y-9475000D02*
X14782650Y-9575000D01*
X14782650Y-9729000D02*
X14882650Y-9829000D01*
X14882650Y-9729000D02*
X14782650Y-9829000D01*
X14782650Y-9983000D02*
X14882650Y-10083000D01*
X14882650Y-9983000D02*
X14782650Y-10083000D01*
X14834400Y-8027200D02*
X14934400Y-8127200D01*
X14934400Y-8027200D02*
X14834400Y-8127200D01*
X14834400Y-11049800D02*
X14934400Y-11149800D01*
X14934400Y-11049800D02*
X14834400Y-11149800D01*
X15036650Y-8967000D02*
X15136650Y-9067000D01*
X15136650Y-8967000D02*
X15036650Y-9067000D01*
X15036650Y-9221000D02*
X15136650Y-9321000D01*
X15136650Y-9221000D02*
X15036650Y-9321000D01*
X15036650Y-9475000D02*
X15136650Y-9575000D01*
X15136650Y-9475000D02*
X15036650Y-9575000D01*
X15036650Y-9729000D02*
X15136650Y-9829000D01*
X15136650Y-9729000D02*
X15036650Y-9829000D01*
X15036650Y-9983000D02*
X15136650Y-10083000D01*
X15136650Y-9983000D02*
X15036650Y-10083000D01*
X15088400Y-8027200D02*
X15188400Y-8127200D01*
X15188400Y-8027200D02*
X15088400Y-8127200D01*
X15088400Y-11049800D02*
X15188400Y-11149800D01*
X15188400Y-11049800D02*
X15088400Y-11149800D01*
X15342400Y-8027200D02*
X15442400Y-8127200D01*
X15442400Y-8027200D02*
X15342400Y-8127200D01*
X15342400Y-11049800D02*
X15442400Y-11149800D01*
X15442400Y-11049800D02*
X15342400Y-11149800D01*
X15901200Y-9678200D02*
X16001200Y-9778200D01*
X16001200Y-9678200D02*
X15901200Y-9778200D01*
X15901200Y-9932200D02*
X16001200Y-10032200D01*
X16001200Y-9932200D02*
X15901200Y-10032200D01*
X15901200Y-10186200D02*
X16001200Y-10286200D01*
X16001200Y-10186200D02*
X15901200Y-10286200D01*
X15901200Y-10440200D02*
X16001200Y-10540200D01*
X16001200Y-10440200D02*
X15901200Y-10540200D01*
D11*
X13656319Y-11802176D02*
X13656319Y-11602176D01*
X13656319Y-11602176D02*
X13703938Y-11602176D01*
X13703938Y-11602176D02*
X13732509Y-11611700D01*
X13732509Y-11611700D02*
X13751557Y-11630748D01*
X13751557Y-11630748D02*
X13761081Y-11649795D01*
X13761081Y-11649795D02*
X13770605Y-11687890D01*
X13770605Y-11687890D02*
X13770605Y-11716462D01*
X13770605Y-11716462D02*
X13761081Y-11754557D01*
X13761081Y-11754557D02*
X13751557Y-11773605D01*
X13751557Y-11773605D02*
X13732509Y-11792652D01*
X13732509Y-11792652D02*
X13703938Y-11802176D01*
X13703938Y-11802176D02*
X13656319Y-11802176D01*
X13856319Y-11802176D02*
X13856319Y-11668843D01*
X13856319Y-11706938D02*
X13865843Y-11687890D01*
X13865843Y-11687890D02*
X13875367Y-11678367D01*
X13875367Y-11678367D02*
X13894414Y-11668843D01*
X13894414Y-11668843D02*
X13913462Y-11668843D01*
X13980128Y-11802176D02*
X13980128Y-11668843D01*
X13980128Y-11602176D02*
X13970605Y-11611700D01*
X13970605Y-11611700D02*
X13980128Y-11621224D01*
X13980128Y-11621224D02*
X13989652Y-11611700D01*
X13989652Y-11611700D02*
X13980128Y-11602176D01*
X13980128Y-11602176D02*
X13980128Y-11621224D01*
X14103938Y-11802176D02*
X14084890Y-11792652D01*
X14084890Y-11792652D02*
X14075367Y-11773605D01*
X14075367Y-11773605D02*
X14075367Y-11602176D01*
X14208700Y-11802176D02*
X14189652Y-11792652D01*
X14189652Y-11792652D02*
X14180128Y-11773605D01*
X14180128Y-11773605D02*
X14180128Y-11602176D01*
X14404890Y-11802176D02*
X14404890Y-11602176D01*
X14404890Y-11602176D02*
X14471557Y-11745033D01*
X14471557Y-11745033D02*
X14538224Y-11602176D01*
X14538224Y-11602176D02*
X14538224Y-11802176D01*
X14719176Y-11802176D02*
X14719176Y-11697414D01*
X14719176Y-11697414D02*
X14709652Y-11678367D01*
X14709652Y-11678367D02*
X14690605Y-11668843D01*
X14690605Y-11668843D02*
X14652509Y-11668843D01*
X14652509Y-11668843D02*
X14633462Y-11678367D01*
X14719176Y-11792652D02*
X14700128Y-11802176D01*
X14700128Y-11802176D02*
X14652509Y-11802176D01*
X14652509Y-11802176D02*
X14633462Y-11792652D01*
X14633462Y-11792652D02*
X14623938Y-11773605D01*
X14623938Y-11773605D02*
X14623938Y-11754557D01*
X14623938Y-11754557D02*
X14633462Y-11735509D01*
X14633462Y-11735509D02*
X14652509Y-11725986D01*
X14652509Y-11725986D02*
X14700128Y-11725986D01*
X14700128Y-11725986D02*
X14719176Y-11716462D01*
X14814414Y-11668843D02*
X14814414Y-11868843D01*
X14814414Y-11678367D02*
X14833462Y-11668843D01*
X14833462Y-11668843D02*
X14871557Y-11668843D01*
X14871557Y-11668843D02*
X14890605Y-11678367D01*
X14890605Y-11678367D02*
X14900128Y-11687890D01*
X14900128Y-11687890D02*
X14909652Y-11706938D01*
X14909652Y-11706938D02*
X14909652Y-11764081D01*
X14909652Y-11764081D02*
X14900128Y-11783128D01*
X14900128Y-11783128D02*
X14890605Y-11792652D01*
X14890605Y-11792652D02*
X14871557Y-11802176D01*
X14871557Y-11802176D02*
X14833462Y-11802176D01*
X14833462Y-11802176D02*
X14814414Y-11792652D01*
X14995367Y-11783128D02*
X15004890Y-11792652D01*
X15004890Y-11792652D02*
X14995367Y-11802176D01*
X14995367Y-11802176D02*
X14985843Y-11792652D01*
X14985843Y-11792652D02*
X14995367Y-11783128D01*
X14995367Y-11783128D02*
X14995367Y-11802176D01*
X14995367Y-11678367D02*
X15004890Y-11687890D01*
X15004890Y-11687890D02*
X14995367Y-11697414D01*
X14995367Y-11697414D02*
X14985843Y-11687890D01*
X14985843Y-11687890D02*
X14995367Y-11678367D01*
X14995367Y-11678367D02*
X14995367Y-11697414D01*
D12*
X13308700Y-12098700D02*
X13408700Y-12198700D01*
X13408700Y-12098700D02*
X13308700Y-12198700D01*
D11*
X13761081Y-12222176D02*
X13646795Y-12222176D01*
X13703938Y-12222176D02*
X13703938Y-12022176D01*
X13703938Y-12022176D02*
X13684890Y-12050748D01*
X13684890Y-12050748D02*
X13665843Y-12069795D01*
X13665843Y-12069795D02*
X13646795Y-12079319D01*
X13846795Y-12203128D02*
X13856319Y-12212652D01*
X13856319Y-12212652D02*
X13846795Y-12222176D01*
X13846795Y-12222176D02*
X13837271Y-12212652D01*
X13837271Y-12212652D02*
X13846795Y-12203128D01*
X13846795Y-12203128D02*
X13846795Y-12222176D01*
X13980128Y-12022176D02*
X13999176Y-12022176D01*
X13999176Y-12022176D02*
X14018224Y-12031700D01*
X14018224Y-12031700D02*
X14027748Y-12041224D01*
X14027748Y-12041224D02*
X14037271Y-12060271D01*
X14037271Y-12060271D02*
X14046795Y-12098367D01*
X14046795Y-12098367D02*
X14046795Y-12145986D01*
X14046795Y-12145986D02*
X14037271Y-12184081D01*
X14037271Y-12184081D02*
X14027748Y-12203128D01*
X14027748Y-12203128D02*
X14018224Y-12212652D01*
X14018224Y-12212652D02*
X13999176Y-12222176D01*
X13999176Y-12222176D02*
X13980128Y-12222176D01*
X13980128Y-12222176D02*
X13961081Y-12212652D01*
X13961081Y-12212652D02*
X13951557Y-12203128D01*
X13951557Y-12203128D02*
X13942033Y-12184081D01*
X13942033Y-12184081D02*
X13932509Y-12145986D01*
X13932509Y-12145986D02*
X13932509Y-12098367D01*
X13932509Y-12098367D02*
X13942033Y-12060271D01*
X13942033Y-12060271D02*
X13951557Y-12041224D01*
X13951557Y-12041224D02*
X13961081Y-12031700D01*
X13961081Y-12031700D02*
X13980128Y-12022176D01*
X14170605Y-12022176D02*
X14189652Y-12022176D01*
X14189652Y-12022176D02*
X14208700Y-12031700D01*
X14208700Y-12031700D02*
X14218224Y-12041224D01*
X14218224Y-12041224D02*
X14227748Y-12060271D01*
X14227748Y-12060271D02*
X14237271Y-12098367D01*
X14237271Y-12098367D02*
X14237271Y-12145986D01*
X14237271Y-12145986D02*
X14227748Y-12184081D01*
X14227748Y-12184081D02*
X14218224Y-12203128D01*
X14218224Y-12203128D02*
X14208700Y-12212652D01*
X14208700Y-12212652D02*
X14189652Y-12222176D01*
X14189652Y-12222176D02*
X14170605Y-12222176D01*
X14170605Y-12222176D02*
X14151557Y-12212652D01*
X14151557Y-12212652D02*
X14142033Y-12203128D01*
X14142033Y-12203128D02*
X14132509Y-12184081D01*
X14132509Y-12184081D02*
X14122986Y-12145986D01*
X14122986Y-12145986D02*
X14122986Y-12098367D01*
X14122986Y-12098367D02*
X14132509Y-12060271D01*
X14132509Y-12060271D02*
X14142033Y-12041224D01*
X14142033Y-12041224D02*
X14151557Y-12031700D01*
X14151557Y-12031700D02*
X14170605Y-12022176D01*
X14361081Y-12022176D02*
X14380129Y-12022176D01*
X14380129Y-12022176D02*
X14399176Y-12031700D01*
X14399176Y-12031700D02*
X14408700Y-12041224D01*
X14408700Y-12041224D02*
X14418224Y-12060271D01*
X14418224Y-12060271D02*
X14427748Y-12098367D01*
X14427748Y-12098367D02*
X14427748Y-12145986D01*
X14427748Y-12145986D02*
X14418224Y-12184081D01*
X14418224Y-12184081D02*
X14408700Y-12203128D01*
X14408700Y-12203128D02*
X14399176Y-12212652D01*
X14399176Y-12212652D02*
X14380129Y-12222176D01*
X14380129Y-12222176D02*
X14361081Y-12222176D01*
X14361081Y-12222176D02*
X14342033Y-12212652D01*
X14342033Y-12212652D02*
X14332509Y-12203128D01*
X14332509Y-12203128D02*
X14322986Y-12184081D01*
X14322986Y-12184081D02*
X14313462Y-12145986D01*
X14313462Y-12145986D02*
X14313462Y-12098367D01*
X14313462Y-12098367D02*
X14322986Y-12060271D01*
X14322986Y-12060271D02*
X14332509Y-12041224D01*
X14332509Y-12041224D02*
X14342033Y-12031700D01*
X14342033Y-12031700D02*
X14361081Y-12022176D01*
X14513462Y-12222176D02*
X14513462Y-12088843D01*
X14513462Y-12107890D02*
X14522986Y-12098367D01*
X14522986Y-12098367D02*
X14542033Y-12088843D01*
X14542033Y-12088843D02*
X14570605Y-12088843D01*
X14570605Y-12088843D02*
X14589652Y-12098367D01*
X14589652Y-12098367D02*
X14599176Y-12117414D01*
X14599176Y-12117414D02*
X14599176Y-12222176D01*
X14599176Y-12117414D02*
X14608700Y-12098367D01*
X14608700Y-12098367D02*
X14627748Y-12088843D01*
X14627748Y-12088843D02*
X14656319Y-12088843D01*
X14656319Y-12088843D02*
X14675367Y-12098367D01*
X14675367Y-12098367D02*
X14684890Y-12117414D01*
X14684890Y-12117414D02*
X14684890Y-12222176D01*
X14780129Y-12222176D02*
X14780129Y-12088843D01*
X14780129Y-12107890D02*
X14789652Y-12098367D01*
X14789652Y-12098367D02*
X14808700Y-12088843D01*
X14808700Y-12088843D02*
X14837271Y-12088843D01*
X14837271Y-12088843D02*
X14856319Y-12098367D01*
X14856319Y-12098367D02*
X14865843Y-12117414D01*
X14865843Y-12117414D02*
X14865843Y-12222176D01*
X14865843Y-12117414D02*
X14875367Y-12098367D01*
X14875367Y-12098367D02*
X14894414Y-12088843D01*
X14894414Y-12088843D02*
X14922986Y-12088843D01*
X14922986Y-12088843D02*
X14942033Y-12098367D01*
X14942033Y-12098367D02*
X14951557Y-12117414D01*
X14951557Y-12117414D02*
X14951557Y-12222176D01*
X15309652Y-12012652D02*
X15138224Y-12269795D01*
X15534414Y-12022176D02*
X15553462Y-12022176D01*
X15553462Y-12022176D02*
X15572510Y-12031700D01*
X15572510Y-12031700D02*
X15582033Y-12041224D01*
X15582033Y-12041224D02*
X15591557Y-12060271D01*
X15591557Y-12060271D02*
X15601081Y-12098367D01*
X15601081Y-12098367D02*
X15601081Y-12145986D01*
X15601081Y-12145986D02*
X15591557Y-12184081D01*
X15591557Y-12184081D02*
X15582033Y-12203128D01*
X15582033Y-12203128D02*
X15572510Y-12212652D01*
X15572510Y-12212652D02*
X15553462Y-12222176D01*
X15553462Y-12222176D02*
X15534414Y-12222176D01*
X15534414Y-12222176D02*
X15515367Y-12212652D01*
X15515367Y-12212652D02*
X15505843Y-12203128D01*
X15505843Y-12203128D02*
X15496319Y-12184081D01*
X15496319Y-12184081D02*
X15486795Y-12145986D01*
X15486795Y-12145986D02*
X15486795Y-12098367D01*
X15486795Y-12098367D02*
X15496319Y-12060271D01*
X15496319Y-12060271D02*
X15505843Y-12041224D01*
X15505843Y-12041224D02*
X15515367Y-12031700D01*
X15515367Y-12031700D02*
X15534414Y-12022176D01*
X15686795Y-12203128D02*
X15696319Y-12212652D01*
X15696319Y-12212652D02*
X15686795Y-12222176D01*
X15686795Y-12222176D02*
X15677271Y-12212652D01*
X15677271Y-12212652D02*
X15686795Y-12203128D01*
X15686795Y-12203128D02*
X15686795Y-12222176D01*
X15820129Y-12022176D02*
X15839176Y-12022176D01*
X15839176Y-12022176D02*
X15858224Y-12031700D01*
X15858224Y-12031700D02*
X15867748Y-12041224D01*
X15867748Y-12041224D02*
X15877271Y-12060271D01*
X15877271Y-12060271D02*
X15886795Y-12098367D01*
X15886795Y-12098367D02*
X15886795Y-12145986D01*
X15886795Y-12145986D02*
X15877271Y-12184081D01*
X15877271Y-12184081D02*
X15867748Y-12203128D01*
X15867748Y-12203128D02*
X15858224Y-12212652D01*
X15858224Y-12212652D02*
X15839176Y-12222176D01*
X15839176Y-12222176D02*
X15820129Y-12222176D01*
X15820129Y-12222176D02*
X15801081Y-12212652D01*
X15801081Y-12212652D02*
X15791557Y-12203128D01*
X15791557Y-12203128D02*
X15782033Y-12184081D01*
X15782033Y-12184081D02*
X15772510Y-12145986D01*
X15772510Y-12145986D02*
X15772510Y-12098367D01*
X15772510Y-12098367D02*
X15782033Y-12060271D01*
X15782033Y-12060271D02*
X15791557Y-12041224D01*
X15791557Y-12041224D02*
X15801081Y-12031700D01*
X15801081Y-12031700D02*
X15820129Y-12022176D01*
X15953462Y-12022176D02*
X16077271Y-12022176D01*
X16077271Y-12022176D02*
X16010605Y-12098367D01*
X16010605Y-12098367D02*
X16039176Y-12098367D01*
X16039176Y-12098367D02*
X16058224Y-12107890D01*
X16058224Y-12107890D02*
X16067748Y-12117414D01*
X16067748Y-12117414D02*
X16077271Y-12136462D01*
X16077271Y-12136462D02*
X16077271Y-12184081D01*
X16077271Y-12184081D02*
X16067748Y-12203128D01*
X16067748Y-12203128D02*
X16058224Y-12212652D01*
X16058224Y-12212652D02*
X16039176Y-12222176D01*
X16039176Y-12222176D02*
X15982033Y-12222176D01*
X15982033Y-12222176D02*
X15962986Y-12212652D01*
X15962986Y-12212652D02*
X15953462Y-12203128D01*
X16172510Y-12222176D02*
X16210605Y-12222176D01*
X16210605Y-12222176D02*
X16229652Y-12212652D01*
X16229652Y-12212652D02*
X16239176Y-12203128D01*
X16239176Y-12203128D02*
X16258224Y-12174557D01*
X16258224Y-12174557D02*
X16267748Y-12136462D01*
X16267748Y-12136462D02*
X16267748Y-12060271D01*
X16267748Y-12060271D02*
X16258224Y-12041224D01*
X16258224Y-12041224D02*
X16248700Y-12031700D01*
X16248700Y-12031700D02*
X16229652Y-12022176D01*
X16229652Y-12022176D02*
X16191557Y-12022176D01*
X16191557Y-12022176D02*
X16172510Y-12031700D01*
X16172510Y-12031700D02*
X16162986Y-12041224D01*
X16162986Y-12041224D02*
X16153462Y-12060271D01*
X16153462Y-12060271D02*
X16153462Y-12107890D01*
X16153462Y-12107890D02*
X16162986Y-12126938D01*
X16162986Y-12126938D02*
X16172510Y-12136462D01*
X16172510Y-12136462D02*
X16191557Y-12145986D01*
X16191557Y-12145986D02*
X16229652Y-12145986D01*
X16229652Y-12145986D02*
X16248700Y-12136462D01*
X16248700Y-12136462D02*
X16258224Y-12126938D01*
X16258224Y-12126938D02*
X16267748Y-12107890D01*
X16439176Y-12088843D02*
X16439176Y-12222176D01*
X16391557Y-12012652D02*
X16343938Y-12155509D01*
X16343938Y-12155509D02*
X16467748Y-12155509D01*
X16534414Y-12022176D02*
X16534414Y-12060271D01*
X16610605Y-12022176D02*
X16610605Y-12060271D01*
X16873462Y-12298367D02*
X16863938Y-12288843D01*
X16863938Y-12288843D02*
X16844891Y-12260271D01*
X16844891Y-12260271D02*
X16835367Y-12241224D01*
X16835367Y-12241224D02*
X16825843Y-12212652D01*
X16825843Y-12212652D02*
X16816319Y-12165033D01*
X16816319Y-12165033D02*
X16816319Y-12126938D01*
X16816319Y-12126938D02*
X16825843Y-12079319D01*
X16825843Y-12079319D02*
X16835367Y-12050748D01*
X16835367Y-12050748D02*
X16844891Y-12031700D01*
X16844891Y-12031700D02*
X16863938Y-12003128D01*
X16863938Y-12003128D02*
X16873462Y-11993605D01*
X16930605Y-12022176D02*
X17054414Y-12022176D01*
X17054414Y-12022176D02*
X16987748Y-12098367D01*
X16987748Y-12098367D02*
X17016319Y-12098367D01*
X17016319Y-12098367D02*
X17035367Y-12107890D01*
X17035367Y-12107890D02*
X17044891Y-12117414D01*
X17044891Y-12117414D02*
X17054414Y-12136462D01*
X17054414Y-12136462D02*
X17054414Y-12184081D01*
X17054414Y-12184081D02*
X17044891Y-12203128D01*
X17044891Y-12203128D02*
X17035367Y-12212652D01*
X17035367Y-12212652D02*
X17016319Y-12222176D01*
X17016319Y-12222176D02*
X16959176Y-12222176D01*
X16959176Y-12222176D02*
X16940129Y-12212652D01*
X16940129Y-12212652D02*
X16930605Y-12203128D01*
X17178224Y-12022176D02*
X17197272Y-12022176D01*
X17197272Y-12022176D02*
X17216319Y-12031700D01*
X17216319Y-12031700D02*
X17225843Y-12041224D01*
X17225843Y-12041224D02*
X17235367Y-12060271D01*
X17235367Y-12060271D02*
X17244891Y-12098367D01*
X17244891Y-12098367D02*
X17244891Y-12145986D01*
X17244891Y-12145986D02*
X17235367Y-12184081D01*
X17235367Y-12184081D02*
X17225843Y-12203128D01*
X17225843Y-12203128D02*
X17216319Y-12212652D01*
X17216319Y-12212652D02*
X17197272Y-12222176D01*
X17197272Y-12222176D02*
X17178224Y-12222176D01*
X17178224Y-12222176D02*
X17159176Y-12212652D01*
X17159176Y-12212652D02*
X17149653Y-12203128D01*
X17149653Y-12203128D02*
X17140129Y-12184081D01*
X17140129Y-12184081D02*
X17130605Y-12145986D01*
X17130605Y-12145986D02*
X17130605Y-12098367D01*
X17130605Y-12098367D02*
X17140129Y-12060271D01*
X17140129Y-12060271D02*
X17149653Y-12041224D01*
X17149653Y-12041224D02*
X17159176Y-12031700D01*
X17159176Y-12031700D02*
X17178224Y-12022176D01*
X17450605Y-12222176D02*
X17450605Y-12022176D01*
X17536319Y-12222176D02*
X17536319Y-12117414D01*
X17536319Y-12117414D02*
X17526795Y-12098367D01*
X17526795Y-12098367D02*
X17507748Y-12088843D01*
X17507748Y-12088843D02*
X17479176Y-12088843D01*
X17479176Y-12088843D02*
X17460129Y-12098367D01*
X17460129Y-12098367D02*
X17450605Y-12107890D01*
X17660129Y-12222176D02*
X17641081Y-12212652D01*
X17641081Y-12212652D02*
X17631557Y-12203128D01*
X17631557Y-12203128D02*
X17622034Y-12184081D01*
X17622034Y-12184081D02*
X17622034Y-12126938D01*
X17622034Y-12126938D02*
X17631557Y-12107890D01*
X17631557Y-12107890D02*
X17641081Y-12098367D01*
X17641081Y-12098367D02*
X17660129Y-12088843D01*
X17660129Y-12088843D02*
X17688700Y-12088843D01*
X17688700Y-12088843D02*
X17707748Y-12098367D01*
X17707748Y-12098367D02*
X17717272Y-12107890D01*
X17717272Y-12107890D02*
X17726795Y-12126938D01*
X17726795Y-12126938D02*
X17726795Y-12184081D01*
X17726795Y-12184081D02*
X17717272Y-12203128D01*
X17717272Y-12203128D02*
X17707748Y-12212652D01*
X17707748Y-12212652D02*
X17688700Y-12222176D01*
X17688700Y-12222176D02*
X17660129Y-12222176D01*
X17841081Y-12222176D02*
X17822034Y-12212652D01*
X17822034Y-12212652D02*
X17812510Y-12193605D01*
X17812510Y-12193605D02*
X17812510Y-12022176D01*
X17993462Y-12212652D02*
X17974415Y-12222176D01*
X17974415Y-12222176D02*
X17936319Y-12222176D01*
X17936319Y-12222176D02*
X17917272Y-12212652D01*
X17917272Y-12212652D02*
X17907748Y-12193605D01*
X17907748Y-12193605D02*
X17907748Y-12117414D01*
X17907748Y-12117414D02*
X17917272Y-12098367D01*
X17917272Y-12098367D02*
X17936319Y-12088843D01*
X17936319Y-12088843D02*
X17974415Y-12088843D01*
X17974415Y-12088843D02*
X17993462Y-12098367D01*
X17993462Y-12098367D02*
X18002986Y-12117414D01*
X18002986Y-12117414D02*
X18002986Y-12136462D01*
X18002986Y-12136462D02*
X17907748Y-12155509D01*
X18079176Y-12212652D02*
X18098224Y-12222176D01*
X18098224Y-12222176D02*
X18136319Y-12222176D01*
X18136319Y-12222176D02*
X18155367Y-12212652D01*
X18155367Y-12212652D02*
X18164891Y-12193605D01*
X18164891Y-12193605D02*
X18164891Y-12184081D01*
X18164891Y-12184081D02*
X18155367Y-12165033D01*
X18155367Y-12165033D02*
X18136319Y-12155509D01*
X18136319Y-12155509D02*
X18107748Y-12155509D01*
X18107748Y-12155509D02*
X18088700Y-12145986D01*
X18088700Y-12145986D02*
X18079176Y-12126938D01*
X18079176Y-12126938D02*
X18079176Y-12117414D01*
X18079176Y-12117414D02*
X18088700Y-12098367D01*
X18088700Y-12098367D02*
X18107748Y-12088843D01*
X18107748Y-12088843D02*
X18136319Y-12088843D01*
X18136319Y-12088843D02*
X18155367Y-12098367D01*
X18231557Y-12298367D02*
X18241081Y-12288843D01*
X18241081Y-12288843D02*
X18260129Y-12260271D01*
X18260129Y-12260271D02*
X18269653Y-12241224D01*
X18269653Y-12241224D02*
X18279176Y-12212652D01*
X18279176Y-12212652D02*
X18288700Y-12165033D01*
X18288700Y-12165033D02*
X18288700Y-12126938D01*
X18288700Y-12126938D02*
X18279176Y-12079319D01*
X18279176Y-12079319D02*
X18269653Y-12050748D01*
X18269653Y-12050748D02*
X18260129Y-12031700D01*
X18260129Y-12031700D02*
X18241081Y-12003128D01*
X18241081Y-12003128D02*
X18231557Y-11993605D01*
M02*
