%TF.GenerationSoftware,KiCad,Pcbnew,9.0.6*%
%TF.CreationDate,2026-04-14T15:06:18-04:00*%
%TF.ProjectId,RibbonBreakout2,52696262-6f6e-4427-9265-616b6f757432,rev?*%
%TF.SameCoordinates,Original*%
%TF.FileFunction,Copper,L1,Top*%
%TF.FilePolarity,Positive*%
%FSLAX46Y46*%
G04 Gerber Fmt 4.6, Leading zero omitted, Abs format (unit mm)*
G04 Created by KiCad (PCBNEW 9.0.6) date 2026-04-14 15:06:18*
%MOMM*%
%LPD*%
G01*
G04 APERTURE LIST*
G04 Aperture macros list*
%AMRoundRect*
0 Rectangle with rounded corners*
0 $1 Rounding radius*
0 $2 $3 $4 $5 $6 $7 $8 $9 X,Y pos of 4 corners*
0 Add a 4 corners polygon primitive as box body*
4,1,4,$2,$3,$4,$5,$6,$7,$8,$9,$2,$3,0*
0 Add four circle primitives for the rounded corners*
1,1,$1+$1,$2,$3*
1,1,$1+$1,$4,$5*
1,1,$1+$1,$6,$7*
1,1,$1+$1,$8,$9*
0 Add four rect primitives between the rounded corners*
20,1,$1+$1,$2,$3,$4,$5,0*
20,1,$1+$1,$4,$5,$6,$7,0*
20,1,$1+$1,$6,$7,$8,$9,0*
20,1,$1+$1,$8,$9,$2,$3,0*%
G04 Aperture macros list end*
%TA.AperFunction,ComponentPad*%
%ADD10R,1.700000X1.700000*%
%TD*%
%TA.AperFunction,ComponentPad*%
%ADD11C,1.700000*%
%TD*%
%TA.AperFunction,ComponentPad*%
%ADD12RoundRect,0.250000X0.600000X0.600000X-0.600000X0.600000X-0.600000X-0.600000X0.600000X-0.600000X0*%
%TD*%
%TA.AperFunction,Conductor*%
%ADD13C,0.350000*%
%TD*%
G04 APERTURE END LIST*
D10*
%TO.P,Line7,1*%
%TO.N,GND*%
X152010000Y-85340000D03*
D11*
%TO.P,Line7,2*%
%TO.N,Line7*%
X149470000Y-85340000D03*
%TO.P,Line7,3*%
%TO.N,+5v*%
X146930000Y-85340000D03*
%TO.P,Line7,4*%
%TO.N,GND*%
X144390000Y-85340000D03*
%TD*%
D10*
%TO.P,Line2,1*%
%TO.N,GND*%
X152010000Y-106540000D03*
D11*
%TO.P,Line2,2*%
%TO.N,Line2*%
X149470000Y-106540000D03*
%TO.P,Line2,3*%
%TO.N,+5v*%
X146930000Y-106540000D03*
%TO.P,Line2,4*%
%TO.N,GND*%
X144390000Y-106540000D03*
%TD*%
D12*
%TO.P,S1,1*%
%TO.N,Line1*%
X161700000Y-100900000D03*
D11*
%TO.P,S1,2*%
%TO.N,Line2*%
X159160000Y-100900000D03*
%TO.P,S1,3*%
%TO.N,Line3*%
X161700000Y-98360000D03*
%TO.P,S1,4*%
%TO.N,Line4*%
X159160000Y-98360000D03*
%TO.P,S1,5*%
%TO.N,GND*%
X161700000Y-95820000D03*
%TO.P,S1,6*%
%TO.N,+5v*%
X159160000Y-95820000D03*
%TO.P,S1,7*%
%TO.N,Line5*%
X161700000Y-93280000D03*
%TO.P,S1,8*%
%TO.N,Line6*%
X159160000Y-93280000D03*
%TO.P,S1,9*%
%TO.N,Line7*%
X161700000Y-90740000D03*
%TO.P,S1,10*%
%TO.N,Line8*%
X159160000Y-90740000D03*
%TD*%
D10*
%TO.P,Line8,1*%
%TO.N,GND*%
X152010000Y-81240000D03*
D11*
%TO.P,Line8,2*%
%TO.N,Line8*%
X149470000Y-81240000D03*
%TO.P,Line8,3*%
%TO.N,+5v*%
X146930000Y-81240000D03*
%TO.P,Line8,4*%
%TO.N,GND*%
X144390000Y-81240000D03*
%TD*%
D10*
%TO.P,Line1,1*%
%TO.N,GND*%
X152070000Y-110840000D03*
D11*
%TO.P,Line1,2*%
%TO.N,Line1*%
X149530000Y-110840000D03*
%TO.P,Line1,3*%
%TO.N,+5v*%
X146990000Y-110840000D03*
%TO.P,Line1,4*%
%TO.N,GND*%
X144450000Y-110840000D03*
%TD*%
D10*
%TO.P,Line6,1*%
%TO.N,GND*%
X152010000Y-89440000D03*
D11*
%TO.P,Line6,2*%
%TO.N,Line6*%
X149470000Y-89440000D03*
%TO.P,Line6,3*%
%TO.N,+5v*%
X146930000Y-89440000D03*
%TO.P,Line6,4*%
%TO.N,GND*%
X144390000Y-89440000D03*
%TD*%
D10*
%TO.P,Line5,1*%
%TO.N,GND*%
X152010000Y-93540000D03*
D11*
%TO.P,Line5,2*%
%TO.N,Line5*%
X149470000Y-93540000D03*
%TO.P,Line5,3*%
%TO.N,+5v*%
X146930000Y-93540000D03*
%TO.P,Line5,4*%
%TO.N,GND*%
X144390000Y-93540000D03*
%TD*%
D10*
%TO.P,Line4,1*%
%TO.N,GND*%
X152010000Y-97740000D03*
D11*
%TO.P,Line4,2*%
%TO.N,Line4*%
X149470000Y-97740000D03*
%TO.P,Line4,3*%
%TO.N,+5v*%
X146930000Y-97740000D03*
%TO.P,Line4,4*%
%TO.N,GND*%
X144390000Y-97740000D03*
%TD*%
D10*
%TO.P,Line3,1*%
%TO.N,GND*%
X152010000Y-102240000D03*
D11*
%TO.P,Line3,2*%
%TO.N,Line3*%
X149470000Y-102240000D03*
%TO.P,Line3,3*%
%TO.N,+5v*%
X146930000Y-102240000D03*
%TO.P,Line3,4*%
%TO.N,GND*%
X144390000Y-102240000D03*
%TD*%
D13*
%TO.N,Line2*%
X155660000Y-104400000D02*
X159160000Y-100900000D01*
X151610000Y-104400000D02*
X155660000Y-104400000D01*
X149470000Y-106540000D02*
X151610000Y-104400000D01*
%TO.N,Line3*%
X160386000Y-99674000D02*
X161700000Y-98360000D01*
X152036000Y-99674000D02*
X160386000Y-99674000D01*
X149470000Y-102240000D02*
X152036000Y-99674000D01*
%TO.N,Line6*%
X151430000Y-91400000D02*
X157280000Y-91400000D01*
X149470000Y-89440000D02*
X151430000Y-91400000D01*
X157280000Y-91400000D02*
X159160000Y-93280000D01*
%TO.N,Line7*%
X152344000Y-88214000D02*
X159174000Y-88214000D01*
X149470000Y-85340000D02*
X152344000Y-88214000D01*
X159174000Y-88214000D02*
X161700000Y-90740000D01*
%TD*%
%TA.AperFunction,Conductor*%
%TO.N,+5v*%
G36*
X160275270Y-96581717D02*
G01*
X160275270Y-96581716D01*
X160314622Y-96527555D01*
X160319232Y-96518507D01*
X160367205Y-96467709D01*
X160435025Y-96450912D01*
X160501161Y-96473447D01*
X160540204Y-96518504D01*
X160544949Y-96527817D01*
X160669890Y-96699786D01*
X160820213Y-96850109D01*
X160992182Y-96975050D01*
X161000946Y-96979516D01*
X161051742Y-97027491D01*
X161068536Y-97095312D01*
X161045998Y-97161447D01*
X161000946Y-97200484D01*
X160992182Y-97204949D01*
X160820213Y-97329890D01*
X160669890Y-97480213D01*
X160544949Y-97652182D01*
X160540484Y-97660946D01*
X160492509Y-97711742D01*
X160424688Y-97728536D01*
X160358553Y-97705998D01*
X160319516Y-97660946D01*
X160315050Y-97652182D01*
X160190109Y-97480213D01*
X160039786Y-97329890D01*
X159867817Y-97204949D01*
X159858504Y-97200204D01*
X159807707Y-97152230D01*
X159790912Y-97084409D01*
X159813449Y-97018274D01*
X159858507Y-96979232D01*
X159867555Y-96974622D01*
X159921716Y-96935270D01*
X159921717Y-96935270D01*
X159289408Y-96302962D01*
X159352993Y-96285925D01*
X159467007Y-96220099D01*
X159560099Y-96127007D01*
X159625925Y-96012993D01*
X159642962Y-95949408D01*
X160275270Y-96581717D01*
G37*
%TD.AperFunction*%
%TA.AperFunction,Conductor*%
G36*
X160501444Y-93933999D02*
G01*
X160540486Y-93979056D01*
X160544951Y-93987820D01*
X160669890Y-94159786D01*
X160820213Y-94310109D01*
X160992182Y-94435050D01*
X161000946Y-94439516D01*
X161051742Y-94487491D01*
X161068536Y-94555312D01*
X161045998Y-94621447D01*
X161000946Y-94660484D01*
X160992182Y-94664949D01*
X160820213Y-94789890D01*
X160669890Y-94940213D01*
X160544949Y-95112182D01*
X160540202Y-95121499D01*
X160492227Y-95172293D01*
X160424405Y-95189087D01*
X160358271Y-95166548D01*
X160319234Y-95121495D01*
X160314626Y-95112452D01*
X160275270Y-95058282D01*
X160275269Y-95058282D01*
X159642962Y-95690590D01*
X159625925Y-95627007D01*
X159560099Y-95512993D01*
X159467007Y-95419901D01*
X159352993Y-95354075D01*
X159289409Y-95337037D01*
X159921716Y-94704728D01*
X159867547Y-94665373D01*
X159867547Y-94665372D01*
X159858500Y-94660763D01*
X159807706Y-94612788D01*
X159790912Y-94544966D01*
X159813451Y-94478832D01*
X159858508Y-94439793D01*
X159867816Y-94435051D01*
X159947007Y-94377515D01*
X160039786Y-94310109D01*
X160039788Y-94310106D01*
X160039792Y-94310104D01*
X160190104Y-94159792D01*
X160190106Y-94159788D01*
X160190109Y-94159786D01*
X160315048Y-93987820D01*
X160315047Y-93987820D01*
X160315051Y-93987816D01*
X160319514Y-93979054D01*
X160367488Y-93928259D01*
X160435308Y-93911463D01*
X160501444Y-93933999D01*
G37*
%TD.AperFunction*%
%TA.AperFunction,Conductor*%
G36*
X165343039Y-76719685D02*
G01*
X165388794Y-76772489D01*
X165400000Y-76824000D01*
X165400000Y-114576398D01*
X165380315Y-114643437D01*
X165327511Y-114689192D01*
X165276399Y-114700397D01*
X134424726Y-114799598D01*
X134357623Y-114780129D01*
X134311699Y-114727473D01*
X134300327Y-114675274D01*
X134300587Y-114576398D01*
X134308964Y-111384711D01*
X135817500Y-111384711D01*
X135817500Y-111627288D01*
X135849161Y-111867785D01*
X135911947Y-112102104D01*
X135948562Y-112190499D01*
X136004776Y-112326212D01*
X136126064Y-112536289D01*
X136126066Y-112536292D01*
X136126067Y-112536293D01*
X136273733Y-112728736D01*
X136273739Y-112728743D01*
X136445256Y-112900260D01*
X136445262Y-112900265D01*
X136637711Y-113047936D01*
X136847788Y-113169224D01*
X137071900Y-113262054D01*
X137306211Y-113324838D01*
X137486586Y-113348584D01*
X137546711Y-113356500D01*
X137546712Y-113356500D01*
X137789289Y-113356500D01*
X137837388Y-113350167D01*
X138029789Y-113324838D01*
X138264100Y-113262054D01*
X138488212Y-113169224D01*
X138698289Y-113047936D01*
X138890738Y-112900265D01*
X139062265Y-112728738D01*
X139209936Y-112536289D01*
X139331224Y-112326212D01*
X139424054Y-112102100D01*
X139486838Y-111867789D01*
X139518500Y-111627288D01*
X139518500Y-111384712D01*
X139486838Y-111144211D01*
X139424054Y-110909900D01*
X139424052Y-110909895D01*
X139368713Y-110776294D01*
X139351075Y-110733713D01*
X143099500Y-110733713D01*
X143099500Y-110946286D01*
X143132753Y-111156239D01*
X143198444Y-111358414D01*
X143294951Y-111547820D01*
X143419890Y-111719786D01*
X143570213Y-111870109D01*
X143742179Y-111995048D01*
X143742181Y-111995049D01*
X143742184Y-111995051D01*
X143931588Y-112091557D01*
X144133757Y-112157246D01*
X144343713Y-112190500D01*
X144343714Y-112190500D01*
X144556286Y-112190500D01*
X144556287Y-112190500D01*
X144766243Y-112157246D01*
X144968412Y-112091557D01*
X145157816Y-111995051D01*
X145244138Y-111932335D01*
X145329786Y-111870109D01*
X145329788Y-111870106D01*
X145329792Y-111870104D01*
X145480104Y-111719792D01*
X145480106Y-111719788D01*
X145480109Y-111719786D01*
X145565890Y-111601717D01*
X145605051Y-111547816D01*
X145609793Y-111538508D01*
X145657763Y-111487711D01*
X145725583Y-111470911D01*
X145791719Y-111493445D01*
X145830763Y-111538500D01*
X145835373Y-111547547D01*
X145874728Y-111601716D01*
X146507037Y-110969408D01*
X146524075Y-111032993D01*
X146589901Y-111147007D01*
X146682993Y-111240099D01*
X146797007Y-111305925D01*
X146860590Y-111322962D01*
X146228282Y-111955269D01*
X146228282Y-111955270D01*
X146282449Y-111994624D01*
X146471782Y-112091095D01*
X146673870Y-112156757D01*
X146883754Y-112190000D01*
X147096246Y-112190000D01*
X147306127Y-112156757D01*
X147306130Y-112156757D01*
X147508217Y-112091095D01*
X147697554Y-111994622D01*
X147751716Y-111955270D01*
X147751717Y-111955270D01*
X147119408Y-111322962D01*
X147182993Y-111305925D01*
X147297007Y-111240099D01*
X147390099Y-111147007D01*
X147455925Y-111032993D01*
X147472962Y-110969409D01*
X148105270Y-111601717D01*
X148105270Y-111601716D01*
X148144622Y-111547555D01*
X148149232Y-111538507D01*
X148197205Y-111487709D01*
X148265025Y-111470912D01*
X148331161Y-111493447D01*
X148370204Y-111538504D01*
X148374949Y-111547817D01*
X148499890Y-111719786D01*
X148650213Y-111870109D01*
X148822179Y-111995048D01*
X148822181Y-111995049D01*
X148822184Y-111995051D01*
X149011588Y-112091557D01*
X149213757Y-112157246D01*
X149423713Y-112190500D01*
X149423714Y-112190500D01*
X149636286Y-112190500D01*
X149636287Y-112190500D01*
X149846243Y-112157246D01*
X150048412Y-112091557D01*
X150237816Y-111995051D01*
X150409792Y-111870104D01*
X150523329Y-111756566D01*
X150584648Y-111723084D01*
X150654340Y-111728068D01*
X150710274Y-111769939D01*
X150727189Y-111800917D01*
X150776202Y-111932328D01*
X150776206Y-111932335D01*
X150862452Y-112047544D01*
X150862455Y-112047547D01*
X150977664Y-112133793D01*
X150977671Y-112133797D01*
X151112517Y-112184091D01*
X151112516Y-112184091D01*
X151119444Y-112184835D01*
X151172127Y-112190500D01*
X152967872Y-112190499D01*
X153027483Y-112184091D01*
X153162331Y-112133796D01*
X153277546Y-112047546D01*
X153363796Y-111932331D01*
X153414091Y-111797483D01*
X153420500Y-111737873D01*
X153420500Y-111384711D01*
X160201500Y-111384711D01*
X160201500Y-111627288D01*
X160233161Y-111867785D01*
X160295947Y-112102104D01*
X160332562Y-112190499D01*
X160388776Y-112326212D01*
X160510064Y-112536289D01*
X160510066Y-112536292D01*
X160510067Y-112536293D01*
X160657733Y-112728736D01*
X160657739Y-112728743D01*
X160829256Y-112900260D01*
X160829262Y-112900265D01*
X161021711Y-113047936D01*
X161231788Y-113169224D01*
X161455900Y-113262054D01*
X161690211Y-113324838D01*
X161870586Y-113348584D01*
X161930711Y-113356500D01*
X161930712Y-113356500D01*
X162173289Y-113356500D01*
X162221388Y-113350167D01*
X162413789Y-113324838D01*
X162648100Y-113262054D01*
X162872212Y-113169224D01*
X163082289Y-113047936D01*
X163274738Y-112900265D01*
X163446265Y-112728738D01*
X163593936Y-112536289D01*
X163715224Y-112326212D01*
X163808054Y-112102100D01*
X163870838Y-111867789D01*
X163902500Y-111627288D01*
X163902500Y-111384712D01*
X163870838Y-111144211D01*
X163808054Y-110909900D01*
X163806366Y-110905826D01*
X163779101Y-110840001D01*
X163715224Y-110685788D01*
X163593936Y-110475711D01*
X163446265Y-110283262D01*
X163446260Y-110283256D01*
X163274743Y-110111739D01*
X163274736Y-110111733D01*
X163082293Y-109964067D01*
X163082292Y-109964066D01*
X163082289Y-109964064D01*
X162872212Y-109842776D01*
X162872205Y-109842773D01*
X162648104Y-109749947D01*
X162413785Y-109687161D01*
X162173289Y-109655500D01*
X162173288Y-109655500D01*
X161930712Y-109655500D01*
X161930711Y-109655500D01*
X161690214Y-109687161D01*
X161455895Y-109749947D01*
X161231794Y-109842773D01*
X161231785Y-109842777D01*
X161021706Y-109964067D01*
X160829263Y-110111733D01*
X160829256Y-110111739D01*
X160657739Y-110283256D01*
X160657733Y-110283263D01*
X160510067Y-110475706D01*
X160388777Y-110685785D01*
X160388773Y-110685794D01*
X160295947Y-110909895D01*
X160233161Y-111144214D01*
X160201500Y-111384711D01*
X153420500Y-111384711D01*
X153420499Y-110840000D01*
X153420499Y-109942129D01*
X153420498Y-109942123D01*
X153414091Y-109882516D01*
X153363797Y-109747671D01*
X153363793Y-109747664D01*
X153277547Y-109632455D01*
X153277544Y-109632452D01*
X153162335Y-109546206D01*
X153162328Y-109546202D01*
X153027482Y-109495908D01*
X153027483Y-109495908D01*
X152967883Y-109489501D01*
X152967881Y-109489500D01*
X152967873Y-109489500D01*
X152967864Y-109489500D01*
X151172129Y-109489500D01*
X151172123Y-109489501D01*
X151112516Y-109495908D01*
X150977671Y-109546202D01*
X150977664Y-109546206D01*
X150862455Y-109632452D01*
X150862452Y-109632455D01*
X150776206Y-109747664D01*
X150776203Y-109747669D01*
X150727189Y-109879083D01*
X150685317Y-109935016D01*
X150619853Y-109959433D01*
X150551580Y-109944581D01*
X150523326Y-109923430D01*
X150409786Y-109809890D01*
X150237820Y-109684951D01*
X150048414Y-109588444D01*
X150048413Y-109588443D01*
X150048412Y-109588443D01*
X149846243Y-109522754D01*
X149846241Y-109522753D01*
X149846240Y-109522753D01*
X149684957Y-109497208D01*
X149636287Y-109489500D01*
X149423713Y-109489500D01*
X149375042Y-109497208D01*
X149213760Y-109522753D01*
X149011585Y-109588444D01*
X148822179Y-109684951D01*
X148650213Y-109809890D01*
X148499890Y-109960213D01*
X148374949Y-110132182D01*
X148370202Y-110141499D01*
X148322227Y-110192293D01*
X148254405Y-110209087D01*
X148188271Y-110186548D01*
X148149234Y-110141495D01*
X148144626Y-110132452D01*
X148105270Y-110078282D01*
X148105269Y-110078282D01*
X147472962Y-110710590D01*
X147455925Y-110647007D01*
X147390099Y-110532993D01*
X147297007Y-110439901D01*
X147182993Y-110374075D01*
X147119409Y-110357037D01*
X147751716Y-109724728D01*
X147697550Y-109685375D01*
X147508217Y-109588904D01*
X147306129Y-109523242D01*
X147096246Y-109490000D01*
X146883754Y-109490000D01*
X146673872Y-109523242D01*
X146673869Y-109523242D01*
X146471782Y-109588904D01*
X146282439Y-109685380D01*
X146228282Y-109724727D01*
X146228282Y-109724728D01*
X146860591Y-110357037D01*
X146797007Y-110374075D01*
X146682993Y-110439901D01*
X146589901Y-110532993D01*
X146524075Y-110647007D01*
X146507037Y-110710591D01*
X145874728Y-110078282D01*
X145874727Y-110078282D01*
X145835380Y-110132440D01*
X145835376Y-110132446D01*
X145830760Y-110141505D01*
X145782781Y-110192297D01*
X145714959Y-110209087D01*
X145648826Y-110186543D01*
X145609794Y-110141493D01*
X145605051Y-110132184D01*
X145605049Y-110132181D01*
X145605048Y-110132179D01*
X145480109Y-109960213D01*
X145329786Y-109809890D01*
X145157820Y-109684951D01*
X144968414Y-109588444D01*
X144968413Y-109588443D01*
X144968412Y-109588443D01*
X144766243Y-109522754D01*
X144766241Y-109522753D01*
X144766240Y-109522753D01*
X144604957Y-109497208D01*
X144556287Y-109489500D01*
X144343713Y-109489500D01*
X144295042Y-109497208D01*
X144133760Y-109522753D01*
X143931585Y-109588444D01*
X143742179Y-109684951D01*
X143570213Y-109809890D01*
X143419890Y-109960213D01*
X143294951Y-110132179D01*
X143198444Y-110321585D01*
X143132753Y-110523760D01*
X143099500Y-110733713D01*
X139351075Y-110733713D01*
X139331226Y-110685794D01*
X139331224Y-110685788D01*
X139209936Y-110475711D01*
X139062265Y-110283262D01*
X139062260Y-110283256D01*
X138890743Y-110111739D01*
X138890736Y-110111733D01*
X138698293Y-109964067D01*
X138698292Y-109964066D01*
X138698289Y-109964064D01*
X138488212Y-109842776D01*
X138488205Y-109842773D01*
X138264104Y-109749947D01*
X138029785Y-109687161D01*
X137789289Y-109655500D01*
X137789288Y-109655500D01*
X137546712Y-109655500D01*
X137546711Y-109655500D01*
X137306214Y-109687161D01*
X137071895Y-109749947D01*
X136847794Y-109842773D01*
X136847785Y-109842777D01*
X136637706Y-109964067D01*
X136445263Y-110111733D01*
X136445256Y-110111739D01*
X136273739Y-110283256D01*
X136273733Y-110283263D01*
X136126067Y-110475706D01*
X136004777Y-110685785D01*
X136004773Y-110685794D01*
X135911947Y-110909895D01*
X135849161Y-111144214D01*
X135817500Y-111384711D01*
X134308964Y-111384711D01*
X134377601Y-85233713D01*
X143039500Y-85233713D01*
X143039500Y-85446286D01*
X143072753Y-85656239D01*
X143138444Y-85858414D01*
X143234951Y-86047820D01*
X143359890Y-86219786D01*
X143510213Y-86370109D01*
X143682179Y-86495048D01*
X143682181Y-86495049D01*
X143682184Y-86495051D01*
X143871588Y-86591557D01*
X144073757Y-86657246D01*
X144283713Y-86690500D01*
X144283714Y-86690500D01*
X144496286Y-86690500D01*
X144496287Y-86690500D01*
X144706243Y-86657246D01*
X144908412Y-86591557D01*
X145097816Y-86495051D01*
X145184138Y-86432335D01*
X145269786Y-86370109D01*
X145269788Y-86370106D01*
X145269792Y-86370104D01*
X145420104Y-86219792D01*
X145420106Y-86219788D01*
X145420109Y-86219786D01*
X145505890Y-86101717D01*
X145545051Y-86047816D01*
X145549793Y-86038508D01*
X145597763Y-85987711D01*
X145665583Y-85970911D01*
X145731719Y-85993445D01*
X145770763Y-86038500D01*
X145775373Y-86047547D01*
X145814728Y-86101716D01*
X146447037Y-85469408D01*
X146464075Y-85532993D01*
X146529901Y-85647007D01*
X146622993Y-85740099D01*
X146737007Y-85805925D01*
X146800590Y-85822962D01*
X146168282Y-86455269D01*
X146168282Y-86455270D01*
X146222449Y-86494624D01*
X146411782Y-86591095D01*
X146613870Y-86656757D01*
X146823754Y-86690000D01*
X147036246Y-86690000D01*
X147246127Y-86656757D01*
X147246130Y-86656757D01*
X147448217Y-86591095D01*
X147637554Y-86494622D01*
X147691716Y-86455270D01*
X147691717Y-86455270D01*
X147059408Y-85822962D01*
X147122993Y-85805925D01*
X147237007Y-85740099D01*
X147330099Y-85647007D01*
X147395925Y-85532993D01*
X147412962Y-85469409D01*
X148045270Y-86101717D01*
X148045270Y-86101716D01*
X148084622Y-86047555D01*
X148089232Y-86038507D01*
X148137205Y-85987709D01*
X148205025Y-85970912D01*
X148271161Y-85993447D01*
X148310204Y-86038504D01*
X148314949Y-86047817D01*
X148439890Y-86219786D01*
X148590213Y-86370109D01*
X148762179Y-86495048D01*
X148762181Y-86495049D01*
X148762184Y-86495051D01*
X148951588Y-86591557D01*
X149153757Y-86657246D01*
X149363713Y-86690500D01*
X149363714Y-86690500D01*
X149576286Y-86690500D01*
X149576287Y-86690500D01*
X149763293Y-86660881D01*
X149832587Y-86669836D01*
X149870372Y-86695673D01*
X151074927Y-87900228D01*
X151108412Y-87961551D01*
X151103428Y-88031243D01*
X151061556Y-88087176D01*
X151030579Y-88104091D01*
X150917671Y-88146202D01*
X150917664Y-88146206D01*
X150802455Y-88232452D01*
X150802452Y-88232455D01*
X150716206Y-88347664D01*
X150716203Y-88347669D01*
X150667189Y-88479083D01*
X150625317Y-88535016D01*
X150559853Y-88559433D01*
X150491580Y-88544581D01*
X150463326Y-88523430D01*
X150349786Y-88409890D01*
X150177820Y-88284951D01*
X149988414Y-88188444D01*
X149988413Y-88188443D01*
X149988412Y-88188443D01*
X149786243Y-88122754D01*
X149786241Y-88122753D01*
X149786240Y-88122753D01*
X149624957Y-88097208D01*
X149576287Y-88089500D01*
X149363713Y-88089500D01*
X149315042Y-88097208D01*
X149153760Y-88122753D01*
X148951585Y-88188444D01*
X148762179Y-88284951D01*
X148590213Y-88409890D01*
X148439890Y-88560213D01*
X148314949Y-88732182D01*
X148310202Y-88741499D01*
X148262227Y-88792293D01*
X148194405Y-88809087D01*
X148128271Y-88786548D01*
X148089234Y-88741495D01*
X148084626Y-88732452D01*
X148045270Y-88678282D01*
X148045269Y-88678282D01*
X147412962Y-89310590D01*
X147395925Y-89247007D01*
X147330099Y-89132993D01*
X147237007Y-89039901D01*
X147122993Y-88974075D01*
X147059409Y-88957037D01*
X147691716Y-88324728D01*
X147637550Y-88285375D01*
X147448217Y-88188904D01*
X147246129Y-88123242D01*
X147036246Y-88090000D01*
X146823754Y-88090000D01*
X146613872Y-88123242D01*
X146613869Y-88123242D01*
X146411782Y-88188904D01*
X146222439Y-88285380D01*
X146168282Y-88324727D01*
X146168282Y-88324728D01*
X146800591Y-88957037D01*
X146737007Y-88974075D01*
X146622993Y-89039901D01*
X146529901Y-89132993D01*
X146464075Y-89247007D01*
X146447037Y-89310591D01*
X145814728Y-88678282D01*
X145814727Y-88678282D01*
X145775380Y-88732440D01*
X145775376Y-88732446D01*
X145770760Y-88741505D01*
X145722781Y-88792297D01*
X145654959Y-88809087D01*
X145588826Y-88786543D01*
X145549794Y-88741493D01*
X145545051Y-88732184D01*
X145545049Y-88732181D01*
X145545048Y-88732179D01*
X145420109Y-88560213D01*
X145269786Y-88409890D01*
X145097820Y-88284951D01*
X144908414Y-88188444D01*
X144908413Y-88188443D01*
X144908412Y-88188443D01*
X144706243Y-88122754D01*
X144706241Y-88122753D01*
X144706240Y-88122753D01*
X144544957Y-88097208D01*
X144496287Y-88089500D01*
X144283713Y-88089500D01*
X144235042Y-88097208D01*
X144073760Y-88122753D01*
X143871585Y-88188444D01*
X143682179Y-88284951D01*
X143510213Y-88409890D01*
X143359890Y-88560213D01*
X143234951Y-88732179D01*
X143138444Y-88921585D01*
X143072753Y-89123760D01*
X143053233Y-89247007D01*
X143039500Y-89333713D01*
X143039500Y-89546287D01*
X143072754Y-89756243D01*
X143106534Y-89860208D01*
X143138444Y-89958414D01*
X143234951Y-90147820D01*
X143359890Y-90319786D01*
X143510213Y-90470109D01*
X143682179Y-90595048D01*
X143682181Y-90595049D01*
X143682184Y-90595051D01*
X143871588Y-90691557D01*
X144073757Y-90757246D01*
X144283713Y-90790500D01*
X144283714Y-90790500D01*
X144496286Y-90790500D01*
X144496287Y-90790500D01*
X144706243Y-90757246D01*
X144908412Y-90691557D01*
X145097816Y-90595051D01*
X145173431Y-90540114D01*
X145269786Y-90470109D01*
X145269788Y-90470106D01*
X145269792Y-90470104D01*
X145420104Y-90319792D01*
X145420106Y-90319788D01*
X145420109Y-90319786D01*
X145505890Y-90201717D01*
X145545051Y-90147816D01*
X145549793Y-90138508D01*
X145597763Y-90087711D01*
X145665583Y-90070911D01*
X145731719Y-90093445D01*
X145770763Y-90138500D01*
X145775373Y-90147547D01*
X145814728Y-90201716D01*
X146447037Y-89569408D01*
X146464075Y-89632993D01*
X146529901Y-89747007D01*
X146622993Y-89840099D01*
X146737007Y-89905925D01*
X146800590Y-89922962D01*
X146168282Y-90555269D01*
X146168282Y-90555270D01*
X146222449Y-90594624D01*
X146411782Y-90691095D01*
X146613870Y-90756757D01*
X146823754Y-90790000D01*
X147036246Y-90790000D01*
X147246127Y-90756757D01*
X147246130Y-90756757D01*
X147448217Y-90691095D01*
X147637554Y-90594622D01*
X147691716Y-90555270D01*
X147691717Y-90555270D01*
X147059408Y-89922962D01*
X147122993Y-89905925D01*
X147237007Y-89840099D01*
X147330099Y-89747007D01*
X147395925Y-89632993D01*
X147412962Y-89569409D01*
X148045270Y-90201717D01*
X148045270Y-90201716D01*
X148084622Y-90147555D01*
X148089232Y-90138507D01*
X148137205Y-90087709D01*
X148205025Y-90070912D01*
X148271161Y-90093447D01*
X148310204Y-90138504D01*
X148314949Y-90147817D01*
X148439890Y-90319786D01*
X148590213Y-90470109D01*
X148762179Y-90595048D01*
X148762181Y-90595049D01*
X148762184Y-90595051D01*
X148951588Y-90691557D01*
X149153757Y-90757246D01*
X149363713Y-90790500D01*
X149363714Y-90790500D01*
X149576286Y-90790500D01*
X149576287Y-90790500D01*
X149763293Y-90760881D01*
X149832587Y-90769836D01*
X149870372Y-90795673D01*
X150905305Y-91830606D01*
X150999394Y-91924695D01*
X150999397Y-91924697D01*
X150999398Y-91924698D01*
X151077456Y-91976855D01*
X151122262Y-92030467D01*
X151130969Y-92099792D01*
X151100815Y-92162819D01*
X151051899Y-92196139D01*
X150917671Y-92246202D01*
X150917664Y-92246206D01*
X150802455Y-92332452D01*
X150802452Y-92332455D01*
X150716206Y-92447664D01*
X150716203Y-92447669D01*
X150667189Y-92579083D01*
X150625317Y-92635016D01*
X150559853Y-92659433D01*
X150491580Y-92644581D01*
X150463326Y-92623430D01*
X150349786Y-92509890D01*
X150177820Y-92384951D01*
X149988414Y-92288444D01*
X149988413Y-92288443D01*
X149988412Y-92288443D01*
X149786243Y-92222754D01*
X149786241Y-92222753D01*
X149786240Y-92222753D01*
X149618204Y-92196139D01*
X149576287Y-92189500D01*
X149363713Y-92189500D01*
X149321796Y-92196139D01*
X149153760Y-92222753D01*
X148951585Y-92288444D01*
X148762179Y-92384951D01*
X148590213Y-92509890D01*
X148439890Y-92660213D01*
X148314949Y-92832182D01*
X148310202Y-92841499D01*
X148262227Y-92892293D01*
X148194405Y-92909087D01*
X148128271Y-92886548D01*
X148089234Y-92841495D01*
X148084626Y-92832452D01*
X148045270Y-92778282D01*
X148045269Y-92778282D01*
X147412962Y-93410590D01*
X147395925Y-93347007D01*
X147330099Y-93232993D01*
X147237007Y-93139901D01*
X147122993Y-93074075D01*
X147059409Y-93057037D01*
X147691716Y-92424728D01*
X147637550Y-92385375D01*
X147448217Y-92288904D01*
X147246129Y-92223242D01*
X147036246Y-92190000D01*
X146823754Y-92190000D01*
X146613872Y-92223242D01*
X146613869Y-92223242D01*
X146411782Y-92288904D01*
X146222439Y-92385380D01*
X146168282Y-92424727D01*
X146168282Y-92424728D01*
X146800591Y-93057037D01*
X146737007Y-93074075D01*
X146622993Y-93139901D01*
X146529901Y-93232993D01*
X146464075Y-93347007D01*
X146447037Y-93410591D01*
X145814728Y-92778282D01*
X145814727Y-92778282D01*
X145775380Y-92832440D01*
X145775376Y-92832446D01*
X145770760Y-92841505D01*
X145722781Y-92892297D01*
X145654959Y-92909087D01*
X145588826Y-92886543D01*
X145549794Y-92841493D01*
X145545051Y-92832184D01*
X145545049Y-92832181D01*
X145545048Y-92832179D01*
X145420109Y-92660213D01*
X145269786Y-92509890D01*
X145097820Y-92384951D01*
X144908414Y-92288444D01*
X144908413Y-92288443D01*
X144908412Y-92288443D01*
X144706243Y-92222754D01*
X144706241Y-92222753D01*
X144706240Y-92222753D01*
X144538204Y-92196139D01*
X144496287Y-92189500D01*
X144283713Y-92189500D01*
X144241796Y-92196139D01*
X144073760Y-92222753D01*
X143871585Y-92288444D01*
X143682179Y-92384951D01*
X143510213Y-92509890D01*
X143359890Y-92660213D01*
X143234951Y-92832179D01*
X143138444Y-93021585D01*
X143072753Y-93223760D01*
X143039500Y-93433713D01*
X143039500Y-93646286D01*
X143072753Y-93856239D01*
X143138444Y-94058414D01*
X143234951Y-94247820D01*
X143359890Y-94419786D01*
X143510213Y-94570109D01*
X143682179Y-94695048D01*
X143682181Y-94695049D01*
X143682184Y-94695051D01*
X143871588Y-94791557D01*
X144073757Y-94857246D01*
X144283713Y-94890500D01*
X144283714Y-94890500D01*
X144496286Y-94890500D01*
X144496287Y-94890500D01*
X144706243Y-94857246D01*
X144908412Y-94791557D01*
X145097816Y-94695051D01*
X145138655Y-94665380D01*
X145269786Y-94570109D01*
X145269788Y-94570106D01*
X145269792Y-94570104D01*
X145420104Y-94419792D01*
X145420106Y-94419788D01*
X145420109Y-94419786D01*
X145505890Y-94301717D01*
X145545051Y-94247816D01*
X145549793Y-94238508D01*
X145597763Y-94187711D01*
X145665583Y-94170911D01*
X145731719Y-94193445D01*
X145770763Y-94238500D01*
X145775373Y-94247547D01*
X145814728Y-94301716D01*
X146447037Y-93669408D01*
X146464075Y-93732993D01*
X146529901Y-93847007D01*
X146622993Y-93940099D01*
X146737007Y-94005925D01*
X146800590Y-94022962D01*
X146168282Y-94655269D01*
X146168282Y-94655270D01*
X146222449Y-94694624D01*
X146411782Y-94791095D01*
X146613870Y-94856757D01*
X146823754Y-94890000D01*
X147036246Y-94890000D01*
X147246127Y-94856757D01*
X147246130Y-94856757D01*
X147448217Y-94791095D01*
X147637554Y-94694622D01*
X147691716Y-94655270D01*
X147691717Y-94655270D01*
X147059408Y-94022962D01*
X147122993Y-94005925D01*
X147237007Y-93940099D01*
X147330099Y-93847007D01*
X147395925Y-93732993D01*
X147412962Y-93669409D01*
X148045270Y-94301717D01*
X148045270Y-94301716D01*
X148084622Y-94247555D01*
X148089232Y-94238507D01*
X148137205Y-94187709D01*
X148205025Y-94170912D01*
X148271161Y-94193447D01*
X148310204Y-94238504D01*
X148314949Y-94247817D01*
X148439890Y-94419786D01*
X148590213Y-94570109D01*
X148762179Y-94695048D01*
X148762181Y-94695049D01*
X148762184Y-94695051D01*
X148951588Y-94791557D01*
X149153757Y-94857246D01*
X149363713Y-94890500D01*
X149363714Y-94890500D01*
X149576286Y-94890500D01*
X149576287Y-94890500D01*
X149786243Y-94857246D01*
X149988412Y-94791557D01*
X150177816Y-94695051D01*
X150264147Y-94632328D01*
X150349784Y-94570110D01*
X150349784Y-94570109D01*
X150349792Y-94570104D01*
X150463329Y-94456566D01*
X150524648Y-94423084D01*
X150594340Y-94428068D01*
X150650274Y-94469939D01*
X150667189Y-94500917D01*
X150716202Y-94632328D01*
X150716206Y-94632335D01*
X150802452Y-94747544D01*
X150802455Y-94747547D01*
X150917664Y-94833793D01*
X150917671Y-94833797D01*
X151052517Y-94884091D01*
X151052516Y-94884091D01*
X151059444Y-94884835D01*
X151112127Y-94890500D01*
X152907872Y-94890499D01*
X152967483Y-94884091D01*
X153102331Y-94833796D01*
X153217546Y-94747546D01*
X153303796Y-94632331D01*
X153354091Y-94497483D01*
X153360500Y-94437873D01*
X153360499Y-92642128D01*
X153354091Y-92582517D01*
X153352810Y-92579083D01*
X153303797Y-92447671D01*
X153303793Y-92447664D01*
X153217547Y-92332456D01*
X153217548Y-92332456D01*
X153217546Y-92332454D01*
X153172543Y-92298765D01*
X153130674Y-92242833D01*
X153125690Y-92173141D01*
X153159175Y-92111818D01*
X153220499Y-92078334D01*
X153246856Y-92075500D01*
X156948837Y-92075500D01*
X157015876Y-92095185D01*
X157036518Y-92111819D01*
X157804327Y-92879628D01*
X157837812Y-92940951D01*
X157839119Y-92986707D01*
X157809500Y-93173713D01*
X157809500Y-93386287D01*
X157842754Y-93596243D01*
X157859014Y-93646287D01*
X157908444Y-93798414D01*
X158004951Y-93987820D01*
X158129890Y-94159786D01*
X158280213Y-94310109D01*
X158452179Y-94435048D01*
X158452181Y-94435049D01*
X158452184Y-94435051D01*
X158461493Y-94439794D01*
X158512290Y-94487766D01*
X158529087Y-94555587D01*
X158506552Y-94621722D01*
X158461505Y-94660760D01*
X158452446Y-94665376D01*
X158452440Y-94665380D01*
X158398282Y-94704727D01*
X158398282Y-94704728D01*
X159030591Y-95337037D01*
X158967007Y-95354075D01*
X158852993Y-95419901D01*
X158759901Y-95512993D01*
X158694075Y-95627007D01*
X158677037Y-95690591D01*
X158044728Y-95058282D01*
X158044727Y-95058282D01*
X158005380Y-95112439D01*
X157908904Y-95301782D01*
X157843242Y-95503869D01*
X157843242Y-95503872D01*
X157810000Y-95713753D01*
X157810000Y-95926246D01*
X157843242Y-96136127D01*
X157843242Y-96136130D01*
X157908904Y-96338217D01*
X158005375Y-96527550D01*
X158044728Y-96581716D01*
X158677037Y-95949408D01*
X158694075Y-96012993D01*
X158759901Y-96127007D01*
X158852993Y-96220099D01*
X158967007Y-96285925D01*
X159030590Y-96302962D01*
X158398282Y-96935269D01*
X158398282Y-96935270D01*
X158452452Y-96974626D01*
X158452451Y-96974626D01*
X158461495Y-96979234D01*
X158512292Y-97027208D01*
X158529087Y-97095029D01*
X158506550Y-97161164D01*
X158461499Y-97200202D01*
X158452182Y-97204949D01*
X158280213Y-97329890D01*
X158129890Y-97480213D01*
X158004951Y-97652179D01*
X157908444Y-97841585D01*
X157842753Y-98043760D01*
X157827495Y-98140099D01*
X157809500Y-98253713D01*
X157809500Y-98466287D01*
X157815112Y-98501717D01*
X157841755Y-98669939D01*
X157842754Y-98676243D01*
X157893470Y-98832331D01*
X157894722Y-98836182D01*
X157896717Y-98906023D01*
X157860637Y-98965856D01*
X157797936Y-98996684D01*
X157776791Y-98998500D01*
X153420413Y-98998500D01*
X153353374Y-98978815D01*
X153307619Y-98926011D01*
X153297675Y-98856853D01*
X153304231Y-98831167D01*
X153338965Y-98738036D01*
X153354091Y-98697483D01*
X153360500Y-98637873D01*
X153360499Y-96842128D01*
X153354091Y-96782517D01*
X153352810Y-96779083D01*
X153303797Y-96647671D01*
X153303793Y-96647664D01*
X153217547Y-96532455D01*
X153217544Y-96532452D01*
X153102335Y-96446206D01*
X153102328Y-96446202D01*
X152967482Y-96395908D01*
X152967483Y-96395908D01*
X152907883Y-96389501D01*
X152907881Y-96389500D01*
X152907873Y-96389500D01*
X152907864Y-96389500D01*
X151112129Y-96389500D01*
X151112123Y-96389501D01*
X151052516Y-96395908D01*
X150917671Y-96446202D01*
X150917664Y-96446206D01*
X150802455Y-96532452D01*
X150802452Y-96532455D01*
X150716206Y-96647664D01*
X150716203Y-96647669D01*
X150667189Y-96779083D01*
X150625317Y-96835016D01*
X150559853Y-96859433D01*
X150491580Y-96844581D01*
X150463326Y-96823430D01*
X150349786Y-96709890D01*
X150177820Y-96584951D01*
X149988414Y-96488444D01*
X149988413Y-96488443D01*
X149988412Y-96488443D01*
X149786243Y-96422754D01*
X149786241Y-96422753D01*
X149786240Y-96422753D01*
X149624957Y-96397208D01*
X149576287Y-96389500D01*
X149363713Y-96389500D01*
X149315042Y-96397208D01*
X149153760Y-96422753D01*
X148951585Y-96488444D01*
X148762179Y-96584951D01*
X148590213Y-96709890D01*
X148439890Y-96860213D01*
X148314949Y-97032182D01*
X148310202Y-97041499D01*
X148262227Y-97092293D01*
X148194405Y-97109087D01*
X148128271Y-97086548D01*
X148089234Y-97041495D01*
X148084626Y-97032452D01*
X148045270Y-96978282D01*
X148045269Y-96978282D01*
X147412962Y-97610590D01*
X147395925Y-97547007D01*
X147330099Y-97432993D01*
X147237007Y-97339901D01*
X147122993Y-97274075D01*
X147059409Y-97257037D01*
X147691716Y-96624728D01*
X147637550Y-96585375D01*
X147448217Y-96488904D01*
X147246129Y-96423242D01*
X147036246Y-96390000D01*
X146823754Y-96390000D01*
X146613872Y-96423242D01*
X146613869Y-96423242D01*
X146411782Y-96488904D01*
X146222439Y-96585380D01*
X146168282Y-96624727D01*
X146168282Y-96624728D01*
X146800591Y-97257037D01*
X146737007Y-97274075D01*
X146622993Y-97339901D01*
X146529901Y-97432993D01*
X146464075Y-97547007D01*
X146447037Y-97610591D01*
X145814728Y-96978282D01*
X145814727Y-96978282D01*
X145775380Y-97032440D01*
X145775376Y-97032446D01*
X145770760Y-97041505D01*
X145722781Y-97092297D01*
X145654959Y-97109087D01*
X145588826Y-97086543D01*
X145549794Y-97041493D01*
X145545051Y-97032184D01*
X145545049Y-97032181D01*
X145545048Y-97032179D01*
X145420109Y-96860213D01*
X145269786Y-96709890D01*
X145097820Y-96584951D01*
X144908414Y-96488444D01*
X144908413Y-96488443D01*
X144908412Y-96488443D01*
X144706243Y-96422754D01*
X144706241Y-96422753D01*
X144706240Y-96422753D01*
X144544957Y-96397208D01*
X144496287Y-96389500D01*
X144283713Y-96389500D01*
X144235042Y-96397208D01*
X144073760Y-96422753D01*
X143871585Y-96488444D01*
X143682179Y-96584951D01*
X143510213Y-96709890D01*
X143359890Y-96860213D01*
X143234951Y-97032179D01*
X143138444Y-97221585D01*
X143072753Y-97423760D01*
X143071291Y-97432993D01*
X143039500Y-97633713D01*
X143039500Y-97846287D01*
X143072754Y-98056243D01*
X143136916Y-98253713D01*
X143138444Y-98258414D01*
X143234951Y-98447820D01*
X143359890Y-98619786D01*
X143510213Y-98770109D01*
X143682179Y-98895048D01*
X143682181Y-98895049D01*
X143682184Y-98895051D01*
X143871588Y-98991557D01*
X144073757Y-99057246D01*
X144283713Y-99090500D01*
X144283714Y-99090500D01*
X144496286Y-99090500D01*
X144496287Y-99090500D01*
X144706243Y-99057246D01*
X144908412Y-98991557D01*
X145097816Y-98895051D01*
X145120718Y-98878412D01*
X145269786Y-98770109D01*
X145269788Y-98770106D01*
X145269792Y-98770104D01*
X145420104Y-98619792D01*
X145420106Y-98619788D01*
X145420109Y-98619786D01*
X145505890Y-98501717D01*
X145545051Y-98447816D01*
X145549793Y-98438508D01*
X145597763Y-98387711D01*
X145665583Y-98370911D01*
X145731719Y-98393445D01*
X145770763Y-98438500D01*
X145775373Y-98447547D01*
X145814728Y-98501716D01*
X146447037Y-97869408D01*
X146464075Y-97932993D01*
X146529901Y-98047007D01*
X146622993Y-98140099D01*
X146737007Y-98205925D01*
X146800590Y-98222962D01*
X146168282Y-98855269D01*
X146168282Y-98855270D01*
X146222449Y-98894624D01*
X146411782Y-98991095D01*
X146613870Y-99056757D01*
X146823754Y-99090000D01*
X147036246Y-99090000D01*
X147246127Y-99056757D01*
X147246130Y-99056757D01*
X147448217Y-98991095D01*
X147637554Y-98894622D01*
X147691716Y-98855270D01*
X147691717Y-98855270D01*
X147059408Y-98222962D01*
X147122993Y-98205925D01*
X147237007Y-98140099D01*
X147330099Y-98047007D01*
X147395925Y-97932993D01*
X147412962Y-97869409D01*
X148045270Y-98501717D01*
X148045270Y-98501716D01*
X148084622Y-98447555D01*
X148089232Y-98438507D01*
X148137205Y-98387709D01*
X148205025Y-98370912D01*
X148271161Y-98393447D01*
X148310204Y-98438504D01*
X148314949Y-98447817D01*
X148439890Y-98619786D01*
X148590213Y-98770109D01*
X148762179Y-98895048D01*
X148762181Y-98895049D01*
X148762184Y-98895051D01*
X148951588Y-98991557D01*
X149153757Y-99057246D01*
X149363713Y-99090500D01*
X149363714Y-99090500D01*
X149576286Y-99090500D01*
X149576287Y-99090500D01*
X149786243Y-99057246D01*
X149988412Y-98991557D01*
X150177816Y-98895051D01*
X150349792Y-98770104D01*
X150463329Y-98656566D01*
X150524648Y-98623084D01*
X150594340Y-98628068D01*
X150650274Y-98669939D01*
X150667189Y-98700917D01*
X150716202Y-98832328D01*
X150716206Y-98832335D01*
X150802452Y-98947544D01*
X150802455Y-98947547D01*
X150917664Y-99033793D01*
X150917671Y-99033797D01*
X150962618Y-99050561D01*
X151052517Y-99084091D01*
X151112127Y-99090500D01*
X151364837Y-99090499D01*
X151431875Y-99110183D01*
X151477630Y-99162987D01*
X151487574Y-99232146D01*
X151458549Y-99295701D01*
X151452517Y-99302180D01*
X149870371Y-100884326D01*
X149809048Y-100917811D01*
X149763293Y-100919118D01*
X149576287Y-100889500D01*
X149363713Y-100889500D01*
X149315042Y-100897208D01*
X149153760Y-100922753D01*
X148951585Y-100988444D01*
X148762179Y-101084951D01*
X148590213Y-101209890D01*
X148439890Y-101360213D01*
X148314949Y-101532182D01*
X148310202Y-101541499D01*
X148262227Y-101592293D01*
X148194405Y-101609087D01*
X148128271Y-101586548D01*
X148089234Y-101541495D01*
X148084626Y-101532452D01*
X148045270Y-101478282D01*
X148045269Y-101478282D01*
X147412962Y-102110590D01*
X147395925Y-102047007D01*
X147330099Y-101932993D01*
X147237007Y-101839901D01*
X147122993Y-101774075D01*
X147059409Y-101757037D01*
X147691716Y-101124728D01*
X147637550Y-101085375D01*
X147448217Y-100988904D01*
X147246129Y-100923242D01*
X147036246Y-100890000D01*
X146823754Y-100890000D01*
X146613872Y-100923242D01*
X146613869Y-100923242D01*
X146411782Y-100988904D01*
X146222439Y-101085380D01*
X146168282Y-101124727D01*
X146168282Y-101124728D01*
X146800591Y-101757037D01*
X146737007Y-101774075D01*
X146622993Y-101839901D01*
X146529901Y-101932993D01*
X146464075Y-102047007D01*
X146447037Y-102110591D01*
X145814728Y-101478282D01*
X145814727Y-101478282D01*
X145775380Y-101532440D01*
X145775376Y-101532446D01*
X145770760Y-101541505D01*
X145722781Y-101592297D01*
X145654959Y-101609087D01*
X145588826Y-101586543D01*
X145549794Y-101541493D01*
X145545051Y-101532184D01*
X145545049Y-101532181D01*
X145545048Y-101532179D01*
X145420109Y-101360213D01*
X145269786Y-101209890D01*
X145097820Y-101084951D01*
X144908414Y-100988444D01*
X144908413Y-100988443D01*
X144908412Y-100988443D01*
X144706243Y-100922754D01*
X144706241Y-100922753D01*
X144706240Y-100922753D01*
X144544957Y-100897208D01*
X144496287Y-100889500D01*
X144283713Y-100889500D01*
X144235042Y-100897208D01*
X144073760Y-100922753D01*
X143871585Y-100988444D01*
X143682179Y-101084951D01*
X143510213Y-101209890D01*
X143359890Y-101360213D01*
X143234951Y-101532179D01*
X143138444Y-101721585D01*
X143072753Y-101923760D01*
X143039500Y-102133713D01*
X143039500Y-102346286D01*
X143072753Y-102556239D01*
X143138444Y-102758414D01*
X143234951Y-102947820D01*
X143359890Y-103119786D01*
X143510213Y-103270109D01*
X143682179Y-103395048D01*
X143682181Y-103395049D01*
X143682184Y-103395051D01*
X143871588Y-103491557D01*
X144073757Y-103557246D01*
X144283713Y-103590500D01*
X144283714Y-103590500D01*
X144496286Y-103590500D01*
X144496287Y-103590500D01*
X144706243Y-103557246D01*
X144908412Y-103491557D01*
X145097816Y-103395051D01*
X145184138Y-103332335D01*
X145269786Y-103270109D01*
X145269788Y-103270106D01*
X145269792Y-103270104D01*
X145420104Y-103119792D01*
X145420106Y-103119788D01*
X145420109Y-103119786D01*
X145505890Y-103001717D01*
X145545051Y-102947816D01*
X145549793Y-102938508D01*
X145597763Y-102887711D01*
X145665583Y-102870911D01*
X145731719Y-102893445D01*
X145770763Y-102938500D01*
X145775373Y-102947547D01*
X145814728Y-103001716D01*
X146447037Y-102369408D01*
X146464075Y-102432993D01*
X146529901Y-102547007D01*
X146622993Y-102640099D01*
X146737007Y-102705925D01*
X146800590Y-102722962D01*
X146168282Y-103355269D01*
X146168282Y-103355270D01*
X146222449Y-103394624D01*
X146411782Y-103491095D01*
X146613870Y-103556757D01*
X146823754Y-103590000D01*
X147036246Y-103590000D01*
X147246127Y-103556757D01*
X147246130Y-103556757D01*
X147448217Y-103491095D01*
X147637554Y-103394622D01*
X147691716Y-103355270D01*
X147691717Y-103355270D01*
X147059408Y-102722962D01*
X147122993Y-102705925D01*
X147237007Y-102640099D01*
X147330099Y-102547007D01*
X147395925Y-102432993D01*
X147412962Y-102369409D01*
X148045270Y-103001717D01*
X148045270Y-103001716D01*
X148084622Y-102947555D01*
X148089232Y-102938507D01*
X148137205Y-102887709D01*
X148205025Y-102870912D01*
X148271161Y-102893447D01*
X148310204Y-102938504D01*
X148314949Y-102947817D01*
X148439890Y-103119786D01*
X148590213Y-103270109D01*
X148762179Y-103395048D01*
X148762181Y-103395049D01*
X148762184Y-103395051D01*
X148951588Y-103491557D01*
X149153757Y-103557246D01*
X149363713Y-103590500D01*
X149363714Y-103590500D01*
X149576286Y-103590500D01*
X149576287Y-103590500D01*
X149786243Y-103557246D01*
X149988412Y-103491557D01*
X150177816Y-103395051D01*
X150349792Y-103270104D01*
X150463329Y-103156566D01*
X150524648Y-103123084D01*
X150594340Y-103128068D01*
X150650274Y-103169939D01*
X150667189Y-103200917D01*
X150716202Y-103332328D01*
X150716206Y-103332335D01*
X150802452Y-103447544D01*
X150802455Y-103447547D01*
X150917664Y-103533793D01*
X150917671Y-103533797D01*
X151052517Y-103584091D01*
X151052516Y-103584091D01*
X151059444Y-103584835D01*
X151112127Y-103590500D01*
X151196863Y-103590499D01*
X151263899Y-103610183D01*
X151309655Y-103662986D01*
X151319599Y-103732145D01*
X151290575Y-103795701D01*
X151265753Y-103817601D01*
X151179390Y-103875307D01*
X149870371Y-105184326D01*
X149809048Y-105217811D01*
X149763293Y-105219118D01*
X149576287Y-105189500D01*
X149363713Y-105189500D01*
X149315042Y-105197208D01*
X149153760Y-105222753D01*
X148951585Y-105288444D01*
X148762179Y-105384951D01*
X148590213Y-105509890D01*
X148439890Y-105660213D01*
X148314949Y-105832182D01*
X148310202Y-105841499D01*
X148262227Y-105892293D01*
X148194405Y-105909087D01*
X148128271Y-105886548D01*
X148089234Y-105841495D01*
X148084626Y-105832452D01*
X148045270Y-105778282D01*
X148045269Y-105778282D01*
X147412962Y-106410590D01*
X147395925Y-106347007D01*
X147330099Y-106232993D01*
X147237007Y-106139901D01*
X147122993Y-106074075D01*
X147059409Y-106057037D01*
X147691716Y-105424728D01*
X147637550Y-105385375D01*
X147448217Y-105288904D01*
X147246129Y-105223242D01*
X147036246Y-105190000D01*
X146823754Y-105190000D01*
X146613872Y-105223242D01*
X146613869Y-105223242D01*
X146411782Y-105288904D01*
X146222439Y-105385380D01*
X146168282Y-105424727D01*
X146168282Y-105424728D01*
X146800591Y-106057037D01*
X146737007Y-106074075D01*
X146622993Y-106139901D01*
X146529901Y-106232993D01*
X146464075Y-106347007D01*
X146447037Y-106410591D01*
X145814728Y-105778282D01*
X145814727Y-105778282D01*
X145775380Y-105832440D01*
X145775376Y-105832446D01*
X145770760Y-105841505D01*
X145722781Y-105892297D01*
X145654959Y-105909087D01*
X145588826Y-105886543D01*
X145549794Y-105841493D01*
X145545051Y-105832184D01*
X145545049Y-105832181D01*
X145545048Y-105832179D01*
X145420109Y-105660213D01*
X145269786Y-105509890D01*
X145097820Y-105384951D01*
X144908414Y-105288444D01*
X144908413Y-105288443D01*
X144908412Y-105288443D01*
X144706243Y-105222754D01*
X144706241Y-105222753D01*
X144706240Y-105222753D01*
X144544957Y-105197208D01*
X144496287Y-105189500D01*
X144283713Y-105189500D01*
X144235042Y-105197208D01*
X144073760Y-105222753D01*
X143871585Y-105288444D01*
X143682179Y-105384951D01*
X143510213Y-105509890D01*
X143359890Y-105660213D01*
X143234951Y-105832179D01*
X143138444Y-106021585D01*
X143072753Y-106223760D01*
X143039500Y-106433713D01*
X143039500Y-106646286D01*
X143072753Y-106856239D01*
X143138444Y-107058414D01*
X143234951Y-107247820D01*
X143359890Y-107419786D01*
X143510213Y-107570109D01*
X143682179Y-107695048D01*
X143682181Y-107695049D01*
X143682184Y-107695051D01*
X143871588Y-107791557D01*
X144073757Y-107857246D01*
X144283713Y-107890500D01*
X144283714Y-107890500D01*
X144496286Y-107890500D01*
X144496287Y-107890500D01*
X144706243Y-107857246D01*
X144908412Y-107791557D01*
X145097816Y-107695051D01*
X145184138Y-107632335D01*
X145269786Y-107570109D01*
X145269788Y-107570106D01*
X145269792Y-107570104D01*
X145420104Y-107419792D01*
X145420106Y-107419788D01*
X145420109Y-107419786D01*
X145505890Y-107301717D01*
X145545051Y-107247816D01*
X145549793Y-107238508D01*
X145597763Y-107187711D01*
X145665583Y-107170911D01*
X145731719Y-107193445D01*
X145770763Y-107238500D01*
X145775373Y-107247547D01*
X145814728Y-107301716D01*
X146447037Y-106669408D01*
X146464075Y-106732993D01*
X146529901Y-106847007D01*
X146622993Y-106940099D01*
X146737007Y-107005925D01*
X146800590Y-107022962D01*
X146168282Y-107655269D01*
X146168282Y-107655270D01*
X146222449Y-107694624D01*
X146411782Y-107791095D01*
X146613870Y-107856757D01*
X146823754Y-107890000D01*
X147036246Y-107890000D01*
X147246127Y-107856757D01*
X147246130Y-107856757D01*
X147448217Y-107791095D01*
X147637554Y-107694622D01*
X147691716Y-107655270D01*
X147691717Y-107655270D01*
X147059408Y-107022962D01*
X147122993Y-107005925D01*
X147237007Y-106940099D01*
X147330099Y-106847007D01*
X147395925Y-106732993D01*
X147412962Y-106669409D01*
X148045270Y-107301717D01*
X148045270Y-107301716D01*
X148084622Y-107247555D01*
X148089232Y-107238507D01*
X148137205Y-107187709D01*
X148205025Y-107170912D01*
X148271161Y-107193447D01*
X148310204Y-107238504D01*
X148314949Y-107247817D01*
X148439890Y-107419786D01*
X148590213Y-107570109D01*
X148762179Y-107695048D01*
X148762181Y-107695049D01*
X148762184Y-107695051D01*
X148951588Y-107791557D01*
X149153757Y-107857246D01*
X149363713Y-107890500D01*
X149363714Y-107890500D01*
X149576286Y-107890500D01*
X149576287Y-107890500D01*
X149786243Y-107857246D01*
X149988412Y-107791557D01*
X150177816Y-107695051D01*
X150349792Y-107570104D01*
X150463329Y-107456566D01*
X150524648Y-107423084D01*
X150594340Y-107428068D01*
X150650274Y-107469939D01*
X150667189Y-107500917D01*
X150716202Y-107632328D01*
X150716206Y-107632335D01*
X150802452Y-107747544D01*
X150802455Y-107747547D01*
X150917664Y-107833793D01*
X150917671Y-107833797D01*
X151052517Y-107884091D01*
X151052516Y-107884091D01*
X151059444Y-107884835D01*
X151112127Y-107890500D01*
X152907872Y-107890499D01*
X152967483Y-107884091D01*
X153102331Y-107833796D01*
X153217546Y-107747546D01*
X153303796Y-107632331D01*
X153354091Y-107497483D01*
X153360500Y-107437873D01*
X153360499Y-105642128D01*
X153354091Y-105582517D01*
X153303796Y-105447669D01*
X153303795Y-105447668D01*
X153303793Y-105447664D01*
X153217547Y-105332456D01*
X153217548Y-105332456D01*
X153217546Y-105332454D01*
X153172543Y-105298765D01*
X153130674Y-105242833D01*
X153125690Y-105173141D01*
X153159175Y-105111818D01*
X153220499Y-105078334D01*
X153246856Y-105075500D01*
X155726532Y-105075500D01*
X155726533Y-105075499D01*
X155857036Y-105049541D01*
X155979969Y-104998620D01*
X156090606Y-104924695D01*
X158759629Y-102255670D01*
X158820950Y-102222187D01*
X158866701Y-102220880D01*
X159053713Y-102250500D01*
X159053714Y-102250500D01*
X159266286Y-102250500D01*
X159266287Y-102250500D01*
X159476243Y-102217246D01*
X159678412Y-102151557D01*
X159867816Y-102055051D01*
X159889789Y-102039086D01*
X160039786Y-101930109D01*
X160039788Y-101930106D01*
X160039792Y-101930104D01*
X160190104Y-101779792D01*
X160193660Y-101774896D01*
X160248987Y-101732230D01*
X160318600Y-101726248D01*
X160380397Y-101758851D01*
X160411686Y-101808772D01*
X160415186Y-101819334D01*
X160507288Y-101968656D01*
X160631344Y-102092712D01*
X160780666Y-102184814D01*
X160947203Y-102239999D01*
X161049991Y-102250500D01*
X162350008Y-102250499D01*
X162452797Y-102239999D01*
X162619334Y-102184814D01*
X162768656Y-102092712D01*
X162892712Y-101968656D01*
X162984814Y-101819334D01*
X163039999Y-101652797D01*
X163050500Y-101550009D01*
X163050499Y-100249992D01*
X163039999Y-100147203D01*
X162984814Y-99980666D01*
X162892712Y-99831344D01*
X162768656Y-99707288D01*
X162619334Y-99615186D01*
X162619333Y-99615185D01*
X162619325Y-99615182D01*
X162608773Y-99611686D01*
X162551328Y-99571913D01*
X162524506Y-99507397D01*
X162536822Y-99438621D01*
X162574903Y-99393656D01*
X162579788Y-99390107D01*
X162579788Y-99390106D01*
X162579792Y-99390104D01*
X162730104Y-99239792D01*
X162730106Y-99239788D01*
X162730109Y-99239786D01*
X162855048Y-99067820D01*
X162855047Y-99067820D01*
X162855051Y-99067816D01*
X162951557Y-98878412D01*
X163017246Y-98676243D01*
X163050500Y-98466287D01*
X163050500Y-98253713D01*
X163017246Y-98043757D01*
X162951557Y-97841588D01*
X162855051Y-97652184D01*
X162855049Y-97652181D01*
X162855048Y-97652179D01*
X162730109Y-97480213D01*
X162579786Y-97329890D01*
X162407820Y-97204951D01*
X162407115Y-97204591D01*
X162399054Y-97200485D01*
X162348259Y-97152512D01*
X162331463Y-97084692D01*
X162353999Y-97018556D01*
X162399054Y-96979515D01*
X162407816Y-96975051D01*
X162462572Y-96935269D01*
X162579786Y-96850109D01*
X162579788Y-96850106D01*
X162579792Y-96850104D01*
X162730104Y-96699792D01*
X162730106Y-96699788D01*
X162730109Y-96699786D01*
X162855048Y-96527820D01*
X162855050Y-96527817D01*
X162855051Y-96527816D01*
X162951557Y-96338412D01*
X163017246Y-96136243D01*
X163050500Y-95926287D01*
X163050500Y-95713713D01*
X163017246Y-95503757D01*
X162951557Y-95301588D01*
X162855051Y-95112184D01*
X162855049Y-95112181D01*
X162855048Y-95112179D01*
X162730109Y-94940213D01*
X162579786Y-94789890D01*
X162407820Y-94664951D01*
X162399600Y-94660763D01*
X162399054Y-94660485D01*
X162348259Y-94612512D01*
X162331463Y-94544692D01*
X162353999Y-94478556D01*
X162399054Y-94439515D01*
X162407816Y-94435051D01*
X162429789Y-94419086D01*
X162579786Y-94310109D01*
X162579788Y-94310106D01*
X162579792Y-94310104D01*
X162730104Y-94159792D01*
X162730106Y-94159788D01*
X162730109Y-94159786D01*
X162855048Y-93987820D01*
X162855047Y-93987820D01*
X162855051Y-93987816D01*
X162951557Y-93798412D01*
X163017246Y-93596243D01*
X163050500Y-93386287D01*
X163050500Y-93173713D01*
X163017246Y-92963757D01*
X162951557Y-92761588D01*
X162855051Y-92572184D01*
X162855049Y-92572181D01*
X162855048Y-92572179D01*
X162730109Y-92400213D01*
X162579786Y-92249890D01*
X162407820Y-92124951D01*
X162407115Y-92124591D01*
X162399054Y-92120485D01*
X162348259Y-92072512D01*
X162331463Y-92004692D01*
X162353999Y-91938556D01*
X162399054Y-91899515D01*
X162407816Y-91895051D01*
X162496518Y-91830606D01*
X162579786Y-91770109D01*
X162579788Y-91770106D01*
X162579792Y-91770104D01*
X162730104Y-91619792D01*
X162730106Y-91619788D01*
X162730109Y-91619786D01*
X162855048Y-91447820D01*
X162855047Y-91447820D01*
X162855051Y-91447816D01*
X162951557Y-91258412D01*
X163017246Y-91056243D01*
X163050500Y-90846287D01*
X163050500Y-90633713D01*
X163017246Y-90423757D01*
X162951557Y-90221588D01*
X162855051Y-90032184D01*
X162855049Y-90032181D01*
X162855048Y-90032179D01*
X162730109Y-89860213D01*
X162579786Y-89709890D01*
X162407820Y-89584951D01*
X162218414Y-89488444D01*
X162218413Y-89488443D01*
X162218412Y-89488443D01*
X162016243Y-89422754D01*
X162016241Y-89422753D01*
X162016240Y-89422753D01*
X161854957Y-89397208D01*
X161806287Y-89389500D01*
X161593713Y-89389500D01*
X161406707Y-89419119D01*
X161337413Y-89410164D01*
X161299628Y-89384327D01*
X159604609Y-87689307D01*
X159604605Y-87689304D01*
X159493975Y-87615383D01*
X159493965Y-87615378D01*
X159371036Y-87564459D01*
X159371028Y-87564457D01*
X159240535Y-87538500D01*
X159240531Y-87538500D01*
X152675163Y-87538500D01*
X152608124Y-87518815D01*
X152587482Y-87502181D01*
X151987481Y-86902180D01*
X151953996Y-86840857D01*
X151958980Y-86771165D01*
X152000852Y-86715232D01*
X152066316Y-86690815D01*
X152075162Y-86690499D01*
X152907871Y-86690499D01*
X152907872Y-86690499D01*
X152967483Y-86684091D01*
X153102331Y-86633796D01*
X153217546Y-86547546D01*
X153303796Y-86432331D01*
X153354091Y-86297483D01*
X153360500Y-86237873D01*
X153360499Y-84442128D01*
X153354091Y-84382517D01*
X153352810Y-84379083D01*
X153303797Y-84247671D01*
X153303793Y-84247664D01*
X153217547Y-84132455D01*
X153217544Y-84132452D01*
X153102335Y-84046206D01*
X153102328Y-84046202D01*
X152967482Y-83995908D01*
X152967483Y-83995908D01*
X152907883Y-83989501D01*
X152907881Y-83989500D01*
X152907873Y-83989500D01*
X152907864Y-83989500D01*
X151112129Y-83989500D01*
X151112123Y-83989501D01*
X151052516Y-83995908D01*
X150917671Y-84046202D01*
X150917664Y-84046206D01*
X150802455Y-84132452D01*
X150802452Y-84132455D01*
X150716206Y-84247664D01*
X150716203Y-84247669D01*
X150667189Y-84379083D01*
X150625317Y-84435016D01*
X150559853Y-84459433D01*
X150491580Y-84444581D01*
X150463326Y-84423430D01*
X150349786Y-84309890D01*
X150177820Y-84184951D01*
X149988414Y-84088444D01*
X149988413Y-84088443D01*
X149988412Y-84088443D01*
X149786243Y-84022754D01*
X149786241Y-84022753D01*
X149786240Y-84022753D01*
X149624957Y-83997208D01*
X149576287Y-83989500D01*
X149363713Y-83989500D01*
X149315042Y-83997208D01*
X149153760Y-84022753D01*
X148951585Y-84088444D01*
X148762179Y-84184951D01*
X148590213Y-84309890D01*
X148439890Y-84460213D01*
X148314949Y-84632182D01*
X148310202Y-84641499D01*
X148262227Y-84692293D01*
X148194405Y-84709087D01*
X148128271Y-84686548D01*
X148089234Y-84641495D01*
X148084626Y-84632452D01*
X148045270Y-84578282D01*
X148045269Y-84578282D01*
X147412962Y-85210590D01*
X147395925Y-85147007D01*
X147330099Y-85032993D01*
X147237007Y-84939901D01*
X147122993Y-84874075D01*
X147059409Y-84857037D01*
X147691716Y-84224728D01*
X147637550Y-84185375D01*
X147448217Y-84088904D01*
X147246129Y-84023242D01*
X147036246Y-83990000D01*
X146823754Y-83990000D01*
X146613872Y-84023242D01*
X146613869Y-84023242D01*
X146411782Y-84088904D01*
X146222439Y-84185380D01*
X146168282Y-84224727D01*
X146168282Y-84224728D01*
X146800591Y-84857037D01*
X146737007Y-84874075D01*
X146622993Y-84939901D01*
X146529901Y-85032993D01*
X146464075Y-85147007D01*
X146447037Y-85210591D01*
X145814728Y-84578282D01*
X145814727Y-84578282D01*
X145775380Y-84632440D01*
X145775376Y-84632446D01*
X145770760Y-84641505D01*
X145722781Y-84692297D01*
X145654959Y-84709087D01*
X145588826Y-84686543D01*
X145549794Y-84641493D01*
X145545051Y-84632184D01*
X145545049Y-84632181D01*
X145545048Y-84632179D01*
X145420109Y-84460213D01*
X145269786Y-84309890D01*
X145097820Y-84184951D01*
X144908414Y-84088444D01*
X144908413Y-84088443D01*
X144908412Y-84088443D01*
X144706243Y-84022754D01*
X144706241Y-84022753D01*
X144706240Y-84022753D01*
X144544957Y-83997208D01*
X144496287Y-83989500D01*
X144283713Y-83989500D01*
X144235042Y-83997208D01*
X144073760Y-84022753D01*
X143871585Y-84088444D01*
X143682179Y-84184951D01*
X143510213Y-84309890D01*
X143359890Y-84460213D01*
X143234951Y-84632179D01*
X143138444Y-84821585D01*
X143072753Y-85023760D01*
X143039500Y-85233713D01*
X134377601Y-85233713D01*
X134391630Y-79888711D01*
X135817500Y-79888711D01*
X135817500Y-80131288D01*
X135849161Y-80371785D01*
X135911947Y-80606104D01*
X135967409Y-80740000D01*
X136004776Y-80830212D01*
X136126064Y-81040289D01*
X136126065Y-81040290D01*
X136126067Y-81040293D01*
X136273733Y-81232736D01*
X136273739Y-81232743D01*
X136445256Y-81404260D01*
X136445262Y-81404265D01*
X136637711Y-81551936D01*
X136847788Y-81673224D01*
X137009000Y-81740000D01*
X137053450Y-81758412D01*
X137071900Y-81766054D01*
X137306211Y-81828838D01*
X137486586Y-81852584D01*
X137546711Y-81860500D01*
X137546712Y-81860500D01*
X137789289Y-81860500D01*
X137837388Y-81854167D01*
X138029789Y-81828838D01*
X138264100Y-81766054D01*
X138488212Y-81673224D01*
X138698289Y-81551936D01*
X138890738Y-81404265D01*
X139062265Y-81232738D01*
X139138249Y-81133713D01*
X143039500Y-81133713D01*
X143039500Y-81346286D01*
X143072071Y-81551936D01*
X143072754Y-81556243D01*
X143110764Y-81673226D01*
X143138444Y-81758414D01*
X143234951Y-81947820D01*
X143359890Y-82119786D01*
X143510213Y-82270109D01*
X143682179Y-82395048D01*
X143682181Y-82395049D01*
X143682184Y-82395051D01*
X143871588Y-82491557D01*
X144073757Y-82557246D01*
X144283713Y-82590500D01*
X144283714Y-82590500D01*
X144496286Y-82590500D01*
X144496287Y-82590500D01*
X144706243Y-82557246D01*
X144908412Y-82491557D01*
X145097816Y-82395051D01*
X145184138Y-82332335D01*
X145269786Y-82270109D01*
X145269788Y-82270106D01*
X145269792Y-82270104D01*
X145420104Y-82119792D01*
X145420106Y-82119788D01*
X145420109Y-82119786D01*
X145505890Y-82001717D01*
X145545051Y-81947816D01*
X145549793Y-81938508D01*
X145597763Y-81887711D01*
X145665583Y-81870911D01*
X145731719Y-81893445D01*
X145770763Y-81938500D01*
X145775373Y-81947547D01*
X145814728Y-82001716D01*
X146447037Y-81369408D01*
X146464075Y-81432993D01*
X146529901Y-81547007D01*
X146622993Y-81640099D01*
X146737007Y-81705925D01*
X146800590Y-81722962D01*
X146168282Y-82355269D01*
X146168282Y-82355270D01*
X146222449Y-82394624D01*
X146411782Y-82491095D01*
X146613870Y-82556757D01*
X146823754Y-82590000D01*
X147036246Y-82590000D01*
X147246127Y-82556757D01*
X147246130Y-82556757D01*
X147448217Y-82491095D01*
X147637554Y-82394622D01*
X147691716Y-82355270D01*
X147691717Y-82355270D01*
X147059408Y-81722962D01*
X147122993Y-81705925D01*
X147237007Y-81640099D01*
X147330099Y-81547007D01*
X147395925Y-81432993D01*
X147412962Y-81369409D01*
X148045270Y-82001717D01*
X148045270Y-82001716D01*
X148084622Y-81947555D01*
X148089232Y-81938507D01*
X148137205Y-81887709D01*
X148205025Y-81870912D01*
X148271161Y-81893447D01*
X148310204Y-81938504D01*
X148314949Y-81947817D01*
X148439890Y-82119786D01*
X148590213Y-82270109D01*
X148762179Y-82395048D01*
X148762181Y-82395049D01*
X148762184Y-82395051D01*
X148951588Y-82491557D01*
X149153757Y-82557246D01*
X149363713Y-82590500D01*
X149363714Y-82590500D01*
X149576286Y-82590500D01*
X149576287Y-82590500D01*
X149786243Y-82557246D01*
X149988412Y-82491557D01*
X150177816Y-82395051D01*
X150349792Y-82270104D01*
X150463329Y-82156566D01*
X150524648Y-82123084D01*
X150594340Y-82128068D01*
X150650274Y-82169939D01*
X150667189Y-82200917D01*
X150716202Y-82332328D01*
X150716206Y-82332335D01*
X150802452Y-82447544D01*
X150802455Y-82447547D01*
X150917664Y-82533793D01*
X150917671Y-82533797D01*
X151052517Y-82584091D01*
X151052516Y-82584091D01*
X151059444Y-82584835D01*
X151112127Y-82590500D01*
X152907872Y-82590499D01*
X152967483Y-82584091D01*
X153102331Y-82533796D01*
X153217546Y-82447546D01*
X153303796Y-82332331D01*
X153354091Y-82197483D01*
X153360500Y-82137873D01*
X153360499Y-80342128D01*
X153354091Y-80282517D01*
X153352810Y-80279083D01*
X153303797Y-80147671D01*
X153303793Y-80147664D01*
X153217547Y-80032455D01*
X153152712Y-79983919D01*
X153140523Y-79974794D01*
X153102331Y-79946204D01*
X153102329Y-79946203D01*
X153102328Y-79946202D01*
X152967482Y-79895908D01*
X152967483Y-79895908D01*
X152907883Y-79889501D01*
X152907881Y-79889500D01*
X152907873Y-79889500D01*
X152907864Y-79889500D01*
X151112129Y-79889500D01*
X151112123Y-79889501D01*
X151052516Y-79895908D01*
X150917671Y-79946202D01*
X150917664Y-79946206D01*
X150802455Y-80032452D01*
X150802452Y-80032455D01*
X150716206Y-80147664D01*
X150716203Y-80147669D01*
X150667189Y-80279083D01*
X150625317Y-80335016D01*
X150559853Y-80359433D01*
X150491580Y-80344581D01*
X150463326Y-80323430D01*
X150349786Y-80209890D01*
X150177820Y-80084951D01*
X149988414Y-79988444D01*
X149988413Y-79988443D01*
X149988412Y-79988443D01*
X149786243Y-79922754D01*
X149786241Y-79922753D01*
X149786240Y-79922753D01*
X149624957Y-79897208D01*
X149576287Y-79889500D01*
X149363713Y-79889500D01*
X149315042Y-79897208D01*
X149153760Y-79922753D01*
X148951585Y-79988444D01*
X148762179Y-80084951D01*
X148590213Y-80209890D01*
X148439890Y-80360213D01*
X148314949Y-80532182D01*
X148310202Y-80541499D01*
X148262227Y-80592293D01*
X148194405Y-80609087D01*
X148128271Y-80586548D01*
X148089234Y-80541495D01*
X148084626Y-80532452D01*
X148045270Y-80478282D01*
X148045269Y-80478282D01*
X147412962Y-81110590D01*
X147395925Y-81047007D01*
X147330099Y-80932993D01*
X147237007Y-80839901D01*
X147122993Y-80774075D01*
X147059409Y-80757037D01*
X147691716Y-80124728D01*
X147637550Y-80085375D01*
X147448217Y-79988904D01*
X147246129Y-79923242D01*
X147036246Y-79890000D01*
X146823754Y-79890000D01*
X146613872Y-79923242D01*
X146613869Y-79923242D01*
X146411782Y-79988904D01*
X146222439Y-80085380D01*
X146168282Y-80124727D01*
X146168282Y-80124728D01*
X146800591Y-80757037D01*
X146737007Y-80774075D01*
X146622993Y-80839901D01*
X146529901Y-80932993D01*
X146464075Y-81047007D01*
X146447037Y-81110591D01*
X145814728Y-80478282D01*
X145814727Y-80478282D01*
X145775380Y-80532440D01*
X145775376Y-80532446D01*
X145770760Y-80541505D01*
X145722781Y-80592297D01*
X145654959Y-80609087D01*
X145588826Y-80586543D01*
X145549794Y-80541493D01*
X145545051Y-80532184D01*
X145545049Y-80532181D01*
X145545048Y-80532179D01*
X145420109Y-80360213D01*
X145269786Y-80209890D01*
X145097820Y-80084951D01*
X144908414Y-79988444D01*
X144908413Y-79988443D01*
X144908412Y-79988443D01*
X144706243Y-79922754D01*
X144706241Y-79922753D01*
X144706240Y-79922753D01*
X144544957Y-79897208D01*
X144496287Y-79889500D01*
X144283713Y-79889500D01*
X144235042Y-79897208D01*
X144073760Y-79922753D01*
X143871585Y-79988444D01*
X143682179Y-80084951D01*
X143510213Y-80209890D01*
X143359890Y-80360213D01*
X143234951Y-80532179D01*
X143138444Y-80721585D01*
X143072753Y-80923760D01*
X143039500Y-81133713D01*
X139138249Y-81133713D01*
X139209936Y-81040289D01*
X139331224Y-80830212D01*
X139424054Y-80606100D01*
X139486838Y-80371789D01*
X139518500Y-80131288D01*
X139518500Y-79888712D01*
X139518500Y-79888711D01*
X160201500Y-79888711D01*
X160201500Y-80131288D01*
X160233161Y-80371785D01*
X160295947Y-80606104D01*
X160351409Y-80740000D01*
X160388776Y-80830212D01*
X160510064Y-81040289D01*
X160510065Y-81040290D01*
X160510067Y-81040293D01*
X160657733Y-81232736D01*
X160657739Y-81232743D01*
X160829256Y-81404260D01*
X160829262Y-81404265D01*
X161021711Y-81551936D01*
X161231788Y-81673224D01*
X161393000Y-81740000D01*
X161437450Y-81758412D01*
X161455900Y-81766054D01*
X161690211Y-81828838D01*
X161870586Y-81852584D01*
X161930711Y-81860500D01*
X161930712Y-81860500D01*
X162173289Y-81860500D01*
X162221388Y-81854167D01*
X162413789Y-81828838D01*
X162648100Y-81766054D01*
X162872212Y-81673224D01*
X163082289Y-81551936D01*
X163274738Y-81404265D01*
X163446265Y-81232738D01*
X163593936Y-81040289D01*
X163715224Y-80830212D01*
X163808054Y-80606100D01*
X163870838Y-80371789D01*
X163902500Y-80131288D01*
X163902500Y-79888712D01*
X163870838Y-79648211D01*
X163808054Y-79413900D01*
X163715224Y-79189788D01*
X163593936Y-78979711D01*
X163446265Y-78787262D01*
X163446260Y-78787256D01*
X163274743Y-78615739D01*
X163274736Y-78615733D01*
X163082293Y-78468067D01*
X163082292Y-78468066D01*
X163082289Y-78468064D01*
X162872212Y-78346776D01*
X162872205Y-78346773D01*
X162648104Y-78253947D01*
X162413785Y-78191161D01*
X162173289Y-78159500D01*
X162173288Y-78159500D01*
X161930712Y-78159500D01*
X161930711Y-78159500D01*
X161690214Y-78191161D01*
X161455895Y-78253947D01*
X161231794Y-78346773D01*
X161231785Y-78346777D01*
X161021706Y-78468067D01*
X160829263Y-78615733D01*
X160829256Y-78615739D01*
X160657739Y-78787256D01*
X160657733Y-78787263D01*
X160510067Y-78979706D01*
X160388777Y-79189785D01*
X160388773Y-79189794D01*
X160295947Y-79413895D01*
X160233161Y-79648214D01*
X160201500Y-79888711D01*
X139518500Y-79888711D01*
X139486838Y-79648211D01*
X139424054Y-79413900D01*
X139331224Y-79189788D01*
X139209936Y-78979711D01*
X139062265Y-78787262D01*
X139062260Y-78787256D01*
X138890743Y-78615739D01*
X138890736Y-78615733D01*
X138698293Y-78468067D01*
X138698292Y-78468066D01*
X138698289Y-78468064D01*
X138488212Y-78346776D01*
X138488205Y-78346773D01*
X138264104Y-78253947D01*
X138029785Y-78191161D01*
X137789289Y-78159500D01*
X137789288Y-78159500D01*
X137546712Y-78159500D01*
X137546711Y-78159500D01*
X137306214Y-78191161D01*
X137071895Y-78253947D01*
X136847794Y-78346773D01*
X136847785Y-78346777D01*
X136637706Y-78468067D01*
X136445263Y-78615733D01*
X136445256Y-78615739D01*
X136273739Y-78787256D01*
X136273733Y-78787263D01*
X136126067Y-78979706D01*
X136004777Y-79189785D01*
X136004773Y-79189794D01*
X135911947Y-79413895D01*
X135849161Y-79648214D01*
X135817500Y-79888711D01*
X134391630Y-79888711D01*
X134399675Y-76823673D01*
X134419536Y-76756687D01*
X134472460Y-76711071D01*
X134523675Y-76700000D01*
X165276000Y-76700000D01*
X165343039Y-76719685D01*
G37*
%TD.AperFunction*%
%TD*%
M02*
