%TF.GenerationSoftware,KiCad,Pcbnew,(7.0.0)*%
%TF.CreationDate,2023-10-26T14:35:26-04:00*%
%TF.ProjectId,RibbonBreakout,52696262-6f6e-4427-9265-616b6f75742e,rev?*%
%TF.SameCoordinates,Original*%
%TF.FileFunction,Copper,L2,Bot*%
%TF.FilePolarity,Positive*%
%FSLAX46Y46*%
G04 Gerber Fmt 4.6, Leading zero omitted, Abs format (unit mm)*
G04 Created by KiCad (PCBNEW (7.0.0)) date 2023-10-26 14:35:26*
%MOMM*%
%LPD*%
G01*
G04 APERTURE LIST*
G04 Aperture macros list*
%AMRoundRect*
0 Rectangle with rounded corners*
0 $1 Rounding radius*
0 $2 $3 $4 $5 $6 $7 $8 $9 X,Y pos of 4 corners*
0 Add a 4 corners polygon primitive as box body*
4,1,4,$2,$3,$4,$5,$6,$7,$8,$9,$2,$3,0*
0 Add four circle primitives for the rounded corners*
1,1,$1+$1,$2,$3*
1,1,$1+$1,$4,$5*
1,1,$1+$1,$6,$7*
1,1,$1+$1,$8,$9*
0 Add four rect primitives between the rounded corners*
20,1,$1+$1,$2,$3,$4,$5,0*
20,1,$1+$1,$4,$5,$6,$7,0*
20,1,$1+$1,$6,$7,$8,$9,0*
20,1,$1+$1,$8,$9,$2,$3,0*%
G04 Aperture macros list end*
%TA.AperFunction,ComponentPad*%
%ADD10R,1.700000X1.700000*%
%TD*%
%TA.AperFunction,ComponentPad*%
%ADD11O,1.700000X1.700000*%
%TD*%
%TA.AperFunction,ComponentPad*%
%ADD12RoundRect,0.250000X0.600000X0.600000X-0.600000X0.600000X-0.600000X-0.600000X0.600000X-0.600000X0*%
%TD*%
%TA.AperFunction,ComponentPad*%
%ADD13C,1.700000*%
%TD*%
%TA.AperFunction,Conductor*%
%ADD14C,0.350000*%
%TD*%
G04 APERTURE END LIST*
D10*
%TO.P,J2,1*%
%TO.N,GND*%
X139699999Y-97281999D03*
D11*
%TO.P,J2,2*%
%TO.N,+5v*%
X139699999Y-99821999D03*
%TO.P,J2,3*%
%TO.N,Line2*%
X139699999Y-102361999D03*
%TO.P,J2,4*%
%TO.N,GND*%
X139699999Y-104901999D03*
%TD*%
D10*
%TO.P,J4,1*%
%TO.N,Line5*%
X153923999Y-80771999D03*
D11*
%TO.P,J4,2*%
%TO.N,Line6*%
X151383999Y-80771999D03*
%TO.P,J4,3*%
%TO.N,Line7*%
X148843999Y-80771999D03*
%TO.P,J4,4*%
%TO.N,Line8*%
X146303999Y-80771999D03*
%TD*%
D12*
%TO.P,S1,1*%
%TO.N,Line1*%
X150866500Y-100330000D03*
D13*
%TO.P,S1,2*%
%TO.N,Line2*%
X148326500Y-100330000D03*
%TO.P,S1,3*%
%TO.N,Line3*%
X150866500Y-97790000D03*
%TO.P,S1,4*%
%TO.N,Line4*%
X148326500Y-97790000D03*
%TO.P,S1,5*%
%TO.N,GND*%
X150866500Y-95250000D03*
%TO.P,S1,6*%
%TO.N,+5v*%
X148326500Y-95250000D03*
%TO.P,S1,7*%
%TO.N,Line5*%
X150866500Y-92710000D03*
%TO.P,S1,8*%
%TO.N,Line6*%
X148326500Y-92710000D03*
%TO.P,S1,9*%
%TO.N,Line7*%
X150866500Y-90170000D03*
%TO.P,S1,10*%
%TO.N,Line8*%
X148326500Y-90170000D03*
%TD*%
D10*
%TO.P,J1,1*%
%TO.N,GND*%
X159511999Y-97281999D03*
D11*
%TO.P,J1,2*%
%TO.N,+5v*%
X159511999Y-99821999D03*
%TO.P,J1,3*%
%TO.N,Line1*%
X159511999Y-102361999D03*
%TO.P,J1,4*%
%TO.N,GND*%
X159511999Y-104901999D03*
%TD*%
D10*
%TO.P,J5,1*%
%TO.N,+5v*%
X139699999Y-85343999D03*
D11*
%TO.P,J5,2*%
%TO.N,GND*%
X139699999Y-87883999D03*
%TO.P,J5,3*%
%TO.N,Line3*%
X139699999Y-90423999D03*
%TO.P,J5,4*%
%TO.N,Line4*%
X139699999Y-92963999D03*
%TD*%
D10*
%TO.P,J3,1*%
%TO.N,Line1*%
X153923999Y-110997999D03*
D11*
%TO.P,J3,2*%
%TO.N,Line2*%
X151383999Y-110997999D03*
%TO.P,J3,3*%
%TO.N,Line3*%
X148843999Y-110997999D03*
%TO.P,J3,4*%
%TO.N,Line4*%
X146303999Y-110997999D03*
%TD*%
D14*
%TO.N,Line1*%
X159512000Y-102362000D02*
X159512000Y-103169588D01*
X159512000Y-103169588D02*
X153924000Y-108757588D01*
X150866500Y-100330000D02*
X157480000Y-100330000D01*
X153924000Y-108757588D02*
X153924000Y-110998000D01*
X157480000Y-100330000D02*
X159512000Y-102362000D01*
%TO.N,Line2*%
X151384000Y-103387500D02*
X148326500Y-100330000D01*
X151384000Y-110998000D02*
X151384000Y-103387500D01*
%TO.N,Line3*%
X149641500Y-99015000D02*
X147873000Y-99015000D01*
X145751000Y-96475000D02*
X139700000Y-90424000D01*
X150866500Y-97790000D02*
X149641500Y-99015000D01*
X147066000Y-99822000D02*
X147066000Y-109220000D01*
X147066000Y-109220000D02*
X148844000Y-110998000D01*
X147873000Y-99015000D02*
X147066000Y-99822000D01*
X150866500Y-97790000D02*
X149551500Y-96475000D01*
X149551500Y-96475000D02*
X145751000Y-96475000D01*
%TO.N,Line4*%
X148326500Y-97790000D02*
X144526000Y-97790000D01*
X148326500Y-97790000D02*
X147124419Y-97790000D01*
X144526000Y-97790000D02*
X139700000Y-92964000D01*
X146304000Y-98610419D02*
X146304000Y-110998000D01*
X147124419Y-97790000D02*
X146304000Y-98610419D01*
%TO.N,Line5*%
X150866500Y-92710000D02*
X153924000Y-89652500D01*
X153924000Y-89652500D02*
X153924000Y-80772000D01*
%TO.N,Line6*%
X152146000Y-81534000D02*
X151384000Y-80772000D01*
X152146000Y-90652682D02*
X152146000Y-81534000D01*
X151403682Y-91395000D02*
X152146000Y-90652682D01*
X149641500Y-91395000D02*
X151403682Y-91395000D01*
X148326500Y-92710000D02*
X149641500Y-91395000D01*
%TO.N,Line7*%
X150866500Y-82794500D02*
X148844000Y-80772000D01*
X150866500Y-90170000D02*
X150866500Y-82794500D01*
%TO.N,Line8*%
X148326500Y-90170000D02*
X148326500Y-82794500D01*
X148326500Y-82794500D02*
X146304000Y-80772000D01*
%TD*%
M02*
