%TF.GenerationSoftware,KiCad,Pcbnew,9.0.1*%
%TF.CreationDate,2025-04-27T11:51:01-04:00*%
%TF.ProjectId,ServoBreakout,53657276-6f42-4726-9561-6b6f75742e6b,rev?*%
%TF.SameCoordinates,Original*%
%TF.FileFunction,Copper,L2,Bot*%
%TF.FilePolarity,Positive*%
%FSLAX46Y46*%
G04 Gerber Fmt 4.6, Leading zero omitted, Abs format (unit mm)*
G04 Created by KiCad (PCBNEW 9.0.1) date 2025-04-27 11:51:01*
%MOMM*%
%LPD*%
G01*
G04 APERTURE LIST*
%TA.AperFunction,ComponentPad*%
%ADD10R,1.400000X1.400000*%
%TD*%
%TA.AperFunction,ComponentPad*%
%ADD11C,1.400000*%
%TD*%
%TA.AperFunction,ComponentPad*%
%ADD12R,1.700000X1.700000*%
%TD*%
%TA.AperFunction,ComponentPad*%
%ADD13C,1.700000*%
%TD*%
%TA.AperFunction,Conductor*%
%ADD14C,0.350000*%
%TD*%
G04 APERTURE END LIST*
D10*
%TO.P,J1,1,1*%
%TO.N,Data 1*%
X114935000Y-76581000D03*
D11*
%TO.P,J1,2,2*%
%TO.N,Data 2*%
X117475000Y-77851000D03*
%TO.P,J1,3,3*%
%TO.N,Data 3*%
X114935000Y-79121000D03*
%TO.P,J1,4,4*%
%TO.N,Data 4*%
X117475000Y-80391000D03*
%TO.P,J1,5,5*%
%TO.N,Data 5*%
X114935000Y-81661000D03*
%TO.P,J1,6,6*%
%TO.N,Data 6*%
X117475000Y-82931000D03*
%TO.P,J1,7,7*%
%TO.N,GND*%
X114935000Y-84201000D03*
%TO.P,J1,8,8*%
%TO.N,+5V*%
X117475000Y-85471000D03*
%TD*%
D12*
%TO.P,Pin2,1,Pin_1*%
%TO.N,Data 2*%
X129794000Y-74132000D03*
D13*
%TO.P,Pin2,2,Pin_2*%
%TO.N,+5V*%
X127254000Y-74132000D03*
%TO.P,Pin2,3,Pin_3*%
%TO.N,GND*%
X124714000Y-74132000D03*
%TD*%
D12*
%TO.P,Pin5,1,Pin_1*%
%TO.N,Data 5*%
X129794000Y-87902000D03*
D13*
%TO.P,Pin5,2,Pin_2*%
%TO.N,+5V*%
X127254000Y-87902000D03*
%TO.P,Pin5,3,Pin_3*%
%TO.N,GND*%
X124714000Y-87902000D03*
%TD*%
D12*
%TO.P,Pin6,1,Pin_1*%
%TO.N,Data 6*%
X129794000Y-92492000D03*
D13*
%TO.P,Pin6,2,Pin_2*%
%TO.N,+5V*%
X127254000Y-92492000D03*
%TO.P,Pin6,3,Pin_3*%
%TO.N,GND*%
X124714000Y-92492000D03*
%TD*%
D12*
%TO.P,Pin4,1,Pin_1*%
%TO.N,Data 4*%
X129794000Y-83312000D03*
D13*
%TO.P,Pin4,2,Pin_2*%
%TO.N,+5V*%
X127254000Y-83312000D03*
%TO.P,Pin4,3,Pin_3*%
%TO.N,GND*%
X124714000Y-83312000D03*
%TD*%
D12*
%TO.P,Pin3,1,Pin_1*%
%TO.N,Data 3*%
X129794000Y-78722000D03*
D13*
%TO.P,Pin3,2,Pin_2*%
%TO.N,+5V*%
X127254000Y-78722000D03*
%TO.P,Pin3,3,Pin_3*%
%TO.N,GND*%
X124714000Y-78722000D03*
%TD*%
D12*
%TO.P,Pin1,1,Pin_1*%
%TO.N,Data 1*%
X129794000Y-69542000D03*
D13*
%TO.P,Pin1,2,Pin_2*%
%TO.N,+5V*%
X127254000Y-69542000D03*
%TO.P,Pin1,3,Pin_3*%
%TO.N,GND*%
X124714000Y-69542000D03*
%TD*%
D14*
%TO.N,Data 3*%
X127617000Y-80899000D02*
X129794000Y-78722000D01*
X119970000Y-79121000D02*
X121748000Y-80899000D01*
X114935000Y-79121000D02*
X119970000Y-79121000D01*
X121748000Y-80899000D02*
X127617000Y-80899000D01*
%TD*%
%TA.AperFunction,Conductor*%
%TO.N,GND*%
G36*
X125829270Y-79483717D02*
G01*
X125829270Y-79483716D01*
X125868622Y-79429555D01*
X125873232Y-79420507D01*
X125921205Y-79369709D01*
X125989025Y-79352912D01*
X126055161Y-79375447D01*
X126094204Y-79420504D01*
X126098949Y-79429817D01*
X126223890Y-79601786D01*
X126374213Y-79752109D01*
X126546179Y-79877048D01*
X126546181Y-79877049D01*
X126546184Y-79877051D01*
X126597255Y-79903073D01*
X126735583Y-79973555D01*
X126735585Y-79973555D01*
X126735588Y-79973557D01*
X126760249Y-79981570D01*
X126817923Y-80021007D01*
X126845121Y-80085366D01*
X126833206Y-80154212D01*
X126785962Y-80205688D01*
X126721929Y-80223500D01*
X125244457Y-80223500D01*
X125177418Y-80203815D01*
X125131663Y-80151011D01*
X125121719Y-80081853D01*
X125150744Y-80018297D01*
X125206139Y-79981569D01*
X125232216Y-79973095D01*
X125421554Y-79876622D01*
X125475716Y-79837270D01*
X125475717Y-79837270D01*
X124843408Y-79204962D01*
X124906993Y-79187925D01*
X125021007Y-79122099D01*
X125114099Y-79029007D01*
X125179925Y-78914993D01*
X125196962Y-78851408D01*
X125829270Y-79483717D01*
G37*
%TD.AperFunction*%
%TA.AperFunction,Conductor*%
G36*
X133294154Y-67322185D02*
G01*
X133339909Y-67374989D01*
X133351114Y-67425931D01*
X133429725Y-84563095D01*
X133472136Y-93808757D01*
X133475298Y-94497931D01*
X133455921Y-94565060D01*
X133403327Y-94611057D01*
X133351299Y-94622500D01*
X98795500Y-94622500D01*
X98728461Y-94602815D01*
X98682706Y-94550011D01*
X98671500Y-94498500D01*
X98671500Y-92385753D01*
X123364000Y-92385753D01*
X123364000Y-92598246D01*
X123397242Y-92808127D01*
X123397242Y-92808130D01*
X123462904Y-93010217D01*
X123559375Y-93199550D01*
X123598728Y-93253716D01*
X124231037Y-92621408D01*
X124248075Y-92684993D01*
X124313901Y-92799007D01*
X124406993Y-92892099D01*
X124521007Y-92957925D01*
X124584590Y-92974962D01*
X123952282Y-93607269D01*
X123952282Y-93607270D01*
X124006449Y-93646624D01*
X124195782Y-93743095D01*
X124397870Y-93808757D01*
X124607754Y-93842000D01*
X124820246Y-93842000D01*
X125030127Y-93808757D01*
X125030130Y-93808757D01*
X125232217Y-93743095D01*
X125421554Y-93646622D01*
X125475716Y-93607270D01*
X125475717Y-93607270D01*
X124843408Y-92974962D01*
X124906993Y-92957925D01*
X125021007Y-92892099D01*
X125114099Y-92799007D01*
X125179925Y-92684993D01*
X125196962Y-92621408D01*
X125829270Y-93253717D01*
X125829270Y-93253716D01*
X125868622Y-93199555D01*
X125873232Y-93190507D01*
X125921205Y-93139709D01*
X125989025Y-93122912D01*
X126055161Y-93145447D01*
X126094204Y-93190504D01*
X126098949Y-93199817D01*
X126223890Y-93371786D01*
X126374213Y-93522109D01*
X126546179Y-93647048D01*
X126546181Y-93647049D01*
X126546184Y-93647051D01*
X126735588Y-93743557D01*
X126937757Y-93809246D01*
X127147713Y-93842500D01*
X127147714Y-93842500D01*
X127360286Y-93842500D01*
X127360287Y-93842500D01*
X127570243Y-93809246D01*
X127772412Y-93743557D01*
X127961816Y-93647051D01*
X128133792Y-93522104D01*
X128247329Y-93408566D01*
X128308648Y-93375084D01*
X128378340Y-93380068D01*
X128434274Y-93421939D01*
X128451189Y-93452917D01*
X128500202Y-93584328D01*
X128500206Y-93584335D01*
X128586452Y-93699544D01*
X128586455Y-93699547D01*
X128701664Y-93785793D01*
X128701671Y-93785797D01*
X128836517Y-93836091D01*
X128836516Y-93836091D01*
X128843444Y-93836835D01*
X128896127Y-93842500D01*
X130691872Y-93842499D01*
X130751483Y-93836091D01*
X130886331Y-93785796D01*
X131001546Y-93699546D01*
X131087796Y-93584331D01*
X131138091Y-93449483D01*
X131144500Y-93389873D01*
X131144499Y-91594128D01*
X131138091Y-91534517D01*
X131136810Y-91531083D01*
X131087797Y-91399671D01*
X131087793Y-91399664D01*
X131001547Y-91284455D01*
X131001544Y-91284452D01*
X130886335Y-91198206D01*
X130886328Y-91198202D01*
X130751482Y-91147908D01*
X130751483Y-91147908D01*
X130691883Y-91141501D01*
X130691881Y-91141500D01*
X130691873Y-91141500D01*
X130691864Y-91141500D01*
X128896129Y-91141500D01*
X128896123Y-91141501D01*
X128836516Y-91147908D01*
X128701671Y-91198202D01*
X128701664Y-91198206D01*
X128586455Y-91284452D01*
X128586452Y-91284455D01*
X128500206Y-91399664D01*
X128500203Y-91399669D01*
X128451189Y-91531083D01*
X128409317Y-91587016D01*
X128343853Y-91611433D01*
X128275580Y-91596581D01*
X128247326Y-91575430D01*
X128133786Y-91461890D01*
X127961820Y-91336951D01*
X127772414Y-91240444D01*
X127772413Y-91240443D01*
X127772412Y-91240443D01*
X127570243Y-91174754D01*
X127570241Y-91174753D01*
X127570240Y-91174753D01*
X127408957Y-91149208D01*
X127360287Y-91141500D01*
X127147713Y-91141500D01*
X127099042Y-91149208D01*
X126937760Y-91174753D01*
X126735585Y-91240444D01*
X126546179Y-91336951D01*
X126374213Y-91461890D01*
X126223890Y-91612213D01*
X126098949Y-91784182D01*
X126094202Y-91793499D01*
X126046227Y-91844293D01*
X125978405Y-91861087D01*
X125912271Y-91838548D01*
X125873234Y-91793495D01*
X125868626Y-91784452D01*
X125829270Y-91730282D01*
X125829269Y-91730282D01*
X125196962Y-92362590D01*
X125179925Y-92299007D01*
X125114099Y-92184993D01*
X125021007Y-92091901D01*
X124906993Y-92026075D01*
X124843409Y-92009037D01*
X125475716Y-91376728D01*
X125421550Y-91337375D01*
X125232217Y-91240904D01*
X125030129Y-91175242D01*
X124820246Y-91142000D01*
X124607754Y-91142000D01*
X124397872Y-91175242D01*
X124397869Y-91175242D01*
X124195782Y-91240904D01*
X124006439Y-91337380D01*
X123952282Y-91376727D01*
X123952282Y-91376728D01*
X124584591Y-92009037D01*
X124521007Y-92026075D01*
X124406993Y-92091901D01*
X124313901Y-92184993D01*
X124248075Y-92299007D01*
X124231037Y-92362591D01*
X123598728Y-91730282D01*
X123598727Y-91730282D01*
X123559380Y-91784439D01*
X123462904Y-91973782D01*
X123397242Y-92175869D01*
X123397242Y-92175872D01*
X123364000Y-92385753D01*
X98671500Y-92385753D01*
X98671500Y-86620701D01*
X106749500Y-86620701D01*
X106749500Y-86861298D01*
X106749501Y-86861314D01*
X106767366Y-86997016D01*
X106780906Y-87099857D01*
X106826787Y-87271087D01*
X106843183Y-87332275D01*
X106935253Y-87554553D01*
X106935261Y-87554570D01*
X107055558Y-87762929D01*
X107055569Y-87762945D01*
X107202035Y-87953824D01*
X107202041Y-87953831D01*
X107372168Y-88123958D01*
X107372174Y-88123963D01*
X107563063Y-88270437D01*
X107563070Y-88270441D01*
X107771429Y-88390738D01*
X107771434Y-88390740D01*
X107771437Y-88390742D01*
X107771441Y-88390743D01*
X107771446Y-88390746D01*
X107993724Y-88482816D01*
X107993726Y-88482816D01*
X107993732Y-88482819D01*
X108226143Y-88545094D01*
X108464695Y-88576500D01*
X108464702Y-88576500D01*
X108705298Y-88576500D01*
X108705305Y-88576500D01*
X108943857Y-88545094D01*
X109176268Y-88482819D01*
X109398563Y-88390742D01*
X109606937Y-88270437D01*
X109797826Y-88123963D01*
X109967963Y-87953826D01*
X110089256Y-87795753D01*
X123364000Y-87795753D01*
X123364000Y-88008246D01*
X123397242Y-88218127D01*
X123397242Y-88218130D01*
X123462904Y-88420217D01*
X123559375Y-88609550D01*
X123598728Y-88663716D01*
X124231037Y-88031408D01*
X124248075Y-88094993D01*
X124313901Y-88209007D01*
X124406993Y-88302099D01*
X124521007Y-88367925D01*
X124584590Y-88384962D01*
X123952282Y-89017269D01*
X123952282Y-89017270D01*
X124006449Y-89056624D01*
X124195782Y-89153095D01*
X124397870Y-89218757D01*
X124607754Y-89252000D01*
X124820246Y-89252000D01*
X125030127Y-89218757D01*
X125030130Y-89218757D01*
X125232217Y-89153095D01*
X125421554Y-89056622D01*
X125475716Y-89017270D01*
X125475717Y-89017270D01*
X124843408Y-88384962D01*
X124906993Y-88367925D01*
X125021007Y-88302099D01*
X125114099Y-88209007D01*
X125179925Y-88094993D01*
X125196962Y-88031408D01*
X125829270Y-88663717D01*
X125829270Y-88663716D01*
X125868622Y-88609555D01*
X125873232Y-88600507D01*
X125921205Y-88549709D01*
X125989025Y-88532912D01*
X126055161Y-88555447D01*
X126094204Y-88600504D01*
X126098949Y-88609817D01*
X126223890Y-88781786D01*
X126374213Y-88932109D01*
X126546179Y-89057048D01*
X126546181Y-89057049D01*
X126546184Y-89057051D01*
X126735588Y-89153557D01*
X126937757Y-89219246D01*
X127147713Y-89252500D01*
X127147714Y-89252500D01*
X127360286Y-89252500D01*
X127360287Y-89252500D01*
X127570243Y-89219246D01*
X127772412Y-89153557D01*
X127961816Y-89057051D01*
X128133792Y-88932104D01*
X128247329Y-88818566D01*
X128308648Y-88785084D01*
X128378340Y-88790068D01*
X128434274Y-88831939D01*
X128451189Y-88862917D01*
X128500202Y-88994328D01*
X128500206Y-88994335D01*
X128586452Y-89109544D01*
X128586455Y-89109547D01*
X128701664Y-89195793D01*
X128701671Y-89195797D01*
X128836517Y-89246091D01*
X128836516Y-89246091D01*
X128843444Y-89246835D01*
X128896127Y-89252500D01*
X130691872Y-89252499D01*
X130751483Y-89246091D01*
X130886331Y-89195796D01*
X131001546Y-89109546D01*
X131087796Y-88994331D01*
X131138091Y-88859483D01*
X131144500Y-88799873D01*
X131144499Y-87004128D01*
X131138091Y-86944517D01*
X131136810Y-86941083D01*
X131087797Y-86809671D01*
X131087793Y-86809664D01*
X131001547Y-86694455D01*
X131001544Y-86694452D01*
X130886335Y-86608206D01*
X130886328Y-86608202D01*
X130751482Y-86557908D01*
X130751483Y-86557908D01*
X130691883Y-86551501D01*
X130691881Y-86551500D01*
X130691873Y-86551500D01*
X130691864Y-86551500D01*
X128896129Y-86551500D01*
X128896123Y-86551501D01*
X128836516Y-86557908D01*
X128701671Y-86608202D01*
X128701664Y-86608206D01*
X128586455Y-86694452D01*
X128586452Y-86694455D01*
X128500206Y-86809664D01*
X128500203Y-86809669D01*
X128451189Y-86941083D01*
X128409317Y-86997016D01*
X128343853Y-87021433D01*
X128275580Y-87006581D01*
X128247326Y-86985430D01*
X128133786Y-86871890D01*
X127961820Y-86746951D01*
X127772414Y-86650444D01*
X127772413Y-86650443D01*
X127772412Y-86650443D01*
X127570243Y-86584754D01*
X127570241Y-86584753D01*
X127570240Y-86584753D01*
X127408957Y-86559208D01*
X127360287Y-86551500D01*
X127147713Y-86551500D01*
X127099042Y-86559208D01*
X126937760Y-86584753D01*
X126836672Y-86617598D01*
X126827143Y-86620695D01*
X126735585Y-86650444D01*
X126546179Y-86746951D01*
X126374213Y-86871890D01*
X126223890Y-87022213D01*
X126098949Y-87194182D01*
X126094202Y-87203499D01*
X126046227Y-87254293D01*
X125978405Y-87271087D01*
X125912271Y-87248548D01*
X125873234Y-87203495D01*
X125868626Y-87194452D01*
X125829270Y-87140282D01*
X125829269Y-87140282D01*
X125196962Y-87772590D01*
X125179925Y-87709007D01*
X125114099Y-87594993D01*
X125021007Y-87501901D01*
X124906993Y-87436075D01*
X124843409Y-87419037D01*
X125475716Y-86786728D01*
X125421550Y-86747375D01*
X125232217Y-86650904D01*
X125030129Y-86585242D01*
X124820246Y-86552000D01*
X124607754Y-86552000D01*
X124397872Y-86585242D01*
X124397869Y-86585242D01*
X124195782Y-86650904D01*
X124006439Y-86747380D01*
X123952282Y-86786727D01*
X123952282Y-86786728D01*
X124584591Y-87419037D01*
X124521007Y-87436075D01*
X124406993Y-87501901D01*
X124313901Y-87594993D01*
X124248075Y-87709007D01*
X124231037Y-87772591D01*
X123598728Y-87140282D01*
X123598727Y-87140282D01*
X123559380Y-87194439D01*
X123462904Y-87383782D01*
X123397242Y-87585869D01*
X123397242Y-87585872D01*
X123364000Y-87795753D01*
X110089256Y-87795753D01*
X110114437Y-87762937D01*
X110234742Y-87554563D01*
X110326819Y-87332268D01*
X110389094Y-87099857D01*
X110420500Y-86861305D01*
X110420500Y-86620695D01*
X110389094Y-86382143D01*
X110326819Y-86149732D01*
X110236562Y-85931832D01*
X110234746Y-85927446D01*
X110234738Y-85927429D01*
X110114441Y-85719070D01*
X110114437Y-85719063D01*
X110072262Y-85664099D01*
X109967964Y-85528175D01*
X109967958Y-85528168D01*
X109797831Y-85358041D01*
X109797824Y-85358035D01*
X109670061Y-85259999D01*
X109606946Y-85211569D01*
X109606929Y-85211558D01*
X109398570Y-85091261D01*
X109398553Y-85091253D01*
X109176275Y-84999183D01*
X108943853Y-84936905D01*
X108705314Y-84905501D01*
X108705311Y-84905500D01*
X108705305Y-84905500D01*
X108464695Y-84905500D01*
X108464689Y-84905500D01*
X108464685Y-84905501D01*
X108226146Y-84936905D01*
X107993724Y-84999183D01*
X107771446Y-85091253D01*
X107771429Y-85091261D01*
X107563070Y-85211558D01*
X107563054Y-85211569D01*
X107372175Y-85358035D01*
X107372168Y-85358041D01*
X107202041Y-85528168D01*
X107202035Y-85528175D01*
X107055569Y-85719054D01*
X107055558Y-85719070D01*
X106935261Y-85927429D01*
X106935253Y-85927446D01*
X106843183Y-86149724D01*
X106780905Y-86382146D01*
X106749501Y-86620685D01*
X106749500Y-86620701D01*
X98671500Y-86620701D01*
X98671500Y-75190701D01*
X106749500Y-75190701D01*
X106749500Y-75431298D01*
X106749501Y-75431314D01*
X106761631Y-75523455D01*
X106780906Y-75669857D01*
X106824653Y-75833123D01*
X106843183Y-75902275D01*
X106935253Y-76124553D01*
X106935261Y-76124570D01*
X107055558Y-76332929D01*
X107055569Y-76332945D01*
X107202035Y-76523824D01*
X107202041Y-76523831D01*
X107372168Y-76693958D01*
X107372175Y-76693964D01*
X107430156Y-76738454D01*
X107563063Y-76840437D01*
X107563070Y-76840441D01*
X107771429Y-76960738D01*
X107771434Y-76960740D01*
X107771437Y-76960742D01*
X107771441Y-76960743D01*
X107771446Y-76960746D01*
X107993724Y-77052816D01*
X107993726Y-77052816D01*
X107993732Y-77052819D01*
X108226143Y-77115094D01*
X108464695Y-77146500D01*
X108464702Y-77146500D01*
X108705298Y-77146500D01*
X108705305Y-77146500D01*
X108943857Y-77115094D01*
X109176268Y-77052819D01*
X109398563Y-76960742D01*
X109606937Y-76840437D01*
X109797826Y-76693963D01*
X109967963Y-76523826D01*
X110114437Y-76332937D01*
X110234742Y-76124563D01*
X110326819Y-75902268D01*
X110345343Y-75833135D01*
X113734500Y-75833135D01*
X113734500Y-77328870D01*
X113734501Y-77328876D01*
X113740908Y-77388483D01*
X113791202Y-77523328D01*
X113791206Y-77523335D01*
X113877452Y-77638544D01*
X113877455Y-77638547D01*
X113992664Y-77724793D01*
X113992671Y-77724797D01*
X114127517Y-77775091D01*
X114127516Y-77775091D01*
X114134444Y-77775835D01*
X114187127Y-77781500D01*
X114403091Y-77781499D01*
X114470129Y-77801183D01*
X114515884Y-77853987D01*
X114525828Y-77923145D01*
X114496803Y-77986701D01*
X114459385Y-78015983D01*
X114305805Y-78094236D01*
X114203885Y-78168286D01*
X114152927Y-78205310D01*
X114152925Y-78205312D01*
X114152924Y-78205312D01*
X114019312Y-78338924D01*
X114019312Y-78338925D01*
X114019310Y-78338927D01*
X113972974Y-78402703D01*
X113908240Y-78491800D01*
X113822454Y-78660163D01*
X113764059Y-78839881D01*
X113734500Y-79026513D01*
X113734500Y-79215486D01*
X113764059Y-79402118D01*
X113822454Y-79581836D01*
X113908240Y-79750199D01*
X114019310Y-79903073D01*
X114152927Y-80036690D01*
X114305801Y-80147760D01*
X114383169Y-80187181D01*
X114474163Y-80233545D01*
X114474165Y-80233545D01*
X114474168Y-80233547D01*
X114563734Y-80262649D01*
X114595803Y-80273069D01*
X114653478Y-80312507D01*
X114680676Y-80376866D01*
X114668761Y-80445712D01*
X114621516Y-80497188D01*
X114595803Y-80508931D01*
X114474163Y-80548454D01*
X114305800Y-80634240D01*
X114218579Y-80697610D01*
X114152927Y-80745310D01*
X114152925Y-80745312D01*
X114152924Y-80745312D01*
X114019312Y-80878924D01*
X114019312Y-80878925D01*
X114019310Y-80878927D01*
X113971610Y-80944579D01*
X113908240Y-81031800D01*
X113822454Y-81200163D01*
X113764059Y-81379881D01*
X113734500Y-81566513D01*
X113734500Y-81755486D01*
X113764059Y-81942118D01*
X113822454Y-82121836D01*
X113872303Y-82219669D01*
X113908240Y-82290199D01*
X114019310Y-82443073D01*
X114152927Y-82576690D01*
X114305801Y-82687760D01*
X114474168Y-82773547D01*
X114596612Y-82813331D01*
X114654287Y-82852769D01*
X114681485Y-82917127D01*
X114669570Y-82985974D01*
X114622326Y-83037449D01*
X114596612Y-83049193D01*
X114474361Y-83088915D01*
X114306060Y-83174669D01*
X114280670Y-83193116D01*
X114280669Y-83193116D01*
X114846415Y-83758861D01*
X114761306Y-83781667D01*
X114658694Y-83840910D01*
X114574910Y-83924694D01*
X114515667Y-84027306D01*
X114492861Y-84112414D01*
X113927116Y-83546669D01*
X113927116Y-83546670D01*
X113908669Y-83572060D01*
X113822914Y-83740362D01*
X113764548Y-83919997D01*
X113735000Y-84106552D01*
X113735000Y-84295447D01*
X113764548Y-84482002D01*
X113822914Y-84661637D01*
X113908666Y-84829933D01*
X113927116Y-84855328D01*
X114492861Y-84289584D01*
X114515667Y-84374694D01*
X114574910Y-84477306D01*
X114658694Y-84561090D01*
X114761306Y-84620333D01*
X114846415Y-84643138D01*
X114280669Y-85208882D01*
X114280670Y-85208883D01*
X114306059Y-85227329D01*
X114474362Y-85313085D01*
X114653997Y-85371451D01*
X114840553Y-85401000D01*
X115029447Y-85401000D01*
X115216002Y-85371451D01*
X115395637Y-85313085D01*
X115563937Y-85227331D01*
X115589328Y-85208883D01*
X115589328Y-85208882D01*
X115023584Y-84643138D01*
X115108694Y-84620333D01*
X115211306Y-84561090D01*
X115295090Y-84477306D01*
X115354333Y-84374694D01*
X115377138Y-84289584D01*
X115942882Y-84855328D01*
X115942883Y-84855328D01*
X115961331Y-84829937D01*
X116047085Y-84661637D01*
X116105451Y-84482002D01*
X116135000Y-84295447D01*
X116135000Y-84106552D01*
X116105451Y-83919997D01*
X116047085Y-83740362D01*
X115961329Y-83572059D01*
X115942883Y-83546670D01*
X115942882Y-83546669D01*
X115377137Y-84112414D01*
X115354333Y-84027306D01*
X115295090Y-83924694D01*
X115211306Y-83840910D01*
X115108694Y-83781667D01*
X115023584Y-83758861D01*
X115589328Y-83193116D01*
X115563933Y-83174666D01*
X115395637Y-83088914D01*
X115273388Y-83049193D01*
X115215712Y-83009755D01*
X115188514Y-82945397D01*
X115200429Y-82876550D01*
X115247673Y-82825075D01*
X115273382Y-82813333D01*
X115395832Y-82773547D01*
X115564199Y-82687760D01*
X115717073Y-82576690D01*
X115850690Y-82443073D01*
X115961760Y-82290199D01*
X116047547Y-82121832D01*
X116105940Y-81942118D01*
X116111939Y-81904240D01*
X116135500Y-81755486D01*
X116135500Y-81566513D01*
X116105940Y-81379881D01*
X116047545Y-81200163D01*
X115961759Y-81031800D01*
X115850690Y-80878927D01*
X115717073Y-80745310D01*
X115564199Y-80634240D01*
X115395836Y-80548454D01*
X115321472Y-80524291D01*
X115274195Y-80508930D01*
X115216521Y-80469493D01*
X115189323Y-80405134D01*
X115201238Y-80336288D01*
X115248482Y-80284812D01*
X115274194Y-80273069D01*
X115395832Y-80233547D01*
X115564199Y-80147760D01*
X115717073Y-80036690D01*
X115850690Y-79903073D01*
X115890983Y-79847613D01*
X115895315Y-79844273D01*
X115897588Y-79839297D01*
X115922687Y-79823166D01*
X115946313Y-79804949D01*
X115952984Y-79803696D01*
X115956366Y-79801523D01*
X115991301Y-79796500D01*
X116235213Y-79796500D01*
X116302252Y-79816185D01*
X116348007Y-79868989D01*
X116357951Y-79938147D01*
X116353144Y-79958819D01*
X116304059Y-80109881D01*
X116274500Y-80296513D01*
X116274500Y-80485486D01*
X116304059Y-80672118D01*
X116362454Y-80851836D01*
X116448240Y-81020199D01*
X116559310Y-81173073D01*
X116692927Y-81306690D01*
X116845801Y-81417760D01*
X116925347Y-81458290D01*
X117014163Y-81503545D01*
X117014165Y-81503545D01*
X117014168Y-81503547D01*
X117103734Y-81532649D01*
X117135803Y-81543069D01*
X117193478Y-81582507D01*
X117220676Y-81646866D01*
X117208761Y-81715712D01*
X117161516Y-81767188D01*
X117135803Y-81778931D01*
X117014163Y-81818454D01*
X116845800Y-81904240D01*
X116758579Y-81967610D01*
X116692927Y-82015310D01*
X116692925Y-82015312D01*
X116692924Y-82015312D01*
X116559312Y-82148924D01*
X116559312Y-82148925D01*
X116559310Y-82148927D01*
X116511610Y-82214579D01*
X116448240Y-82301800D01*
X116362454Y-82470163D01*
X116304059Y-82649881D01*
X116274500Y-82836513D01*
X116274500Y-83025486D01*
X116304059Y-83212118D01*
X116362454Y-83391836D01*
X116375932Y-83418287D01*
X116448240Y-83560199D01*
X116559310Y-83713073D01*
X116692927Y-83846690D01*
X116845801Y-83957760D01*
X116860888Y-83965447D01*
X117014163Y-84043545D01*
X117014165Y-84043545D01*
X117014168Y-84043547D01*
X117103734Y-84072649D01*
X117135803Y-84083069D01*
X117193478Y-84122507D01*
X117220676Y-84186866D01*
X117208761Y-84255712D01*
X117161516Y-84307188D01*
X117135803Y-84318931D01*
X117014163Y-84358454D01*
X116845800Y-84444240D01*
X116796129Y-84480329D01*
X116692927Y-84555310D01*
X116692925Y-84555312D01*
X116692924Y-84555312D01*
X116559312Y-84688924D01*
X116559312Y-84688925D01*
X116559310Y-84688927D01*
X116511610Y-84754579D01*
X116448240Y-84841800D01*
X116362454Y-85010163D01*
X116304059Y-85189881D01*
X116274500Y-85376513D01*
X116274500Y-85565486D01*
X116304059Y-85752118D01*
X116362454Y-85931836D01*
X116448240Y-86100199D01*
X116559310Y-86253073D01*
X116692927Y-86386690D01*
X116845801Y-86497760D01*
X116925347Y-86538290D01*
X117014163Y-86583545D01*
X117014165Y-86583545D01*
X117014168Y-86583547D01*
X117090048Y-86608202D01*
X117193881Y-86641940D01*
X117380514Y-86671500D01*
X117380519Y-86671500D01*
X117569486Y-86671500D01*
X117756118Y-86641940D01*
X117821484Y-86620701D01*
X117935832Y-86583547D01*
X118104199Y-86497760D01*
X118257073Y-86386690D01*
X118390690Y-86253073D01*
X118501760Y-86100199D01*
X118587547Y-85931832D01*
X118645940Y-85752118D01*
X118651177Y-85719054D01*
X118675500Y-85565486D01*
X118675500Y-85376513D01*
X118645940Y-85189881D01*
X118587545Y-85010163D01*
X118501759Y-84841800D01*
X118493137Y-84829933D01*
X118390690Y-84688927D01*
X118257073Y-84555310D01*
X118104199Y-84444240D01*
X117935836Y-84358454D01*
X117861472Y-84334291D01*
X117814195Y-84318930D01*
X117756521Y-84279493D01*
X117729323Y-84215134D01*
X117741238Y-84146288D01*
X117788482Y-84094812D01*
X117814194Y-84083069D01*
X117935832Y-84043547D01*
X118104199Y-83957760D01*
X118257073Y-83846690D01*
X118390690Y-83713073D01*
X118501760Y-83560199D01*
X118587547Y-83391832D01*
X118645940Y-83212118D01*
X118646948Y-83205753D01*
X123364000Y-83205753D01*
X123364000Y-83418246D01*
X123397242Y-83628127D01*
X123397242Y-83628130D01*
X123462904Y-83830217D01*
X123559375Y-84019550D01*
X123598728Y-84073716D01*
X124231037Y-83441408D01*
X124248075Y-83504993D01*
X124313901Y-83619007D01*
X124406993Y-83712099D01*
X124521007Y-83777925D01*
X124584590Y-83794962D01*
X123952282Y-84427269D01*
X123952282Y-84427270D01*
X124006449Y-84466624D01*
X124195782Y-84563095D01*
X124397870Y-84628757D01*
X124607754Y-84662000D01*
X124820246Y-84662000D01*
X125030127Y-84628757D01*
X125030130Y-84628757D01*
X125232217Y-84563095D01*
X125421554Y-84466622D01*
X125475716Y-84427270D01*
X125475717Y-84427270D01*
X124843408Y-83794962D01*
X124906993Y-83777925D01*
X125021007Y-83712099D01*
X125114099Y-83619007D01*
X125179925Y-83504993D01*
X125196962Y-83441408D01*
X125829270Y-84073717D01*
X125829270Y-84073716D01*
X125868622Y-84019555D01*
X125873232Y-84010507D01*
X125921205Y-83959709D01*
X125989025Y-83942912D01*
X126055161Y-83965447D01*
X126094204Y-84010504D01*
X126098949Y-84019817D01*
X126223890Y-84191786D01*
X126374213Y-84342109D01*
X126546179Y-84467048D01*
X126546181Y-84467049D01*
X126546184Y-84467051D01*
X126735588Y-84563557D01*
X126937757Y-84629246D01*
X127147713Y-84662500D01*
X127147714Y-84662500D01*
X127360286Y-84662500D01*
X127360287Y-84662500D01*
X127570243Y-84629246D01*
X127772412Y-84563557D01*
X127961816Y-84467051D01*
X128048147Y-84404328D01*
X128133784Y-84342110D01*
X128133784Y-84342109D01*
X128133792Y-84342104D01*
X128247329Y-84228566D01*
X128308648Y-84195084D01*
X128378340Y-84200068D01*
X128434274Y-84241939D01*
X128451189Y-84272917D01*
X128500202Y-84404328D01*
X128500206Y-84404335D01*
X128586452Y-84519544D01*
X128586455Y-84519547D01*
X128701664Y-84605793D01*
X128701671Y-84605797D01*
X128836517Y-84656091D01*
X128836516Y-84656091D01*
X128843444Y-84656835D01*
X128896127Y-84662500D01*
X130691872Y-84662499D01*
X130751483Y-84656091D01*
X130886331Y-84605796D01*
X131001546Y-84519546D01*
X131087796Y-84404331D01*
X131138091Y-84269483D01*
X131144500Y-84209873D01*
X131144499Y-82414128D01*
X131138091Y-82354517D01*
X131136810Y-82351083D01*
X131087797Y-82219671D01*
X131087793Y-82219664D01*
X131001547Y-82104455D01*
X131001544Y-82104452D01*
X130886335Y-82018206D01*
X130886328Y-82018202D01*
X130751482Y-81967908D01*
X130751483Y-81967908D01*
X130691883Y-81961501D01*
X130691881Y-81961500D01*
X130691873Y-81961500D01*
X130691864Y-81961500D01*
X128896129Y-81961500D01*
X128896123Y-81961501D01*
X128836516Y-81967908D01*
X128701671Y-82018202D01*
X128701664Y-82018206D01*
X128586455Y-82104452D01*
X128586452Y-82104455D01*
X128500206Y-82219664D01*
X128500203Y-82219669D01*
X128451189Y-82351083D01*
X128409317Y-82407016D01*
X128343853Y-82431433D01*
X128275580Y-82416581D01*
X128247326Y-82395430D01*
X128133786Y-82281890D01*
X127961820Y-82156951D01*
X127772414Y-82060444D01*
X127772413Y-82060443D01*
X127772412Y-82060443D01*
X127570243Y-81994754D01*
X127570241Y-81994753D01*
X127570240Y-81994753D01*
X127408957Y-81969208D01*
X127360287Y-81961500D01*
X127147713Y-81961500D01*
X127099042Y-81969208D01*
X126937760Y-81994753D01*
X126735585Y-82060444D01*
X126546179Y-82156951D01*
X126374213Y-82281890D01*
X126223890Y-82432213D01*
X126098949Y-82604182D01*
X126094202Y-82613499D01*
X126046227Y-82664293D01*
X125978405Y-82681087D01*
X125912271Y-82658548D01*
X125873234Y-82613495D01*
X125868626Y-82604452D01*
X125829270Y-82550282D01*
X125829269Y-82550282D01*
X125196962Y-83182590D01*
X125179925Y-83119007D01*
X125114099Y-83004993D01*
X125021007Y-82911901D01*
X124906993Y-82846075D01*
X124843409Y-82829037D01*
X125475716Y-82196728D01*
X125421550Y-82157375D01*
X125232217Y-82060904D01*
X125030129Y-81995242D01*
X124820246Y-81962000D01*
X124607754Y-81962000D01*
X124397872Y-81995242D01*
X124397869Y-81995242D01*
X124195782Y-82060904D01*
X124006439Y-82157380D01*
X123952282Y-82196727D01*
X123952282Y-82196728D01*
X124584591Y-82829037D01*
X124521007Y-82846075D01*
X124406993Y-82911901D01*
X124313901Y-83004993D01*
X124248075Y-83119007D01*
X124231037Y-83182591D01*
X123598728Y-82550282D01*
X123598727Y-82550282D01*
X123559380Y-82604439D01*
X123462904Y-82793782D01*
X123397242Y-82995869D01*
X123397242Y-82995872D01*
X123364000Y-83205753D01*
X118646948Y-83205753D01*
X118660687Y-83119007D01*
X118675500Y-83025486D01*
X118675500Y-82836513D01*
X118645940Y-82649881D01*
X118587545Y-82470163D01*
X118501760Y-82301801D01*
X118501759Y-82301800D01*
X118390690Y-82148927D01*
X118257073Y-82015310D01*
X118104199Y-81904240D01*
X117935836Y-81818454D01*
X117861472Y-81794291D01*
X117814195Y-81778930D01*
X117756521Y-81739493D01*
X117729323Y-81675134D01*
X117741238Y-81606288D01*
X117788482Y-81554812D01*
X117814194Y-81543069D01*
X117935832Y-81503547D01*
X118104199Y-81417760D01*
X118257073Y-81306690D01*
X118390690Y-81173073D01*
X118501760Y-81020199D01*
X118587547Y-80851832D01*
X118645940Y-80672118D01*
X118651939Y-80634240D01*
X118675500Y-80485486D01*
X118675500Y-80296513D01*
X118645940Y-80109881D01*
X118596856Y-79958819D01*
X118594861Y-79888978D01*
X118630941Y-79829145D01*
X118693642Y-79798316D01*
X118714787Y-79796500D01*
X119638837Y-79796500D01*
X119705876Y-79816185D01*
X119726518Y-79832819D01*
X121223305Y-81329606D01*
X121317394Y-81423695D01*
X121317397Y-81423697D01*
X121317398Y-81423698D01*
X121428020Y-81497613D01*
X121428024Y-81497615D01*
X121428031Y-81497620D01*
X121464037Y-81512534D01*
X121550964Y-81548541D01*
X121641316Y-81566513D01*
X121681464Y-81574499D01*
X121681468Y-81574500D01*
X121681469Y-81574500D01*
X127683532Y-81574500D01*
X127683533Y-81574499D01*
X127814036Y-81548541D01*
X127936969Y-81497620D01*
X128047606Y-81423695D01*
X129362482Y-80108817D01*
X129423805Y-80075333D01*
X129450163Y-80072499D01*
X130691871Y-80072499D01*
X130691872Y-80072499D01*
X130751483Y-80066091D01*
X130886331Y-80015796D01*
X131001546Y-79929546D01*
X131087796Y-79814331D01*
X131138091Y-79679483D01*
X131144500Y-79619873D01*
X131144499Y-77824128D01*
X131138091Y-77764517D01*
X131136810Y-77761083D01*
X131087797Y-77629671D01*
X131087793Y-77629664D01*
X131001547Y-77514455D01*
X131001544Y-77514452D01*
X130886335Y-77428206D01*
X130886328Y-77428202D01*
X130751482Y-77377908D01*
X130751483Y-77377908D01*
X130691883Y-77371501D01*
X130691881Y-77371500D01*
X130691873Y-77371500D01*
X130691864Y-77371500D01*
X128896129Y-77371500D01*
X128896123Y-77371501D01*
X128836516Y-77377908D01*
X128701671Y-77428202D01*
X128701664Y-77428206D01*
X128586455Y-77514452D01*
X128586452Y-77514455D01*
X128500206Y-77629664D01*
X128500203Y-77629669D01*
X128451189Y-77761083D01*
X128409317Y-77817016D01*
X128343853Y-77841433D01*
X128275580Y-77826581D01*
X128247326Y-77805430D01*
X128133786Y-77691890D01*
X127961820Y-77566951D01*
X127772414Y-77470444D01*
X127772413Y-77470443D01*
X127772412Y-77470443D01*
X127570243Y-77404754D01*
X127570241Y-77404753D01*
X127570240Y-77404753D01*
X127408957Y-77379208D01*
X127360287Y-77371500D01*
X127147713Y-77371500D01*
X127099042Y-77379208D01*
X126937760Y-77404753D01*
X126735585Y-77470444D01*
X126546179Y-77566951D01*
X126374213Y-77691890D01*
X126223890Y-77842213D01*
X126098949Y-78014182D01*
X126094202Y-78023499D01*
X126046227Y-78074293D01*
X125978405Y-78091087D01*
X125912271Y-78068548D01*
X125873234Y-78023495D01*
X125868626Y-78014452D01*
X125829270Y-77960282D01*
X125829269Y-77960282D01*
X125196962Y-78592590D01*
X125179925Y-78529007D01*
X125114099Y-78414993D01*
X125021007Y-78321901D01*
X124906993Y-78256075D01*
X124843409Y-78239037D01*
X125475716Y-77606728D01*
X125421550Y-77567375D01*
X125232217Y-77470904D01*
X125030129Y-77405242D01*
X124820246Y-77372000D01*
X124607754Y-77372000D01*
X124397872Y-77405242D01*
X124397869Y-77405242D01*
X124195782Y-77470904D01*
X124006439Y-77567380D01*
X123952282Y-77606727D01*
X123952282Y-77606728D01*
X124584591Y-78239037D01*
X124521007Y-78256075D01*
X124406993Y-78321901D01*
X124313901Y-78414993D01*
X124248075Y-78529007D01*
X124231037Y-78592591D01*
X123598728Y-77960282D01*
X123598727Y-77960282D01*
X123559380Y-78014439D01*
X123462904Y-78203782D01*
X123397242Y-78405869D01*
X123397242Y-78405872D01*
X123364000Y-78615753D01*
X123364000Y-78828246D01*
X123397242Y-79038127D01*
X123397242Y-79038130D01*
X123462904Y-79240217D01*
X123559375Y-79429550D01*
X123598728Y-79483716D01*
X124231037Y-78851408D01*
X124248075Y-78914993D01*
X124313901Y-79029007D01*
X124406993Y-79122099D01*
X124521007Y-79187925D01*
X124584590Y-79204962D01*
X123952282Y-79837269D01*
X123952282Y-79837270D01*
X124006449Y-79876624D01*
X124195783Y-79973095D01*
X124221861Y-79981569D01*
X124279537Y-80021007D01*
X124306735Y-80085365D01*
X124294820Y-80154212D01*
X124247576Y-80205687D01*
X124183543Y-80223500D01*
X122079163Y-80223500D01*
X122012124Y-80203815D01*
X121991482Y-80187181D01*
X120502864Y-78698562D01*
X120400609Y-78596307D01*
X120400605Y-78596304D01*
X120289975Y-78522383D01*
X120289965Y-78522378D01*
X120167036Y-78471459D01*
X120167028Y-78471457D01*
X120036535Y-78445500D01*
X120036531Y-78445500D01*
X118714787Y-78445500D01*
X118647748Y-78425815D01*
X118601993Y-78373011D01*
X118592049Y-78303853D01*
X118596856Y-78283181D01*
X118605664Y-78256075D01*
X118645940Y-78132118D01*
X118652439Y-78091087D01*
X118675500Y-77945486D01*
X118675500Y-77756512D01*
X118662334Y-77673384D01*
X118651776Y-77606727D01*
X118645940Y-77569882D01*
X118587547Y-77390168D01*
X118587545Y-77390165D01*
X118587545Y-77390163D01*
X118501759Y-77221800D01*
X118390690Y-77068927D01*
X118257073Y-76935310D01*
X118104199Y-76824240D01*
X117935836Y-76738454D01*
X117756118Y-76680059D01*
X117569486Y-76650500D01*
X117569481Y-76650500D01*
X117380519Y-76650500D01*
X117380514Y-76650500D01*
X117193881Y-76680059D01*
X117014163Y-76738454D01*
X116845800Y-76824240D01*
X116823502Y-76840441D01*
X116692927Y-76935310D01*
X116692925Y-76935312D01*
X116692924Y-76935312D01*
X116559312Y-77068924D01*
X116559312Y-77068925D01*
X116559310Y-77068927D01*
X116525768Y-77115094D01*
X116448236Y-77221805D01*
X116369983Y-77375385D01*
X116322009Y-77426181D01*
X116254188Y-77442976D01*
X116188053Y-77420438D01*
X116144602Y-77365723D01*
X116135499Y-77319095D01*
X116135499Y-75833128D01*
X116129091Y-75773517D01*
X116090428Y-75669857D01*
X116078797Y-75638671D01*
X116078793Y-75638664D01*
X115992547Y-75523455D01*
X115992544Y-75523452D01*
X115877335Y-75437206D01*
X115877328Y-75437202D01*
X115742482Y-75386908D01*
X115742483Y-75386908D01*
X115682883Y-75380501D01*
X115682881Y-75380500D01*
X115682873Y-75380500D01*
X115682864Y-75380500D01*
X114187129Y-75380500D01*
X114187123Y-75380501D01*
X114127516Y-75386908D01*
X113992671Y-75437202D01*
X113992664Y-75437206D01*
X113877455Y-75523452D01*
X113877452Y-75523455D01*
X113791206Y-75638664D01*
X113791202Y-75638671D01*
X113740908Y-75773517D01*
X113734501Y-75833116D01*
X113734501Y-75833123D01*
X113734500Y-75833135D01*
X110345343Y-75833135D01*
X110389094Y-75669857D01*
X110420500Y-75431305D01*
X110420500Y-75190695D01*
X110389094Y-74952143D01*
X110326819Y-74719732D01*
X110290479Y-74632000D01*
X110234746Y-74497446D01*
X110234738Y-74497429D01*
X110114441Y-74289070D01*
X110114437Y-74289063D01*
X109967963Y-74098174D01*
X109967958Y-74098168D01*
X109895543Y-74025753D01*
X123364000Y-74025753D01*
X123364000Y-74238246D01*
X123397242Y-74448127D01*
X123397242Y-74448130D01*
X123462904Y-74650217D01*
X123559375Y-74839550D01*
X123598728Y-74893716D01*
X124231037Y-74261408D01*
X124248075Y-74324993D01*
X124313901Y-74439007D01*
X124406993Y-74532099D01*
X124521007Y-74597925D01*
X124584590Y-74614962D01*
X123952282Y-75247269D01*
X123952282Y-75247270D01*
X124006449Y-75286624D01*
X124195782Y-75383095D01*
X124397870Y-75448757D01*
X124607754Y-75482000D01*
X124820246Y-75482000D01*
X125030127Y-75448757D01*
X125030130Y-75448757D01*
X125232217Y-75383095D01*
X125421554Y-75286622D01*
X125475716Y-75247270D01*
X125475717Y-75247270D01*
X124843408Y-74614962D01*
X124906993Y-74597925D01*
X125021007Y-74532099D01*
X125114099Y-74439007D01*
X125179925Y-74324993D01*
X125196962Y-74261408D01*
X125829270Y-74893717D01*
X125829270Y-74893716D01*
X125868622Y-74839555D01*
X125873232Y-74830507D01*
X125921205Y-74779709D01*
X125989025Y-74762912D01*
X126055161Y-74785447D01*
X126094204Y-74830504D01*
X126098949Y-74839817D01*
X126223890Y-75011786D01*
X126374213Y-75162109D01*
X126546179Y-75287048D01*
X126546181Y-75287049D01*
X126546184Y-75287051D01*
X126735588Y-75383557D01*
X126937757Y-75449246D01*
X127147713Y-75482500D01*
X127147714Y-75482500D01*
X127360286Y-75482500D01*
X127360287Y-75482500D01*
X127570243Y-75449246D01*
X127772412Y-75383557D01*
X127961816Y-75287051D01*
X128094440Y-75190695D01*
X128133784Y-75162110D01*
X128133784Y-75162109D01*
X128133792Y-75162104D01*
X128247329Y-75048566D01*
X128308648Y-75015084D01*
X128378340Y-75020068D01*
X128434274Y-75061939D01*
X128451189Y-75092917D01*
X128500202Y-75224328D01*
X128500206Y-75224335D01*
X128586452Y-75339544D01*
X128586455Y-75339547D01*
X128701664Y-75425793D01*
X128701671Y-75425797D01*
X128836517Y-75476091D01*
X128836516Y-75476091D01*
X128843444Y-75476835D01*
X128896127Y-75482500D01*
X130691872Y-75482499D01*
X130751483Y-75476091D01*
X130886331Y-75425796D01*
X131001546Y-75339546D01*
X131087796Y-75224331D01*
X131138091Y-75089483D01*
X131144500Y-75029873D01*
X131144499Y-73234128D01*
X131138091Y-73174517D01*
X131136810Y-73171083D01*
X131087797Y-73039671D01*
X131087793Y-73039664D01*
X131001547Y-72924455D01*
X131001544Y-72924452D01*
X130886335Y-72838206D01*
X130886328Y-72838202D01*
X130751482Y-72787908D01*
X130751483Y-72787908D01*
X130691883Y-72781501D01*
X130691881Y-72781500D01*
X130691873Y-72781500D01*
X130691864Y-72781500D01*
X128896129Y-72781500D01*
X128896123Y-72781501D01*
X128836516Y-72787908D01*
X128701671Y-72838202D01*
X128701664Y-72838206D01*
X128586455Y-72924452D01*
X128586452Y-72924455D01*
X128500206Y-73039664D01*
X128500203Y-73039669D01*
X128451189Y-73171083D01*
X128409317Y-73227016D01*
X128343853Y-73251433D01*
X128275580Y-73236581D01*
X128247326Y-73215430D01*
X128133786Y-73101890D01*
X127961820Y-72976951D01*
X127772414Y-72880444D01*
X127772413Y-72880443D01*
X127772412Y-72880443D01*
X127570243Y-72814754D01*
X127570241Y-72814753D01*
X127570240Y-72814753D01*
X127408957Y-72789208D01*
X127360287Y-72781500D01*
X127147713Y-72781500D01*
X127099042Y-72789208D01*
X126937760Y-72814753D01*
X126735585Y-72880444D01*
X126546179Y-72976951D01*
X126374213Y-73101890D01*
X126223890Y-73252213D01*
X126098949Y-73424182D01*
X126094202Y-73433499D01*
X126046227Y-73484293D01*
X125978405Y-73501087D01*
X125912271Y-73478548D01*
X125873234Y-73433495D01*
X125868626Y-73424452D01*
X125829270Y-73370282D01*
X125829269Y-73370282D01*
X125196962Y-74002590D01*
X125179925Y-73939007D01*
X125114099Y-73824993D01*
X125021007Y-73731901D01*
X124906993Y-73666075D01*
X124843409Y-73649037D01*
X125475716Y-73016728D01*
X125421550Y-72977375D01*
X125232217Y-72880904D01*
X125030129Y-72815242D01*
X124820246Y-72782000D01*
X124607754Y-72782000D01*
X124397872Y-72815242D01*
X124397869Y-72815242D01*
X124195782Y-72880904D01*
X124006439Y-72977380D01*
X123952282Y-73016727D01*
X123952282Y-73016728D01*
X124584591Y-73649037D01*
X124521007Y-73666075D01*
X124406993Y-73731901D01*
X124313901Y-73824993D01*
X124248075Y-73939007D01*
X124231037Y-74002591D01*
X123598728Y-73370282D01*
X123598727Y-73370282D01*
X123559380Y-73424439D01*
X123462904Y-73613782D01*
X123397242Y-73815869D01*
X123397242Y-73815872D01*
X123364000Y-74025753D01*
X109895543Y-74025753D01*
X109797831Y-73928041D01*
X109797824Y-73928035D01*
X109606945Y-73781569D01*
X109606943Y-73781567D01*
X109606937Y-73781563D01*
X109606932Y-73781560D01*
X109606929Y-73781558D01*
X109398570Y-73661261D01*
X109398553Y-73661253D01*
X109176275Y-73569183D01*
X108943853Y-73506905D01*
X108705314Y-73475501D01*
X108705311Y-73475500D01*
X108705305Y-73475500D01*
X108464695Y-73475500D01*
X108464689Y-73475500D01*
X108464685Y-73475501D01*
X108226146Y-73506905D01*
X107993724Y-73569183D01*
X107771446Y-73661253D01*
X107771429Y-73661261D01*
X107563070Y-73781558D01*
X107563054Y-73781569D01*
X107372175Y-73928035D01*
X107372168Y-73928041D01*
X107202041Y-74098168D01*
X107202035Y-74098175D01*
X107055569Y-74289054D01*
X107055558Y-74289070D01*
X106935261Y-74497429D01*
X106935253Y-74497446D01*
X106843183Y-74719724D01*
X106780905Y-74952146D01*
X106749501Y-75190685D01*
X106749500Y-75190701D01*
X98671500Y-75190701D01*
X98671500Y-69435753D01*
X123364000Y-69435753D01*
X123364000Y-69648246D01*
X123397242Y-69858127D01*
X123397242Y-69858130D01*
X123462904Y-70060217D01*
X123559375Y-70249550D01*
X123598728Y-70303716D01*
X124231037Y-69671408D01*
X124248075Y-69734993D01*
X124313901Y-69849007D01*
X124406993Y-69942099D01*
X124521007Y-70007925D01*
X124584590Y-70024962D01*
X123952282Y-70657269D01*
X123952282Y-70657270D01*
X124006449Y-70696624D01*
X124195782Y-70793095D01*
X124397870Y-70858757D01*
X124607754Y-70892000D01*
X124820246Y-70892000D01*
X125030127Y-70858757D01*
X125030130Y-70858757D01*
X125232217Y-70793095D01*
X125421554Y-70696622D01*
X125475716Y-70657270D01*
X125475717Y-70657270D01*
X124843408Y-70024962D01*
X124906993Y-70007925D01*
X125021007Y-69942099D01*
X125114099Y-69849007D01*
X125179925Y-69734993D01*
X125196962Y-69671408D01*
X125829270Y-70303717D01*
X125829270Y-70303716D01*
X125868622Y-70249555D01*
X125873232Y-70240507D01*
X125921205Y-70189709D01*
X125989025Y-70172912D01*
X126055161Y-70195447D01*
X126094204Y-70240504D01*
X126098949Y-70249817D01*
X126223890Y-70421786D01*
X126374213Y-70572109D01*
X126546179Y-70697048D01*
X126546181Y-70697049D01*
X126546184Y-70697051D01*
X126735588Y-70793557D01*
X126937757Y-70859246D01*
X127147713Y-70892500D01*
X127147714Y-70892500D01*
X127360286Y-70892500D01*
X127360287Y-70892500D01*
X127570243Y-70859246D01*
X127772412Y-70793557D01*
X127961816Y-70697051D01*
X128133792Y-70572104D01*
X128247329Y-70458566D01*
X128308648Y-70425084D01*
X128378340Y-70430068D01*
X128434274Y-70471939D01*
X128451189Y-70502917D01*
X128500202Y-70634328D01*
X128500206Y-70634335D01*
X128586452Y-70749544D01*
X128586455Y-70749547D01*
X128701664Y-70835793D01*
X128701671Y-70835797D01*
X128836517Y-70886091D01*
X128836516Y-70886091D01*
X128843444Y-70886835D01*
X128896127Y-70892500D01*
X130691872Y-70892499D01*
X130751483Y-70886091D01*
X130886331Y-70835796D01*
X131001546Y-70749546D01*
X131087796Y-70634331D01*
X131138091Y-70499483D01*
X131144500Y-70439873D01*
X131144499Y-68644128D01*
X131138091Y-68584517D01*
X131136810Y-68581083D01*
X131087797Y-68449671D01*
X131087793Y-68449664D01*
X131001547Y-68334455D01*
X131001544Y-68334452D01*
X130886335Y-68248206D01*
X130886328Y-68248202D01*
X130751482Y-68197908D01*
X130751483Y-68197908D01*
X130691883Y-68191501D01*
X130691881Y-68191500D01*
X130691873Y-68191500D01*
X130691864Y-68191500D01*
X128896129Y-68191500D01*
X128896123Y-68191501D01*
X128836516Y-68197908D01*
X128701671Y-68248202D01*
X128701664Y-68248206D01*
X128586455Y-68334452D01*
X128586452Y-68334455D01*
X128500206Y-68449664D01*
X128500203Y-68449669D01*
X128451189Y-68581083D01*
X128409317Y-68637016D01*
X128343853Y-68661433D01*
X128275580Y-68646581D01*
X128247326Y-68625430D01*
X128133786Y-68511890D01*
X127961820Y-68386951D01*
X127772414Y-68290444D01*
X127772413Y-68290443D01*
X127772412Y-68290443D01*
X127570243Y-68224754D01*
X127570241Y-68224753D01*
X127570240Y-68224753D01*
X127408957Y-68199208D01*
X127360287Y-68191500D01*
X127147713Y-68191500D01*
X127099042Y-68199208D01*
X126937760Y-68224753D01*
X126735585Y-68290444D01*
X126546179Y-68386951D01*
X126374213Y-68511890D01*
X126223890Y-68662213D01*
X126098949Y-68834182D01*
X126094202Y-68843499D01*
X126046227Y-68894293D01*
X125978405Y-68911087D01*
X125912271Y-68888548D01*
X125873234Y-68843495D01*
X125868626Y-68834452D01*
X125829270Y-68780282D01*
X125829269Y-68780282D01*
X125196962Y-69412590D01*
X125179925Y-69349007D01*
X125114099Y-69234993D01*
X125021007Y-69141901D01*
X124906993Y-69076075D01*
X124843409Y-69059037D01*
X125475716Y-68426728D01*
X125421550Y-68387375D01*
X125232217Y-68290904D01*
X125030129Y-68225242D01*
X124820246Y-68192000D01*
X124607754Y-68192000D01*
X124397872Y-68225242D01*
X124397869Y-68225242D01*
X124195782Y-68290904D01*
X124006439Y-68387380D01*
X123952282Y-68426727D01*
X123952282Y-68426728D01*
X124584591Y-69059037D01*
X124521007Y-69076075D01*
X124406993Y-69141901D01*
X124313901Y-69234993D01*
X124248075Y-69349007D01*
X124231037Y-69412591D01*
X123598728Y-68780282D01*
X123598727Y-68780282D01*
X123559380Y-68834439D01*
X123462904Y-69023782D01*
X123397242Y-69225869D01*
X123397242Y-69225872D01*
X123364000Y-69435753D01*
X98671500Y-69435753D01*
X98671500Y-67426500D01*
X98691185Y-67359461D01*
X98743989Y-67313706D01*
X98795500Y-67302500D01*
X133227115Y-67302500D01*
X133294154Y-67322185D01*
G37*
%TD.AperFunction*%
%TD*%
M02*
