%TF.GenerationSoftware,KiCad,Pcbnew,9.0.1*%
%TF.CreationDate,2025-04-27T11:51:01-04:00*%
%TF.ProjectId,ServoBreakout,53657276-6f42-4726-9561-6b6f75742e6b,rev?*%
%TF.SameCoordinates,Original*%
%TF.FileFunction,Copper,L1,Top*%
%TF.FilePolarity,Positive*%
%FSLAX46Y46*%
G04 Gerber Fmt 4.6, Leading zero omitted, Abs format (unit mm)*
G04 Created by KiCad (PCBNEW 9.0.1) date 2025-04-27 11:51:01*
%MOMM*%
%LPD*%
G01*
G04 APERTURE LIST*
%TA.AperFunction,ComponentPad*%
%ADD10R,1.400000X1.400000*%
%TD*%
%TA.AperFunction,ComponentPad*%
%ADD11C,1.400000*%
%TD*%
%TA.AperFunction,ComponentPad*%
%ADD12R,1.700000X1.700000*%
%TD*%
%TA.AperFunction,ComponentPad*%
%ADD13C,1.700000*%
%TD*%
%TA.AperFunction,Conductor*%
%ADD14C,0.350000*%
%TD*%
G04 APERTURE END LIST*
D10*
%TO.P,J1,1,1*%
%TO.N,Data 1*%
X114935000Y-76581000D03*
D11*
%TO.P,J1,2,2*%
%TO.N,Data 2*%
X117475000Y-77851000D03*
%TO.P,J1,3,3*%
%TO.N,Data 3*%
X114935000Y-79121000D03*
%TO.P,J1,4,4*%
%TO.N,Data 4*%
X117475000Y-80391000D03*
%TO.P,J1,5,5*%
%TO.N,Data 5*%
X114935000Y-81661000D03*
%TO.P,J1,6,6*%
%TO.N,Data 6*%
X117475000Y-82931000D03*
%TO.P,J1,7,7*%
%TO.N,GND*%
X114935000Y-84201000D03*
%TO.P,J1,8,8*%
%TO.N,+5V*%
X117475000Y-85471000D03*
%TD*%
D12*
%TO.P,Pin2,1,Pin_1*%
%TO.N,Data 2*%
X129794000Y-74132000D03*
D13*
%TO.P,Pin2,2,Pin_2*%
%TO.N,+5V*%
X127254000Y-74132000D03*
%TO.P,Pin2,3,Pin_3*%
%TO.N,GND*%
X124714000Y-74132000D03*
%TD*%
D12*
%TO.P,Pin5,1,Pin_1*%
%TO.N,Data 5*%
X129794000Y-87902000D03*
D13*
%TO.P,Pin5,2,Pin_2*%
%TO.N,+5V*%
X127254000Y-87902000D03*
%TO.P,Pin5,3,Pin_3*%
%TO.N,GND*%
X124714000Y-87902000D03*
%TD*%
D12*
%TO.P,Pin6,1,Pin_1*%
%TO.N,Data 6*%
X129794000Y-92492000D03*
D13*
%TO.P,Pin6,2,Pin_2*%
%TO.N,+5V*%
X127254000Y-92492000D03*
%TO.P,Pin6,3,Pin_3*%
%TO.N,GND*%
X124714000Y-92492000D03*
%TD*%
D12*
%TO.P,Pin4,1,Pin_1*%
%TO.N,Data 4*%
X129794000Y-83312000D03*
D13*
%TO.P,Pin4,2,Pin_2*%
%TO.N,+5V*%
X127254000Y-83312000D03*
%TO.P,Pin4,3,Pin_3*%
%TO.N,GND*%
X124714000Y-83312000D03*
%TD*%
D12*
%TO.P,Pin3,1,Pin_1*%
%TO.N,Data 3*%
X129794000Y-78722000D03*
D13*
%TO.P,Pin3,2,Pin_2*%
%TO.N,+5V*%
X127254000Y-78722000D03*
%TO.P,Pin3,3,Pin_3*%
%TO.N,GND*%
X124714000Y-78722000D03*
%TD*%
D12*
%TO.P,Pin1,1,Pin_1*%
%TO.N,Data 1*%
X129794000Y-69542000D03*
D13*
%TO.P,Pin1,2,Pin_2*%
%TO.N,+5V*%
X127254000Y-69542000D03*
%TO.P,Pin1,3,Pin_3*%
%TO.N,GND*%
X124714000Y-69542000D03*
%TD*%
D14*
%TO.N,Data 1*%
X128216000Y-71120000D02*
X129794000Y-69542000D01*
X120396000Y-71120000D02*
X128216000Y-71120000D01*
X114935000Y-76581000D02*
X120396000Y-71120000D01*
%TO.N,Data 2*%
X127980000Y-75946000D02*
X129794000Y-74132000D01*
X119380000Y-75946000D02*
X127980000Y-75946000D01*
X117475000Y-77851000D02*
X119380000Y-75946000D01*
%TO.N,Data 4*%
X127762000Y-81280000D02*
X129794000Y-83312000D01*
X118364000Y-81280000D02*
X127762000Y-81280000D01*
X117475000Y-80391000D02*
X118364000Y-81280000D01*
%TO.N,Data 6*%
X127980000Y-90678000D02*
X129794000Y-92492000D01*
X125222000Y-90678000D02*
X127980000Y-90678000D01*
X117475000Y-82931000D02*
X125222000Y-90678000D01*
%TO.N,Data 5*%
X127871000Y-85979000D02*
X129794000Y-87902000D01*
X122044694Y-85979000D02*
X127871000Y-85979000D01*
X117726694Y-81661000D02*
X122044694Y-85979000D01*
X114935000Y-81661000D02*
X117726694Y-81661000D01*
%TD*%
%TA.AperFunction,Conductor*%
%TO.N,+5V*%
G36*
X126484730Y-91373185D02*
G01*
X126505372Y-91389819D01*
X127124591Y-92009037D01*
X127061007Y-92026075D01*
X126946993Y-92091901D01*
X126853901Y-92184993D01*
X126788075Y-92299007D01*
X126771037Y-92362591D01*
X126138728Y-91730282D01*
X126138727Y-91730282D01*
X126099380Y-91784440D01*
X126099376Y-91784446D01*
X126094760Y-91793505D01*
X126046781Y-91844297D01*
X125978959Y-91861087D01*
X125912826Y-91838543D01*
X125873794Y-91793493D01*
X125869051Y-91784184D01*
X125869049Y-91784181D01*
X125869048Y-91784179D01*
X125744109Y-91612213D01*
X125697077Y-91565181D01*
X125663592Y-91503858D01*
X125668576Y-91434166D01*
X125710448Y-91378233D01*
X125775912Y-91353816D01*
X125784758Y-91353500D01*
X126417691Y-91353500D01*
X126484730Y-91373185D01*
G37*
%TD.AperFunction*%
%TA.AperFunction,Conductor*%
G36*
X126435585Y-86674185D02*
G01*
X126481340Y-86726989D01*
X126491816Y-86786262D01*
X127124591Y-87419037D01*
X127061007Y-87436075D01*
X126946993Y-87501901D01*
X126853901Y-87594993D01*
X126788075Y-87709007D01*
X126771037Y-87772591D01*
X126138728Y-87140282D01*
X126138727Y-87140282D01*
X126099380Y-87194440D01*
X126099376Y-87194446D01*
X126094760Y-87203505D01*
X126046781Y-87254297D01*
X125978959Y-87271087D01*
X125912826Y-87248543D01*
X125873794Y-87203493D01*
X125869051Y-87194184D01*
X125869049Y-87194181D01*
X125869048Y-87194179D01*
X125744109Y-87022213D01*
X125590347Y-86868451D01*
X125591348Y-86867449D01*
X125556641Y-86814265D01*
X125556153Y-86744397D01*
X125593516Y-86685357D01*
X125656867Y-86655888D01*
X125675371Y-86654500D01*
X126368546Y-86654500D01*
X126435585Y-86674185D01*
G37*
%TD.AperFunction*%
%TA.AperFunction,Conductor*%
G36*
X126509710Y-81975185D02*
G01*
X126555465Y-82027989D01*
X126565409Y-82097147D01*
X126536384Y-82160703D01*
X126515555Y-82179819D01*
X126492282Y-82196727D01*
X126492282Y-82196728D01*
X127124591Y-82829037D01*
X127061007Y-82846075D01*
X126946993Y-82911901D01*
X126853901Y-83004993D01*
X126788075Y-83119007D01*
X126771037Y-83182591D01*
X126138728Y-82550282D01*
X126138727Y-82550282D01*
X126099380Y-82604440D01*
X126099376Y-82604446D01*
X126094760Y-82613505D01*
X126046781Y-82664297D01*
X125978959Y-82681087D01*
X125912826Y-82658543D01*
X125873794Y-82613493D01*
X125869051Y-82604184D01*
X125869049Y-82604181D01*
X125869048Y-82604179D01*
X125744109Y-82432213D01*
X125593790Y-82281894D01*
X125593785Y-82281890D01*
X125453294Y-82179818D01*
X125410628Y-82124489D01*
X125404649Y-82054875D01*
X125437254Y-81993080D01*
X125498093Y-81958723D01*
X125526179Y-81955500D01*
X126442671Y-81955500D01*
X126509710Y-81975185D01*
G37*
%TD.AperFunction*%
%TA.AperFunction,Conductor*%
G36*
X126788075Y-74324993D02*
G01*
X126853901Y-74439007D01*
X126946993Y-74532099D01*
X127061007Y-74597925D01*
X127124591Y-74614962D01*
X126505372Y-75234181D01*
X126444049Y-75267666D01*
X126417691Y-75270500D01*
X125784758Y-75270500D01*
X125717719Y-75250815D01*
X125671964Y-75198011D01*
X125662020Y-75128853D01*
X125691045Y-75065297D01*
X125697077Y-75058819D01*
X125744104Y-75011792D01*
X125744106Y-75011788D01*
X125744109Y-75011786D01*
X125811515Y-74919007D01*
X125869051Y-74839816D01*
X125873793Y-74830508D01*
X125921763Y-74779711D01*
X125989583Y-74762911D01*
X126055719Y-74785445D01*
X126094763Y-74830500D01*
X126099373Y-74839547D01*
X126138728Y-74893716D01*
X126771037Y-74261408D01*
X126788075Y-74324993D01*
G37*
%TD.AperFunction*%
%TA.AperFunction,Conductor*%
G36*
X133294154Y-67322185D02*
G01*
X133339909Y-67374989D01*
X133351114Y-67425931D01*
X133433457Y-85376552D01*
X133472136Y-93808757D01*
X133475298Y-94497931D01*
X133455921Y-94565060D01*
X133403327Y-94611057D01*
X133351299Y-94622500D01*
X98795500Y-94622500D01*
X98728461Y-94602815D01*
X98682706Y-94550011D01*
X98671500Y-94498500D01*
X98671500Y-86620695D01*
X106749500Y-86620695D01*
X106749500Y-86861305D01*
X106780906Y-87099857D01*
X106826787Y-87271087D01*
X106843183Y-87332275D01*
X106935253Y-87554553D01*
X106935261Y-87554570D01*
X107055558Y-87762929D01*
X107055569Y-87762945D01*
X107202035Y-87953824D01*
X107202041Y-87953831D01*
X107372168Y-88123958D01*
X107372174Y-88123963D01*
X107563063Y-88270437D01*
X107563070Y-88270441D01*
X107771429Y-88390738D01*
X107771434Y-88390740D01*
X107771437Y-88390742D01*
X107771441Y-88390743D01*
X107771446Y-88390746D01*
X107993724Y-88482816D01*
X107993726Y-88482816D01*
X107993732Y-88482819D01*
X108226143Y-88545094D01*
X108464695Y-88576500D01*
X108464702Y-88576500D01*
X108705298Y-88576500D01*
X108705305Y-88576500D01*
X108943857Y-88545094D01*
X109176268Y-88482819D01*
X109398563Y-88390742D01*
X109606937Y-88270437D01*
X109797826Y-88123963D01*
X109967963Y-87953826D01*
X110114437Y-87762937D01*
X110234742Y-87554563D01*
X110326819Y-87332268D01*
X110389094Y-87099857D01*
X110420500Y-86861305D01*
X110420500Y-86620695D01*
X110389094Y-86382143D01*
X110326819Y-86149732D01*
X110306193Y-86099937D01*
X110234746Y-85927446D01*
X110234738Y-85927429D01*
X110114441Y-85719070D01*
X110114437Y-85719063D01*
X109996564Y-85565447D01*
X109967964Y-85528175D01*
X109967958Y-85528168D01*
X109797831Y-85358041D01*
X109797824Y-85358035D01*
X109606945Y-85211569D01*
X109606943Y-85211567D01*
X109606937Y-85211563D01*
X109606932Y-85211560D01*
X109606929Y-85211558D01*
X109398570Y-85091261D01*
X109398553Y-85091253D01*
X109176275Y-84999183D01*
X109116152Y-84983073D01*
X108943857Y-84936906D01*
X108943856Y-84936905D01*
X108943853Y-84936905D01*
X108705314Y-84905501D01*
X108705311Y-84905500D01*
X108705305Y-84905500D01*
X108464695Y-84905500D01*
X108464689Y-84905500D01*
X108464685Y-84905501D01*
X108226146Y-84936905D01*
X107993724Y-84999183D01*
X107771446Y-85091253D01*
X107771429Y-85091261D01*
X107563070Y-85211558D01*
X107563054Y-85211569D01*
X107372175Y-85358035D01*
X107372168Y-85358041D01*
X107202041Y-85528168D01*
X107202035Y-85528175D01*
X107055569Y-85719054D01*
X107055558Y-85719070D01*
X106935261Y-85927429D01*
X106935253Y-85927446D01*
X106843183Y-86149724D01*
X106780905Y-86382146D01*
X106751144Y-86608204D01*
X106749500Y-86620695D01*
X98671500Y-86620695D01*
X98671500Y-75190701D01*
X106749500Y-75190701D01*
X106749500Y-75431298D01*
X106749501Y-75431314D01*
X106780905Y-75669853D01*
X106843183Y-75902275D01*
X106935253Y-76124553D01*
X106935261Y-76124570D01*
X107055558Y-76332929D01*
X107055569Y-76332945D01*
X107202035Y-76523824D01*
X107202041Y-76523831D01*
X107372168Y-76693958D01*
X107372175Y-76693964D01*
X107430156Y-76738454D01*
X107563063Y-76840437D01*
X107563070Y-76840441D01*
X107771429Y-76960738D01*
X107771434Y-76960740D01*
X107771437Y-76960742D01*
X107771441Y-76960743D01*
X107771446Y-76960746D01*
X107993724Y-77052816D01*
X107993726Y-77052816D01*
X107993732Y-77052819D01*
X108226143Y-77115094D01*
X108464695Y-77146500D01*
X108464702Y-77146500D01*
X108705298Y-77146500D01*
X108705305Y-77146500D01*
X108943857Y-77115094D01*
X109176268Y-77052819D01*
X109398563Y-76960742D01*
X109606937Y-76840437D01*
X109797826Y-76693963D01*
X109967963Y-76523826D01*
X110114437Y-76332937D01*
X110234742Y-76124563D01*
X110326819Y-75902268D01*
X110345343Y-75833135D01*
X113734500Y-75833135D01*
X113734500Y-77328870D01*
X113734501Y-77328876D01*
X113740908Y-77388483D01*
X113791202Y-77523328D01*
X113791206Y-77523335D01*
X113877452Y-77638544D01*
X113877455Y-77638547D01*
X113992664Y-77724793D01*
X113992671Y-77724797D01*
X114127517Y-77775091D01*
X114127516Y-77775091D01*
X114134444Y-77775835D01*
X114187127Y-77781500D01*
X114403091Y-77781499D01*
X114470129Y-77801183D01*
X114515884Y-77853987D01*
X114525828Y-77923145D01*
X114496803Y-77986701D01*
X114459385Y-78015983D01*
X114305805Y-78094236D01*
X114203885Y-78168286D01*
X114152927Y-78205310D01*
X114152925Y-78205312D01*
X114152924Y-78205312D01*
X114019312Y-78338924D01*
X114019312Y-78338925D01*
X114019310Y-78338927D01*
X113997863Y-78368446D01*
X113908240Y-78491800D01*
X113822454Y-78660163D01*
X113764059Y-78839881D01*
X113734500Y-79026513D01*
X113734500Y-79215486D01*
X113764059Y-79402118D01*
X113822454Y-79581836D01*
X113908240Y-79750199D01*
X114019310Y-79903073D01*
X114152927Y-80036690D01*
X114305801Y-80147760D01*
X114385347Y-80188290D01*
X114474163Y-80233545D01*
X114474165Y-80233545D01*
X114474168Y-80233547D01*
X114563734Y-80262649D01*
X114595803Y-80273069D01*
X114653478Y-80312507D01*
X114680676Y-80376866D01*
X114668761Y-80445712D01*
X114621516Y-80497188D01*
X114595803Y-80508931D01*
X114474163Y-80548454D01*
X114305800Y-80634240D01*
X114218579Y-80697610D01*
X114152927Y-80745310D01*
X114152925Y-80745312D01*
X114152924Y-80745312D01*
X114019312Y-80878924D01*
X114019312Y-80878925D01*
X114019310Y-80878927D01*
X113972974Y-80942703D01*
X113908240Y-81031800D01*
X113822454Y-81200163D01*
X113764059Y-81379881D01*
X113734500Y-81566513D01*
X113734500Y-81755486D01*
X113764059Y-81942118D01*
X113822454Y-82121836D01*
X113872303Y-82219669D01*
X113908240Y-82290199D01*
X114019310Y-82443073D01*
X114152927Y-82576690D01*
X114305801Y-82687760D01*
X114385347Y-82728290D01*
X114474163Y-82773545D01*
X114474165Y-82773545D01*
X114474168Y-82773547D01*
X114563734Y-82802649D01*
X114595803Y-82813069D01*
X114653478Y-82852507D01*
X114680676Y-82916866D01*
X114668761Y-82985712D01*
X114621516Y-83037188D01*
X114595803Y-83048931D01*
X114474163Y-83088454D01*
X114305800Y-83174240D01*
X114218579Y-83237610D01*
X114152927Y-83285310D01*
X114152925Y-83285312D01*
X114152924Y-83285312D01*
X114019312Y-83418924D01*
X114019312Y-83418925D01*
X114019310Y-83418927D01*
X113971610Y-83484579D01*
X113908240Y-83571800D01*
X113822454Y-83740163D01*
X113764059Y-83919881D01*
X113734500Y-84106513D01*
X113734500Y-84295486D01*
X113764059Y-84482118D01*
X113822454Y-84661836D01*
X113901346Y-84816669D01*
X113908240Y-84830199D01*
X114019310Y-84983073D01*
X114152927Y-85116690D01*
X114305801Y-85227760D01*
X114383169Y-85267181D01*
X114474163Y-85313545D01*
X114474165Y-85313545D01*
X114474168Y-85313547D01*
X114523134Y-85329457D01*
X114653881Y-85371940D01*
X114840514Y-85401500D01*
X114840519Y-85401500D01*
X115029486Y-85401500D01*
X115216118Y-85371940D01*
X115258894Y-85358041D01*
X115395832Y-85313547D01*
X115564199Y-85227760D01*
X115717073Y-85116690D01*
X115850690Y-84983073D01*
X115961760Y-84830199D01*
X116047547Y-84661832D01*
X116105940Y-84482118D01*
X116114627Y-84427269D01*
X116135500Y-84295486D01*
X116135500Y-84106513D01*
X116105940Y-83919881D01*
X116047545Y-83740163D01*
X116002290Y-83651347D01*
X115961760Y-83571801D01*
X115850690Y-83418927D01*
X115717073Y-83285310D01*
X115564199Y-83174240D01*
X115395836Y-83088454D01*
X115321472Y-83064291D01*
X115274195Y-83048930D01*
X115216521Y-83009493D01*
X115189323Y-82945134D01*
X115201238Y-82876288D01*
X115248482Y-82824812D01*
X115274194Y-82813069D01*
X115395832Y-82773547D01*
X115564199Y-82687760D01*
X115717073Y-82576690D01*
X115850690Y-82443073D01*
X115890983Y-82387613D01*
X115895315Y-82384273D01*
X115897588Y-82379297D01*
X115922687Y-82363166D01*
X115946313Y-82344949D01*
X115952984Y-82343696D01*
X115956366Y-82341523D01*
X115991301Y-82336500D01*
X116235213Y-82336500D01*
X116302252Y-82356185D01*
X116348007Y-82408989D01*
X116357951Y-82478147D01*
X116353144Y-82498819D01*
X116304059Y-82649881D01*
X116274500Y-82836513D01*
X116274500Y-83025486D01*
X116304059Y-83212118D01*
X116362454Y-83391836D01*
X116420111Y-83504993D01*
X116448240Y-83560199D01*
X116559310Y-83713073D01*
X116692927Y-83846690D01*
X116845801Y-83957760D01*
X117014168Y-84043547D01*
X117136612Y-84083331D01*
X117194287Y-84122769D01*
X117221485Y-84187127D01*
X117209570Y-84255974D01*
X117162326Y-84307449D01*
X117136612Y-84319193D01*
X117014361Y-84358915D01*
X116846060Y-84444669D01*
X116820670Y-84463116D01*
X116820669Y-84463116D01*
X117386415Y-85028861D01*
X117301306Y-85051667D01*
X117198694Y-85110910D01*
X117114910Y-85194694D01*
X117055667Y-85297306D01*
X117032861Y-85382414D01*
X116467116Y-84816669D01*
X116467116Y-84816670D01*
X116448669Y-84842060D01*
X116362914Y-85010362D01*
X116304548Y-85189997D01*
X116275000Y-85376552D01*
X116275000Y-85565447D01*
X116304548Y-85752002D01*
X116362914Y-85931637D01*
X116448666Y-86099933D01*
X116467116Y-86125328D01*
X117032861Y-85559584D01*
X117055667Y-85644694D01*
X117114910Y-85747306D01*
X117198694Y-85831090D01*
X117301306Y-85890333D01*
X117386415Y-85913138D01*
X116820669Y-86478882D01*
X116820670Y-86478883D01*
X116846059Y-86497329D01*
X117014362Y-86583085D01*
X117193997Y-86641451D01*
X117380553Y-86671000D01*
X117569447Y-86671000D01*
X117756002Y-86641451D01*
X117935637Y-86583085D01*
X118103937Y-86497331D01*
X118129328Y-86478883D01*
X118129328Y-86478882D01*
X117563584Y-85913138D01*
X117648694Y-85890333D01*
X117751306Y-85831090D01*
X117835090Y-85747306D01*
X117894333Y-85644694D01*
X117917138Y-85559584D01*
X118482882Y-86125328D01*
X118482883Y-86125328D01*
X118501331Y-86099937D01*
X118587085Y-85931637D01*
X118645451Y-85752002D01*
X118675000Y-85565447D01*
X118675000Y-85385663D01*
X118694685Y-85318624D01*
X118747489Y-85272869D01*
X118816647Y-85262925D01*
X118880203Y-85291950D01*
X118886681Y-85297982D01*
X124541368Y-90952669D01*
X124574853Y-91013992D01*
X124569869Y-91083684D01*
X124527997Y-91139617D01*
X124473085Y-91162823D01*
X124397760Y-91174753D01*
X124195585Y-91240444D01*
X124006179Y-91336951D01*
X123834213Y-91461890D01*
X123683890Y-91612213D01*
X123558951Y-91784179D01*
X123462444Y-91973585D01*
X123396753Y-92175760D01*
X123363500Y-92385713D01*
X123363500Y-92598286D01*
X123396753Y-92808239D01*
X123462444Y-93010414D01*
X123558951Y-93199820D01*
X123683890Y-93371786D01*
X123834213Y-93522109D01*
X124006179Y-93647048D01*
X124006181Y-93647049D01*
X124006184Y-93647051D01*
X124195588Y-93743557D01*
X124397757Y-93809246D01*
X124607713Y-93842500D01*
X124607714Y-93842500D01*
X124820286Y-93842500D01*
X124820287Y-93842500D01*
X125030243Y-93809246D01*
X125232412Y-93743557D01*
X125421816Y-93647051D01*
X125508138Y-93584335D01*
X125593786Y-93522109D01*
X125593788Y-93522106D01*
X125593792Y-93522104D01*
X125744104Y-93371792D01*
X125744106Y-93371788D01*
X125744109Y-93371786D01*
X125826169Y-93258838D01*
X125869051Y-93199816D01*
X125873793Y-93190508D01*
X125921763Y-93139711D01*
X125989583Y-93122911D01*
X126055719Y-93145445D01*
X126094763Y-93190500D01*
X126099373Y-93199547D01*
X126138728Y-93253716D01*
X126771037Y-92621408D01*
X126788075Y-92684993D01*
X126853901Y-92799007D01*
X126946993Y-92892099D01*
X127061007Y-92957925D01*
X127124590Y-92974962D01*
X126492282Y-93607269D01*
X126492282Y-93607270D01*
X126546449Y-93646624D01*
X126735782Y-93743095D01*
X126937870Y-93808757D01*
X127147754Y-93842000D01*
X127360246Y-93842000D01*
X127570127Y-93808757D01*
X127570130Y-93808757D01*
X127772217Y-93743095D01*
X127961554Y-93646622D01*
X128015716Y-93607270D01*
X128015717Y-93607270D01*
X127383408Y-92974962D01*
X127446993Y-92957925D01*
X127561007Y-92892099D01*
X127654099Y-92799007D01*
X127719925Y-92684993D01*
X127736962Y-92621408D01*
X128407181Y-93291628D01*
X128440666Y-93352951D01*
X128443500Y-93379300D01*
X128443500Y-93389865D01*
X128443501Y-93389876D01*
X128449908Y-93449483D01*
X128500202Y-93584328D01*
X128500206Y-93584335D01*
X128586452Y-93699544D01*
X128586455Y-93699547D01*
X128701664Y-93785793D01*
X128701671Y-93785797D01*
X128836517Y-93836091D01*
X128836516Y-93836091D01*
X128843444Y-93836835D01*
X128896127Y-93842500D01*
X130691872Y-93842499D01*
X130751483Y-93836091D01*
X130886331Y-93785796D01*
X131001546Y-93699546D01*
X131087796Y-93584331D01*
X131138091Y-93449483D01*
X131144500Y-93389873D01*
X131144499Y-91594128D01*
X131138091Y-91534517D01*
X131087796Y-91399669D01*
X131087795Y-91399668D01*
X131087793Y-91399664D01*
X131001547Y-91284455D01*
X131001544Y-91284452D01*
X130886335Y-91198206D01*
X130886328Y-91198202D01*
X130751482Y-91147908D01*
X130751483Y-91147908D01*
X130691883Y-91141501D01*
X130691881Y-91141500D01*
X130691873Y-91141500D01*
X130691865Y-91141500D01*
X129450163Y-91141500D01*
X129383124Y-91121815D01*
X129362482Y-91105181D01*
X128410609Y-90153307D01*
X128410605Y-90153304D01*
X128299975Y-90079383D01*
X128299965Y-90079378D01*
X128177036Y-90028459D01*
X128177028Y-90028457D01*
X128046535Y-90002500D01*
X128046531Y-90002500D01*
X125553163Y-90002500D01*
X125486124Y-89982815D01*
X125465482Y-89966181D01*
X124933248Y-89433947D01*
X124899763Y-89372624D01*
X124904747Y-89302932D01*
X124946619Y-89246999D01*
X125001529Y-89223793D01*
X125030243Y-89219246D01*
X125232412Y-89153557D01*
X125421816Y-89057051D01*
X125508138Y-88994335D01*
X125593786Y-88932109D01*
X125593788Y-88932106D01*
X125593792Y-88932104D01*
X125744104Y-88781792D01*
X125744106Y-88781788D01*
X125744109Y-88781786D01*
X125811515Y-88689007D01*
X125869051Y-88609816D01*
X125873793Y-88600508D01*
X125921763Y-88549711D01*
X125989583Y-88532911D01*
X126055719Y-88555445D01*
X126094763Y-88600500D01*
X126099373Y-88609547D01*
X126138728Y-88663716D01*
X126771037Y-88031408D01*
X126788075Y-88094993D01*
X126853901Y-88209007D01*
X126946993Y-88302099D01*
X127061007Y-88367925D01*
X127124590Y-88384962D01*
X126492282Y-89017269D01*
X126492282Y-89017270D01*
X126546449Y-89056624D01*
X126735782Y-89153095D01*
X126937870Y-89218757D01*
X127147754Y-89252000D01*
X127360246Y-89252000D01*
X127570127Y-89218757D01*
X127570130Y-89218757D01*
X127772217Y-89153095D01*
X127961554Y-89056622D01*
X128015716Y-89017270D01*
X128015717Y-89017270D01*
X127383408Y-88384962D01*
X127446993Y-88367925D01*
X127561007Y-88302099D01*
X127654099Y-88209007D01*
X127719925Y-88094993D01*
X127736962Y-88031408D01*
X128407181Y-88701628D01*
X128440666Y-88762951D01*
X128443500Y-88789300D01*
X128443500Y-88799865D01*
X128443501Y-88799876D01*
X128449908Y-88859483D01*
X128500202Y-88994328D01*
X128500206Y-88994335D01*
X128586452Y-89109544D01*
X128586455Y-89109547D01*
X128701664Y-89195793D01*
X128701671Y-89195797D01*
X128836517Y-89246091D01*
X128836516Y-89246091D01*
X128843444Y-89246835D01*
X128896127Y-89252500D01*
X130691872Y-89252499D01*
X130751483Y-89246091D01*
X130886331Y-89195796D01*
X131001546Y-89109546D01*
X131087796Y-88994331D01*
X131138091Y-88859483D01*
X131144500Y-88799873D01*
X131144499Y-87004128D01*
X131138091Y-86944517D01*
X131109720Y-86868451D01*
X131087797Y-86809671D01*
X131087793Y-86809664D01*
X131001547Y-86694455D01*
X131001544Y-86694452D01*
X130886335Y-86608206D01*
X130886328Y-86608202D01*
X130751482Y-86557908D01*
X130751483Y-86557908D01*
X130691883Y-86551501D01*
X130691881Y-86551500D01*
X130691873Y-86551500D01*
X130691865Y-86551500D01*
X129450163Y-86551500D01*
X129383124Y-86531815D01*
X129362482Y-86515181D01*
X128301609Y-85454307D01*
X128301605Y-85454304D01*
X128190975Y-85380383D01*
X128190965Y-85380378D01*
X128068036Y-85329459D01*
X128068028Y-85329457D01*
X127937535Y-85303500D01*
X127937531Y-85303500D01*
X122375857Y-85303500D01*
X122308818Y-85283815D01*
X122288176Y-85267181D01*
X119188176Y-82167181D01*
X119154691Y-82105858D01*
X119159675Y-82036166D01*
X119201547Y-81980233D01*
X119267011Y-81955816D01*
X119275857Y-81955500D01*
X123901821Y-81955500D01*
X123968860Y-81975185D01*
X124014615Y-82027989D01*
X124024559Y-82097147D01*
X123995534Y-82160703D01*
X123974706Y-82179818D01*
X123834214Y-82281890D01*
X123834209Y-82281894D01*
X123683890Y-82432213D01*
X123558951Y-82604179D01*
X123462444Y-82793585D01*
X123396753Y-82995760D01*
X123368485Y-83174240D01*
X123363500Y-83205713D01*
X123363500Y-83418287D01*
X123396754Y-83628243D01*
X123433119Y-83740163D01*
X123462444Y-83830414D01*
X123558951Y-84019820D01*
X123683890Y-84191786D01*
X123834213Y-84342109D01*
X124006179Y-84467048D01*
X124006181Y-84467049D01*
X124006184Y-84467051D01*
X124195588Y-84563557D01*
X124397757Y-84629246D01*
X124607713Y-84662500D01*
X124607714Y-84662500D01*
X124820286Y-84662500D01*
X124820287Y-84662500D01*
X125030243Y-84629246D01*
X125232412Y-84563557D01*
X125421816Y-84467051D01*
X125508138Y-84404335D01*
X125593786Y-84342109D01*
X125593788Y-84342106D01*
X125593792Y-84342104D01*
X125744104Y-84191792D01*
X125744106Y-84191788D01*
X125744109Y-84191786D01*
X125822905Y-84083331D01*
X125869051Y-84019816D01*
X125873793Y-84010508D01*
X125921763Y-83959711D01*
X125989583Y-83942911D01*
X126055719Y-83965445D01*
X126094763Y-84010500D01*
X126099373Y-84019547D01*
X126138728Y-84073716D01*
X126771037Y-83441408D01*
X126788075Y-83504993D01*
X126853901Y-83619007D01*
X126946993Y-83712099D01*
X127061007Y-83777925D01*
X127124590Y-83794962D01*
X126492282Y-84427269D01*
X126492282Y-84427270D01*
X126546449Y-84466624D01*
X126735782Y-84563095D01*
X126937870Y-84628757D01*
X127147754Y-84662000D01*
X127360246Y-84662000D01*
X127570127Y-84628757D01*
X127570130Y-84628757D01*
X127772217Y-84563095D01*
X127961554Y-84466622D01*
X128015716Y-84427270D01*
X128015717Y-84427270D01*
X127383408Y-83794962D01*
X127446993Y-83777925D01*
X127561007Y-83712099D01*
X127654099Y-83619007D01*
X127719925Y-83504993D01*
X127736962Y-83441408D01*
X128407181Y-84111628D01*
X128440666Y-84172951D01*
X128443500Y-84199300D01*
X128443500Y-84209865D01*
X128443501Y-84209876D01*
X128449908Y-84269483D01*
X128500202Y-84404328D01*
X128500206Y-84404335D01*
X128586452Y-84519544D01*
X128586455Y-84519547D01*
X128701664Y-84605793D01*
X128701671Y-84605797D01*
X128836517Y-84656091D01*
X128836516Y-84656091D01*
X128843444Y-84656835D01*
X128896127Y-84662500D01*
X130691872Y-84662499D01*
X130751483Y-84656091D01*
X130886331Y-84605796D01*
X131001546Y-84519546D01*
X131087796Y-84404331D01*
X131138091Y-84269483D01*
X131144500Y-84209873D01*
X131144499Y-82414128D01*
X131138091Y-82354517D01*
X131134522Y-82344949D01*
X131087797Y-82219671D01*
X131087793Y-82219664D01*
X131001547Y-82104455D01*
X131001544Y-82104452D01*
X130886335Y-82018206D01*
X130886328Y-82018202D01*
X130751482Y-81967908D01*
X130751483Y-81967908D01*
X130691883Y-81961501D01*
X130691881Y-81961500D01*
X130691873Y-81961500D01*
X130691865Y-81961500D01*
X129450163Y-81961500D01*
X129383124Y-81941815D01*
X129362482Y-81925181D01*
X128192609Y-80755307D01*
X128192605Y-80755304D01*
X128081975Y-80681383D01*
X128081965Y-80681378D01*
X127959036Y-80630459D01*
X127959028Y-80630457D01*
X127828535Y-80604500D01*
X127828531Y-80604500D01*
X118799500Y-80604500D01*
X118732461Y-80584815D01*
X118686706Y-80532011D01*
X118675500Y-80480500D01*
X118675500Y-80296513D01*
X118645940Y-80109881D01*
X118587545Y-79930163D01*
X118501759Y-79761800D01*
X118494715Y-79752105D01*
X118390690Y-79608927D01*
X118257073Y-79475310D01*
X118104199Y-79364240D01*
X118081965Y-79352911D01*
X117935836Y-79278454D01*
X117861472Y-79254291D01*
X117814195Y-79238930D01*
X117756521Y-79199493D01*
X117729323Y-79135134D01*
X117741238Y-79066288D01*
X117788482Y-79014812D01*
X117814194Y-79003069D01*
X117935832Y-78963547D01*
X118104199Y-78877760D01*
X118257073Y-78766690D01*
X118390690Y-78633073D01*
X118403303Y-78615713D01*
X123363500Y-78615713D01*
X123363500Y-78828287D01*
X123396754Y-79038243D01*
X123458146Y-79227188D01*
X123462444Y-79240414D01*
X123558951Y-79429820D01*
X123683890Y-79601786D01*
X123834213Y-79752109D01*
X124006179Y-79877048D01*
X124006181Y-79877049D01*
X124006184Y-79877051D01*
X124195588Y-79973557D01*
X124397757Y-80039246D01*
X124607713Y-80072500D01*
X124607714Y-80072500D01*
X124820286Y-80072500D01*
X124820287Y-80072500D01*
X125030243Y-80039246D01*
X125232412Y-79973557D01*
X125421816Y-79877051D01*
X125508138Y-79814335D01*
X125593786Y-79752109D01*
X125593788Y-79752106D01*
X125593792Y-79752104D01*
X125744104Y-79601792D01*
X125744106Y-79601788D01*
X125744109Y-79601786D01*
X125811515Y-79509007D01*
X125869051Y-79429816D01*
X125873793Y-79420508D01*
X125921763Y-79369711D01*
X125989583Y-79352911D01*
X126055719Y-79375445D01*
X126094763Y-79420500D01*
X126099373Y-79429547D01*
X126138728Y-79483716D01*
X126771037Y-78851408D01*
X126788075Y-78914993D01*
X126853901Y-79029007D01*
X126946993Y-79122099D01*
X127061007Y-79187925D01*
X127124590Y-79204962D01*
X126492282Y-79837269D01*
X126492282Y-79837270D01*
X126546449Y-79876624D01*
X126735782Y-79973095D01*
X126937870Y-80038757D01*
X127147754Y-80072000D01*
X127360246Y-80072000D01*
X127570127Y-80038757D01*
X127570130Y-80038757D01*
X127772217Y-79973095D01*
X127961554Y-79876622D01*
X128015716Y-79837270D01*
X128015717Y-79837270D01*
X127383408Y-79204962D01*
X127446993Y-79187925D01*
X127561007Y-79122099D01*
X127654099Y-79029007D01*
X127719925Y-78914993D01*
X127736962Y-78851408D01*
X128407181Y-79521628D01*
X128440666Y-79582951D01*
X128443500Y-79609300D01*
X128443500Y-79619865D01*
X128443501Y-79619876D01*
X128449908Y-79679483D01*
X128500202Y-79814328D01*
X128500206Y-79814335D01*
X128586452Y-79929544D01*
X128586455Y-79929547D01*
X128701664Y-80015793D01*
X128701671Y-80015797D01*
X128836517Y-80066091D01*
X128836516Y-80066091D01*
X128843444Y-80066835D01*
X128896127Y-80072500D01*
X130691872Y-80072499D01*
X130751483Y-80066091D01*
X130886331Y-80015796D01*
X131001546Y-79929546D01*
X131087796Y-79814331D01*
X131138091Y-79679483D01*
X131144500Y-79619873D01*
X131144499Y-77824128D01*
X131138091Y-77764517D01*
X131135105Y-77756512D01*
X131087797Y-77629671D01*
X131087793Y-77629664D01*
X131001547Y-77514455D01*
X131001544Y-77514452D01*
X130886335Y-77428206D01*
X130886328Y-77428202D01*
X130751482Y-77377908D01*
X130751483Y-77377908D01*
X130691883Y-77371501D01*
X130691881Y-77371500D01*
X130691873Y-77371500D01*
X130691864Y-77371500D01*
X128896129Y-77371500D01*
X128896123Y-77371501D01*
X128836516Y-77377908D01*
X128701671Y-77428202D01*
X128701664Y-77428206D01*
X128586455Y-77514452D01*
X128586452Y-77514455D01*
X128500206Y-77629664D01*
X128500202Y-77629671D01*
X128449908Y-77764517D01*
X128443501Y-77824116D01*
X128443501Y-77824123D01*
X128443500Y-77824135D01*
X128443500Y-77834690D01*
X128423815Y-77901729D01*
X128407181Y-77922371D01*
X127736962Y-78592590D01*
X127719925Y-78529007D01*
X127654099Y-78414993D01*
X127561007Y-78321901D01*
X127446993Y-78256075D01*
X127383409Y-78239037D01*
X128015716Y-77606728D01*
X127961550Y-77567375D01*
X127772217Y-77470904D01*
X127570129Y-77405242D01*
X127360246Y-77372000D01*
X127147754Y-77372000D01*
X126937872Y-77405242D01*
X126937869Y-77405242D01*
X126735782Y-77470904D01*
X126546439Y-77567380D01*
X126492282Y-77606727D01*
X126492282Y-77606728D01*
X127124591Y-78239037D01*
X127061007Y-78256075D01*
X126946993Y-78321901D01*
X126853901Y-78414993D01*
X126788075Y-78529007D01*
X126771037Y-78592591D01*
X126138728Y-77960282D01*
X126138727Y-77960282D01*
X126099380Y-78014440D01*
X126099376Y-78014446D01*
X126094760Y-78023505D01*
X126046781Y-78074297D01*
X125978959Y-78091087D01*
X125912826Y-78068543D01*
X125873794Y-78023493D01*
X125869051Y-78014184D01*
X125869049Y-78014181D01*
X125869048Y-78014179D01*
X125744109Y-77842213D01*
X125593786Y-77691890D01*
X125421820Y-77566951D01*
X125232414Y-77470444D01*
X125232413Y-77470443D01*
X125232412Y-77470443D01*
X125030243Y-77404754D01*
X125030241Y-77404753D01*
X125030240Y-77404753D01*
X124868957Y-77379208D01*
X124820287Y-77371500D01*
X124607713Y-77371500D01*
X124559042Y-77379208D01*
X124397760Y-77404753D01*
X124195585Y-77470444D01*
X124006179Y-77566951D01*
X123834213Y-77691890D01*
X123683890Y-77842213D01*
X123558951Y-78014179D01*
X123462444Y-78203585D01*
X123462443Y-78203587D01*
X123462443Y-78203588D01*
X123461883Y-78205312D01*
X123396753Y-78405760D01*
X123395291Y-78414993D01*
X123363500Y-78615713D01*
X118403303Y-78615713D01*
X118501760Y-78480199D01*
X118587547Y-78311832D01*
X118645940Y-78132118D01*
X118656009Y-78068543D01*
X118675500Y-77945486D01*
X118675500Y-77756521D01*
X118675499Y-77756512D01*
X118664775Y-77688808D01*
X118673729Y-77619519D01*
X118699564Y-77581735D01*
X119623482Y-76657819D01*
X119684805Y-76624334D01*
X119711163Y-76621500D01*
X128046532Y-76621500D01*
X128046533Y-76621499D01*
X128177036Y-76595541D01*
X128299969Y-76544620D01*
X128410606Y-76470695D01*
X129362482Y-75518817D01*
X129423805Y-75485333D01*
X129450163Y-75482499D01*
X130691871Y-75482499D01*
X130691872Y-75482499D01*
X130751483Y-75476091D01*
X130886331Y-75425796D01*
X131001546Y-75339546D01*
X131087796Y-75224331D01*
X131138091Y-75089483D01*
X131144500Y-75029873D01*
X131144499Y-73234128D01*
X131138091Y-73174517D01*
X131087796Y-73039669D01*
X131087795Y-73039668D01*
X131087793Y-73039664D01*
X131001547Y-72924455D01*
X131001544Y-72924452D01*
X130886335Y-72838206D01*
X130886328Y-72838202D01*
X130751482Y-72787908D01*
X130751483Y-72787908D01*
X130691883Y-72781501D01*
X130691881Y-72781500D01*
X130691873Y-72781500D01*
X130691864Y-72781500D01*
X128896129Y-72781500D01*
X128896123Y-72781501D01*
X128836516Y-72787908D01*
X128701671Y-72838202D01*
X128701664Y-72838206D01*
X128586455Y-72924452D01*
X128586452Y-72924455D01*
X128500206Y-73039664D01*
X128500202Y-73039671D01*
X128449908Y-73174517D01*
X128443501Y-73234116D01*
X128443501Y-73234123D01*
X128443500Y-73234135D01*
X128443500Y-73244690D01*
X128423815Y-73311729D01*
X128407181Y-73332371D01*
X127736962Y-74002590D01*
X127719925Y-73939007D01*
X127654099Y-73824993D01*
X127561007Y-73731901D01*
X127446993Y-73666075D01*
X127383409Y-73649037D01*
X128015716Y-73016728D01*
X127961550Y-72977375D01*
X127772217Y-72880904D01*
X127570129Y-72815242D01*
X127360246Y-72782000D01*
X127147754Y-72782000D01*
X126937872Y-72815242D01*
X126937869Y-72815242D01*
X126735782Y-72880904D01*
X126546439Y-72977380D01*
X126492282Y-73016727D01*
X126492282Y-73016728D01*
X127124591Y-73649037D01*
X127061007Y-73666075D01*
X126946993Y-73731901D01*
X126853901Y-73824993D01*
X126788075Y-73939007D01*
X126771037Y-74002591D01*
X126138728Y-73370282D01*
X126138727Y-73370282D01*
X126099380Y-73424440D01*
X126099376Y-73424446D01*
X126094760Y-73433505D01*
X126046781Y-73484297D01*
X125978959Y-73501087D01*
X125912826Y-73478543D01*
X125873794Y-73433493D01*
X125869051Y-73424184D01*
X125869049Y-73424181D01*
X125869048Y-73424179D01*
X125744109Y-73252213D01*
X125593786Y-73101890D01*
X125421820Y-72976951D01*
X125232414Y-72880444D01*
X125232413Y-72880443D01*
X125232412Y-72880443D01*
X125030243Y-72814754D01*
X125030241Y-72814753D01*
X125030240Y-72814753D01*
X124868957Y-72789208D01*
X124820287Y-72781500D01*
X124607713Y-72781500D01*
X124559042Y-72789208D01*
X124397760Y-72814753D01*
X124195585Y-72880444D01*
X124006179Y-72976951D01*
X123834213Y-73101890D01*
X123683890Y-73252213D01*
X123558951Y-73424179D01*
X123462444Y-73613585D01*
X123396753Y-73815760D01*
X123363500Y-74025713D01*
X123363500Y-74238286D01*
X123396753Y-74448239D01*
X123462444Y-74650414D01*
X123558951Y-74839820D01*
X123683890Y-75011786D01*
X123730923Y-75058819D01*
X123764408Y-75120142D01*
X123759424Y-75189834D01*
X123717552Y-75245767D01*
X123652088Y-75270184D01*
X123643242Y-75270500D01*
X119313464Y-75270500D01*
X119182971Y-75296457D01*
X119182963Y-75296459D01*
X119060034Y-75347378D01*
X119060024Y-75347383D01*
X118949394Y-75421304D01*
X118949390Y-75421307D01*
X117744266Y-76626431D01*
X117682943Y-76659916D01*
X117637187Y-76661223D01*
X117569486Y-76650500D01*
X117569481Y-76650500D01*
X117380519Y-76650500D01*
X117380514Y-76650500D01*
X117193881Y-76680059D01*
X117014163Y-76738454D01*
X116845800Y-76824240D01*
X116823502Y-76840441D01*
X116692927Y-76935310D01*
X116692925Y-76935312D01*
X116692924Y-76935312D01*
X116559312Y-77068924D01*
X116559312Y-77068925D01*
X116559310Y-77068927D01*
X116525768Y-77115094D01*
X116448236Y-77221805D01*
X116369983Y-77375385D01*
X116322009Y-77426181D01*
X116254188Y-77442976D01*
X116188053Y-77420438D01*
X116144602Y-77365723D01*
X116135499Y-77319095D01*
X116135499Y-76387161D01*
X116155184Y-76320123D01*
X116171813Y-76299486D01*
X120639482Y-71831819D01*
X120700805Y-71798334D01*
X120727163Y-71795500D01*
X128282532Y-71795500D01*
X128282533Y-71795499D01*
X128413036Y-71769541D01*
X128535969Y-71718620D01*
X128646606Y-71644695D01*
X129362482Y-70928817D01*
X129423805Y-70895333D01*
X129450163Y-70892499D01*
X130691871Y-70892499D01*
X130691872Y-70892499D01*
X130751483Y-70886091D01*
X130886331Y-70835796D01*
X131001546Y-70749546D01*
X131087796Y-70634331D01*
X131138091Y-70499483D01*
X131144500Y-70439873D01*
X131144499Y-68644128D01*
X131138091Y-68584517D01*
X131087796Y-68449669D01*
X131087795Y-68449668D01*
X131087793Y-68449664D01*
X131001547Y-68334455D01*
X131001544Y-68334452D01*
X130886335Y-68248206D01*
X130886328Y-68248202D01*
X130751482Y-68197908D01*
X130751483Y-68197908D01*
X130691883Y-68191501D01*
X130691881Y-68191500D01*
X130691873Y-68191500D01*
X130691864Y-68191500D01*
X128896129Y-68191500D01*
X128896123Y-68191501D01*
X128836516Y-68197908D01*
X128701671Y-68248202D01*
X128701664Y-68248206D01*
X128586455Y-68334452D01*
X128586452Y-68334455D01*
X128500206Y-68449664D01*
X128500202Y-68449671D01*
X128449908Y-68584517D01*
X128443501Y-68644116D01*
X128443501Y-68644123D01*
X128443500Y-68644135D01*
X128443500Y-68654690D01*
X128423815Y-68721729D01*
X128407181Y-68742371D01*
X127736962Y-69412589D01*
X127719925Y-69349007D01*
X127654099Y-69234993D01*
X127561007Y-69141901D01*
X127446993Y-69076075D01*
X127383409Y-69059037D01*
X128015716Y-68426728D01*
X127961550Y-68387375D01*
X127772217Y-68290904D01*
X127570129Y-68225242D01*
X127360246Y-68192000D01*
X127147754Y-68192000D01*
X126937872Y-68225242D01*
X126937869Y-68225242D01*
X126735782Y-68290904D01*
X126546439Y-68387380D01*
X126492282Y-68426727D01*
X126492282Y-68426728D01*
X127124591Y-69059037D01*
X127061007Y-69076075D01*
X126946993Y-69141901D01*
X126853901Y-69234993D01*
X126788075Y-69349007D01*
X126771037Y-69412591D01*
X126138728Y-68780282D01*
X126138727Y-68780282D01*
X126099380Y-68834440D01*
X126099376Y-68834446D01*
X126094760Y-68843505D01*
X126046781Y-68894297D01*
X125978959Y-68911087D01*
X125912826Y-68888543D01*
X125873794Y-68843493D01*
X125869051Y-68834184D01*
X125869049Y-68834181D01*
X125869048Y-68834179D01*
X125744109Y-68662213D01*
X125593786Y-68511890D01*
X125421820Y-68386951D01*
X125232414Y-68290444D01*
X125232413Y-68290443D01*
X125232412Y-68290443D01*
X125030243Y-68224754D01*
X125030241Y-68224753D01*
X125030240Y-68224753D01*
X124868957Y-68199208D01*
X124820287Y-68191500D01*
X124607713Y-68191500D01*
X124559042Y-68199208D01*
X124397760Y-68224753D01*
X124195585Y-68290444D01*
X124006179Y-68386951D01*
X123834213Y-68511890D01*
X123683890Y-68662213D01*
X123558951Y-68834179D01*
X123462444Y-69023585D01*
X123396753Y-69225760D01*
X123363500Y-69435713D01*
X123363500Y-69648286D01*
X123396753Y-69858239D01*
X123462444Y-70060414D01*
X123558953Y-70249824D01*
X123561495Y-70253972D01*
X123559955Y-70254915D01*
X123580829Y-70313430D01*
X123564999Y-70381482D01*
X123514890Y-70430174D01*
X123457031Y-70444500D01*
X120329467Y-70444500D01*
X120198969Y-70470458D01*
X120198959Y-70470461D01*
X120076038Y-70521376D01*
X120076025Y-70521383D01*
X120000117Y-70572104D01*
X120000116Y-70572105D01*
X119965391Y-70595306D01*
X115216516Y-75344181D01*
X115155193Y-75377666D01*
X115128835Y-75380500D01*
X114187129Y-75380500D01*
X114187123Y-75380501D01*
X114127516Y-75386908D01*
X113992671Y-75437202D01*
X113992664Y-75437206D01*
X113877455Y-75523452D01*
X113877452Y-75523455D01*
X113791206Y-75638664D01*
X113791202Y-75638671D01*
X113740908Y-75773517D01*
X113734501Y-75833116D01*
X113734500Y-75833135D01*
X110345343Y-75833135D01*
X110389094Y-75669857D01*
X110420500Y-75431305D01*
X110420500Y-75190695D01*
X110389094Y-74952143D01*
X110326819Y-74719732D01*
X110290479Y-74632000D01*
X110234746Y-74497446D01*
X110234738Y-74497429D01*
X110114441Y-74289070D01*
X110114437Y-74289063D01*
X109967963Y-74098174D01*
X109967958Y-74098168D01*
X109797831Y-73928041D01*
X109797824Y-73928035D01*
X109606945Y-73781569D01*
X109606943Y-73781567D01*
X109606937Y-73781563D01*
X109606932Y-73781560D01*
X109606929Y-73781558D01*
X109398570Y-73661261D01*
X109398553Y-73661253D01*
X109176275Y-73569183D01*
X108943853Y-73506905D01*
X108705314Y-73475501D01*
X108705311Y-73475500D01*
X108705305Y-73475500D01*
X108464695Y-73475500D01*
X108464689Y-73475500D01*
X108464685Y-73475501D01*
X108226146Y-73506905D01*
X107993724Y-73569183D01*
X107771446Y-73661253D01*
X107771429Y-73661261D01*
X107563070Y-73781558D01*
X107563054Y-73781569D01*
X107372175Y-73928035D01*
X107372168Y-73928041D01*
X107202041Y-74098168D01*
X107202035Y-74098175D01*
X107055569Y-74289054D01*
X107055558Y-74289070D01*
X106935261Y-74497429D01*
X106935253Y-74497446D01*
X106843183Y-74719724D01*
X106780905Y-74952146D01*
X106749501Y-75190685D01*
X106749500Y-75190701D01*
X98671500Y-75190701D01*
X98671500Y-67426500D01*
X98691185Y-67359461D01*
X98743989Y-67313706D01*
X98795500Y-67302500D01*
X133227115Y-67302500D01*
X133294154Y-67322185D01*
G37*
%TD.AperFunction*%
%TD*%
M02*
