M48
; DRILL file {KiCad 9.0.1} date 2025-04-27T11:51:13-0400
; FORMAT={-:-/ absolute / metric / decimal}
; #@! TF.CreationDate,2025-04-27T11:51:13-04:00
; #@! TF.GenerationSoftware,Kicad,Pcbnew,9.0.1
; #@! TF.FileFunction,Plated,1,2,PTH
FMAT,2
METRIC
; #@! TA.AperFunction,Plated,PTH,ComponentDrill
T1C0.900
; #@! TA.AperFunction,Plated,PTH,ComponentDrill
T2C1.000
%
G90
G05
T1
X114.935Y-76.581
X114.935Y-79.121
X114.935Y-81.661
X114.935Y-84.201
X117.475Y-77.851
X117.475Y-80.391
X117.475Y-82.931
X117.475Y-85.471
T2
X124.714Y-69.542
X124.714Y-74.132
X124.714Y-78.722
X124.714Y-83.312
X124.714Y-87.902
X124.714Y-92.492
X127.254Y-69.542
X127.254Y-74.132
X127.254Y-78.722
X127.254Y-83.312
X127.254Y-87.902
X127.254Y-92.492
X129.794Y-69.542
X129.794Y-74.132
X129.794Y-78.722
X129.794Y-83.312
X129.794Y-87.902
X129.794Y-92.492
M30
